<svg xmlns="http://www.w3.org/2000/svg" xmlns:xlink="http://www.w3.org/1999/xlink" width="190" height="134" viewBox="0 0 190 134">
  <defs>
    <clipPath id="clip-path">
      <rect id="Rectángulo_339672" data-name="Rectángulo 339672" width="190" height="134" transform="translate(1125 4090)" fill="#fff" stroke="#707070" stroke-width="1"/>
    </clipPath>
  </defs>
  <g id="Enmascarar_grupo_87" data-name="Enmascarar grupo 87" transform="translate(-1125 -4090)" clip-path="url(#clip-path)">
    <g id="healthcare-covid19-coronavirus-hand-hearth" transform="translate(1158.959 4095.723)">
      <path id="Trazado_636384" data-name="Trazado 636384" d="M25.927,45.313,16.976,19.528a6.174,6.174,0,0,0-7.034-4.584,5.941,5.941,0,0,0-4.5,7.33l9.207,28.432Z" transform="translate(2.927 12.35)" fill="#ffac96"/>
      <path id="Trazado_636385" data-name="Trazado 636385" d="M48.29,45.313l8.951-25.785a6.174,6.174,0,0,1,7.034-4.584,5.941,5.941,0,0,1,4.5,7.33L59.572,50.707Z" transform="translate(44.937 12.35)" fill="#ffac96"/>
      <path id="Trazado_636386" data-name="Trazado 636386" d="M46.325,52.1,28.859,41.864a5.916,5.916,0,0,0-7.508,1.342L14.976,23.528a6.174,6.174,0,0,0-7.034-4.584,5.941,5.941,0,0,0-4.5,7.33l8.595,32.068a7.8,7.8,0,0,0,2.391,3.873L27.78,74.09A7.9,7.9,0,0,1,30.427,80V86.32h23.71V65.74A15.807,15.807,0,0,0,46.324,52.1Z" transform="translate(0.976 16.254)" fill="#ffbcab"/>
      <path id="Trazado_636387" data-name="Trazado 636387" d="M81.195,18.944a6.174,6.174,0,0,0-7.034,4.584L67.779,43.206a5.916,5.916,0,0,0-7.508-1.342L42.8,52.1A15.807,15.807,0,0,0,35,65.74V86.32H58.71V80a7.9,7.9,0,0,1,2.648-5.908L74.714,62.215A7.8,7.8,0,0,0,77.1,58.342L85.7,26.275a5.941,5.941,0,0,0-4.5-7.33Z" transform="translate(31.968 16.254)" fill="#ffbcab"/>
      <path id="Trazado_636388" data-name="Trazado 636388" d="M34,53V68.807H61.662V53H34Z" transform="translate(30.992 49.574)" fill="#006df0"/>
      <path id="Trazado_636389" data-name="Trazado 636389" d="M43.662,53H16V68.807H43.662Z" transform="translate(13.427 49.574)" fill="#006df0"/>
      <path id="Trazado_636390" data-name="Trazado 636390" d="M74.241,33.549l-1.4,1.4L47.686,60.1,22.534,34.952l-1.4-1.4A17.78,17.78,0,1,1,46.286,8.413l1.4,1.406,1.4-1.4A17.78,17.78,0,1,1,74.244,33.552Z" transform="translate(13.354 0.977)" fill="#d80027"/>
      <path id="Trazado_636391" data-name="Trazado 636391" d="M59.531,8.416a17.585,17.585,0,0,0-14.558-5.1,17.771,17.771,0,0,1,10.606,30.23l-1.4,1.4L31,58.128,32.976,60.1,58.128,34.952l1.4-1.4A17.782,17.782,0,0,0,59.531,8.416Z" transform="translate(28.065 0.977)" fill="#bd0022"/>
      <path id="Trazado_636392" data-name="Trazado 636392" d="M41.807,33.71v-7.9h7.9V17.9h-7.9V10H33.9v7.9H26v7.9h7.9v7.9Z" transform="translate(23.186 7.613)" fill="#f1f2f2"/>
      <path id="Trazado_636393" data-name="Trazado 636393" d="M57.739,35.27,44.532,42.581a1.711,1.711,0,1,0,1.711,2.964l11.5-6.323a5.927,5.927,0,0,0,2.606-7.131,5.87,5.87,0,0,1-2.606,3.179Z" transform="translate(40.436 29.17)" fill="#ffac96"/>
      <path id="Trazado_636394" data-name="Trazado 636394" d="M14.666,35.27l13.206,7.311a1.711,1.711,0,1,1-1.711,2.964l-11.5-6.323a5.927,5.927,0,0,1-2.606-7.131,5.87,5.87,0,0,0,2.606,3.179Z" transform="translate(9.241 29.17)" fill="#ffac96"/>
      <g id="Grupo_952583" data-name="Grupo 952583" transform="translate(2.24 2.198)">
        <path id="Trazado_636395" data-name="Trazado 636395" d="M50.686,16.9H44.758V10.976A1.976,1.976,0,0,0,42.782,9h-7.9A1.976,1.976,0,0,0,32.9,10.976V16.9H26.976A1.976,1.976,0,0,0,25,18.879v7.9a1.976,1.976,0,0,0,1.976,1.976H32.9v5.927a1.976,1.976,0,0,0,1.976,1.976h7.9a1.976,1.976,0,0,0,1.976-1.976V28.758h5.927a1.976,1.976,0,0,0,1.976-1.976v-7.9A1.976,1.976,0,0,0,50.686,16.9Zm-1.976,7.9H42.782a1.976,1.976,0,0,0-1.976,1.976V32.71H36.855V26.782a1.976,1.976,0,0,0-1.976-1.976H28.952V20.855h5.927a1.976,1.976,0,0,0,1.976-1.976V12.952h3.952v5.927a1.976,1.976,0,0,0,1.976,1.976H48.71Z" transform="translate(19.97 4.439)" fill="#231f20"/>
        <path id="Trazado_636396" data-name="Trazado 636396" d="M85.814,22.763a9.048,9.048,0,0,0,.059-1.047,7.943,7.943,0,0,0-6.283-7.725A8.044,8.044,0,0,0,70.3,19.859L61.61,44.873a3.223,3.223,0,0,0-.375.178L43.768,55.285a17.816,17.816,0,0,0-8.792,15.332V89.23A1.976,1.976,0,0,0,33,91.206v15.807a1.976,1.976,0,0,0,1.976,1.976H62.637a1.976,1.976,0,0,0,1.976-1.976V91.206a1.976,1.976,0,0,0-1.976-1.976V84.883a6,6,0,0,1,1.976-4.426L77.97,68.583a9.743,9.743,0,0,0,3-4.841l8.575-32.068a7.814,7.814,0,0,0,.277-2.055,7.941,7.941,0,0,0-4.011-6.856ZM74.077,21.025a4.175,4.175,0,0,1,4.7-3.161,3.952,3.952,0,0,1,3.142,3.853v.04A8.1,8.1,0,0,0,74.236,27.8L68.723,44.814a8.3,8.3,0,0,0-2.648-.751ZM60.662,105.037H36.952V93.182h23.71Zm25.073-74.39L77.14,62.734a5.89,5.89,0,0,1-1.778,2.885L61.985,77.494a9.99,9.99,0,0,0-3.3,7.39V89.23H38.927V70.618a13.934,13.934,0,0,1,6.836-11.934L63.21,48.469a3.952,3.952,0,0,1,5.414,1.442,4.07,4.07,0,0,1,.4,3,3.952,3.952,0,0,1-1.857,2.391l-11.321,6.54a1.976,1.976,0,0,0,1.976,3.418l11.321-6.54a7.8,7.8,0,0,0,3.695-4.8,7.917,7.917,0,0,0-.79-5.987l-.119-.178,6.105-18.83a4.175,4.175,0,0,1,4.7-3.161,3.952,3.952,0,0,1,3.142,3.853,3.4,3.4,0,0,1-.138,1.027Z" transform="translate(27.776 9.169)" fill="#231f20"/>
        <path id="Trazado_636397" data-name="Trazado 636397" d="M57.089,89.227V70.615A17.816,17.816,0,0,0,48.3,55.282L30.83,45.028c-.119-.059-.257-.1-.375-.158L21.82,19.994a8.115,8.115,0,0,0-9.346-6.007,7.943,7.943,0,0,0-6.283,7.725,9.045,9.045,0,0,0,.059,1.047A7.941,7.941,0,0,0,2.24,29.616,8.735,8.735,0,0,0,2.5,31.671l8.595,32.048a9.713,9.713,0,0,0,3,4.861L27.432,80.454a5.951,5.951,0,0,1,2,4.426v4.347A1.976,1.976,0,0,0,27.452,91.2v15.807a1.976,1.976,0,0,0,1.976,1.976H57.089a1.976,1.976,0,0,0,1.976-1.976V91.2A1.976,1.976,0,0,0,57.089,89.227ZM10.143,21.713a3.952,3.952,0,0,1,3.122-3.853,4.27,4.27,0,0,1,4.782,3.3l7.943,22.9a8.3,8.3,0,0,0-2.648.751L17.869,27.9a8.2,8.2,0,0,0-7.725-6.145ZM30.06,77.49,16.7,65.616a5.858,5.858,0,0,1-1.778-2.9L6.31,30.644a4.191,4.191,0,0,1-.119-1.027,3.952,3.952,0,0,1,3.122-3.853,4.236,4.236,0,0,1,4.762,3.26l6.066,18.731-.119.178a7.917,7.917,0,0,0-.79,5.987,7.8,7.8,0,0,0,3.695,4.8l11.321,6.54a1.976,1.976,0,0,0,1.976-3.418L24.9,55.3a3.952,3.952,0,0,1-1.857-2.391,4.07,4.07,0,0,1,.4-3,3.952,3.952,0,0,1,5.394-1.462L46.3,58.681a13.934,13.934,0,0,1,6.836,11.934V89.227H33.379V84.88a9.938,9.938,0,0,0-3.319-7.39Zm25.054,27.543H31.4V93.179h23.71Z" transform="translate(-2.24 9.173)" fill="#231f20"/>
        <path id="Trazado_636398" data-name="Trazado 636398" d="M76.608,7.995A19.746,19.746,0,0,0,48.657,8,19.756,19.756,0,0,0,20.706,35.923L47.261,62.478a1.976,1.976,0,0,0,2.794,0L76.61,35.923a19.77,19.77,0,0,0,0-27.928ZM48.656,58.288,23.5,33.129A15.807,15.807,0,0,1,34.687,6.153a15.641,15.641,0,0,1,11.169,4.637l1.4,1.4a1.976,1.976,0,0,0,2.794,0l1.407-1.407A15.8,15.8,0,0,1,73.814,33.125Z" transform="translate(10.144 -2.198)" fill="#231f20"/>
      </g>
    </g>
  </g>
</svg>
