<svg xmlns="http://www.w3.org/2000/svg" xmlns:xlink="http://www.w3.org/1999/xlink" width="1320" height="506.835" viewBox="0 0 1320 506.835"><defs><clipPath id="a"><path d="M19.82,0H1320a0,0,0,0,1,0,0V506.835a0,0,0,0,1,0,0H19.82A19.82,19.82,0,0,1,0,487.015V19.82A19.82,19.82,0,0,1,19.82,0Z" transform="translate(4 38.562)" fill="none"/></clipPath></defs><g transform="translate(-4 -38.562)"><path d="M1303.213,38.562H24.787C13.307,38.562,4,46.962,4,57.334V526.625C4,536.992,13.307,545.4,24.787,545.4H1303.213c11.48,0,20.787-8.4,20.787-18.772V57.334C1324,46.962,1314.693,38.562,1303.213,38.562Z" fill="#f0e7d4"/><g clip-path="url(#a)"><path d="M1195.948,500.952A128.052,128.052,0,0,1,1324,372.9v-31a159.056,159.056,0,0,0,0,318.113v-31A128.053,128.053,0,0,1,1195.948,500.952Z" fill="#ff3c00"/><path d="M1245.873,500.952A78.127,78.127,0,0,1,1324,422.824V403.908A97.045,97.045,0,0,0,1324,598V579.081A78.128,78.128,0,0,1,1245.873,500.952Z" fill="#388af5"/><g transform="translate(-38.235)"><path d="M3.646,545.4A117.068,117.068,0,0,1,120.614,432.762V392.3a117.077,117.077,0,1,0-234.155,0l0,153.1Z" fill="#ff3c00"/><path d="M120.614,545.4V432.762A117.068,117.068,0,0,0,3.646,545.4Z" fill="#ff9c95"/></g><g transform="translate(-73)"><path d="M871.51,187.907V-22.715H796.239V86.624A75.272,75.272,0,0,1,720.967,161.9v26.012a75.272,75.272,0,0,0,150.543,0Z" fill="#388af5"/><path d="M645.7-22.715V86.624A75.27,75.27,0,0,0,720.967,161.9V-22.715Z" fill="#ff9c95"/><path d="M796.239,86.624V-22.715H720.967V161.9A75.272,75.272,0,0,0,796.239,86.624Z" fill="#3874b7"/><ellipse cx="59.345" cy="58.713" rx="59.345" ry="58.713" transform="matrix(0.716, -0.698, 0.698, 0.716, 788.767, 96.612)" fill="#eecfae"/><path d="M914.749,55.83a58.189,58.189,0,0,0-42.84-17.545l.674,117.925A59.427,59.427,0,0,0,913.221,139.3C936.7,116.423,937.38,79.055,914.749,55.83Z" fill="#ff8e00"/></g><g transform="translate(0 -20.365)"><path d="M90.722,50.3l-108.467.157.112,77.527,108.467-.157A38.764,38.764,0,0,0,90.722,50.3Z" fill="#ff8e00"/></g><g transform="translate(-10 -21)"><path d="M90.968,113.813a6.194,6.194,0,1,1,6.193,6.193A6.193,6.193,0,0,1,90.968,113.813Z" fill="#ff3c00"/><path d="M73.512,113.813a6.194,6.194,0,1,1,6.195,6.193A6.194,6.194,0,0,1,73.512,113.813Z" fill="#ff3c00"/><path d="M56.057,113.813a6.194,6.194,0,1,1,6.193,6.193A6.193,6.193,0,0,1,56.057,113.813Z" fill="#ff3c00"/><path d="M38.6,113.813a6.194,6.194,0,1,1,6.195,6.193A6.194,6.194,0,0,1,38.6,113.813Z" fill="#ff3c00"/><path d="M90.968,138.5a6.194,6.194,0,1,1,6.193,6.194A6.193,6.193,0,0,1,90.968,138.5Z" fill="#388af5"/><path d="M73.512,138.5a6.194,6.194,0,1,1,6.195,6.194A6.194,6.194,0,0,1,73.512,138.5Z" fill="#388af5"/><path d="M56.057,138.5a6.194,6.194,0,1,1,6.193,6.194A6.193,6.193,0,0,1,56.057,138.5Z" fill="#388af5"/><path d="M38.6,138.5a6.194,6.194,0,1,1,6.195,6.194A6.194,6.194,0,0,1,38.6,138.5Z" fill="#388af5"/><path d="M90.968,163.184a6.194,6.194,0,1,1,6.193,6.193A6.193,6.193,0,0,1,90.968,163.184Z" fill="#388af5"/><path d="M73.512,163.184a6.194,6.194,0,1,1,6.195,6.193A6.194,6.194,0,0,1,73.512,163.184Z" fill="#388af5"/><path d="M56.057,163.184a6.194,6.194,0,1,1,6.193,6.193A6.193,6.193,0,0,1,56.057,163.184Z" fill="#388af5"/><path d="M38.6,163.184a6.194,6.194,0,1,1,6.195,6.193A6.194,6.194,0,0,1,38.6,163.184Z" fill="#388af5"/></g><g transform="translate(-339)"><rect width="58.697" height="76.379" transform="translate(1083.741 484.874)" fill="#388af5"/><rect width="58.697" height="25.356" transform="translate(1083.741 447.31)" fill="#388af5"/><rect width="58.697" height="25.357" transform="translate(1083.741 409.662)" fill="#388af5"/><rect width="58.697" height="12.679" transform="translate(1083.741 385.907)" fill="#388af5"/></g><path d="M1194.688,55.406a8.531,8.531,0,1,1-8.531-8.531A8.534,8.534,0,0,1,1194.688,55.406Z" fill="#ff8e00"/><path d="M1218.725,55.406a8.529,8.529,0,1,1-8.527-8.531A8.533,8.533,0,0,1,1218.725,55.406Z" fill="#ff8e00"/><path d="M1242.766,55.406a8.531,8.531,0,1,1-8.527-8.531A8.531,8.531,0,0,1,1242.766,55.406Z" fill="#ff8e00"/><path d="M1194.688,81.388a8.531,8.531,0,1,1-8.531-8.531A8.528,8.528,0,0,1,1194.688,81.388Z" fill="#ff8e00"/><path d="M1218.725,81.388a8.529,8.529,0,1,1-8.527-8.531A8.527,8.527,0,0,1,1218.725,81.388Z" fill="#ff8e00"/><path d="M1242.766,81.388a8.531,8.531,0,1,1-8.527-8.531A8.525,8.525,0,0,1,1242.766,81.388Z" fill="#ff8e00"/><path d="M1194.688,107.363a8.531,8.531,0,1,1-8.531-8.531A8.532,8.532,0,0,1,1194.688,107.363Z" fill="#ff8e00"/><path d="M1218.725,107.363a8.529,8.529,0,1,1-8.527-8.531A8.53,8.53,0,0,1,1218.725,107.363Z" fill="#ff8e00"/><path d="M1242.766,107.363a8.531,8.531,0,1,1-8.527-8.531A8.528,8.528,0,0,1,1242.766,107.363Z" fill="#ff8e00"/><path d="M1266.807,107.363a8.529,8.529,0,1,1-8.531-8.531A8.532,8.532,0,0,1,1266.807,107.363Z" fill="#ff8e00"/><path d="M1290.847,107.363a8.531,8.531,0,1,1-8.53-8.531A8.531,8.531,0,0,1,1290.847,107.363Z" fill="#ff8e00"/><path d="M1314.888,107.363a8.53,8.53,0,1,1-8.534-8.531A8.534,8.534,0,0,1,1314.888,107.363Z" fill="#ff8e00"/><path d="M1194.688,133.345a8.531,8.531,0,1,1-8.531-8.531A8.532,8.532,0,0,1,1194.688,133.345Z" fill="#ff8e00"/><path d="M1218.725,133.345a8.529,8.529,0,1,1-8.527-8.531A8.53,8.53,0,0,1,1218.725,133.345Z" fill="#ff8e00"/><path d="M1242.766,133.345a8.531,8.531,0,1,1-8.527-8.531A8.528,8.528,0,0,1,1242.766,133.345Z" fill="#ff8e00"/><path d="M1266.807,133.345a8.529,8.529,0,1,1-8.531-8.531A8.532,8.532,0,0,1,1266.807,133.345Z" fill="#ff8e00"/><path d="M1290.847,133.345a8.531,8.531,0,1,1-8.53-8.531A8.531,8.531,0,0,1,1290.847,133.345Z" fill="#ff8e00"/><path d="M1314.888,133.345a8.53,8.53,0,1,1-8.534-8.531A8.534,8.534,0,0,1,1314.888,133.345Z" fill="#ff8e00"/><path d="M1242.766,159.327a8.531,8.531,0,1,1-8.527-8.534A8.527,8.527,0,0,1,1242.766,159.327Z" fill="#ff8e00"/><path d="M1266.807,159.327a8.529,8.529,0,1,1-8.531-8.534A8.53,8.53,0,0,1,1266.807,159.327Z" fill="#ff8e00"/><path d="M1290.847,159.327a8.531,8.531,0,1,1-8.53-8.534A8.529,8.529,0,0,1,1290.847,159.327Z" fill="#ff8e00"/><path d="M1314.888,159.327a8.53,8.53,0,1,1-8.534-8.534A8.533,8.533,0,0,1,1314.888,159.327Z" fill="#ff8e00"/><path d="M1242.766,185.3a8.531,8.531,0,1,1-8.527-8.527A8.528,8.528,0,0,1,1242.766,185.3Z" fill="#ff8e00"/><path d="M1266.807,185.3a8.529,8.529,0,1,1-8.531-8.527A8.531,8.531,0,0,1,1266.807,185.3Z" fill="#ff8e00"/><path d="M1290.847,185.3a8.531,8.531,0,1,1-8.53-8.527A8.53,8.53,0,0,1,1290.847,185.3Z" fill="#ff8e00"/><path d="M1314.888,185.3a8.53,8.53,0,1,1-8.534-8.527A8.534,8.534,0,0,1,1314.888,185.3Z" fill="#ff8e00"/><g transform="translate(-38.235)"><rect width="295.924" height="11.681" transform="translate(80.801 498.589)" fill="#ff9c95"/><rect width="39.923" height="11.681" transform="translate(80.801 498.589)" fill="#388af5"/></g></g></g></svg>