<svg xmlns="http://www.w3.org/2000/svg" width="164" height="164" viewBox="0 0 164 164">
  <g id="Grupo_930517" data-name="Grupo 930517" transform="translate(8772 9837)">
    <g id="Grupo_930496" data-name="Grupo 930496" transform="translate(-8951.814 -11118.735)">
      <g id="Grupo_930456" data-name="Grupo 930456" transform="translate(195.146 1291.326)">
        <circle id="Elipse_7667" data-name="Elipse 7667" cx="65.203" cy="65.203" r="65.203" transform="translate(0 14.578)" fill="#ff3c00"/>
        <g id="trabajador" transform="translate(-26.142 7.899)">
          <g id="Grupo_930505" data-name="Grupo 930505" transform="translate(43.471 1.737)">
            <path id="Trazado_626550" data-name="Trazado 626550" d="M130.241,186.937c-3.371,0-6.114-3.315-6.156-7.437-.042-4.194,2.726-7.622,6.156-7.622Z" transform="translate(-106.754 -133.819)" fill="#ffab8a"/>
            <g id="Grupo_930500" data-name="Grupo 930500" transform="translate(0 38.06)">
              <path id="Trazado_626551" data-name="Trazado 626551" d="M144.985,418.231V423.3H49.234v-5.066A14.185,14.185,0,0,1,60.73,404.3l3.888-.771,9.525-1.887,14.216-2.816h17.277l8.09,1.591,6.252,1.227,9.523,1.871,3.989.785A14.185,14.185,0,0,1,144.985,418.231Z" transform="translate(-49.234 -346.282)" fill="#3eb1ff"/>
              <path id="Trazado_626552" data-name="Trazado 626552" d="M411.387,433.792v5.066H405.6v-5.066c0-6.8-3.022-13.422-9.695-14.712l3.989.785A14.185,14.185,0,0,1,411.387,433.792Z" transform="translate(-315.636 -361.843)" fill="#4390ff"/>
              <path id="Trazado_626553" data-name="Trazado 626553" d="M334.026,406.927v21.649h-6.252V405.7Z" transform="translate(-263.281 -351.561)" fill="#4390ff"/>
              <path id="Trazado_626554" data-name="Trazado 626554" d="M156.814,467.63h45.835v8.507H156.814Z" transform="translate(-131.905 -399.152)" fill="#668fa3"/>
              <path id="Trazado_626555" data-name="Trazado 626555" d="M327.774,467.63h6.252v8.507h-6.252Z" transform="translate(-263.281 -399.152)" fill="#4c7889"/>
              <g id="Grupo_930498" data-name="Grupo 930498" transform="translate(15.383 55.363)">
                <path id="Trazado_626556" data-name="Trazado 626556" d="M125.2,410.99v21.621h-9.526V412.877Z" transform="translate(-115.674 -410.99)" fill="#668fa3"/>
                <path id="Trazado_626557" data-name="Trazado 626557" d="M364.3,412.871v19.748h-9.523V411l4.793.942Z" transform="translate(-299.413 -410.998)" fill="#668fa3"/>
              </g>
              <path id="Trazado_626558" data-name="Trazado 626558" d="M380.2,416v19.748h-4.73V415.07Z" transform="translate(-299.937 -358.762)" fill="#4c7889"/>
              <path id="Trazado_626559" data-name="Trazado 626559" d="M354.774,467.63H364.3v8.507h-9.523Z" transform="translate(-284.03 -399.152)" fill="#d4efff"/>
              <path id="Trazado_626560" data-name="Trazado 626560" d="M115.677,467.634H125.2v8.506h-9.525Z" transform="translate(-100.293 -399.155)" fill="#d4efff"/>
              <path id="Trazado_626561" data-name="Trazado 626561" d="M375.474,467.63h4.73v8.507h-4.73Z" transform="translate(-299.937 -399.152)" fill="#b7d4e2"/>
              <path id="Trazado_626562" data-name="Trazado 626562" d="M234.334,359.052a11.861,11.861,0,0,0,1.158,3.714,8.639,8.639,0,0,1-17.277,0,11.583,11.583,0,0,0,.736-1.818,11.889,11.889,0,0,0,.421-1.894c.025-.181.046-.361.06-.544a11.791,11.791,0,0,0-.681-5.152l-.537-1.459h17.277l-.537,1.459a11.82,11.82,0,0,0-.678,5.152C234.29,358.691,234.308,358.872,234.334,359.052Z" transform="translate(-179.089 -310.218)" fill="#ffd9c0"/>
              <g id="Grupo_930499" data-name="Grupo 930499" transform="translate(72.228)">
                <path id="Trazado_626563" data-name="Trazado 626563" d="M361.182,186.937c3.371,0,6.114-3.315,6.156-7.437.042-4.194-2.726-7.622-6.156-7.622Z" transform="translate(-361.182 -171.879)" fill="#ffab8a"/>
              </g>
              <path id="Trazado_626564" data-name="Trazado 626564" d="M234.954,353.359a11.82,11.82,0,0,0-.678,5.152,17.056,17.056,0,0,1-14.844,0,11.791,11.791,0,0,0-.681-5.152l-.537-1.459h17.277Z" transform="translate(-179.089 -310.218)" fill="#ffbca1"/>
              <path id="Trazado_626565" data-name="Trazado 626565" d="M198.784,191.966c0,5.863-4.985,12.867-14.821,20.822a15.413,15.413,0,0,1-9.463,3.45c-.1,0-.2,0-.3,0a15.434,15.434,0,0,1-9.773-3.462c-9.829-7.951-14.814-14.955-14.814-20.815,0-.623.023-1.246.076-1.843.255-2.593.31-10.614.169-18.243l43.874.009H198.6c-.134,7.539-.146,15.659.107,18.217C198.758,190.72,198.784,191.343,198.784,191.966Z" transform="translate(-126.372 -171.88)" fill="#ffd9c0"/>
              <path id="Trazado_626566" data-name="Trazado 626566" d="M281.378,192c0,5.863-4.985,12.867-14.821,20.822a15.413,15.413,0,0,1-9.463,3.45,10.978,10.978,0,0,0,7.516-3.45c7.872-7.956,11.864-14.96,11.864-20.822,0-.623-.021-1.246-.063-1.859-.2-2.559-.192-10.679-.083-18.217h4.867c-.134,7.539-.146,15.659.107,18.217C281.352,190.751,281.378,191.374,281.378,192Z" transform="translate(-208.966 -171.911)" fill="#ffbca1"/>
            </g>
            <g id="Grupo_930504" data-name="Grupo 930504" transform="translate(13.501)">
              <g id="Grupo_930502" data-name="Grupo 930502" transform="translate(6.828 3.85)">
                <path id="Trazado_626567" data-name="Trazado 626567" d="M191.8,45.719v9.044H137.034V45.719A21.591,21.591,0,0,1,158.627,24.13h11.579A21.591,21.591,0,0,1,191.8,45.719Z" transform="translate(-137.034 -24.13)" fill="#ffc73b"/>
                <g id="Grupo_930501" data-name="Grupo 930501" transform="translate(31.374)">
                  <path id="Trazado_626568" data-name="Trazado 626568" d="M295.926,45.719v9.044h-6.775V45.719c0-11.922-7.036-21.589-16.618-21.589h1.8A21.591,21.591,0,0,1,295.926,45.719Z" transform="translate(-272.534 -24.13)" fill="#ffa73e"/>
                </g>
              </g>
              <path id="Trazado_626569" data-name="Trazado 626569" d="M137.034,117.37H191.8v9.044H137.034Z" transform="translate(-130.206 -91.931)" fill="#ffa73e"/>
              <g id="Grupo_930503" data-name="Grupo 930503" transform="translate(54.819 25.439)">
                <path id="Trazado_626570" data-name="Trazado 626570" d="M344.3,117.37h6.775v9.044H344.3Z" transform="translate(-344.304 -117.37)" fill="#ff8440"/>
              </g>
              <path id="Trazado_626571" data-name="Trazado 626571" d="M176.07,156.43v3.082a4.644,4.644,0,0,1-4.645,4.642H112.189a4.644,4.644,0,0,1-4.645-4.642V156.43Z" transform="translate(-107.544 -121.947)" fill="#ffc73b"/>
              <path id="Trazado_626572" data-name="Trazado 626572" d="M365.035,156.43v3.082a4.644,4.644,0,0,1-4.645,4.642h-6.946a4.644,4.644,0,0,0,4.645-4.645V156.43Z" transform="translate(-296.509 -121.947)" fill="#ffa73e"/>
              <path id="Trazado_626573" data-name="Trazado 626573" d="M239.614,7.5h7.622V41.983h-7.622Z" transform="translate(-209.035 -7.5)" fill="#ffa73e"/>
              <path id="Trazado_626574" data-name="Trazado 626574" d="M239.614,117.37h7.622v9.044h-7.622Z" transform="translate(-209.035 -91.931)" fill="#ff8440"/>
            </g>
          </g>
          <g id="Grupo_930506" data-name="Grupo 930506" transform="translate(41.734 0)">
            <path id="Trazado_626575" data-name="Trazado 626575" d="M128.06,96.113l-26.977-5.3a10.077,10.077,0,0,1-.118-7.275l.3-.806q.455-.323.89-.676c10.262-8.3,15.465-15.761,15.465-22.174,0-.67-.028-1.343-.082-2l0-.027c-.036-.362-.067-.864-.093-1.491,3.476-.93,6.107-4.579,6.151-8.927a10.864,10.864,0,0,0-.214-2.275,6.39,6.39,0,0,0,3.857-5.86v-3.08a1.736,1.736,0,0,0-1.737-1.737H120.3V27.176A23.355,23.355,0,0,0,96.972,3.851H96.91V1.737A1.736,1.736,0,0,0,95.174,0H87.551a1.737,1.737,0,0,0-1.737,1.737V3.851h-.422A23.354,23.354,0,0,0,62.062,27.176v7.308H56.971a1.737,1.737,0,0,0-1.737,1.737V39.3a6.391,6.391,0,0,0,4.033,5.933,10.916,10.916,0,0,0-.2,2.2c.043,4.323,2.646,7.956,6.093,8.911-.029.634-.063,1.153-.1,1.539-.055.619-.083,1.291-.083,2,0,6.411,5.2,13.869,15.455,22.164q.359.292.733.564l.342.927a10.077,10.077,0,0,1-.119,7.277l-26.751,5.3a15.949,15.949,0,0,0-12.9,15.633v5.066a1.737,1.737,0,0,0,1.737,1.737H98.646a1.737,1.737,0,1,0,0-3.473H70.115v-5.063h42.361v5.063H106.8a1.737,1.737,0,1,0,0,3.473h32.424a1.736,1.736,0,0,0,1.737-1.737v-5.066a15.949,15.949,0,0,0-12.9-15.632ZM122,106.539h-6.052V97.273L122,98.462ZM120.117,47.4a6.013,6.013,0,0,1-2.761,5.291c-.021-1.956-.021-4.33,0-7.011h2.577a7.421,7.421,0,0,1,.184,1.72ZM96.972,7.324a19.883,19.883,0,0,1,19.782,18.116h-7.419a1.737,1.737,0,1,0,0,3.473h7.494v5.572H96.91V7.324ZM89.288,28.912h4.149v5.572H89.288ZM93.438,3.473V25.439H89.288V3.473Zm-27.9,25.439H73.03a1.737,1.737,0,1,0,0-3.473H65.611A19.883,19.883,0,0,1,85.393,7.324h.422v27.16H65.535Zm-3,18.489a7.432,7.432,0,0,1,.184-1.72h2.569c.014,2.6,0,4.992-.029,6.99A6.031,6.031,0,0,1,62.538,47.4Zm5.909,12.481c0-.6.023-1.172.068-1.673.22-2.238.273-7.648.248-12.529H72.7a1.737,1.737,0,1,0,0-3.473H61.616A2.911,2.911,0,0,1,58.708,39.3V37.957h65.053V39.3a2.911,2.911,0,0,1-2.909,2.907H80.817a1.737,1.737,0,1,0,0,3.473h33.067c-.031,3.878-.04,10.137.191,12.5.046.56.069,1.133.069,1.7,0,5.238-4.9,11.972-14.179,19.476a13.723,13.723,0,0,1-8.635,3.065h-.035a13.812,13.812,0,0,1-8.678-3.074C73.347,71.85,68.447,65.119,68.447,59.882ZM91.26,85.9h.077a17.154,17.154,0,0,0,5.7-.978,13.529,13.529,0,0,0,1.091,7.8,6.9,6.9,0,0,1-13.784,0,13.532,13.532,0,0,0,1.084-7.852A17.17,17.17,0,0,0,91.26,85.9ZM60.59,98.473l6.052-1.2v9.264H60.59Zm-15.383,16.6v-3.329A12.473,12.473,0,0,1,55.3,99.521l1.815-.359v15.913Zm21.435-.03H60.59v-5.033h6.052Zm3.473-8.506V96.587l10.949-2.168a10.385,10.385,0,0,0,10.17,8.3,10.392,10.392,0,0,0,10.168-8.3l11.074,2.176v9.948H70.115ZM122,110.012v5.033h-6.052v-5.033Zm15.481,5.063H125.474V99.145l1.921.377a12.471,12.471,0,0,1,10.087,12.223Z" transform="translate(-41.734 0)"/>
            <path id="Trazado_626576" data-name="Trazado 626576" d="M229.16,284.052a8.171,8.171,0,0,0,7.885-6.044,1.737,1.737,0,0,0-3.355-.9,4.691,4.691,0,0,1-9.058,0,1.737,1.737,0,0,0-3.355.9A8.17,8.17,0,0,0,229.16,284.052Z" transform="translate(-179.66 -211.958)"/>
          </g>
        </g>
      </g>
      <rect id="Rectángulo_305736" data-name="Rectángulo 305736" width="164" height="164" transform="translate(179.814 1281.735)" fill="none"/>
    </g>
    <g id="Grupo_930497" data-name="Grupo 930497" transform="translate(-9149.295 -10936.209)">
      <path id="Trazado_626474" data-name="Trazado 626474" d="M409.353,1218.168h-.169a20.335,20.335,0,0,0-20.247,20.422v.055a20.4,20.4,0,0,0,20.427,20.377h.058a20.4,20.4,0,0,0,20.363-20.432v-.146A20.354,20.354,0,0,0,409.353,1218.168Z" fill="#ff8e00"/>
      <g id="Grupo_81374" data-name="Grupo 81374">
        <g id="Grupo_81372" data-name="Grupo 81372">
          <path id="Trazado_626475" data-name="Trazado 626475" d="M398.708,1238.573l1.171-9.8h11.2v3.448h-7.593l-.434,3.806a5.215,5.215,0,0,1,1.243-.489,6.262,6.262,0,0,1,5.895,1.479,7.707,7.707,0,0,1,.711,8.08,5.648,5.648,0,0,1-2.309,2.3,7.285,7.285,0,0,1-3.514.8,7.85,7.85,0,0,1-3.382-.743,6.062,6.062,0,0,1-2.474-2.038,4.953,4.953,0,0,1-.881-2.925h4.447a2.512,2.512,0,0,0,.672,1.667,2.127,2.127,0,0,0,1.592.617q2.236,0,2.237-3.309,0-3.058-2.737-3.059a2.728,2.728,0,0,0-2.316,1Z" fill="none"/>
          <path id="Trazado_626476" data-name="Trazado 626476" d="M416.868,1243.629a2.524,2.524,0,0,1,1.75.625,2.182,2.182,0,0,1,0,3.2,2.759,2.759,0,0,1-3.507-.006,2.181,2.181,0,0,1,0-3.185A2.5,2.5,0,0,1,416.868,1243.629Z" fill="none"/>
        </g>
        <g id="Grupo_81373" data-name="Grupo 81373">
          <path id="Trazado_626477" data-name="Trazado 626477" d="M398.708,1238.573l1.171-9.8h11.2v3.448h-7.593l-.434,3.806a5.215,5.215,0,0,1,1.243-.489,6.262,6.262,0,0,1,5.895,1.479,7.707,7.707,0,0,1,.711,8.08,5.648,5.648,0,0,1-2.309,2.3,7.285,7.285,0,0,1-3.514.8,7.85,7.85,0,0,1-3.382-.743,6.062,6.062,0,0,1-2.474-2.038,4.953,4.953,0,0,1-.881-2.925h4.447a2.512,2.512,0,0,0,.672,1.667,2.127,2.127,0,0,0,1.592.617q2.236,0,2.237-3.309,0-3.058-2.737-3.059a2.728,2.728,0,0,0-2.316,1Z" fill="#fff"/>
          <path id="Trazado_626478" data-name="Trazado 626478" d="M416.868,1243.629a2.524,2.524,0,0,1,1.75.625,2.182,2.182,0,0,1,0,3.2,2.759,2.759,0,0,1-3.507-.006,2.181,2.181,0,0,1,0-3.185A2.5,2.5,0,0,1,416.868,1243.629Z" fill="#fff"/>
        </g>
      </g>
    </g>
  </g>
</svg>
