<svg xmlns="http://www.w3.org/2000/svg" width="164" height="165.813" viewBox="0 0 164 165.813">
  <g id="Grupo_930519" data-name="Grupo 930519" transform="translate(-1079 -1857)">
    <g id="Grupo_930483" data-name="Grupo 930483" transform="translate(899.186 575.265)">
      <g id="Grupo_930456" data-name="Grupo 930456" transform="translate(195.146 1291.326)">
        <circle id="Elipse_7667" data-name="Elipse 7667" cx="65.203" cy="65.203" r="65.203" transform="translate(0 14.578)" fill="#ff3c00"/>
        <g id="hecho" transform="translate(10.668 7.397)">
          <g id="Grupo_930486" data-name="Grupo 930486" transform="translate(1.736 1.751)">
            <path id="Trazado_626526" data-name="Trazado 626526" d="M75.9,150.351H9.961A2.461,2.461,0,0,1,7.5,147.89V46.153a2.461,2.461,0,0,1,2.461-2.461H75.9a2.461,2.461,0,0,1,2.461,2.461V147.89A2.462,2.462,0,0,1,75.9,150.351Z" transform="translate(-7.5 -35.319)" fill="#e7e2e6"/>
            <path id="Trazado_626527" data-name="Trazado 626527" d="M122.089,114.174H56.151a2.461,2.461,0,0,1-2.461-2.461V9.976a2.461,2.461,0,0,1,2.461-2.461h65.938a2.461,2.461,0,0,1,2.461,2.461V111.713A2.461,2.461,0,0,1,122.089,114.174Z" transform="translate(-42.999 -7.515)" fill="#faf7f8"/>
            <path id="Trazado_626528" data-name="Trazado 626528" d="M332.224,7.515h-5.115a2.461,2.461,0,0,1,2.461,2.461V111.713a2.461,2.461,0,0,1-2.461,2.461h5.115a2.461,2.461,0,0,0,2.461-2.461V9.976a2.461,2.461,0,0,0-2.461-2.461Z" transform="translate(-253.134 -7.515)" fill="#f0eef0"/>
            <path id="Trazado_626529" data-name="Trazado 626529" d="M156.395,50.906H119.748a2.365,2.365,0,0,1-2.365-2.365V42.791a2.365,2.365,0,0,1,2.365-2.365h36.647a2.365,2.365,0,0,1,2.365,2.365v5.751A2.365,2.365,0,0,1,156.395,50.906Z" transform="translate(-91.95 -32.809)" fill="#6ce79a"/>
            <path id="Trazado_626530" data-name="Trazado 626530" d="M270.952,40.426H266.44a2.365,2.365,0,0,1,2.365,2.365v5.751a2.365,2.365,0,0,1-2.365,2.365h4.512a2.365,2.365,0,0,0,2.364-2.365V42.791A2.365,2.365,0,0,0,270.952,40.426Z" transform="translate(-206.507 -32.809)" fill="#00d8a2"/>
            <circle id="Elipse_7674" data-name="Elipse 7674" cx="27.542" cy="27.542" r="27.542" transform="translate(59.956 43.409)" fill="#6ce79a"/>
            <path id="Trazado_626531" data-name="Trazado 626531" d="M375.064,195.062a27.819,27.819,0,0,0-3.154.181,27.542,27.542,0,0,1,0,54.722,27.542,27.542,0,1,0,3.154-54.9Z" transform="translate(-287.566 -151.653)" fill="#00d8a2"/>
            <g id="Grupo_930485" data-name="Grupo 930485" transform="translate(70.918 58.546)">
              <path id="Trazado_626532" data-name="Trazado 626532" d="M326.124,285.273a3.857,3.857,0,0,1-2.737-1.134l-8.352-8.352a3.871,3.871,0,1,1,5.475-5.475l5.615,5.615L340.452,261.6a3.871,3.871,0,0,1,5.475,5.475l-17.066,17.066A3.86,3.86,0,0,1,326.124,285.273Z" transform="translate(-313.9 -260.464)" fill="#faf7f8"/>
            </g>
          </g>
          <g id="Grupo_930487" data-name="Grupo 930487" transform="translate(0 0.015)">
            <path id="Trazado_626533" data-name="Trazado 626533" d="M150.631,46.878a4.105,4.105,0,0,0,4.1-4.1V37.025a4.105,4.105,0,0,0-4.1-4.1H113.983a4.1,4.1,0,0,0-4.1,4.1v5.752a4.1,4.1,0,0,0,4.1,4.1Zm-37.276-4.1V37.025a.63.63,0,0,1,.629-.629h36.647a.63.63,0,0,1,.629.629v5.752a.63.63,0,0,1-.629.629H113.983A.63.63,0,0,1,113.355,42.777Z" transform="translate(-84.45 -25.308)"/>
            <path id="Trazado_626534" data-name="Trazado 626534" d="M90.519,191.034h51.144a1.736,1.736,0,0,0,0-3.472H90.519a1.736,1.736,0,0,0,0,3.472Z" transform="translate(-68.234 -144.154)"/>
            <path id="Trazado_626535" data-name="Trazado 626535" d="M90.519,155.187h51.144a1.736,1.736,0,0,0,0-3.472H90.519a1.736,1.736,0,0,0,0,3.472Z" transform="translate(-68.234 -116.603)"/>
            <path id="Trazado_626536" data-name="Trazado 626536" d="M88.783,117.6a1.736,1.736,0,0,0,1.736,1.736h51.144a1.736,1.736,0,1,0,0-3.472H90.519a1.736,1.736,0,0,0-1.736,1.736Z" transform="translate(-68.234 -89.053)"/>
            <path id="Trazado_626537" data-name="Trazado 626537" d="M337.424,252.965a5.572,5.572,0,0,0-3.965,1.643l-13.1,13.1-4.387-4.387a5.607,5.607,0,1,0-7.93,7.93l8.352,8.352a5.607,5.607,0,0,0,7.93,0l17.065-17.065a5.608,5.608,0,0,0-3.964-9.573Zm1.51,7.117-17.066,17.066a2.135,2.135,0,0,1-3.02,0L310.5,268.8a2.135,2.135,0,1,1,3.02-3.02l5.615,5.615a1.736,1.736,0,0,0,2.455,0l14.328-14.328a2.135,2.135,0,1,1,3.02,3.02Z" transform="translate(-235.481 -194.419)"/>
            <path id="Trazado_626538" data-name="Trazado 626538" d="M112.964,55.553a1.736,1.736,0,1,0-2.812,2.036,25.823,25.823,0,1,1-4.283-4.614,1.736,1.736,0,0,0,2.239-2.653,29.31,29.31,0,0,0-23.085-6.6V4.212a4.2,4.2,0,0,0-4.2-4.2H14.888a4.2,4.2,0,0,0-4.2,4.2V8.388H4.2a4.2,4.2,0,0,0-4.2,4.2v8.333a1.736,1.736,0,1,0,3.472,0V12.586A.726.726,0,0,1,4.2,11.86h6.494v94.089a4.2,4.2,0,0,0,4.2,4.2H38.863a1.736,1.736,0,1,0,0-3.472H14.888a.726.726,0,0,1-.725-.725V4.212a.726.726,0,0,1,.725-.725H80.826a.726.726,0,0,1,.725.725V44.446A29.286,29.286,0,0,0,68.833,51.72H22.285a1.736,1.736,0,1,0,0,3.472h43.5a29.324,29.324,0,0,0-2.934,4.825H22.285a1.736,1.736,0,1,0,0,3.472H61.44a29.055,29.055,0,0,0-1.156,4.825h-38a1.736,1.736,0,1,0,0,3.472H59.97q-.014.456-.014.915a29.427,29.427,0,0,0,.26,3.911H22.285a1.736,1.736,0,1,0,0,3.472H60.9a29.058,29.058,0,0,0,1.725,4.825H22.285a1.736,1.736,0,1,0,0,3.472H64.518a29.5,29.5,0,0,0,3.837,4.825H22.285a1.736,1.736,0,1,0,0,3.472H72.449a29.167,29.167,0,0,0,9.1,4.279v4.992a.726.726,0,0,1-.725.725H45.575a1.736,1.736,0,0,0,0,3.472H70.86v4.176a.726.726,0,0,1-.725.726H4.2a.726.726,0,0,1-.725-.726V27.63A1.736,1.736,0,1,0,0,27.63v86.692a4.2,4.2,0,0,0,4.2,4.2H70.135a4.2,4.2,0,0,0,4.2-4.2v-4.176h6.494a4.2,4.2,0,0,0,4.2-4.2v-4.272A29.293,29.293,0,0,0,118.512,72.7a29.065,29.065,0,0,0-5.548-17.149Z" transform="translate(0 -0.015)"/>
          </g>
        </g>
      </g>
      <rect id="Rectángulo_305736" data-name="Rectángulo 305736" width="164" height="164" transform="translate(179.814 1281.735)" fill="none"/>
    </g>
    <g id="Grupo_930484" data-name="Grupo 930484" transform="translate(800.736 763.791)">
      <path id="Trazado_626464" data-name="Trazado 626464" d="M310.081,1218.168h-.169a20.333,20.333,0,0,0-20.247,20.422v.055a20.4,20.4,0,0,0,20.427,20.377h.058a20.4,20.4,0,0,0,20.363-20.432v-.146A20.354,20.354,0,0,0,310.081,1218.168Z" fill="#ff8e00"/>
      <g id="Grupo_81366" data-name="Grupo 81366">
        <g id="Grupo_81364" data-name="Grupo 81364">
          <path id="Trazado_626465" data-name="Trazado 626465" d="M303.226,1236.5h2.092a2.175,2.175,0,0,0,2.487-2.434,2.1,2.1,0,0,0-.592-1.546,2.246,2.246,0,0,0-1.671-.6,2.4,2.4,0,0,0-1.533.513,1.566,1.566,0,0,0-.652,1.277h-4.434a4.537,4.537,0,0,1,.842-2.7,5.554,5.554,0,0,1,2.336-1.849,8,8,0,0,1,3.283-.664,7.848,7.848,0,0,1,5.027,1.461,4.854,4.854,0,0,1,1.829,4.013,4.049,4.049,0,0,1-.757,2.335,5.393,5.393,0,0,1-2.2,1.784,5.151,5.151,0,0,1,2.4,1.677,4.421,4.421,0,0,1,.868,2.784,4.943,4.943,0,0,1-1.974,4.1,8.189,8.189,0,0,1-5.184,1.54,8.5,8.5,0,0,1-3.494-.717,5.47,5.47,0,0,1-2.441-1.987,5.166,5.166,0,0,1-.829-2.889h4.461a2,2,0,0,0,.71,1.527,2.51,2.51,0,0,0,1.751.644,2.624,2.624,0,0,0,1.868-.651,2.177,2.177,0,0,0,.7-1.665,2.551,2.551,0,0,0-.724-2.053,3.034,3.034,0,0,0-2-.605h-2.158Z" fill="none"/>
          <path id="Trazado_626466" data-name="Trazado 626466" d="M317.6,1243.629a2.527,2.527,0,0,1,1.751.625,2.182,2.182,0,0,1,0,3.2,2.528,2.528,0,0,1-1.751.626,2.5,2.5,0,0,1-1.756-.632,2.181,2.181,0,0,1,0-3.185A2.5,2.5,0,0,1,317.6,1243.629Z" fill="none"/>
        </g>
        <g id="Grupo_81365" data-name="Grupo 81365">
          <path id="Trazado_626467" data-name="Trazado 626467" d="M303.226,1236.5h2.092a2.175,2.175,0,0,0,2.487-2.434,2.1,2.1,0,0,0-.592-1.546,2.246,2.246,0,0,0-1.671-.6,2.4,2.4,0,0,0-1.533.513,1.566,1.566,0,0,0-.652,1.277h-4.434a4.537,4.537,0,0,1,.842-2.7,5.554,5.554,0,0,1,2.336-1.849,8,8,0,0,1,3.283-.664,7.848,7.848,0,0,1,5.027,1.461,4.854,4.854,0,0,1,1.829,4.013,4.049,4.049,0,0,1-.757,2.335,5.393,5.393,0,0,1-2.2,1.784,5.151,5.151,0,0,1,2.4,1.677,4.421,4.421,0,0,1,.868,2.784,4.943,4.943,0,0,1-1.974,4.1,8.189,8.189,0,0,1-5.184,1.54,8.5,8.5,0,0,1-3.494-.717,5.47,5.47,0,0,1-2.441-1.987,5.166,5.166,0,0,1-.829-2.889h4.461a2,2,0,0,0,.71,1.527,2.51,2.51,0,0,0,1.751.644,2.624,2.624,0,0,0,1.868-.651,2.177,2.177,0,0,0,.7-1.665,2.551,2.551,0,0,0-.724-2.053,3.034,3.034,0,0,0-2-.605h-2.158Z" fill="#fff"/>
          <path id="Trazado_626468" data-name="Trazado 626468" d="M317.6,1243.629a2.527,2.527,0,0,1,1.751.625,2.182,2.182,0,0,1,0,3.2,2.528,2.528,0,0,1-1.751.626,2.5,2.5,0,0,1-1.756-.632,2.181,2.181,0,0,1,0-3.185A2.5,2.5,0,0,1,317.6,1243.629Z" fill="#fff"/>
        </g>
      </g>
    </g>
  </g>
</svg>
