<svg xmlns="http://www.w3.org/2000/svg" width="166.6" height="164" viewBox="0 0 166.6 164">
  <g id="Grupo_930516" data-name="Grupo 930516" transform="translate(8423.6 9837)">
    <g id="Grupo_930507" data-name="Grupo 930507" transform="translate(-8600.814 -11118.735)">
      <g id="Grupo_930456" data-name="Grupo 930456" transform="translate(195.146 1291.326)">
        <circle id="Elipse_7667" data-name="Elipse 7667" cx="65.203" cy="65.203" r="65.203" transform="translate(0 14.578)" fill="#ff3c00"/>
        <g id="votacion" transform="translate(13.907 28.517)">
          <g id="Grupo_930515" data-name="Grupo 930515" transform="translate(1.543 1.502)">
            <g id="Grupo_930509" data-name="Grupo 930509" transform="translate(0.449 0.252)">
              <path id="Trazado_626577" data-name="Trazado 626577" d="M322.466,53.469H304.859a2,2,0,0,1-1.952-1.566,28.323,28.323,0,0,0-6.949-13.144q-.64-.694-1.331-1.339A28.654,28.654,0,0,0,281.5,30.345a2,2,0,0,1-1.55-1.948l0-17.637a2.006,2.006,0,0,1,2.3-1.982,49.71,49.71,0,0,1,42.2,42.4,2,2,0,0,1-1.982,2.286Z" transform="translate(-225.86 -8.757)" fill="#98d5b9"/>
              <path id="Trazado_626578" data-name="Trazado 626578" d="M54.3,10.76V28.381a2,2,0,0,1-1.556,1.95,28.33,28.33,0,0,0-12.88,6.8q-.961.88-1.838,1.85A28.349,28.349,0,0,0,31.339,51.9a2,2,0,0,1-1.954,1.57h-17.6A2.005,2.005,0,0,1,9.8,51.181a49.315,49.315,0,0,1,2.449-9.971A49.727,49.727,0,0,1,52,8.778a2.006,2.006,0,0,1,2.3,1.982Z" transform="translate(-9.783 -8.757)" fill="#fd9468"/>
            </g>
            <g id="Grupo_930510" data-name="Grupo 930510" transform="translate(0.449 54.542)">
              <path id="Trazado_626579" data-name="Trazado 626579" d="M324.448,282.206A49.334,49.334,0,0,1,322,292.179a49.727,49.727,0,0,1-39.75,32.432,2.006,2.006,0,0,1-2.3-1.982l0-17.637a2,2,0,0,1,1.55-1.948,28.655,28.655,0,0,0,13.126-7.075q.691-.646,1.331-1.339a28.323,28.323,0,0,0,6.949-13.144,2,2,0,0,1,1.952-1.566h17.607A2,2,0,0,1,324.448,282.206Z" transform="translate(-225.86 -279.92)" fill="#fe646f"/>
              <path id="Trazado_626580" data-name="Trazado 626580" d="M54.3,305.009v17.621a2.006,2.006,0,0,1-2.3,1.982,49.71,49.71,0,0,1-42.2-42.4,2,2,0,0,1,1.982-2.286h17.6a2,2,0,0,1,1.954,1.57,28.349,28.349,0,0,0,6.685,12.922q.877.967,1.838,1.85a28.33,28.33,0,0,0,12.88,6.8A2,2,0,0,1,54.3,305.009Z" transform="translate(-9.783 -279.92)" fill="#fee45a"/>
            </g>
            <g id="Grupo_930511" data-name="Grupo 930511" transform="translate(66.527 66.527)">
              <path id="Trazado_626581" data-name="Trazado 626581" d="M369.883,340.054a49.886,49.886,0,0,1-29.758,29.922,11.455,11.455,0,0,1-.3-2.625V351.194a11.366,11.366,0,0,1,2.689-7.35,11.528,11.528,0,0,1,1.331-1.339,11.373,11.373,0,0,1,7.394-2.725h16.157A11.355,11.355,0,0,1,369.883,340.054Z" transform="translate(-339.821 -339.78)" fill="#fd4755"/>
              <path id="Trazado_626582" data-name="Trazado 626582" d="M391.389,396.756H375.233a5.408,5.408,0,0,1-5.408-5.408V375.192a5.408,5.408,0,0,1,5.408-5.408h16.156a5.408,5.408,0,0,1,5.408,5.408v16.156A5.408,5.408,0,0,1,391.389,396.756Z" transform="translate(-363.818 -363.777)" fill="#918291"/>
              <circle id="Elipse_7677" data-name="Elipse 7677" cx="6.53" cy="6.53" r="6.53" transform="translate(12.963 11.415)" fill="#ffcebf"/>
              <path id="Trazado_626583" data-name="Trazado 626583" d="M390.913,470.531h16.156a5.4,5.4,0,0,0,1.483-.208,9.657,9.657,0,0,0-19.121,0A5.4,5.4,0,0,0,390.913,470.531Z" transform="translate(-379.498 -437.552)" fill="#8ac9fe"/>
            </g>
            <g id="Grupo_930512" data-name="Grupo 930512" transform="translate(0 66.527)">
              <path id="Trazado_626584" data-name="Trazado 626584" d="M52.173,351.194v16.157a11.457,11.457,0,0,1-.3,2.625,49.886,49.886,0,0,1-29.758-29.922,11.359,11.359,0,0,1,2.491-.274H40.759a11.428,11.428,0,0,1,11.414,11.414Z" transform="translate(-19.194 -339.78)" fill="#fedf30"/>
              <path id="Trazado_626585" data-name="Trazado 626585" d="M29.1,396.756H12.949a5.408,5.408,0,0,1-5.408-5.408V375.192a5.408,5.408,0,0,1,5.408-5.408H29.1a5.408,5.408,0,0,1,5.408,5.408v16.156A5.408,5.408,0,0,1,29.1,396.756Z" transform="translate(-7.541 -363.777)" fill="#918291"/>
              <circle id="Elipse_7678" data-name="Elipse 7678" cx="6.53" cy="6.53" r="6.53" transform="translate(6.956 11.415)" fill="#ffcebf"/>
              <path id="Trazado_626586" data-name="Trazado 626586" d="M28.629,470.531H44.785a5.4,5.4,0,0,0,1.483-.208,9.657,9.657,0,0,0-19.121,0A5.4,5.4,0,0,0,28.629,470.531Z" transform="translate(-23.221 -437.552)" fill="#8ac9fe"/>
            </g>
            <g id="Grupo_930513" data-name="Grupo 930513" transform="translate(66.527)">
              <path id="Trazado_626587" data-name="Trazado 626587" d="M369.883,51.322a11.358,11.358,0,0,1-2.491.274H351.235a11.373,11.373,0,0,1-7.394-2.725,11.525,11.525,0,0,1-1.331-1.339,11.366,11.366,0,0,1-2.689-7.35V24.025a11.455,11.455,0,0,1,.3-2.625A49.886,49.886,0,0,1,369.883,51.322Z" transform="translate(-339.821 -18.617)" fill="#57be92"/>
              <path id="Trazado_626588" data-name="Trazado 626588" d="M391.389,34.472H375.233a5.408,5.408,0,0,1-5.408-5.408V12.908A5.408,5.408,0,0,1,375.233,7.5h16.156a5.408,5.408,0,0,1,5.408,5.408V29.064A5.408,5.408,0,0,1,391.389,34.472Z" transform="translate(-363.818 -7.5)" fill="#918291"/>
              <circle id="Elipse_7679" data-name="Elipse 7679" cx="6.53" cy="6.53" r="6.53" transform="translate(12.963 5.408)" fill="#ffcebf"/>
              <path id="Trazado_626589" data-name="Trazado 626589" d="M390.913,108.247h16.156a5.4,5.4,0,0,0,1.483-.208,9.657,9.657,0,0,0-19.121,0A5.409,5.409,0,0,0,390.913,108.247Z" transform="translate(-379.498 -81.276)" fill="#8ac9fe"/>
            </g>
            <g id="Grupo_930514" data-name="Grupo 930514">
              <path id="Trazado_626590" data-name="Trazado 626590" d="M52.173,24.025V40.182A11.432,11.432,0,0,1,40.759,51.6H24.6a11.359,11.359,0,0,1-2.491-.274A49.886,49.886,0,0,1,51.869,21.4a11.456,11.456,0,0,1,.3,2.625Z" transform="translate(-19.194 -18.617)" fill="#fe7d43"/>
              <path id="Trazado_626591" data-name="Trazado 626591" d="M29.1,34.472H12.949a5.408,5.408,0,0,1-5.408-5.408V12.908A5.408,5.408,0,0,1,12.949,7.5H29.1a5.408,5.408,0,0,1,5.408,5.408V29.064A5.408,5.408,0,0,1,29.1,34.472Z" transform="translate(-7.541 -7.5)" fill="#918291"/>
              <circle id="Elipse_7680" data-name="Elipse 7680" cx="6.53" cy="6.53" r="6.53" transform="translate(6.956 5.408)" fill="#ffcebf"/>
              <path id="Trazado_626592" data-name="Trazado 626592" d="M28.629,108.247H44.785a5.4,5.4,0,0,0,1.483-.208,9.657,9.657,0,0,0-19.121,0A5.41,5.41,0,0,0,28.629,108.247Z" transform="translate(-23.221 -81.276)" fill="#8ac9fe"/>
            </g>
          </g>
          <path id="Trazado_626593" data-name="Trazado 626593" d="M45.384,65.482a1.5,1.5,0,0,0,1.966-.8l11.016-26.25A1.5,1.5,0,0,0,55.6,37.266L44.58,63.516A1.5,1.5,0,0,0,45.384,65.482Zm-7.9-23.2c0,3.947,2.857,7.158,6.369,7.158s6.369-3.211,6.369-7.158-2.857-7.158-6.369-7.158S37.487,38.333,37.487,42.281Zm9.736,0c0,2.291-1.51,4.155-3.366,4.155s-3.366-1.864-3.366-4.155,1.51-4.155,3.366-4.155S47.222,39.989,47.222,42.281ZM4.722,29.6A50.825,50.825,0,0,0,.519,44a3.538,3.538,0,0,0,3.473,3.97H21.6a3.481,3.481,0,0,0,3.419-2.748A27.033,27.033,0,0,1,45.288,24.79a3.485,3.485,0,0,0,2.72-3.413V3.756A3.538,3.538,0,0,0,44.022.285,50.8,50.8,0,0,0,29.61,4.575,6.921,6.921,0,0,0,23.106,0H6.951a6.917,6.917,0,0,0-6.91,6.91V23.065A6.919,6.919,0,0,0,4.722,29.6Zm25.294-6.537V7.711A47.805,47.805,0,0,1,44.445,3.258a.481.481,0,0,1,.385.115A.5.5,0,0,1,45,3.756V21.377a.5.5,0,0,1-.388.486A30.048,30.048,0,0,0,22.082,44.571a.5.5,0,0,1-.487.392H3.993a.467.467,0,0,1-.5-.558A47.835,47.835,0,0,1,7.868,29.975H23.106a6.948,6.948,0,0,0,6.91-6.909ZM15.029,21.472a8.2,8.2,0,0,1,7.71,5.5H7.646a1.484,1.484,0,0,0-.29-.1,8.2,8.2,0,0,1,7.673-5.4ZM10,13.44a5.029,5.029,0,1,1,5.029,5.029A5.034,5.034,0,0,1,10,13.44ZM3.044,6.91A3.911,3.911,0,0,1,6.951,3H23.106A3.911,3.911,0,0,1,27.013,6.91V23.065a3.9,3.9,0,0,1-1.409,3,11.24,11.24,0,0,0-5.534-6.38,8.032,8.032,0,1,0-10.082,0,11.24,11.24,0,0,0-5.534,6.38,3.9,3.9,0,0,1-1.409-3V6.91ZM45.287,77.718A26.994,26.994,0,0,1,24.73,55.8a1.5,1.5,0,0,0-1.482-1.261H1.749a1.5,1.5,0,0,0-1.5,1.638A51.022,51.022,0,0,0,3.287,69.47,1.5,1.5,0,1,0,6.1,68.416,48,48,0,0,1,3.421,57.546H22a30.006,30.006,0,0,0,22.619,23.1.5.5,0,0,1,.388.486V98.753a.464.464,0,0,1-.56.5A47.824,47.824,0,0,1,30.016,94.8V79.443a6.917,6.917,0,0,0-6.91-6.91H6.951a6.917,6.917,0,0,0-6.91,6.91V95.6a6.908,6.908,0,0,0,6.91,6.91H23.106c2.2.246,5.837-2.039,6.5-4.575a50.819,50.819,0,0,0,14.413,4.29,3.5,3.5,0,0,0,3.986-3.471V81.131a3.485,3.485,0,0,0-2.721-3.413ZM7.317,99.506a8.156,8.156,0,0,1,15.423,0ZM10,85.974A5.029,5.029,0,1,1,15.028,91,5.034,5.034,0,0,1,10,85.974ZM27.013,95.6a3.9,3.9,0,0,1-1.409,3,11.24,11.24,0,0,0-5.534-6.38,8.032,8.032,0,1,0-10.082,0A11.24,11.24,0,0,0,4.453,98.6a3.9,3.9,0,0,1-1.409-3V79.443A3.911,3.911,0,0,1,6.95,75.537H23.106a3.911,3.911,0,0,1,3.906,3.906V95.6ZM97.87,72.9a50.786,50.786,0,0,0,4.2-14.394A3.5,3.5,0,0,0,98.6,54.542H80.991a3.481,3.481,0,0,0-3.418,2.741A27.177,27.177,0,0,1,57.29,77.705a3.487,3.487,0,0,0-2.709,3.411l0,17.638a3.5,3.5,0,0,0,3.986,3.471,50.822,50.822,0,0,0,14.414-4.289,6.957,6.957,0,0,0,6.5,4.574H95.64a6.949,6.949,0,0,0,6.91-6.91V79.444A6.921,6.921,0,0,0,97.87,72.9Zm-25.3,6.538V94.8a47.826,47.826,0,0,1-14.429,4.451.478.478,0,0,1-.385-.115.5.5,0,0,1-.175-.383l0-17.638a.5.5,0,0,1,.387-.486A30.2,30.2,0,0,0,80.5,57.935a.5.5,0,0,1,.487-.39H98.6a.5.5,0,0,1,.382.174.482.482,0,0,1,.117.384,47.789,47.789,0,0,1-4.373,14.431H79.484a6.917,6.917,0,0,0-6.91,6.91Zm7.278,20.062a8.154,8.154,0,0,1,15.42,0Zm2.681-13.532A5.029,5.029,0,1,1,87.562,91,5.034,5.034,0,0,1,82.534,85.974ZM99.547,95.6a3.9,3.9,0,0,1-1.41,3A11.24,11.24,0,0,0,92.6,92.22a8.032,8.032,0,1,0-10.082,0,11.239,11.239,0,0,0-5.534,6.38,3.9,3.9,0,0,1-1.409-3V79.443a3.911,3.911,0,0,1,3.906-3.906H95.533a1.5,1.5,0,0,0,.175,0,3.909,3.909,0,0,1,3.838,3.9V95.6ZM95.64,0H79.484a6.92,6.92,0,0,0-6.5,4.574A50.822,50.822,0,0,0,58.569.285a3.534,3.534,0,0,0-3.986,3.471l0,17.637A3.488,3.488,0,0,0,57.29,24.8,27.177,27.177,0,0,1,77.573,45.226a3.481,3.481,0,0,0,3.418,2.741H98.6A3.545,3.545,0,0,0,102.072,44a51.046,51.046,0,0,0-2.525-10.3,1.5,1.5,0,1,0-2.826,1.015A48.047,48.047,0,0,1,99.1,44.405a.464.464,0,0,1-.5.558H80.991a.5.5,0,0,1-.487-.391A30.2,30.2,0,0,0,57.971,21.879a.5.5,0,0,1-.387-.486l0-17.637a.468.468,0,0,1,.56-.5A47.825,47.825,0,0,1,72.575,7.709V23.065a6.952,6.952,0,0,0,6.91,6.91H95.64a7.02,7.02,0,0,0,6.91-6.91V6.91A6.917,6.917,0,0,0,95.64,0ZM79.852,26.972a8.154,8.154,0,0,1,15.42,0ZM82.534,13.44a5.029,5.029,0,1,1,5.029,5.029A5.034,5.034,0,0,1,82.534,13.44Zm17.013,9.626a3.9,3.9,0,0,1-1.41,3,11.24,11.24,0,0,0-5.534-6.38,8.032,8.032,0,1,0-10.082,0,11.24,11.24,0,0,0-5.534,6.38,3.9,3.9,0,0,1-1.409-3V6.91A3.911,3.911,0,0,1,79.484,3H95.64A3.911,3.911,0,0,1,99.546,6.91V23.065ZM65.1,60.228c0-3.947-2.857-7.158-6.369-7.158s-6.369,3.211-6.369,7.158,2.857,7.158,6.369,7.158S65.1,64.175,65.1,60.228Zm-9.736,0c0-2.291,1.51-4.155,3.366-4.155S62.1,57.937,62.1,60.228s-1.51,4.155-3.366,4.155S55.369,62.519,55.369,60.228Z" transform="translate(0 0)"/>
        </g>
      </g>
      <rect id="Rectángulo_305736" data-name="Rectángulo 305736" width="164" height="164" transform="translate(179.814 1281.735)" fill="none"/>
    </g>
    <g id="Grupo_930508" data-name="Grupo 930508" transform="translate(-8865.373 -10936.209)">
      <path id="Trazado_626479" data-name="Trazado 626479" d="M462.19,1218.168h-.169a20.333,20.333,0,0,0-20.247,20.422v.055a20.4,20.4,0,0,0,20.427,20.377h.058a20.4,20.4,0,0,0,20.363-20.432v-.146A20.354,20.354,0,0,0,462.19,1218.168Z" fill="#ff8e00"/>
      <g id="Grupo_81378" data-name="Grupo 81378">
        <g id="Grupo_81376" data-name="Grupo 81376">
          <path id="Trazado_626480" data-name="Trazado 626480" d="M461.993,1228.5v3.487h-.2a6.658,6.658,0,0,0-4.086,1.191,5.025,5.025,0,0,0-1.967,3.31,5.183,5.183,0,0,1,3.789-1.474,4.838,4.838,0,0,1,3.961,1.815,7.324,7.324,0,0,1,1.474,4.764,6.707,6.707,0,0,1-.862,3.356,6.143,6.143,0,0,1-2.408,2.388,6.916,6.916,0,0,1-3.428.862,7.145,7.145,0,0,1-3.645-.928,6.372,6.372,0,0,1-2.5-2.651,8.721,8.721,0,0,1-.921-3.974v-1.777a11.05,11.05,0,0,1,1.27-5.322,9.2,9.2,0,0,1,3.625-3.7,10.36,10.36,0,0,1,5.224-1.342Zm-4,9.909a2.537,2.537,0,0,0-1.474.407,2.6,2.6,0,0,0-.882,1v1.329q0,3.632,2.514,3.631a2.038,2.038,0,0,0,1.691-.908,3.7,3.7,0,0,0,.677-2.276,3.634,3.634,0,0,0-.69-2.3A2.211,2.211,0,0,0,457.993,1238.405Z" fill="none"/>
          <path id="Trazado_626481" data-name="Trazado 626481" d="M469.7,1243.629a2.527,2.527,0,0,1,1.751.625,2.181,2.181,0,0,1,0,3.2,2.527,2.527,0,0,1-1.751.626,2.5,2.5,0,0,1-1.756-.632,2.18,2.18,0,0,1,0-3.185A2.5,2.5,0,0,1,469.7,1243.629Z" fill="none"/>
        </g>
        <g id="Grupo_81377" data-name="Grupo 81377">
          <path id="Trazado_626482" data-name="Trazado 626482" d="M461.993,1228.5v3.487h-.2a6.658,6.658,0,0,0-4.086,1.191,5.025,5.025,0,0,0-1.967,3.31,5.183,5.183,0,0,1,3.789-1.474,4.838,4.838,0,0,1,3.961,1.815,7.324,7.324,0,0,1,1.474,4.764,6.707,6.707,0,0,1-.862,3.356,6.143,6.143,0,0,1-2.408,2.388,6.916,6.916,0,0,1-3.428.862,7.145,7.145,0,0,1-3.645-.928,6.372,6.372,0,0,1-2.5-2.651,8.721,8.721,0,0,1-.921-3.974v-1.777a11.05,11.05,0,0,1,1.27-5.322,9.2,9.2,0,0,1,3.625-3.7,10.36,10.36,0,0,1,5.224-1.342Zm-4,9.909a2.537,2.537,0,0,0-1.474.407,2.6,2.6,0,0,0-.882,1v1.329q0,3.632,2.514,3.631a2.038,2.038,0,0,0,1.691-.908,3.7,3.7,0,0,0,.677-2.276,3.634,3.634,0,0,0-.69-2.3A2.211,2.211,0,0,0,457.993,1238.405Z" fill="#fff"/>
          <path id="Trazado_626483" data-name="Trazado 626483" d="M469.7,1243.629a2.527,2.527,0,0,1,1.751.625,2.181,2.181,0,0,1,0,3.2,2.527,2.527,0,0,1-1.751.626,2.5,2.5,0,0,1-1.756-.632,2.18,2.18,0,0,1,0-3.185A2.5,2.5,0,0,1,469.7,1243.629Z" fill="#fff"/>
        </g>
      </g>
    </g>
  </g>
</svg>
