<svg xmlns="http://www.w3.org/2000/svg" width="164" height="165.813" viewBox="0 0 164 165.813">
  <g id="Grupo_930520" data-name="Grupo 930520" transform="translate(-728 -1857)">
    <g id="Grupo_930458" data-name="Grupo 930458" transform="translate(548.186 575.265)">
      <g id="Grupo_930456" data-name="Grupo 930456" transform="translate(195.146 1291.326)">
        <circle id="Elipse_7667" data-name="Elipse 7667" cx="65.203" cy="65.203" r="65.203" transform="translate(0 14.578)" fill="#ff3c00"/>
        <g id="clasificacion" transform="translate(-1.378 6.505)">
          <g id="Grupo_930481" data-name="Grupo 930481" transform="translate(3.017 2.921)">
            <g id="Grupo_930460" data-name="Grupo 930460" transform="translate(20.834 76.642)">
              <path id="Trazado_626500" data-name="Trazado 626500" d="M19.732,39.9l7.4,3.711a52.46,52.46,0,0,1-7.4,12.424,52.3,52.3,0,0,1-6.656-10.73c-.262-.565-.524-1.129-.746-1.714Z" transform="translate(-12.33 -39.904)" fill="#ffeaa7"/>
            </g>
            <g id="Grupo_930461" data-name="Grupo 930461" transform="translate(28.236 66.557)">
              <path id="Trazado_626501" data-name="Trazado 626501" d="M22.051,34.9a25.949,25.949,0,0,1,5.042.988l-.484,2.481A53.769,53.769,0,0,1,23.4,48.7L16,44.988Z" transform="translate(-16 -34.904)" fill="#fcd770"/>
            </g>
            <g id="Grupo_930462" data-name="Grupo 930462" transform="translate(17.144 66.557)">
              <path id="Trazado_626502" data-name="Trazado 626502" d="M15.542,34.9l6.051,10.084-7.4,3.691a52.2,52.2,0,0,1-3.207-10.306L10.5,35.912A24.285,24.285,0,0,1,15.542,34.9Z" transform="translate(-10.5 -34.904)" fill="#fcd770"/>
            </g>
            <g id="Grupo_930463" data-name="Grupo 930463" transform="translate(0 67.545)">
              <path id="Trazado_626503" data-name="Trazado 626503" d="M22.834,48.181c.222.585.484,1.15.746,1.714a52.3,52.3,0,0,0,6.656,10.73,52.46,52.46,0,0,0,7.4-12.424,53.769,53.769,0,0,0,3.207-10.326l.484-2.481a24.465,24.465,0,0,1,7.462,3.832,10.049,10.049,0,0,0,9.015,7.241v.02l-1.351,4.054a28.4,28.4,0,0,0-3.751.968A27.011,27.011,0,0,0,34.633,72.727H2V58.709a24.357,24.357,0,0,1,17.144-23.3l.484,2.461a52.2,52.2,0,0,0,3.207,10.306Z" transform="translate(-2 -35.394)" fill="#4fc1e9"/>
            </g>
            <g id="Grupo_930464" data-name="Grupo 930464" transform="translate(65.206 57.098)">
              <path id="Trazado_626504" data-name="Trazado 626504" d="M52.684,31.686a9.3,9.3,0,0,0,3.126,5.708A9.209,9.209,0,0,0,61.9,39.673a9.316,9.316,0,0,0,9.217-7.987l.2-1.452v-.02A24.178,24.178,0,0,1,90.137,53.791V67.91H53.652A26.982,26.982,0,0,0,39.413,56.776a28.1,28.1,0,0,0-3.731-.968L34.33,51.754v-.02A10.051,10.051,0,0,0,43.749,41.69h2.017A6.05,6.05,0,0,0,49.9,31.222l.061-.262a17.271,17.271,0,0,1,2.521-.726Z" transform="translate(-34.33 -30.214)" fill="#5cd6b3"/>
            </g>
            <g id="Grupo_930465" data-name="Grupo 930465" transform="translate(32.27 83.66)">
              <path id="Trazado_626505" data-name="Trazado 626505" d="M30.1,80.737H18V69a26.4,26.4,0,0,1,.363-4.4A27.011,27.011,0,0,1,36.434,43.384l.02.04,1.714,17.144,8.068-10.084L54.3,60.568l1.714-17.184A27.018,27.018,0,0,1,74.473,69V80.737H30.1Z" transform="translate(-18 -43.384)" fill="#ff826e"/>
            </g>
            <g id="Grupo_930466" data-name="Grupo 930466" transform="translate(60.507 82.692)">
              <path id="Trazado_626506" data-name="Trazado 626506" d="M41.782,43.872,40.068,61.056,32,50.972,38.051,42.9A28.1,28.1,0,0,1,41.782,43.872Z" transform="translate(-32 -42.904)" fill="#fc6e51"/>
            </g>
            <g id="Grupo_930467" data-name="Grupo 930467" transform="translate(50.704 82.692)">
              <path id="Trazado_626507" data-name="Trazado 626507" d="M30.891,42.9l6.051,8.068L28.875,61.056,27.16,43.912l-.02-.04A28.4,28.4,0,0,1,30.891,42.9Z" transform="translate(-27.14 -42.904)" fill="#fc6e51"/>
            </g>
            <g id="Grupo_930468" data-name="Grupo 930468" transform="translate(80.837 46.066)">
              <path id="Trazado_626508" data-name="Trazado 626508" d="M49.986,29.1l-1.271,3.792a4.022,4.022,0,0,1-3.106,2.682c-.343.061-.686.141-1.008.222a17.27,17.27,0,0,0-2.521.726l1.432-5.708a14.372,14.372,0,0,0,.424-3.489,12.055,12.055,0,0,0-.262-2.582h.02A10.083,10.083,0,0,0,50.027,28.9Z" transform="translate(-42.08 -24.744)" fill="#fcd770"/>
            </g>
            <g id="Grupo_930469" data-name="Grupo 930469" transform="translate(72.608)">
              <path id="Trazado_626509" data-name="Trazado 626509" d="M70.27,26.107H62.2a8.065,8.065,0,0,1-8.068-8.068,8.065,8.065,0,0,1-8.068,8.068V42.242a9.233,9.233,0,0,0,.061,1.069l-.02.02-2.239-2.924A14.5,14.5,0,0,0,38,36.836V24.09a22.186,22.186,0,1,1,44.371,0V69.207A24.172,24.172,0,0,0,67.588,59c-.343-.081-.666-.141-1.008-.2a4.022,4.022,0,0,1-3.106-2.682L62.2,52.326h2.017A10.088,10.088,0,0,0,74.3,42.242V26.107Z" transform="translate(-38 -1.904)" fill="#fcd770"/>
            </g>
            <g id="Grupo_930470" data-name="Grupo 930470" transform="translate(6.051 12.101)">
              <path id="Trazado_626510" data-name="Trazado 626510" d="M37.27,30.09H29.2a8.065,8.065,0,0,1-8.068-8.068,8.065,8.065,0,0,1-8.068,8.068v4.034H11.051A5.965,5.965,0,0,0,6.634,36.06,12.673,12.673,0,0,1,5,29.868V28.275a12.521,12.521,0,0,1,10.084-12.3l.565-1.129A12.533,12.533,0,0,1,26.863,7.9h3.691A18.8,18.8,0,0,1,49.371,26.722a19.388,19.388,0,0,1-.343,3.61v.02A14.093,14.093,0,0,0,41.3,34.487v-4.4Z" transform="translate(-5 -7.904)" fill="#656d78"/>
            </g>
            <g id="Grupo_930471" data-name="Grupo 930471" transform="translate(38.321 34.287)">
              <path id="Trazado_626511" data-name="Trazado 626511" d="M57.3,37.056H41.169a8.543,8.543,0,0,1-6.777-4.034,5.319,5.319,0,0,0-5.325,5.325V41.09H27.051a6,6,0,0,0-4.135,1.634l-.282-1.15-1.21-4.82A14.382,14.382,0,0,1,25.034,23.3a14.093,14.093,0,0,1,7.725-4.135,12.378,12.378,0,0,1,2.6-.262H51.011a14.25,14.25,0,0,1,4.276.645,14.5,14.5,0,0,1,5.869,3.57l2.239,2.924a13.252,13.252,0,0,1,1.714,4.639,12.055,12.055,0,0,1,.262,2.582,14.372,14.372,0,0,1-.424,3.489l-1.432,5.708a1,1,0,0,0-.262.081,5.976,5.976,0,0,0-3.933-1.452H57.3Z" transform="translate(-21 -18.904)" fill="#656d78"/>
            </g>
            <g id="Grupo_930472" data-name="Grupo 930472" transform="translate(22.186 60.507)">
              <path id="Trazado_626512" data-name="Trazado 626512" d="M23.084,31.9,25.1,37.955,19.051,48.039,13,37.955,15.017,31.9Z" transform="translate(-13 -31.904)" fill="#f0d0b4"/>
            </g>
            <g id="Grupo_930473" data-name="Grupo 930473" transform="translate(14.118 26.22)">
              <path id="Trazado_626513" data-name="Trazado 626513" d="M37.236,22.972v4.4a14.382,14.382,0,0,0-3.61,13.453l1.21,4.82a10.043,10.043,0,0,1-7.684,3.55H19.084A10.088,10.088,0,0,1,9,39.107V22.972A8.065,8.065,0,0,0,17.068,14.9a8.065,8.065,0,0,0,8.068,8.068h12.1Z" transform="translate(-9 -14.904)" fill="#f0d0b4"/>
            </g>
            <g id="Grupo_930474" data-name="Grupo 930474" transform="translate(6.051 38.321)">
              <path id="Trazado_626514" data-name="Trazado 626514" d="M13.068,20.9v12.1H11.051A6.036,6.036,0,0,1,6.634,22.84,5.965,5.965,0,0,1,11.051,20.9Z" transform="translate(-5 -20.904)" fill="#f0d0b4"/>
            </g>
            <g id="Grupo_930475" data-name="Grupo 930475" transform="translate(83.358 50.22)">
              <path id="Trazado_626515" data-name="Trazado 626515" d="M61.966,35.154a9.316,9.316,0,0,1-9.217,7.987,9.209,9.209,0,0,1-6.091-2.279,9.3,9.3,0,0,1-3.126-5.708l-.2-1.452c.323-.081.666-.161,1.008-.222A4.022,4.022,0,0,0,47.444,30.8l1.271-3.792.04-.2a9.129,9.129,0,0,0,1.977.2h6.051L58.053,30.8a4.022,4.022,0,0,0,3.106,2.682c.343.061.666.121,1.008.2v.02Z" transform="translate(-43.33 -26.804)" fill="#f0d0b4"/>
            </g>
            <g id="Grupo_930476" data-name="Grupo 930476" transform="translate(80.675 16.135)">
              <path id="Trazado_626516" data-name="Trazado 626516" d="M70.236,17.972V34.107A10.088,10.088,0,0,1,60.152,44.191H52.084a9.129,9.129,0,0,1-1.977-.2,10.083,10.083,0,0,1-6.333-4.155h-.02A13.252,13.252,0,0,0,42.04,35.2l.02-.02A9.233,9.233,0,0,1,42,34.107V17.972A8.065,8.065,0,0,0,50.068,9.9a8.065,8.065,0,0,0,8.068,8.068h12.1Z" transform="translate(-42 -9.904)" fill="#f0d0b4"/>
            </g>
            <g id="Grupo_930477" data-name="Grupo 930477" transform="translate(74.625 56.473)">
              <path id="Trazado_626517" data-name="Trazado 626517" d="M47.068,35.955a6.06,6.06,0,0,1-6.051,6.051H39V29.9h2.017a5.976,5.976,0,0,1,3.933,1.452c.061.061.141.121.2.182A6.014,6.014,0,0,1,47.068,35.955Z" transform="translate(-39 -29.904)" fill="#f0d0b4"/>
            </g>
            <g id="Grupo_930478" data-name="Grupo 930478" transform="translate(54.456 78.618)">
              <path id="Trazado_626518" data-name="Trazado 626518" d="M39.084,40.924a3.689,3.689,0,0,0,.666-.04v.02L41.1,44.958l-6.051,8.068L29,44.958,30.351,40.9v-.02a3.688,3.688,0,0,0,.666.04Z" transform="translate(-29 -40.884)" fill="#f0d0b4"/>
            </g>
            <g id="Grupo_930479" data-name="Grupo 930479" transform="translate(46.388 48.405)">
              <path id="Trazado_626519" data-name="Trazado 626519" d="M45.169,29.938h8.068V46.073a10.051,10.051,0,0,1-9.419,10.044,3.689,3.689,0,0,1-.666.04H35.084a3.688,3.688,0,0,1-.666-.04A10.049,10.049,0,0,1,25.4,48.876a9.917,9.917,0,0,1-.4-2.8V31.229A5.32,5.32,0,0,1,30.325,25.9,8.543,8.543,0,0,0,37.1,29.938Z" transform="translate(-25 -25.904)" fill="#f0d0b4"/>
            </g>
            <g id="Grupo_930480" data-name="Grupo 930480" transform="translate(38.321 56.473)">
              <path id="Trazado_626520" data-name="Trazado 626520" d="M29.068,29.9v12.1H27.051a6.051,6.051,0,0,1,0-12.1Z" transform="translate(-21 -29.904)" fill="#f0d0b4"/>
            </g>
          </g>
          <g id="Grupo_930482" data-name="Grupo 930482" transform="translate(1 0.904)">
            <circle id="Elipse_7668" data-name="Elipse 7668" cx="2" cy="2" r="2" transform="translate(54.047 61.001)"/>
            <circle id="Elipse_7669" data-name="Elipse 7669" cx="2" cy="2" r="2" transform="translate(67.047 61.001)"/>
            <path id="Trazado_626521" data-name="Trazado 626521" d="M37.068,36.921H29v4.034h8.068A6.058,6.058,0,0,0,43.118,34.9H39.084A2.019,2.019,0,0,1,37.068,36.921Z" transform="translate(27.473 33.67)"/>
            <circle id="Elipse_7670" data-name="Elipse 7670" cx="2" cy="2" r="2" transform="translate(89.047 32.001)"/>
            <circle id="Elipse_7671" data-name="Elipse 7671" cx="2" cy="2" r="2" transform="translate(101.047 32.001)"/>
            <path id="Trazado_626522" data-name="Trazado 626522" d="M46,26.955h8.068A6.058,6.058,0,0,0,60.118,20.9H56.084a2.02,2.02,0,0,1-2.017,2.017H46Z" transform="translate(44.76 19.434)"/>
            <circle id="Elipse_7672" data-name="Elipse 7672" cx="2" cy="2" r="2" transform="translate(22.047 42.001)"/>
            <circle id="Elipse_7673" data-name="Elipse 7673" cx="2" cy="2" r="2" transform="translate(34.047 42.001)"/>
            <path id="Trazado_626523" data-name="Trazado 626523" d="M18.051,29.938h8.068V25.9H18.051A6.058,6.058,0,0,0,12,31.955h4.034A2.02,2.02,0,0,1,18.051,29.938Z" transform="translate(10.186 24.518)"/>
            <path id="Trazado_626524" data-name="Trazado 626524" d="M126.047,83.588a26.07,26.07,0,0,0-4.034-13.925V25.107a24.2,24.2,0,0,0-48.405,0v10.26a16.444,16.444,0,0,0-2.265-.175H55.7c-.107,0-.208.014-.315.016.03-.454.067-.908.067-1.361a20.864,20.864,0,0,0-20.84-20.84H30.941a14.483,14.483,0,0,0-13.025,8.049l-.147.292A14.607,14.607,0,0,0,7.051,35.391v1.6a14.579,14.579,0,0,0,1.3,5.95A8.044,8.044,0,0,0,15.118,55.36H15.3a12.125,12.125,0,0,0,9.223,9.772l-.831,2.491A26.276,26.276,0,0,0,1,93.773v16.044H33.373c-.065.785-.1,1.577-.1,2.378v13.755H93.777V112.2a28.944,28.944,0,0,0-2.824-12.464h35.094ZM77.642,25.107a20.169,20.169,0,0,1,40.338,0v39.6a26.082,26.082,0,0,0-13.424-6.872A2.014,2.014,0,0,1,103,56.491l-.389-1.168a12.11,12.11,0,0,0,11.333-12.065v-24.2h-4.034v6.051h-2.017a6.058,6.058,0,0,1-6.051-6.051H97.81a9.98,9.98,0,0,0,2.069,6.051h-.052a6.058,6.058,0,0,1-6.051-6.051H89.743a6.042,6.042,0,0,1-4.034,5.68v-5.68H81.675v19.82a16.4,16.4,0,0,0-4.034-2.42Zm2.017,36.3a4.034,4.034,0,1,1,0,8.068Zm6.051-18.152V28.937a10.073,10.073,0,0,0,6.051-3.893,10.048,10.048,0,0,0,8.068,4.1h10.084V43.259a8.076,8.076,0,0,1-8.068,8.068H93.777a8.068,8.068,0,0,1-6.428-3.213,16.237,16.237,0,0,0-1.616-4.361c-.008-.163-.024-.327-.024-.494Zm1.325,14.578c-.131.024-.26.063-.391.087l.593-2.376a16.651,16.651,0,0,0,.357-1.914,12.136,12.136,0,0,0,1.666.837l-.674,2.019a2.015,2.015,0,0,1-1.551,1.347Zm5.377-.071.813-2.44c.186.008.367.034.553.034h4.6l.8,2.406a6.012,6.012,0,0,0,3.757,3.747,7.259,7.259,0,0,1-14.28,0,6.008,6.008,0,0,0,3.757-3.747ZM71.343,39.225a12.348,12.348,0,0,1,11.98,15.344l-.837,3.346a7.991,7.991,0,0,0-2.828-.539V53.343H77.642a6.649,6.649,0,0,1-6.051-6.051H67.557c0,4.5,3.7,8.792,8.068,9.84V71.495a8.076,8.076,0,0,1-8.068,8.068H59.49a8.076,8.076,0,0,1-8.068-8.068V56.651A3.265,3.265,0,0,1,53.8,53.488a10.307,10.307,0,0,0,7.7,3.889V53.343a6.649,6.649,0,0,1-6.051-6.051H51.422a8.8,8.8,0,0,0,.417,2.614,7.322,7.322,0,0,0-4.451,6.744v.726a7.991,7.991,0,0,0-2.828.539l-.837-3.348A12.346,12.346,0,0,1,55.7,39.225ZM56.644,87.87l4.328,5.772-4,5L55.91,88.037C56.152,87.973,56.4,87.927,56.644,87.87Zm6.88,2.451-3.8-5.07L60.27,83.6h6.5l.551,1.652ZM70.4,87.87c.244.056.492.1.734.167L70.076,98.644l-4-5ZM33.833,65.444,35.1,69.236l-3.844,6.408-3.844-6.408,1.265-3.792Zm13.555,4.034a4.034,4.034,0,1,1,0-8.068Zm-7.672-1.666c-.3-.054-.6-.143-.9-.188l-.829-2.487a11.829,11.829,0,0,0,1.412-.422,7.3,7.3,0,0,0-.075.728A7.948,7.948,0,0,0,39.716,67.812ZM28.4,78.734l-3.5,1.751a50.984,50.984,0,0,1-2.273-7.928l-.119-.6c.541-.119,1.091-.218,1.648-.3Zm2.85,3.084L36.019,84.2a51.243,51.243,0,0,1-4.766,8.16,51.332,51.332,0,0,1-4.766-8.16ZM37.6,80.482l-3.5-1.751,4.229-7.049c.557.081,1.117.147,1.664.268l-.121.6A50.507,50.507,0,0,1,37.6,80.482ZM11.084,35.391a10.56,10.56,0,0,1,8.463-10.324l.966-.194,1.008-2.017a10.47,10.47,0,0,1,9.417-5.819h3.675A16.7,16.7,0,0,1,51.291,35.808a16.221,16.221,0,0,0-3.9,1.672V29.138H43.353v6.051H41.336a6.058,6.058,0,0,1-6.051-6.051H31.251a9.98,9.98,0,0,0,2.069,6.051h-.05a6.058,6.058,0,0,1-6.051-6.051H23.186a6.042,6.042,0,0,1-4.034,5.68v-5.68H15.118V39.223a7.985,7.985,0,0,0-3.548.857,10.484,10.484,0,0,1-.486-3.094Zm0,11.9a4.038,4.038,0,0,1,4.034-4.034v8.068A4.038,4.038,0,0,1,11.084,47.292Zm8.068,6.051V39.021A10.073,10.073,0,0,0,25.2,35.129a10.048,10.048,0,0,0,8.068,4.1H43.355V40.84a16.311,16.311,0,0,0-3.544,14.707l.922,3.685a8.019,8.019,0,0,1-5.444,2.176H27.222a8.076,8.076,0,0,1-8.07-8.066Zm-2.017,52.439V87.63H13.1v18.152H5.034V93.773a22.243,22.243,0,0,1,13.61-20.588l.032.161a55.311,55.311,0,0,0,11,23.612l1.573,1.968,1.575-1.968a55.334,55.334,0,0,0,11-23.612l.024-.125a22.154,22.154,0,0,1,4.272,2.4,12.139,12.139,0,0,0,8.049,7.5l-.248.746a29.005,29.005,0,0,0-21.917,21.913H17.135Zm72.608,16.135H81.675V105.782H77.642v16.135H49.405V105.782H45.371v16.135H37.3V112.2A24.979,24.979,0,0,1,51.995,89.433l1.946,19.453,7.565-9.455V113.85H65.54V99.431l7.565,9.457,1.946-19.453A24.979,24.979,0,0,1,89.743,112.2Zm32.27-26.22h-8.068V75.529h-4.034V95.7H88.624a28.98,28.98,0,0,0-17.5-11.829l-.248-.746a12.123,12.123,0,0,0,8.606-9.612h.182a8.052,8.052,0,0,0,7.717-5.845,11.229,11.229,0,0,0,19.433-5.085,22.121,22.121,0,0,1,15.205,21.008Z" transform="translate(-1 -0.904)"/>
            <path id="Trazado_626525" data-name="Trazado 626525" d="M40.084,33.988V29.955A6.649,6.649,0,0,1,34.034,23.9H30A10.622,10.622,0,0,0,40.084,33.988Z" transform="translate(28.49 22.484)"/>
          </g>
        </g>
      </g>
      <rect id="Rectángulo_305736" data-name="Rectángulo 305736" width="164" height="164" transform="translate(179.814 1281.735)" fill="none"/>
    </g>
    <g id="Grupo_930459" data-name="Grupo 930459" transform="translate(500.498 763.791)">
      <path id="Trazado_626459" data-name="Trazado 626459" d="M259.562,1218.168h-.17a20.335,20.335,0,0,0-20.247,20.422v.055a20.4,20.4,0,0,0,20.428,20.377h.057a20.4,20.4,0,0,0,20.363-20.432c0-.049,0-.1,0-.146A20.354,20.354,0,0,0,259.562,1218.168Z" fill="#ff8e00"/>
      <g id="Grupo_81362" data-name="Grupo 81362">
        <g id="Grupo_81360" data-name="Grupo 81360">
          <path id="Trazado_626460" data-name="Trazado 626460" d="M262.023,1247.932h-13.37v-2.9l6.159-6.475q2.276-2.591,2.276-4.118a2.869,2.869,0,0,0-.539-1.882,1.927,1.927,0,0,0-1.566-.645,1.949,1.949,0,0,0-1.645.862,3.545,3.545,0,0,0-.632,2.152h-4.447a6.29,6.29,0,0,1,.881-3.257,6.187,6.187,0,0,1,2.448-2.336,7.276,7.276,0,0,1,3.5-.842,7.152,7.152,0,0,1,4.783,1.434,5.12,5.12,0,0,1,1.678,4.119,5.973,5.973,0,0,1-.421,2.2,9.676,9.676,0,0,1-1.309,2.25,32.985,32.985,0,0,1-2.862,3.152l-2.474,2.855h7.54Z" fill="none"/>
          <path id="Trazado_626461" data-name="Trazado 626461" d="M267.076,1243.629a2.523,2.523,0,0,1,1.75.625,2.179,2.179,0,0,1,0,3.2,2.759,2.759,0,0,1-3.507-.006,2.18,2.18,0,0,1,0-3.185A2.5,2.5,0,0,1,267.076,1243.629Z" fill="none"/>
        </g>
        <g id="Grupo_81361" data-name="Grupo 81361">
          <path id="Trazado_626462" data-name="Trazado 626462" d="M262.023,1247.932h-13.37v-2.9l6.159-6.475q2.276-2.591,2.276-4.118a2.869,2.869,0,0,0-.539-1.882,1.927,1.927,0,0,0-1.566-.645,1.949,1.949,0,0,0-1.645.862,3.545,3.545,0,0,0-.632,2.152h-4.447a6.29,6.29,0,0,1,.881-3.257,6.187,6.187,0,0,1,2.448-2.336,7.276,7.276,0,0,1,3.5-.842,7.152,7.152,0,0,1,4.783,1.434,5.12,5.12,0,0,1,1.678,4.119,5.973,5.973,0,0,1-.421,2.2,9.676,9.676,0,0,1-1.309,2.25,32.985,32.985,0,0,1-2.862,3.152l-2.474,2.855h7.54Z" fill="#fff"/>
          <path id="Trazado_626463" data-name="Trazado 626463" d="M267.076,1243.629a2.523,2.523,0,0,1,1.75.625,2.179,2.179,0,0,1,0,3.2,2.759,2.759,0,0,1-3.507-.006,2.18,2.18,0,0,1,0-3.185A2.5,2.5,0,0,1,267.076,1243.629Z" fill="#fff"/>
        </g>
      </g>
    </g>
  </g>
</svg>
