<svg xmlns="http://www.w3.org/2000/svg" width="164" height="164" viewBox="0 0 164 164">
  <g id="Grupo_930518" data-name="Grupo 930518" transform="translate(9122 9837)">
    <g id="Grupo_930488" data-name="Grupo 930488" transform="translate(-9301.814 -11118.735)">
      <g id="Grupo_930456" data-name="Grupo 930456" transform="translate(195.146 1291.326)">
        <circle id="Elipse_7667" data-name="Elipse 7667" cx="65.203" cy="65.203" r="65.203" transform="translate(0 14.578)" fill="#ff3c00"/>
        <g id="desarrollador-de-software" transform="translate(5.81 7.616)">
          <g id="Grupo_930494" data-name="Grupo 930494" transform="translate(1.745 1.739)">
            <path id="Trazado_626539" data-name="Trazado 626539" d="M380.546,66.579V61.112l-3.722-.955a15.3,15.3,0,0,0-1.779-4.283l1.955-3.3-3.874-3.866-3.309,1.951a15.369,15.369,0,0,0-4.293-1.774l-.957-3.713h-5.48l-.957,3.713a15.374,15.374,0,0,0-4.293,1.774l-3.309-1.951-3.875,3.866,1.955,3.3a15.306,15.306,0,0,0-1.779,4.283l-3.722.955v5.467l3.722.955a15.3,15.3,0,0,0,1.779,4.283l-1.955,3.3,3.875,3.866,3.309-1.951a15.368,15.368,0,0,0,4.293,1.774l.957,3.713h5.48l.957-3.713a15.376,15.376,0,0,0,4.293-1.774l3.309,1.951L377,75.118l-1.955-3.3a15.3,15.3,0,0,0,1.779-4.283Zm-18.718,4.938a7.671,7.671,0,1,1,7.689-7.671A7.68,7.68,0,0,1,361.827,71.517Z" transform="translate(-265.253 -36.431)" fill="#ffd7a6"/>
            <g id="Grupo_930493" data-name="Grupo 930493">
              <g id="Grupo_930490" data-name="Grupo 930490" transform="translate(9.893)">
                <path id="Trazado_626540" data-name="Trazado 626540" d="M74.326,173.441a39.163,39.163,0,0,0-23.764,24.867,9.073,9.073,0,0,0,8.687,11.767h57.194a9.073,9.073,0,0,0,8.687-11.767,39.163,39.163,0,0,0-23.764-24.867Z" transform="translate(-50.138 -134.947)" fill="#388af5"/>
                <ellipse id="Elipse_7675" data-name="Elipse 7675" cx="21.917" cy="21.885" rx="21.917" ry="21.885" transform="translate(15.791 0)" fill="#fee45a"/>
                <path id="Trazado_626541" data-name="Trazado 626541" d="M201.169,7.5a22.113,22.113,0,0,0-3.48.274,21.883,21.883,0,0,1,0,43.221A21.889,21.889,0,1,0,201.169,7.5Z" transform="translate(-163.46 -7.5)" fill="#fed402"/>
              </g>
              <g id="Grupo_930492" data-name="Grupo 930492" transform="translate(0 58.518)">
                <g id="Grupo_930491" data-name="Grupo 930491">
                  <path id="Trazado_626542" data-name="Trazado 626542" d="M91.266,308.036H18.916a6,6,0,0,1-5.942-5.114L7.557,266.64a6,6,0,0,1,5.942-6.883H96.684a6,6,0,0,1,5.942,6.883l-5.418,36.282A6,6,0,0,1,91.266,308.036Z" transform="translate(-7.49 -259.757)" fill="#faf7f7"/>
                </g>
                <path id="Trazado_626543" data-name="Trazado 626543" d="M351.009,259.757H344.05a6,6,0,0,1,5.942,6.883l-5.418,36.282a6,6,0,0,1-5.942,5.114h6.959a6,6,0,0,0,5.942-5.114l5.418-36.282A6,6,0,0,0,351.009,259.757Z" transform="translate(-261.815 -259.757)" fill="#f3eae6"/>
                <path id="Trazado_626544" data-name="Trazado 626544" d="M112.884,476.374H38.67a4.246,4.246,0,0,1-4.246-4.246v0a4.246,4.246,0,0,1,4.246-4.246h74.214a4.246,4.246,0,0,1,4.246,4.246v0A4.246,4.246,0,0,1,112.884,476.374Z" transform="translate(-28.176 -419.6)" fill="#e1eefe"/>
                <path id="Trazado_626545" data-name="Trazado 626545" d="M349.608,467.879h-6.959a4.246,4.246,0,0,1,4.246,4.246v0a4.246,4.246,0,0,1-4.246,4.246h6.959a4.246,4.246,0,0,0,4.246-4.246v0A4.246,4.246,0,0,0,349.608,467.879Z" transform="translate(-264.9 -419.599)" fill="#b9d6fc"/>
                <ellipse id="Elipse_7676" data-name="Elipse 7676" cx="8.819" cy="8.806" rx="8.819" ry="8.806" transform="translate(38.782 15.333)" fill="#2c6ec4"/>
              </g>
            </g>
          </g>
          <g id="Grupo_930495" data-name="Grupo 930495" transform="translate(0.009 0)">
            <path id="Trazado_626546" data-name="Trazado 626546" d="M375.218,53.665l-2.75-.705a17.012,17.012,0,0,0-1.173-2.826l1.443-2.436a1.74,1.74,0,0,0-.268-2.118l-3.875-3.866a1.739,1.739,0,0,0-2.112-.267l-2.446,1.442a17.079,17.079,0,0,0-2.838-1.173l-.707-2.742a1.74,1.74,0,0,0-1.685-1.306h-5.48a1.74,1.74,0,0,0-1.685,1.306l-.707,2.742a17.079,17.079,0,0,0-2.838,1.173l-2.446-1.442a1.74,1.74,0,0,0-2.112.267l-3.875,3.866A1.74,1.74,0,0,0,339.4,47.7l1.443,2.436a17.025,17.025,0,0,0-1.173,2.826l-2.75.705a1.74,1.74,0,0,0-1.307,1.685v5.467a1.74,1.74,0,0,0,1.307,1.685l2.75.705a17,17,0,0,0,1.173,2.826L339.4,68.47a1.74,1.74,0,0,0,.268,2.118l3.875,3.866a1.74,1.74,0,0,0,2.112.267l2.446-1.442a17.079,17.079,0,0,0,2.838,1.173l.707,2.742a1.74,1.74,0,0,0,1.685,1.306h5.48a1.74,1.74,0,0,0,1.685-1.306l.707-2.742a17.086,17.086,0,0,0,2.838-1.173l2.446,1.442a1.74,1.74,0,0,0,2.112-.267l3.875-3.866a1.74,1.74,0,0,0,.268-2.118l-1.443-2.436a17.017,17.017,0,0,0,1.173-2.826l2.75-.705a1.74,1.74,0,0,0,1.307-1.685V55.351A1.74,1.74,0,0,0,375.218,53.665Zm-2.172,5.8-2.415.619a1.74,1.74,0,0,0-1.257,1.269,13.545,13.545,0,0,1-1.576,3.8,1.74,1.74,0,0,0-.01,1.789l1.266,2.138-1.965,1.96-2.15-1.267a1.741,1.741,0,0,0-1.783.01,13.624,13.624,0,0,1-3.807,1.574,1.74,1.74,0,0,0-1.271,1.256l-.62,2.408h-2.783l-.621-2.408a1.74,1.74,0,0,0-1.27-1.256,13.627,13.627,0,0,1-3.807-1.574,1.74,1.74,0,0,0-1.783-.01l-2.15,1.267-1.965-1.96,1.266-2.138a1.739,1.739,0,0,0-.01-1.789,13.541,13.541,0,0,1-1.576-3.8,1.74,1.74,0,0,0-1.257-1.269l-2.415-.619V56.7l2.415-.619a1.74,1.74,0,0,0,1.257-1.269,13.55,13.55,0,0,1,1.576-3.8,1.739,1.739,0,0,0,.01-1.789l-1.266-2.138,1.965-1.96,2.15,1.267a1.74,1.74,0,0,0,1.783-.01,13.624,13.624,0,0,1,3.807-1.574,1.74,1.74,0,0,0,1.27-1.256l.621-2.408h2.783l.62,2.408a1.74,1.74,0,0,0,1.271,1.256,13.62,13.62,0,0,1,3.807,1.574,1.74,1.74,0,0,0,1.783.01l2.15-1.267,1.965,1.96-1.266,2.138a1.74,1.74,0,0,0,.01,1.789,13.545,13.545,0,0,1,1.576,3.8,1.74,1.74,0,0,0,1.257,1.269l2.415.619Z" transform="translate(-257.758 -28.931)"/>
            <path id="Trazado_626547" data-name="Trazado 626547" d="M398.7,89.809a1.74,1.74,0,0,0-.7,2.359,5.933,5.933,0,1,1-6.377-3.006,1.74,1.74,0,1,0-.66-3.416c-11.1,2.43-9.573,18.374,1.8,18.649a9.45,9.45,0,0,0,8.3-13.885A1.739,1.739,0,0,0,398.7,89.809Z" transform="translate(-294.452 -65.83)"/>
            <path id="Trazado_626548" data-name="Trazado 626548" d="M90.939,58.517H85.818a40.643,40.643,0,0,0-19.3-18.654C80.706,25.11,70.034-.062,49.346,0,28.659-.062,17.985,25.113,32.179,39.863a40.644,40.644,0,0,0-19.3,18.655H7.753A7.857,7.857,0,0,0,.091,67.4L5.508,103.68a7.724,7.724,0,0,0,2.644,4.734,6,6,0,0,0,4.087,10.358H86.453a6,6,0,0,0,4.087-10.358,7.724,7.724,0,0,0,2.644-4.733L98.6,67.4A7.858,7.858,0,0,0,90.939,58.517ZM49.346,3.479A20.184,20.184,0,0,1,69.523,23.624c-1.014,26.688-39.345,26.681-40.354,0A20.184,20.184,0,0,1,49.346,3.479ZM35.024,42.415c7.927,6.378,20.718,6.378,28.644,0a37.179,37.179,0,0,1,18.205,16.1H16.819a37.181,37.181,0,0,1,18.205-16.1ZM95.16,66.884l-5.418,36.282a4.291,4.291,0,0,1-4.221,3.631H27.845a1.741,1.741,0,0,0,0,3.48H86.453a2.508,2.508,0,0,1,0,5.016H12.239a2.508,2.508,0,0,1,0-5.016h6.342a1.741,1.741,0,0,0,0-3.48h-5.41a4.291,4.291,0,0,1-4.221-3.631L3.533,66.884A4.3,4.3,0,0,1,7.754,62H90.939A4.3,4.3,0,0,1,95.16,66.884Z" transform="translate(-0.009 0)"/>
            <path id="Trazado_626549" data-name="Trazado 626549" d="M177.73,318.356A10.565,10.565,0,0,0,167.171,328.9c.531,13.972,20.59,13.968,21.118,0A10.564,10.564,0,0,0,177.73,318.356Zm0,17.613a7.081,7.081,0,0,1-7.08-7.066c.356-9.362,13.8-9.359,14.159,0a7.081,7.081,0,0,1-7.079,7.066Z" transform="translate(-128.393 -244.505)"/>
          </g>
        </g>
      </g>
      <rect id="Rectángulo_305736" data-name="Rectángulo 305736" width="164" height="164" transform="translate(179.814 1281.735)" fill="none"/>
    </g>
    <g id="Grupo_930489" data-name="Grupo 930489" transform="translate(-9450.227 -10936.209)">
      <path id="Trazado_626469" data-name="Trazado 626469" d="M359.529,1218.168h-.169a20.335,20.335,0,0,0-20.247,20.422v.055a20.4,20.4,0,0,0,20.427,20.377h.058a20.4,20.4,0,0,0,20.363-20.432v-.146A20.354,20.354,0,0,0,359.529,1218.168Z" fill="#ff8e00"/>
      <g id="Grupo_81370" data-name="Grupo 81370">
        <g id="Grupo_81368" data-name="Grupo 81368">
          <path id="Trazado_626470" data-name="Trazado 626470" d="M360.332,1240.444h1.948v3.421h-1.948v4.067H355.9v-4.067h-7.409l-.263-2.71,7.672-12.344v-.039h4.434Zm-7.882,0H355.9v-5.9l-.276.447Z" fill="none"/>
          <path id="Trazado_626471" data-name="Trazado 626471" d="M367.044,1243.629a2.524,2.524,0,0,1,1.75.625,2.182,2.182,0,0,1,0,3.2,2.759,2.759,0,0,1-3.507-.006,2.181,2.181,0,0,1,0-3.185A2.5,2.5,0,0,1,367.044,1243.629Z" fill="none"/>
        </g>
        <g id="Grupo_81369" data-name="Grupo 81369">
          <path id="Trazado_626472" data-name="Trazado 626472" d="M360.332,1240.444h1.948v3.421h-1.948v4.067H355.9v-4.067h-7.409l-.263-2.71,7.672-12.344v-.039h4.434Zm-7.882,0H355.9v-5.9l-.276.447Z" fill="#fff"/>
          <path id="Trazado_626473" data-name="Trazado 626473" d="M367.044,1243.629a2.524,2.524,0,0,1,1.75.625,2.182,2.182,0,0,1,0,3.2,2.759,2.759,0,0,1-3.507-.006,2.181,2.181,0,0,1,0-3.185A2.5,2.5,0,0,1,367.044,1243.629Z" fill="#fff"/>
        </g>
      </g>
    </g>
  </g>
</svg>
