<svg xmlns="http://www.w3.org/2000/svg" width="109.595" height="109.595" viewBox="0 0 109.595 109.595"><g transform="translate(-1 -0.904)"><g transform="translate(2.768 2.672)"><g transform="translate(18.26 67.171)"><path d="M18.817,39.9,25.3,43.156a45.977,45.977,0,0,1-6.487,10.889,45.834,45.834,0,0,1-5.833-9.4c-.23-.495-.46-.99-.654-1.5Z" transform="translate(-12.33 -39.904)" fill="#ffeaa7"/></g><g transform="translate(24.747 58.333)"><path d="M21.3,34.9a22.742,22.742,0,0,1,4.419.866L25.3,37.944a47.125,47.125,0,0,1-2.811,9.05L16,43.742Z" transform="translate(-16 -34.904)" fill="#fcd770"/></g><g transform="translate(15.025 58.333)"><path d="M14.919,34.9l5.3,8.838-6.487,3.235a45.75,45.75,0,0,1-2.811-9.033L10.5,35.788A21.285,21.285,0,0,1,14.919,34.9Z" transform="translate(-10.5 -34.904)" fill="#fcd770"/></g><g transform="translate(0 59.199)"><path d="M20.26,46.6c.194.513.424,1.008.654,1.5a45.834,45.834,0,0,0,5.833,9.4,45.978,45.978,0,0,0,6.487-10.889,47.125,47.125,0,0,0,2.811-9.05l.424-2.174a21.442,21.442,0,0,1,6.54,3.359,8.807,8.807,0,0,0,7.9,6.346v.018l-1.184,3.553a24.887,24.887,0,0,0-3.288.848A23.673,23.673,0,0,0,30.6,68.113H2V55.828A21.347,21.347,0,0,1,17.025,35.412l.424,2.157A45.75,45.75,0,0,0,20.26,46.6Z" transform="translate(-2 -35.394)" fill="#4fc1e9"/></g><g transform="translate(57.149 50.043)"><path d="M50.416,31.5a8.155,8.155,0,0,0,2.74,5,8.071,8.071,0,0,0,5.338,2,8.165,8.165,0,0,0,8.078-7l.177-1.273v-.018A21.191,21.191,0,0,1,83.241,50.878V63.252H51.264a23.648,23.648,0,0,0-12.48-9.757,24.63,24.63,0,0,0-3.27-.848L34.33,49.093v-.018a8.809,8.809,0,0,0,8.255-8.8h1.768A5.3,5.3,0,0,0,47.976,31.1l.053-.23a15.137,15.137,0,0,1,2.21-.636Z" transform="translate(-34.33 -30.214)" fill="#5cd6b3"/></g><g transform="translate(28.283 73.323)"><path d="M28.606,76.121H18V65.833a23.137,23.137,0,0,1,.318-3.854,23.673,23.673,0,0,1,15.838-18.6l.018.035,1.5,15.025,7.071-8.838,7.071,8.838,1.5-15.06A23.679,23.679,0,0,1,67.495,65.833V76.121H28.606Z" transform="translate(-18 -43.384)" fill="#ff826e"/></g><g transform="translate(53.03 72.474)"><path d="M40.573,43.752l-1.5,15.06L32,49.975,37.3,42.9A24.63,24.63,0,0,1,40.573,43.752Z" transform="translate(-32 -42.904)" fill="#fc6e51"/></g><g transform="translate(44.439 72.474)"><path d="M30.428,42.9l5.3,7.071L28.66,58.813l-1.5-15.025-.018-.035A24.887,24.887,0,0,1,30.428,42.9Z" transform="translate(-27.14 -42.904)" fill="#fc6e51"/></g><g transform="translate(70.848 40.373)"><path d="M49.009,28.562,47.9,31.885a3.525,3.525,0,0,1-2.722,2.351c-.3.053-.6.124-.884.194a15.136,15.136,0,0,0-2.21.636l1.255-5a12.6,12.6,0,0,0,.371-3.058,10.565,10.565,0,0,0-.23-2.263h.018a8.837,8.837,0,0,0,5.55,3.641Z" transform="translate(-42.08 -24.744)" fill="#fcd770"/></g><g transform="translate(63.636)"><path d="M66.283,23.116H59.212a7.069,7.069,0,0,1-7.071-7.071,7.069,7.069,0,0,1-7.071,7.071V37.257a8.092,8.092,0,0,0,.053.937l-.018.018-1.962-2.563A12.71,12.71,0,0,0,38,32.52V21.348a19.444,19.444,0,1,1,38.889,0V60.891a21.185,21.185,0,0,0-12.957-8.944c-.3-.071-.583-.124-.884-.177a3.525,3.525,0,0,1-2.722-2.351L59.212,46.1H60.98a8.842,8.842,0,0,0,8.838-8.838V23.116Z" transform="translate(-38 -1.904)" fill="#fcd770"/></g><g transform="translate(5.303 10.606)"><path d="M33.283,27.348H26.212a7.069,7.069,0,0,1-7.071-7.071,7.069,7.069,0,0,1-7.071,7.071v3.535H10.3a5.228,5.228,0,0,0-3.871,1.7A11.107,11.107,0,0,1,5,27.154v-1.4a10.974,10.974,0,0,1,8.838-10.783l.495-.99A10.985,10.985,0,0,1,24.161,7.9H27.4A16.476,16.476,0,0,1,43.889,24.4a16.993,16.993,0,0,1-.3,3.164v.018a12.352,12.352,0,0,0-6.77,3.624V27.348Z" transform="translate(-5 -7.904)" fill="#656d78"/></g><g transform="translate(33.586 30.05)"><path d="M52.818,34.813H38.677a7.488,7.488,0,0,1-5.939-3.535,4.662,4.662,0,0,0-4.667,4.667v2.4H26.3a5.258,5.258,0,0,0-3.624,1.432l-.247-1.008-1.061-4.225a12.605,12.605,0,0,1,3.164-11.79,12.352,12.352,0,0,1,6.77-3.624,10.849,10.849,0,0,1,2.28-.23H47.3a12.489,12.489,0,0,1,3.747.566A12.71,12.71,0,0,1,56.194,22.6l1.962,2.563a11.615,11.615,0,0,1,1.5,4.066,10.565,10.565,0,0,1,.23,2.263,12.6,12.6,0,0,1-.371,3.058l-1.255,5a.875.875,0,0,0-.23.071,5.238,5.238,0,0,0-3.447-1.273H52.818Z" transform="translate(-21 -18.904)" fill="#656d78"/></g><g transform="translate(19.444 53.03)"><path d="M21.838,31.9l1.768,5.3-5.3,8.838L13,37.207l1.768-5.3Z" transform="translate(-13 -31.904)" fill="#f0d0b4"/></g><g transform="translate(12.374 22.98)"><path d="M33.747,21.975v3.854a12.605,12.605,0,0,0-3.164,11.79l1.061,4.225a8.8,8.8,0,0,1-6.735,3.111H17.838A8.842,8.842,0,0,1,9,36.116V21.975A7.069,7.069,0,0,0,16.071,14.9a7.069,7.069,0,0,0,7.071,7.071H33.747Z" transform="translate(-9 -14.904)" fill="#f0d0b4"/></g><g transform="translate(5.303 33.586)"><path d="M12.071,20.9V31.51H10.3A5.29,5.29,0,0,1,6.432,22.6,5.228,5.228,0,0,1,10.3,20.9Z" transform="translate(-5 -20.904)" fill="#f0d0b4"/></g><g transform="translate(73.057 44.015)"><path d="M59.663,34.122a8.165,8.165,0,0,1-8.078,7,8.071,8.071,0,0,1-5.338-2,8.154,8.154,0,0,1-2.74-5l-.177-1.273c.283-.071.583-.141.884-.194A3.525,3.525,0,0,0,46.936,30.3l1.114-3.323.035-.177a8,8,0,0,0,1.732.177h5.3L56.234,30.3a3.525,3.525,0,0,0,2.722,2.351c.3.053.583.106.884.177v.018Z" transform="translate(-43.33 -26.804)" fill="#f0d0b4"/></g><g transform="translate(70.706 14.141)"><path d="M66.747,16.975V31.116a8.842,8.842,0,0,1-8.838,8.838H50.838a8,8,0,0,1-1.732-.177,8.837,8.837,0,0,1-5.55-3.641h-.018a11.615,11.615,0,0,0-1.5-4.066l.018-.018A8.093,8.093,0,0,1,42,31.116V16.975A7.069,7.069,0,0,0,49.071,9.9a7.069,7.069,0,0,0,7.071,7.071H66.747Z" transform="translate(-42 -9.904)" fill="#f0d0b4"/></g><g transform="translate(65.403 49.495)"><path d="M46.071,35.207a5.311,5.311,0,0,1-5.3,5.3H39V29.9h1.768a5.238,5.238,0,0,1,3.447,1.273c.053.053.124.106.177.159A5.271,5.271,0,0,1,46.071,35.207Z" transform="translate(-39 -29.904)" fill="#f0d0b4"/></g><g transform="translate(47.727 68.903)"><path d="M37.838,40.919a3.233,3.233,0,0,0,.583-.035V40.9l1.184,3.553-5.3,7.071L29,44.455,30.184,40.9v-.018a3.232,3.232,0,0,0,.583.035Z" transform="translate(-29 -40.884)" fill="#f0d0b4"/></g><g transform="translate(40.656 42.424)"><path d="M42.677,29.439h7.071V43.581a8.809,8.809,0,0,1-8.255,8.8,3.233,3.233,0,0,1-.583.035H33.838a3.232,3.232,0,0,1-.583-.035,8.807,8.807,0,0,1-7.9-6.346A8.691,8.691,0,0,1,25,43.581V30.571A4.662,4.662,0,0,1,29.667,25.9a7.488,7.488,0,0,0,5.939,3.535Z" transform="translate(-25 -25.904)" fill="#f0d0b4"/></g><g transform="translate(33.586 49.495)"><path d="M28.071,29.9V40.51H26.3a5.3,5.3,0,0,1,0-10.606Z" transform="translate(-21 -29.904)" fill="#f0d0b4"/></g></g><g transform="translate(1 0.904)"><circle cx="2" cy="2" r="2" transform="translate(47.047 53.001)"/><ellipse cx="1.5" cy="2" rx="1.5" ry="2" transform="translate(59.047 53.001)"/><path d="M36.071,36.672H29v3.535h7.071a5.309,5.309,0,0,0,5.3-5.3H37.838A1.769,1.769,0,0,1,36.071,36.672Z" transform="translate(20.495 25.196)"/><circle cx="2" cy="2" r="2" transform="translate(78.047 28.001)"/><ellipse cx="1.5" cy="2" rx="1.5" ry="2" transform="translate(89.047 28.001)"/><path d="M46,26.207h7.071a5.309,5.309,0,0,0,5.3-5.3H54.838a1.771,1.771,0,0,1-1.768,1.768H46Z" transform="translate(33.545 14.449)"/><ellipse cx="2" cy="1.5" rx="2" ry="1.5" transform="translate(19.047 37.001)"/><circle cx="1.5" cy="1.5" r="1.5" transform="translate(30.047 37.001)"/><path d="M17.3,29.439h7.071V25.9H17.3a5.309,5.309,0,0,0-5.3,5.3h3.535A1.771,1.771,0,0,1,17.3,29.439Z" transform="translate(7.444 18.288)"/><path d="M110.6,73.371a22.849,22.849,0,0,0-3.535-12.2V22.116a21.212,21.212,0,0,0-42.424,0v8.992a14.412,14.412,0,0,0-1.985-.154H48.944c-.094,0-.182.012-.276.014.027-.4.058-.8.058-1.193A18.286,18.286,0,0,0,30.462,11.51H27.241a12.694,12.694,0,0,0-11.416,7.055l-.129.256A12.8,12.8,0,0,0,6.3,31.129v1.4A12.777,12.777,0,0,0,7.44,37.742a7.05,7.05,0,0,0,5.934,10.889h.161A10.627,10.627,0,0,0,21.618,57.2l-.728,2.183A23.029,23.029,0,0,0,1,82.3V96.36H29.373c-.057.688-.09,1.382-.09,2.084V110.5h53.03V98.444a25.368,25.368,0,0,0-2.475-10.924H110.6ZM68.171,22.116a17.677,17.677,0,1,1,35.353,0v34.71A22.859,22.859,0,0,0,91.759,50.8,1.765,1.765,0,0,1,90.4,49.623L90.057,48.6a10.613,10.613,0,0,0,9.932-10.574V16.813H96.454v5.3H94.686a5.309,5.309,0,0,1-5.3-5.3H85.848a8.747,8.747,0,0,0,1.814,5.3h-.046a5.309,5.309,0,0,1-5.3-5.3H78.777a5.3,5.3,0,0,1-3.535,4.978V16.813H71.706V34.184a14.374,14.374,0,0,0-3.535-2.121Zm1.768,31.818a3.535,3.535,0,1,1,0,7.071Zm5.3-15.909V25.473a8.828,8.828,0,0,0,5.3-3.412,8.807,8.807,0,0,0,7.071,3.59h8.838V38.025A7.078,7.078,0,0,1,89.383,45.1H82.312a7.071,7.071,0,0,1-5.634-2.816,14.23,14.23,0,0,0-1.416-3.822c-.007-.143-.021-.286-.021-.433ZM76.4,50.8c-.115.021-.228.055-.343.076l.52-2.082a14.594,14.594,0,0,0,.313-1.678,10.636,10.636,0,0,0,1.46.734l-.59,1.769A1.766,1.766,0,0,1,76.4,50.8Zm4.713-.062.712-2.139c.163.007.322.03.484.03h4.029l.7,2.109a5.269,5.269,0,0,0,3.293,3.284,6.362,6.362,0,0,1-12.515,0,5.265,5.265,0,0,0,3.293-3.284ZM62.651,34.49a10.822,10.822,0,0,1,10.5,13.448l-.734,2.933a7,7,0,0,0-2.478-.472V46.863H68.171a5.827,5.827,0,0,1-5.3-5.3H59.333A9.407,9.407,0,0,0,66.4,50.185V62.772a7.078,7.078,0,0,1-7.071,7.071H52.262a7.078,7.078,0,0,1-7.071-7.071V49.762a2.862,2.862,0,0,1,2.088-2.772A9.033,9.033,0,0,0,54.03,50.4V46.863a5.827,5.827,0,0,1-5.3-5.3H45.192a7.712,7.712,0,0,0,.366,2.291,6.418,6.418,0,0,0-3.9,5.911V50.4a7,7,0,0,0-2.478.472l-.734-2.934a10.821,10.821,0,0,1,10.5-13.447ZM49.768,77.124l3.793,5.059-3.507,4.384-.93-9.3C49.337,77.214,49.554,77.173,49.768,77.124ZM55.8,79.272l-3.334-4.444.483-1.448h5.7l.483,1.448Zm6.029-2.148c.214.049.431.09.643.147l-.93,9.3-3.507-4.384ZM29.776,57.469l1.108,3.323-3.369,5.616-3.369-5.616,1.108-3.323ZM41.656,61a3.535,3.535,0,1,1,0-7.071Zm-6.724-1.46c-.267-.048-.525-.125-.792-.164l-.727-2.18a10.367,10.367,0,0,0,1.237-.369,6.4,6.4,0,0,0-.065.638A6.966,6.966,0,0,0,34.932,59.544Zm-9.915,9.572L21.95,70.651A44.684,44.684,0,0,1,19.958,63.7l-.1-.525c.474-.1.956-.191,1.444-.262Zm2.5,2.7,4.177,2.088a44.911,44.911,0,0,1-4.177,7.152,44.989,44.989,0,0,1-4.177-7.152Zm5.565-1.17-3.067-1.534,3.707-6.178c.488.071.979.129,1.458.235l-.106.527A44.266,44.266,0,0,1,33.08,70.649ZM9.838,31.129a9.255,9.255,0,0,1,7.417-9.049l.847-.17.884-1.768a9.176,9.176,0,0,1,8.253-5.1H30.46A14.633,14.633,0,0,1,45.077,31.5a14.217,14.217,0,0,0-3.422,1.465V25.649H38.119v5.3H36.351a5.309,5.309,0,0,1-5.3-5.3H27.513a8.747,8.747,0,0,0,1.814,5.3h-.044a5.309,5.309,0,0,1-5.3-5.3H20.444a5.3,5.3,0,0,1-3.535,4.978V25.649H13.374v8.838a7,7,0,0,0-3.109.751,9.189,9.189,0,0,1-.426-2.712Zm0,10.431a3.539,3.539,0,0,1,3.535-3.535V45.1A3.539,3.539,0,0,1,9.838,41.56Zm7.071,5.3V34.311a8.828,8.828,0,0,0,5.3-3.412,8.807,8.807,0,0,0,7.071,3.59h8.838v1.416A14.3,14.3,0,0,0,35.015,48.8l.808,3.23a7.028,7.028,0,0,1-4.771,1.907H23.981a7.078,7.078,0,0,1-7.072-7.069ZM15.141,92.822V76.913H11.606V92.822H4.535V82.3A19.494,19.494,0,0,1,16.464,64.253l.028.141a48.476,48.476,0,0,0,9.644,20.694l1.379,1.725L28.9,85.089A48.5,48.5,0,0,0,38.54,64.395l.021-.11a19.416,19.416,0,0,1,3.744,2.1,10.639,10.639,0,0,0,7.055,6.577l-.217.654A25.421,25.421,0,0,0,29.933,92.826H15.141Zm63.636,14.141H71.706V92.822H68.171v14.141H43.424V92.822H39.889v14.141H32.818v-8.52a21.892,21.892,0,0,1,12.876-19.95L47.4,95.543l6.63-8.287V99.893h3.535V87.256l6.63,8.289L65.9,78.5A21.892,21.892,0,0,1,78.777,98.444Zm28.283-22.98H99.989V66.307H96.454V83.984H77.8A25.4,25.4,0,0,0,62.455,73.617l-.217-.654a10.625,10.625,0,0,0,7.543-8.425h.159A7.057,7.057,0,0,0,76.7,59.415a9.842,9.842,0,0,0,17.031-4.456A19.388,19.388,0,0,1,107.06,73.371Z" transform="translate(-1 -0.904)"/><path d="M38.838,32.742V29.207a5.827,5.827,0,0,1-5.3-5.3H30A9.309,9.309,0,0,0,38.838,32.742Z" transform="translate(21.262 16.752)"/></g></g></svg>