<svg xmlns="http://www.w3.org/2000/svg" xmlns:xlink="http://www.w3.org/1999/xlink" width="183.639" height="185.423" viewBox="0 0 183.639 185.423">
  <defs>
    <filter id="Elipse_7681" x="0" y="0" width="183.639" height="185.423" filterUnits="userSpaceOnUse">
      <feOffset dy="3" input="SourceAlpha"/>
      <feGaussianBlur stdDeviation="3" result="blur"/>
      <feFlood flood-opacity="0.161"/>
      <feComposite operator="in" in2="blur"/>
      <feComposite in="SourceGraphic"/>
    </filter>
    <clipPath id="clip-path">
      <rect id="Rectángulo_305741" data-name="Rectángulo 305741" width="119" height="105" transform="translate(275 911)" fill="#fff" stroke="#707070" stroke-width="1"/>
    </clipPath>
  </defs>
  <g id="Grupo_953307" data-name="Grupo 953307" transform="translate(-243.421 -871.009)">
    <g transform="matrix(1, 0, 0, 1, 243.42, 871.01)" filter="url(#Elipse_7681)">
      <ellipse id="Elipse_7681-2" data-name="Elipse 7681" cx="82.819" cy="83.712" rx="82.819" ry="83.712" transform="translate(9 6)" fill="#ffeed9"/>
    </g>
    <g id="Enmascarar_grupo_55" data-name="Enmascarar grupo 55" transform="translate(2 -2)" clip-path="url(#clip-path)">
      <g id="calendario" transform="translate(270.241 912.5)">
        <g id="Grupo_930526" data-name="Grupo 930526" transform="translate(18.052 1.494)">
          <g id="Grupo_930525" data-name="Grupo 930525" transform="translate(0)">
            <path id="Trazado_626602" data-name="Trazado 626602" d="M68.377,368.6H30.66a6.6,6.6,0,0,1-6.6-6.6v-6.6H74.717Z" transform="translate(-24.059 -286.092)" fill="#d3dcfb"/>
            <path id="Trazado_626603" data-name="Trazado 626603" d="M109.875,90.268v46.205H30.66a6.6,6.6,0,0,1-6.6-6.6v-39.6l46.209-16.5Z" transform="translate(-24.059 -60.565)" fill="#ebf5fc"/>
            <g id="Grupo_930524" data-name="Grupo 930524" transform="translate(6.603 36.304)">
              <path id="Trazado_626604" data-name="Trazado 626604" d="M62.21,196.335H58.8a1.594,1.594,0,0,1-1.594-1.594v-3.413a1.594,1.594,0,0,1,1.594-1.594H62.21a1.594,1.594,0,0,1,1.594,1.594v3.413A1.594,1.594,0,0,1,62.21,196.335Z" transform="translate(-57.203 -189.734)" fill="#3c58a0"/>
              <path id="Trazado_626605" data-name="Trazado 626605" d="M128.477,196.335h-3.413a1.594,1.594,0,0,1-1.594-1.594v-3.413a1.594,1.594,0,0,1,1.594-1.594h3.413a1.594,1.594,0,0,1,1.594,1.594v3.413A1.594,1.594,0,0,1,128.477,196.335Z" transform="translate(-110.268 -189.734)" fill="#3c58a0"/>
              <path id="Trazado_626606" data-name="Trazado 626606" d="M194.743,196.335H191.33a1.594,1.594,0,0,1-1.594-1.594v-3.413a1.594,1.594,0,0,1,1.594-1.594h3.413a1.594,1.594,0,0,1,1.594,1.594v3.413A1.594,1.594,0,0,1,194.743,196.335Z" transform="translate(-163.333 -189.734)" fill="#3c58a0"/>
              <path id="Trazado_626607" data-name="Trazado 626607" d="M261.01,196.335H257.6A1.594,1.594,0,0,1,256,194.741v-3.413a1.594,1.594,0,0,1,1.594-1.594h3.413a1.594,1.594,0,0,1,1.594,1.594v3.413A1.594,1.594,0,0,1,261.01,196.335Z" transform="translate(-216.398 -189.734)" fill="#3c58a0"/>
              <path id="Trazado_626608" data-name="Trazado 626608" d="M327.266,196.335h-3.413a1.594,1.594,0,0,1-1.594-1.594v-3.413a1.594,1.594,0,0,1,1.594-1.594h3.413a1.594,1.594,0,0,1,1.594,1.594v3.413A1.594,1.594,0,0,1,327.266,196.335Z" transform="translate(-269.455 -189.734)" fill="#3c58a0"/>
              <path id="Trazado_626609" data-name="Trazado 626609" d="M393.532,196.335h-3.413a1.594,1.594,0,0,1-1.594-1.594v-3.413a1.594,1.594,0,0,1,1.594-1.594h3.413a1.594,1.594,0,0,1,1.594,1.594v3.413A1.594,1.594,0,0,1,393.532,196.335Z" transform="translate(-322.519 -189.734)" fill="#3c58a0"/>
              <path id="Trazado_626610" data-name="Trazado 626610" d="M62.21,262.6H58.8a1.594,1.594,0,0,1-1.594-1.594v-3.413A1.594,1.594,0,0,1,58.8,256H62.21a1.594,1.594,0,0,1,1.594,1.594v3.413A1.594,1.594,0,0,1,62.21,262.6Z" transform="translate(-57.203 -242.799)" fill="#3c58a0"/>
              <path id="Trazado_626611" data-name="Trazado 626611" d="M128.477,262.6h-3.413a1.594,1.594,0,0,1-1.594-1.594v-3.413A1.594,1.594,0,0,1,125.064,256h3.413a1.594,1.594,0,0,1,1.594,1.594v3.413A1.594,1.594,0,0,1,128.477,262.6Z" transform="translate(-110.268 -242.799)" fill="#3c58a0"/>
              <path id="Trazado_626612" data-name="Trazado 626612" d="M194.743,262.6H191.33a1.594,1.594,0,0,1-1.594-1.594v-3.413A1.594,1.594,0,0,1,191.33,256h3.413a1.594,1.594,0,0,1,1.594,1.594v3.413A1.594,1.594,0,0,1,194.743,262.6Z" transform="translate(-163.333 -242.799)" fill="#3c58a0"/>
              <path id="Trazado_626613" data-name="Trazado 626613" d="M262.6,262.6V257.65a1.65,1.65,0,0,0-1.65-1.65h-3.3a1.65,1.65,0,0,0-1.65,1.65v3.3a1.65,1.65,0,0,0,1.65,1.65Z" transform="translate(-216.398 -242.799)" fill="#3c58a0"/>
              <path id="Trazado_626614" data-name="Trazado 626614" d="M62.21,328.868H58.8a1.594,1.594,0,0,1-1.594-1.594v-3.413a1.594,1.594,0,0,1,1.594-1.594H62.21a1.594,1.594,0,0,1,1.594,1.594v3.413A1.594,1.594,0,0,1,62.21,328.868Z" transform="translate(-57.203 -295.864)" fill="#3c58a0"/>
              <path id="Trazado_626615" data-name="Trazado 626615" d="M128.477,328.868h-3.413a1.594,1.594,0,0,1-1.594-1.594v-3.413a1.594,1.594,0,0,1,1.594-1.594h3.413a1.594,1.594,0,0,1,1.594,1.594v3.413A1.594,1.594,0,0,1,128.477,328.868Z" transform="translate(-110.268 -295.864)" fill="#3c58a0"/>
              <path id="Trazado_626616" data-name="Trazado 626616" d="M194.743,328.868H191.33a1.594,1.594,0,0,1-1.594-1.594v-3.413a1.594,1.594,0,0,1,1.594-1.594h3.413a1.594,1.594,0,0,1,1.594,1.594v3.413A1.594,1.594,0,0,1,194.743,328.868Z" transform="translate(-163.333 -295.864)" fill="#3c58a0"/>
            </g>
            <path id="Trazado_626617" data-name="Trazado 626617" d="M397.59,189.733h-3.413a1.586,1.586,0,0,0-.584.112,1.593,1.593,0,0,1,1.009,1.482v3.413a1.593,1.593,0,0,1-1.009,1.482,1.587,1.587,0,0,0,.584.112h3.413a1.594,1.594,0,0,0,1.594-1.594v-3.413A1.594,1.594,0,0,0,397.59,189.733Z" transform="translate(-319.974 -153.429)" fill="#2a428c"/>
            <path id="Trazado_626618" data-name="Trazado 626618" d="M331.324,189.733H327.91a1.586,1.586,0,0,0-.584.112,1.593,1.593,0,0,1,1.009,1.482v3.413a1.593,1.593,0,0,1-1.009,1.482,1.586,1.586,0,0,0,.584.112h3.413a1.594,1.594,0,0,0,1.594-1.594v-3.413A1.594,1.594,0,0,0,331.324,189.733Z" transform="translate(-266.91 -153.429)" fill="#2a428c"/>
            <path id="Trazado_626619" data-name="Trazado 626619" d="M265.067,189.733h-3.413a1.586,1.586,0,0,0-.584.112,1.593,1.593,0,0,1,1.009,1.482v3.413a1.593,1.593,0,0,1-1.009,1.482,1.586,1.586,0,0,0,.584.112h3.413a1.594,1.594,0,0,0,1.594-1.594v-3.413A1.594,1.594,0,0,0,265.067,189.733Z" transform="translate(-213.853 -153.429)" fill="#2a428c"/>
            <path id="Trazado_626620" data-name="Trazado 626620" d="M198.8,189.733h-3.413a1.586,1.586,0,0,0-.584.112,1.593,1.593,0,0,1,1.009,1.482v3.413a1.593,1.593,0,0,1-1.009,1.482,1.586,1.586,0,0,0,.584.112H198.8a1.594,1.594,0,0,0,1.594-1.594v-3.413A1.594,1.594,0,0,0,198.8,189.733Z" transform="translate(-160.788 -153.429)" fill="#2a428c"/>
            <path id="Trazado_626621" data-name="Trazado 626621" d="M132.535,189.733h-3.413a1.586,1.586,0,0,0-.584.112,1.593,1.593,0,0,1,1.009,1.482v3.413a1.593,1.593,0,0,1-1.009,1.482,1.586,1.586,0,0,0,.584.112h3.413a1.594,1.594,0,0,0,1.594-1.594v-3.413A1.594,1.594,0,0,0,132.535,189.733Z" transform="translate(-107.723 -153.429)" fill="#2a428c"/>
            <path id="Trazado_626622" data-name="Trazado 626622" d="M66.268,189.733H62.854a1.586,1.586,0,0,0-.584.112,1.593,1.593,0,0,1,1.009,1.482v3.413a1.593,1.593,0,0,1-1.009,1.482,1.587,1.587,0,0,0,.584.112h3.413a1.594,1.594,0,0,0,1.594-1.594v-3.413A1.594,1.594,0,0,0,66.268,189.733Z" transform="translate(-54.658 -153.429)" fill="#2a428c"/>
            <path id="Trazado_626623" data-name="Trazado 626623" d="M66.268,256H62.854a1.586,1.586,0,0,0-.584.112,1.593,1.593,0,0,1,1.009,1.482v3.413a1.593,1.593,0,0,1-1.009,1.482,1.587,1.587,0,0,0,.584.112h3.413a1.594,1.594,0,0,0,1.594-1.594v-3.413A1.594,1.594,0,0,0,66.268,256Z" transform="translate(-54.658 -206.494)" fill="#2a428c"/>
            <path id="Trazado_626624" data-name="Trazado 626624" d="M66.268,322.267H62.854a1.585,1.585,0,0,0-.584.112,1.593,1.593,0,0,1,1.009,1.482v3.413a1.593,1.593,0,0,1-1.009,1.482,1.588,1.588,0,0,0,.584.112h3.413a1.594,1.594,0,0,0,1.594-1.594v-3.413A1.594,1.594,0,0,0,66.268,322.267Z" transform="translate(-54.658 -259.559)" fill="#2a428c"/>
            <path id="Trazado_626625" data-name="Trazado 626625" d="M132.535,256h-3.413a1.586,1.586,0,0,0-.584.112,1.593,1.593,0,0,1,1.009,1.482v3.413a1.593,1.593,0,0,1-1.009,1.482,1.586,1.586,0,0,0,.584.112h3.413a1.594,1.594,0,0,0,1.594-1.594v-3.413A1.594,1.594,0,0,0,132.535,256Z" transform="translate(-107.723 -206.494)" fill="#2a428c"/>
            <path id="Trazado_626626" data-name="Trazado 626626" d="M132.535,322.267h-3.413a1.585,1.585,0,0,0-.584.112,1.593,1.593,0,0,1,1.009,1.482v3.413a1.593,1.593,0,0,1-1.009,1.482,1.587,1.587,0,0,0,.584.112h3.413a1.594,1.594,0,0,0,1.594-1.594v-3.413A1.594,1.594,0,0,0,132.535,322.267Z" transform="translate(-107.723 -259.559)" fill="#2a428c"/>
            <path id="Trazado_626627" data-name="Trazado 626627" d="M198.8,256h-3.413a1.586,1.586,0,0,0-.584.112,1.593,1.593,0,0,1,1.009,1.482v3.413a1.593,1.593,0,0,1-1.009,1.482,1.586,1.586,0,0,0,.584.112H198.8a1.594,1.594,0,0,0,1.594-1.594v-3.413A1.594,1.594,0,0,0,198.8,256Z" transform="translate(-160.788 -206.494)" fill="#2a428c"/>
            <path id="Trazado_626628" data-name="Trazado 626628" d="M266.661,262.6v-5.007A1.594,1.594,0,0,0,265.067,256h-3.413a1.586,1.586,0,0,0-.584.112,1.593,1.593,0,0,1,1.009,1.482v3.413a1.593,1.593,0,0,1-1.009,1.482,1.587,1.587,0,0,0,.584.112h5.007Z" transform="translate(-213.853 -206.494)" fill="#2a428c"/>
            <path id="Trazado_626629" data-name="Trazado 626629" d="M198.8,322.267h-3.413a1.585,1.585,0,0,0-.584.112,1.593,1.593,0,0,1,1.009,1.482v3.413a1.593,1.593,0,0,1-1.009,1.482,1.587,1.587,0,0,0,.584.112H198.8a1.594,1.594,0,0,0,1.594-1.594v-3.413A1.594,1.594,0,0,0,198.8,322.267Z" transform="translate(-160.788 -259.559)" fill="#2a428c"/>
            <path id="Trazado_626630" data-name="Trazado 626630" d="M431.808,147.01v48.116h4.585V148.921Z" transform="translate(-350.577 -119.217)" fill="#d3dcfb"/>
            <path id="Trazado_626631" data-name="Trazado 626631" d="M109.875,63.737v-16.5a6.6,6.6,0,0,0-6.6-6.6H30.66a6.6,6.6,0,0,0-6.6,6.6v16.5Z" transform="translate(-24.059 -34.033)" fill="#ff4155"/>
            <path id="Trazado_626632" data-name="Trazado 626632" d="M131.71,19.876a4.125,4.125,0,0,1-8.251,0V11.625a4.125,4.125,0,0,1,8.251,0Z" transform="translate(-103.657 -7.5)" fill="#ebf5fc"/>
            <path id="Trazado_626633" data-name="Trazado 626633" d="M322.238,19.876a4.125,4.125,0,1,1-8.251,0V11.625a4.125,4.125,0,1,1,8.251,0Z" transform="translate(-256.228 -7.5)" fill="#ebf5fc"/>
            <path id="Trazado_626634" data-name="Trazado 626634" d="M325.494,7.5a4.106,4.106,0,0,0-2.289.694,4.12,4.12,0,0,1,1.837,3.432v8.251a4.121,4.121,0,0,1-1.837,3.432,4.125,4.125,0,0,0,6.414-3.432V11.625A4.125,4.125,0,0,0,325.494,7.5Z" transform="translate(-263.609 -7.5)" fill="#d3dcfb"/>
            <path id="Trazado_626635" data-name="Trazado 626635" d="M134.967,7.5a4.106,4.106,0,0,0-2.289.694,4.121,4.121,0,0,1,1.837,3.432v8.251a4.121,4.121,0,0,1-1.837,3.432,4.125,4.125,0,0,0,6.414-3.432V11.625A4.125,4.125,0,0,0,134.967,7.5Z" transform="translate(-111.039 -7.5)" fill="#d3dcfb"/>
            <path id="Trazado_626636" data-name="Trazado 626636" d="M403.268,40.633h-4.584a6.6,6.6,0,0,1,6.6,6.6v16.5h4.584v-16.5a6.6,6.6,0,0,0-6.6-6.6Z" transform="translate(-324.052 -34.032)" fill="#e80054"/>
          </g>
          <circle id="Elipse_7685" data-name="Elipse 7685" cx="24.753" cy="24.753" r="24.753" transform="translate(42.908 49.506)" fill="#4fabf7"/>
          <circle id="Elipse_7686" data-name="Elipse 7686" cx="18.152" cy="18.152" r="18.152" transform="translate(49.509 56.107)" fill="#ebf5fc"/>
          <path id="Trazado_626637" data-name="Trazado 626637" d="M354.482,256c-.773,0-1.536.037-2.291.107a24.753,24.753,0,0,1,0,49.293c.755.069,1.518.107,2.291.107a24.753,24.753,0,0,0,0-49.506Z" transform="translate(-286.821 -206.494)" fill="#1886ea"/>
          <path id="Trazado_626638" data-name="Trazado 626638" d="M354.488,289.133a18.354,18.354,0,0,0-2.289.143,18.154,18.154,0,0,1,0,36.018,18.153,18.153,0,1,0,2.289-36.161Z" transform="translate(-286.827 -233.026)" fill="#d3dcfb"/>
          <circle id="Elipse_7687" data-name="Elipse 7687" cx="3.3" cy="3.3" r="3.3" transform="translate(64.361 70.958)" fill="#ffdd40"/>
        </g>
        <g id="Grupo_930527" data-name="Grupo 930527" transform="translate(16.558 0)">
          <path id="Trazado_626639" data-name="Trazado 626639" d="M52.79,191.823H56.2a3.091,3.091,0,0,0,3.088-3.088v-3.413a3.091,3.091,0,0,0-3.088-3.088H52.79a3.091,3.091,0,0,0-3.088,3.088v3.413A3.091,3.091,0,0,0,52.79,191.823Zm-.1-6.5a.1.1,0,0,1,.1-.1H56.2a.1.1,0,0,1,.1.1v3.413a.1.1,0,0,1-.1.1H52.79a.1.1,0,0,1-.1-.1Z" transform="translate(-43.099 -145.93)"/>
          <path id="Trazado_626640" data-name="Trazado 626640" d="M119.058,191.823h3.413a3.091,3.091,0,0,0,3.088-3.088v-3.413a3.091,3.091,0,0,0-3.088-3.088h-3.413a3.091,3.091,0,0,0-3.088,3.088v3.413A3.091,3.091,0,0,0,119.058,191.823Zm-.1-6.5a.1.1,0,0,1,.1-.1h3.413a.1.1,0,0,1,.1.1v3.413a.1.1,0,0,1-.1.1h-3.413a.1.1,0,0,1-.1-.1Z" transform="translate(-96.165 -145.93)"/>
          <path id="Trazado_626641" data-name="Trazado 626641" d="M185.324,191.823h3.413a3.091,3.091,0,0,0,3.088-3.088v-3.413a3.091,3.091,0,0,0-3.088-3.088h-3.413a3.091,3.091,0,0,0-3.088,3.088v3.413A3.091,3.091,0,0,0,185.324,191.823Zm-.1-6.5a.1.1,0,0,1,.1-.1h3.413a.1.1,0,0,1,.1.1v3.413a.1.1,0,0,1-.1.1h-3.413a.1.1,0,0,1-.1-.1Z" transform="translate(-149.23 -145.93)"/>
          <path id="Trazado_626642" data-name="Trazado 626642" d="M255,191.823a3.091,3.091,0,0,0,3.088-3.088v-3.413A3.091,3.091,0,0,0,255,182.234h-3.413a3.091,3.091,0,0,0-3.088,3.088v3.413a3.091,3.091,0,0,0,3.088,3.088Zm-3.513-3.088v-3.413a.1.1,0,0,1,.1-.1H255a.1.1,0,0,1,.1.1v3.413a.1.1,0,0,1-.1.1h-3.413A.1.1,0,0,1,251.491,188.735Z" transform="translate(-202.295 -145.93)"/>
          <path id="Trazado_626643" data-name="Trazado 626643" d="M321.26,191.823a3.091,3.091,0,0,0,3.088-3.088v-3.413a3.091,3.091,0,0,0-3.088-3.088h-3.413a3.091,3.091,0,0,0-3.088,3.088v3.413a3.091,3.091,0,0,0,3.088,3.088Zm-3.513-3.088v-3.413a.1.1,0,0,1,.1-.1h3.413a.1.1,0,0,1,.1.1v3.413a.1.1,0,0,1-.1.1h-3.413A.1.1,0,0,1,317.747,188.735Z" transform="translate(-255.352 -145.93)"/>
          <path id="Trazado_626644" data-name="Trazado 626644" d="M387.526,191.823a3.091,3.091,0,0,0,3.088-3.088v-3.413a3.091,3.091,0,0,0-3.088-3.088h-3.413a3.091,3.091,0,0,0-3.088,3.088v3.413a3.091,3.091,0,0,0,3.088,3.088Zm-3.513-3.088v-3.413a.1.1,0,0,1,.1-.1h3.413a.1.1,0,0,1,.1.1v3.413a.1.1,0,0,1-.1.1h-3.413A.1.1,0,0,1,384.013,188.735Z" transform="translate(-308.416 -145.93)"/>
          <path id="Trazado_626645" data-name="Trazado 626645" d="M49.7,255a3.091,3.091,0,0,0,3.088,3.088H56.2A3.091,3.091,0,0,0,59.291,255v-3.413A3.091,3.091,0,0,0,56.2,248.5H52.79a3.091,3.091,0,0,0-3.088,3.088Zm2.988-3.413a.1.1,0,0,1,.1-.1H56.2a.1.1,0,0,1,.1.1V255a.1.1,0,0,1-.1.1H52.79a.1.1,0,0,1-.1-.1Z" transform="translate(-43.099 -198.994)"/>
          <path id="Trazado_626646" data-name="Trazado 626646" d="M115.97,255a3.091,3.091,0,0,0,3.088,3.088h3.413A3.091,3.091,0,0,0,125.559,255v-3.413a3.091,3.091,0,0,0-3.088-3.088h-3.413a3.091,3.091,0,0,0-3.088,3.088Zm2.988-3.413a.1.1,0,0,1,.1-.1h3.413a.1.1,0,0,1,.1.1V255a.1.1,0,0,1-.1.1h-3.413a.1.1,0,0,1-.1-.1Z" transform="translate(-96.165 -198.994)"/>
          <path id="Trazado_626647" data-name="Trazado 626647" d="M182.236,255a3.091,3.091,0,0,0,3.088,3.088h3.413A3.091,3.091,0,0,0,191.825,255v-3.413a3.091,3.091,0,0,0-3.088-3.088h-3.413a3.091,3.091,0,0,0-3.088,3.088Zm2.988-3.413a.1.1,0,0,1,.1-.1h3.413a.1.1,0,0,1,.1.1V255a.1.1,0,0,1-.1.1h-3.413a.1.1,0,0,1-.1-.1Z" transform="translate(-149.23 -198.994)"/>
          <path id="Trazado_626648" data-name="Trazado 626648" d="M49.7,321.268a3.091,3.091,0,0,0,3.088,3.088H56.2a3.091,3.091,0,0,0,3.088-3.088v-3.413a3.091,3.091,0,0,0-3.088-3.088H52.79a3.091,3.091,0,0,0-3.088,3.088Zm2.988-3.413a.1.1,0,0,1,.1-.1H56.2a.1.1,0,0,1,.1.1v3.413a.1.1,0,0,1-.1.1H52.79a.1.1,0,0,1-.1-.1Z" transform="translate(-43.099 -252.059)"/>
          <path id="Trazado_626649" data-name="Trazado 626649" d="M115.97,321.268a3.091,3.091,0,0,0,3.088,3.088h3.413a3.091,3.091,0,0,0,3.088-3.088v-3.413a3.091,3.091,0,0,0-3.088-3.088h-3.413a3.091,3.091,0,0,0-3.088,3.088Zm2.988-3.413a.1.1,0,0,1,.1-.1h3.413a.1.1,0,0,1,.1.1v3.413a.1.1,0,0,1-.1.1h-3.413a.1.1,0,0,1-.1-.1Z" transform="translate(-96.165 -252.059)"/>
          <path id="Trazado_626650" data-name="Trazado 626650" d="M182.236,321.268a3.091,3.091,0,0,0,3.088,3.088h3.413a3.091,3.091,0,0,0,3.088-3.088v-3.413a3.091,3.091,0,0,0-3.088-3.088h-3.413a3.091,3.091,0,0,0-3.088,3.088Zm2.988-3.413a.1.1,0,0,1,.1-.1h3.413a.1.1,0,0,1,.1.1v3.413a.1.1,0,0,1-.1.1h-3.413a.1.1,0,0,1-.1-.1Z" transform="translate(-149.23 -252.059)"/>
          <path id="Trazado_626651" data-name="Trazado 626651" d="M105.363,58.372V14.7A8.1,8.1,0,0,0,97.268,6.6H85.556V5.62a5.62,5.62,0,1,0-11.239,0V6.6H47.6V5.62a5.62,5.62,0,0,0-11.239,0V6.6H24.653A8.1,8.1,0,0,0,16.558,14.7V38.111a1.494,1.494,0,0,0,2.988,0V32.692h82.828v22.8a26.2,26.2,0,0,0-30.02-2.319V52.65a3.148,3.148,0,0,0-3.144-3.144h-3.3a3.148,3.148,0,0,0-3.144,3.144v3.3a3.146,3.146,0,0,0,2.707,3.11,26.127,26.127,0,0,0-6.006,16.692c0,.052,0,.1,0,.156H24.653A5.112,5.112,0,0,1,19.546,70.8V44.087a1.494,1.494,0,1,0-2.988,0V77.4A8.1,8.1,0,0,0,24.653,85.5h3.615a1.494,1.494,0,1,0,0-2.988H24.653A5.112,5.112,0,0,1,19.546,77.4v-.326a8.056,8.056,0,0,0,5.107,1.82h35a26.084,26.084,0,0,0,.694,3.613H34.244a1.494,1.494,0,1,0,0,2.988h27.1a26.243,26.243,0,1,0,44.02-27.126ZM77.305,5.62a2.631,2.631,0,0,1,5.263,0v8.251a2.631,2.631,0,1,1-5.263,0Zm-37.957,0a2.631,2.631,0,0,1,5.263,0v8.251a2.631,2.631,0,1,1-5.263,0Zm-14.7,3.969H36.36V13.2H34.554a1.494,1.494,0,1,0,0,2.988h2.309a5.616,5.616,0,0,0,10.233,0h2.309a1.494,1.494,0,0,0,0-2.988H47.6V9.589H74.317V13.2H72.511a1.494,1.494,0,0,0,0,2.988H74.82a5.616,5.616,0,0,0,10.233,0h2.309a1.494,1.494,0,1,0,0-2.988H85.556V9.589H97.268a5.112,5.112,0,0,1,5.107,5.106V23.1H19.546V14.7a5.112,5.112,0,0,1,5.106-5.107ZM19.546,29.7V26.091h82.828V29.7ZM65.754,52.65a.156.156,0,0,1,.156-.156h3.3a.156.156,0,0,1,.156.156v2.584q-.53.423-1.037.873H65.91a.156.156,0,0,1-.156-.156v-3.3ZM85.713,99.012a23.259,23.259,0,1,1,23.259-23.259A23.285,23.285,0,0,1,85.713,99.012Z" transform="translate(-16.558 0)"/>
          <path id="Trazado_626652" data-name="Trazado 626652" d="M284.721,281.633a19.646,19.646,0,1,0,19.646,19.646A19.668,19.668,0,0,0,284.721,281.633Zm0,36.3a16.658,16.658,0,1,1,16.658-16.658A16.677,16.677,0,0,1,284.721,317.937Z" transform="translate(-215.566 -225.526)"/>
          <path id="Trazado_626653" data-name="Trazado 626653" d="M352.671,326.318h-3.7a4.815,4.815,0,0,0-3.061-3.061v-7a1.494,1.494,0,1,0-2.988,0v7a4.794,4.794,0,1,0,6.049,6.049h3.7a1.494,1.494,0,1,0,0-2.988Zm-8.251,3.3a1.806,1.806,0,1,1,1.806-1.806A1.808,1.808,0,0,1,344.42,329.619Z" transform="translate(-275.265 -252.059)"/>
        </g>
      </g>
    </g>
  </g>
</svg>
