<svg xmlns="http://www.w3.org/2000/svg" width="1240" height="386.427" viewBox="0 0 1240 386.427"><g transform="translate(-180 -2841.35)"><path d="M1283.71,3886.322c-3.453-43.292-38.681-78.268-81.994-81.438a88.613,88.613,0,0,0-64.953,21.585,39.271,39.271,0,0,1-41.8,5.984h0a40.014,40.014,0,0,1-23.416-35.916q-.055-2.475-.247-4.976c-3.358-43.724-39.123-78.988-82.887-81.773a89.038,89.038,0,0,0-94.73,88.76v.229a35.74,35.74,0,0,1-21.146,32.67l-4.724,2.114c-12.578,5.627-27.5,3.68-37.669-5.618a89.264,89.264,0,0,0-22.465-14.99c-.087-.04-.172-.083-.26-.124-.915-.424-1.842-.825-2.773-1.218-.353-.15-.7-.3-1.057-.448-.728-.3-1.464-.575-2.2-.852-.574-.217-1.146-.434-1.725-.639s-1.148-.39-1.725-.581c-.757-.25-1.516-.5-2.282-.725-.445-.133-.894-.259-1.342-.386-.9-.255-1.807-.5-2.72-.727-.357-.088-.716-.172-1.075-.256q-1.5-.353-3.009-.655c-.32-.063-.64-.123-.961-.183q-1.547-.289-3.11-.524-.512-.077-1.024-.147-1.493-.205-3-.359c-.433-.045-.866-.088-1.3-.126-.41-.036-.817-.089-1.229-.119s-.844-.035-1.267-.06q-1.123-.069-2.252-.108-1.057-.036-2.108-.05c-.356,0-.709-.026-1.065-.026-.478,0-.95.026-1.426.033-.613.01-1.225.02-1.834.043-.9.032-1.8.086-2.7.146-.533.035-1.067.066-1.6.111-1.01.085-2.013.2-3.013.316-.413.049-.828.089-1.239.144-1.231.164-2.451.358-3.665.572-.176.031-.356.055-.531.087a88.134,88.134,0,0,0-12.654,3.3l-.045.017q-2,.684-3.95,1.46c-.1.042-.206.086-.31.128q-1.824.73-3.606,1.538c-.135.061-.267.124-.4.186q-1.75.8-3.458,1.679l-.364.189q-1.74.9-3.434,1.878l-.252.146q-1.781,1.032-3.507,2.144l-.054.034a89.446,89.446,0,0,0-10.527,7.918c-.451.4-.922.759-1.388,1.131a39.321,39.321,0,0,1-40.1,4.614h0a40.016,40.016,0,0,1-23.417-35.916q-.056-2.475-.246-4.976a88.526,88.526,0,0,0-25.6-55.528l-.042-.043q-1.245-1.254-2.542-2.456c-.109-.1-.216-.207-.325-.308-.777-.716-1.569-1.413-2.371-2.1-.206-.178-.408-.358-.616-.534-.718-.606-1.452-1.2-2.189-1.78-.3-.24-.6-.484-.91-.721-.661-.51-1.336-1-2.011-1.5-.4-.289-.791-.581-1.192-.864-.608-.427-1.227-.839-1.846-1.252-.483-.322-.964-.647-1.454-.961-.562-.359-1.134-.7-1.705-1.051s-1.117-.681-1.684-1.009c-.526-.3-1.06-.595-1.592-.889-.624-.344-1.246-.687-1.878-1.016-.5-.261-1.009-.509-1.516-.761-.675-.335-1.351-.67-2.036-.988-.484-.225-.973-.438-1.462-.654-.717-.319-1.435-.634-2.163-.934-.48-.2-.964-.383-1.448-.572-.743-.291-1.486-.578-2.237-.849-.493-.177-.991-.343-1.488-.512-.751-.255-1.5-.507-2.262-.743-.515-.159-1.034-.307-1.553-.457-.749-.217-1.5-.432-2.256-.629-.55-.144-1.106-.274-1.659-.407-.731-.176-1.462-.349-2.2-.506-.6-.127-1.2-.24-1.8-.355-.7-.134-1.409-.268-2.12-.386-.648-.107-1.3-.2-1.953-.292s-1.334-.19-2-.27c-.708-.084-1.42-.151-2.132-.218-.421-.04-.837-.1-1.259-.13-.182-.014-.361-.014-.543-.028-.282-.02-.56-.055-.842-.073-.725-.046-1.44-.052-2.161-.08-.692-.028-1.387-.066-2.076-.078-.933-.016-1.858,0-2.784.013-.721.01-1.445.007-2.162.034-.86.032-1.711.1-2.565.155-.772.051-1.548.088-2.315.159-.733.068-1.457.169-2.186.254-.871.1-1.746.191-2.61.318-.353.052-.7.125-1.05.182a88.11,88.11,0,0,0-11.988,2.778c-.145.045-.295.082-.44.127-1.2.374-2.371.788-3.544,1.21-.27.1-.546.185-.816.285-1.128.419-2.239.874-3.346,1.337-.3.126-.6.241-.9.37-1.094.472-2.17.977-3.241,1.491-.294.141-.591.275-.883.42-1.066.526-2.114,1.081-3.155,1.649-.284.154-.57.3-.852.461-1.042.583-2.065,1.191-3.081,1.813-.263.162-.529.321-.791.485q-1.533.963-3.021,1.988c-.237.162-.475.324-.71.488q-1.509,1.056-2.969,2.173c-.206.157-.411.313-.615.472q-1.486,1.155-2.924,2.371c-.168.142-.334.286-.5.429q-1.473,1.265-2.889,2.59l-.367.349q-1.464,1.388-2.866,2.837c-.071.073-.139.148-.21.221q-1.463,1.528-2.856,3.123l-.026.03a88.53,88.53,0,0,0-21.83,58.578,35.739,35.739,0,0,1-21.144,32.627l-4.725,2.114c-12.578,5.627-27.5,3.68-37.668-5.618a88.76,88.76,0,0,0-118.519-1.235,38.152,38.152,0,0,1-40.739,6.1l-.657-.294a40.061,40.061,0,0,1-23.545-35.97q-.05-2.209-.207-4.441c-3.079-43.419-38.113-78.775-81.506-82.211a89.039,89.039,0,0,0-95.86,95.91c3.449,43.291,38.672,78.269,81.985,81.445a88.613,88.613,0,0,0,64.965-21.584,39.273,39.273,0,0,1,41.8-5.984,40.014,40.014,0,0,1,23.416,35.914,92.16,92.16,0,0,0,.687,9.345,88.951,88.951,0,0,0,177.175-11.354v-.229a35.737,35.737,0,0,1,21.145-32.67l4.725-2.114c12.578-5.627,27.5-3.68,37.668,5.618A89.271,89.271,0,0,0,520.3,3879.17c.089.041.177.085.266.127.92.426,1.851.829,2.787,1.224.345.147.689.3,1.037.439.734.3,1.476.581,2.22.861.569.214,1.138.43,1.712.633s1.155.393,1.735.584c.752.249,1.507.493,2.268.722.452.135.906.263,1.361.391q1.346.381,2.7.723c.362.09.725.174,1.089.26.993.233,1.99.452,2.995.651.323.065.648.125.973.186q1.545.29,3.106.523c.339.051.678.1,1.019.147q1.492.2,3,.359.652.067,1.307.127c.407.035.809.087,1.218.117s.843.036,1.266.061q1.129.069,2.265.108c.7.024,1.4.042,2.1.05.36.005.715.026,1.076.026.485,0,.965-.025,1.448-.033.591-.01,1.182-.019,1.77-.04.925-.033,1.845-.088,2.763-.149.508-.034,1.018-.062,1.524-.1,1.054-.089,2.1-.2,3.144-.329.363-.044.729-.077,1.091-.125a88.361,88.361,0,0,0,12.724-2.651l.2-.062q1.949-.562,3.859-1.213c.165-.056.329-.118.494-.175q1.77-.613,3.507-1.3c.186-.073.37-.15.555-.224q1.716-.69,3.395-1.448l.5-.229q1.731-.8,3.423-1.662l.335-.171q1.833-.949,3.617-1.979l.021-.012a89.4,89.4,0,0,0,13.549-9.6,39.552,39.552,0,0,1,65.555,29.6,91.866,91.866,0,0,0,.686,9.345c.095.763.267,1.5.381,2.258q.2,1.3.437,2.584.571,3.13,1.367,6.179c.055.208.106.417.163.624a89.346,89.346,0,0,0,51.5,58.986c.121.051.241.106.362.157q2.013.837,4.07,1.577c1.162.419,2.333.819,3.515,1.19.964.3,1.931.586,2.908.854q2.418.668,4.885,1.2c.7.149,1.4.283,2.108.415,1.934.367,3.886.679,5.86.916.154.018.3.054.456.071.457.051.909.072,1.365.116.557.055,1.109.127,1.669.171.3.024.6.026.9.047.923.064,1.843.106,2.76.142.777.03,1.552.059,2.325.07.865.011,1.725,0,2.584-.012.812-.012,1.624-.024,2.431-.058s1.6-.09,2.4-.145c.853-.059,1.706-.117,2.552-.2.729-.072,1.452-.164,2.176-.253.9-.111,1.8-.222,2.692-.359.653-.1,1.3-.222,1.947-.337.946-.167,1.893-.335,2.829-.533.569-.12,1.13-.259,1.7-.39,1-.232,2-.466,2.99-.732.473-.127.939-.271,1.409-.406,1.063-.305,2.125-.614,3.172-.957.364-.12.721-.254,1.083-.378,1.139-.39,2.273-.788,3.391-1.222.232-.09.458-.191.689-.283,1.235-.492,2.461-1,3.668-1.545.068-.03.133-.064.2-.095a89.029,89.029,0,0,0,52.244-81.285,35.741,35.741,0,0,1,21.144-32.622l4.725-2.114c12.578-5.627,27.5-3.68,37.668,5.618a88.762,88.762,0,0,0,117.871,1.8,39.748,39.748,0,0,1,42.173-6.309h0a40.02,40.02,0,0,1,23.416,35.917q.055,2.485.249,5c3.328,43.182,38.273,78.216,81.448,81.642A89.036,89.036,0,0,0,1283.71,3886.322Z" transform="translate(136 -814.331)" fill="#ff3c00"/><circle cx="65.726" cy="65.726" r="65.726" transform="translate(198.102 3044.481) rotate(-85.348)" fill="#fff"/><line y1="85.304" transform="translate(481.373 2895.272)" fill="none" stroke="#2c2c2c" stroke-linecap="round" stroke-miterlimit="10" stroke-width="3" stroke-dasharray="0 4"/><line y1="85.304" transform="translate(906.233 2895.272)" fill="none" stroke="#2c2c2c" stroke-linecap="round" stroke-miterlimit="10" stroke-width="3" stroke-dasharray="0 4"/><line y1="85.304" transform="translate(1331.094 2895.272)" fill="none" stroke="#2c2c2c" stroke-linecap="round" stroke-miterlimit="10" stroke-width="3" stroke-dasharray="0 4"/><line y2="84.078" transform="translate(268.943 3084.347)" fill="none" stroke="#2c2c2c" stroke-linecap="round" stroke-miterlimit="10" stroke-width="3" stroke-dasharray="0 4"/><line y2="84.078" transform="translate(693.803 3084.347)" fill="none" stroke="#2c2c2c" stroke-linecap="round" stroke-miterlimit="10" stroke-width="3" stroke-dasharray="0 4"/><line y2="84.078" transform="translate(1118.663 3084.347)" fill="none" stroke="#2c2c2c" stroke-linecap="round" stroke-miterlimit="10" stroke-width="3" stroke-dasharray="0 4"/><circle cx="65.726" cy="65.726" r="65.726" transform="translate(415.646 3013.72)" fill="#fff"/><circle cx="65.726" cy="65.726" r="65.726" transform="translate(618.302 3038.517) rotate(-80.682)" fill="#fff"/><circle cx="65.726" cy="65.726" r="65.726" transform="translate(1043.145 3038.517) rotate(-80.682)" fill="#fff"/><circle cx="65.726" cy="65.726" r="65.726" transform="translate(840.507 3013.72)" fill="#fff"/><circle cx="65.726" cy="65.726" r="65.726" transform="translate(1265.349 3013.72)" fill="#fff"/><g transform="translate(227.156 2942.526)"><path d="M139.19,3775.8a23.557,23.557,0,1,0,16.5,16.5,2.611,2.611,0,1,1,5.037-1.381,28.78,28.78,0,1,1-20.157-20.157,2.611,2.611,0,0,1-1.381,5.037Zm30.579,9.109a2.613,2.613,0,0,0-1.763,3.246,36.522,36.522,0,1,1-24.671-24.671,2.611,2.611,0,1,0,1.483-5.008,41.744,41.744,0,1,0,28.2,28.2,2.614,2.614,0,0,0-3.246-1.763Zm-36.827,3.193a10.567,10.567,0,0,1,1.153.063,2.612,2.612,0,0,0,.57-5.192,15.984,15.984,0,0,0-1.723-.094,15.67,15.67,0,1,0,15.67,15.67,2.611,2.611,0,1,0-5.223,0,10.447,10.447,0,1,1-10.447-10.447Zm13.335-6.581,1.3-13.05a2.6,2.6,0,0,1,.752-1.587l9.356-9.357a2.613,2.613,0,0,1,4.451,1.643l.742,9.442,9.442.742a2.611,2.611,0,0,1,1.642,4.45l-9.356,9.357a2.617,2.617,0,0,1-1.588.752l-13.049,1.3-15.181,15.181a2.612,2.612,0,1,1-3.694-3.693Zm5.421-1.728,9.875-.985,4.69-4.69-6.018-.473a2.612,2.612,0,0,1-2.4-2.4l-.473-6.019-4.69,4.691Z" transform="translate(-91.156 -3756.76)" fill="#992400"/></g><g transform="translate(440.244 3038.309)"><g transform="translate(23.992 23.992)"><path d="M345.373,3910.718a17.137,17.137,0,1,1,17.136-17.137A17.156,17.156,0,0,1,345.373,3910.718Zm0-30.847a13.709,13.709,0,1,0,13.709,13.71A13.724,13.724,0,0,0,345.373,3879.871Z" transform="translate(-328.236 -3876.444)" fill="#992400"/></g><g transform="translate(6.855 6.855)"><path d="M345.373,3927.855a34.274,34.274,0,1,1,34.273-34.274A34.313,34.313,0,0,1,345.373,3927.855Zm0-65.121a30.847,30.847,0,1,0,30.846,30.847A30.882,30.882,0,0,0,345.373,3862.734Z" transform="translate(-311.099 -3859.307)" fill="#992400"/></g><g transform="translate(39.415)"><path d="M345.373,3869.589a1.715,1.715,0,0,1-1.714-1.714v-13.709a1.714,1.714,0,1,1,3.427,0v13.709A1.714,1.714,0,0,1,345.373,3869.589Z" transform="translate(-343.659 -3852.452)" fill="#992400"/></g><g transform="translate(39.415 65.12)"><path d="M345.373,3934.709a1.714,1.714,0,0,1-1.714-1.713v-13.71a1.714,1.714,0,1,1,3.427,0V3933A1.713,1.713,0,0,1,345.373,3934.709Z" transform="translate(-343.659 -3917.572)" fill="#992400"/></g><g transform="translate(0 39.415)"><path d="M319.667,3895.294H305.958a1.714,1.714,0,1,1,0-3.427h13.709a1.714,1.714,0,1,1,0,3.427Z" transform="translate(-304.244 -3891.867)" fill="#992400"/></g><g transform="translate(65.12 39.415)"><path d="M384.787,3895.294H371.078a1.714,1.714,0,1,1,0-3.427h13.709a1.714,1.714,0,1,1,0,3.427Z" transform="translate(-369.364 -3891.867)" fill="#992400"/></g></g><g transform="translate(661.922 2942.466)"><path d="M581.569,3767.334h-7.342v-3.285c0-1.063-1.16-1.546-2.222-1.546h-5.7a8.642,8.642,0,0,0-8.6-5.8,8.792,8.792,0,0,0-8.6,5.8h-5.6c-1.063,0-2.125.483-2.125,1.546v3.285h-7.343a8.211,8.211,0,0,0-8.115,7.825v55.357c0,4.251,3.864,7.342,8.115,7.342h47.532c4.251,0,8.115-3.091,8.115-7.342v-55.357A8.212,8.212,0,0,0,581.569,3767.334Zm-36.325-.966h5.313a2.125,2.125,0,0,0,1.836-1.739,5.6,5.6,0,0,1,5.314-4.348,5.507,5.507,0,0,1,5.216,4.348,2.126,2.126,0,0,0,1.933,1.739h5.506v7.729H545.244Zm40.576,64.148c0,2.126-2.126,3.478-4.251,3.478H534.037c-2.125,0-4.251-1.352-4.251-3.478v-55.357a4.348,4.348,0,0,1,4.251-3.961h7.342v4.927a2.029,2.029,0,0,0,2.126,1.836H572a2.124,2.124,0,0,0,2.222-1.836V3771.2h7.343a4.348,4.348,0,0,1,4.25,3.961v55.357Z" transform="translate(-525.922 -3756.701)" fill="#992400"/><path d="M550.364,3799.891a1.931,1.931,0,0,0-2.705-.1l-6.183,5.893-2.608-2.705a1.934,1.934,0,0,0-2.706-.1,2.03,2.03,0,0,0,0,2.8l3.961,4.057a1.741,1.741,0,0,0,1.353.58,1.93,1.93,0,0,0,1.352-.58l7.536-7.149a1.834,1.834,0,0,0,.111-2.593C550.44,3799.964,550.4,3799.927,550.364,3799.891Z" transform="translate(-525.922 -3756.701)" fill="#992400"/><path d="M578.091,3804.045h-22.22a1.932,1.932,0,0,0,0,3.865h22.22a1.932,1.932,0,0,0,0-3.865Z" transform="translate(-525.922 -3756.701)" fill="#992400"/><path d="M550.364,3784.434a1.932,1.932,0,0,0-2.705-.1l-6.183,5.893-2.608-2.705a1.933,1.933,0,0,0-2.706-.1,2.029,2.029,0,0,0,0,2.8l3.961,4.058a1.74,1.74,0,0,0,1.353.58,1.934,1.934,0,0,0,1.352-.58l7.536-7.149a1.835,1.835,0,0,0,.111-2.594A1.462,1.462,0,0,0,550.364,3784.434Z" transform="translate(-525.922 -3756.701)" fill="#992400"/><path d="M578.091,3788.588h-22.22a1.932,1.932,0,0,0,0,3.864h22.22a1.932,1.932,0,1,0,0-3.864Z" transform="translate(-525.922 -3756.701)" fill="#992400"/><path d="M550.364,3815.348a1.933,1.933,0,0,0-2.705-.1l-6.183,5.893-2.608-2.705a1.934,1.934,0,0,0-2.706-.1,2.03,2.03,0,0,0,0,2.8l3.961,4.058a1.739,1.739,0,0,0,1.353.579,1.93,1.93,0,0,0,1.352-.579l7.536-7.149a1.836,1.836,0,0,0,.111-2.594C550.44,3815.421,550.4,3815.384,550.364,3815.348Z" transform="translate(-525.922 -3756.701)" fill="#992400"/><path d="M578.091,3819.5h-22.22a1.932,1.932,0,0,0,0,3.864h22.22a1.932,1.932,0,1,0,0-3.864Z" transform="translate(-525.922 -3756.701)" fill="#992400"/></g><g transform="translate(863.954 3036.995)"><path d="M791.045,3851.138H734.964a7.017,7.017,0,0,0-7.01,7.01v44.865a7.009,7.009,0,0,0,5.259,6.788l.7-2.714a4.2,4.2,0,0,1-3.156-4.074v-44.865a4.206,4.206,0,0,1,4.206-4.206h56.081a4.206,4.206,0,0,1,4.206,4.206v1.4h2.8v-1.4A7.017,7.017,0,0,0,791.045,3851.138Z" transform="translate(-727.954 -3851.138)" fill="#992400"/><g transform="translate(5.608 5.608)"><rect width="2.804" height="2.804" fill="#992400"/></g><g transform="translate(11.216 5.608)"><rect width="2.804" height="2.804" fill="#992400"/></g><g transform="translate(16.824 5.608)"><rect width="2.804" height="2.804" fill="#992400"/></g><g transform="translate(14.02 22.432)"><path d="M810.263,3928.66l-13.3-13.3a19.4,19.4,0,0,0,1.665-3.937h2.23v-2.8h-1.627a18.888,18.888,0,0,0-1.178-10.047v-13.788h-2.8v8.929a19.687,19.687,0,0,0-2.8-2.911v-11.626h-2.8v9.666a19.491,19.491,0,0,0-2.8-1.339V3873.57h-2.8v13.084a19.352,19.352,0,0,0-2.8-.394v-9.886h-2.8v9.886a19.354,19.354,0,0,0-2.8.394v-4.672h-2.8v5.523a19.487,19.487,0,0,0-2.8,1.339v-8.264h-2.8V3890.8a19.69,19.69,0,0,0-2.8,2.911v-10.331h-2.8v15.19a18.888,18.888,0,0,0-1.178,10.047H741.974v2.8h19.054a19.587,19.587,0,0,0,30.065,10.442l12.981,12.982a1.4,1.4,0,0,0,1.983,0l4.206-4.206A1.4,1.4,0,0,0,810.263,3928.66Zm-30.434-6.019a16.825,16.825,0,1,1,16.824-16.824A16.842,16.842,0,0,1,779.829,3922.641Zm25.237,9.234-11.794-11.794a19.909,19.909,0,0,0,2.11-2.337l11.907,11.907Z" transform="translate(-741.974 -3873.57)" fill="#992400"/></g><g transform="translate(37.855 40.659)"><path d="M779.829,3891.8a14.02,14.02,0,1,0,14.02,14.02A14.02,14.02,0,0,0,779.829,3891.8Zm0,25.236a11.215,11.215,0,0,1-9.7-5.608h19.4A11.215,11.215,0,0,1,779.829,3917.033Zm-10.848-8.412a11.116,11.116,0,0,1,3.838-11.546v8.742h2.8v-10.391a11.238,11.238,0,0,1,2.8-.729v11.12h2.8V3894.7a11.238,11.238,0,0,1,2.8.729v10.391h2.8v-8.742a11.116,11.116,0,0,1,3.838,11.546Z" transform="translate(-765.809 -3891.797)" fill="#992400"/></g><g transform="translate(8.412 11.216)"><path d="M799.457,3862.354H743.376a7.017,7.017,0,0,0-7.01,7.01v44.865a7.017,7.017,0,0,0,7.01,7.01H761.6v-2.8H743.376a4.206,4.206,0,0,1-4.206-4.206v-44.865a4.206,4.206,0,0,1,4.206-4.206h56.081a4.207,4.207,0,0,1,4.207,4.206v44.865a4.212,4.212,0,0,1-1.052,2.782l2.1,1.855a7.006,7.006,0,0,0,1.753-4.637v-44.865A7.018,7.018,0,0,0,799.457,3862.354Z" transform="translate(-736.366 -3862.354)" fill="#992400"/></g><g transform="translate(14.02 16.824)"><rect width="2.804" height="2.804" fill="#992400"/></g><g transform="translate(19.628 16.824)"><rect width="2.804" height="2.804" fill="#992400"/></g><g transform="translate(25.236 16.824)"><rect width="2.804" height="2.804" fill="#992400"/></g><g transform="translate(16.824 46.267)"><rect width="2.804" height="8.412" fill="#992400"/></g><g transform="translate(22.432 37.854)"><rect width="2.804" height="16.824" fill="#992400"/></g><g transform="translate(28.04 42.061)"><rect width="2.804" height="12.618" fill="#992400"/></g></g><g transform="translate(1086.893 2938.769)"><g transform="translate(16.761 60.06)"><path d="M971.844,3813.066h-2.793a1.4,1.4,0,1,0,0,2.793h2.793a1.4,1.4,0,1,0,0-2.793Z" transform="translate(-967.654 -3813.066)" fill="#992400"/></g><g transform="translate(25.142 60.06)"><path d="M1010.953,3813.066H977.431a1.4,1.4,0,0,0,0,2.793h33.522a1.4,1.4,0,1,0,0-2.793Z" transform="translate(-976.035 -3813.066)" fill="#992400"/></g><g transform="translate(16.761 51.68)"><path d="M971.844,3804.686h-2.793a1.4,1.4,0,1,0,0,2.793h2.793a1.4,1.4,0,1,0,0-2.793Z" transform="translate(-967.654 -3804.686)" fill="#992400"/></g><g transform="translate(25.142 51.68)"><path d="M1010.953,3804.686H977.431a1.4,1.4,0,0,0,0,2.793h33.522a1.4,1.4,0,1,0,0-2.793Z" transform="translate(-976.035 -3804.686)" fill="#992400"/></g><g transform="translate(16.761 43.299)"><path d="M971.844,3796.3h-2.793a1.4,1.4,0,0,0,0,2.794h2.793a1.4,1.4,0,0,0,0-2.794Z" transform="translate(-967.654 -3796.305)" fill="#992400"/></g><g transform="translate(25.142 43.299)"><path d="M1010.953,3796.3H977.431a1.4,1.4,0,0,0,0,2.794h33.522a1.4,1.4,0,0,0,0-2.794Z" transform="translate(-976.035 -3796.305)" fill="#992400"/></g><g transform="translate(16.761 34.919)"><path d="M971.844,3787.925h-2.793a1.4,1.4,0,1,0,0,2.793h2.793a1.4,1.4,0,1,0,0-2.793Z" transform="translate(-967.654 -3787.925)" fill="#992400"/></g><g transform="translate(25.142 34.919)"><path d="M1010.953,3787.925H977.431a1.4,1.4,0,0,0,0,2.793h33.522a1.4,1.4,0,1,0,0-2.793Z" transform="translate(-976.035 -3787.925)" fill="#992400"/></g><g transform="translate(16.761 26.538)"><path d="M971.844,3779.544h-2.793a1.4,1.4,0,1,0,0,2.794h2.793a1.4,1.4,0,1,0,0-2.794Z" transform="translate(-967.654 -3779.544)" fill="#992400"/></g><g transform="translate(25.142 26.538)"><path d="M1010.953,3779.544H977.431a1.4,1.4,0,0,0,0,2.794h33.522a1.4,1.4,0,0,0,0-2.794Z" transform="translate(-976.035 -3779.544)" fill="#992400"/></g><path d="M1020.712,3773.869a1.334,1.334,0,0,0-.071-.359c-.016-.044-.027-.088-.046-.131a1.4,1.4,0,0,0-.28-.409l-19.554-19.554a1.4,1.4,0,0,0-.409-.28c-.044-.019-.087-.03-.13-.046a1.392,1.392,0,0,0-.362-.072c-.024,0-.05-.012-.081-.012H960.671a1.4,1.4,0,0,0-1.4,1.4v4.19H952.29a1.4,1.4,0,0,0-1.4,1.4v75.424a1.4,1.4,0,0,0,1.4,1.4h58.663a1.4,1.4,0,0,0,1.4-1.4v-6.984h6.983a1.4,1.4,0,0,0,1.4-1.4v-53.076C1020.73,3773.927,1020.715,3773.9,1020.712,3773.869Zm-19.536-16.094,14.786,14.786h-14.786Zm8.38,76.242H953.687v-72.63h5.587v65.646a1.4,1.4,0,0,0,1.4,1.4h48.885Zm8.381-8.38h-55.87V3755.8h36.315v18.157a1.4,1.4,0,0,0,1.4,1.4h18.158Z" transform="translate(-950.893 -3753.006)" fill="#992400"/><g transform="translate(16.761 12.571)"><path d="M977.431,3765.577h-8.38a1.4,1.4,0,0,0-1.4,1.4v8.38a1.4,1.4,0,0,0,1.4,1.4h8.38a1.4,1.4,0,0,0,1.4-1.4v-8.38A1.4,1.4,0,0,0,977.431,3765.577Zm-1.4,8.38h-5.587v-5.587h5.587Z" transform="translate(-967.654 -3765.577)" fill="#992400"/></g></g><g transform="translate(1291.328 3036.996)"><path d="M1184.3,3881.491h-9.657v-9.658a1.38,1.38,0,0,0-1.38-1.38,12.418,12.418,0,1,0,12.417,12.417A1.379,1.379,0,0,0,1184.3,3881.491Zm-12.417-8.18v8.988l-6.346,6.347a9.636,9.636,0,0,1,6.346-15.335Zm1.38,19.217a9.6,9.6,0,0,1-5.773-1.931l6.347-6.347h8.988A9.672,9.672,0,0,1,1173.264,3892.528Z" transform="translate(-1155.328 -3851.138)" fill="#992400"/><path d="M1178.783,3878.731h11.037a1.379,1.379,0,0,0,1.38-1.379,12.433,12.433,0,0,0-12.417-12.418,1.38,1.38,0,0,0-1.38,1.38v11.038A1.379,1.379,0,0,0,1178.783,3878.731Zm1.379-10.939a9.682,9.682,0,0,1,8.18,8.18h-8.18Z" transform="translate(-1155.328 -3851.138)" fill="#992400"/><path d="M1207.756,3885.63a17.936,17.936,0,1,0,17.936,17.936A17.936,17.936,0,0,0,1207.756,3885.63Zm-6.9,12.417v-7.983a15.117,15.117,0,0,1,2.759-1.087v9.07Zm16.556,2.759v2.76H1198.1v-2.76Zm-5.519-2.759v-9.07a15.131,15.131,0,0,1,2.76,1.087v7.983Zm-2.759-9.587v9.587h-2.76v-9.587c.456-.042.914-.071,1.38-.071S1208.68,3888.418,1209.136,3888.46Zm-11.038,3.407v6.18h-1.379a1.38,1.38,0,0,0-1.38,1.38v5.518a1.38,1.38,0,0,0,1.38,1.38h22.075a1.379,1.379,0,0,0,1.379-1.38v-5.518a1.379,1.379,0,0,0-1.379-1.38h-1.38v-6.18a15.107,15.107,0,0,1,4.465,17.218h-28.245A15.107,15.107,0,0,1,1198.1,3891.867Zm9.658,26.875a15.175,15.175,0,0,1-12.7-6.9h25.408A15.175,15.175,0,0,1,1207.756,3918.742Z" transform="translate(-1155.328 -3851.138)" fill="#992400"/><path d="M1239.035,3926l-5.968-5.968a2.762,2.762,0,0,0-.476-3.236l-3.512-3.511a23.293,23.293,0,0,0-2.007-22.99v-35.013a4.139,4.139,0,0,0-4.139-4.139h-63.466a4.139,4.139,0,0,0-4.139,4.139v52.428a4.139,4.139,0,0,0,4.139,4.139h26.371a23.364,23.364,0,0,0,30.07,13.7q.792-.3,1.563-.65l3.511,3.511a2.718,2.718,0,0,0,3.235.476l5.969,5.969a6.257,6.257,0,1,0,8.849-8.85Zm-79.568-72.1h63.466a1.379,1.379,0,0,1,1.379,1.38v4.139h-66.225v-4.139A1.38,1.38,0,0,1,1159.467,3853.9Zm0,55.188a1.38,1.38,0,0,1-1.38-1.38v-45.53h66.225v24.794a23.528,23.528,0,0,0-6.9-4.753v-15.9a1.38,1.38,0,0,0-1.38-1.38h-5.519a1.38,1.38,0,0,0-1.379,1.38v13.867c-.46-.027-.914-.07-1.38-.07s-.92.043-1.38.07v-5.589a1.379,1.379,0,0,0-1.379-1.379h-5.519a1.379,1.379,0,0,0-1.38,1.379v7.624a23.293,23.293,0,0,0-13.107,26.869Zm55.188-27.935a23.131,23.131,0,0,0-2.76-.651v-12.8h2.76Zm-11.038-.651a23.07,23.07,0,0,0-2.759.651v-5.178h2.759Zm-16.556,23.067a20.7,20.7,0,1,1,20.695,20.7A20.7,20.7,0,0,1,1187.061,3903.566Zm32.95,19.961a23.584,23.584,0,0,0,7.706-7.707l2.923,2.922-7.707,7.707Zm14.6,10.392a3.477,3.477,0,0,1-2.473-1.025l-5.874-5.873,4.948-4.948,5.873,5.873a3.5,3.5,0,0,1-2.474,5.973Z" transform="translate(-1155.328 -3851.138)" fill="#992400"/><path d="M1178.783,3898.047h-16.557a1.379,1.379,0,0,0-1.379,1.38v5.518a1.379,1.379,0,0,0,1.379,1.38h16.557a1.379,1.379,0,0,0,1.379-1.38v-5.518A1.379,1.379,0,0,0,1178.783,3898.047Zm-1.38,5.519h-13.8v-2.76h13.8Z" transform="translate(-1155.328 -3851.138)" fill="#992400"/></g><rect width="182" height="42.488" rx="9" transform="translate(180 3168.481)" fill="#ff3c00"/><rect width="182" height="42.488" rx="9" transform="translate(390 2852.784)" fill="#ff3c00"/><rect width="182" height="42.488" rx="9" transform="translate(602.803 3171.29)" fill="#ff3c00"/><rect width="182" height="54.488" rx="9" transform="translate(818 2841.35)" fill="#ff3c00"/><rect width="182" height="54.488" rx="9" transform="translate(1238 2841.35)" fill="#ff3c00"/><rect width="182" height="56.488" rx="9" transform="translate(1028 3171.289)" fill="#ff3c00"/><path d="M33.145,12.992V17H30.8V5.625h4.438a5.134,5.134,0,0,1,2.254.469,3.454,3.454,0,0,1,1.5,1.332,3.714,3.714,0,0,1,.523,1.965,3.266,3.266,0,0,1-1.145,2.637,4.767,4.767,0,0,1-3.168.965Zm0-1.9h2.094a2.059,2.059,0,0,0,1.418-.437,1.591,1.591,0,0,0,.488-1.25,1.876,1.876,0,0,0-.492-1.352,1.839,1.839,0,0,0-1.359-.531H33.145ZM43.356,17H41.09V5h2.266Zm6.758,0a2.507,2.507,0,0,1-.227-.758,2.732,2.732,0,0,1-2.133.914,3,3,0,0,1-2.059-.719,2.312,2.312,0,0,1-.816-1.812,2.389,2.389,0,0,1,1-2.062,4.915,4.915,0,0,1,2.879-.727h1.039v-.484a1.393,1.393,0,0,0-.3-.937,1.183,1.183,0,0,0-.949-.352,1.345,1.345,0,0,0-.895.273.929.929,0,0,0-.324.75H45.067a2.268,2.268,0,0,1,.453-1.359,3,3,0,0,1,1.281-.98,4.669,4.669,0,0,1,1.859-.355,3.689,3.689,0,0,1,2.48.785,2.747,2.747,0,0,1,.918,2.207v3.664a4.041,4.041,0,0,0,.336,1.82V17Zm-1.867-1.57a1.945,1.945,0,0,0,.922-.223,1.462,1.462,0,0,0,.625-.6V13.156H48.95q-1.7,0-1.8,1.172l-.008.133a.9.9,0,0,0,.3.7A1.153,1.153,0,0,0,48.247,15.43Zm7.625-6.883.07.977a2.951,2.951,0,0,1,2.43-1.133,2.453,2.453,0,0,1,2,.789,3.682,3.682,0,0,1,.672,2.359V17H58.786V11.594a1.465,1.465,0,0,0-.312-1.043,1.4,1.4,0,0,0-1.039-.324,1.553,1.553,0,0,0-1.43.813V17H53.747V8.547Zm10.773,8.609a4.15,4.15,0,0,1-3.027-1.141,4.054,4.054,0,0,1-1.168-3.039v-.219a5.106,5.106,0,0,1,.492-2.277,3.612,3.612,0,0,1,1.395-1.547A3.914,3.914,0,0,1,66.4,8.391a3.508,3.508,0,0,1,2.73,1.094,4.444,4.444,0,0,1,1,3.1v.922H64.739a2.1,2.1,0,0,0,.66,1.328,2,2,0,0,0,1.395.5,2.437,2.437,0,0,0,2.039-.945l1.109,1.242a3.389,3.389,0,0,1-1.375,1.121A4.511,4.511,0,0,1,66.645,17.156Zm-.258-6.945a1.411,1.411,0,0,0-1.09.455,2.357,2.357,0,0,0-.535,1.3H67.9v-.181a1.681,1.681,0,0,0-.406-1.165A1.456,1.456,0,0,0,66.387,10.211ZM76.3,17a2.507,2.507,0,0,1-.227-.758,2.732,2.732,0,0,1-2.133.914,3,3,0,0,1-2.059-.719,2.312,2.312,0,0,1-.816-1.812,2.389,2.389,0,0,1,1-2.062,4.915,4.915,0,0,1,2.879-.727h1.039v-.484a1.393,1.393,0,0,0-.3-.937,1.183,1.183,0,0,0-.949-.352,1.345,1.345,0,0,0-.895.273.929.929,0,0,0-.324.75H71.254a2.268,2.268,0,0,1,.453-1.359,3,3,0,0,1,1.281-.98,4.669,4.669,0,0,1,1.859-.355,3.689,3.689,0,0,1,2.48.785,2.747,2.747,0,0,1,.918,2.207v3.664a4.041,4.041,0,0,0,.336,1.82V17Zm-1.867-1.57a1.945,1.945,0,0,0,.922-.223,1.462,1.462,0,0,0,.625-.6V13.156h-.844q-1.7,0-1.8,1.172l-.008.133a.9.9,0,0,0,.3.7A1.153,1.153,0,0,0,74.434,15.43Zm9.063-.094a1.481,1.481,0,0,0,1.016-.344,1.2,1.2,0,0,0,.406-.914h2.117a2.9,2.9,0,0,1-.469,1.574,3.093,3.093,0,0,1-1.262,1.109,3.949,3.949,0,0,1-1.77.395A3.67,3.67,0,0,1,80.676,16a4.56,4.56,0,0,1-1.047-3.184v-.148a4.508,4.508,0,0,1,1.039-3.117A3.627,3.627,0,0,1,83.52,8.391a3.555,3.555,0,0,1,2.543.9,3.2,3.2,0,0,1,.973,2.4H84.918a1.551,1.551,0,0,0-.406-1.072,1.51,1.51,0,0,0-2.223.163,3.333,3.333,0,0,0-.4,1.866v.235a3.375,3.375,0,0,0,.4,1.878A1.377,1.377,0,0,0,83.5,15.336ZM90.708,17H88.442V8.547h2.266Zm-2.4-10.641a1.112,1.112,0,0,1,.34-.836,1.465,1.465,0,0,1,1.848,0,1.105,1.105,0,0,1,.344.836,1.108,1.108,0,0,1-.348.844,1.448,1.448,0,0,1-1.836,0A1.108,1.108,0,0,1,88.309,6.359ZM92.215,12.7a5.013,5.013,0,0,1,.484-2.242A3.546,3.546,0,0,1,94.094,8.93a4.069,4.069,0,0,1,2.113-.539A3.849,3.849,0,0,1,99,9.438a4.2,4.2,0,0,1,1.207,2.844l.016.578a4.418,4.418,0,0,1-1.086,3.121,4.209,4.209,0,0,1-5.832,0,4.5,4.5,0,0,1-1.09-3.187Zm2.258.16a3.16,3.16,0,0,0,.453,1.843,1.628,1.628,0,0,0,2.578.008,3.457,3.457,0,0,0,.461-2.015A3.128,3.128,0,0,0,97.5,10.86a1.5,1.5,0,0,0-1.3-.649,1.474,1.474,0,0,0-1.281.646A3.516,3.516,0,0,0,94.473,12.856ZM96.653,5h2.461L96.95,7.422H95.114Zm7.039,3.547.07.977a2.951,2.951,0,0,1,2.43-1.133,2.453,2.453,0,0,1,2,.789,3.682,3.682,0,0,1,.672,2.359V17h-2.258V11.594a1.465,1.465,0,0,0-.312-1.043,1.4,1.4,0,0,0-1.039-.324,1.553,1.553,0,0,0-1.43.813V17h-2.258V8.547Z" transform="translate(200.289 3179.29)" fill="#fff"/><path d="M46,17V5.625h3.5a5.315,5.315,0,0,1,2.684.676,4.712,4.712,0,0,1,1.848,1.922,5.928,5.928,0,0,1,.664,2.832v.523a5.945,5.945,0,0,1-.652,2.82,4.672,4.672,0,0,1-1.84,1.914,5.355,5.355,0,0,1-2.68.688Zm2.344-9.477v7.594h1.133a2.545,2.545,0,0,0,2.1-.9,4.06,4.06,0,0,0,.742-2.57v-.6A4.124,4.124,0,0,0,51.6,8.418a2.537,2.537,0,0,0-2.1-.895ZM58.633,17H56.368V8.547h2.266Zm-2.4-10.641a1.112,1.112,0,0,1,.34-.836,1.465,1.465,0,0,1,1.848,0,1.105,1.105,0,0,1,.344.836,1.108,1.108,0,0,1-.348.844,1.448,1.448,0,0,1-1.836,0A1.108,1.108,0,0,1,56.235,6.359Zm8.836,8.3a.727.727,0,0,0-.41-.652,4.659,4.659,0,0,0-1.316-.426q-3.016-.633-3.016-2.562a2.323,2.323,0,0,1,.934-1.879A3.766,3.766,0,0,1,63.7,8.391a4.053,4.053,0,0,1,2.574.758,2.388,2.388,0,0,1,.965,1.969H64.985a1.092,1.092,0,0,0-.312-.8A1.322,1.322,0,0,0,63.7,10a1.351,1.351,0,0,0-.883.258.814.814,0,0,0-.312.656.7.7,0,0,0,.355.605,3.657,3.657,0,0,0,1.2.4,9.8,9.8,0,0,1,1.422.379,2.336,2.336,0,0,1,1.789,2.273,2.2,2.2,0,0,1-.992,1.871,4.28,4.28,0,0,1-2.562.715,4.47,4.47,0,0,1-1.887-.379,3.166,3.166,0,0,1-1.293-1.039,2.414,2.414,0,0,1-.469-1.426H62.2a1.179,1.179,0,0,0,.445.922,1.766,1.766,0,0,0,1.109.32,1.635,1.635,0,0,0,.98-.246A.766.766,0,0,0,65.071,14.664Zm7.539,2.492a4.15,4.15,0,0,1-3.027-1.141,4.054,4.054,0,0,1-1.168-3.039v-.219a5.106,5.106,0,0,1,.492-2.277A3.612,3.612,0,0,1,70.3,8.934a3.914,3.914,0,0,1,2.059-.543,3.508,3.508,0,0,1,2.73,1.094,4.444,4.444,0,0,1,1,3.1v.922H70.7a2.1,2.1,0,0,0,.66,1.328,2,2,0,0,0,1.395.5,2.437,2.437,0,0,0,2.039-.945l1.109,1.242a3.389,3.389,0,0,1-1.375,1.121A4.511,4.511,0,0,1,72.61,17.156Zm-.258-6.945a1.411,1.411,0,0,0-1.09.455,2.357,2.357,0,0,0-.535,1.3h3.141v-.181a1.681,1.681,0,0,0-.406-1.165A1.456,1.456,0,0,0,72.352,10.211Zm7.094-1.664.07.977a2.951,2.951,0,0,1,2.43-1.133,2.453,2.453,0,0,1,2,.789,3.682,3.682,0,0,1,.672,2.359V17H82.36V11.594a1.465,1.465,0,0,0-.312-1.043,1.4,1.4,0,0,0-1.039-.324,1.553,1.553,0,0,0-1.43.813V17H77.321V8.547ZM83.93,5.1a2.187,2.187,0,0,1-.516,1.48,1.6,1.6,0,0,1-1.258.6,1.908,1.908,0,0,1-.527-.066,3.539,3.539,0,0,1-.637-.285,3.435,3.435,0,0,0-.586-.27,1.432,1.432,0,0,0-.391-.051.627.627,0,0,0-.465.2.759.759,0,0,0-.191.555L78.047,7.18A2.22,2.22,0,0,1,78.559,5.7a1.578,1.578,0,0,1,1.254-.609,1.614,1.614,0,0,1,.441.059,4.86,4.86,0,0,1,.676.285,4.392,4.392,0,0,0,.648.273,1.48,1.48,0,0,0,.375.047.659.659,0,0,0,.473-.191.728.728,0,0,0,.2-.551ZM85.977,12.7a5.013,5.013,0,0,1,.484-2.242A3.546,3.546,0,0,1,87.856,8.93a4.069,4.069,0,0,1,2.113-.539,3.849,3.849,0,0,1,2.793,1.047,4.2,4.2,0,0,1,1.207,2.844l.016.578A4.418,4.418,0,0,1,92.9,15.98a4.209,4.209,0,0,1-5.832,0,4.5,4.5,0,0,1-1.09-3.187Zm2.258.16a3.16,3.16,0,0,0,.453,1.843,1.628,1.628,0,0,0,2.578.008,3.457,3.457,0,0,0,.461-2.015,3.128,3.128,0,0,0-.461-1.831,1.5,1.5,0,0,0-1.3-.649,1.474,1.474,0,0,0-1.281.646A3.516,3.516,0,0,0,88.235,12.856Z" transform="translate(410.289 2863.593)" fill="#fff"/><path d="M14.915,7.523H11.43V17H9.086V7.523H5.649v-1.9h9.266Zm5.43,3.141a6.134,6.134,0,0,0-.812-.062,1.654,1.654,0,0,0-1.68.867V17H15.594V8.547h2.133l.063,1.008a2.092,2.092,0,0,1,1.883-1.164,2.366,2.366,0,0,1,.7.1ZM26.094,17a2.507,2.507,0,0,1-.227-.758,2.732,2.732,0,0,1-2.133.914,3,3,0,0,1-2.059-.719,2.312,2.312,0,0,1-.816-1.812,2.389,2.389,0,0,1,1-2.062,4.915,4.915,0,0,1,2.879-.727h1.039v-.484a1.393,1.393,0,0,0-.3-.937,1.183,1.183,0,0,0-.949-.352,1.345,1.345,0,0,0-.895.273.929.929,0,0,0-.324.75H21.047A2.268,2.268,0,0,1,21.5,9.727a3,3,0,0,1,1.281-.98,4.669,4.669,0,0,1,1.859-.355,3.689,3.689,0,0,1,2.48.785,2.747,2.747,0,0,1,.918,2.207v3.664a4.041,4.041,0,0,0,.336,1.82V17Zm-1.867-1.57a1.945,1.945,0,0,0,.922-.223,1.462,1.462,0,0,0,.625-.6V13.156H24.93q-1.7,0-1.8,1.172l-.008.133a.9.9,0,0,0,.3.7A1.153,1.153,0,0,0,24.227,15.43Zm13.164-2.578a5.119,5.119,0,0,1-.867,3.168A2.872,2.872,0,0,1,34.1,17.156a2.639,2.639,0,0,1-2.2-1.055l-.1.9H29.774V5h2.258V9.3a2.571,2.571,0,0,1,2.055-.914,2.9,2.9,0,0,1,2.426,1.137,5.126,5.126,0,0,1,.879,3.2Zm-2.258-.164a3.363,3.363,0,0,0-.406-1.871,1.374,1.374,0,0,0-1.211-.59,1.489,1.489,0,0,0-1.484.883v3.336a1.509,1.509,0,0,0,1.5.891,1.394,1.394,0,0,0,1.438-1.078A5.562,5.562,0,0,0,35.133,12.688ZM43.68,17a2.507,2.507,0,0,1-.227-.758,2.732,2.732,0,0,1-2.133.914,3,3,0,0,1-2.059-.719,2.312,2.312,0,0,1-.816-1.812,2.389,2.389,0,0,1,1-2.062,4.915,4.915,0,0,1,2.879-.727H43.36v-.484a1.393,1.393,0,0,0-.3-.937,1.183,1.183,0,0,0-.949-.352,1.345,1.345,0,0,0-.895.273.929.929,0,0,0-.324.75H38.633a2.268,2.268,0,0,1,.453-1.359,3,3,0,0,1,1.281-.98,4.669,4.669,0,0,1,1.859-.355,3.689,3.689,0,0,1,2.48.785,2.747,2.747,0,0,1,.918,2.207v3.664a4.041,4.041,0,0,0,.336,1.82V17Zm-1.867-1.57a1.945,1.945,0,0,0,.922-.223,1.462,1.462,0,0,0,.625-.6V13.156h-.844q-1.7,0-1.8,1.172l-.008.133a.9.9,0,0,0,.3.7A1.153,1.153,0,0,0,41.813,15.43ZM49.75,8.547v8.914a3.024,3.024,0,0,1-.742,2.176,2.821,2.821,0,0,1-2.141.777,4.591,4.591,0,0,1-1.117-.133V18.492a4.238,4.238,0,0,0,.711.07q1.023,0,1.023-1.086V8.547ZM47.305,6.359a1.112,1.112,0,0,1,.34-.836,1.47,1.47,0,0,1,1.852,0,1.112,1.112,0,0,1,.34.836,1.108,1.108,0,0,1-.348.844,1.448,1.448,0,0,1-1.836,0A1.108,1.108,0,0,1,47.305,6.359ZM51.165,12.7a5.013,5.013,0,0,1,.484-2.242A3.546,3.546,0,0,1,53.043,8.93a4.069,4.069,0,0,1,2.113-.539A3.849,3.849,0,0,1,57.95,9.438a4.2,4.2,0,0,1,1.207,2.844l.016.578a4.418,4.418,0,0,1-1.086,3.121,4.209,4.209,0,0,1-5.832,0,4.5,4.5,0,0,1-1.09-3.187Zm2.258.16a3.16,3.16,0,0,0,.453,1.843,1.628,1.628,0,0,0,2.578.008,3.457,3.457,0,0,0,.461-2.015,3.128,3.128,0,0,0-.461-1.831,1.5,1.5,0,0,0-1.3-.649,1.474,1.474,0,0,0-1.281.646A3.516,3.516,0,0,0,53.422,12.856ZM64.2,12.711a5.094,5.094,0,0,1,.887-3.148,2.877,2.877,0,0,1,2.426-1.172,2.589,2.589,0,0,1,2.039.922V5h2.266V17H69.774l-.109-.9a2.657,2.657,0,0,1-2.172,1.055A2.869,2.869,0,0,1,65.1,15.98,5.258,5.258,0,0,1,64.2,12.711Zm2.258.168a3.337,3.337,0,0,0,.414,1.823,1.349,1.349,0,0,0,1.2.634,1.511,1.511,0,0,0,1.477-.884V11.111a1.489,1.489,0,0,0-1.461-.884Q66.454,10.227,66.454,12.879Zm11,4.277a4.15,4.15,0,0,1-3.027-1.141,4.054,4.054,0,0,1-1.168-3.039v-.219a5.106,5.106,0,0,1,.492-2.277,3.612,3.612,0,0,1,1.395-1.547A3.914,3.914,0,0,1,77.2,8.391a3.508,3.508,0,0,1,2.73,1.094,4.444,4.444,0,0,1,1,3.1v.922H75.547a2.1,2.1,0,0,0,.66,1.328,2,2,0,0,0,1.395.5,2.437,2.437,0,0,0,2.039-.945l1.109,1.242a3.389,3.389,0,0,1-1.375,1.121A4.511,4.511,0,0,1,77.454,17.156ZM77.2,10.211a1.411,1.411,0,0,0-1.09.455,2.357,2.357,0,0,0-.535,1.3h3.141v-.181a1.681,1.681,0,0,0-.406-1.165A1.456,1.456,0,0,0,77.2,10.211Zm12.516,5.125a1.481,1.481,0,0,0,1.016-.344,1.2,1.2,0,0,0,.406-.914H93.25a2.9,2.9,0,0,1-.469,1.574,3.093,3.093,0,0,1-1.262,1.109,3.949,3.949,0,0,1-1.77.395A3.67,3.67,0,0,1,86.891,16a4.56,4.56,0,0,1-1.047-3.184v-.148a4.508,4.508,0,0,1,1.039-3.117,3.627,3.627,0,0,1,2.852-1.164,3.555,3.555,0,0,1,2.543.9,3.2,3.2,0,0,1,.973,2.4H91.133a1.551,1.551,0,0,0-.406-1.072,1.51,1.51,0,0,0-2.223.163,3.333,3.333,0,0,0-.4,1.866v.235a3.375,3.375,0,0,0,.4,1.878A1.377,1.377,0,0,0,89.711,15.336ZM99.438,17a2.507,2.507,0,0,1-.227-.758,2.732,2.732,0,0,1-2.133.914,3,3,0,0,1-2.059-.719,2.312,2.312,0,0,1-.816-1.812,2.389,2.389,0,0,1,1-2.062,4.915,4.915,0,0,1,2.879-.727h1.039v-.484a1.393,1.393,0,0,0-.3-.937,1.183,1.183,0,0,0-.949-.352,1.345,1.345,0,0,0-.895.273.929.929,0,0,0-.324.75H94.391a2.268,2.268,0,0,1,.453-1.359,3,3,0,0,1,1.281-.98,4.669,4.669,0,0,1,1.859-.355,3.689,3.689,0,0,1,2.48.785,2.747,2.747,0,0,1,.918,2.207v3.664a4.041,4.041,0,0,0,.336,1.82V17Zm-1.867-1.57a1.945,1.945,0,0,0,.922-.223,1.462,1.462,0,0,0,.625-.6V13.156h-.844q-1.7,0-1.8,1.172l-.008.133a.9.9,0,0,0,.3.7A1.153,1.153,0,0,0,97.571,15.43Zm7.664-6.883.07.945a2.971,2.971,0,0,1,2.43-1.1,2.255,2.255,0,0,1,2.242,1.289,2.9,2.9,0,0,1,2.539-1.289,2.521,2.521,0,0,1,2.047.8,3.681,3.681,0,0,1,.672,2.41V17h-2.266V11.609a1.61,1.61,0,0,0-.281-1.051,1.246,1.246,0,0,0-.992-.332,1.409,1.409,0,0,0-1.406.969L110.3,17H108.04V11.617a1.59,1.59,0,0,0-.289-1.062,1.259,1.259,0,0,0-.984-.328,1.463,1.463,0,0,0-1.391.8V17h-2.258V8.547Zm19.344,4.3a5.07,5.07,0,0,1-.887,3.129,2.843,2.843,0,0,1-2.395,1.176,2.633,2.633,0,0,1-2.07-.891V20.25h-2.258V8.547h2.094l.078.828a2.654,2.654,0,0,1,2.141-.984,2.862,2.862,0,0,1,2.43,1.156,5.207,5.207,0,0,1,.867,3.188Zm-2.258-.164a3.327,3.327,0,0,0-.418-1.82,1.361,1.361,0,0,0-1.215-.641,1.478,1.478,0,0,0-1.461.813V14.5a1.5,1.5,0,0,0,1.477.836Q122.321,15.336,122.321,12.688Zm3.3.008a5.013,5.013,0,0,1,.484-2.242A3.546,3.546,0,0,1,127.5,8.93a4.069,4.069,0,0,1,2.113-.539,3.849,3.849,0,0,1,2.793,1.047,4.2,4.2,0,0,1,1.207,2.844l.016.578a4.418,4.418,0,0,1-1.086,3.121,4.209,4.209,0,0,1-5.832,0,4.5,4.5,0,0,1-1.09-3.187Zm2.258.16a3.16,3.16,0,0,0,.453,1.843,1.628,1.628,0,0,0,2.578.008,3.457,3.457,0,0,0,.461-2.015,3.128,3.128,0,0,0-.461-1.831,1.5,1.5,0,0,0-1.3-.649,1.474,1.474,0,0,0-1.281.646A3.516,3.516,0,0,0,127.883,12.856Z" transform="translate(623.092 3182.099)" fill="#fff"/><path d="M12.778,12.992V17H10.434V5.625h4.438a5.134,5.134,0,0,1,2.254.469,3.454,3.454,0,0,1,1.5,1.332,3.714,3.714,0,0,1,.523,1.965A3.266,3.266,0,0,1,18,12.027a4.767,4.767,0,0,1-3.168.965Zm0-1.9h2.094a2.059,2.059,0,0,0,1.418-.437,1.591,1.591,0,0,0,.488-1.25,1.876,1.876,0,0,0-.492-1.352,1.839,1.839,0,0,0-1.359-.531H12.778Zm12.578-.43a6.134,6.134,0,0,0-.812-.062,1.654,1.654,0,0,0-1.68.867V17H20.606V8.547h2.133L22.8,9.555a2.092,2.092,0,0,1,1.883-1.164,2.366,2.366,0,0,1,.7.1Zm.453,2.031a5.013,5.013,0,0,1,.484-2.242A3.546,3.546,0,0,1,27.688,8.93,4.069,4.069,0,0,1,29.8,8.391a3.849,3.849,0,0,1,2.793,1.047A4.2,4.2,0,0,1,33.8,12.281l.016.578a4.418,4.418,0,0,1-1.086,3.121,3.775,3.775,0,0,1-2.914,1.176A3.793,3.793,0,0,1,26.9,15.984a4.5,4.5,0,0,1-1.09-3.187Zm2.258.16A3.16,3.16,0,0,0,28.52,14.7a1.628,1.628,0,0,0,2.578.008,3.457,3.457,0,0,0,.461-2.015A3.128,3.128,0,0,0,31.1,10.86a1.5,1.5,0,0,0-1.3-.649,1.474,1.474,0,0,0-1.281.646A3.516,3.516,0,0,0,28.067,12.856Zm10.656,2.48a1.481,1.481,0,0,0,1.016-.344,1.2,1.2,0,0,0,.406-.914h2.117a2.9,2.9,0,0,1-.469,1.574,3.093,3.093,0,0,1-1.262,1.109,3.949,3.949,0,0,1-1.77.395A3.67,3.67,0,0,1,35.9,16a4.56,4.56,0,0,1-1.047-3.184v-.148A4.508,4.508,0,0,1,35.9,9.555a3.627,3.627,0,0,1,2.852-1.164,3.555,3.555,0,0,1,2.543.9,3.2,3.2,0,0,1,.973,2.4H40.145a1.551,1.551,0,0,0-.406-1.072,1.51,1.51,0,0,0-2.223.163,3.333,3.333,0,0,0-.4,1.866v.235a3.375,3.375,0,0,0,.4,1.878A1.377,1.377,0,0,0,38.723,15.336Zm8.719,1.82a4.15,4.15,0,0,1-3.027-1.141,4.054,4.054,0,0,1-1.168-3.039v-.219a5.106,5.106,0,0,1,.492-2.277,3.612,3.612,0,0,1,1.395-1.547,3.914,3.914,0,0,1,2.059-.543,3.508,3.508,0,0,1,2.73,1.094,4.444,4.444,0,0,1,1,3.1v.922H45.536a2.1,2.1,0,0,0,.66,1.328,2,2,0,0,0,1.395.5,2.437,2.437,0,0,0,2.039-.945l1.109,1.242a3.389,3.389,0,0,1-1.375,1.121A4.511,4.511,0,0,1,47.442,17.156Zm-.258-6.945a1.411,1.411,0,0,0-1.09.455,2.357,2.357,0,0,0-.535,1.3H48.7v-.181a1.681,1.681,0,0,0-.406-1.165A1.456,1.456,0,0,0,47.184,10.211Zm9.594,4.453a.727.727,0,0,0-.41-.652,4.659,4.659,0,0,0-1.316-.426q-3.016-.633-3.016-2.562a2.323,2.323,0,0,1,.934-1.879,3.766,3.766,0,0,1,2.441-.754,4.053,4.053,0,0,1,2.574.758,2.388,2.388,0,0,1,.965,1.969H56.692a1.092,1.092,0,0,0-.312-.8A1.322,1.322,0,0,0,55.4,10a1.351,1.351,0,0,0-.883.258.814.814,0,0,0-.312.656.7.7,0,0,0,.355.605,3.657,3.657,0,0,0,1.2.4,9.8,9.8,0,0,1,1.422.379,2.336,2.336,0,0,1,1.789,2.273,2.2,2.2,0,0,1-.992,1.871,4.28,4.28,0,0,1-2.562.715,4.47,4.47,0,0,1-1.887-.379,3.166,3.166,0,0,1-1.293-1.039,2.414,2.414,0,0,1-.469-1.426h2.141a1.179,1.179,0,0,0,.445.922,1.766,1.766,0,0,0,1.109.32,1.635,1.635,0,0,0,.98-.246A.766.766,0,0,0,56.778,14.664ZM65.325,17a2.507,2.507,0,0,1-.227-.758,2.732,2.732,0,0,1-2.133.914,3,3,0,0,1-2.059-.719,2.312,2.312,0,0,1-.816-1.812,2.389,2.389,0,0,1,1-2.062,4.915,4.915,0,0,1,2.879-.727H65v-.484a1.393,1.393,0,0,0-.3-.937,1.183,1.183,0,0,0-.949-.352,1.345,1.345,0,0,0-.895.273.929.929,0,0,0-.324.75H60.278a2.268,2.268,0,0,1,.453-1.359,3,3,0,0,1,1.281-.98,4.669,4.669,0,0,1,1.859-.355,3.689,3.689,0,0,1,2.48.785,2.747,2.747,0,0,1,.918,2.207v3.664a4.041,4.041,0,0,0,.336,1.82V17Zm-1.867-1.57a1.945,1.945,0,0,0,.922-.223,1.462,1.462,0,0,0,.625-.6V13.156h-.844q-1.7,0-1.8,1.172l-.008.133a.9.9,0,0,0,.3.7A1.153,1.153,0,0,0,63.458,15.43Zm7.664-6.883.07.945a2.971,2.971,0,0,1,2.43-1.1A2.255,2.255,0,0,1,75.864,9.68,2.9,2.9,0,0,1,78.4,8.391a2.521,2.521,0,0,1,2.047.8,3.681,3.681,0,0,1,.672,2.41V17H78.856V11.609a1.61,1.61,0,0,0-.281-1.051,1.246,1.246,0,0,0-.992-.332,1.409,1.409,0,0,0-1.406.969l.008,5.8H73.926V11.617a1.59,1.59,0,0,0-.289-1.062,1.259,1.259,0,0,0-.984-.328,1.463,1.463,0,0,0-1.391.8V17H69V8.547ZM85.239,17H82.973V8.547h2.266ZM82.84,6.359a1.112,1.112,0,0,1,.34-.836,1.465,1.465,0,0,1,1.848,0,1.105,1.105,0,0,1,.344.836,1.108,1.108,0,0,1-.348.844,1.448,1.448,0,0,1-1.836,0A1.108,1.108,0,0,1,82.84,6.359Zm8.148,10.8a4.15,4.15,0,0,1-3.027-1.141,4.054,4.054,0,0,1-1.168-3.039v-.219a5.106,5.106,0,0,1,.492-2.277A3.612,3.612,0,0,1,88.68,8.934a3.914,3.914,0,0,1,2.059-.543,3.508,3.508,0,0,1,2.73,1.094,4.444,4.444,0,0,1,1,3.1v.922H89.083a2.1,2.1,0,0,0,.66,1.328,2,2,0,0,0,1.395.5,2.437,2.437,0,0,0,2.039-.945l1.109,1.242a3.389,3.389,0,0,1-1.375,1.121A4.511,4.511,0,0,1,90.989,17.156Zm-.258-6.945a1.411,1.411,0,0,0-1.09.455,2.357,2.357,0,0,0-.535,1.3h3.141v-.181a1.681,1.681,0,0,0-.406-1.165A1.456,1.456,0,0,0,90.731,10.211Zm7.094-1.664.07.977a2.951,2.951,0,0,1,2.43-1.133,2.453,2.453,0,0,1,2,.789A3.682,3.682,0,0,1,103,11.539V17h-2.258V11.594a1.465,1.465,0,0,0-.312-1.043,1.4,1.4,0,0,0-1.039-.324,1.553,1.553,0,0,0-1.43.813V17H95.7V8.547Zm9.586-2.078V8.547h1.445V10.2h-1.445v4.219a1.007,1.007,0,0,0,.18.672.9.9,0,0,0,.688.2,3.6,3.6,0,0,0,.664-.055v1.711a4.648,4.648,0,0,1-1.367.2,2.156,2.156,0,0,1-2.422-2.4V10.2h-1.234V8.547h1.234V6.469Zm2.117,6.227a5.013,5.013,0,0,1,.484-2.242,3.546,3.546,0,0,1,1.395-1.523,4.069,4.069,0,0,1,2.113-.539,3.849,3.849,0,0,1,2.793,1.047,4.2,4.2,0,0,1,1.207,2.844l.016.578a4.418,4.418,0,0,1-1.086,3.121,4.209,4.209,0,0,1-5.832,0,4.5,4.5,0,0,1-1.09-3.187Zm2.258.16a3.16,3.16,0,0,0,.453,1.843,1.628,1.628,0,0,0,2.578.008,3.457,3.457,0,0,0,.461-2.015,3.128,3.128,0,0,0-.461-1.831,1.5,1.5,0,0,0-1.3-.649,1.474,1.474,0,0,0-1.281.646A3.516,3.516,0,0,0,111.786,12.856Zm14.281.949,1.563-5.258h2.422l-3.4,9.766-.187.445a2.577,2.577,0,0,1-2.5,1.656,3.552,3.552,0,0,1-1-.148V18.555l.344.008a1.857,1.857,0,0,0,.957-.2,1.283,1.283,0,0,0,.5-.648l.266-.7-2.961-8.477h2.43ZM47.864,41a2.507,2.507,0,0,1-.227-.758,2.732,2.732,0,0,1-2.133.914,3,3,0,0,1-2.059-.719,2.312,2.312,0,0,1-.816-1.812,2.389,2.389,0,0,1,1-2.062,4.915,4.915,0,0,1,2.879-.727h1.039v-.484a1.393,1.393,0,0,0-.3-.937,1.183,1.183,0,0,0-.949-.352,1.345,1.345,0,0,0-.895.273.929.929,0,0,0-.324.75H42.817a2.268,2.268,0,0,1,.453-1.359,3,3,0,0,1,1.281-.98,4.669,4.669,0,0,1,1.859-.355,3.689,3.689,0,0,1,2.48.785,2.747,2.747,0,0,1,.918,2.207v3.664a4.041,4.041,0,0,0,.336,1.82V41ZM46,39.43a1.945,1.945,0,0,0,.922-.223,1.462,1.462,0,0,0,.625-.6V37.156H46.7q-1.7,0-1.8,1.172l-.008.133a.9.9,0,0,0,.3.7A1.153,1.153,0,0,0,46,39.43Zm7.625-6.883.07.977a2.951,2.951,0,0,1,2.43-1.133,2.453,2.453,0,0,1,2,.789,3.682,3.682,0,0,1,.672,2.359V41H56.536V35.594a1.465,1.465,0,0,0-.312-1.043,1.4,1.4,0,0,0-1.039-.324,1.553,1.553,0,0,0-1.43.813V41H51.5V32.547ZM65.4,41a2.507,2.507,0,0,1-.227-.758,2.732,2.732,0,0,1-2.133.914,3,3,0,0,1-2.059-.719,2.312,2.312,0,0,1-.816-1.812,2.389,2.389,0,0,1,1-2.062,4.915,4.915,0,0,1,2.879-.727h1.039v-.484a1.393,1.393,0,0,0-.3-.937,1.183,1.183,0,0,0-.949-.352,1.345,1.345,0,0,0-.895.273.929.929,0,0,0-.324.75H60.356a2.268,2.268,0,0,1,.453-1.359,3,3,0,0,1,1.281-.98,4.669,4.669,0,0,1,1.859-.355,3.689,3.689,0,0,1,2.48.785,2.747,2.747,0,0,1,.918,2.207v3.664a4.041,4.041,0,0,0,.336,1.82V41Zm-1.867-1.57a1.945,1.945,0,0,0,.922-.223,1.462,1.462,0,0,0,.625-.6V37.156h-.844q-1.7,0-1.8,1.172l-.008.133a.9.9,0,0,0,.3.7A1.153,1.153,0,0,0,63.536,39.43ZM64.4,29h2.461l-2.164,2.422H62.856Zm7.07,12H69.2V29h2.266Zm4.242,0H73.442V32.547h2.266Zm-2.4-10.641a1.112,1.112,0,0,1,.34-.836,1.465,1.465,0,0,1,1.848,0,1.193,1.193,0,0,1,0,1.68,1.448,1.448,0,0,1-1.836,0A1.108,1.108,0,0,1,73.309,30.359Zm8.836,8.3a.727.727,0,0,0-.41-.652,4.659,4.659,0,0,0-1.316-.426Q77.4,36.953,77.4,35.023a2.323,2.323,0,0,1,.934-1.879,3.766,3.766,0,0,1,2.441-.754,4.053,4.053,0,0,1,2.574.758,2.388,2.388,0,0,1,.965,1.969H82.059a1.092,1.092,0,0,0-.312-.8A1.322,1.322,0,0,0,80.77,34a1.351,1.351,0,0,0-.883.258.814.814,0,0,0-.312.656.7.7,0,0,0,.355.605,3.657,3.657,0,0,0,1.2.4,9.8,9.8,0,0,1,1.422.379A2.336,2.336,0,0,1,84.34,38.57a2.2,2.2,0,0,1-.992,1.871,4.28,4.28,0,0,1-2.562.715,4.47,4.47,0,0,1-1.887-.379,3.166,3.166,0,0,1-1.293-1.039,2.414,2.414,0,0,1-.469-1.426h2.141a1.179,1.179,0,0,0,.445.922,1.766,1.766,0,0,0,1.109.32,1.635,1.635,0,0,0,.98-.246A.766.766,0,0,0,82.145,38.664ZM88.176,41H85.911V32.547h2.266Zm-2.4-10.641a1.112,1.112,0,0,1,.34-.836,1.465,1.465,0,0,1,1.848,0,1.193,1.193,0,0,1,0,1.68,1.448,1.448,0,0,1-1.836,0A1.108,1.108,0,0,1,85.778,30.359Zm8.836,8.3a.727.727,0,0,0-.41-.652,4.659,4.659,0,0,0-1.316-.426q-3.016-.633-3.016-2.562a2.323,2.323,0,0,1,.934-1.879,3.766,3.766,0,0,1,2.441-.754,4.053,4.053,0,0,1,2.574.758,2.388,2.388,0,0,1,.965,1.969H94.528a1.092,1.092,0,0,0-.312-.8A1.322,1.322,0,0,0,93.239,34a1.351,1.351,0,0,0-.883.258.814.814,0,0,0-.312.656.7.7,0,0,0,.355.605,3.657,3.657,0,0,0,1.2.4,9.8,9.8,0,0,1,1.422.379,2.336,2.336,0,0,1,1.789,2.273,2.2,2.2,0,0,1-.992,1.871,4.28,4.28,0,0,1-2.562.715,4.47,4.47,0,0,1-1.887-.379,3.166,3.166,0,0,1-1.293-1.039,2.414,2.414,0,0,1-.469-1.426h2.141a1.179,1.179,0,0,0,.445.922,1.766,1.766,0,0,0,1.109.32,1.635,1.635,0,0,0,.98-.246A.766.766,0,0,0,94.614,38.664Z" transform="translate(838.289 2844.594)" fill="#fff"/><path d="M12.551,12.992V17H10.208V5.625h4.438a5.134,5.134,0,0,1,2.254.469,3.454,3.454,0,0,1,1.5,1.332,3.714,3.714,0,0,1,.523,1.965,3.266,3.266,0,0,1-1.145,2.637,4.767,4.767,0,0,1-3.168.965Zm0-1.9h2.094a2.059,2.059,0,0,0,1.418-.437,1.591,1.591,0,0,0,.488-1.25,1.876,1.876,0,0,0-.492-1.352A1.839,1.839,0,0,0,14.7,7.523H12.551Zm12.578-.43a6.134,6.134,0,0,0-.812-.062,1.654,1.654,0,0,0-1.68.867V17H20.379V8.547h2.133l.063,1.008a2.092,2.092,0,0,1,1.883-1.164,2.366,2.366,0,0,1,.7.1Zm4.977,6.492a4.15,4.15,0,0,1-3.027-1.141,4.054,4.054,0,0,1-1.168-3.039v-.219A5.106,5.106,0,0,1,26.4,10.48,3.612,3.612,0,0,1,27.8,8.934a3.914,3.914,0,0,1,2.059-.543,3.508,3.508,0,0,1,2.73,1.094,4.444,4.444,0,0,1,1,3.1v.922H28.2a2.1,2.1,0,0,0,.66,1.328,2,2,0,0,0,1.395.5,2.437,2.437,0,0,0,2.039-.945L33.4,15.633a3.389,3.389,0,0,1-1.375,1.121A4.511,4.511,0,0,1,30.106,17.156Zm-.258-6.945a1.411,1.411,0,0,0-1.09.455,2.357,2.357,0,0,0-.535,1.3h3.141v-.181a1.681,1.681,0,0,0-.406-1.165A1.456,1.456,0,0,0,29.848,10.211Zm9.594,4.453a.727.727,0,0,0-.41-.652,4.659,4.659,0,0,0-1.316-.426Q34.7,12.953,34.7,11.023a2.323,2.323,0,0,1,.934-1.879,3.766,3.766,0,0,1,2.441-.754,4.053,4.053,0,0,1,2.574.758,2.388,2.388,0,0,1,.965,1.969H39.356a1.092,1.092,0,0,0-.312-.8A1.322,1.322,0,0,0,38.067,10a1.351,1.351,0,0,0-.883.258.814.814,0,0,0-.312.656.7.7,0,0,0,.355.605,3.657,3.657,0,0,0,1.2.4,9.8,9.8,0,0,1,1.422.379,2.336,2.336,0,0,1,1.789,2.273,2.2,2.2,0,0,1-.992,1.871,4.28,4.28,0,0,1-2.562.715,4.47,4.47,0,0,1-1.887-.379A3.166,3.166,0,0,1,34.9,15.738a2.414,2.414,0,0,1-.469-1.426h2.141a1.179,1.179,0,0,0,.445.922,1.766,1.766,0,0,0,1.109.32,1.635,1.635,0,0,0,.98-.246A.766.766,0,0,0,39.442,14.664Zm7.539,2.492a4.15,4.15,0,0,1-3.027-1.141,4.054,4.054,0,0,1-1.168-3.039v-.219a5.106,5.106,0,0,1,.492-2.277,3.612,3.612,0,0,1,1.395-1.547,3.914,3.914,0,0,1,2.059-.543,3.508,3.508,0,0,1,2.73,1.094,4.444,4.444,0,0,1,1,3.1v.922H45.075a2.1,2.1,0,0,0,.66,1.328,2,2,0,0,0,1.395.5,2.437,2.437,0,0,0,2.039-.945l1.109,1.242A3.389,3.389,0,0,1,48.9,16.754,4.511,4.511,0,0,1,46.981,17.156Zm-.258-6.945a1.411,1.411,0,0,0-1.09.455,2.357,2.357,0,0,0-.535,1.3h3.141v-.181a1.681,1.681,0,0,0-.406-1.165A1.456,1.456,0,0,0,46.723,10.211Zm7.094-1.664.07.977a2.951,2.951,0,0,1,2.43-1.133,2.453,2.453,0,0,1,2,.789,3.682,3.682,0,0,1,.672,2.359V17H56.731V11.594a1.465,1.465,0,0,0-.312-1.043,1.4,1.4,0,0,0-1.039-.324,1.553,1.553,0,0,0-1.43.813V17H51.692V8.547ZM63.4,6.469V8.547h1.445V10.2H63.4v4.219a1.007,1.007,0,0,0,.18.672.9.9,0,0,0,.688.2,3.6,3.6,0,0,0,.664-.055v1.711a4.648,4.648,0,0,1-1.367.2,2.156,2.156,0,0,1-2.422-2.4V10.2H59.911V8.547h1.234V6.469ZM71,17a2.507,2.507,0,0,1-.227-.758,2.732,2.732,0,0,1-2.133.914,3,3,0,0,1-2.059-.719,2.312,2.312,0,0,1-.816-1.812,2.389,2.389,0,0,1,1-2.062,4.915,4.915,0,0,1,2.879-.727h1.039v-.484a1.393,1.393,0,0,0-.3-.937,1.183,1.183,0,0,0-.949-.352,1.345,1.345,0,0,0-.895.273.929.929,0,0,0-.324.75H65.958a2.268,2.268,0,0,1,.453-1.359,3,3,0,0,1,1.281-.98,4.669,4.669,0,0,1,1.859-.355,3.689,3.689,0,0,1,2.48.785,2.747,2.747,0,0,1,.918,2.207v3.664a4.041,4.041,0,0,0,.336,1.82V17Zm-1.867-1.57a1.945,1.945,0,0,0,.922-.223,1.462,1.462,0,0,0,.625-.6V13.156H69.84q-1.7,0-1.8,1.172l-.008.133a.9.9,0,0,0,.3.7A1.153,1.153,0,0,0,69.137,15.43Zm9.063-.094a1.481,1.481,0,0,0,1.016-.344,1.2,1.2,0,0,0,.406-.914h2.117a2.9,2.9,0,0,1-.469,1.574,3.093,3.093,0,0,1-1.262,1.109,3.949,3.949,0,0,1-1.77.395A3.67,3.67,0,0,1,75.379,16a4.56,4.56,0,0,1-1.047-3.184v-.148a4.508,4.508,0,0,1,1.039-3.117,3.627,3.627,0,0,1,2.852-1.164,3.555,3.555,0,0,1,2.543.9,3.2,3.2,0,0,1,.973,2.4H79.622a1.551,1.551,0,0,0-.406-1.072,1.51,1.51,0,0,0-2.223.163,3.333,3.333,0,0,0-.4,1.866v.235a3.375,3.375,0,0,0,.4,1.878A1.377,1.377,0,0,0,78.2,15.336ZM85.411,17H83.145V8.547h2.266Zm-2.4-10.641a1.112,1.112,0,0,1,.34-.836,1.465,1.465,0,0,1,1.848,0,1.105,1.105,0,0,1,.344.836A1.108,1.108,0,0,1,85.2,7.2a1.448,1.448,0,0,1-1.836,0A1.108,1.108,0,0,1,83.012,6.359ZM86.918,12.7a5.013,5.013,0,0,1,.484-2.242A3.546,3.546,0,0,1,88.8,8.93a4.069,4.069,0,0,1,2.113-.539A3.849,3.849,0,0,1,93.7,9.438a4.2,4.2,0,0,1,1.207,2.844l.016.578A4.418,4.418,0,0,1,93.84,15.98a4.209,4.209,0,0,1-5.832,0,4.5,4.5,0,0,1-1.09-3.187Zm2.258.16a3.16,3.16,0,0,0,.453,1.843,1.628,1.628,0,0,0,2.578.008,3.457,3.457,0,0,0,.461-2.015,3.128,3.128,0,0,0-.461-1.831,1.5,1.5,0,0,0-1.3-.649,1.474,1.474,0,0,0-1.281.646A3.516,3.516,0,0,0,89.176,12.856ZM91.356,5h2.461L91.653,7.422H89.817ZM98.4,8.547l.07.977a2.951,2.951,0,0,1,2.43-1.133,2.453,2.453,0,0,1,2,.789,3.682,3.682,0,0,1,.672,2.359V17h-2.258V11.594A1.465,1.465,0,0,0,101,10.551a1.4,1.4,0,0,0-1.039-.324,1.553,1.553,0,0,0-1.43.813V17H96.27V8.547Zm10.516,4.164a5.094,5.094,0,0,1,.887-3.148,2.877,2.877,0,0,1,2.426-1.172,2.589,2.589,0,0,1,2.039.922V5h2.266V17h-2.039l-.109-.9a2.657,2.657,0,0,1-2.172,1.055,2.869,2.869,0,0,1-2.395-1.176A5.258,5.258,0,0,1,108.911,12.711Zm2.258.168a3.337,3.337,0,0,0,.414,1.823,1.349,1.349,0,0,0,1.2.634,1.511,1.511,0,0,0,1.477-.884V11.111a1.489,1.489,0,0,0-1.461-.884Q111.168,10.227,111.168,12.879Zm11,4.277a4.15,4.15,0,0,1-3.027-1.141,4.054,4.054,0,0,1-1.168-3.039v-.219a5.106,5.106,0,0,1,.492-2.277,3.612,3.612,0,0,1,1.395-1.547,3.914,3.914,0,0,1,2.059-.543,3.508,3.508,0,0,1,2.73,1.094,4.444,4.444,0,0,1,1,3.1v.922h-5.383a2.1,2.1,0,0,0,.66,1.328,2,2,0,0,0,1.395.5,2.437,2.437,0,0,0,2.039-.945l1.109,1.242a3.389,3.389,0,0,1-1.375,1.121A4.511,4.511,0,0,1,122.168,17.156Zm-.258-6.945a1.411,1.411,0,0,0-1.09.455,2.357,2.357,0,0,0-.535,1.3h3.141v-.181a1.681,1.681,0,0,0-.406-1.165A1.456,1.456,0,0,0,121.911,10.211Zm7.4,6.789h-2.266V5h2.266ZM44.836,41H42.571V32.547h2.266Zm-2.4-10.641a1.112,1.112,0,0,1,.34-.836,1.465,1.465,0,0,1,1.848,0,1.193,1.193,0,0,1,0,1.68,1.448,1.448,0,0,1-1.836,0A1.108,1.108,0,0,1,42.438,30.359Zm6.336,2.188.07.977a2.951,2.951,0,0,1,2.43-1.133,2.453,2.453,0,0,1,2,.789,3.682,3.682,0,0,1,.672,2.359V41H51.688V35.594a1.465,1.465,0,0,0-.312-1.043,1.4,1.4,0,0,0-1.039-.324,1.553,1.553,0,0,0-1.43.813V41H46.649V32.547ZM56.274,41V34.2H55.016V32.547h1.258v-.719a2.918,2.918,0,0,1,.816-2.207,3.162,3.162,0,0,1,2.285-.785,5.278,5.278,0,0,1,1.148.156l-.023,1.75a2.878,2.878,0,0,0-.687-.07q-1.273,0-1.273,1.2v.68h1.68V34.2H58.54V41Zm4.766-4.3a5.013,5.013,0,0,1,.484-2.242,3.546,3.546,0,0,1,1.395-1.523,4.069,4.069,0,0,1,2.113-.539,3.849,3.849,0,0,1,2.793,1.047,4.2,4.2,0,0,1,1.207,2.844l.016.578a4.418,4.418,0,0,1-1.086,3.121,4.209,4.209,0,0,1-5.832,0A4.5,4.5,0,0,1,61.04,36.8Zm2.258.16A3.16,3.16,0,0,0,63.75,38.7a1.628,1.628,0,0,0,2.578.008,3.457,3.457,0,0,0,.461-2.015,3.128,3.128,0,0,0-.461-1.831,1.5,1.5,0,0,0-1.3-.649,1.474,1.474,0,0,0-1.281.646A3.516,3.516,0,0,0,63.3,36.856Zm11.891-2.192a6.134,6.134,0,0,0-.812-.062,1.654,1.654,0,0,0-1.68.867V41H70.438V32.547h2.133l.063,1.008a2.092,2.092,0,0,1,1.883-1.164,2.366,2.366,0,0,1,.7.1Zm3.2-2.117.07.945a2.971,2.971,0,0,1,2.43-1.1,2.255,2.255,0,0,1,2.242,1.289,2.9,2.9,0,0,1,2.539-1.289,2.521,2.521,0,0,1,2.047.8,3.681,3.681,0,0,1,.672,2.41V41H86.125V35.609a1.61,1.61,0,0,0-.281-1.051,1.246,1.246,0,0,0-.992-.332,1.409,1.409,0,0,0-1.406.969l.008,5.8H81.2V35.617a1.59,1.59,0,0,0-.289-1.062,1.259,1.259,0,0,0-.984-.328,1.463,1.463,0,0,0-1.391.8V41H76.274V32.547Zm15.625,8.609a4.15,4.15,0,0,1-3.027-1.141,4.054,4.054,0,0,1-1.168-3.039v-.219a5.106,5.106,0,0,1,.492-2.277,3.612,3.612,0,0,1,1.395-1.547,3.914,3.914,0,0,1,2.059-.543,3.508,3.508,0,0,1,2.73,1.094,4.444,4.444,0,0,1,1,3.1v.922H92.11a2.1,2.1,0,0,0,.66,1.328,2,2,0,0,0,1.395.5,2.437,2.437,0,0,0,2.039-.945l1.109,1.242a3.389,3.389,0,0,1-1.375,1.121A4.511,4.511,0,0,1,94.016,41.156Zm-.258-6.945a1.411,1.411,0,0,0-1.09.455,2.357,2.357,0,0,0-.535,1.3h3.141v-.181a1.681,1.681,0,0,0-.406-1.165A1.456,1.456,0,0,0,93.758,34.211Z" transform="translate(1258.288 2845.537)" fill="#fff"/><path d="M22.336,12.07h-4.5v3.047h5.281V17H15.493V5.625H23.1v1.9H17.836v2.711h4.5ZM26.727,17H24.461V5h2.266Zm6.758,0a2.507,2.507,0,0,1-.227-.758,2.732,2.732,0,0,1-2.133.914,3,3,0,0,1-2.059-.719,2.312,2.312,0,0,1-.816-1.812,2.389,2.389,0,0,1,1-2.062,4.915,4.915,0,0,1,2.879-.727h1.039v-.484a1.393,1.393,0,0,0-.3-.937,1.183,1.183,0,0,0-.949-.352,1.345,1.345,0,0,0-.895.273.929.929,0,0,0-.324.75H28.438a2.268,2.268,0,0,1,.453-1.359,3,3,0,0,1,1.281-.98,4.669,4.669,0,0,1,1.859-.355,3.689,3.689,0,0,1,2.48.785,2.747,2.747,0,0,1,.918,2.207v3.664a4.041,4.041,0,0,0,.336,1.82V17Zm-1.867-1.57a1.945,1.945,0,0,0,.922-.223,1.462,1.462,0,0,0,.625-.6V13.156h-.844q-1.7,0-1.8,1.172l-.008.133a.9.9,0,0,0,.3.7A1.153,1.153,0,0,0,31.618,15.43Zm13.164-2.578a5.119,5.119,0,0,1-.867,3.168,2.872,2.872,0,0,1-2.422,1.137A2.639,2.639,0,0,1,39.3,16.1l-.1.9H37.165V5h2.258V9.3a2.571,2.571,0,0,1,2.055-.914A2.9,2.9,0,0,1,43.9,9.527a5.126,5.126,0,0,1,.879,3.2Zm-2.258-.164a3.363,3.363,0,0,0-.406-1.871,1.374,1.374,0,0,0-1.211-.59,1.489,1.489,0,0,0-1.484.883v3.336a1.509,1.509,0,0,0,1.5.891,1.394,1.394,0,0,0,1.438-1.078A5.562,5.562,0,0,0,42.524,12.688Zm3.3.008a5.013,5.013,0,0,1,.484-2.242A3.546,3.546,0,0,1,47.7,8.93a4.069,4.069,0,0,1,2.113-.539,3.849,3.849,0,0,1,2.793,1.047,4.2,4.2,0,0,1,1.207,2.844l.016.578a4.418,4.418,0,0,1-1.086,3.121,4.209,4.209,0,0,1-5.832,0,4.5,4.5,0,0,1-1.09-3.187Zm2.258.16a3.16,3.16,0,0,0,.453,1.843,1.628,1.628,0,0,0,2.578.008,3.457,3.457,0,0,0,.461-2.015,3.128,3.128,0,0,0-.461-1.831,1.5,1.5,0,0,0-1.3-.649,1.474,1.474,0,0,0-1.281.646A3.516,3.516,0,0,0,48.079,12.856Zm11.891-2.192a6.134,6.134,0,0,0-.812-.062,1.654,1.654,0,0,0-1.68.867V17H55.219V8.547h2.133l.063,1.008A2.092,2.092,0,0,1,59.3,8.391a2.366,2.366,0,0,1,.7.1ZM65.719,17a2.507,2.507,0,0,1-.227-.758,2.732,2.732,0,0,1-2.133.914,3,3,0,0,1-2.059-.719,2.312,2.312,0,0,1-.816-1.812,2.389,2.389,0,0,1,1-2.062,4.915,4.915,0,0,1,2.879-.727H65.4v-.484a1.393,1.393,0,0,0-.3-.937,1.183,1.183,0,0,0-.949-.352,1.345,1.345,0,0,0-.895.273.929.929,0,0,0-.324.75H60.672a2.268,2.268,0,0,1,.453-1.359,3,3,0,0,1,1.281-.98,4.669,4.669,0,0,1,1.859-.355,3.689,3.689,0,0,1,2.48.785,2.747,2.747,0,0,1,.918,2.207v3.664A4.041,4.041,0,0,0,68,16.867V17Zm-1.867-1.57a1.945,1.945,0,0,0,.922-.223,1.462,1.462,0,0,0,.625-.6V13.156h-.844q-1.7,0-1.8,1.172l-.008.133a.9.9,0,0,0,.3.7A1.153,1.153,0,0,0,63.852,15.43Zm9.063-.094a1.481,1.481,0,0,0,1.016-.344,1.2,1.2,0,0,0,.406-.914h2.117a2.9,2.9,0,0,1-.469,1.574,3.093,3.093,0,0,1-1.262,1.109,3.949,3.949,0,0,1-1.77.395A3.67,3.67,0,0,1,70.094,16a4.56,4.56,0,0,1-1.047-3.184v-.148a4.508,4.508,0,0,1,1.039-3.117,3.627,3.627,0,0,1,2.852-1.164,3.555,3.555,0,0,1,2.543.9,3.2,3.2,0,0,1,.973,2.4H74.336a1.551,1.551,0,0,0-.406-1.072,1.51,1.51,0,0,0-2.223.163,3.333,3.333,0,0,0-.4,1.866v.235a3.375,3.375,0,0,0,.4,1.878A1.377,1.377,0,0,0,72.915,15.336ZM80.125,17H77.86V8.547h2.266Zm-2.4-10.641a1.112,1.112,0,0,1,.34-.836,1.465,1.465,0,0,1,1.848,0,1.105,1.105,0,0,1,.344.836,1.108,1.108,0,0,1-.348.844,1.448,1.448,0,0,1-1.836,0A1.108,1.108,0,0,1,77.727,6.359ZM81.633,12.7a5.013,5.013,0,0,1,.484-2.242A3.546,3.546,0,0,1,83.512,8.93a4.069,4.069,0,0,1,2.113-.539,3.849,3.849,0,0,1,2.793,1.047,4.2,4.2,0,0,1,1.207,2.844l.016.578a4.418,4.418,0,0,1-1.086,3.121,4.209,4.209,0,0,1-5.832,0,4.5,4.5,0,0,1-1.09-3.187Zm2.258.16a3.16,3.16,0,0,0,.453,1.843,1.628,1.628,0,0,0,2.578.008,3.457,3.457,0,0,0,.461-2.015,3.128,3.128,0,0,0-.461-1.831,1.5,1.5,0,0,0-1.3-.649,1.474,1.474,0,0,0-1.281.646A3.516,3.516,0,0,0,83.891,12.856ZM86.071,5h2.461L86.368,7.422H84.532ZM93.11,8.547l.07.977a2.951,2.951,0,0,1,2.43-1.133,2.453,2.453,0,0,1,2,.789,3.682,3.682,0,0,1,.672,2.359V17H96.024V11.594a1.465,1.465,0,0,0-.312-1.043,1.4,1.4,0,0,0-1.039-.324,1.553,1.553,0,0,0-1.43.813V17H90.985V8.547Zm10.516,4.164a5.094,5.094,0,0,1,.887-3.148,2.877,2.877,0,0,1,2.426-1.172,2.589,2.589,0,0,1,2.039.922V5h2.266V17H109.2l-.109-.9a2.657,2.657,0,0,1-2.172,1.055,2.869,2.869,0,0,1-2.395-1.176A5.258,5.258,0,0,1,103.625,12.711Zm2.258.168A3.337,3.337,0,0,0,106.3,14.7a1.349,1.349,0,0,0,1.2.634,1.511,1.511,0,0,0,1.477-.884V11.111a1.489,1.489,0,0,0-1.461-.884Q105.883,10.227,105.883,12.879Zm11,4.277a4.15,4.15,0,0,1-3.027-1.141,4.054,4.054,0,0,1-1.168-3.039v-.219a5.106,5.106,0,0,1,.492-2.277,3.612,3.612,0,0,1,1.395-1.547,3.914,3.914,0,0,1,2.059-.543,3.508,3.508,0,0,1,2.73,1.094,4.444,4.444,0,0,1,1,3.1v.922h-5.383a2.1,2.1,0,0,0,.66,1.328,2,2,0,0,0,1.395.5,2.437,2.437,0,0,0,2.039-.945l1.109,1.242a3.389,3.389,0,0,1-1.375,1.121A4.511,4.511,0,0,1,116.883,17.156Zm-.258-6.945a1.411,1.411,0,0,0-1.09.455,2.357,2.357,0,0,0-.535,1.3h3.141v-.181a1.681,1.681,0,0,0-.406-1.165A1.456,1.456,0,0,0,116.625,10.211Zm7.4,6.789h-2.266V5h2.266ZM44.836,41H42.571V32.547h2.266Zm-2.4-10.641a1.112,1.112,0,0,1,.34-.836,1.465,1.465,0,0,1,1.848,0,1.193,1.193,0,0,1,0,1.68,1.448,1.448,0,0,1-1.836,0A1.108,1.108,0,0,1,42.438,30.359Zm6.336,2.188.07.977a2.951,2.951,0,0,1,2.43-1.133,2.453,2.453,0,0,1,2,.789,3.682,3.682,0,0,1,.672,2.359V41H51.688V35.594a1.465,1.465,0,0,0-.312-1.043,1.4,1.4,0,0,0-1.039-.324,1.553,1.553,0,0,0-1.43.813V41H46.649V32.547ZM56.274,41V34.2H55.016V32.547h1.258v-.719a2.918,2.918,0,0,1,.816-2.207,3.162,3.162,0,0,1,2.285-.785,5.278,5.278,0,0,1,1.148.156l-.023,1.75a2.878,2.878,0,0,0-.687-.07q-1.273,0-1.273,1.2v.68h1.68V34.2H58.54V41Zm4.766-4.3a5.013,5.013,0,0,1,.484-2.242,3.546,3.546,0,0,1,1.395-1.523,4.069,4.069,0,0,1,2.113-.539,3.849,3.849,0,0,1,2.793,1.047,4.2,4.2,0,0,1,1.207,2.844l.016.578a4.418,4.418,0,0,1-1.086,3.121,4.209,4.209,0,0,1-5.832,0A4.5,4.5,0,0,1,61.04,36.8Zm2.258.16A3.16,3.16,0,0,0,63.75,38.7a1.628,1.628,0,0,0,2.578.008,3.457,3.457,0,0,0,.461-2.015,3.128,3.128,0,0,0-.461-1.831,1.5,1.5,0,0,0-1.3-.649,1.474,1.474,0,0,0-1.281.646A3.516,3.516,0,0,0,63.3,36.856Zm11.891-2.192a6.134,6.134,0,0,0-.812-.062,1.654,1.654,0,0,0-1.68.867V41H70.438V32.547h2.133l.063,1.008a2.092,2.092,0,0,1,1.883-1.164,2.366,2.366,0,0,1,.7.1Zm3.2-2.117.07.945a2.971,2.971,0,0,1,2.43-1.1,2.255,2.255,0,0,1,2.242,1.289,2.9,2.9,0,0,1,2.539-1.289,2.521,2.521,0,0,1,2.047.8,3.681,3.681,0,0,1,.672,2.41V41H86.125V35.609a1.61,1.61,0,0,0-.281-1.051,1.246,1.246,0,0,0-.992-.332,1.409,1.409,0,0,0-1.406.969l.008,5.8H81.2V35.617a1.59,1.59,0,0,0-.289-1.062,1.259,1.259,0,0,0-.984-.328,1.463,1.463,0,0,0-1.391.8V41H76.274V32.547Zm15.625,8.609a4.15,4.15,0,0,1-3.027-1.141,4.054,4.054,0,0,1-1.168-3.039v-.219a5.106,5.106,0,0,1,.492-2.277,3.612,3.612,0,0,1,1.395-1.547,3.914,3.914,0,0,1,2.059-.543,3.508,3.508,0,0,1,2.73,1.094,4.444,4.444,0,0,1,1,3.1v.922H92.11a2.1,2.1,0,0,0,.66,1.328,2,2,0,0,0,1.395.5,2.437,2.437,0,0,0,2.039-.945l1.109,1.242a3.389,3.389,0,0,1-1.375,1.121A4.511,4.511,0,0,1,94.016,41.156Zm-.258-6.945a1.411,1.411,0,0,0-1.09.455,2.357,2.357,0,0,0-.535,1.3h3.141v-.181a1.681,1.681,0,0,0-.406-1.165A1.456,1.456,0,0,0,93.758,34.211Z" transform="translate(1048.288 3177.098)" fill="#fff"/><g transform="translate(317.595 3123.014)"><path d="M22.2,0a22.2,22.2,0,1,0,22.2,22.2A22.2,22.2,0,0,0,22.2,0Z" fill="#3874b7" opacity="0.67"/><path d="M16.3,0A16.3,16.3,0,1,0,32.6,16.3,16.3,16.3,0,0,0,16.3,0Z" transform="translate(5.903 5.903)" fill="#3874b7"/><text transform="matrix(-1, 0, 0, 1, 22.216, 29.905)" fill="#fff" font-size="24" font-family="Roboto-Black, Roboto" font-weight="800"><tspan x="-6.41" y="0">+</tspan></text></g><g transform="translate(535.595 2895.838)"><path d="M22.2,0a22.2,22.2,0,1,0,22.2,22.2A22.2,22.2,0,0,0,22.2,0Z" fill="#3874b7" opacity="0.67"/><path d="M16.3,0A16.3,16.3,0,1,0,32.6,16.3,16.3,16.3,0,0,0,16.3,0Z" transform="translate(5.903 5.903)" fill="#3874b7"/><text transform="matrix(-1, 0, 0, 1, 22.216, 29.905)" fill="#fff" font-size="24" font-family="Roboto-Black, Roboto" font-weight="800"><tspan x="-6.41" y="0">+</tspan></text></g><g transform="translate(745.595 3126.443)"><path d="M22.2,0a22.2,22.2,0,1,0,22.2,22.2A22.2,22.2,0,0,0,22.2,0Z" fill="#3874b7" opacity="0.67"/><path d="M16.3,0A16.3,16.3,0,1,0,32.6,16.3,16.3,16.3,0,0,0,16.3,0Z" transform="translate(5.903 5.903)" fill="#3874b7"/><text transform="matrix(-1, 0, 0, 1, 22.216, 29.905)" fill="#fff" font-size="24" font-family="Roboto-Black, Roboto" font-weight="800"><tspan x="-6.41" y="0">+</tspan></text></g><g transform="translate(1165.595 3126.443)"><path d="M22.2,0a22.2,22.2,0,1,0,22.2,22.2A22.2,22.2,0,0,0,22.2,0Z" fill="#3874b7" opacity="0.67"/><path d="M16.3,0A16.3,16.3,0,1,0,32.6,16.3,16.3,16.3,0,0,0,16.3,0Z" transform="translate(5.903 5.903)" fill="#3874b7"/><text transform="matrix(-1, 0, 0, 1, 22.216, 29.905)" fill="#fff" font-size="24" font-family="Roboto-Black, Roboto" font-weight="800"><tspan x="-6.41" y="0">+</tspan></text></g><g transform="translate(955.595 2895.838)"><path d="M22.2,0a22.2,22.2,0,1,0,22.2,22.2A22.2,22.2,0,0,0,22.2,0Z" fill="#3874b7" opacity="0.67"/><path d="M16.3,0A16.3,16.3,0,1,0,32.6,16.3,16.3,16.3,0,0,0,16.3,0Z" transform="translate(5.903 5.903)" fill="#3874b7"/><text transform="matrix(-1, 0, 0, 1, 22.216, 29.905)" fill="#fff" font-size="24" font-family="Roboto-Black, Roboto" font-weight="800"><tspan x="-6.41" y="0">+</tspan></text></g><g transform="translate(1375.595 2895.838)"><path d="M22.2,0a22.2,22.2,0,1,0,22.2,22.2A22.2,22.2,0,0,0,22.2,0Z" fill="#3874b7" opacity="0.67"/><path d="M16.3,0A16.3,16.3,0,1,0,32.6,16.3,16.3,16.3,0,0,0,16.3,0Z" transform="translate(5.903 5.903)" fill="#3874b7"/><text transform="matrix(-1, 0, 0, 1, 22.216, 29.905)" fill="#fff" font-size="24" font-family="Roboto-Black, Roboto" font-weight="800"><tspan x="-6.41" y="0">+</tspan></text></g></g></svg>