<svg xmlns="http://www.w3.org/2000/svg" width="1240" height="386.136" viewBox="0 0 1240 386.136">
  <g id="Grupo_953305" data-name="Grupo 953305" transform="translate(-180 -2608.35)">
    <path id="Trazado_628310" data-name="Trazado 628310" d="M1283.71,3886.322c-3.453-43.292-38.681-78.268-81.994-81.438a88.613,88.613,0,0,0-64.953,21.585,39.271,39.271,0,0,1-41.8,5.984h0a40.014,40.014,0,0,1-23.416-35.916q-.055-2.475-.247-4.976c-3.358-43.724-39.123-78.988-82.887-81.773a89.038,89.038,0,0,0-94.73,88.76v.229a35.74,35.74,0,0,1-21.146,32.67l-4.724,2.114c-12.578,5.627-27.5,3.68-37.669-5.618a89.264,89.264,0,0,0-22.465-14.99c-.087-.04-.172-.083-.26-.124-.915-.424-1.842-.825-2.773-1.218-.353-.15-.7-.3-1.057-.448-.728-.3-1.464-.575-2.2-.852-.574-.217-1.146-.434-1.725-.639s-1.148-.39-1.725-.581c-.757-.25-1.516-.5-2.282-.725-.445-.133-.894-.259-1.342-.386-.9-.255-1.807-.5-2.72-.727-.357-.088-.716-.172-1.075-.256q-1.5-.353-3.009-.655c-.32-.063-.64-.123-.961-.183q-1.547-.289-3.11-.524-.512-.077-1.024-.147-1.493-.205-3-.359c-.433-.045-.866-.088-1.3-.126-.41-.036-.817-.089-1.229-.119s-.844-.035-1.267-.06q-1.123-.069-2.252-.108-1.057-.036-2.108-.05c-.356,0-.709-.026-1.065-.026-.478,0-.95.026-1.426.033-.613.01-1.225.02-1.834.043-.9.032-1.8.086-2.7.146-.533.035-1.067.066-1.6.111-1.01.085-2.013.2-3.013.316-.413.049-.828.089-1.239.144-1.231.164-2.451.358-3.665.572-.176.031-.356.055-.531.087a88.134,88.134,0,0,0-12.654,3.3l-.045.017q-2,.684-3.95,1.46c-.1.042-.206.086-.31.128q-1.824.73-3.606,1.538c-.135.061-.267.124-.4.186q-1.75.8-3.458,1.679l-.364.189q-1.74.9-3.434,1.878l-.252.146q-1.781,1.032-3.507,2.144l-.054.034a89.446,89.446,0,0,0-10.527,7.918c-.451.4-.922.759-1.388,1.131a39.321,39.321,0,0,1-40.1,4.614h0a40.016,40.016,0,0,1-23.417-35.916q-.056-2.475-.246-4.976a88.526,88.526,0,0,0-25.6-55.528l-.042-.043q-1.245-1.254-2.542-2.456c-.109-.1-.216-.207-.325-.308-.777-.716-1.569-1.413-2.371-2.1-.206-.178-.408-.358-.616-.534-.718-.606-1.452-1.2-2.189-1.78-.3-.24-.6-.484-.91-.721-.661-.51-1.336-1-2.011-1.5-.4-.289-.791-.581-1.192-.864-.608-.427-1.227-.839-1.846-1.252-.483-.322-.964-.647-1.454-.961-.562-.359-1.134-.7-1.705-1.051s-1.117-.681-1.684-1.009c-.526-.3-1.06-.595-1.592-.889-.624-.344-1.246-.687-1.878-1.016-.5-.261-1.009-.509-1.516-.761-.675-.335-1.351-.67-2.036-.988-.484-.225-.973-.438-1.462-.654-.717-.319-1.435-.634-2.163-.934-.48-.2-.964-.383-1.448-.572-.743-.291-1.486-.578-2.237-.849-.493-.177-.991-.343-1.488-.512-.751-.255-1.5-.507-2.262-.743-.515-.159-1.034-.307-1.553-.457-.749-.217-1.5-.432-2.256-.629-.55-.144-1.106-.274-1.659-.407-.731-.176-1.462-.349-2.2-.506-.6-.127-1.2-.24-1.8-.355-.7-.134-1.409-.268-2.12-.386-.648-.107-1.3-.2-1.953-.292s-1.334-.19-2-.27c-.708-.084-1.42-.151-2.132-.218-.421-.04-.837-.1-1.259-.13-.182-.014-.361-.014-.543-.028-.282-.02-.56-.055-.842-.073-.725-.046-1.44-.052-2.161-.08-.692-.028-1.387-.066-2.076-.078-.933-.016-1.858,0-2.784.013-.721.01-1.445.007-2.162.034-.86.032-1.711.1-2.565.155-.772.051-1.548.088-2.315.159-.733.068-1.457.169-2.186.254-.871.1-1.746.191-2.61.318-.353.052-.7.125-1.05.182a88.11,88.11,0,0,0-11.988,2.778c-.145.045-.295.082-.44.127-1.2.374-2.371.788-3.544,1.21-.27.1-.546.185-.816.285-1.128.419-2.239.874-3.346,1.337-.3.126-.6.241-.9.37-1.094.472-2.17.977-3.241,1.491-.294.141-.591.275-.883.42-1.066.526-2.114,1.081-3.155,1.649-.284.154-.57.3-.852.461-1.042.583-2.065,1.191-3.081,1.813-.263.162-.529.321-.791.485q-1.533.963-3.021,1.988c-.237.162-.475.324-.71.488q-1.509,1.056-2.969,2.173c-.206.157-.411.313-.615.472q-1.486,1.155-2.924,2.371c-.168.142-.334.286-.5.429q-1.473,1.265-2.889,2.59l-.367.349q-1.464,1.388-2.866,2.837c-.071.073-.139.148-.21.221q-1.463,1.528-2.856,3.123l-.026.03a88.53,88.53,0,0,0-21.83,58.578,35.739,35.739,0,0,1-21.144,32.627l-4.725,2.114c-12.578,5.627-27.5,3.68-37.668-5.618a88.76,88.76,0,0,0-118.519-1.235,38.152,38.152,0,0,1-40.739,6.1l-.657-.294a40.061,40.061,0,0,1-23.545-35.97q-.05-2.209-.207-4.441c-3.079-43.419-38.113-78.775-81.506-82.211a89.039,89.039,0,0,0-95.86,95.91c3.449,43.291,38.672,78.269,81.985,81.445a88.613,88.613,0,0,0,64.965-21.584,39.273,39.273,0,0,1,41.8-5.984,40.014,40.014,0,0,1,23.416,35.914,92.16,92.16,0,0,0,.687,9.345,88.951,88.951,0,0,0,177.175-11.354v-.229a35.737,35.737,0,0,1,21.145-32.67l4.725-2.114c12.578-5.627,27.5-3.68,37.668,5.618A89.271,89.271,0,0,0,520.3,3879.17c.089.041.177.085.266.127.92.426,1.851.829,2.787,1.224.345.147.689.3,1.037.439.734.3,1.476.581,2.22.861.569.214,1.138.43,1.712.633s1.155.393,1.735.584c.752.249,1.507.493,2.268.722.452.135.906.263,1.361.391q1.346.381,2.7.723c.362.09.725.174,1.089.26.993.233,1.99.452,2.995.651.323.065.648.125.973.186q1.545.29,3.106.523c.339.051.678.1,1.019.147q1.492.2,3,.359.652.067,1.307.127c.407.035.809.087,1.218.117s.843.036,1.266.061q1.129.069,2.265.108c.7.024,1.4.042,2.1.05.36.005.715.026,1.076.026.485,0,.965-.025,1.448-.033.591-.01,1.182-.019,1.77-.04.925-.033,1.845-.088,2.763-.149.508-.034,1.018-.062,1.524-.1,1.054-.089,2.1-.2,3.144-.329.363-.044.729-.077,1.091-.125a88.361,88.361,0,0,0,12.724-2.651l.2-.062q1.949-.562,3.859-1.213c.165-.056.329-.118.494-.175q1.77-.613,3.507-1.3c.186-.073.37-.15.555-.224q1.716-.69,3.395-1.448l.5-.229q1.731-.8,3.423-1.662l.335-.171q1.833-.949,3.617-1.979l.021-.012a89.4,89.4,0,0,0,13.549-9.6,39.552,39.552,0,0,1,65.555,29.6,91.866,91.866,0,0,0,.686,9.345c.095.763.267,1.5.381,2.258q.2,1.3.437,2.584.571,3.13,1.367,6.179c.055.208.106.417.163.624a89.346,89.346,0,0,0,51.5,58.986c.121.051.241.106.362.157q2.013.837,4.07,1.577c1.162.419,2.333.819,3.515,1.19.964.3,1.931.586,2.908.854q2.418.668,4.885,1.2c.7.149,1.4.283,2.108.415,1.934.367,3.886.679,5.86.916.154.018.3.054.456.071.457.051.909.072,1.365.116.557.055,1.109.127,1.669.171.3.024.6.026.9.047.923.064,1.843.106,2.76.142.777.03,1.552.059,2.325.07.865.011,1.725,0,2.584-.012.812-.012,1.624-.024,2.431-.058s1.6-.09,2.4-.145c.853-.059,1.706-.117,2.552-.2.729-.072,1.452-.164,2.176-.253.9-.111,1.8-.222,2.692-.359.653-.1,1.3-.222,1.947-.337.946-.167,1.893-.335,2.829-.533.569-.12,1.13-.259,1.7-.39,1-.232,2-.466,2.99-.732.473-.127.939-.271,1.409-.406,1.063-.305,2.125-.614,3.172-.957.364-.12.721-.254,1.083-.378,1.139-.39,2.273-.788,3.391-1.222.232-.09.458-.191.689-.283,1.235-.492,2.461-1,3.668-1.545.068-.03.133-.064.2-.095a89.029,89.029,0,0,0,52.244-81.285,35.741,35.741,0,0,1,21.144-32.622l4.725-2.114c12.578-5.627,27.5-3.68,37.668,5.618a88.762,88.762,0,0,0,117.871,1.8,39.748,39.748,0,0,1,42.173-6.309h0a40.02,40.02,0,0,1,23.416,35.917q.055,2.485.249,5c3.328,43.182,38.273,78.216,81.448,81.642A89.036,89.036,0,0,0,1283.71,3886.322Z" transform="translate(136 -1047.331)" fill="#ff3c00"/>
    <circle id="Elipse_7698" data-name="Elipse 7698" cx="65.726" cy="65.726" r="65.726" transform="translate(198.102 2811.396) rotate(-85.348)" fill="#fff"/>
    <line id="Línea_148" data-name="Línea 148" y1="85.304" transform="translate(481.373 2662.272)" fill="none" stroke="#2c2c2c" stroke-linecap="round" stroke-miterlimit="10" stroke-width="3" stroke-dasharray="0 4"/>
    <line id="Línea_149" data-name="Línea 149" y1="85.304" transform="translate(906.233 2662.272)" fill="none" stroke="#2c2c2c" stroke-linecap="round" stroke-miterlimit="10" stroke-width="3" stroke-dasharray="0 4"/>
    <line id="Línea_150" data-name="Línea 150" y1="85.304" transform="translate(1331.094 2662.272)" fill="none" stroke="#2c2c2c" stroke-linecap="round" stroke-miterlimit="10" stroke-width="3" stroke-dasharray="0 4"/>
    <line id="Línea_151" data-name="Línea 151" y2="84.078" transform="translate(268.943 2851.113)" fill="none" stroke="#2c2c2c" stroke-linecap="round" stroke-miterlimit="10" stroke-width="3" stroke-dasharray="0 4"/>
    <line id="Línea_152" data-name="Línea 152" y2="84.078" transform="translate(693.803 2851.113)" fill="none" stroke="#2c2c2c" stroke-linecap="round" stroke-miterlimit="10" stroke-width="3" stroke-dasharray="0 4"/>
    <line id="Línea_153" data-name="Línea 153" y2="84.078" transform="translate(1118.664 2851.113)" fill="none" stroke="#2c2c2c" stroke-linecap="round" stroke-miterlimit="10" stroke-width="3" stroke-dasharray="0 4"/>
    <circle id="Elipse_7699" data-name="Elipse 7699" cx="65.726" cy="65.726" r="65.726" transform="translate(415.646 2780.523)" fill="#fff"/>
    <circle id="Elipse_7700" data-name="Elipse 7700" cx="65.726" cy="65.726" r="65.726" transform="translate(618.302 2805.434) rotate(-80.682)" fill="#fff"/>
    <circle id="Elipse_7701" data-name="Elipse 7701" cx="65.726" cy="65.726" r="65.726" transform="translate(1043.145 2805.434) rotate(-80.682)" fill="#fff"/>
    <circle id="Elipse_7702" data-name="Elipse 7702" cx="65.726" cy="65.726" r="65.726" transform="translate(840.507 2780.523)" fill="#fff"/>
    <circle id="Elipse_7703" data-name="Elipse 7703" cx="65.726" cy="65.726" r="65.726" transform="translate(1265.35 2780.523)" fill="#fff"/>
    <g id="Grupo_931698" data-name="Grupo 931698" transform="translate(136 -1047.331)">
      <path id="Trazado_628311" data-name="Trazado 628311" d="M139.19,3775.8a23.557,23.557,0,1,0,16.5,16.5,2.611,2.611,0,1,1,5.037-1.381,28.78,28.78,0,1,1-20.157-20.157,2.611,2.611,0,0,1-1.381,5.037Zm30.579,9.109a2.613,2.613,0,0,0-1.763,3.246,36.522,36.522,0,1,1-24.671-24.671,2.611,2.611,0,1,0,1.483-5.008,41.744,41.744,0,1,0,28.2,28.2,2.614,2.614,0,0,0-3.246-1.763Zm-36.827,3.193a10.567,10.567,0,0,1,1.153.063,2.612,2.612,0,0,0,.57-5.192,15.984,15.984,0,0,0-1.723-.094,15.67,15.67,0,1,0,15.67,15.67,2.611,2.611,0,1,0-5.223,0,10.447,10.447,0,1,1-10.447-10.447Zm13.335-6.581,1.3-13.05a2.6,2.6,0,0,1,.752-1.587l9.356-9.357a2.613,2.613,0,0,1,4.451,1.643l.742,9.442,9.442.742a2.611,2.611,0,0,1,1.642,4.45l-9.356,9.357a2.617,2.617,0,0,1-1.588.752l-13.049,1.3-15.181,15.181a2.612,2.612,0,1,1-3.694-3.693Zm5.421-1.728,9.875-.985,4.69-4.69-6.018-.473a2.612,2.612,0,0,1-2.4-2.4l-.473-6.019-4.69,4.691Z" fill="#992400"/>
    </g>
    <g id="Grupo_931705" data-name="Grupo 931705" transform="translate(136 -1047.331)">
      <g id="Grupo_931699" data-name="Grupo 931699">
        <path id="Trazado_628312" data-name="Trazado 628312" d="M345.373,3910.718a17.137,17.137,0,1,1,17.136-17.137A17.156,17.156,0,0,1,345.373,3910.718Zm0-30.847a13.709,13.709,0,1,0,13.709,13.71A13.724,13.724,0,0,0,345.373,3879.871Z" fill="#992400"/>
      </g>
      <g id="Grupo_931700" data-name="Grupo 931700">
        <path id="Trazado_628313" data-name="Trazado 628313" d="M345.373,3927.855a34.274,34.274,0,1,1,34.273-34.274A34.313,34.313,0,0,1,345.373,3927.855Zm0-65.121a30.847,30.847,0,1,0,30.846,30.847A30.882,30.882,0,0,0,345.373,3862.734Z" fill="#992400"/>
      </g>
      <g id="Grupo_931701" data-name="Grupo 931701">
        <path id="Trazado_628314" data-name="Trazado 628314" d="M345.373,3869.589a1.715,1.715,0,0,1-1.714-1.714v-13.709a1.714,1.714,0,1,1,3.427,0v13.709A1.714,1.714,0,0,1,345.373,3869.589Z" fill="#992400"/>
      </g>
      <g id="Grupo_931702" data-name="Grupo 931702">
        <path id="Trazado_628315" data-name="Trazado 628315" d="M345.373,3934.709a1.714,1.714,0,0,1-1.714-1.713v-13.71a1.714,1.714,0,1,1,3.427,0V3933A1.713,1.713,0,0,1,345.373,3934.709Z" fill="#992400"/>
      </g>
      <g id="Grupo_931703" data-name="Grupo 931703">
        <path id="Trazado_628316" data-name="Trazado 628316" d="M319.667,3895.294H305.958a1.714,1.714,0,1,1,0-3.427h13.709a1.714,1.714,0,1,1,0,3.427Z" fill="#992400"/>
      </g>
      <g id="Grupo_931704" data-name="Grupo 931704">
        <path id="Trazado_628317" data-name="Trazado 628317" d="M384.787,3895.294H371.078a1.714,1.714,0,1,1,0-3.427h13.709a1.714,1.714,0,1,1,0,3.427Z" fill="#992400"/>
      </g>
    </g>
    <g id="Grupo_931709" data-name="Grupo 931709" transform="translate(136 -1047.331)">
      <g id="Grupo_931708" data-name="Grupo 931708">
        <g id="Grupo_931707" data-name="Grupo 931707">
          <g id="Grupo_931706" data-name="Grupo 931706">
            <path id="Trazado_628318" data-name="Trazado 628318" d="M581.569,3767.334h-7.342v-3.285c0-1.063-1.16-1.546-2.222-1.546h-5.7a8.642,8.642,0,0,0-8.6-5.8,8.792,8.792,0,0,0-8.6,5.8h-5.6c-1.063,0-2.125.483-2.125,1.546v3.285h-7.343a8.211,8.211,0,0,0-8.115,7.825v55.357c0,4.251,3.864,7.342,8.115,7.342h47.532c4.251,0,8.115-3.091,8.115-7.342v-55.357A8.212,8.212,0,0,0,581.569,3767.334Zm-36.325-.966h5.313a2.125,2.125,0,0,0,1.836-1.739,5.6,5.6,0,0,1,5.314-4.348,5.507,5.507,0,0,1,5.216,4.348,2.126,2.126,0,0,0,1.933,1.739h5.506v7.729H545.244Zm40.576,64.148c0,2.126-2.126,3.478-4.251,3.478H534.037c-2.125,0-4.251-1.352-4.251-3.478v-55.357a4.348,4.348,0,0,1,4.251-3.961h7.342v4.927a2.029,2.029,0,0,0,2.126,1.836H572a2.124,2.124,0,0,0,2.222-1.836V3771.2h7.343a4.348,4.348,0,0,1,4.25,3.961v55.357Z" fill="#992400"/>
            <path id="Trazado_628319" data-name="Trazado 628319" d="M550.364,3799.891a1.931,1.931,0,0,0-2.705-.1l-6.183,5.893-2.608-2.705a1.934,1.934,0,0,0-2.706-.1,2.03,2.03,0,0,0,0,2.8l3.961,4.057a1.741,1.741,0,0,0,1.353.58,1.93,1.93,0,0,0,1.352-.58l7.536-7.149a1.834,1.834,0,0,0,.111-2.593C550.44,3799.964,550.4,3799.927,550.364,3799.891Z" fill="#992400"/>
            <path id="Trazado_628320" data-name="Trazado 628320" d="M578.091,3804.045h-22.22a1.932,1.932,0,0,0,0,3.865h22.22a1.932,1.932,0,0,0,0-3.865Z" fill="#992400"/>
            <path id="Trazado_628321" data-name="Trazado 628321" d="M550.364,3784.434a1.932,1.932,0,0,0-2.705-.1l-6.183,5.893-2.608-2.705a1.933,1.933,0,0,0-2.706-.1,2.029,2.029,0,0,0,0,2.8l3.961,4.058a1.74,1.74,0,0,0,1.353.58,1.934,1.934,0,0,0,1.352-.58l7.536-7.149a1.835,1.835,0,0,0,.111-2.594A1.462,1.462,0,0,0,550.364,3784.434Z" fill="#992400"/>
            <path id="Trazado_628322" data-name="Trazado 628322" d="M578.091,3788.588h-22.22a1.932,1.932,0,0,0,0,3.864h22.22a1.932,1.932,0,1,0,0-3.864Z" fill="#992400"/>
            <path id="Trazado_628323" data-name="Trazado 628323" d="M550.364,3815.348a1.933,1.933,0,0,0-2.705-.1l-6.183,5.893-2.608-2.705a1.934,1.934,0,0,0-2.706-.1,2.03,2.03,0,0,0,0,2.8l3.961,4.058a1.739,1.739,0,0,0,1.353.579,1.93,1.93,0,0,0,1.352-.579l7.536-7.149a1.836,1.836,0,0,0,.111-2.594C550.44,3815.421,550.4,3815.384,550.364,3815.348Z" fill="#992400"/>
            <path id="Trazado_628324" data-name="Trazado 628324" d="M578.091,3819.5h-22.22a1.932,1.932,0,0,0,0,3.864h22.22a1.932,1.932,0,1,0,0-3.864Z" fill="#992400"/>
          </g>
        </g>
      </g>
    </g>
    <g id="Grupo_931736" data-name="Grupo 931736" transform="translate(136 -1047.331)">
      <g id="Grupo_931711" data-name="Grupo 931711">
        <g id="Grupo_931710" data-name="Grupo 931710">
          <path id="Trazado_628325" data-name="Trazado 628325" d="M791.045,3851.138H734.964a7.017,7.017,0,0,0-7.01,7.01v44.865a7.009,7.009,0,0,0,5.259,6.788l.7-2.714a4.2,4.2,0,0,1-3.156-4.074v-44.865a4.206,4.206,0,0,1,4.206-4.206h56.081a4.206,4.206,0,0,1,4.206,4.206v1.4h2.8v-1.4A7.017,7.017,0,0,0,791.045,3851.138Z" fill="#992400"/>
        </g>
      </g>
      <g id="Grupo_931713" data-name="Grupo 931713">
        <g id="Grupo_931712" data-name="Grupo 931712">
          <rect id="Rectángulo_337791" data-name="Rectángulo 337791" width="2.804" height="2.804" transform="translate(733.562 3856.746)" fill="#992400"/>
        </g>
      </g>
      <g id="Grupo_931715" data-name="Grupo 931715">
        <g id="Grupo_931714" data-name="Grupo 931714">
          <rect id="Rectángulo_337792" data-name="Rectángulo 337792" width="2.804" height="2.804" transform="translate(739.17 3856.746)" fill="#992400"/>
        </g>
      </g>
      <g id="Grupo_931717" data-name="Grupo 931717">
        <g id="Grupo_931716" data-name="Grupo 931716">
          <rect id="Rectángulo_337793" data-name="Rectángulo 337793" width="2.804" height="2.804" transform="translate(744.778 3856.746)" fill="#992400"/>
        </g>
      </g>
      <g id="Grupo_931719" data-name="Grupo 931719">
        <g id="Grupo_931718" data-name="Grupo 931718">
          <path id="Trazado_628326" data-name="Trazado 628326" d="M810.263,3928.66l-13.3-13.3a19.4,19.4,0,0,0,1.665-3.937h2.23v-2.8h-1.627a18.888,18.888,0,0,0-1.178-10.047v-13.788h-2.8v8.929a19.687,19.687,0,0,0-2.8-2.911v-11.626h-2.8v9.666a19.491,19.491,0,0,0-2.8-1.339V3873.57h-2.8v13.084a19.352,19.352,0,0,0-2.8-.394v-9.886h-2.8v9.886a19.354,19.354,0,0,0-2.8.394v-4.672h-2.8v5.523a19.487,19.487,0,0,0-2.8,1.339v-8.264h-2.8V3890.8a19.69,19.69,0,0,0-2.8,2.911v-10.331h-2.8v15.19a18.888,18.888,0,0,0-1.178,10.047H741.974v2.8h19.054a19.587,19.587,0,0,0,30.065,10.442l12.981,12.982a1.4,1.4,0,0,0,1.983,0l4.206-4.206A1.4,1.4,0,0,0,810.263,3928.66Zm-30.434-6.019a16.825,16.825,0,1,1,16.824-16.824A16.842,16.842,0,0,1,779.829,3922.641Zm25.237,9.234-11.794-11.794a19.909,19.909,0,0,0,2.11-2.337l11.907,11.907Z" fill="#992400"/>
        </g>
      </g>
      <g id="Grupo_931721" data-name="Grupo 931721">
        <g id="Grupo_931720" data-name="Grupo 931720">
          <path id="Trazado_628327" data-name="Trazado 628327" d="M779.829,3891.8a14.02,14.02,0,1,0,14.02,14.02A14.02,14.02,0,0,0,779.829,3891.8Zm0,25.236a11.215,11.215,0,0,1-9.7-5.608h19.4A11.215,11.215,0,0,1,779.829,3917.033Zm-10.848-8.412a11.116,11.116,0,0,1,3.838-11.546v8.742h2.8v-10.391a11.238,11.238,0,0,1,2.8-.729v11.12h2.8V3894.7a11.238,11.238,0,0,1,2.8.729v10.391h2.8v-8.742a11.116,11.116,0,0,1,3.838,11.546Z" fill="#992400"/>
        </g>
      </g>
      <g id="Grupo_931723" data-name="Grupo 931723">
        <g id="Grupo_931722" data-name="Grupo 931722">
          <path id="Trazado_628328" data-name="Trazado 628328" d="M799.457,3862.354H743.376a7.017,7.017,0,0,0-7.01,7.01v44.865a7.017,7.017,0,0,0,7.01,7.01H761.6v-2.8H743.376a4.206,4.206,0,0,1-4.206-4.206v-44.865a4.206,4.206,0,0,1,4.206-4.206h56.081a4.207,4.207,0,0,1,4.207,4.206v44.865a4.212,4.212,0,0,1-1.052,2.782l2.1,1.855a7.006,7.006,0,0,0,1.753-4.637v-44.865A7.018,7.018,0,0,0,799.457,3862.354Z" fill="#992400"/>
        </g>
      </g>
      <g id="Grupo_931725" data-name="Grupo 931725">
        <g id="Grupo_931724" data-name="Grupo 931724">
          <rect id="Rectángulo_337794" data-name="Rectángulo 337794" width="2.804" height="2.804" transform="translate(741.974 3867.962)" fill="#992400"/>
        </g>
      </g>
      <g id="Grupo_931727" data-name="Grupo 931727">
        <g id="Grupo_931726" data-name="Grupo 931726">
          <rect id="Rectángulo_337795" data-name="Rectángulo 337795" width="2.804" height="2.804" transform="translate(747.582 3867.962)" fill="#992400"/>
        </g>
      </g>
      <g id="Grupo_931729" data-name="Grupo 931729">
        <g id="Grupo_931728" data-name="Grupo 931728">
          <rect id="Rectángulo_337796" data-name="Rectángulo 337796" width="2.804" height="2.804" transform="translate(753.19 3867.962)" fill="#992400"/>
        </g>
      </g>
      <g id="Grupo_931731" data-name="Grupo 931731">
        <g id="Grupo_931730" data-name="Grupo 931730">
          <rect id="Rectángulo_337797" data-name="Rectángulo 337797" width="2.804" height="8.412" transform="translate(744.778 3897.405)" fill="#992400"/>
        </g>
      </g>
      <g id="Grupo_931733" data-name="Grupo 931733">
        <g id="Grupo_931732" data-name="Grupo 931732">
          <rect id="Rectángulo_337798" data-name="Rectángulo 337798" width="2.804" height="16.824" transform="translate(750.386 3888.992)" fill="#992400"/>
        </g>
      </g>
      <g id="Grupo_931735" data-name="Grupo 931735">
        <g id="Grupo_931734" data-name="Grupo 931734">
          <rect id="Rectángulo_337799" data-name="Rectángulo 337799" width="2.804" height="12.618" transform="translate(755.994 3893.198)" fill="#992400"/>
        </g>
      </g>
    </g>
    <g id="Grupo_931761" data-name="Grupo 931761" transform="translate(136 -1047.331)">
      <g id="Grupo_931738" data-name="Grupo 931738">
        <g id="Grupo_931737" data-name="Grupo 931737">
          <path id="Trazado_628329" data-name="Trazado 628329" d="M971.844,3813.066h-2.793a1.4,1.4,0,1,0,0,2.793h2.793a1.4,1.4,0,1,0,0-2.793Z" fill="#992400"/>
        </g>
      </g>
      <g id="Grupo_931740" data-name="Grupo 931740">
        <g id="Grupo_931739" data-name="Grupo 931739">
          <path id="Trazado_628330" data-name="Trazado 628330" d="M1010.953,3813.066H977.431a1.4,1.4,0,0,0,0,2.793h33.522a1.4,1.4,0,1,0,0-2.793Z" fill="#992400"/>
        </g>
      </g>
      <g id="Grupo_931742" data-name="Grupo 931742">
        <g id="Grupo_931741" data-name="Grupo 931741">
          <path id="Trazado_628331" data-name="Trazado 628331" d="M971.844,3804.686h-2.793a1.4,1.4,0,1,0,0,2.793h2.793a1.4,1.4,0,1,0,0-2.793Z" fill="#992400"/>
        </g>
      </g>
      <g id="Grupo_931744" data-name="Grupo 931744">
        <g id="Grupo_931743" data-name="Grupo 931743">
          <path id="Trazado_628332" data-name="Trazado 628332" d="M1010.953,3804.686H977.431a1.4,1.4,0,0,0,0,2.793h33.522a1.4,1.4,0,1,0,0-2.793Z" fill="#992400"/>
        </g>
      </g>
      <g id="Grupo_931746" data-name="Grupo 931746">
        <g id="Grupo_931745" data-name="Grupo 931745">
          <path id="Trazado_628333" data-name="Trazado 628333" d="M971.844,3796.3h-2.793a1.4,1.4,0,0,0,0,2.794h2.793a1.4,1.4,0,0,0,0-2.794Z" fill="#992400"/>
        </g>
      </g>
      <g id="Grupo_931748" data-name="Grupo 931748">
        <g id="Grupo_931747" data-name="Grupo 931747">
          <path id="Trazado_628334" data-name="Trazado 628334" d="M1010.953,3796.3H977.431a1.4,1.4,0,0,0,0,2.794h33.522a1.4,1.4,0,0,0,0-2.794Z" fill="#992400"/>
        </g>
      </g>
      <g id="Grupo_931750" data-name="Grupo 931750">
        <g id="Grupo_931749" data-name="Grupo 931749">
          <path id="Trazado_628335" data-name="Trazado 628335" d="M971.844,3787.925h-2.793a1.4,1.4,0,1,0,0,2.793h2.793a1.4,1.4,0,1,0,0-2.793Z" fill="#992400"/>
        </g>
      </g>
      <g id="Grupo_931752" data-name="Grupo 931752">
        <g id="Grupo_931751" data-name="Grupo 931751">
          <path id="Trazado_628336" data-name="Trazado 628336" d="M1010.953,3787.925H977.431a1.4,1.4,0,0,0,0,2.793h33.522a1.4,1.4,0,1,0,0-2.793Z" fill="#992400"/>
        </g>
      </g>
      <g id="Grupo_931754" data-name="Grupo 931754">
        <g id="Grupo_931753" data-name="Grupo 931753">
          <path id="Trazado_628337" data-name="Trazado 628337" d="M971.844,3779.544h-2.793a1.4,1.4,0,1,0,0,2.794h2.793a1.4,1.4,0,1,0,0-2.794Z" fill="#992400"/>
        </g>
      </g>
      <g id="Grupo_931756" data-name="Grupo 931756">
        <g id="Grupo_931755" data-name="Grupo 931755">
          <path id="Trazado_628338" data-name="Trazado 628338" d="M1010.953,3779.544H977.431a1.4,1.4,0,0,0,0,2.794h33.522a1.4,1.4,0,0,0,0-2.794Z" fill="#992400"/>
        </g>
      </g>
      <g id="Grupo_931758" data-name="Grupo 931758">
        <g id="Grupo_931757" data-name="Grupo 931757">
          <path id="Trazado_628339" data-name="Trazado 628339" d="M1020.712,3773.869a1.334,1.334,0,0,0-.071-.359c-.016-.044-.027-.088-.046-.131a1.4,1.4,0,0,0-.28-.409l-19.554-19.554a1.4,1.4,0,0,0-.409-.28c-.044-.019-.087-.03-.13-.046a1.392,1.392,0,0,0-.362-.072c-.024,0-.05-.012-.081-.012H960.671a1.4,1.4,0,0,0-1.4,1.4v4.19H952.29a1.4,1.4,0,0,0-1.4,1.4v75.424a1.4,1.4,0,0,0,1.4,1.4h58.663a1.4,1.4,0,0,0,1.4-1.4v-6.984h6.983a1.4,1.4,0,0,0,1.4-1.4v-53.076C1020.73,3773.927,1020.715,3773.9,1020.712,3773.869Zm-19.536-16.094,14.786,14.786h-14.786Zm8.38,76.242H953.687v-72.63h5.587v65.646a1.4,1.4,0,0,0,1.4,1.4h48.885Zm8.381-8.38h-55.87V3755.8h36.315v18.157a1.4,1.4,0,0,0,1.4,1.4h18.158Z" fill="#992400"/>
        </g>
      </g>
      <g id="Grupo_931760" data-name="Grupo 931760">
        <g id="Grupo_931759" data-name="Grupo 931759">
          <path id="Trazado_628340" data-name="Trazado 628340" d="M977.431,3765.577h-8.38a1.4,1.4,0,0,0-1.4,1.4v8.38a1.4,1.4,0,0,0,1.4,1.4h8.38a1.4,1.4,0,0,0,1.4-1.4v-8.38A1.4,1.4,0,0,0,977.431,3765.577Zm-1.4,8.38h-5.587v-5.587h5.587Z" fill="#992400"/>
        </g>
      </g>
    </g>
    <g id="Grupo_931762" data-name="Grupo 931762" transform="translate(136 -1047.331)">
      <path id="Trazado_628341" data-name="Trazado 628341" d="M1184.3,3881.491h-9.657v-9.658a1.38,1.38,0,0,0-1.38-1.38,12.418,12.418,0,1,0,12.417,12.417A1.379,1.379,0,0,0,1184.3,3881.491Zm-12.417-8.18v8.988l-6.346,6.347a9.636,9.636,0,0,1,6.346-15.335Zm1.38,19.217a9.6,9.6,0,0,1-5.773-1.931l6.347-6.347h8.988A9.672,9.672,0,0,1,1173.264,3892.528Z" fill="#992400"/>
      <path id="Trazado_628342" data-name="Trazado 628342" d="M1178.783,3878.731h11.037a1.379,1.379,0,0,0,1.38-1.379,12.433,12.433,0,0,0-12.417-12.418,1.38,1.38,0,0,0-1.38,1.38v11.038A1.379,1.379,0,0,0,1178.783,3878.731Zm1.379-10.939a9.682,9.682,0,0,1,8.18,8.18h-8.18Z" fill="#992400"/>
      <path id="Trazado_628343" data-name="Trazado 628343" d="M1207.756,3885.63a17.936,17.936,0,1,0,17.936,17.936A17.936,17.936,0,0,0,1207.756,3885.63Zm-6.9,12.417v-7.983a15.117,15.117,0,0,1,2.759-1.087v9.07Zm16.556,2.759v2.76H1198.1v-2.76Zm-5.519-2.759v-9.07a15.131,15.131,0,0,1,2.76,1.087v7.983Zm-2.759-9.587v9.587h-2.76v-9.587c.456-.042.914-.071,1.38-.071S1208.68,3888.418,1209.136,3888.46Zm-11.038,3.407v6.18h-1.379a1.38,1.38,0,0,0-1.38,1.38v5.518a1.38,1.38,0,0,0,1.38,1.38h22.075a1.379,1.379,0,0,0,1.379-1.38v-5.518a1.379,1.379,0,0,0-1.379-1.38h-1.38v-6.18a15.107,15.107,0,0,1,4.465,17.218h-28.245A15.107,15.107,0,0,1,1198.1,3891.867Zm9.658,26.875a15.175,15.175,0,0,1-12.7-6.9h25.408A15.175,15.175,0,0,1,1207.756,3918.742Z" fill="#992400"/>
      <path id="Trazado_628344" data-name="Trazado 628344" d="M1239.035,3926l-5.968-5.968a2.762,2.762,0,0,0-.476-3.236l-3.512-3.511a23.293,23.293,0,0,0-2.007-22.99v-35.013a4.139,4.139,0,0,0-4.139-4.139h-63.466a4.139,4.139,0,0,0-4.139,4.139v52.428a4.139,4.139,0,0,0,4.139,4.139h26.371a23.364,23.364,0,0,0,30.07,13.7q.792-.3,1.563-.65l3.511,3.511a2.718,2.718,0,0,0,3.235.476l5.969,5.969a6.257,6.257,0,1,0,8.849-8.85Zm-79.568-72.1h63.466a1.379,1.379,0,0,1,1.379,1.38v4.139h-66.225v-4.139A1.38,1.38,0,0,1,1159.467,3853.9Zm0,55.188a1.38,1.38,0,0,1-1.38-1.38v-45.53h66.225v24.794a23.528,23.528,0,0,0-6.9-4.753v-15.9a1.38,1.38,0,0,0-1.38-1.38h-5.519a1.38,1.38,0,0,0-1.379,1.38v13.867c-.46-.027-.914-.07-1.38-.07s-.92.043-1.38.07v-5.589a1.379,1.379,0,0,0-1.379-1.379h-5.519a1.379,1.379,0,0,0-1.38,1.379v7.624a23.293,23.293,0,0,0-13.107,26.869Zm55.188-27.935a23.131,23.131,0,0,0-2.76-.651v-12.8h2.76Zm-11.038-.651a23.07,23.07,0,0,0-2.759.651v-5.178h2.759Zm-16.556,23.067a20.7,20.7,0,1,1,20.695,20.7A20.7,20.7,0,0,1,1187.061,3903.566Zm32.95,19.961a23.584,23.584,0,0,0,7.706-7.707l2.923,2.922-7.707,7.707Zm14.6,10.392a3.477,3.477,0,0,1-2.473-1.025l-5.874-5.873,4.948-4.948,5.873,5.873a3.5,3.5,0,0,1-2.474,5.973Z" fill="#992400"/>
      <path id="Trazado_628345" data-name="Trazado 628345" d="M1178.783,3898.047h-16.557a1.379,1.379,0,0,0-1.379,1.38v5.518a1.379,1.379,0,0,0,1.379,1.38h16.557a1.379,1.379,0,0,0,1.379-1.38v-5.518A1.379,1.379,0,0,0,1178.783,3898.047Zm-1.38,5.519h-13.8v-2.76h13.8Z" fill="#992400"/>
    </g>
    <rect id="Rectángulo_337806" data-name="Rectángulo 337806" width="182" height="42.488" rx="9" transform="translate(180 2935.19)" fill="#ff3c00"/>
    <rect id="Rectángulo_337807" data-name="Rectángulo 337807" width="182" height="42.488" rx="9" transform="translate(390 2619.784)" fill="#ff3c00"/>
    <rect id="Rectángulo_337808" data-name="Rectángulo 337808" width="182" height="42.488" rx="9" transform="translate(602.803 2937.999)" fill="#ff3c00"/>
    <rect id="Rectángulo_337809" data-name="Rectángulo 337809" width="182" height="54.488" rx="9" transform="translate(818 2608.35)" fill="#ff3c00"/>
    <rect id="Rectángulo_337811" data-name="Rectángulo 337811" width="182" height="54.488" rx="9" transform="translate(1238 2608.35)" fill="#ff3c00"/>
    <rect id="Rectángulo_337810" data-name="Rectángulo 337810" width="182" height="56.488" rx="9" transform="translate(1028 2937.998)" fill="#ff3c00"/>
    <text id="Planeación" transform="translate(200.289 2945.999)" fill="#fff" font-size="16" font-family="Roboto-Bold, Roboto" font-weight="700"><tspan x="29.786" y="17">Planeación</tspan></text>
    <text id="Diseño" transform="translate(410.289 2630.593)" fill="#fff" font-size="16" font-family="Roboto-Bold, Roboto" font-weight="700"><tspan x="44.985" y="17">Diseño</tspan></text>
    <text id="Trabajo_de_campo" data-name="Trabajo de campo" transform="translate(623.092 2948.808)" fill="#fff" font-size="16" font-family="Roboto-Bold, Roboto" font-weight="700"><tspan x="5.336" y="17">Trabajo de campo</tspan></text>
    <text id="Procesamiento_y_análisis" data-name="Procesamiento y análisis" transform="translate(838.289 2611.594)" fill="#fff" font-size="16" font-family="Roboto-Bold, Roboto" font-weight="700"><tspan x="9.418" y="17">Procesamiento y </tspan><tspan x="42.098" y="41">análisis</tspan></text>
    <text id="Presentación_del_informe" data-name="Presentación del informe" transform="translate(1258.289 2612.537)" fill="#fff" font-size="16" font-family="Roboto-Bold, Roboto" font-weight="700"><tspan x="9.192" y="17">Presentación del </tspan><tspan x="41.586" y="41">informe</tspan></text>
    <text id="Elaboración_del_informe" data-name="Elaboración del informe" transform="translate(1048.289 2943.807)" fill="#fff" font-size="16" font-family="Roboto-Bold, Roboto" font-weight="700"><tspan x="14.477" y="17">Elaboración del </tspan><tspan x="41.586" y="41">informe</tspan></text>
  </g>
</svg>
