<svg xmlns="http://www.w3.org/2000/svg" xmlns:xlink="http://www.w3.org/1999/xlink" width="190" height="167" viewBox="0 0 190 167"><defs><clipPath id="a"><rect width="190" height="167" transform="translate(495 5697)" fill="#fff" stroke="#707070" stroke-width="1"/></clipPath></defs><g transform="translate(-495 -5697)" clip-path="url(#a)"><g transform="translate(506.507 5697)"><g transform="translate(2.686 2.686)"><g transform="translate(139.647 32.226)"><path d="M73.115,20.949l1.37,8.164H53l1.37-8.164a9.5,9.5,0,0,1,15.522-5.693A9.37,9.37,0,0,1,73.115,20.949Z" transform="translate(-53 -13)" fill="#e6e9ed"/></g><g transform="translate(107.421 69.824)"><path d="M61.115,34.949l1.37,8.164H41l1.37-8.164a9.5,9.5,0,0,1,15.522-5.693A9.369,9.369,0,0,1,61.115,34.949Z" transform="translate(-41 -27)" fill="#b4dd7f"/></g><g transform="translate(75.195 118.163)"><path d="M49.115,52.949l1.37,8.164H29l1.37-8.164a9.5,9.5,0,0,1,15.522-5.693A9.37,9.37,0,0,1,49.115,52.949Z" transform="translate(-29 -45)" fill="#fcd770"/></g><g transform="translate(139.647 59.082)"><path d="M74.484,25.686V125.05H53V25.686A2.693,2.693,0,0,1,55.686,23H71.8A2.693,2.693,0,0,1,74.484,25.686Z" transform="translate(-53 -23)" fill="#ff826e"/></g><g transform="translate(107.421 96.679)"><path d="M62.484,39.686v61.767H41V39.686A2.693,2.693,0,0,1,43.686,37H59.8A2.693,2.693,0,0,1,62.484,39.686Z" transform="translate(-41 -37)" fill="#ff826e"/></g><g transform="translate(75.195 145.018)"><path d="M50.484,57.686V71.113H29V57.686A2.693,2.693,0,0,1,31.686,55H47.8A2.693,2.693,0,0,1,50.484,57.686Z" transform="translate(-29 -55)" fill="#ff826e"/></g><g transform="translate(139.647 21.484)"><path d="M74.484,9A10.742,10.742,0,0,1,53,9Z" transform="translate(-53 -9)" fill="#f0d0b4"/></g><g transform="translate(107.421 59.082)"><path d="M41,23H62.484A10.742,10.742,0,0,1,41,23Z" transform="translate(-41 -23)" fill="#f0d0b4"/></g><g transform="translate(75.195 107.421)"><path d="M29,41H50.484A10.742,10.742,0,0,1,29,41Z" transform="translate(-29 -41)" fill="#f0d0b4"/></g><g transform="translate(107.421 48.339)"><path d="M41,29.742a10.742,10.742,0,1,1,21.484,0Z" transform="translate(-41 -19)" fill="#656d78"/></g><g transform="translate(139.647 10.742)"><path d="M53,15.742a10.742,10.742,0,0,1,21.484,0Z" transform="translate(-53 -5)" fill="#b27946"/></g><g transform="translate(75.195 96.679)"><path d="M29,47.742a10.742,10.742,0,0,1,21.484,0Z" transform="translate(-29 -37)" fill="#b27946"/></g><g transform="translate(37.597)"><path d="M15,17.113V6.371A5.387,5.387,0,0,1,20.371,1H84.824a5.387,5.387,0,0,1,5.371,5.371V17.113a5.387,5.387,0,0,1-5.371,5.371H57.968l-2.041,8.137a3.431,3.431,0,0,1-6.66,0l-2.041-8.137H20.371A5.387,5.387,0,0,1,15,17.113Z" transform="translate(-15 -1)" fill="#ffeaa7"/></g><g transform="translate(0 118.163)"><path d="M11.742,74.541v2.686H1V45H9.057a2.693,2.693,0,0,1,2.686,2.686Z" transform="translate(-1 -45)" fill="#fcd770"/></g><g transform="translate(48.339 139.647)"><path d="M24.371,53h5.371a5.387,5.387,0,0,1,5.371,5.371,5.41,5.41,0,0,1-5.371,5.371H24.371A5.387,5.387,0,0,1,19,58.371,5.41,5.41,0,0,1,24.371,53Z" transform="translate(-19 -53)" fill="#f0d0b4"/></g><g transform="translate(48.339 128.905)"><path d="M24.371,49h5.371a5.387,5.387,0,0,1,5.371,5.371,5.41,5.41,0,0,1-5.371,5.371H24.371A5.387,5.387,0,0,1,19,54.371,5.41,5.41,0,0,1,24.371,49Z" transform="translate(-19 -49)" fill="#f0d0b4"/></g><g transform="translate(48.339 118.163)"><path d="M29.742,45a5.387,5.387,0,0,1,5.371,5.371,5.41,5.41,0,0,1-5.371,5.371H24.371A5.387,5.387,0,0,1,19,50.371a5.251,5.251,0,0,1,1.584-3.787A5.392,5.392,0,0,1,23.3,45.107,4.7,4.7,0,0,1,24.371,45Z" transform="translate(-19 -45)" fill="#f0d0b4"/></g><g transform="translate(10.742 107.421)"><path d="M31.855,81.283v8.057H24.443A27.527,27.527,0,0,1,5,81.283V54.428A27.652,27.652,0,0,1,28.713,41H50.654a2.693,2.693,0,0,1,2.686,2.686,8.037,8.037,0,0,1-2.363,5.693,7.9,7.9,0,0,1-4.109,2.2,7.735,7.735,0,0,1-1.584.161H37.226c-.725,1.423-1.665,2.712-5.371,5.854Z" transform="translate(-5 -41)" fill="#f0d0b4"/></g><g transform="translate(37.597 118.002)"><path d="M15,50.956c3.706-3.142,4.646-4.431,5.371-5.854h8.057a7.735,7.735,0,0,0,1.584-.161l.027.269a5.392,5.392,0,0,0-2.712,1.477,5.251,5.251,0,0,0-1.584,3.787,5.387,5.387,0,0,0,5.371,5.371,5.41,5.41,0,0,0-5.371,5.371,5.387,5.387,0,0,0,5.371,5.371,5.41,5.41,0,0,0-5.371,5.371,5.387,5.387,0,0,0,5.371,5.371V82.7a5.387,5.387,0,0,1-5.371,5.371H20.371A5.387,5.387,0,0,1,15,82.7V50.956Z" transform="translate(-15 -44.94)" fill="#969faa"/></g><g transform="translate(5.371 32.226)"><path d="M40.6,88.195a37.6,37.6,0,1,1,37.6-37.6A37.6,37.6,0,0,1,40.6,88.195Z" transform="translate(-3 -13)" fill="#ccd1d9"/></g><g transform="translate(16.113 42.968)"><ellipse cx="27" cy="26.5" rx="27" ry="26.5" transform="translate(0.201 0.346)" fill="#69d6f4"/></g></g><path d="M85.937,52.283A40.283,40.283,0,1,0,28.3,88.58,30.569,30.569,0,0,0,13.39,98.665a5.289,5.289,0,0,0-2.648-.728H0v37.6H15.713a29.969,29.969,0,0,0,17.166,5.371h5.215a8.046,8.046,0,0,0,7.562,5.371h5.371a8.066,8.066,0,0,0,8.057-8.057v-2.686H61.77a8.022,8.022,0,0,0,5.962-13.428,7.933,7.933,0,0,0,0-10.742A7.99,7.99,0,0,0,62.9,98.052a10.672,10.672,0,0,0,1.552-5.487,5.348,5.348,0,0,0-1.67-3.875A40.3,40.3,0,0,0,85.937,52.283Zm-75.195,77.88H5.371V103.308h5.371Zm40.283,10.742H45.654a2.686,2.686,0,0,1-2.686-2.686V107.879a17,17,0,0,0,4.251-4.571h1.614a7.809,7.809,0,0,0,1.6,8.057,7.933,7.933,0,0,0,0,10.742A7.983,7.983,0,0,0,53.71,135.04v3.18A2.686,2.686,0,0,1,51.025,140.905Zm13.428-24.17a2.687,2.687,0,0,1-2.686,2.686H56.4a2.686,2.686,0,1,1,0-5.371h5.371A2.687,2.687,0,0,1,64.453,116.735Zm-2.686,13.428H56.4a2.686,2.686,0,0,1,0-5.371h5.371a2.686,2.686,0,0,1,0,5.371Zm2.686-24.17a2.687,2.687,0,0,1-2.686,2.686H56.4a2.686,2.686,0,1,1,0-5.371h5.371A2.687,2.687,0,0,1,64.453,105.993ZM59.082,92.566a5.376,5.376,0,0,1-5.371,5.371H43.994l-.741,1.485a11.739,11.739,0,0,1-6.829,5.924l-2.361.787,1.7,5.092,1.834-.612v12.112a27.533,27.533,0,0,0-9.893-5.852L26,121.964a22.2,22.2,0,0,1,11.381,8.693l.212.32v4.557H32.876a24.625,24.625,0,0,1-16.763-6.555V104.138a25.083,25.083,0,0,1,21.03-11.572ZM45.654,87.195A34.912,34.912,0,1,1,80.566,52.283,34.952,34.952,0,0,1,45.654,87.195Z" transform="translate(0 20.226)"/><path d="M35.541,16A29.541,29.541,0,1,0,65.082,45.541,29.576,29.576,0,0,0,35.541,16Zm0,53.71a24.17,24.17,0,1,1,24.17-24.17A24.2,24.2,0,0,1,35.541,69.71Z" transform="translate(10.113 26.968)"/><path d="M18,4h5.371V9.371H18Z" transform="translate(30.339 6.742)"/><path d="M22,4h5.371V9.371H22Z" transform="translate(37.082 6.742)"/><path d="M26,4h5.371V9.371H26Z" transform="translate(43.824 6.742)"/><path d="M30,4h5.371V9.371H30Z" transform="translate(50.566 6.742)"/><path d="M34,4h5.371V9.371H34Z" transform="translate(57.308 6.742)"/><path d="M38,4h5.371V9.371H38Z" transform="translate(64.05 6.742)"/><path d="M22.057,26.855H46.817l1.525,6.1a6.123,6.123,0,0,0,11.881,0l1.525-6.1H86.509A8.066,8.066,0,0,0,94.566,18.8V8.057A8.066,8.066,0,0,0,86.509,0H22.057A8.066,8.066,0,0,0,14,8.057V18.8a8.066,8.066,0,0,0,8.057,8.057Zm-2.686-18.8a2.687,2.687,0,0,1,2.686-2.686H86.509a2.686,2.686,0,0,1,2.686,2.686V18.8a2.686,2.686,0,0,1-2.686,2.686H57.559l-2.543,10.17a.785.785,0,0,1-1.464,0L51.007,21.484H22.057A2.687,2.687,0,0,1,19.371,18.8Z" transform="translate(23.597)"/><path d="M53.7,35.676,51.819,46.968H79.644L77.761,35.676a12.146,12.146,0,0,0-4.222-7.369,13.428,13.428,0,1,0-15.614,0A12.146,12.146,0,0,0,53.7,35.676Zm12.028-26.3A8.046,8.046,0,0,1,73.3,14.742H58.173A8.04,8.04,0,0,1,65.733,9.371ZM58.17,20.113H73.292a8.008,8.008,0,0,1-15.122,0Zm14.3,16.443L73.3,41.6H58.16L59,36.557a6.826,6.826,0,0,1,13.465,0Z" transform="translate(87.342 6.742)"/><path d="M40.305,31.428a13.394,13.394,0,0,0,5.621,10.879A12.146,12.146,0,0,0,41.7,49.676L39.819,60.968H67.644L65.761,49.676a12.146,12.146,0,0,0-4.222-7.369A13.412,13.412,0,1,0,40.305,31.428Zm20.16,19.129L61.3,55.6H46.16L47,50.557a6.826,6.826,0,0,1,13.465,0ZM46.17,34.113H61.292a8.008,8.008,0,0,1-15.122,0Zm7.562-10.742A8.046,8.046,0,0,1,61.3,28.742H46.173A8.04,8.04,0,0,1,53.733,23.371Z" transform="translate(67.116 30.339)"/><path d="M113.937,22H97.824a5.376,5.376,0,0,0-5.371,5.371V124.05H87.082V64.968A5.376,5.376,0,0,0,81.71,59.6H65.6a5.376,5.376,0,0,0-5.371,5.371V124.05H54.855V113.308a5.376,5.376,0,0,0-5.371-5.371H33.371A5.376,5.376,0,0,0,28,113.308v16.113h91.308V27.371A5.376,5.376,0,0,0,113.937,22ZM49.484,124.05H33.371V113.308H49.484ZM65.6,64.968H81.71V124.05H65.6Zm48.339,59.082H97.824V27.371h16.113Z" transform="translate(47.195 37.082)"/><path d="M29.7,67.676,27.819,78.968H55.644L53.761,67.676a12.146,12.146,0,0,0-4.222-7.369,13.428,13.428,0,1,0-15.614,0A12.146,12.146,0,0,0,29.7,67.676Zm12.028-26.3A8.046,8.046,0,0,1,49.3,46.742H34.173A8.04,8.04,0,0,1,41.733,41.371ZM34.17,52.113H49.292a8.008,8.008,0,0,1-15.122,0Zm14.3,16.443L49.3,73.6H34.16L35,68.557a6.826,6.826,0,0,1,13.465,0Z" transform="translate(46.89 60.679)"/></g></g></svg>