<svg xmlns="http://www.w3.org/2000/svg" width="247" height="235.097" viewBox="0 0 247 235.097"><g transform="translate(-107.866 -4744.667)"><g transform="translate(112.052 4753.49)"><g transform="translate(0 0)"><rect width="117.735" height="72.868" fill="#ffeed9"/></g><g transform="translate(12.513 21.448)"><path d="M208.487,4819.091c-8.164-3.1-17.554,5.465-25.557,1.974-4.657-2.031-6.769-7.3-9.05-11.837s-6.213-9.328-11.267-8.8c-5.1.532-9.218,6.433-14.141,5.011-3.1-.9-4.653-4.338-5.431-7.473s-1.317-6.6-3.683-8.8-7.3-1.611-7.667,1.6v38.631h92.07S211.312,4820.163,208.487,4819.091Z" transform="translate(-131.69 -4787.854)" fill="#ffd7a6"/></g><g transform="translate(7.359 62.838)"><path d="M224.019,4847.053c0,.083-22.317.15-49.839.15s-49.844-.066-49.844-.15,22.312-.149,49.844-.149S224.019,4846.971,224.019,4847.053Z" transform="translate(-124.337 -4846.904)" fill="#e0e0e0"/></g><g transform="translate(7.359 45.965)"><path d="M224.019,4822.981c0,.083-22.317.15-49.839.15s-49.844-.067-49.844-.15,22.312-.149,49.844-.149S224.019,4822.9,224.019,4822.981Z" transform="translate(-124.337 -4822.832)" fill="#f9e2c7"/></g><g transform="translate(7.359 29.093)"><path d="M224.019,4798.909c0,.083-22.317.15-49.839.15s-49.844-.067-49.844-.15,22.312-.149,49.844-.149S224.019,4798.826,224.019,4798.909Z" transform="translate(-124.337 -4798.76)" fill="#f9e2c7"/></g><g transform="translate(7.359 13.057)"><path d="M224.019,4776.032c0,.083-22.317.15-49.839.15s-49.844-.068-49.844-.15,22.312-.15,49.844-.15S224.019,4775.949,224.019,4776.032Z" transform="translate(-124.337 -4775.882)" fill="#f9e2c7"/></g></g><g transform="translate(287.021 4749.686)"><g transform="translate(0 0)"><path d="M382.107,4770.476v-18.647a18.647,18.647,0,1,1-18.643,19.078Z" transform="translate(-363.464 -4751.828)" fill="#f9e2c7"/></g></g><g transform="translate(282.471 4744.667)"><path d="M375.619,4763.307l-18.647.421a19.671,19.671,0,0,1,5.283-13.426,19.169,19.169,0,0,1,13.075-5.635Z" transform="translate(-356.972 -4744.667)" fill="#ffeed9"/></g><g transform="translate(138.421 4913.161)"><g transform="translate(0 4.541)"><path d="M168.331,5008.407v-16.874A16.873,16.873,0,1,0,185.2,5008.8Z" transform="translate(-151.458 -4991.533)" fill="#f9e2c7"/></g><g transform="translate(20.986)"><path d="M181.4,5001.92l16.873.381a17.8,17.8,0,0,0-4.78-12.148,17.351,17.351,0,0,0-11.831-5.1Z" transform="translate(-181.399 -4985.054)" fill="#ffeed9"/></g></g><g transform="translate(257.847 4810.002)"><g transform="translate(0 0)"><rect width="7.887" height="24.633" fill="#ffeed9"/></g><g transform="translate(11.776 5.627)"><rect width="7.887" height="19.006" fill="#ffeed9"/></g><g transform="translate(22.678 13.346)"><rect width="7.887" height="11.287" fill="#ffeed9"/></g></g><path d="M204.457,4782.568l.2-1.094c1.709-9.228,8.03-16.632,16.594-18.981a21.835,21.835,0,0,1,3.367-.647c8.211-.915,16.962,2.9,22.436,9.792,3.219,4.051,5.519,9.206,9.856,11.8,5.644,3.378,12.462,1.172,18.343-1.1s12.71-4.456,18.341-1.053c3.527,2.131,5.8,6.117,7,10.2,3.167,10.808-.48,22.727-7.681,30.526s-17.465,11.846-27.867,13.138c-14.571,1.81-30.246-1.691-42.292-11.334S202.893,4798.047,204.457,4782.568Z" transform="translate(-28.828 -5.098)" fill="#ffeed9"/><path d="M204.576,4867.647c-3.447-2.606-8.195-3.056-12.369-1.939-2.62.508-7.4,5.683-6.6,10.122s5.053,7.6,9.465,8.543c4.9,1.042,10.8-.66,12.886-5.215C209.751,4875.229,208.023,4870.252,204.576,4867.647Z" transform="translate(-23.223 -36.028)" fill="#ffeed9"/><path d="M326.445,4747.354c-3.447-2.605-8.195-3.055-12.369-1.938-2.62.508-7.4,5.683-6.6,10.122s5.053,7.6,9.465,8.543c4.9,1.042,10.8-.66,12.886-5.215C331.62,4754.936,329.892,4749.96,326.445,4747.354Z" transform="translate(-59.67 -0.052)" fill="#ffeed9"/><g transform="translate(116.562 4826.336)"><g transform="translate(0.156 121.842)"><rect width="16.037" height="31.294" fill="#ff3c00"/></g><g transform="translate(34.975 134.643)"><rect width="16.037" height="18.493" fill="#ff725e"/></g><g transform="translate(34.975 134.643)"><rect width="16.037" height="18.493" fill="#ffe2d9"/></g><g transform="translate(67.331 111.291)"><path d="M232.369,5061.808l-16.037.1v-41.953h16.037Z" transform="translate(-216.332 -5019.959)" fill="#ff3c00"/></g><g transform="translate(101.204 131.044)"><rect width="16.037" height="22.093" fill="#ff725e"/></g><g transform="translate(101.204 131.044)"><rect width="16.037" height="22.093" fill="#ffe2d9"/></g><g transform="translate(134.506 111.291)"><rect width="16.037" height="41.845" fill="#ff3c00"/></g><g transform="translate(167.491 57.78)" opacity="0.79"><rect width="16.037" height="95.356" fill="#ffe2d9"/></g><g transform="translate(0.217 136.736)"><path d="M136.557,5056.266c.125.128-3.349,3.906-7.759,8.437s-8.088,8.1-8.213,7.972,3.348-3.905,7.76-8.437S136.433,5056.136,136.557,5056.266Z" transform="translate(-120.581 -5056.262)" fill="#fff"/></g><g transform="translate(34.931 137.012)"><path d="M186.084,5056.659c.125.128-3.349,3.906-7.759,8.437s-8.089,8.1-8.213,7.972,3.348-3.9,7.76-8.437S185.96,5056.529,186.084,5056.659Z" transform="translate(-170.108 -5056.655)" fill="#ff725e"/></g><g transform="translate(101.233 136.723)"><path d="M280.676,5056.246c.125.128-3.35,3.907-7.759,8.437s-8.089,8.1-8.213,7.973,3.348-3.906,7.76-8.437S280.551,5056.117,280.676,5056.246Z" transform="translate(-264.7 -5056.243)" fill="#ff725e"/></g><g transform="translate(0 122.16)"><path d="M136.249,5035.47c.125.128-3.35,3.906-7.76,8.437s-8.088,8.1-8.213,7.972,3.349-3.906,7.761-8.437S136.124,5035.341,136.249,5035.47Z" transform="translate(-120.272 -5035.466)" fill="#fff"/></g><g transform="translate(67.638 136.974)"><path d="M232.746,5056.6c.125.129-3.35,3.907-7.759,8.438s-8.089,8.1-8.213,7.972,3.348-3.906,7.76-8.438S232.621,5056.476,232.746,5056.6Z" transform="translate(-216.77 -5056.601)" fill="#fff"/></g><g transform="translate(67.421 122.398)"><path d="M232.437,5035.809c.125.129-3.349,3.907-7.759,8.438s-8.088,8.1-8.213,7.972,3.348-3.907,7.76-8.438S232.313,5035.68,232.437,5035.809Z" transform="translate(-216.461 -5035.805)" fill="#fff"/></g><g transform="translate(67.42 111.286)"><path d="M227.439,5019.958c.125.128-2.23,2.756-5.26,5.87s-5.589,5.534-5.715,5.405,2.23-2.757,5.261-5.871S227.314,5019.829,227.439,5019.958Z" transform="translate(-216.459 -5019.953)" fill="#fff"/></g><g transform="translate(167.468 136.723)"><path d="M375.172,5056.246c.125.128-3.349,3.907-7.759,8.437s-8.089,8.1-8.214,7.973,3.349-3.906,7.761-8.437S375.047,5056.117,375.172,5056.246Z" transform="translate(-359.195 -5056.243)" fill="#ff3c00"/></g><g transform="translate(167.252 122.147)"><path d="M374.863,5035.45c.125.129-3.349,3.906-7.759,8.437s-8.089,8.1-8.213,7.973,3.348-3.905,7.76-8.437S374.739,5035.321,374.863,5035.45Z" transform="translate(-358.887 -5035.447)" fill="#ff3c00"/></g><g transform="translate(167.252 105.902)"><path d="M374.863,5012.274c.125.129-3.349,3.907-7.759,8.438s-8.089,8.1-8.213,7.973,3.348-3.906,7.76-8.438S374.739,5012.146,374.863,5012.274Z" transform="translate(-358.887 -5012.271)" fill="#ff3c00"/></g><g transform="translate(134.958 136.723)"><path d="M328.79,5056.246c.125.128-3.349,3.907-7.759,8.437s-8.089,8.1-8.213,7.973,3.348-3.906,7.76-8.437S328.666,5056.117,328.79,5056.246Z" transform="translate(-312.814 -5056.243)" fill="#fff"/></g><g transform="translate(134.741 122.147)"><path d="M328.481,5035.45c.125.129-3.349,3.906-7.759,8.437s-8.088,8.1-8.213,7.973,3.348-3.905,7.76-8.437S328.357,5035.321,328.481,5035.45Z" transform="translate(-312.505 -5035.447)" fill="#fff"/></g><g transform="translate(134.74 111.145)"><path d="M323.376,5019.757c.125.128-2.207,2.732-5.207,5.815s-5.535,5.479-5.661,5.35,2.206-2.732,5.207-5.816S323.25,5019.627,323.376,5019.757Z" transform="translate(-312.503 -5019.752)" fill="#fff"/></g><g transform="translate(167.468 90.191)"><path d="M375.172,4989.86c.125.129-3.349,3.907-7.759,8.438s-8.089,8.1-8.214,7.972,3.349-3.905,7.761-8.438S375.047,4989.732,375.172,4989.86Z" transform="translate(-359.195 -4989.856)" fill="#ff3c00"/></g><g transform="translate(167.468 60.979)"><path d="M375.172,4948.184c.125.128-3.349,3.907-7.759,8.438s-8.089,8.1-8.214,7.972,3.349-3.906,7.761-8.437S375.047,4948.055,375.172,4948.184Z" transform="translate(-359.195 -4948.18)" fill="#ff3c00"/></g><g transform="translate(167.252 75.615)"><path d="M374.863,4969.064c.125.129-3.349,3.907-7.759,8.438s-8.089,8.1-8.213,7.973,3.348-3.906,7.76-8.438S374.739,4968.936,374.863,4969.064Z" transform="translate(-358.887 -4969.061)" fill="#ff3c00"/></g><g transform="translate(202.242)"><g transform="translate(0.076 0.28)"><rect width="15.155" height="152.857" fill="#ff3c00"/></g><g transform="translate(0.206 137.626)" opacity="0.6"><path d="M424.2,5057.535c.118.122-3.165,3.692-7.332,7.973s-7.643,7.655-7.761,7.534,3.164-3.691,7.333-7.974S424.08,5057.413,424.2,5057.535Z" transform="translate(-409.102 -5057.532)" fill="#fff"/></g><g transform="translate(0.001 123.852)" opacity="0.6"><path d="M423.906,5037.883c.118.122-3.165,3.692-7.332,7.973s-7.643,7.655-7.761,7.534,3.164-3.69,7.333-7.974S423.789,5037.761,423.906,5037.883Z" transform="translate(-408.81 -5037.879)" fill="#fff"/></g><g transform="translate(0.001 108.501)" opacity="0.6"><path d="M423.906,5015.982c.118.122-3.165,3.691-7.332,7.973s-7.643,7.656-7.761,7.535,3.164-3.691,7.333-7.974S423.789,5015.861,423.906,5015.982Z" transform="translate(-408.81 -5015.979)" fill="#fff"/></g><g transform="translate(0.206 93.656)" opacity="0.6"><path d="M424.2,4994.8c.118.122-3.165,3.692-7.332,7.973s-7.643,7.655-7.761,7.534,3.164-3.69,7.333-7.974S424.08,4994.681,424.2,4994.8Z" transform="translate(-409.102 -4994.799)" fill="#fff"/></g><g transform="translate(0.001 79.881)" opacity="0.6"><path d="M423.906,4975.15c.118.122-3.165,3.691-7.332,7.974s-7.643,7.655-7.761,7.533,3.164-3.691,7.333-7.974S423.789,4975.029,423.906,4975.15Z" transform="translate(-408.81 -4975.147)" fill="#fff"/></g><g transform="translate(0.001 64.531)" opacity="0.6"><path d="M423.906,4953.251c.118.122-3.165,3.692-7.332,7.973s-7.643,7.655-7.761,7.533,3.164-3.69,7.333-7.974S423.789,4953.129,423.906,4953.251Z" transform="translate(-408.81 -4953.248)" fill="#fff"/></g><g transform="translate(0.001 46.511)" opacity="0.6"><path d="M423.906,4927.542c.118.121-3.165,3.691-7.332,7.973s-7.643,7.655-7.761,7.533,3.164-3.691,7.333-7.973S423.788,4927.421,423.906,4927.542Z" transform="translate(-408.81 -4927.54)" fill="#fff"/></g><g transform="translate(0.206 27.647)" opacity="0.6"><path d="M424.2,4900.629c.118.122-3.165,3.692-7.332,7.973s-7.643,7.656-7.761,7.534,3.164-3.691,7.333-7.974S424.08,4900.508,424.2,4900.629Z" transform="translate(-409.102 -4900.626)" fill="#fff"/></g><g transform="translate(0.002 9.118)" opacity="0.6"><path d="M423.908,4874.194c.118.122-3.165,3.692-7.332,7.974s-7.644,7.655-7.762,7.534,3.165-3.691,7.334-7.974S423.79,4874.073,423.908,4874.194Z" transform="translate(-408.811 -4874.191)" fill="#fff"/></g><g opacity="0.6"><path d="M417.839,4861.188c.118.121-1.807,2.3-4.3,4.856s-4.609,4.539-4.728,4.417,1.806-2.3,4.3-4.857S417.721,4861.066,417.839,4861.188Z" transform="translate(-408.808 -4861.182)" fill="#fff"/></g></g></g><g transform="translate(116.562 4811.633)"><g transform="translate(0 5.723)"><path d="M352.212,4856.315s-.231-.155-.674-.466l-.824-.583-1.171-.756a40.576,40.576,0,0,0-8.295-4.011,36.571,36.571,0,0,0-6.458-1.618,30.057,30.057,0,0,0-7.9-.179,32.193,32.193,0,0,0-17.274,7.979,51.989,51.989,0,0,0-7.62,8.235c-2.3,3.16-4.6,6.533-6.971,10.019-4.73,6.987-9.591,14.582-14.639,22.616s-10.281,16.509-15.884,25.185c-2.81,4.332-5.7,8.724-8.713,13.124-1.512,2.193-2.942,4.464-4.41,6.735s-2.951,4.555-4.486,6.823a136.693,136.693,0,0,1-9.743,12.98,47.08,47.08,0,0,1-5.643,5.605,19.126,19.126,0,0,1-3.264,2.213,8.544,8.544,0,0,1-3.757,1.108,10.166,10.166,0,0,1-3.735-1.081c-1.173-.531-2.29-1.153-3.389-1.789-2.195-1.282-4.285-2.681-6.325-4.1-4.074-2.852-7.933-5.819-11.645-8.777q-2.783-2.219-5.448-4.441t-5.283-4.342c-3.507-2.811-6.952-5.49-10.382-7.942a34.4,34.4,0,0,0-10.73-5.606,24.418,24.418,0,0,0-11.107-.4,30.7,30.7,0,0,0-9.432,3.766,45.859,45.859,0,0,0-7.272,5.466c-4.2,3.854-7.745,7.252-10.622,10.05s-5.08,5-6.57,6.5l-1.693,1.706c-.381.385-.58.578-.58.578s.185-.206.56-.6l1.673-1.726c1.478-1.51,3.671-3.724,6.535-6.538s6.4-6.22,10.592-10.087a45.931,45.931,0,0,1,7.287-5.5,30.836,30.836,0,0,1,9.484-3.807,24.621,24.621,0,0,1,11.205.381,34.588,34.588,0,0,1,10.808,5.625c3.44,2.452,6.89,5.131,10.4,7.94q2.634,2.106,5.291,4.339,2.666,2.216,5.448,4.434c3.711,2.954,7.569,5.916,11.637,8.759,2.037,1.417,4.124,2.811,6.308,4.085,1.094.632,2.206,1.251,3.365,1.774a9.966,9.966,0,0,0,3.621,1.055,8.274,8.274,0,0,0,3.628-1.078,18.852,18.852,0,0,0,3.217-2.183,46.938,46.938,0,0,0,5.607-5.574,136.6,136.6,0,0,0,9.721-12.954c1.533-2.266,3.017-4.546,4.482-6.818s2.9-4.544,4.415-6.741c3.015-4.4,5.9-8.785,8.713-13.115,5.6-8.67,10.845-17.141,15.9-25.174s9.925-15.623,14.665-22.607c2.38-3.487,4.676-6.851,6.99-10.019a52.111,52.111,0,0,1,7.665-8.256,32.334,32.334,0,0,1,17.386-7.984,30.12,30.12,0,0,1,7.937.2,36.52,36.52,0,0,1,6.475,1.647,40.02,40.02,0,0,1,8.288,4.067l1.165.77.816.594C351.993,4856.145,352.212,4856.315,352.212,4856.315Z" transform="translate(-120.273 -4848.372)" fill="#ff3c00"/></g><g transform="translate(35.136 85.058)"><g transform="translate(2.5 2.556)"><path d="M180.271,4968.432a3.153,3.153,0,1,1-3.151-3.229A3.192,3.192,0,0,1,180.271,4968.432Z" transform="translate(-173.968 -4965.202)" fill="#ff3c00"/></g><path d="M176.053,4973.126a5.787,5.787,0,1,1,5.652-5.785A5.726,5.726,0,0,1,176.053,4973.126Zm0-11.028a5.245,5.245,0,1,0,5.11,5.244A5.184,5.184,0,0,0,176.053,4962.1Z" transform="translate(-170.401 -4961.556)" fill="#ff3c00"/></g><g transform="translate(204.57)"><g transform="translate(2.5 2.555)"><path d="M422,4847.081a3.153,3.153,0,1,1-3.152-3.229A3.192,3.192,0,0,1,422,4847.081Z" transform="translate(-415.697 -4843.851)" fill="#ff3c00"/></g><path d="M417.782,4851.775a5.786,5.786,0,1,1,5.652-5.784A5.726,5.726,0,0,1,417.782,4851.775Zm0-11.028a5.245,5.245,0,1,0,5.111,5.244A5.184,5.184,0,0,0,417.782,4840.748Z" transform="translate(-412.13 -4840.206)" fill="#ff3c00"/></g></g><g transform="translate(118.699 4853.672)"><g transform="translate(0.106 0.128)"><path d="M123.472,4900.364v28.146h34.736l6.382,8.944v-8.944h7.55v-28.146Z" transform="translate(-123.472 -4900.364)" fill="#fafafa"/></g><path d="M123.427,4900.31s.072,0,.222-.008l.674-.007,2.633-.016,9.969-.034,35.171-.063h.128v.128c0,8.621.008,18.132.013,28.146v.141h-7.691l.141-.141q0,4.538,0,8.944v.438l-.254-.356-6.379-8.947.111.058-34.735-.032h-.106v-.1c.024-8.686.043-15.729.057-20.612.011-2.423.02-4.307.026-5.6q.007-.948.012-1.45c0-.325.011-.487.011-.487s.007.177.011.509.007.83.012,1.47c.006,1.294.015,3.187.026,5.619.013,4.867.033,11.89.057,20.548l-.105-.105,34.735-.031h.071l.041.057,6.385,8.943-.254.081q0-4.4,0-8.944v-.142h7.691l-.141.141c0-10.014.008-19.524.013-28.146l.128.128-35.088-.062-10-.035c-1.157-.006-2.047-.011-2.659-.016-.3,0-.525,0-.687-.007S123.427,4900.31,123.427,4900.31Z" transform="translate(-123.321 -4900.182)" fill="#263238"/><g transform="translate(9.12 11.225)"><path d="M166.972,4916.338c0,.078-6.859.141-15.319.141s-15.321-.063-15.321-.141,6.858-.141,15.321-.141S166.972,4916.26,166.972,4916.338Z" transform="translate(-136.332 -4916.197)" fill="#263238"/></g><g transform="translate(9.12 17.429)"><path d="M166.972,4925.189c0,.078-6.859.141-15.319.141s-15.321-.063-15.321-.141,6.858-.142,15.321-.142S166.972,4925.111,166.972,4925.189Z" transform="translate(-136.332 -4925.048)" fill="#263238"/></g></g><g transform="translate(304.304 4774.339)"><g transform="translate(0.141 0.129)"><path d="M433,4787.184H388.321v25.355h7.387l-.554.1,6.329,8.066-.414-8.167H433Z" transform="translate(-388.321 -4787.184)" fill="#fafafa"/></g><path d="M432.941,4787.129s.008.144.011.438.006.739.011,1.308c.006,1.164.015,2.863.027,5.045.013,4.4.032,10.75.055,18.563v.1h-.105l-31.932.032.136-.143c.133,2.591.274,5.354.418,8.166l.022.439-.271-.347-6.331-8.064-.144-.185.231-.041.554-.1.025.279H388.12v-.141c0-9.026.008-17.583.012-25.354V4787h.128l32.292.063,9.151.034,2.416.016.618.007c.138,0,.2.008.2.008s-.076,0-.219.006l-.632.008-2.442.015-9.179.034-32.209.064.128-.127c0,7.771.008,16.328.013,25.354l-.141-.14h7.387l.025.28-.554.1.086-.226,6.328,8.067-.249.093c-.142-2.813-.281-5.576-.411-8.167l-.007-.143h.143l31.932.031-.1.1c.024-7.787.043-14.111.056-18.5.011-2.192.02-3.9.026-5.068q.007-.866.012-1.327C432.934,4787.288,432.941,4787.129,432.941,4787.129Z" transform="translate(-388.12 -4787)" fill="#263238"/><g transform="translate(8.551 10.25)"><path d="M400.32,4801.765c0-.078,6.237-.141,13.929-.141s13.93.063,13.93.141-6.235.141-13.93.141S400.32,4801.843,400.32,4801.765Z" transform="translate(-400.32 -4801.624)" fill="#263238"/></g><g transform="translate(8.551 15.684)"><path d="M400.32,4809.517c0-.078,6.237-.141,13.929-.141s13.93.063,13.93.141-6.235.141-13.93.141S400.32,4809.595,400.32,4809.517Z" transform="translate(-400.32 -4809.376)" fill="#263238"/></g></g><g transform="translate(146.093 4775.706)"><g transform="translate(0.001 0.097)"><path d="M206.97,4825.679a24.178,24.178,0,1,0-5.755,6.41l10.838,2.552h0Z" transform="translate(-162.406 -4789.087)" fill="#fff"/></g><path d="M201.378,4831.988l-.219-.029a23.878,23.878,0,0,1-11.434,4.747,21.433,21.433,0,0,1-3.759.176c-.646-.04-1.3-.058-1.967-.115l-2-.31a23.952,23.952,0,0,1-14.781-9.538,23.634,23.634,0,0,1-3.985-9.146,24.142,24.142,0,0,1,.289-10.521,23.344,23.344,0,0,1,5.07-9.721,23.776,23.776,0,0,1,9.108-6.506,24.179,24.179,0,0,1,10.6-1.639,23.378,23.378,0,0,1,9.739,2.863,24.087,24.087,0,0,1,11.279,13.811,25.76,25.76,0,0,1,1.061,7.715,23.826,23.826,0,0,1-3.483,11.815l-.029.047.027.047,5.167,8.917-4.978-8.96a23.883,23.883,0,0,0,3.564-11.858,25.943,25.943,0,0,0-1.039-7.812,24.365,24.365,0,0,0-11.4-14.034,23.7,23.7,0,0,0-9.884-2.923,24.514,24.514,0,0,0-10.77,1.654,24.123,24.123,0,0,0-9.258,6.609,23.706,23.706,0,0,0-5.15,9.881,24.482,24.482,0,0,0-.282,10.688,23.956,23.956,0,0,0,4.062,9.281,24.236,24.236,0,0,0,15.014,9.632l2.03.3c.672.057,1.337.072,1.991.108a21.643,21.643,0,0,0,3.8-.194,23.957,23.957,0,0,0,11.468-4.827l10.827,2.45Z" transform="translate(-162.404 -4788.949)" fill="#263238"/><g transform="translate(22.212 14.218)"><path d="M194.1,4810.736l.686,10.826a1.756,1.756,0,0,0,1.649,1.643h0a1.756,1.756,0,0,0,1.85-1.561l1.2-10.88a1.378,1.378,0,0,0-1.389-1.529l-2.64.037A1.377,1.377,0,0,0,194.1,4810.736Z" transform="translate(-194.094 -4809.234)" fill="#ff3c00"/></g><g transform="translate(22.268 30.802)"><path d="M199.324,4836.37a2.642,2.642,0,1,1-1.675-3.34A2.643,2.643,0,0,1,199.324,4836.37Z" transform="translate(-194.173 -4832.894)" fill="#ff3c00"/></g></g><g transform="translate(205.495 4901.688)"><path d="M302.9,4968.687l2.143,6.068s9.917,9.1,11.38,21.3,1.463,14.852,1.463,14.852l-3.071,35.566H248.71s-2.19-28.749-1.377-36.878,5.532-17.328,5.532-17.328l5.039-12.194.149-6.139Z" transform="translate(-247.152 -4968.687)" fill="#263238"/><g transform="translate(11.612 6.686)"><path d="M309.885,4978.228a2.839,2.839,0,0,1-.463.1l-1.337.236-4.926.809c-4.162.666-9.918,1.549-16.288,2.441s-12.155,1.6-16.351,2.019c-2.1.215-3.8.357-4.973.441l-1.356.085a3.012,3.012,0,0,1-.473.011,2.956,2.956,0,0,1,.469-.068l1.35-.137c1.173-.117,2.869-.29,4.962-.53,4.187-.468,9.962-1.213,16.332-2.1s12.127-1.744,16.3-2.359l4.939-.72,1.345-.184A2.961,2.961,0,0,1,309.885,4978.228Z" transform="translate(-263.718 -4978.225)" fill="#455a64"/></g><g transform="translate(10.815 28.209)"><path d="M272.03,5008.932a2.793,2.793,0,0,1-.242.595c-.171.375-.438.91-.786,1.56a45.054,45.054,0,0,1-6.708,9.347c-.5.538-.925.963-1.226,1.245a2.845,2.845,0,0,1-.486.419,2.814,2.814,0,0,1,.406-.5l1.157-1.3c.969-1.1,2.264-2.67,3.573-4.49s2.373-3.549,3.109-4.82l.862-1.513A2.85,2.85,0,0,1,272.03,5008.932Z" transform="translate(-262.582 -5008.932)" fill="#455a64"/></g></g><g transform="translate(286.176 4794.561)"><g transform="translate(6.92 39.684)"><path d="M382.709,4875.451s1.356,22.784,1.763,25.362-1.763,5.832-1.763,5.832-5.019.542-8.409-5.7l-2.17-4.883a31.1,31.1,0,0,0,1.22-12.885c-.814-7.323-1.22-10.714-1.22-10.714Z" transform="translate(-372.13 -4872.467)" fill="#ffbf9d"/></g><g transform="translate(0 0)"><g transform="translate(0 0.502)"><path d="M373.671,4826.975c.6,5.5.518,10.255-2.191,11.226-.228.081-2.046.152-2.287.179-3.118.337-6.17-4.222-6.814-10.182s1.36-11.067,4.478-11.4a20.244,20.244,0,0,1,2.244-.219C371.9,4817.073,373.086,4821.573,373.671,4826.975Z" transform="translate(-362.258 -4816.567)" fill="#455a64"/></g><g transform="translate(6.212 22.002)"><path d="M384.984,4855.834a2.71,2.71,0,0,1,1.873,2.967,50.932,50.932,0,0,1-1.873,6.12l-2.839,3.15-10.316-3.15a6.359,6.359,0,0,1-.7-3.083c.069-1.725,0-6,0-6a10.216,10.216,0,0,0,1.867-3.933c.346-1.784.6-3.856.668-4.494a.187.187,0,0,1,.226-.164,2.662,2.662,0,0,1,2,1.829,4.894,4.894,0,0,1,.414,2.208Z" transform="translate(-371.12 -4847.239)" fill="#ffbf9d"/></g><g transform="translate(8.855 20.893)"><path d="M377.913,4848.013l-1.475-2.355-1.547,1.194,2.869,5.671.783-2.377Z" transform="translate(-374.891 -4845.658)" fill="#455a64"/></g><g transform="translate(9.058 21.658)"><path d="M378,4848.34s1.614-2.438,3.111-1.277,1.153,1.854,0,3.984c0,0,2.939-.4,2.248,2.709,0,0,2.914-.573,2.839,1.932,0,0,2.4,1.986,1.367,3.485s-5.013,4.379-6.108,4.033-1.229-1.844-1.229-1.844a4.138,4.138,0,0,1-1.71-1.095c-.4-.634.116-1.613.116-1.613s-1.152-1-1.441-1.275,0-1.721,0-1.721l1.556-1.786s-2.247,1.21-2.766.864-1.095-.634-.634-1.382a23.705,23.705,0,0,1,2.178-2.483Z" transform="translate(-375.18 -4846.75)" fill="#ffbf9d"/></g><g transform="translate(14.353 30.596)"><path d="M382.737,4865.329a8.09,8.09,0,0,1,.686-.993,8.975,8.975,0,0,1,1.989-2.155,21.062,21.062,0,0,0,2.291-1.76,11.3,11.3,0,0,0,.754-.92,2.153,2.153,0,0,1-.609,1.056,14.412,14.412,0,0,1-2.266,1.849,10.89,10.89,0,0,0-2,2.052A3.835,3.835,0,0,1,382.737,4865.329Z" transform="translate(-382.735 -4859.501)" fill="#ff9a6c"/></g><g transform="translate(12.504 28.661)"><path d="M380.1,4862.083a22.784,22.784,0,0,1,2.2-2.817c.641-.742,1.185-1.458,1.666-1.908a2.184,2.184,0,0,1,.863-.612c.023.036-.3.271-.719.751s-.946,1.2-1.595,1.951A22.614,22.614,0,0,1,380.1,4862.083Z" transform="translate(-380.096 -4856.741)" fill="#ff9a6c"/></g><g transform="translate(12.622 25.829)"><path d="M380.269,4855.651a10.508,10.508,0,0,1,1.247-1.424,17.761,17.761,0,0,0,1.076-1.527,2.834,2.834,0,0,1-.862,1.711A4.756,4.756,0,0,1,380.269,4855.651Z" transform="translate(-380.265 -4852.7)" fill="#ff9a6c"/></g><g transform="translate(8.483 31.728)"><path d="M374.361,4861.123a2.015,2.015,0,0,1,.96.394,5.485,5.485,0,0,1,1.716,1.826,10.49,10.49,0,0,1,.979,2.3,3.534,3.534,0,0,1,.231,1,4.037,4.037,0,0,1-.419-.938,15.061,15.061,0,0,0-1.032-2.216,6.292,6.292,0,0,0-1.587-1.807C374.711,4861.308,374.343,4861.166,374.361,4861.123Z" transform="translate(-374.36 -4861.117)" fill="#ff9a6c"/></g><g transform="translate(1.837 0)"><ellipse cx="4.846" cy="10.856" rx="4.846" ry="10.856" transform="translate(0 1.043) rotate(-6.177)" fill="#263238"/></g><g transform="translate(2.875 0.794)"><path d="M371.5,4838.156c2.493-1.25,3.981-5.834,3.413-11.084-.565-5.222-2.977-9.367-5.662-10.088-2.113,1.207-3.315,5.762-2.747,11.014C367.065,4833.216,369.19,4837.392,371.5,4838.156Z" transform="translate(-366.36 -4816.984)" fill="#e0e0e0"/></g><g transform="translate(7.487 7.443)"><path d="M373.58,4836.7a92.861,92.861,0,0,1-.609-10.231,93.321,93.321,0,0,1,.609,10.231Z" transform="translate(-372.94 -4826.469)" fill="#fff"/></g><g transform="translate(6.523 4.403)"><path d="M372.237,4831.959a6.692,6.692,0,0,1-.276-1.42c-.125-.885-.257-2.113-.332-3.474s-.077-2.6-.048-3.489a6.689,6.689,0,0,1,.12-1.442,8.239,8.239,0,0,1,.079,1.443c.022.89.057,2.118.131,3.473s.173,2.58.248,3.467A8.165,8.165,0,0,1,372.237,4831.959Z" transform="translate(-371.564 -4822.133)" fill="#fff"/></g><g transform="translate(8.966 21.59)"><path d="M377.96,4848.3a.685.685,0,0,1-.015.172l-.076.491-.32,1.878,0,.018-.014.015c-.315.328-.669.7-1.05,1.129a10.085,10.085,0,0,0-1.146,1.451.7.7,0,0,0-.093.438.68.68,0,0,0,.261.379,4.6,4.6,0,0,0,.444.309.635.635,0,0,0,.479.054,9.117,9.117,0,0,0,2.228-.9l.526-.272-.386.447-1.55,1.792.023-.038a2.157,2.157,0,0,0,.057,1.723,4.782,4.782,0,0,0,1.45,1.25l.122.077-.083.117c-.331.467-.535,1.177-.018,1.561a6.291,6.291,0,0,0,1.692.96l-.189.126v-.039c.039.037-.088-.092.09.112.365-.211.1-.082.184-.12h0l0,.065.013.138a2.649,2.649,0,0,0,.05.276,2.128,2.128,0,0,0,.191.522,1.423,1.423,0,0,0,.337.424.842.842,0,0,0,.459.214,2.685,2.685,0,0,0,1.1-.313,9.99,9.99,0,0,0,1.066-.592,18.259,18.259,0,0,0,1.871-1.358,11.506,11.506,0,0,0,1.606-1.561,1.4,1.4,0,0,0,.374-.926,2.153,2.153,0,0,0-.266-.978,5.647,5.647,0,0,0-1.3-1.589l-.046-.041,0-.065a2.13,2.13,0,0,0-.181-.961,1.444,1.444,0,0,0-.653-.652,3.189,3.189,0,0,0-1.85-.2l-.169.025.027-.171c.029-.187.067-.374.089-.558a3.161,3.161,0,0,0,0-.546,1.51,1.51,0,0,0-.385-.934,2.219,2.219,0,0,0-1.815-.54l-.2.017.092-.169a16.408,16.408,0,0,0,.82-1.631,2.273,2.273,0,0,0,.177-.788,1.27,1.27,0,0,0-.212-.7,3.2,3.2,0,0,0-1.013-.93,1.369,1.369,0,0,0-1.113-.02,3.689,3.689,0,0,0-1.3.975c-.129.139-.219.252-.282.327a.67.67,0,0,1-.1.11.477.477,0,0,1,.074-.129,4.153,4.153,0,0,1,.261-.347,4.474,4.474,0,0,1,.49-.512,2.822,2.822,0,0,1,.814-.532,1.485,1.485,0,0,1,1.216,0l.3.183.276.223a2.926,2.926,0,0,1,.514.562,1.433,1.433,0,0,1,.25.792,2.465,2.465,0,0,1-.179.855,16.371,16.371,0,0,1-.812,1.662l-.106-.152a3.084,3.084,0,0,1,1.042.061,1.9,1.9,0,0,1,.968.531,1.739,1.739,0,0,1,.453,1.063,3.274,3.274,0,0,1,.008.592c-.022.2-.06.392-.09.59l-.142-.146a3.418,3.418,0,0,1,2.01.206,1.7,1.7,0,0,1,.772.766,2.389,2.389,0,0,1,.213,1.084l-.048-.106a5.885,5.885,0,0,1,1.377,1.668,2.425,2.425,0,0,1,.3,1.106,1.743,1.743,0,0,1-.116.591,2.5,2.5,0,0,1-.315.5,11.738,11.738,0,0,1-1.644,1.605,18.534,18.534,0,0,1-1.9,1.38,10.167,10.167,0,0,1-1.1.608,2.88,2.88,0,0,1-1.234.339,1.4,1.4,0,0,1-1.025-.787,2.465,2.465,0,0,1-.216-.591,2.974,2.974,0,0,1-.054-.3l-.014-.155,0-.082v-.021c.08-.037-.181.09.185-.122.178.2.053.074.091.114v.287l-.188-.081a6.483,6.483,0,0,1-1.775-1.018,1.329,1.329,0,0,1-.326-.437,1.083,1.083,0,0,1-.069-.542,2.088,2.088,0,0,1,.385-.941l.039.194a5.022,5.022,0,0,1-1.534-1.342,1.8,1.8,0,0,1-.24-.988,3.187,3.187,0,0,1,.17-.954l.007-.021.016-.018,1.562-1.781.14.176a9.166,9.166,0,0,1-2.3.9.831.831,0,0,1-.621-.091,4.5,4.5,0,0,1-.46-.327.865.865,0,0,1-.32-.493.885.885,0,0,1,.116-.555,9.821,9.821,0,0,1,1.194-1.47c.39-.421.752-.791,1.077-1.113l-.017.032c.162-.8.289-1.425.381-1.877l.106-.482A.671.671,0,0,1,377.96,4848.3Z" transform="translate(-375.05 -4846.653)" fill="#ff9a6c"/></g></g></g><g transform="translate(176.555 4893.028)"><path d="M237.491,4981.731l-20.457-25.4s-10.879,9.159-11.167,9.447,17.016,17.121,28.13,23.638l3.495-2.313Z" transform="translate(-205.863 -4956.331)" fill="#ffbf9d"/><g transform="translate(27.564 16.549)"><path d="M266.434,4980.64s-6.459-1.02-7.054-.595-5.014,3.4-5.014,3.4a24.185,24.185,0,0,1-1.955,2.634s-1.445,1.7-2.55,1.87a4.978,4.978,0,0,1-1.785,0l-2.889,7.988s2.209,2.295,3.569,2.125,8.584-4.165,8.584-4.165l1.785-.6s6.969.256,7.309-1.869v-.6l-6.884-.595-2.55.425,4.419-1.662s6.459-.378,7.054-.548,1.275-1.1,1.02-1.615l-1.36-.17s1.467-1.014,1.415-1.949l-6.114-.97S267.114,4981.915,266.434,4980.64Z" transform="translate(-245.188 -4979.941)" fill="#ffbf9d"/><g transform="translate(10.184 5.339)"><path d="M273.183,4988.855a2.6,2.6,0,0,1-.56-.078c-.357-.064-.874-.148-1.515-.243-1.282-.19-3.059-.415-5.026-.634a6.42,6.42,0,0,0-.711-.06,2.159,2.159,0,0,0-.655.117c-.415.164-.835.36-1.219.537-.775.362-1.461.713-2.022,1.03s-1,.6-1.293.812a3.047,3.047,0,0,1-.463.322,1.675,1.675,0,0,1,.4-.408,10.144,10.144,0,0,1,1.26-.9c.555-.343,1.237-.717,2.012-1.094.393-.187.787-.379,1.239-.562a2.435,2.435,0,0,1,.741-.137,6.168,6.168,0,0,1,.749.061c1.97.219,3.749.476,5.027.717.639.12,1.154.234,1.506.333A1.915,1.915,0,0,1,273.183,4988.855Z" transform="translate(-259.717 -4987.559)" fill="#ff9a6c"/></g><g transform="translate(10.071 3.366)"><path d="M267.912,4985.465c-.018.044-.5-.167-1.316-.325a7.164,7.164,0,0,0-6.047,1.567c-.637.535-.954.952-.992.923a3.426,3.426,0,0,1,.859-1.072,6.706,6.706,0,0,1,6.223-1.613A3.412,3.412,0,0,1,267.912,4985.465Z" transform="translate(-259.556 -4984.745)" fill="#ff9a6c"/></g></g></g><g transform="translate(168.135 4829.715)"><g transform="translate(0 0)"><g transform="translate(91.334 8.73)"><path d="M370.169,4903.486a10.593,10.593,0,0,1,1.245,4.361,25.093,25.093,0,0,1-1.239,5.824l-1.541,1.457s1.011,4.633-4.856,5.957-38.707-17.555-38.707-17.555l-.915-25.071a29.034,29.034,0,0,1,8.207,5.428c3.442,3.441,23.034,17.871,23.034,17.871s.8-5.112,1.678-4.774S370.169,4903.486,370.169,4903.486Z" transform="translate(-324.155 -4878.459)" fill="#e0e0e0"/></g><g transform="translate(30.72)"><path d="M298.292,4874.734l-17.773-3.78-4.627-4.755-20.438-.2-2.462,4.474-15.315,9.313s3.856,25.509,5.264,28.48,12.559,35.774,12.559,35.774l44.556-5.316.381-20.587,1.288-9.961a29.53,29.53,0,0,0,.127-6.425C301.019,4892.438,298.292,4874.734,298.292,4874.734Z" transform="translate(-237.678 -4866.004)" fill="#e0e0e0"/></g><g transform="translate(0 13.778)"><path d="M219.295,4941.316l-14.6,10.016-5.1-7.274,1.364-1.212s-7.536-6.229-7.081-10.623,8.4-15.7,8.4-15.7,17.024-27.869,22.3-30.856c.738-.418,7.142,15.049,7.142,21.11s-1.213,6.062-1.213,6.062-5.152,5-7.576,9.546-6.542,9.5-9.27,11.314Z" transform="translate(-193.851 -4885.661)" fill="#e0e0e0"/></g><g transform="translate(11.637 58.209)"><path d="M210.453,4949.092a1.106,1.106,0,0,1,.394-.039,7.334,7.334,0,0,1,1.073.059,10.556,10.556,0,0,1,3.392,1.029,11.24,11.24,0,0,1,2.879,2.066,4.916,4.916,0,0,1,.932,1.133,16.861,16.861,0,0,0-3.937-2.947,12.239,12.239,0,0,0-3.3-1.084C211.011,4949.157,210.452,4949.141,210.453,4949.092Z" transform="translate(-210.453 -4949.05)" fill="#263238"/></g><g transform="translate(16.089 53.318)"><path d="M216.806,4942.073a4.363,4.363,0,0,1,1.086.924,10.064,10.064,0,0,1,1.883,2.884,10.29,10.29,0,0,1,.817,3.347,4.429,4.429,0,0,1-.06,1.425c-.048,0-.036-.544-.139-1.406a11.965,11.965,0,0,0-.878-3.253,11.684,11.684,0,0,0-1.773-2.864C217.183,4942.467,216.775,4942.109,216.806,4942.073Z" transform="translate(-216.805 -4942.071)" fill="#263238"/></g><g transform="translate(65.43 37.461)"><path d="M293.9,4919.449a3.773,3.773,0,0,1,.132.737,7.44,7.44,0,0,1,.086.876c.016.343.054.734.036,1.166a13.6,13.6,0,0,1-.067,1.414c-.029.509-.123,1.045-.209,1.611a18.609,18.609,0,0,1-2.722,6.887c-.324.472-.622.927-.949,1.318a13.606,13.606,0,0,1-.918,1.077c-.282.329-.578.587-.824.826a7.172,7.172,0,0,1-.661.581,3.691,3.691,0,0,1-.6.448c-.039-.045.8-.7,1.937-1.988.281-.322.587-.677.88-1.086.315-.392.6-.847.916-1.316a19.484,19.484,0,0,0,2.685-6.793c.092-.557.193-1.085.232-1.587.064-.5.084-.967.1-1.394C294,4920.512,293.837,4919.455,293.9,4919.449Z" transform="translate(-287.198 -4919.449)" fill="#263238"/></g><g transform="translate(46.032 4.474)"><path d="M284.515,4895.666a2.6,2.6,0,0,1-.346-.261c-.224-.175-.538-.45-.969-.775-.843-.672-2.1-1.6-3.7-2.7s-3.528-2.373-5.668-3.816a68.566,68.566,0,0,1-6.767-5.044l.208-.023c-.227.324-.459.681-.678,1.048a15.485,15.485,0,0,0-1.865,4.941l-.081.43-.178-.4a68.9,68.9,0,0,1-4-11.812c-.364-1.511-.609-2.728-.754-3.568-.078-.419-.121-.746-.156-.965a1.752,1.752,0,0,1-.036-.337,1.8,1.8,0,0,1,.084.329c.05.241.117.557.2.956.174.832.445,2.041.832,3.543a73.441,73.441,0,0,0,4.08,11.741l-.259.032a15.625,15.625,0,0,1,1.891-5.035c.223-.374.459-.737.691-1.067l.09-.127.118.1a71.4,71.4,0,0,0,6.724,5.043c2.129,1.455,4.056,2.742,5.636,3.868s2.829,2.075,3.654,2.774c.421.338.725.627.937.816A2.483,2.483,0,0,1,284.515,4895.666Z" transform="translate(-259.523 -4872.387)" fill="#263238"/></g><g transform="translate(71.023 4.95)"><path d="M297.716,4873.066a1.092,1.092,0,0,1,.148.225c.09.151.224.375.384.669.327.589.782,1.456,1.313,2.559a43.6,43.6,0,0,1,3.3,9.2l.084.373-.3-.235a20.065,20.065,0,0,1-3.953-4.091l.254-.075c-.176,3.129-.336,5.988-.468,8.333v.025l-.012.022-2.366,4.243-.664,1.158a2.705,2.705,0,0,1-.253.4,2.522,2.522,0,0,1,.195-.427c.155-.3.359-.7.613-1.187l2.28-4.289-.013.047c.116-2.346.257-5.206.411-8.336l.02-.4.233.322a20.452,20.452,0,0,0,1.358,1.675,20.211,20.211,0,0,0,2.538,2.362l-.22.137a46.538,46.538,0,0,0-3.194-9.183c-.507-1.111-.936-1.989-1.236-2.589l-.341-.692A1.063,1.063,0,0,1,297.716,4873.066Z" transform="translate(-295.178 -4873.066)" fill="#263238"/></g><g transform="translate(93.305 17.577)"><path d="M328.8,4910.294c-.077.008-.548-4.287-1.051-9.593s-.849-9.613-.771-9.62.548,4.288,1.051,9.594S328.879,4910.287,328.8,4910.294Z" transform="translate(-326.967 -4891.081)" fill="#263238"/></g><g transform="translate(122.522 31.71)"><path d="M372.873,4918.965a4.569,4.569,0,0,1-.949-.906,14.373,14.373,0,0,1-3.016-5.527,4.546,4.546,0,0,1-.248-1.287,21.019,21.019,0,0,0,4.213,7.72Z" transform="translate(-368.651 -4911.245)" fill="#263238"/></g><g transform="translate(122.139 30.286)"><path d="M370.048,4918.978c-.016.011-.109-.1-.266-.307a6.677,6.677,0,0,1-.583-.941,9.791,9.791,0,0,1-.739-7.122,6.715,6.715,0,0,1,.377-1.04c.111-.237.179-.363.2-.356.046.02-.175.55-.381,1.445a10.854,10.854,0,0,0,.725,6.984C369.764,4918.475,370.089,4918.949,370.048,4918.978Z" transform="translate(-368.104 -4909.212)" fill="#263238"/></g><g transform="translate(30.056 29.425)"><path d="M236.734,4907.985a2.625,2.625,0,0,1,.292.544l.717,1.517c.637,1.339,1.465,3.076,2.38,5,.932,1.952,1.752,3.732,2.309,5.038.278.651.5,1.184.635,1.555a2.594,2.594,0,0,1,.192.587,2.556,2.556,0,0,1-.292-.544c-.2-.413-.435-.919-.717-1.517l-2.381-5c-.932-1.952-1.752-3.731-2.308-5.037-.279-.652-.5-1.184-.636-1.556A2.578,2.578,0,0,1,236.734,4907.985Z" transform="translate(-236.731 -4907.985)" fill="#263238"/></g></g><g transform="translate(75.737 59.144)"><path d="M308.71,4950.384a3.059,3.059,0,0,1-.159.658c-.118.419-.308,1.02-.554,1.758-.493,1.476-1.241,3.495-2.183,5.677s-1.9,4.11-2.638,5.48c-.368.687-.676,1.236-.9,1.609a3.054,3.054,0,0,1-.37.566,3.132,3.132,0,0,1,.273-.619l.819-1.648c.69-1.392,1.616-3.327,2.557-5.5s1.712-4.174,2.253-5.631l.639-1.725A3.125,3.125,0,0,1,308.71,4950.384Z" transform="translate(-301.903 -4950.384)" fill="#263238"/></g><g transform="translate(77.973 68.222)"><path d="M309.348,4963.335a3.7,3.7,0,0,1-.432,1,20.614,20.614,0,0,1-3.022,4.3,3.7,3.7,0,0,1-.8.746c-.062-.058,1.047-1.291,2.216-2.96S309.273,4963.3,309.348,4963.335Z" transform="translate(-305.093 -4963.334)" fill="#263238"/></g><g transform="translate(70.935 27.671)"><path d="M303.177,4946.033a2.294,2.294,0,0,1-.061-.417q-.046-.453-.121-1.2c-.093-1.046-.245-2.557-.441-4.423-.41-3.729-1.044-8.879-2.132-14.5a135.565,135.565,0,0,0-3.507-14.225c-.267-.9-.529-1.707-.761-2.415s-.428-1.32-.6-1.814l-.383-1.147a2.343,2.343,0,0,1-.116-.406,2.35,2.35,0,0,1,.169.387l.433,1.129c.19.49.407,1.1.648,1.8s.523,1.509.8,2.406a121.323,121.323,0,0,1,3.594,14.231c1.09,5.632,1.693,10.794,2.053,14.533.17,1.871.292,3.386.352,4.435q.042.754.067,1.207A2.355,2.355,0,0,1,303.177,4946.033Z" transform="translate(-295.053 -4905.482)" fill="#263238"/></g><g transform="translate(79.617 66.766)"><path d="M307.8,4966.294a6.346,6.346,0,0,0-.355-5.036c.027-.02.238.2.468.631a4.724,4.724,0,0,1,.262,3.713C308.007,4966.063,307.829,4966.31,307.8,4966.294Z" transform="translate(-307.439 -4961.257)" fill="#263238"/></g><g transform="translate(79.035 72.879)"><path d="M306.71,4971.517c-.077,0-.12-.352-.1-.777s.109-.766.186-.761.121.353.1.778S306.788,4971.522,306.71,4971.517Z" transform="translate(-306.608 -4969.979)" fill="#263238"/></g><g transform="translate(5.736 63.935)"><path d="M217.13,4957.223a3.167,3.167,0,0,1-.648.221c-.421.12-1.027.312-1.765.572s-1.6.605-2.554,1.016c-.942.428-1.962.934-3,1.514a44.687,44.687,0,0,0-5.107,3.364c-.624.475-1.124.867-1.464,1.144a3.158,3.158,0,0,1-.552.4,3.226,3.226,0,0,1,.481-.488c.32-.3.8-.72,1.412-1.217a36.778,36.778,0,0,1,5.092-3.454c1.051-.585,2.083-1.087,3.038-1.506.963-.4,1.84-.739,2.6-.967s1.369-.4,1.8-.489A3.193,3.193,0,0,1,217.13,4957.223Z" transform="translate(-202.034 -4957.218)" fill="#263238"/></g><g transform="translate(7.917 63.868)"><path d="M217.491,4957.209c0,.049-.742.026-1.925.13a20.14,20.14,0,0,0-4.523.953,24.543,24.543,0,0,0-4.222,1.906c-1.034.587-1.648,1-1.674.961a1.858,1.858,0,0,1,.4-.337c.265-.2.666-.478,1.174-.8a20.456,20.456,0,0,1,4.234-2,17.33,17.33,0,0,1,4.6-.885,11.99,11.99,0,0,1,1.42,0A1.872,1.872,0,0,1,217.491,4957.209Z" transform="translate(-205.146 -4957.123)" fill="#263238"/></g><g transform="translate(30.951 31.363)" opacity="0.3"><path d="M238.132,4910.749a11.59,11.59,0,0,0,5.081,11.267C241.937,4918.766,239.725,4914.093,238.132,4910.749Z" transform="translate(-238.008 -4910.749)"/></g><g transform="translate(51.78 15.034)" opacity="0.3"><path d="M267.725,4891.127a12.307,12.307,0,0,0,2.778,3.7l-.054-2.961,13.569,6.03-14.565-10.438c-.8,1.338-.934,2.336-1.728,3.674" transform="translate(-267.725 -4887.453)"/></g><g transform="translate(74.216 13.569)" opacity="0.3"><path d="M302.351,4888.2c-.581-.912-2.185-2.833-2.185-2.833-.052,1.421-.175,3.367-.227,4.789l-.2,3.406c.21-1.187.367-3.479.577-4.665l2.524,2.391A3.555,3.555,0,0,0,302.351,4888.2Z" transform="translate(-299.734 -4885.363)"/></g><g transform="translate(93.39 19.891)" opacity="0.3"><path d="M327.089,4894.382l1.729,15.626C329.572,4904.925,330.956,4902.163,327.089,4894.382Z" transform="translate(-327.089 -4894.382)"/></g><g transform="translate(122.579 31.966)" opacity="0.3"><path d="M378.137,4922.061a19.859,19.859,0,0,0-2.829-1.277c-3.365-1.829-5.148-5.175-6.46-8.773l-.116-.4c.135,4.824,3.193,9.979,7.594,11.958a2.582,2.582,0,0,0,1.444.305,1.021,1.021,0,0,0,.9-1.014A1.31,1.31,0,0,0,378.137,4922.061Z" transform="translate(-368.732 -4911.608)"/></g><g transform="translate(62.208 44.14)" opacity="0.3"><path d="M282.6,4940.654c5.569-1.847,8.254-7.092,9.682-11.676a18.455,18.455,0,0,1-.709,5.892,9.363,9.363,0,0,1-3.319,4.828,6.317,6.317,0,0,1-5.654.956" transform="translate(-282.602 -4928.979)"/></g><g transform="translate(8.074 64.204)" opacity="0.3"><path d="M217.044,4957.7a16.177,16.177,0,0,0-11.274,3.639c-.229.19-.477.464-.379.746a.519.519,0,0,0,.55.292,1.555,1.555,0,0,0,.615-.257,48.441,48.441,0,0,1,10.488-4.513" transform="translate(-205.369 -4957.602)"/></g><g transform="translate(76.522 53.114)" opacity="0.3"><path d="M313.07,4942.091a1.135,1.135,0,0,0-1.532-.027,3.3,3.3,0,0,0-.885,1.426l-6.615,16.419-1.014,2.435,6.935-11.624a22.673,22.673,0,0,0,3.273-7.36A1.555,1.555,0,0,0,313.07,4942.091Z" transform="translate(-303.024 -4941.781)"/></g></g><g transform="translate(202.123 4780.273)"><g transform="translate(0 0)"><g transform="translate(3.553)"><path d="M250.943,4806.066c4.1-5.725,10.9-9.076,17.828-10.345,2.915-.535,4.826-.147,7.731.44a12.54,12.54,0,0,1,7.437,4.265,21.034,21.034,0,0,1,4.717,9.317,58.993,58.993,0,0,1,1.206,10.763,19.763,19.763,0,0,1-2.72,10.358l-9.054,2.176c-5.045.5-10.161.988-15.161.15s-9.956-3.184-12.87-7.333C246.01,4820.094,246.84,4811.791,250.943,4806.066Z" transform="translate(-247.41 -4795.466)" fill="#263238"/></g><g transform="translate(40.844 32.158)"><path d="M300.614,4849.918c-.017.022.163.216.578.446a4.5,4.5,0,0,0,1.927.517,4.905,4.905,0,0,0,2.872-.776,4.893,4.893,0,0,0,1.346-6.628,4.906,4.906,0,0,0-2.342-1.835,4.5,4.5,0,0,0-1.976-.275,1.4,1.4,0,0,0-.705.185,6.818,6.818,0,0,1,2.535.449,4.727,4.727,0,0,1,2.066,1.751,4.508,4.508,0,0,1-1.206,5.936,4.72,4.72,0,0,1-2.584.807A6.84,6.84,0,0,1,300.614,4849.918Z" transform="translate(-300.612 -4841.346)" fill="#e0e0e0"/></g><g transform="translate(0 30.426)"><path d="M242.349,4845.106a6.845,6.845,0,0,1,2.77-5.351,4.93,4.93,0,0,1,5.811.132l1.548,1.623a5.922,5.922,0,0,1,3.78,5.743,6.488,6.488,0,0,1-4.152,5.585,7.181,7.181,0,0,1-6.931-1.213A8.052,8.052,0,0,1,242.349,4845.106Z" transform="translate(-242.341 -4838.874)" fill="#263238"/></g><g transform="translate(1.282 32.517)"><path d="M245.105,4852.057a3.111,3.111,0,0,1-.609-1.79,8.293,8.293,0,0,1,1.833-4.25,12.4,12.4,0,0,1,3.481-3.176c1.036-.645,1.76-.9,1.732-.976a5.011,5.011,0,0,0-1.89.7,11.062,11.062,0,0,0-3.684,3.184,10.847,10.847,0,0,0-1.336,2.346,4.962,4.962,0,0,0-.454,2.183,2.583,2.583,0,0,0,.5,1.425C244.907,4851.986,245.09,4852.077,245.105,4852.057Z" transform="translate(-244.17 -4841.858)" fill="#455a64"/></g><g transform="translate(6.163 33.423)"><path d="M251.79,4854.864a16.209,16.209,0,0,1,2.279-11.712,4.94,4.94,0,0,0-1.124,1.437,12.776,12.776,0,0,0-1.658,8.522A4.947,4.947,0,0,0,251.79,4854.864Z" transform="translate(-251.134 -4843.151)" fill="#455a64"/></g><g transform="translate(8.876 3.298)"><g transform="translate(3.432)"><path d="M282.777,4849.3c-.266-3.208-.51-5.835-.509-5.821s7.413-1.3,8.865-11c.722-4.825.409-12.72-.055-19.173-.418-5.808-5.872-13.405-13.048-12.972l-3.212-.167-11.9,5.631a3.407,3.407,0,0,0-3.017,3.483l2.607,41.494,22.118,23.288,1.269-6.57Z" transform="translate(-259.902 -4800.172)" fill="#ffbf9d"/></g><g transform="translate(20.164 29.093)"><path d="M283.776,4843.574a2.038,2.038,0,0,1,.624-1.3,2.086,2.086,0,0,1,2.516-.306,2.8,2.8,0,0,1,1.226,2.55h0a2.539,2.539,0,0,1-1.747,1.168,2.921,2.921,0,0,1-.34.033,2.277,2.277,0,0,1-1.573-.509A2.03,2.03,0,0,1,283.776,4843.574Z" transform="translate(-283.772 -4841.678)" fill="#ff9a6c"/></g><g transform="translate(12.795 9.993)"><g transform="translate(16.776 8.619)"><path d="M299.672,4827.837a1.244,1.244,0,0,1-1.187,1.265,1.189,1.189,0,0,1-1.29-1.109,1.243,1.243,0,0,1,1.185-1.264A1.189,1.189,0,0,1,299.672,4827.837Z" transform="translate(-297.193 -4826.726)" fill="#263238"/></g><g transform="translate(14.755 5.597)"><path d="M299.221,4823.7c-.153.164-1.1-.524-2.437-.509-1.335,0-2.31.692-2.457.53-.072-.072.083-.366.507-.681a3.407,3.407,0,0,1,1.965-.625,3.277,3.277,0,0,1,1.942.607C299.153,4823.333,299.3,4823.624,299.221,4823.7Z" transform="translate(-294.31 -4822.413)" fill="#263238"/></g><g transform="translate(11.213 6.375)"><path d="M289.982,4834.655a8.892,8.892,0,0,1,2.167-.411c.341-.038.664-.109.719-.343a1.733,1.733,0,0,0-.237-1.009q-.492-1.236-1.033-2.591a44.729,44.729,0,0,1-2.328-6.779,44.683,44.683,0,0,1,2.868,6.575q.518,1.365.99,2.606a1.972,1.972,0,0,1,.189,1.338.858.858,0,0,1-.557.5,2.313,2.313,0,0,1-.579.086A8.629,8.629,0,0,1,289.982,4834.655Z" transform="translate(-289.257 -4823.522)" fill="#263238"/></g><g transform="translate(0 29.974)"><path d="M286.263,4860.536a24.646,24.646,0,0,1-13-3.344s3.516,6.683,13.2,5.69Z" transform="translate(-273.259 -4857.192)" fill="#ff9a6c"/></g><g transform="translate(7.802 18.468)"><path d="M284.6,4840.776c.217-.015.233,1.437,1.485,2.455s2.794.846,2.807,1.048c.021.091-.342.285-.995.309a3.61,3.61,0,0,1-2.342-.792,3.149,3.149,0,0,1-1.152-2.06C284.343,4841.129,284.5,4840.768,284.6,4840.776Z" transform="translate(-284.39 -4840.776)" fill="#263238"/></g><g transform="translate(14.482)"><path d="M298.475,4815.792c-.232.306-1.156,0-2.263-.006-1.107-.044-2.043.222-2.262-.094-.1-.152.049-.458.456-.75a3.278,3.278,0,0,1,3.646.081C298.446,4815.331,298.577,4815.643,298.475,4815.792Z" transform="translate(-293.921 -4814.428)" fill="#263238"/></g><g transform="translate(4.22 8.846)"><path d="M279.28,4828.227a1.243,1.243,0,0,0,1.255,1.2,1.189,1.189,0,0,0,1.227-1.178,1.243,1.243,0,0,0-1.253-1.2A1.189,1.189,0,0,0,279.28,4828.227Z" transform="translate(-279.28 -4827.049)" fill="#263238"/></g><g transform="translate(2.127 6.457)"><path d="M276.315,4825.06c.161.155,1.069-.585,2.4-.643,1.333-.078,2.345.564,2.483.394.067-.077-.1-.361-.544-.652a3.416,3.416,0,0,0-2-.515,3.273,3.273,0,0,0-1.905.713C276.362,4824.692,276.236,4824.991,276.315,4825.06Z" transform="translate(-276.293 -4823.64)" fill="#263238"/></g><g transform="translate(2.127 4.515)"><path d="M276.333,4822.364c.249.292,1.154-.065,2.26-.131,1.1-.1,2.053.109,2.253-.219.088-.158-.074-.455-.5-.723a3.278,3.278,0,0,0-3.636.282C276.336,4821.9,276.223,4822.221,276.333,4822.364Z" transform="translate(-276.293 -4820.87)" fill="#263238"/></g></g><g transform="translate(0 22.776)"><path d="M261.9,4835.267c-.008-.721-.857-2.415-1.57-2.519-1.905-.28-5.333-.1-5.321,4.736.015,6.6,6.643,5.227,6.655,5.037C261.668,4842.373,261.925,4837.758,261.9,4835.267Z" transform="translate(-255.005 -4832.666)" fill="#ffbf9d"/><g transform="translate(1.108 2.076)"><path d="M259.54,4840.851c-.029-.021-.115.081-.309.17a1.15,1.15,0,0,1-.86.02,2.849,2.849,0,0,1-1.323-2.552,3.8,3.8,0,0,1,.318-1.648,1.329,1.329,0,0,1,.864-.885.587.587,0,0,1,.68.313c.089.185.047.317.082.328.018.017.142-.111.088-.383a.733.733,0,0,0-.261-.414.873.873,0,0,0-.637-.167,1.618,1.618,0,0,0-1.2,1.027,3.9,3.9,0,0,0-.394,1.841,2.985,2.985,0,0,0,1.685,2.848,1.231,1.231,0,0,0,1.051-.177C259.529,4841.01,259.564,4840.863,259.54,4840.851Z" transform="translate(-256.586 -4835.628)" fill="#ff9a6c"/></g></g></g><g transform="translate(8.842 2.261)"><path d="M259.28,4822.475l1.782,1.627c6.777-7.37,19.779-25.571,19.057-24.49a21.063,21.063,0,0,0-10.384-.461c-5.309,1.257-15.317,4.594-14.757,10.915S259.28,4822.475,259.28,4822.475Z" transform="translate(-254.956 -4798.692)" fill="#263238"/></g><g transform="translate(6.416 34.244)"><path d="M259.445,4852.5c.02.021-.135.236-.516.516a4.494,4.494,0,0,1-1.846.758,4.9,4.9,0,0,1-2.948-.4,4.894,4.894,0,0,1-2.178-6.4,4.908,4.908,0,0,1,2.091-2.118,4.489,4.489,0,0,1,1.925-.524,1.4,1.4,0,0,1,.723.094,6.814,6.814,0,0,0-2.457.769,4.721,4.721,0,0,0-1.826,2,4.508,4.508,0,0,0,1.951,5.734,4.721,4.721,0,0,0,2.666.471A6.818,6.818,0,0,0,259.445,4852.5Z" transform="translate(-251.494 -4844.321)" fill="#e0e0e0"/></g><g transform="translate(8.429 1.23)"><path d="M254.626,4827.817a13.956,13.956,0,0,0-.032-1.532,23.023,23.023,0,0,1,.287-4.143,28.171,28.171,0,0,1,5.455-12.415,44.856,44.856,0,0,1,10-9.335c1.441-1.013,2.64-1.786,3.473-2.316a10.684,10.684,0,0,0,1.275-.854,1.351,1.351,0,0,0-.364.161c-.231.121-.573.3-1,.543-.862.484-2.092,1.219-3.564,2.2a42.267,42.267,0,0,0-10.175,9.326,27.368,27.368,0,0,0-5.41,12.64,20.106,20.106,0,0,0-.147,4.2c.021.5.1.875.127,1.134A1.329,1.329,0,0,0,254.626,4827.817Z" transform="translate(-254.367 -4797.221)" fill="#455a64"/></g><g transform="translate(6.386 1.109)"><path d="M270.041,4797.05a1.359,1.359,0,0,0-.376.151c-.241.109-.589.284-1.035.519-.889.468-2.159,1.18-3.671,2.155a55.838,55.838,0,0,0-5.108,3.717,32.434,32.434,0,0,0-5.491,5.467,15.018,15.018,0,0,0-1.982,3.524,13.952,13.952,0,0,0-.848,3.67,21.887,21.887,0,0,0,.421,6.318c.357,1.767.768,3.165,1.061,4.125.147.48.271.849.359,1.1a1.366,1.366,0,0,0,.156.373,11.3,11.3,0,0,0-.346-1.52c-.241-.972-.6-2.377-.918-4.135a22.528,22.528,0,0,1-.32-6.217,13.757,13.757,0,0,1,.847-3.553,14.835,14.835,0,0,1,1.932-3.415,33.368,33.368,0,0,1,5.394-5.416c1.815-1.515,3.538-2.768,5.019-3.771s2.721-1.754,3.581-2.268A12.235,12.235,0,0,0,270.041,4797.05Z" transform="translate(-251.453 -4797.047)" fill="#455a64"/></g><g transform="translate(13.045 2.289)"><path d="M260.954,4822.66a6.066,6.066,0,0,0,.807-.887c.544-.662,1.238-1.509,2.068-2.521,1.731-2.14,4.1-5.114,6.686-8.417s4.918-6.309,6.584-8.5l1.955-2.608a6.1,6.1,0,0,0,.669-1,6.06,6.06,0,0,0-.805.885l-2.067,2.52c-1.731,2.14-4.1,5.116-6.69,8.42s-4.918,6.311-6.585,8.5l-1.955,2.607A6.138,6.138,0,0,0,260.954,4822.66Z" transform="translate(-260.953 -4798.732)" fill="#e0e0e0"/></g></g><g transform="translate(27.788 31.05)"><path d="M284.352,4840.051a3.349,3.349,0,0,0-2.358.512c-.068-.035.311-.591,1.072-.752A1.343,1.343,0,0,1,284.352,4840.051Z" transform="translate(-281.986 -4839.765)" fill="#ff9a6c"/></g><g transform="translate(20.818 22.843)"><path d="M274.5,4828.246a3.485,3.485,0,0,1-2.458-.151,13.223,13.223,0,0,1,2.458.151Z" transform="translate(-272.042 -4828.056)" fill="#ff9a6c"/></g><g transform="translate(21.262 23.434)"><path d="M274.39,4828.953c.01.079-.372.191-.834.338s-.841.27-.878.2.3-.316.793-.468S274.381,4828.877,274.39,4828.953Z" transform="translate(-272.675 -4828.899)" fill="#ff9a6c"/></g><g transform="translate(41.689 22.25)"><path d="M303.325,4827.24c.027.073-.289.256-.7.409s-.774.217-.8.144.289-.256.7-.408S303.3,4827.167,303.325,4827.24Z" transform="translate(-301.818 -4827.21)" fill="#ff9a6c"/></g><g transform="translate(41.641 23.045)"><path d="M303.206,4828.877c-.025.073-.372.021-.774-.117s-.707-.31-.682-.383.371-.022.774.117S303.231,4828.8,303.206,4828.877Z" transform="translate(-301.749 -4828.344)" fill="#ff9a6c"/></g></g><g transform="translate(107.866 4979.331)"><path d="M354.866,5079.6c0,.078-55.3.141-123.494.141-68.221,0-123.506-.063-123.506-.141s55.286-.141,123.506-.141C299.569,5079.458,354.866,5079.521,354.866,5079.6Z" transform="translate(-107.866 -5079.458)" fill="#263238"/></g></g></svg>