<svg xmlns="http://www.w3.org/2000/svg" xmlns:xlink="http://www.w3.org/1999/xlink" width="400" height="376" viewBox="0 0 400 376"><defs><clipPath id="a"><rect width="400" height="376" transform="translate(180 4908)" fill="#fff" stroke="#707070" stroke-width="1"/></clipPath></defs><g transform="translate(-180 -4908)" clip-path="url(#a)"><g transform="translate(-151.292 516.654)"><g transform="translate(372.206 4427.655)"><circle cx="18.988" cy="18.988" r="18.988" transform="translate(0 0)" fill="#f0f0f0"/><g transform="translate(18.771 8.382)"><path d="M408.251,4454.042a15.462,15.462,0,0,1-2.516.144c-1.566.038-3.748.065-6.211.071h-.215v-.215c0-.394,0-.81,0-1.231,0-2.75.024-5.24.063-7.043a19.456,19.456,0,0,1,.153-2.916,19.463,19.463,0,0,1,.153,2.916c.04,1.8.064,4.293.064,7.043,0,.421,0,.837,0,1.231l-.215-.214c2.463.007,4.645.033,6.211.071A15.835,15.835,0,0,1,408.251,4454.042Z" transform="translate(-399.308 -4442.852)" fill="#e0e0e0"/></g><g transform="translate(18.829 3.119)"><path d="M399.594,4436.522c.12,0,.217.714.217,1.6s-.1,1.594-.217,1.594-.216-.714-.216-1.594S399.475,4436.522,399.594,4436.522Z" transform="translate(-399.378 -4436.522)" fill="#e0e0e0"/></g><g transform="translate(25.463 5.67)"><path d="M409.592,4439.6c.084.085-.345.651-.959,1.266s-1.181,1.042-1.265.958.345-.65.959-1.265S409.507,4439.517,409.592,4439.6Z" transform="translate(-407.357 -4439.59)" fill="#e0e0e0"/></g><g transform="translate(30.063 11.181)"><path d="M415.583,4446.245c.054.109-.526.506-1.26.954s-1.355.777-1.427.679.45-.594,1.2-1.049S415.53,4446.139,415.583,4446.245Z" transform="translate(-412.89 -4446.219)" fill="#e0e0e0"/></g><g transform="translate(31.371 19.191)"><path d="M418.813,4456.07a11.066,11.066,0,1,1-2.175-.216A5.65,5.65,0,0,1,418.813,4456.07Z" transform="translate(-414.463 -4455.854)" fill="#e0e0e0"/></g><g transform="translate(1.453 18.901)"><path d="M382.586,4455.721a9.864,9.864,0,1,1-2.054-.216A5.059,5.059,0,0,1,382.586,4455.721Z" transform="translate(-378.477 -4455.505)" fill="#e0e0e0"/></g><g transform="translate(4.431 25.212)"><path d="M385.322,4463.106c.078.09-.59.754-1.493,1.481a5.241,5.241,0,0,1-1.765,1.144c-.072-.1.6-.759,1.493-1.481A5.274,5.274,0,0,1,385.322,4463.106Z" transform="translate(-382.059 -4463.096)" fill="#e0e0e0"/></g><g transform="translate(10.759 29.939)"><path d="M391.868,4468.787a17.144,17.144,0,0,1-2.178,3.623,4.524,4.524,0,0,1,.831-1.967C391.127,4469.431,391.773,4468.717,391.868,4468.787Z" transform="translate(-389.67 -4468.782)" fill="#e0e0e0"/></g><g transform="translate(18.829 31.684)"><path d="M399.594,4475.23a11.049,11.049,0,0,1,0-4.35,11.006,11.006,0,0,1,0,4.35Z" transform="translate(-399.378 -4470.881)" fill="#e0e0e0"/></g><g transform="translate(25.157 30.292)"><path d="M410.253,4472.05a4.357,4.357,0,0,1-1.855-1.158c-.916-.8-1.489-1.6-1.4-1.68s.794.58,1.685,1.354S410.32,4471.947,410.253,4472.05Z" transform="translate(-406.989 -4469.205)" fill="#e0e0e0"/></g><g transform="translate(30.106 25.682)"><path d="M415.656,4466.376c-.085.085-.759-.452-1.506-1.2s-1.284-1.422-1.2-1.506.758.452,1.506,1.2S415.741,4466.292,415.656,4466.376Z" transform="translate(-412.941 -4463.661)" fill="#e0e0e0"/></g><g transform="translate(5.116 10.89)"><path d="M385.262,4448.248c-.085.084-.683-.377-1.337-1.03s-1.116-1.253-1.032-1.338.683.377,1.338,1.031S385.346,4448.164,385.262,4448.248Z" transform="translate(-382.883 -4445.87)" fill="#e0e0e0"/></g><g transform="translate(10.589 5.224)"><path d="M391.8,4441.378c-.084.085-.673-.364-1.315-1s-1.094-1.226-1.01-1.311.673.365,1.316,1S391.886,4441.294,391.8,4441.378Z" transform="translate(-389.466 -4439.054)" fill="#e0e0e0"/></g></g><g transform="translate(391.194 4660.176)"><path d="M439.1,4790.068c11.41-6.653,15.006-20.444,15.612-33.058.1-2.1.514-4.3-.333-6.224s-3.075-3.374-5.028-2.644c-1.62.606-2.448,2.364-3.444,3.792a12.321,12.321,0,0,1-5.31,4.3c-1.394.583-3.083.872-4.343.036-1.729-1.148-1.737-3.667-1.552-5.755q.516-5.834,1.031-11.67a19.54,19.54,0,0,0-.121-6.254,6.5,6.5,0,0,0-3.711-4.714c-1.941-.72-4.492.224-5.079,2.234a19.463,19.463,0,0,0-.274,2.595,2.2,2.2,0,0,1-1.455,1.962,2.534,2.534,0,0,1-2.214-1.146,27.853,27.853,0,0,1-4.367-7.936,38.641,38.641,0,0,0-4.012-8.147,11.323,11.323,0,0,0-7.3-4.92c-2.977-.415-6.315,1.17-7.312,4.044s.473,6.009,2.147,8.545a46.761,46.761,0,0,0,8.946,10.048,3.849,3.849,0,0,1,1.48,1.879c.339,1.431-1.093,2.7-2.5,3.049-1.6.391-3.276.091-4.919.149s-3.467.631-4.209,2.119c-1.03,2.064.571,4.448,2.207,6.058A40.047,40.047,0,0,0,414.3,4756.2a13.5,13.5,0,0,1,4.216,2.5c1.151,1.182-1.086,4.843-1.955,6.253s0,0-1.585-.431a27.91,27.91,0,0,1-4.439-2.126c-2.781-1.319-6.5-1.425-8.545.9a6.63,6.63,0,0,0-1.183,5.785,15.28,15.28,0,0,0,2.742,5.421,40.287,40.287,0,0,0,16.156,13.457c6.467,2.855,12.585,3.986,19.4,2.109" transform="translate(-399.568 -4712.453)" fill="#f0f0f0"/><g transform="translate(3.577 1.492)"><path d="M439.229,4799.709a91.946,91.946,0,0,0-2-17.49,187.557,187.557,0,0,0-5.773-20.755q-.908-2.717-1.793-5.364c-.592-1.758-1.18-3.5-1.86-5.172a93.639,93.639,0,0,0-4.458-9.376c-1.562-2.913-3.15-5.621-4.654-8.142s-2.961-4.84-4.375-6.9a74.439,74.439,0,0,0-7.384-9.211c-.954-1.015-1.719-1.779-2.246-2.29l-.6-.576a1.647,1.647,0,0,0-.214-.187,1.457,1.457,0,0,0,.186.215l.574.6c.508.529,1.255,1.309,2.191,2.338a78.691,78.691,0,0,1,7.269,9.264c1.4,2.063,2.83,4.387,4.326,6.91s3.066,5.236,4.617,8.146a94.923,94.923,0,0,1,4.419,9.347c.674,1.663,1.255,3.392,1.847,5.155s1.186,3.551,1.791,5.361a192.354,192.354,0,0,1,5.791,20.707,93.5,93.5,0,0,1,2.073,17.42" transform="translate(-403.871 -4714.247)" fill="#e0e0e0"/></g><g transform="translate(27.394 15.424)"><path d="M432.525,4753.729a4.229,4.229,0,0,0,.278-.875c.157-.568.357-1.4.589-2.425.466-2.054,1.013-4.914,1.6-8.069s1.176-6,1.673-8.043c.245-1.022.451-1.847.6-2.415a4.238,4.238,0,0,0,.191-.9,4.165,4.165,0,0,0-.334.853c-.2.558-.443,1.374-.722,2.391-.566,2.032-1.2,4.878-1.788,8.039-.574,3.115-1.095,5.933-1.491,8.086-.185.972-.343,1.791-.469,2.448A4.21,4.21,0,0,0,432.525,4753.729Z" transform="translate(-432.518 -4731.004)" fill="#e0e0e0"/></g><g transform="translate(0.964 30.916)"><path d="M400.728,4749.649a5.838,5.838,0,0,0,1.061.216c.683.118,1.674.283,2.891.526,2.438.467,5.781,1.231,9.435,2.234s6.918,2.066,9.258,2.9c1.173.408,2.114.763,2.766,1a5.746,5.746,0,0,0,1.026.344,5.622,5.622,0,0,0-.97-.485c-.636-.284-1.564-.68-2.729-1.122-2.323-.9-5.587-2-9.25-3.015a95.228,95.228,0,0,0-9.488-2.129c-1.227-.209-2.226-.334-2.919-.405A5.679,5.679,0,0,0,400.728,4749.649Z" transform="translate(-400.728 -4749.638)" fill="#e0e0e0"/></g><g transform="translate(36.645 35.762)"><path d="M443.647,4788.648a1.374,1.374,0,0,0,.211-.312l.539-.933c.465-.813,1.106-2.008,1.879-3.492,1.547-2.969,3.557-7.138,5.711-11.768s4.124-8.814,5.608-11.812c.726-1.457,1.324-2.654,1.768-3.544l.476-.968a.19.19,0,1,0-.068-.037l-.539.933c-.465.813-1.106,2.006-1.879,3.492-1.548,2.969-3.557,7.138-5.712,11.771s-4.123,8.812-5.606,11.81c-.727,1.456-1.324,2.655-1.767,3.544l-.476.968A1.441,1.441,0,0,0,443.647,4788.648Z" transform="translate(-443.645 -4755.468)" fill="#e0e0e0"/></g><g transform="translate(1.914 54.513)"><path d="M401.87,4778.024a1.464,1.464,0,0,0,.342.174l1.008.432,3.719,1.553c3.14,1.311,7.456,3.17,12.222,5.233s9.1,3.885,12.273,5.132c1.584.624,2.87,1.115,3.766,1.437l1.033.364a1.41,1.41,0,0,0,.37.1,1.437,1.437,0,0,0-.342-.175l-1.008-.432-3.719-1.551c-3.139-1.311-7.456-3.172-12.224-5.235s-9.1-3.885-12.27-5.131c-1.584-.625-2.87-1.116-3.767-1.437l-1.033-.364A1.322,1.322,0,0,0,401.87,4778.024Z" transform="translate(-401.87 -4778.021)" fill="#e0e0e0"/></g></g><g transform="translate(584.58 4581.339)"><g transform="translate(0)"><g transform="translate(85.638 129.344)"><rect width="5.087" height="36.119" fill="#e0e0e0"/></g><g transform="translate(67.433 129.344)"><rect width="5.087" height="36.119" fill="#e0e0e0"/></g><g transform="translate(21.732 129.344)"><rect width="5.087" height="36.119" fill="#e0e0e0"/></g><g transform="translate(6.073 129.344)"><rect width="5.087" height="36.119" fill="#e0e0e0"/></g><g transform="translate(0 65.926)"><path d="M654.829,4698.275s-13.894-4.013-18.051,1.782-4.6,61.621-4.6,61.621,26.905.49,27.4,0S654.829,4698.275,654.829,4698.275Z" transform="translate(-632.178 -4696.922)" fill="#ebebeb"/></g><g transform="translate(22.214)"><path d="M738.185,4741.468,736.953,4635.5c-.864-12.794-10.149-14.644-11.509-15.416-5.7-3.239-60.085-5.293-64.559,7.244s0,111.188,0,111.188Z" transform="translate(-658.897 -4617.625)" fill="#ebebeb"/></g><g transform="translate(4.42 99.733)"><path d="M734.542,4758.747s-13.7-20.207-29.8-20.868-50.8,0-50.8,0-15.382.584-16.455,19.636v11.238h97.048Z" transform="translate(-637.494 -4737.585)" fill="#ebebeb"/></g><g transform="translate(68.935 65.193)"><path d="M747.216,4698.209s-23.049-5.963-27.217,1.883-4.9,61.893-4.9,61.893,33.282,1.226,33.362-.177S747.216,4698.209,747.216,4698.209Z" transform="translate(-715.095 -4696.04)" fill="#f0f0f0"/><g transform="translate(8.732 0.619)"><path d="M750.231,4698.078s-15.223-3.916-19.38,1.878-5.253,62.423-5.253,62.423,24.294.716,24.79.228S750.231,4698.078,750.231,4698.078Z" transform="translate(-725.598 -4696.785)" fill="#e0e0e0"/></g></g></g><g transform="translate(39.352 1.251)"><path d="M730.6,4683.639a1.212,1.212,0,0,1-.039-.268c-.017-.2-.04-.461-.069-.789-.053-.722-.129-1.739-.224-3.034-.178-2.665-.431-6.472-.745-11.163-.3-4.723-.654-10.333-1.048-16.56-.193-3.118-.395-6.388-.605-9.78-.249-3.38-.237-6.941-1.254-10.368a12.212,12.212,0,0,0-2.466-4.588,17.828,17.828,0,0,0-3.863-3.338,25.165,25.165,0,0,0-8.978-3.554,29.837,29.837,0,0,0-4.511-.436l-4.3-.168c-2.774-.089-5.36-.139-7.72-.159-4.721-.037-8.541.063-11.175.212-1.318.075-2.34.147-3.031.215l-.788.066a.136.136,0,1,1-.006-.044l.785-.109c.689-.1,1.711-.2,3.03-.3,2.636-.2,6.461-.348,11.187-.351,2.364,0,4.952.033,7.73.107l4.3.146a30.263,30.263,0,0,1,4.566.424,25.452,25.452,0,0,1,9.138,3.592,18.2,18.2,0,0,1,3.958,3.413,12.633,12.633,0,0,1,2.553,4.741c1.04,3.52,1.017,7.1,1.263,10.469.2,3.391.394,6.664.579,9.781.359,6.229.683,11.841.956,16.566.255,4.694.462,8.5.607,11.171.061,1.3.11,2.315.144,3.039.011.329.019.59.026.792A1.317,1.317,0,0,1,730.6,4683.639Z" transform="translate(-679.512 -4619.129)" fill="#e0e0e0"/></g><g transform="translate(87.433 19.842)"><path d="M741.087,4641.6a20.163,20.163,0,0,1-3.741.717,5.469,5.469,0,0,1,3.741-.717Z" transform="translate(-737.344 -4641.491)" fill="#e0e0e0"/></g><g transform="translate(87.774 21.854)"><path d="M743.237,4644.529a36.124,36.124,0,0,1-5.482-.463,11.689,11.689,0,0,1,5.482.463Z" transform="translate(-737.755 -4643.911)" fill="#e0e0e0"/></g><g transform="translate(88.761 41.074)"><path d="M742.125,4667.357c-.007.12-.726.174-1.6.123s-1.585-.189-1.579-.308.725-.175,1.6-.123S742.132,4667.238,742.125,4667.357Z" transform="translate(-738.942 -4667.03)" fill="#e0e0e0"/></g><g transform="translate(61.334 30.503)"><g transform="translate(4.939 3.622)"><path d="M713.728,4658.7a2.5,2.5,0,0,0-1.218,1.076,2.015,2.015,0,0,0-.111,1.666,1.876,1.876,0,0,0,3.321-.051,2.016,2.016,0,0,0-.164-1.662,2.521,2.521,0,0,0-1.251-1.039c0-.018.179-.05.481.048a2.05,2.05,0,0,1,1.032.833,2.268,2.268,0,0,1,.275,1.96,2.245,2.245,0,0,1-4.063.063,2.268,2.268,0,0,1,.214-1.968,2.048,2.048,0,0,1,1-.864C713.548,4658.655,713.727,4658.682,713.728,4658.7Z" transform="translate(-711.893 -4658.671)" fill="#e0e0e0"/></g><path d="M714.778,4657.474a3.252,3.252,0,0,1-1.423.357,8.279,8.279,0,0,1-6.525-2.335,3.249,3.249,0,0,1-.874-1.179c.057-.043.41.385,1.081.953a9.5,9.5,0,0,0,6.3,2.255A10.486,10.486,0,0,1,714.778,4657.474Z" transform="translate(-705.953 -4654.314)" fill="#e0e0e0"/><g transform="translate(2.897 7.799)"><path d="M710.2,4672.945a5.6,5.6,0,0,1-.481-1.6,9.435,9.435,0,0,1-.107-4.052,4.943,4.943,0,0,1,2.407-3.25,2.271,2.271,0,0,1,1.658-.3,6.781,6.781,0,0,0-1.508.567,4.989,4.989,0,0,0-2.135,3.08,10.889,10.889,0,0,0-.013,3.9A7.476,7.476,0,0,1,710.2,4672.945Z" transform="translate(-709.438 -4663.695)" fill="#e0e0e0"/></g><g transform="translate(8.905 6.237)"><path d="M721.068,4668.028a2.232,2.232,0,0,1-1.169-.325,5.886,5.886,0,0,1-3.222-4.68,2.243,2.243,0,0,1,.115-1.208,7,7,0,0,1,.189,1.167,6.682,6.682,0,0,0,3.064,4.453C720.658,4667.808,721.089,4667.959,721.068,4668.028Z" transform="translate(-716.663 -4661.815)" fill="#e0e0e0"/></g></g><g transform="translate(35.675 30.503)"><g transform="translate(4.939 3.622)"><path d="M682.865,4658.7a2.5,2.5,0,0,0-1.219,1.076,2.014,2.014,0,0,0-.111,1.666,1.876,1.876,0,0,0,3.32-.051,2.013,2.013,0,0,0-.164-1.662,2.513,2.513,0,0,0-1.251-1.039c0-.018.179-.05.481.048a2.05,2.05,0,0,1,1.032.833,2.271,2.271,0,0,1,.276,1.96,2.246,2.246,0,0,1-4.064.063,2.268,2.268,0,0,1,.214-1.968,2.046,2.046,0,0,1,1.005-.864C682.684,4658.655,682.864,4658.682,682.865,4658.7Z" transform="translate(-681.029 -4658.671)" fill="#e0e0e0"/></g><path d="M683.914,4657.474a3.243,3.243,0,0,1-1.423.357,8.282,8.282,0,0,1-6.525-2.335,3.25,3.25,0,0,1-.874-1.179c.057-.043.411.385,1.081.953a9.5,9.5,0,0,0,6.3,2.255A10.474,10.474,0,0,1,683.914,4657.474Z" transform="translate(-675.089 -4654.314)" fill="#e0e0e0"/><g transform="translate(2.897 7.799)"><path d="M679.339,4672.945a5.625,5.625,0,0,1-.481-1.6,9.433,9.433,0,0,1-.106-4.052,4.941,4.941,0,0,1,2.408-3.25,2.268,2.268,0,0,1,1.657-.3,6.783,6.783,0,0,0-1.508.567,4.992,4.992,0,0,0-2.135,3.08,10.908,10.908,0,0,0-.013,3.9A7.483,7.483,0,0,1,679.339,4672.945Z" transform="translate(-678.574 -4663.695)" fill="#e0e0e0"/></g><g transform="translate(8.905 6.237)"><path d="M690.2,4668.028a2.232,2.232,0,0,1-1.169-.325,5.883,5.883,0,0,1-3.221-4.68,2.238,2.238,0,0,1,.114-1.208,7.05,7.05,0,0,1,.19,1.167,6.676,6.676,0,0,0,3.064,4.453C689.794,4667.808,690.225,4667.959,690.2,4668.028Z" transform="translate(-685.8 -4661.815)" fill="#e0e0e0"/></g></g><g transform="translate(22.432 65.521)"><path d="M659.9,4696.435a8.323,8.323,0,0,1,.027,1.357c-.018.948-.043,2.192-.072,3.695-.072,3.12-.166,7.427-.227,12.186s-.071,9.07-.078,12.19c-.008,1.5-.014,2.747-.019,3.7a8.088,8.088,0,0,1-.062,1.356,8.147,8.147,0,0,1-.107-1.354c-.042-.872-.082-2.134-.118-3.694-.072-3.121-.107-7.435-.048-12.2s.2-9.073.353-12.191c.074-1.559.146-2.82.21-3.691A8.059,8.059,0,0,1,659.9,4696.435Z" transform="translate(-659.16 -4696.435)" fill="#e0e0e0"/></g><g transform="translate(2.919 99.674)"><path d="M703.758,4738.015a.98.98,0,0,1-.229.02l-.673.016-2.59.02-9.523-.006L676.62,4738l-8.34-.052c-2.89-.017-5.883-.016-8.928.236a36.3,36.3,0,0,0-8.717,1.7,23.573,23.573,0,0,0-7.245,3.9,17.838,17.838,0,0,0-2.711,2.712,14.868,14.868,0,0,0-1.067,1.5,17.454,17.454,0,0,0-.9,1.54,22.612,22.612,0,0,0-2.182,6.128,33.737,33.737,0,0,0-.471,9.441c.086,1.119.186,1.986.261,2.572l.077.669a.914.914,0,0,1,.012.231.97.97,0,0,1-.056-.224c-.032-.174-.071-.393-.12-.664-.1-.583-.23-1.448-.343-2.569a32.564,32.564,0,0,1,.338-9.517,22.693,22.693,0,0,1,2.164-6.234,17.911,17.911,0,0,1,.91-1.573,15.364,15.364,0,0,1,1.082-1.536,18.1,18.1,0,0,1,2.758-2.784,23.849,23.849,0,0,1,7.358-3.987,36.433,36.433,0,0,1,8.818-1.727c3.069-.254,6.075-.252,8.966-.229l8.34.077,14.122.158,9.522.144,2.589.061.673.027A.867.867,0,0,1,703.758,4738.015Z" transform="translate(-635.689 -4737.514)" fill="#e0e0e0"/></g></g><g transform="translate(376.924 4746.584)"><path d="M687.595,4816.6c0,.12-68.325.217-152.588.217-84.292,0-152.6-.1-152.6-.217s68.31-.216,152.6-.216C619.27,4816.386,687.595,4816.483,687.595,4816.6Z" transform="translate(-382.404 -4816.386)" fill="#263238"/></g><g transform="translate(438.284 4577.385)"><g transform="translate(7.842 8.261)"><g transform="translate(0.074 3.409)"><path d="M489.963,4627.123c0,.12-5.425.215-12.116.215s-12.116-.1-12.116-.215,5.424-.218,12.116-.218S489.963,4627,489.963,4627.123Z" transform="translate(-465.731 -4626.905)" fill="#263238"/></g><g transform="translate(0.074 6.528)"><path d="M489.522,4630.874c0,.119-5.327.217-11.9.217s-11.9-.1-11.9-.217,5.325-.216,11.9-.216S489.522,4630.754,489.522,4630.874Z" transform="translate(-465.731 -4630.657)" fill="#263238"/></g><g transform="translate(0.074 9.646)"><path d="M489.522,4634.625c0,.12-5.327.216-11.9.216s-11.9-.1-11.9-.216,5.325-.216,11.9-.216S489.522,4634.5,489.522,4634.625Z" transform="translate(-465.731 -4634.408)" fill="#263238"/></g><g transform="translate(0.074 12.764)"><path d="M489.522,4638.375c0,.119-5.327.216-11.9.216s-11.9-.1-11.9-.216,5.325-.217,11.9-.217S489.522,4638.254,489.522,4638.375Z" transform="translate(-465.731 -4638.157)" fill="#263238"/></g><g transform="translate(0.074 15.883)"><path d="M489.522,4642.125c0,.12-5.327.217-11.9.217s-11.9-.1-11.9-.217,5.325-.216,11.9-.216S489.522,4642.005,489.522,4642.125Z" transform="translate(-465.731 -4641.909)" fill="#263238"/></g><g transform="translate(0.074 19.001)"><path d="M477.334,4645.875a77.74,77.74,0,0,1-11.6,0,78.09,78.09,0,0,1,11.6,0Z" transform="translate(-465.731 -4645.66)" fill="#263238"/></g><path d="M484.1,4623.021c0,.12-4.132.217-9.229.217s-9.23-.1-9.23-.217,4.131-.216,9.23-.216S484.1,4622.9,484.1,4623.021Z" transform="translate(-465.642 -4622.805)" fill="#ff4f5b"/></g><path d="M494.776,4648.12s-.013-.231-.02-.661q-.008-.671-.022-1.887c-.011-1.665-.027-4.07-.048-7.125-.022-6.129-.055-14.862-.094-25.359l.184.185c-11.054.009-24.212.02-38.3.033-.052.045.407-.408.213-.211v4.739q0,2.355,0,4.666,0,4.622-.005,9.038c-.007,5.878-.013,11.446-.02,16.583l-.19-.189,27.679.1,7.82.049,2.076.022.539.011a1.624,1.624,0,0,1,.189.011.83.83,0,0,1-.167.011l-.518.011-2.039.023-7.778.049-27.8.1h-.19v-.191c-.007-5.136-.013-10.7-.02-16.583q0-4.41,0-9.038,0-2.309,0-4.666v-4.739c-.194.19.263-.27.219-.222l38.3.031h.185v.183c-.039,10.545-.071,19.318-.095,25.476-.02,3.037-.037,5.43-.047,7.083q-.014,1.194-.022,1.852C494.79,4647.915,494.776,4648.12,494.776,4648.12Z" transform="translate(-456.209 -4612.869)" fill="#263238"/></g><g transform="translate(443.835 4460.082)"><path d="M472.2,4494.545l18.412-.12a23.5,23.5,0,0,0-5.922-15.189,21.778,21.778,0,0,0-19.068-7.319,26.135,26.135,0,0,0-2.675.43l-.064.012v0l4.992,22.185Z" transform="translate(-462.886 -4471.773)" fill="#ff3c00"/></g><g transform="translate(443.905 4485.207)"><path d="M477.887,4522.506a21.839,21.839,0,0,0,12.535-17.906c.023-.231.045-.466.061-.7.011-.149.026-.3.034-.447q.036-.659.039-1.336c0-.021,0-.04,0-.061v0c0-.019,0-.037,0-.056h0l-18.412.119-4.326.029-4.841,22.191-.007.027h0a21.9,21.9,0,0,0,4.773.493A23.881,23.881,0,0,0,477.887,4522.506Z" transform="translate(-462.97 -4501.995)" fill="#455a64"/></g><g transform="translate(423.788 4461.859)"><path d="M461.514,4496.095l-4.992-22.184a22.739,22.739,0,0,0,.15,44.4l4.841-22.191" transform="translate(-438.773 -4473.911)" fill="#263238"/></g><g transform="translate(391.634 4581.95)"><rect width="4.982" height="37.605" fill="#ff3c00"/></g><g transform="translate(383.958 4597.776)"><g transform="translate(0 0)"><rect width="4.982" height="21.779" fill="#455a64"/></g></g><g transform="translate(376.282 4594.377)"><g transform="translate(0 0)"><rect width="4.982" height="25.178" fill="#ff3c00"/></g></g><g transform="translate(368.605 4609.404)"><g transform="translate(0 0)"><rect width="4.982" height="10.151" fill="#455a64"/></g></g><g transform="translate(406.987 4573.737)"><rect width="4.982" height="45.819" fill="#ff3c00"/></g><g transform="translate(399.311 4577.922)"><rect width="4.982" height="41.633" fill="#455a64"/></g><g transform="translate(422.34 4569.2)"><rect width="4.982" height="50.355" fill="#ff3c00"/></g><g transform="translate(414.663 4559.255)"><g transform="translate(0 0)"><rect width="4.982" height="60.3" fill="#455a64"/></g></g><g transform="translate(369.053 4624.058)"><path d="M377.343,4669.226a11.278,11.278,0,1,1-2.2-.217A5.8,5.8,0,0,1,377.343,4669.226Z" transform="translate(-372.937 -4669.008)" fill="#263238"/></g><g transform="translate(376.62 4624.058)"><path d="M386.445,4669.226a11.278,11.278,0,1,1-2.2-.217A5.8,5.8,0,0,1,386.445,4669.226Z" transform="translate(-382.039 -4669.008)" fill="#263238"/></g><g transform="translate(384.188 4624.058)"><path d="M395.547,4669.226a11.278,11.278,0,1,1-2.2-.217A5.8,5.8,0,0,1,395.547,4669.226Z" transform="translate(-391.141 -4669.008)" fill="#263238"/></g><g transform="translate(391.755 4624.058)"><path d="M404.649,4669.226a11.278,11.278,0,1,1-2.2-.217A5.8,5.8,0,0,1,404.649,4669.226Z" transform="translate(-400.243 -4669.008)" fill="#263238"/></g><g transform="translate(399.322 4624.058)"><path d="M413.751,4669.226a11.278,11.278,0,1,1-2.2-.217A5.8,5.8,0,0,1,413.751,4669.226Z" transform="translate(-409.345 -4669.008)" fill="#263238"/></g><g transform="translate(406.889 4624.058)"><path d="M422.853,4669.226a11.278,11.278,0,1,1-2.2-.217A5.8,5.8,0,0,1,422.853,4669.226Z" transform="translate(-418.447 -4669.008)" fill="#263238"/></g><g transform="translate(414.456 4624.058)"><path d="M431.955,4669.226a11.278,11.278,0,1,1-2.2-.217A5.8,5.8,0,0,1,431.955,4669.226Z" transform="translate(-427.549 -4669.008)" fill="#263238"/></g><g transform="translate(422.024 4624.058)"><path d="M441.057,4669.226a11.278,11.278,0,1,1-2.2-.217A5.8,5.8,0,0,1,441.057,4669.226Z" transform="translate(-436.651 -4669.008)" fill="#263238"/></g><g transform="translate(404.913 4628.491)"><path d="M440.238,4674.556c0,.12-5.411.217-12.083.217s-12.085-.1-12.085-.217,5.41-.216,12.085-.216S440.238,4674.437,440.238,4674.556Z" transform="translate(-416.07 -4674.339)" fill="#263238"/></g><g transform="translate(406.185 4631.035)"><g transform="translate(0 0)"><path d="M426.08,4677.616a41.664,41.664,0,1,1-4.24-.216A20.934,20.934,0,0,1,426.08,4677.616Z" transform="translate(-417.6 -4677.4)" fill="#263238"/></g></g><g transform="translate(411.9 4488.449)"><path d="M427.816,4588.292a1.15,1.15,0,0,1,.689.13,2.617,2.617,0,0,1,1.334,1.377,2.65,2.65,0,0,1,.219,1.346,2.416,2.416,0,0,1-.688,1.422,2.947,2.947,0,0,1-3.384.591,3.067,3.067,0,0,1-1.479-3.11,2.729,2.729,0,0,1,.659-1.426,3.163,3.163,0,0,1,3.02-.946,1.288,1.288,0,0,1,.639.287c-.015.035-.243-.065-.669-.122a3.185,3.185,0,0,0-1.754.282,2.54,2.54,0,0,0-1.5,1.979,2.7,2.7,0,0,0,1.286,2.673,2.576,2.576,0,0,0,2.9-.49,2.157,2.157,0,0,0,.469-2.372,2.6,2.6,0,0,0-1.126-1.342C428.057,4588.366,427.809,4588.332,427.816,4588.292Z" transform="translate(-424.474 -4519.672)" fill="#263238"/><path d="M432.278,4506a1.09,1.09,0,0,1-.289.028l-.855.026-3.319.049.1-.1c.067,5.893.113,17.634.113,31.128-.025,9.814-.047,18.695-.063,25.172-.029,3.19-.052,5.786-.069,7.628q-.025,1.305-.041,2.074a4.562,4.562,0,0,1-.043.723,4.48,4.48,0,0,1-.044-.723q-.015-.768-.041-2.074c-.017-1.842-.04-4.437-.068-7.628-.017-6.477-.039-15.358-.064-25.172,0-13.494.046-25.235.113-31.128l0-.105h.1l3.319.049.855.027A1.184,1.184,0,0,1,432.278,4506Z" transform="translate(-425.001 -4505.895)" fill="#263238"/></g><g transform="translate(349.905 4516.128)"><g transform="translate(8.621 8.658)"><g transform="translate(0.075 3.41)"><path d="M384.6,4553.919c0,.12-5.425.217-12.115.217s-12.116-.1-12.116-.217,5.424-.216,12.116-.216S384.6,4553.8,384.6,4553.919Z" transform="translate(-360.365 -4553.703)" fill="#263238"/></g><g transform="translate(0.075 6.527)"><path d="M384.156,4557.669c0,.12-5.327.216-11.9.216s-11.9-.1-11.9-.216,5.325-.217,11.9-.217S384.156,4557.55,384.156,4557.669Z" transform="translate(-360.365 -4557.453)" fill="#263238"/></g><g transform="translate(0.075 9.646)"><path d="M384.156,4561.42c0,.119-5.327.216-11.9.216s-11.9-.1-11.9-.216,5.325-.217,11.9-.217S384.156,4561.3,384.156,4561.42Z" transform="translate(-360.365 -4561.204)" fill="#263238"/></g><g transform="translate(0.075 12.764)"><path d="M384.156,4565.17c0,.12-5.327.218-11.9.218s-11.9-.1-11.9-.218,5.325-.215,11.9-.215S384.156,4565.051,384.156,4565.17Z" transform="translate(-360.365 -4564.955)" fill="#263238"/></g><g transform="translate(0.075 15.882)"><path d="M384.156,4568.921c0,.12-5.327.217-11.9.217s-11.9-.1-11.9-.217,5.325-.216,11.9-.216S384.156,4568.8,384.156,4568.921Z" transform="translate(-360.365 -4568.705)" fill="#263238"/></g><g transform="translate(0.075 19)"><path d="M371.969,4572.672a77.566,77.566,0,0,1-11.6,0,78.091,78.091,0,0,1,11.6,0Z" transform="translate(-360.365 -4572.456)" fill="#263238"/></g><path d="M378.735,4549.818c0,.12-4.133.216-9.229.216s-9.231-.1-9.231-.216,4.132-.216,9.231-.216S378.735,4549.7,378.735,4549.818Z" transform="translate(-360.275 -4549.602)" fill="#ff4f5b"/></g><path d="M388.472,4574.439s-.013-.231-.02-.661q-.007-.671-.022-1.887c-.011-1.664-.027-4.069-.048-7.125-.022-6.13-.055-14.862-.094-25.359l.184.185-38.3.032c-.052.046.407-.407.213-.211v4.74q0,2.354,0,4.666c0,3.08,0,6.1-.005,9.038-.007,5.878-.013,11.447-.02,16.583l-.19-.19,27.679.1,7.82.05,2.076.021.539.011a1.572,1.572,0,0,1,.189.01.741.741,0,0,1-.167.011l-.518.011-2.039.022-7.778.05-27.8.1h-.19v-.191c-.007-5.136-.013-10.7-.02-16.583,0-2.94,0-5.958,0-9.038q0-2.31,0-4.666v-4.74c-.194.19.263-.271.219-.222l38.3.032h.185v.184c-.039,10.545-.072,19.317-.095,25.477-.02,3.036-.037,5.428-.047,7.083q-.014,1.193-.022,1.851C388.486,4574.234,388.472,4574.439,388.472,4574.439Z" transform="translate(-349.905 -4539.188)" fill="#263238"/><g transform="translate(26.878 35.962)"><path d="M382.452,4596.377a111.946,111.946,0,0,1,0-13.933,112.372,112.372,0,0,1,0,13.933Z" transform="translate(-382.235 -4582.444)" fill="#263238"/></g><g transform="translate(26.018 46.717)"><path d="M383.865,4595.383a13.767,13.767,0,0,0-.871,3.442l-.006.09-.038.623-.355-.508a6.639,6.639,0,0,1-1.375-3.294c.121-.04.613,1.465,1.729,3.046l-.393.114.006-.095A5.12,5.12,0,0,1,383.865,4595.383Z" transform="translate(-381.2 -4595.379)" fill="#263238"/></g></g><g transform="translate(614.916 4465.232)"><g transform="translate(0 0)"><path d="M668.883,4480.466c-.12,0-.217-.56-.217-1.249s.1-1.249.217-1.249.216.559.216,1.249S669,4480.466,668.883,4480.466Z" transform="translate(-668.666 -4477.969)" fill="#263238"/></g><g transform="translate(0 4.994)"><path d="M668.883,4486.473c-.12,0-.217-.559-.217-1.249s.1-1.249.217-1.249.216.559.216,1.249S669,4486.473,668.883,4486.473Z" transform="translate(-668.666 -4483.976)" fill="#263238"/></g><g transform="translate(0 9.987)"><path d="M668.883,4492.477c-.12,0-.217-.559-.217-1.247s.1-1.248.217-1.248.216.558.216,1.248S669,4492.477,668.883,4492.477Z" transform="translate(-668.666 -4489.982)" fill="#263238"/></g><g transform="translate(0 14.973)"><path d="M668.883,4498.47c-.12,0-.217-.558-.217-1.245s.1-1.246.217-1.246.216.558.216,1.246S669,4498.47,668.883,4498.47Z" transform="translate(-668.666 -4495.979)" fill="#263238"/></g><g transform="translate(0 19.956)"><path d="M668.883,4504.463c-.12,0-.217-.558-.217-1.245s.1-1.245.217-1.245.216.557.216,1.245S669,4504.463,668.883,4504.463Z" transform="translate(-668.666 -4501.973)" fill="#263238"/></g><g transform="translate(0 24.938)"><path d="M668.883,4510.455c-.12,0-.217-.557-.217-1.245s.1-1.246.217-1.246.216.559.216,1.246S669,4510.455,668.883,4510.455Z" transform="translate(-668.666 -4507.964)" fill="#263238"/></g><g transform="translate(0 29.922)"><path d="M668.883,4516.452c-.12,0-.217-.558-.217-1.246s.1-1.246.217-1.246.216.558.216,1.246S669,4516.452,668.883,4516.452Z" transform="translate(-668.666 -4513.96)" fill="#263238"/></g><g transform="translate(0 34.906)"><path d="M668.883,4522.449c-.12,0-.217-.559-.217-1.247s.1-1.247.217-1.247.216.559.216,1.247S669,4522.449,668.883,4522.449Z" transform="translate(-668.666 -4519.955)" fill="#263238"/></g></g><g transform="translate(513.013 4402.436)"><rect width="133.466" height="56.73" rx="3.958" fill="#455a64"/><g transform="translate(8.366 12.523)"><g transform="translate(17.305)"><path d="M590.532,4426.048a14.463,14.463,0,0,0-11.755-8.439c-.154-.017-.308-.033-.465-.046-.1-.009-.2-.019-.3-.026q-.435-.029-.885-.036h-.079l-.065,12.19-.016,2.864,14.652,3.38.018,0h0a14.441,14.441,0,0,0,.363-3.156A15.811,15.811,0,0,0,590.532,4426.048Z" transform="translate(-576.972 -4417.498)" fill="#fafafa"/></g><g transform="translate(0 1.755)"><path d="M571.232,4434.5l.032-2.7.066-12.189a15.553,15.553,0,0,0-10.1,3.8,14.416,14.416,0,0,0-4.995,12.566c.05.522.128,1.053.231,1.593l-.111.024c1.952,7.019,8.29,12.325,14.547,11.924,7.2-.462,13.3-4.919,14.85-11.674Z" transform="translate(-556.157 -4419.609)" fill="#e0e0e0"/></g></g><g transform="translate(49.78 18.726)"><path d="M632.242,4425.176c0,.12-5.882.216-13.136.216s-13.136-.1-13.136-.216,5.88-.216,13.136-.216S632.242,4425.056,632.242,4425.176Z" transform="translate(-605.971 -4424.96)" fill="#263238"/><g transform="translate(0 5.046)"><path d="M632.242,4431.246c0,.12-5.882.217-13.136.217s-13.136-.1-13.136-.217,5.88-.216,13.136-.216S632.242,4431.127,632.242,4431.246Z" transform="translate(-605.971 -4431.03)" fill="#263238"/></g><g transform="translate(0 10.094)"><path d="M632.242,4437.316c0,.12-5.882.217-13.136.217s-13.136-.1-13.136-.217,5.88-.215,13.136-.215S632.242,4437.2,632.242,4437.316Z" transform="translate(-605.971 -4437.101)" fill="#263238"/></g><g transform="translate(0 15.14)"><path d="M632.242,4443.387c0,.12-5.882.217-13.136.217s-13.136-.1-13.136-.217,5.88-.216,13.136-.216S632.242,4443.268,632.242,4443.387Z" transform="translate(-605.971 -4443.171)" fill="#263238"/></g><g transform="translate(0 20.601)"><path d="M621.367,4449.955a11.771,11.771,0,0,1-2.255.154c-1.393.039-3.318.063-5.443.063s-4.051-.024-5.444-.063a1.133,1.133,0,1,1,0-.307c1.393-.039,3.317-.063,5.444-.063s4.05.024,5.443.063A11.781,11.781,0,0,1,621.367,4449.955Z" transform="translate(-605.971 -4449.739)" fill="#263238"/></g></g><g transform="translate(91.769 13.684)"><path d="M659.472,4419.52c-.011-.022.178-.153.565-.307a4.806,4.806,0,0,1,1.743-.318,4.646,4.646,0,0,1,.6.039c.1.014.209.03.317.052l.04.008h.005c-.11-.177.152.242.125.2v0l0,.011,0,.019-.016.079-.034.16-.294,1.367c-.219.982-.456,2.045-.707,3.166l-.037.167H661.6l-1.1,0-3.818-.039-.2,0,.005-.2a5.3,5.3,0,0,1,.539-2.231,4.656,4.656,0,0,1,1.1-1.407,4.123,4.123,0,0,1,.964-.631c.241-.113.382-.148.389-.13a14.881,14.881,0,0,0-1.191.938,4.791,4.791,0,0,0-1.405,3.467l-.2-.2H660.5l1.1.008-.211.166c.267-1.116.519-2.176.752-3.154l.334-1.36.04-.157.019-.078.005-.019,0-.01v0c-.027-.044.234.375.123.2h-.005l-.037-.009c-.1-.024-.2-.044-.293-.061a4.647,4.647,0,0,0-.559-.063A7.818,7.818,0,0,0,659.472,4419.52Z" transform="translate(-656.477 -4418.895)" fill="#e0e0e0"/><g transform="translate(0.776 1.04)"><path d="M662.273,4424.888l-.88-.011-3.982-.021a5.085,5.085,0,0,0,1.242,3.3,4.709,4.709,0,0,0,4.105,1.632c.17-.017.344-.042.52-.076l.007.037c2.293-.638,4.026-2.708,3.9-4.752a5.117,5.117,0,0,0-3.814-4.851Z" transform="translate(-657.41 -4420.146)" fill="#fafafa"/></g></g><g transform="translate(91.971 31.722)"><path d="M659.513,4441.073a4.724,4.724,0,0,0-2.757,3.84c-.006.049-.011.1-.015.151,0,.032-.007.063-.008.1-.007.095-.011.191-.012.289v.014h0v.011h0l3.982.022.935,0,1.1-4.787,0-.006h0a4.693,4.693,0,0,0-1.031-.118A5.15,5.15,0,0,0,659.513,4441.073Z" transform="translate(-656.72 -4440.592)" fill="#fafafa"/><g transform="translate(0.417 0.715)"><path d="M662.241,4446.376a11.78,11.78,0,0,1,.23-1.33c.185-.892.424-2.051.713-3.447l.031-.147.156.03a5.054,5.054,0,0,1,3.636,3.312,4.98,4.98,0,0,1,.2,2.985,5.2,5.2,0,0,1-1.839,2.625,6.106,6.106,0,0,1-2.06,1.04l-.22.063-.047-.225-.007-.036.249.166a5.213,5.213,0,0,1-2.534-.123,4.883,4.883,0,0,1-2.019-1.24,5.219,5.219,0,0,1-1.511-3.7l0-.159.154,0,3.557.088a9.189,9.189,0,0,1,1.3.1,8.274,8.274,0,0,1-1.305.073l-3.558.051.157-.155a4.952,4.952,0,0,0,1.473,3.429,4.6,4.6,0,0,0,4.2,1.216l.205-.043.045.209.008.036-.267-.161a5.746,5.746,0,0,0,1.909-.97,4.814,4.814,0,0,0,1.7-2.4,4.619,4.619,0,0,0-.174-2.735,4.76,4.76,0,0,0-3.328-3.141l.187-.118c-.364,1.492-.673,2.684-.888,3.493A8.5,8.5,0,0,1,662.241,4446.376Z" transform="translate(-657.222 -4441.452)" fill="#e0e0e0"/></g></g><g transform="translate(107.266 34.545)"><path d="M691.754,4444.2a159.335,159.335,0,0,1-16.637,0,160.415,160.415,0,0,1,16.637,0Z" transform="translate(-675.117 -4443.987)" fill="#263238"/><g transform="translate(0 2.223)"><path d="M683.435,4446.875a40.272,40.272,0,1,1-4.159-.215A20.1,20.1,0,0,1,683.435,4446.875Z" transform="translate(-675.117 -4446.66)" fill="#263238"/></g></g><g transform="translate(107.266 16.662)"><path d="M691.754,4422.693a159.335,159.335,0,0,1-16.637,0,160.415,160.415,0,0,1,16.637,0Z" transform="translate(-675.117 -4422.477)" fill="#263238"/><g transform="translate(0 2.221)"><path d="M683.435,4425.366a40,40,0,1,1-4.159-.217A20.166,20.166,0,0,1,683.435,4425.366Z" transform="translate(-675.117 -4425.149)" fill="#263238"/></g></g><g transform="translate(84.057 4.245)"><path d="M647.417,4452.252c-.119,0-.216-10.01-.216-22.354s.1-22.356.216-22.356.217,10.007.217,22.356S647.537,4452.252,647.417,4452.252Z" transform="translate(-647.201 -4407.542)" fill="#263238"/></g></g><g transform="translate(590.232 4506.972)"><rect width="5.151" height="46.508" transform="translate(0)" fill="#ff3c00"/></g><g transform="translate(600.177 4522.768)"><rect width="5.151" height="30.712" transform="translate(0)" fill="#ff3c00"/></g><g transform="translate(610.121 4512.753)"><rect width="5.151" height="40.963" transform="translate(0 0)" fill="#ff3c00"/></g><g transform="translate(620.066 4508.768)"><rect width="5.151" height="44.712" transform="translate(0 0)" fill="#ff3c00"/></g><g transform="translate(630.011 4523.713)"><rect width="5.151" height="29.767" fill="#ff3c00"/></g><g transform="translate(639.956 4529.551)"><rect width="5.151" height="23.929" transform="translate(0 0)" fill="#ff3c00"/></g><g transform="translate(649.901 4511.746)"><rect width="5.151" height="41.734" fill="#ff3c00"/></g><g transform="translate(659.845 4519.27)"><rect width="5.151" height="34.21" transform="translate(0 0)" fill="#ff3c00"/></g><g transform="translate(669.79 4513.257)"><rect width="5.151" height="40.223" transform="translate(0 0)" fill="#ff3c00"/></g><g transform="translate(679.735 4526.077)"><rect width="5.151" height="27.403" transform="translate(0)" fill="#ff3c00"/></g><g transform="translate(689.68 4520.863)"><rect width="5.151" height="32.617" fill="#ff3c00"/></g><g transform="translate(593.085 4516.782)"><g transform="translate(0)"><path d="M740.964,4540.708a1.505,1.505,0,0,1-.31-.035l-.9-.143a14.556,14.556,0,0,0-1.468-.191l-.94-.1-1.074-.047a28.172,28.172,0,0,0-5.518.3,30.65,30.65,0,0,0-7.048,1.918,28.9,28.9,0,0,0-7.6,4.492,40.032,40.032,0,0,0-6.8,7.543c-2.162,2.864-4.368,6.015-7.429,8.551a18.663,18.663,0,0,1-5.155,3.116,12.374,12.374,0,0,1-6.151.757,14.459,14.459,0,0,1-5.8-2.2,24.525,24.525,0,0,1-4.6-3.883c-2.721-2.881-4.7-6.149-6.781-9.073a33.328,33.328,0,0,0-6.773-7.54,17.607,17.607,0,0,0-3.979-2.263,18.728,18.728,0,0,0-4.085-1.1,18.627,18.627,0,0,0-15.221,4.336l-.675.612a1.605,1.605,0,0,1-.241.2,1.725,1.725,0,0,1,.209-.229l.648-.646a17.87,17.87,0,0,1,2.809-2.116,19.614,19.614,0,0,1,12.513-2.459,19.067,19.067,0,0,1,4.165,1.092,17.878,17.878,0,0,1,4.071,2.287,33.489,33.489,0,0,1,6.883,7.6c2.1,2.933,4.078,6.18,6.764,9.013a24.171,24.171,0,0,0,4.523,3.81,14.05,14.05,0,0,0,5.627,2.137,11.952,11.952,0,0,0,5.94-.731,18.317,18.317,0,0,0,5.039-3.04c3.009-2.484,5.207-5.6,7.38-8.464,1.086-1.44,2.163-2.835,3.3-4.122.573-.638,1.139-1.269,1.754-1.832l.9-.849c.308-.271.629-.522.938-.78a29,29,0,0,1,7.714-4.5,30.571,30.571,0,0,1,7.127-1.874,27.613,27.613,0,0,1,5.559-.228l1.08.068.942.119a13.724,13.724,0,0,1,1.468.233l.9.187A1.732,1.732,0,0,1,740.964,4540.708Z" transform="translate(-642.408 -4539.974)" fill="#263238"/></g></g><g transform="translate(584.345 4497.481)"><g transform="translate(0 0)"><path d="M632.111,4576c-.119,0-.216-13.262-.216-29.617s.1-29.621.216-29.621.217,13.259.217,29.621S632.231,4576,632.111,4576Z" transform="translate(-631.895 -4516.758)" fill="#263238"/></g></g><g transform="translate(587.793 4556.503)"><path d="M745.184,4587.968c0,.12-24.434.216-54.568.216s-54.573-.1-54.573-.216,24.429-.216,54.573-.216S745.184,4587.848,745.184,4587.968Z" transform="translate(-636.042 -4587.752)" fill="#263238"/></g><g transform="translate(589.934 4560.164)"><g transform="translate(0 0)"><path d="M646.263,4592.371a33.886,33.886,0,1,1-3.823-.216A17.034,17.034,0,0,1,646.263,4592.371Z" transform="translate(-638.618 -4592.154)" fill="#263238"/></g></g><g transform="translate(601.122 4560.35)"><g transform="translate(0)"><path d="M661.213,4592.595a48.143,48.143,0,0,1-9.138,0,48.36,48.36,0,0,1,9.138,0Z" transform="translate(-652.075 -4592.378)" fill="#263238"/></g></g><g transform="translate(611.938 4560.35)"><g transform="translate(0)"><path d="M674.222,4592.595a48.143,48.143,0,0,1-9.138,0,48.359,48.359,0,0,1,9.138,0Z" transform="translate(-665.084 -4592.378)" fill="#263238"/></g></g><g transform="translate(622.754 4560.35)"><g transform="translate(0)"><path d="M687.231,4592.595a48.134,48.134,0,0,1-9.137,0,48.35,48.35,0,0,1,9.137,0Z" transform="translate(-678.094 -4592.378)" fill="#263238"/></g></g><g transform="translate(633.569 4560.35)"><g transform="translate(0)"><path d="M700.24,4592.595a48.134,48.134,0,0,1-9.137,0,48.35,48.35,0,0,1,9.137,0Z" transform="translate(-691.103 -4592.378)" fill="#263238"/></g></g><g transform="translate(644.385 4560.35)"><g transform="translate(0)"><path d="M713.249,4592.595a48.134,48.134,0,0,1-9.137,0,48.35,48.35,0,0,1,9.137,0Z" transform="translate(-704.112 -4592.378)" fill="#263238"/></g></g><g transform="translate(655.2 4560.35)"><path d="M726.259,4592.595a48.143,48.143,0,0,1-9.138,0,48.36,48.36,0,0,1,9.138,0Z" transform="translate(-717.121 -4592.378)" fill="#263238"/></g><g transform="translate(666.015 4560.35)"><g transform="translate(0)"><path d="M739.268,4592.595a48.143,48.143,0,0,1-9.138,0,48.359,48.359,0,0,1,9.138,0Z" transform="translate(-730.13 -4592.378)" fill="#263238"/></g></g><g transform="translate(676.831 4560.35)"><path d="M752.277,4592.595a48.143,48.143,0,0,1-9.138,0,48.359,48.359,0,0,1,9.138,0Z" transform="translate(-743.139 -4592.378)" fill="#263238"/></g><g transform="translate(687.647 4560.35)"><path d="M765.286,4592.595a48.134,48.134,0,0,1-9.137,0,48.35,48.35,0,0,1,9.137,0Z" transform="translate(-756.149 -4592.378)" fill="#263238"/></g><g transform="translate(623.945 4528.889)"><g transform="translate(0)"><path d="M681.018,4554.711c-.009-.057.446.015.619.6a1.1,1.1,0,0,1-.2,1,1.117,1.117,0,0,1-1.9-.853,1.1,1.1,0,0,1,.61-.813c.555-.262.91.032.861.063-.02.063-.338-.06-.708.2a.835.835,0,0,0-.367.591.744.744,0,0,0,1.2.542.836.836,0,0,0,.2-.666C681.287,4554.925,680.984,4554.769,681.018,4554.711Z" transform="translate(-679.527 -4554.536)" fill="#263238"/></g></g><g transform="translate(673.876 4517.713)"><g transform="translate(0)"><path d="M740.932,4541.217c0-.025.1-.062.293-.029a1.151,1.151,0,0,1,.677.433,1.2,1.2,0,0,1,.183,1.21,1.383,1.383,0,0,1-1.263.813,1.281,1.281,0,0,1-1.176-.931,1.219,1.219,0,0,1,.244-1.194c.509-.516.993-.434.979-.394.025.068-.406.131-.741.584a.931.931,0,0,0-.1.877.9.9,0,0,0,.8.624,1.023,1.023,0,0,0,.892-.544.907.907,0,0,0-.069-.87C741.352,4541.308,740.917,4541.285,740.932,4541.217Z" transform="translate(-739.584 -4541.095)" fill="#263238"/></g></g><g transform="translate(675.815 4494.875)"><g transform="translate(0 0)"><ellipse cx="0.216" cy="0.624" rx="0.216" ry="0.624" fill="#263238"/></g><g transform="translate(0 3.953)"><path d="M742.133,4521.084c-.12,0-.216-.606-.216-1.354s.1-1.352.216-1.352.217.6.217,1.352S742.253,4521.084,742.133,4521.084Z" transform="translate(-741.917 -4518.379)" fill="#263238"/></g><g transform="translate(0 9.364)"><path d="M742.133,4527.594c-.12,0-.216-.606-.216-1.354s.1-1.353.216-1.353.217.606.217,1.353S742.253,4527.594,742.133,4527.594Z" transform="translate(-741.917 -4524.888)" fill="#263238"/></g><g transform="translate(0 14.776)"><path d="M742.133,4534.1c-.12,0-.216-.606-.216-1.354s.1-1.353.216-1.353.217.606.217,1.353S742.253,4534.1,742.133,4534.1Z" transform="translate(-741.917 -4531.396)" fill="#263238"/></g><g transform="translate(0 20.187)"><path d="M742.133,4539.153c-.12,0-.216-.279-.216-.624s.1-.624.216-.624.217.279.217.624S742.253,4539.153,742.133,4539.153Z" transform="translate(-741.917 -4537.906)" fill="#263238"/></g></g><g transform="translate(674.935 4487.324)"><g transform="translate(0)"><path d="M778.6,4504.757c0,.12-8.45.216-18.871.216s-18.873-.1-18.873-.216,8.448-.216,18.873-.216S778.6,4504.638,778.6,4504.757Z" transform="translate(-740.859 -4504.541)" fill="#263238"/></g></g><g transform="translate(675.504 4483.051)"><g transform="translate(0)"><path d="M765.828,4499.618c0,.12-5.437.217-12.142.217s-12.143-.1-12.143-.217,5.436-.216,12.143-.216S765.828,4499.5,765.828,4499.618Z" transform="translate(-741.543 -4499.402)" fill="#263238"/></g></g><g transform="translate(452.18 4428.813)"><path d="M473.14,4469.171c.12,0,.216.278.216.624s-.1.624-.216.624-.216-.279-.216-.624S473.02,4469.171,473.14,4469.171Z" transform="translate(-472.924 -4440.065)" fill="#263238"/><path d="M473.14,4463.38c.12,0,.216.54.216,1.2s-.1,1.2-.216,1.2-.216-.539-.216-1.2S473.02,4463.38,473.14,4463.38Z" transform="translate(-472.924 -4439.089)" fill="#263238"/><path d="M473.14,4457.587c.12,0,.216.538.216,1.2s-.1,1.2-.216,1.2-.216-.539-.216-1.2S473.02,4457.587,473.14,4457.587Z" transform="translate(-472.924 -4438.112)" fill="#263238"/><path d="M473.14,4451.8c.12,0,.216.539.216,1.2s-.1,1.2-.216,1.2-.216-.539-.216-1.2S473.02,4451.8,473.14,4451.8Z" transform="translate(-472.924 -4437.137)" fill="#263238"/><ellipse cx="0.216" cy="1.201" rx="0.216" ry="1.201" transform="translate(0 9.856)" fill="#263238"/><path d="M473.14,4440.23c.12,0,.216.539.216,1.2s-.1,1.2-.216,1.2-.216-.539-.216-1.2S473.02,4440.23,473.14,4440.23Z" transform="translate(-472.924 -4435.185)" fill="#263238"/><path d="M473.14,4435.829c.12,0,.216.279.216.623s-.1.625-.216.625-.216-.279-.216-.625S473.02,4435.829,473.14,4435.829Z" transform="translate(-472.924 -4434.443)" fill="#263238"/><path d="M474.431,4434.377c0,.12-.279.218-.623.218s-.624-.1-.624-.218.279-.215.624-.215S474.431,4434.258,474.431,4434.377Z" transform="translate(-472.967 -4434.162)" fill="#263238"/><path d="M480.326,4434.377c0,.12-.573.218-1.28.218s-1.28-.1-1.28-.218.573-.215,1.28-.215S480.326,4434.258,480.326,4434.377Z" transform="translate(-473.74 -4434.162)" fill="#263238"/><path d="M486.487,4434.377c0,.12-.574.218-1.28.218s-1.28-.1-1.28-.218.573-.215,1.28-.215S486.487,4434.258,486.487,4434.377Z" transform="translate(-474.779 -4434.162)" fill="#263238"/><path d="M492.646,4434.377c0,.12-.573.218-1.279.218s-1.28-.1-1.28-.218.573-.215,1.28-.215S492.646,4434.258,492.646,4434.377Z" transform="translate(-475.818 -4434.162)" fill="#263238"/><path d="M498.8,4434.377c0,.12-.572.218-1.278.218s-1.278-.1-1.278-.218.572-.215,1.278-.215S498.8,4434.258,498.8,4434.377Z" transform="translate(-476.855 -4434.162)" fill="#263238"/><path d="M504.949,4434.377c0,.12-.573.218-1.279.218s-1.279-.1-1.279-.218.573-.215,1.279-.215S504.949,4434.258,504.949,4434.377Z" transform="translate(-477.892 -4434.162)" fill="#263238"/><path d="M511.1,4434.377c0,.12-.572.218-1.279.218s-1.278-.1-1.278-.218.572-.215,1.278-.215S511.1,4434.258,511.1,4434.377Z" transform="translate(-478.93 -4434.162)" fill="#263238"/><path d="M517.253,4434.377c0,.12-.573.218-1.28.218s-1.279-.1-1.279-.218.573-.215,1.279-.215S517.253,4434.258,517.253,4434.377Z" transform="translate(-479.967 -4434.162)" fill="#263238"/><path d="M523.407,4434.377c0,.12-.573.218-1.279.218s-1.279-.1-1.279-.218.572-.215,1.279-.215S523.407,4434.258,523.407,4434.377Z" transform="translate(-481.005 -4434.162)" fill="#263238"/><path d="M529.561,4434.377c0,.12-.572.218-1.279.218s-1.279-.1-1.279-.218.573-.215,1.279-.215S529.561,4434.258,529.561,4434.377Z" transform="translate(-482.043 -4434.162)" fill="#263238"/><path d="M535.715,4434.377c0,.12-.573.218-1.279.218s-1.279-.1-1.279-.218.573-.215,1.279-.215S535.715,4434.258,535.715,4434.377Z" transform="translate(-483.08 -4434.162)" fill="#263238"/><path d="M540.594,4434.377c0,.12-.279.218-.624.218s-.623-.1-.623-.218.279-.215.623-.215S540.594,4434.258,540.594,4434.377Z" transform="translate(-484.124 -4434.162)" fill="#263238"/></g><g transform="translate(534.885 4475.533)"><g transform="translate(0 0)"><path d="M607.625,4490.358h-32a3.226,3.226,0,0,0-3.225,3.226v18.768a3.225,3.225,0,0,0,3.225,3.226h5.122v7.692l6.9-7.692h19.98a3.225,3.225,0,0,0,3.225-3.226v-18.768A3.226,3.226,0,0,0,607.625,4490.358Z" transform="translate(-572.403 -4490.358)" fill="#263238"/></g><g transform="translate(12.724 11.686)"><path d="M590.378,4505.75a1.335,1.335,0,1,1-1.335-1.335A1.335,1.335,0,0,1,590.378,4505.75Z" transform="translate(-587.708 -4504.415)" fill="#fafafa"/></g><g transform="translate(17.968 11.686)"><path d="M596.686,4505.75a1.336,1.336,0,1,1-1.336-1.335A1.336,1.336,0,0,1,596.686,4505.75Z" transform="translate(-594.015 -4504.415)" fill="#fafafa"/></g><g transform="translate(23.052 11.686)"><path d="M602.8,4505.75a1.336,1.336,0,1,1-1.336-1.335A1.336,1.336,0,0,1,602.8,4505.75Z" transform="translate(-600.131 -4504.415)" fill="#fafafa"/></g></g><g transform="translate(497.784 4486.854)"><g transform="translate(0 0)"><path d="M529.347,4516.019c-1.57-.389-1.317-4.713-1.48-6.036a4.354,4.354,0,0,1,.157-2.4,3.288,3.288,0,0,1,2.571-1.6c1.039-.156,2.1-.056,3.143-.205,2.093-.3,3.961-1.6,6.067-1.787a5.988,5.988,0,0,1,4.706,1.717,11.7,11.7,0,0,0,2.17,2.181,11.847,11.847,0,0,0,2.612.779,5.994,5.994,0,0,1,4.133,4.9,17.079,17.079,0,0,1-.29,4,6.1,6.1,0,0,0,.559,3.906c.729,1.186,2.1,1.883,2.771,3.1a3.335,3.335,0,0,1-3.393,4.914c-.39-.056-.837-.167-1.141.084-.264.216-.287.6-.359.934a2.532,2.532,0,0,1-4.979-.9" transform="translate(-527.777 -4503.976)" fill="#263238"/></g><g transform="translate(0.241 3.694)"><path d="M547.606,4544.456l-13.767-1.1c-.086-1.608.029-7.826.029-7.826s-5.728-.89-5.8-6.618.922-18.877.922-18.877h0a19.906,19.906,0,0,1,20,2.515l.849.653Z" transform="translate(-528.067 -4508.419)" fill="#ffbf9d"/><g transform="translate(0.844 9.339)"><g transform="translate(0.009 0.14)"><path d="M530.483,4521.268a.832.832,0,1,0-1.175-.058A.832.832,0,0,0,530.483,4521.268Z" transform="translate(-529.093 -4519.82)" fill="#263238"/></g><path d="M529.093,4520.464c.09.1.652-.333,1.441-.336s1.361.4,1.448.3c.042-.045-.047-.224-.3-.414a1.943,1.943,0,0,0-2.305.028C529.134,4520.24,529.05,4520.421,529.093,4520.464Z" transform="translate(-529.082 -4519.651)" fill="#263238"/></g><g transform="translate(9.411 10.033)"><g transform="translate(0 0.277)"><path d="M539.783,4520.944a.832.832,0,1,0,1.144.272A.832.832,0,0,0,539.783,4520.944Z" transform="translate(-539.387 -4520.82)" fill="#263238"/></g><path d="M539.4,4521.3c.09.1.652-.333,1.441-.337s1.361.4,1.448.3c.042-.044-.047-.224-.3-.414a1.943,1.943,0,0,0-2.305.028C539.439,4521.075,539.354,4521.257,539.4,4521.3Z" transform="translate(-539.387 -4520.487)" fill="#263238"/></g><g transform="translate(4.211 10.496)"><path d="M535.18,4527.9a3.823,3.823,0,0,0-1.275-.271c-.206-.022-.368-.069-.383-.18a1.127,1.127,0,0,1,.148-.59l.624-1.6a21.868,21.868,0,0,0,1.35-4.213,22.034,22.034,0,0,0-1.77,4.054l-.59,1.616a1.316,1.316,0,0,0-.113.857.542.542,0,0,0,.356.33,1.348,1.348,0,0,0,.352.046A3.812,3.812,0,0,0,535.18,4527.9Z" transform="translate(-533.131 -4521.044)" fill="#263238"/></g><g transform="translate(4.954 18.136)"><path d="M537.893,4530.323c.821-.49-2.263,1.2-3.868,1.124a2.18,2.18,0,0,0,2.572.867C538.312,4531.688,537.893,4530.323,537.893,4530.323Z" transform="translate(-534.025 -4530.234)" fill="#fafafa"/></g><g transform="translate(5.779 24.907)"><path d="M535.031,4540.5a13.311,13.311,0,0,0,7.466-2.122s-1.765,4.122-7.479,3.605Z" transform="translate(-535.018 -4538.378)" fill="#ff9a6c"/></g><g transform="translate(20.877 10.47)"><path d="M553.2,4521.216c.114-.069,4.063-1.35,4.571,3.5s-4.558,3.76-4.581,3.622S553.2,4521.216,553.2,4521.216Z" transform="translate(-553.178 -4521.013)" fill="#ffbf9d"/><g transform="translate(1.287 1.53)"><path d="M554.755,4526.791c.019-.018.091.05.24.1a.848.848,0,0,0,.633-.053,2.1,2.1,0,0,0,.771-1.977,2.8,2.8,0,0,0-.363-1.185.978.978,0,0,0-.7-.582.433.433,0,0,0-.475.284c-.051.143-.01.236-.034.247s-.113-.07-.095-.274a.544.544,0,0,1,.159-.324.642.642,0,0,1,.455-.172,1.193,1.193,0,0,1,.961.659,2.885,2.885,0,0,1,.435,1.321,2.205,2.205,0,0,1-1.013,2.224.908.908,0,0,1-.786-.047C554.776,4526.907,554.739,4526.8,554.755,4526.791Z" transform="translate(-554.726 -4522.854)" fill="#ff9a6c"/></g></g></g><g transform="translate(0.244 1.919)"><path d="M529.022,4509.39a6.832,6.832,0,0,0,5.81,3.15,22.3,22.3,0,0,0,6.78-1.2c1.2-.335,2.671-.589,3.554.3a3.353,3.353,0,0,1,.757,2,21.639,21.639,0,0,1,.067,4.843,5.559,5.559,0,0,0,.008,1.931,1.619,1.619,0,0,0,1.3,1.276c1.01.085,1.627-1.058,1.969-2.012a18.822,18.822,0,0,0,1.121-4.054,6.322,6.322,0,0,0-.737-4.07,8.4,8.4,0,0,0-3.711-2.871,21.815,21.815,0,0,0-9.168-2.4,12.113,12.113,0,0,0-8.7,3.3" transform="translate(-528.071 -4506.284)" fill="#263238"/></g></g><g transform="translate(487.626 4735.75)"><g transform="translate(0 0)"><g transform="translate(0.041)"><path d="M525.249,4811.171l-.043-7.645,14.319-.173.182,11.183-.887.068c-3.948.267-20.1,1.08-22.746.312C513.117,4814.059,525.249,4811.171,525.249,4811.171Z" transform="translate(-515.609 -4803.354)" fill="#ff4f5b"/><g transform="translate(18.905 6.966)"><path d="M538.348,4815.9a4.969,4.969,0,0,1,1.79-3.075,4.827,4.827,0,0,1,3.335-1.081l.052,4Z" transform="translate(-538.348 -4811.733)" fill="#ff4f5b"/></g></g><g transform="translate(0 9.44)"><path d="M519.315,4814.709s-4.249,1.281-3.709,1.978,16.889.487,24.092-.235l-.027-.319-19.067.405S520.149,4814.733,519.315,4814.709Z" transform="translate(-515.559 -4814.709)" fill="#ff4f5b"/></g><g transform="translate(0.04 10.846)"><path d="M539.9,4816.406a1.326,1.326,0,0,1-.245.029l-.707.052-2.6.145c-2.2.107-5.234.214-8.591.26s-6.4.019-8.6-.028l-2.6-.076-.708-.032a1.257,1.257,0,0,1-.246-.023,1.4,1.4,0,0,1,.247-.012h.708l2.6.02c2.2.017,5.237.022,8.592-.022s6.39-.134,8.587-.209l2.6-.091.708-.018A1.208,1.208,0,0,1,539.9,4816.406Z" transform="translate(-515.607 -4816.399)" fill="#263238"/></g><g transform="translate(3.649 9.265)"><path d="M521.351,4816.723a3.787,3.787,0,0,0-1.4-2.22,2.311,2.311,0,0,1,1.4,2.22Z" transform="translate(-519.949 -4814.499)" fill="#263238"/></g><g transform="translate(8.471 8.11)"><path d="M526.527,4814.293c-.041.025-.245-.218-.459-.544s-.353-.612-.313-.639.245.218.458.544S526.567,4814.266,526.527,4814.293Z" transform="translate(-525.749 -4813.108)" fill="#263238"/></g><g transform="translate(9.494 7.869)"><path d="M527.886,4813.616c-.032.036-.259-.112-.509-.331s-.427-.425-.395-.46.259.111.509.33S527.917,4813.58,527.886,4813.616Z" transform="translate(-526.979 -4812.819)" fill="#263238"/></g><g transform="translate(9.622 7.234)"><path d="M528.628,4812.126a3.262,3.262,0,1,1-.75-.069A1.7,1.7,0,0,1,528.628,4812.126Z" transform="translate(-527.132 -4812.055)" fill="#263238"/></g><g transform="translate(9.664 6.335)"><path d="M528.876,4810.987a2.1,2.1,0,0,1-1.693.149,4.692,4.692,0,0,1,.846-.068A4.638,4.638,0,0,1,528.876,4810.987Z" transform="translate(-527.183 -4810.974)" fill="#263238"/></g><g transform="translate(6.04 6.787)"><path d="M525.532,4812.782a2.677,2.677,0,0,1-.92.005,5.359,5.359,0,0,1-.982-.2,2.683,2.683,0,0,1-.564-.224.5.5,0,0,1-.231-.283.361.361,0,0,1,.135-.369,1.687,1.687,0,0,1,2.093.466,1.664,1.664,0,0,1,.308.61.521.521,0,0,1,.027.249,2.6,2.6,0,0,0-.429-.78,1.66,1.66,0,0,0-.792-.5,1.423,1.423,0,0,0-1.1.089c-.145.109-.086.281.078.375a2.8,2.8,0,0,0,.52.214,6.427,6.427,0,0,0,.951.234C525.181,4812.757,525.532,4812.752,525.532,4812.782Z" transform="translate(-522.823 -4811.517)" fill="#263238"/></g><g transform="translate(8.39 6.307)"><path d="M525.771,4812.732a.914.914,0,0,1-.114-.638,1.514,1.514,0,0,1,.243-.675.924.924,0,0,1,.76-.479.368.368,0,0,1,.289.422,1.016,1.016,0,0,1-.151.413,2.794,2.794,0,0,1-.427.562,1.346,1.346,0,0,1-.522.379c-.017-.023.181-.168.431-.462a3.245,3.245,0,0,0,.378-.557c.124-.2.205-.546-.026-.585-.23-.019-.463.213-.6.4a1.517,1.517,0,0,0-.253.6A3.38,3.38,0,0,0,525.771,4812.732Z" transform="translate(-525.65 -4810.94)" fill="#263238"/></g><g transform="translate(18.956 6.851)"><path d="M543.4,4811.681c0,.032-.411-.034-1.057.05a4.486,4.486,0,0,0-3.713,3.037c-.21.616-.226,1.029-.259,1.025a.808.808,0,0,1,0-.289,3.755,3.755,0,0,1,.146-.773,4.353,4.353,0,0,1,3.816-3.122,3.749,3.749,0,0,1,.787.01A.8.8,0,0,1,543.4,4811.681Z" transform="translate(-538.359 -4811.594)" fill="#263238"/></g><g transform="translate(22.396 0.998)"><path d="M542.537,4804.554a25.292,25.292,0,0,1,.161,2.939,24.8,24.8,0,0,1-.012,2.944,25.286,25.286,0,0,1-.161-2.94A25.016,25.016,0,0,1,542.537,4804.554Z" transform="translate(-542.497 -4804.554)" fill="#263238"/></g><g transform="translate(12.943 9.745)"><path d="M535.31,4815.091a11.824,11.824,0,0,1-4.183.093c0-.051.939,0,2.093-.033S535.3,4815.041,535.31,4815.091Z" transform="translate(-531.127 -4815.076)" fill="#263238"/></g><g transform="translate(19.532 9.715)"><path d="M539.454,4815.045c.035.035-.074.2-.167.415s-.142.407-.192.4-.077-.225.033-.474S539.422,4815.011,539.454,4815.045Z" transform="translate(-539.053 -4815.04)" fill="#263238"/></g><g transform="translate(20.437 8.384)"><path d="M540.678,4813.445c.034.033-.056.183-.2.335s-.293.249-.328.215.056-.184.2-.336S540.643,4813.413,540.678,4813.445Z" transform="translate(-540.141 -4813.439)" fill="#263238"/></g><g transform="translate(21.666 7.691)"><path d="M542.433,4812.684c-.009.049-.2.05-.409.126s-.36.19-.4.159.079-.231.339-.323S542.447,4812.639,542.433,4812.684Z" transform="translate(-541.619 -4812.605)" fill="#263238"/></g><g transform="translate(23.123 7.441)"><path d="M543.8,4812.335c.018.045-.063.12-.181.167s-.229.05-.247.006.064-.12.182-.167S543.784,4812.292,543.8,4812.335Z" transform="translate(-543.371 -4812.304)" fill="#263238"/></g></g></g><g transform="translate(554.487 4732.335)"><g transform="translate(0)"><path d="M611.978,4806.528l-2.331-7.281-13.665,4.279,3.3,10.688.865-.211c3.837-.971,19.438-5.21,21.72-6.764C624.407,4805.506,611.978,4806.528,611.978,4806.528Z" transform="translate(-595.981 -4799.247)" fill="#ff4f5b"/><g transform="translate(2.057 10.615)"><path d="M604.617,4814.708a4.971,4.971,0,0,0-2.656-2.367,4.829,4.829,0,0,0-3.506.007l1.194,3.82Z" transform="translate(-598.455 -4812.015)" fill="#ff4f5b"/></g><g transform="translate(3.224 6.981)"><path d="M618.768,4807.647s4.437-.1,4.139.728-15.9,5.706-22.975,7.255l-.073-.312,18.251-5.533S617.983,4807.929,618.768,4807.647Z" transform="translate(-599.859 -4807.643)" fill="#ff4f5b"/></g><g transform="translate(3.006 7.482)"><path d="M599.6,4815.479a1.289,1.289,0,0,0,.243-.048l.688-.17,2.517-.669c2.122-.58,5.042-1.42,8.247-2.419s6.087-1.967,8.162-2.695l2.452-.88.663-.25a1.289,1.289,0,0,0,.227-.1,1.4,1.4,0,0,0-.239.065l-.673.22-2.469.827c-2.085.7-4.971,1.647-8.174,2.646s-6.116,1.856-8.229,2.466l-2.5.722-.678.2A1.38,1.38,0,0,0,599.6,4815.479Z" transform="translate(-599.597 -4808.248)" fill="#263238"/></g><g transform="translate(21.384 6.787)"><path d="M621.856,4809.959a3.788,3.788,0,0,1,.643-2.547,2.314,2.314,0,0,0-.643,2.547Z" transform="translate(-621.702 -4807.41)" fill="#263238"/></g><g transform="translate(16.847 7.186)"><path d="M616.263,4809.254c.047.013.166-.283.267-.66a1.5,1.5,0,0,0,.1-.7c-.047-.013-.165.283-.267.66A1.515,1.515,0,0,0,616.263,4809.254Z" transform="translate(-616.245 -4807.891)" fill="#263238"/></g><g transform="translate(15.567 7.276)"><path d="M614.714,4809.033c.042.024.212-.187.382-.472s.273-.537.232-.561-.212.188-.382.472S614.673,4809.008,614.714,4809.033Z" transform="translate(-614.705 -4807.998)" fill="#263238"/></g><g transform="translate(14.473 6.794)"><path d="M613.39,4807.863a1.681,1.681,0,0,0,.742-.132c.4-.118.705-.252.691-.3a3.264,3.264,0,0,0-1.432.43Z" transform="translate(-613.389 -4807.418)" fill="#263238"/></g><g transform="translate(13.949 6.012)"><path d="M612.759,4806.87a2.1,2.1,0,0,0,1.655-.383,62.885,62.885,0,0,1-1.655.383Z" transform="translate(-612.759 -4806.478)" fill="#263238"/></g><g transform="translate(16.957 5.371)"><path d="M616.377,4807.548a2.635,2.635,0,0,0,.876-.279,5.4,5.4,0,0,0,.87-.5,2.647,2.647,0,0,0,.466-.387.5.5,0,0,0,.132-.341.363.363,0,0,0-.243-.31,1.688,1.688,0,0,0-1.845,1.094,1.648,1.648,0,0,0-.1.676.514.514,0,0,0,.052.245,2.582,2.582,0,0,1,.165-.875,1.657,1.657,0,0,1,.6-.721,1.421,1.421,0,0,1,1.068-.256c.172.06.169.241.043.382a2.79,2.79,0,0,1-.428.365,6.388,6.388,0,0,1-.831.518C616.7,4807.416,616.368,4807.521,616.377,4807.548Z" transform="translate(-616.377 -4805.706)" fill="#263238"/></g><g transform="translate(15.612 5.714)"><path d="M616.345,4807.591a.91.91,0,0,0-.09-.641,1.51,1.51,0,0,0-.44-.567.926.926,0,0,0-.871-.219.366.366,0,0,0-.144.491,1.01,1.01,0,0,0,.272.346,2.761,2.761,0,0,0,.58.4,1.336,1.336,0,0,0,.614.2c.008-.026-.224-.1-.554-.3a3.181,3.181,0,0,1-.532-.413c-.179-.148-.366-.456-.158-.565a.826.826,0,0,1,.7.192,1.512,1.512,0,0,1,.427.494A3.367,3.367,0,0,1,616.345,4807.591Z" transform="translate(-614.759 -4806.12)" fill="#263238"/></g><g transform="translate(2.116 10.373)"><path d="M598.527,4812.237c.012.03.38-.16,1.021-.28a4.484,4.484,0,0,1,4.471,1.735c.392.521.535.908.565.895a.834.834,0,0,0-.086-.276,3.74,3.74,0,0,0-.379-.69,4.352,4.352,0,0,0-4.6-1.783,3.792,3.792,0,0,0-.746.254A.859.859,0,0,0,598.527,4812.237Z" transform="translate(-598.527 -4811.724)" fill="#263238"/></g><g transform="translate(1.752 4.756)"><path d="M598.092,4804.968a25.216,25.216,0,0,0,.759,2.845,24.9,24.9,0,0,0,.925,2.794,25.051,25.051,0,0,0-.759-2.845A24.781,24.781,0,0,0,598.092,4804.968Z" transform="translate(-598.088 -4804.968)" fill="#263238"/></g><g transform="translate(9.522 10.224)"><path d="M607.435,4812.758a11.741,11.741,0,0,0,4.005-1.209c-.019-.046-.895.287-2,.619S607.425,4812.709,607.435,4812.758Z" transform="translate(-607.435 -4811.544)" fill="#263238"/></g><g transform="translate(6.84 12.259)"><path d="M604.211,4814c-.022.044.132.167.288.344s.261.342.308.324,0-.238-.179-.439S604.23,4813.963,604.211,4814Z" transform="translate(-604.208 -4813.993)" fill="#263238"/></g><g transform="translate(5.437 11.315)"><path d="M602.523,4812.872c-.022.042.111.157.3.257s.355.144.377.1-.11-.157-.3-.257S602.547,4812.83,602.523,4812.872Z" transform="translate(-602.521 -4812.856)" fill="#263238"/></g><g transform="translate(3.813 11.027)"><path d="M600.57,4812.691c.024.043.205-.015.428-.007s.4.069.427.027-.147-.2-.423-.2S600.544,4812.654,600.57,4812.691Z" transform="translate(-600.568 -4812.511)" fill="#263238"/></g><g transform="translate(2.703 11.186)"><path d="M599.232,4812.774c0,.047.1.093.224.1s.233-.024.236-.072-.1-.093-.224-.1S599.235,4812.726,599.232,4812.774Z" transform="translate(-599.232 -4812.702)" fill="#263238"/></g></g></g><g transform="translate(487.565 4591.747)"><path d="M515.485,4630.144l6.683,148.527,22.3.468-3.7-124.344,40.406,125.826,18.225-4.988L558.73,4630.144" transform="translate(-515.485 -4630.144)" fill="#263238"/><g transform="translate(64.731 142.761)"><path d="M593.345,4808.732l1.04,2L613.7,4805.1l-1.173-3.242Z" transform="translate(-593.345 -4801.86)" fill="#455a64"/></g><g transform="translate(40.011 3.374)"><g transform="translate(41.577 138.642)"><path d="M613.716,4800.967c.114-.034.287.206.386.534s.086.625-.028.661-.287-.205-.386-.535S613.6,4801,613.716,4800.967Z" transform="translate(-613.621 -4800.963)" fill="#455a64"/></g><g transform="translate(40.17 133.821)"><path d="M611.984,4795.167c.115-.034.369.479.569,1.143s.269,1.234.155,1.269-.369-.478-.57-1.144S611.869,4795.2,611.984,4795.167Z" transform="translate(-611.928 -4795.165)" fill="#455a64"/></g><g transform="translate(38.724 128.998)"><path d="M610.244,4789.366c.115-.034.37.478.57,1.144s.268,1.232.154,1.268-.369-.478-.569-1.144S610.13,4789.4,610.244,4789.366Z" transform="translate(-610.189 -4789.365)" fill="#455a64"/></g><g transform="translate(37.277 124.175)"><path d="M608.5,4783.564c.115-.034.369.478.569,1.144s.268,1.233.155,1.268-.37-.478-.569-1.145S608.39,4783.6,608.5,4783.564Z" transform="translate(-608.449 -4783.563)" fill="#455a64"/></g><g transform="translate(35.831 119.353)"><path d="M606.765,4777.763c.115-.034.369.478.569,1.144s.269,1.233.155,1.268-.369-.478-.569-1.144S606.65,4777.8,606.765,4777.763Z" transform="translate(-606.709 -4777.762)" fill="#455a64"/></g><g transform="translate(34.385 114.529)"><path d="M605.026,4771.962c.114-.034.369.478.569,1.144s.269,1.234.154,1.268-.369-.478-.569-1.144S604.911,4772,605.026,4771.962Z" transform="translate(-604.97 -4771.96)" fill="#455a64"/></g><g transform="translate(32.938 109.708)"><path d="M603.286,4766.163c.115-.035.369.477.569,1.143s.269,1.234.155,1.268-.369-.478-.57-1.144S603.171,4766.2,603.286,4766.163Z" transform="translate(-603.23 -4766.161)" fill="#455a64"/></g><g transform="translate(31.492 104.885)"><path d="M601.546,4760.361c.115-.035.37.478.57,1.144s.269,1.234.154,1.268-.369-.477-.569-1.143S601.432,4760.4,601.546,4760.361Z" transform="translate(-601.491 -4760.359)" fill="#455a64"/></g><g transform="translate(30.046 100.062)"><path d="M599.807,4754.561c.115-.035.369.477.569,1.143s.269,1.233.155,1.268-.369-.477-.569-1.143S599.692,4754.595,599.807,4754.561Z" transform="translate(-599.751 -4754.559)" fill="#455a64"/></g><g transform="translate(28.6 95.239)"><path d="M598.067,4748.759c.115-.034.369.478.57,1.143s.268,1.234.154,1.269-.369-.478-.569-1.143S597.952,4748.793,598.067,4748.759Z" transform="translate(-598.012 -4748.757)" fill="#455a64"/></g><g transform="translate(27.154 90.416)"><path d="M596.328,4742.959c.114-.034.369.478.569,1.143s.268,1.233.154,1.268-.369-.477-.569-1.143S596.213,4742.993,596.328,4742.959Z" transform="translate(-596.272 -4742.958)" fill="#455a64"/></g><g transform="translate(25.707 85.594)"><path d="M594.588,4737.158c.115-.034.369.478.569,1.143s.269,1.234.155,1.269-.369-.479-.57-1.145S594.473,4737.192,594.588,4737.158Z" transform="translate(-594.532 -4737.156)" fill="#455a64"/></g><g transform="translate(24.261 80.771)"><path d="M592.848,4731.356c.115-.034.37.479.569,1.145s.269,1.233.154,1.267-.369-.477-.569-1.144S592.734,4731.39,592.848,4731.356Z" transform="translate(-592.793 -4731.354)" fill="#455a64"/></g><g transform="translate(22.815 75.948)"><path d="M591.109,4725.556c.115-.034.369.478.569,1.144s.269,1.233.155,1.268-.369-.478-.57-1.144S590.994,4725.591,591.109,4725.556Z" transform="translate(-591.053 -4725.554)" fill="#455a64"/></g><g transform="translate(21.369 71.125)"><path d="M589.369,4719.754c.115-.034.369.478.569,1.144s.269,1.234.154,1.268-.369-.478-.569-1.144S589.255,4719.789,589.369,4719.754Z" transform="translate(-589.314 -4719.753)" fill="#455a64"/></g><g transform="translate(19.922 66.303)"><path d="M587.63,4713.955c.114-.035.369.477.569,1.143s.269,1.233.154,1.268-.369-.477-.569-1.144S587.515,4713.989,587.63,4713.955Z" transform="translate(-587.574 -4713.954)" fill="#455a64"/></g><g transform="translate(18.476 61.48)"><path d="M585.89,4708.153c.115-.035.369.477.569,1.143s.269,1.234.155,1.269-.369-.478-.569-1.144S585.775,4708.187,585.89,4708.153Z" transform="translate(-585.834 -4708.152)" fill="#455a64"/></g><g transform="translate(17.03 56.657)"><path d="M584.15,4702.352c.115-.035.37.477.57,1.144s.268,1.233.154,1.268-.369-.477-.569-1.143S584.036,4702.386,584.15,4702.352Z" transform="translate(-584.095 -4702.351)" fill="#455a64"/></g><g transform="translate(15.583 51.834)"><path d="M582.411,4696.551c.115-.033.369.478.569,1.144s.269,1.233.155,1.268-.369-.477-.57-1.143S582.3,4696.585,582.411,4696.551Z" transform="translate(-582.355 -4696.549)" fill="#455a64"/></g><g transform="translate(14.137 47.012)"><path d="M580.671,4690.75c.115-.034.369.479.569,1.143s.269,1.234.154,1.268-.369-.477-.569-1.143S580.557,4690.785,580.671,4690.75Z" transform="translate(-580.616 -4690.749)" fill="#455a64"/></g><g transform="translate(12.691 42.189)"><path d="M578.932,4684.95c.114-.034.369.478.569,1.143s.269,1.234.154,1.269-.369-.478-.569-1.144S578.817,4684.984,578.932,4684.95Z" transform="translate(-578.876 -4684.948)" fill="#455a64"/></g><g transform="translate(11.245 37.366)"><path d="M577.192,4679.148c.115-.034.369.478.569,1.144s.269,1.233.155,1.268-.369-.478-.569-1.144S577.077,4679.183,577.192,4679.148Z" transform="translate(-577.136 -4679.147)" fill="#455a64"/></g><g transform="translate(9.799 32.543)"><path d="M575.452,4673.347c.115-.034.37.478.569,1.144s.269,1.233.154,1.268-.369-.479-.569-1.144S575.338,4673.382,575.452,4673.347Z" transform="translate(-575.397 -4673.346)" fill="#455a64"/></g><g transform="translate(8.352 27.72)"><path d="M573.713,4667.546c.115-.035.369.479.569,1.144s.269,1.234.155,1.268-.369-.478-.569-1.144S573.6,4667.581,573.713,4667.546Z" transform="translate(-573.657 -4667.545)" fill="#455a64"/></g><g transform="translate(6.906 22.899)"><path d="M571.973,4661.747c.115-.035.369.477.57,1.143s.268,1.234.154,1.268-.369-.477-.569-1.144S571.859,4661.781,571.973,4661.747Z" transform="translate(-571.918 -4661.745)" fill="#455a64"/></g><g transform="translate(5.46 18.076)"><path d="M570.234,4655.945c.114-.035.369.478.569,1.144s.268,1.234.154,1.268-.369-.478-.569-1.143S570.119,4655.979,570.234,4655.945Z" transform="translate(-570.178 -4655.943)" fill="#455a64"/></g><g transform="translate(4.013 13.253)"><path d="M568.494,4650.145c.115-.035.369.478.569,1.144s.269,1.233.155,1.267-.369-.477-.569-1.143S568.379,4650.179,568.494,4650.145Z" transform="translate(-568.438 -4650.143)" fill="#455a64"/></g><g transform="translate(2.567 8.43)"><path d="M566.755,4644.344c.114-.034.369.477.569,1.143s.269,1.234.154,1.268-.369-.478-.569-1.143S566.64,4644.377,566.755,4644.344Z" transform="translate(-566.699 -4644.342)" fill="#455a64"/></g><g transform="translate(1.121 3.607)"><path d="M565.015,4638.542c.115-.034.369.478.569,1.143s.268,1.234.155,1.268-.369-.477-.57-1.143S564.9,4638.577,565.015,4638.542Z" transform="translate(-564.959 -4638.541)" fill="#455a64"/></g><path d="M563.706,4634.205c.115-.035.288.206.387.534s.086.625-.028.66-.288-.205-.387-.536S563.592,4634.239,563.706,4634.205Z" transform="translate(-563.611 -4634.202)" fill="#455a64"/></g><g transform="translate(22.878 25.289)"><g transform="translate(2.073 122.491)"><path d="M545.683,4807.9c.119-.006.23.268.248.611s-.064.628-.184.634-.23-.267-.249-.611S545.563,4807.9,545.683,4807.9Z" transform="translate(-545.496 -4807.897)" fill="#455a64"/></g><g transform="translate(1.88 117.543)"><path d="M545.439,4801.945c.12,0,.237.547.264,1.229s-.051,1.24-.17,1.245-.238-.545-.264-1.229S545.319,4801.949,545.439,4801.945Z" transform="translate(-545.264 -4801.945)" fill="#455a64"/></g><g transform="translate(1.718 112.594)"><path d="M545.253,4795.993c.12,0,.233.548.253,1.231s-.062,1.24-.181,1.244-.232-.548-.252-1.232S545.134,4796,545.253,4795.993Z" transform="translate(-545.069 -4795.993)" fill="#455a64"/></g><g transform="translate(1.587 107.643)"><path d="M545.1,4790.038c.12,0,.23.549.247,1.233s-.066,1.24-.186,1.243-.229-.549-.247-1.233S544.981,4790.041,545.1,4790.038Z" transform="translate(-544.912 -4790.038)" fill="#455a64"/></g><g transform="translate(1.469 102.691)"><path d="M544.959,4784.08c.12,0,.23.551.246,1.233s-.067,1.24-.187,1.244-.229-.55-.245-1.233S544.84,4784.084,544.959,4784.08Z" transform="translate(-544.77 -4784.08)" fill="#455a64"/></g><g transform="translate(1.344 97.737)"><path d="M544.805,4778.122c.119,0,.231.549.249,1.233s-.063,1.241-.183,1.244-.231-.548-.249-1.232S544.686,4778.125,544.805,4778.122Z" transform="translate(-544.62 -4778.122)" fill="#455a64"/></g><g transform="translate(1.189 92.784)"><path d="M544.61,4772.165c.12,0,.236.546.26,1.23s-.052,1.242-.172,1.245-.236-.547-.26-1.229S544.49,4772.169,544.61,4772.165Z" transform="translate(-544.433 -4772.165)" fill="#455a64"/></g><g transform="translate(0.987 87.837)"><path d="M544.361,4766.214c.119,0,.24.544.268,1.228s-.045,1.241-.164,1.246-.24-.544-.269-1.228S544.242,4766.219,544.361,4766.214Z" transform="translate(-544.19 -4766.214)" fill="#455a64"/></g><g transform="translate(0.791 82.888)"><path d="M544.128,4760.261c.12,0,.238.546.263,1.229s-.05,1.24-.169,1.245-.238-.546-.263-1.229S544.009,4760.266,544.128,4760.261Z" transform="translate(-543.954 -4760.261)" fill="#455a64"/></g><g transform="translate(0.614 77.938)"><path d="M543.92,4754.308c.12,0,.235.547.258,1.23s-.055,1.24-.174,1.245-.234-.547-.258-1.23S543.8,4754.312,543.92,4754.308Z" transform="translate(-543.741 -4754.308)" fill="#455a64"/></g><g transform="translate(0.458 72.985)"><path d="M543.736,4748.35c.12,0,.233.547.254,1.23s-.061,1.24-.18,1.244-.233-.547-.253-1.23S543.617,4748.353,543.736,4748.35Z" transform="translate(-543.553 -4748.35)" fill="#455a64"/></g><g transform="translate(0.324 68.034)"><path d="M543.58,4742.395c.12,0,.23.549.247,1.232s-.066,1.241-.185,1.243-.23-.548-.247-1.232S543.46,4742.4,543.58,4742.395Z" transform="translate(-543.392 -4742.395)" fill="#455a64"/></g><g transform="translate(0.211 63.083)"><path d="M543.45,4736.439c.12,0,.228.55.242,1.233s-.071,1.24-.191,1.242-.228-.549-.242-1.233S543.331,4736.441,543.45,4736.439Z" transform="translate(-543.257 -4736.439)" fill="#455a64"/></g><g transform="translate(0.123 58.131)"><path d="M543.349,4730.483c.12,0,.225.55.236,1.235s-.078,1.239-.2,1.241-.225-.551-.236-1.234S543.229,4730.485,543.349,4730.483Z" transform="translate(-543.151 -4730.483)" fill="#455a64"/></g><g transform="translate(0.058 53.18)"><path d="M543.276,4724.528c.12,0,.223.552.23,1.235s-.084,1.239-.2,1.24-.223-.552-.23-1.236S543.157,4724.528,543.276,4724.528Z" transform="translate(-543.072 -4724.528)" fill="#455a64"/></g><g transform="translate(0.016 48.227)"><path d="M543.232,4718.571c.12,0,.219.553.224,1.237s-.09,1.239-.209,1.239-.219-.553-.224-1.236S543.113,4718.572,543.232,4718.571Z" transform="translate(-543.023 -4718.571)" fill="#455a64"/></g><g transform="translate(0 43.276)"><path d="M543.218,4712.615c.12,0,.217.554.218,1.238s-.1,1.238-.215,1.238-.217-.554-.218-1.238S543.1,4712.615,543.218,4712.615Z" transform="translate(-543.003 -4712.615)" fill="#455a64"/></g><g transform="translate(0.007 38.323)"><path d="M543.234,4706.658c.12,0,.214.555.211,1.238s-.1,1.238-.221,1.237-.215-.554-.212-1.238S543.114,4706.658,543.234,4706.658Z" transform="translate(-543.012 -4706.658)" fill="#455a64"/></g><g transform="translate(0.04 33.372)"><path d="M543.28,4700.7c.12,0,.211.556.205,1.239s-.108,1.237-.228,1.236-.212-.556-.205-1.241S543.16,4700.7,543.28,4700.7Z" transform="translate(-543.052 -4700.702)" fill="#455a64"/></g><g transform="translate(0.097 28.419)"><path d="M543.355,4694.745c.12,0,.209.558.2,1.241s-.114,1.237-.234,1.235-.209-.557-.2-1.241S543.236,4694.744,543.355,4694.745Z" transform="translate(-543.12 -4694.745)" fill="#455a64"/></g><g transform="translate(0.179 23.469)"><path d="M543.46,4688.791c.12,0,.205.559.193,1.242s-.121,1.236-.24,1.234-.206-.558-.194-1.242S543.341,4688.789,543.46,4688.791Z" transform="translate(-543.219 -4688.791)" fill="#455a64"/></g><g transform="translate(0.284 18.515)"><path d="M543.593,4682.832c.12,0,.2.56.186,1.244s-.126,1.236-.246,1.233-.2-.559-.186-1.244S543.474,4682.829,543.593,4682.832Z" transform="translate(-543.344 -4682.832)" fill="#455a64"/></g><g transform="translate(0.436 13.561)"><path d="M543.8,4676.873c.12.005.195.563.167,1.247s-.145,1.234-.265,1.229-.195-.562-.167-1.247S543.678,4676.867,543.8,4676.873Z" transform="translate(-543.527 -4676.873)" fill="#455a64"/></g><g transform="translate(0.684 8.614)"><path d="M544.137,4670.923c.119.009.18.568.135,1.25s-.178,1.229-.3,1.222-.18-.566-.135-1.25S544.017,4670.915,544.137,4670.923Z" transform="translate(-543.825 -4670.923)" fill="#455a64"/></g><g transform="translate(1.074 3.682)"><path d="M544.669,4664.991c.119.013.16.575.091,1.254s-.222,1.22-.341,1.209-.16-.572-.09-1.254S544.55,4664.978,544.669,4664.991Z" transform="translate(-544.295 -4664.991)" fill="#455a64"/></g><g transform="translate(1.608)"><path d="M545.256,4660.563c.118.019.175.309.126.647s-.184.6-.3.587-.175-.306-.126-.647S545.138,4660.545,545.256,4660.563Z" transform="translate(-544.937 -4660.562)" fill="#455a64"/></g></g><g transform="translate(6.101 145.704)"><path d="M522.823,4808.944l23.581.385-.186-3.929-23.4.124Z" transform="translate(-522.823 -4805.4)" fill="#455a64"/></g><g transform="translate(21.532 1.884)"><path d="M541.417,4632.41a3.743,3.743,0,0,1,.141.908c.062.586.138,1.436.223,2.486.17,2.1.373,5,.572,8.21.093,1.6.181,3.122.263,4.524a13.911,13.911,0,0,0,.431,3.613,3.065,3.065,0,0,0,1.5,1.788,4.449,4.449,0,0,0,.858.247c0,.012-.08.034-.24.037a1.873,1.873,0,0,1-.684-.128,3.13,3.13,0,0,1-1.726-1.836,13.118,13.118,0,0,1-.542-3.7c-.091-1.4-.192-2.924-.3-4.521-.2-3.208-.354-6.114-.445-8.219-.046-1.053-.075-1.9-.086-2.494A3.738,3.738,0,0,1,541.417,4632.41Z" transform="translate(-541.385 -4632.41)" fill="#455a64"/></g><g transform="translate(23.315 3.678)"><path d="M544.068,4634.746c.033.056-.188.2-.207.554a.67.67,0,0,0,.172.508.591.591,0,0,0,.944-.383.669.669,0,0,0-.23-.484c-.259-.238-.52-.189-.535-.252-.039-.04.276-.251.715,0a.932.932,0,0,1,.45.721.959.959,0,0,1-1.637.665.93.93,0,0,1-.18-.83C543.7,4634.758,544.068,4634.689,544.068,4634.746Z" transform="translate(-543.529 -4634.568)" fill="#455a64"/></g><g transform="translate(33.955 2.517)"><path d="M567.208,4638.032a4.306,4.306,0,0,1-1.852.706,7.842,7.842,0,0,1-8.312-3.715,4.294,4.294,0,0,1-.709-1.851c.071-.026.3.7.969,1.687a8.151,8.151,0,0,0,8,3.576C566.487,4638.273,567.18,4637.962,567.208,4638.032Z" transform="translate(-556.327 -4633.172)" fill="#455a64"/></g><g transform="translate(0.5 1.885)"><path d="M523.34,4632.411a3.155,3.155,0,0,1-.079,1.609,6.328,6.328,0,0,1-5.569,4.878,3.142,3.142,0,0,1-1.605-.132c.007-.073.616-.008,1.565-.17a6.636,6.636,0,0,0,5.313-4.656C523.252,4633.021,523.268,4632.408,523.34,4632.411Z" transform="translate(-516.087 -4632.411)" fill="#455a64"/></g></g><g transform="translate(530.211 4534.199)"><path d="M595.031,4604.475a13.916,13.916,0,0,0-.063-18.337l-22.235-25.214-5.952,16.637c.407.27,17.313,18.4,17.313,18.4l-14.528,18.106a10.42,10.42,0,0,0-1.726,9.913l3.882,9.5,10.629-4.768-.807-1.241h-7.978l-.475-1.912h0Z" transform="translate(-566.781 -4560.923)" fill="#ffbf9d"/></g><g transform="translate(455.763 4477.987)"><g transform="translate(10.644 1.3)"><path d="M490.3,4506.733s3.483,4.107,7.088-.775c2.833-3.836,3.439-8.581,1.166-10.589l.743-.494s3.79,2.457,2.078,7.818-5.4,8.131-8.02,7.712a4.416,4.416,0,0,1-3.317-3.164l.255-.773" transform="translate(-490.037 -4494.875)" fill="#455a64"/></g><g transform="translate(0 34.224)"><path d="M510.96,4553.247s-22.307,9.2-21.8,8.595l-.563-27.365h-8.73s-6.21,36.1.45,40.347c9.1,5.81,31.14-6.282,31.14-6.282Z" transform="translate(-477.234 -4534.477)" fill="#ffbf9d"/></g><g transform="translate(2.472 14.854)"><g transform="translate(0.159 8.248)"><path d="M487.353,4521.1l-.04.288-1.668,11.928-5.246-1.093.668-6.864" transform="translate(-480.399 -4521.098)" fill="#ffbf9d"/></g><g transform="translate(5.122 3.702)"><path d="M490,4518.99l-3.626,12.921,3.231.64s.454-.947,1.511-3.75a8.38,8.38,0,0,0-.191-6.232s2.932-6.618,1.8-6.92S490,4518.99,490,4518.99Z" transform="translate(-486.369 -4515.631)" fill="#ffbf9d"/></g><g transform="translate(1.666)"><path d="M492.121,4512.912c-.186.558-7.963,19.79-7.963,19.79l-1.946-1.091,7.818-20.433Z" transform="translate(-482.212 -4511.178)" fill="#263238"/></g><g transform="translate(0 3.168)"><path d="M480.6,4530.175s-.951-5.656.092-7.411c.375-.629,5.727-8.005,6.114-7.77s2.705,6.769,1.473,6.989a1.642,1.642,0,0,1-1.722-1.083s1.61,4.021.48,4.085-2.089-2.422-2.089-2.422,2.379,4.74.888,4.989-3.536-3.65-3.536-3.65Z" transform="translate(-480.208 -4514.99)" fill="#ffbf9d"/></g><g transform="translate(5.297 5.801)"><path d="M486.6,4518.157a9.769,9.769,0,0,1,1.189,2.63,7.563,7.563,0,0,0,.4,1,1.427,1.427,0,0,0,.557.574c.416.234.752.206.756.273.018.045-.335.206-.885,0a1.583,1.583,0,0,1-.769-.645,5.519,5.519,0,0,1-.465-1.061A9.762,9.762,0,0,1,486.6,4518.157Z" transform="translate(-486.579 -4518.156)" fill="#ff9a6c"/></g><g transform="translate(3.656 7.633)"><path d="M484.617,4520.36c.121-.04.9,2.164,2.187,4.723.156.325.313.61.538.693s.4-.01.475-.265a2.617,2.617,0,0,0,.041-.814c-.013-.272-.038-.525-.069-.754-.126-.92-.317-1.476-.254-1.5a3.31,3.31,0,0,1,.555,1.445,7.425,7.425,0,0,1,.126.779,2.759,2.759,0,0,1-.015.949.819.819,0,0,1-.348.511.747.747,0,0,1-.667.041,1.613,1.613,0,0,1-.768-.893A16.957,16.957,0,0,1,484.617,4520.36Z" transform="translate(-484.605 -4520.359)" fill="#ff9a6c"/></g><g transform="translate(2.227 10.376)"><path d="M482.894,4523.659a6.512,6.512,0,0,1,.9,1.417q.413.756.867,1.592l.5.946a5.236,5.236,0,0,0,.549.94.552.552,0,0,0,.737.169.823.823,0,0,0,.273-.767,13.581,13.581,0,0,0-.531-1.68,6.49,6.49,0,0,1-.457-1.613,6.461,6.461,0,0,1,.742,1.5l.328.778a4.085,4.085,0,0,1,.314.963,1.217,1.217,0,0,1-.415,1.156.845.845,0,0,1-.712.15,1.179,1.179,0,0,1-.6-.367,5.031,5.031,0,0,1-.606-1.039l-.477-.958-.784-1.634A6.485,6.485,0,0,1,482.894,4523.659Z" transform="translate(-482.886 -4523.658)" fill="#ff9a6c"/></g></g><g transform="translate(9.377)"><path d="M493.611,4510.748a4.62,4.62,0,0,1-1.88-.389,5.608,5.608,0,0,1-3.082-4.416,12.186,12.186,0,0,1,5.1-11.542,5.193,5.193,0,0,1,8.421,3.724,11.435,11.435,0,0,1-.942,6.483C499.581,4508.344,496.45,4510.748,493.611,4510.748Zm3.566-15.772a4.8,4.8,0,0,0-2.532.831,10.534,10.534,0,0,0-4.357,9.85,4.01,4.01,0,0,0,2.116,3.181c2.332,1.03,5.678-1.214,7.309-4.9a9.765,9.765,0,0,0,.825-5.523,4.01,4.01,0,0,0-2.116-3.181A3.057,3.057,0,0,0,497.177,4494.976Z" transform="translate(-488.513 -4493.311)" fill="#263238"/></g></g><g transform="translate(470.885 4523.264)"><path d="M572.468,4569.367l-14.044-14.157v0a25.023,25.023,0,0,0-9.7-6.279,20,20,0,0,0-6.077-1.164h0a24.361,24.361,0,0,1-14.678.008,35.343,35.343,0,0,0-11.574,3.314v0l-20.971,8.508,6.719,18.537,11.243-3.784.664,17.43-2.221,26.081,43.518.452-.562-23.656-.032-17.114,6.279,6.112Z" transform="translate(-495.423 -4547.771)" fill="#ff3c00"/></g><g transform="translate(484.086 4530.358)"><g transform="translate(0 0)"><path d="M563.333,4560.354a7.465,7.465,0,0,1-.618.95,13.232,13.232,0,0,1-2.24,2.357,13.975,13.975,0,0,1-4.5,2.488,13.385,13.385,0,0,1-6.778.437,13.917,13.917,0,0,1-7.275-3.82,7.179,7.179,0,0,1-1.3-1.908,4.015,4.015,0,0,1-.376-2.379,2.63,2.63,0,0,1,1.542-1.946,3.466,3.466,0,0,1,2.552.029,3.789,3.789,0,0,1,2,1.682,4.961,4.961,0,0,1,.543,2.608,9.1,9.1,0,0,1-2.039,4.977,13.62,13.62,0,0,1-9.814,5.111,12.715,12.715,0,0,1-5.667-.929,8.828,8.828,0,0,1-4.285-3.556,5.6,5.6,0,0,1-.233-5.316,4.17,4.17,0,0,1,4.559-2.083,3.268,3.268,0,0,1,2.029,1.544,4.306,4.306,0,0,1,.563,2.413,4.914,4.914,0,0,1-2.467,3.859,7.92,7.92,0,0,1-4.179,1.116,17.468,17.468,0,0,1-3.948-.511,18.989,18.989,0,0,1-6.363-2.424,8.358,8.358,0,0,1-3.278-3.922,6.112,6.112,0,0,1-.4-3.214,3.879,3.879,0,0,1,.317-1.088c.028.009-.133.371-.23,1.1a6.2,6.2,0,0,0,.47,3.138,8.243,8.243,0,0,0,3.255,3.783,18.908,18.908,0,0,0,6.3,2.327,17.287,17.287,0,0,0,3.878.477,7.6,7.6,0,0,0,3.992-1.087,4.551,4.551,0,0,0,2.277-3.576,3.926,3.926,0,0,0-.518-2.193,2.873,2.873,0,0,0-1.792-1.356,3.771,3.771,0,0,0-4.1,1.891,5.188,5.188,0,0,0,.236,4.909,8.424,8.424,0,0,0,4.086,3.372,12.3,12.3,0,0,0,5.47.892,13.216,13.216,0,0,0,9.506-4.937,8.7,8.7,0,0,0,1.961-4.739,4.55,4.55,0,0,0-.488-2.394,3.394,3.394,0,0,0-1.785-1.5,3.079,3.079,0,0,0-2.26-.042,2.245,2.245,0,0,0-1.32,1.659,3.652,3.652,0,0,0,.34,2.153,6.828,6.828,0,0,0,1.225,1.814,13.634,13.634,0,0,0,7.072,3.766,13.192,13.192,0,0,0,6.644-.366,14.033,14.033,0,0,0,4.469-2.389,14.221,14.221,0,0,0,2.276-2.279C563.107,4560.674,563.313,4560.342,563.333,4560.354Z" transform="translate(-511.301 -4556.303)" fill="#263238"/></g></g><g transform="translate(490.176 4560.196)"><g transform="translate(0 0)"><path d="M557.451,4603.333a3.881,3.881,0,0,1-.861.421,6.552,6.552,0,0,1-2.72.354,9.244,9.244,0,0,1-4.12-1.361,22.55,22.55,0,0,1-4.424-3.685,6.385,6.385,0,0,1-1.758-2.889,3.548,3.548,0,0,1,.094-1.841,2.576,2.576,0,0,1,1.208-1.5,2.458,2.458,0,0,1,1.994-.1,4.09,4.09,0,0,1,1.671,1.172,5.8,5.8,0,0,1,1.286,3.953,7.114,7.114,0,0,1-1.483,4.112,8.113,8.113,0,0,1-3.748,2.6,10.172,10.172,0,0,1-4.7.43,13.385,13.385,0,0,1-4.585-1.594,17.293,17.293,0,0,1-3.875-2.92,6.413,6.413,0,0,1-2-4.263,4.2,4.2,0,0,1,.579-2.29,3.6,3.6,0,0,1,1.8-1.468,4.461,4.461,0,0,1,4.282.669,5.079,5.079,0,0,1,1.746,3.76,5.914,5.914,0,0,1-1.177,3.74,8.9,8.9,0,0,1-6.034,3.345c-4.272.467-7.811-.492-9.778-1.876a5.79,5.79,0,0,1-1.858-2.014,3.569,3.569,0,0,1-.289-.654.973.973,0,0,1-.071-.233c.032-.013.113.313.435.845a5.913,5.913,0,0,0,1.877,1.917c1.94,1.312,5.46,2.211,9.639,1.713a8.6,8.6,0,0,0,5.788-3.251,5.552,5.552,0,0,0,1.087-3.514,4.691,4.691,0,0,0-1.617-3.466,4.061,4.061,0,0,0-3.883-.592,3.185,3.185,0,0,0-1.591,1.3,3.78,3.78,0,0,0-.513,2.062,5.992,5.992,0,0,0,1.89,3.974,16.97,16.97,0,0,0,3.774,2.84,13,13,0,0,0,4.436,1.546,9.752,9.752,0,0,0,4.5-.406,7.706,7.706,0,0,0,3.56-2.449,6.718,6.718,0,0,0,1.41-3.87,5.426,5.426,0,0,0-1.175-3.691,3.721,3.721,0,0,0-1.507-1.072,2.1,2.1,0,0,0-1.7.064,2.722,2.722,0,0,0-1.141,2.956,6.091,6.091,0,0,0,1.654,2.749,22.729,22.729,0,0,0,4.326,3.688,9.2,9.2,0,0,0,4.008,1.4,6.738,6.738,0,0,0,2.679-.27C557.153,4603.479,557.44,4603.311,557.451,4603.333Z" transform="translate(-518.626 -4592.193)" fill="#263238"/></g></g></g></g></svg>