<svg xmlns="http://www.w3.org/2000/svg" width="317.9" height="209.41" viewBox="0 0 317.9 209.41"><g transform="translate(-612.176 -5255.302)"><rect width="28.423" height="29.628" transform="translate(901.654 5257.789)" fill="#ffd7a6"/><rect width="28.423" height="29.628" transform="translate(899.729 5257.789)" fill="#ffeed9"/><path d="M928.16,5287.426H899.72V5257.78h28.44Zm-28.422-.018h28.405V5257.8H899.738Z" fill="#ffeed9"/><rect width="20.781" height="21.662" transform="translate(903.55 5261.771)" fill="#ffeed9"/><path d="M903.55,5283.578a3.414,3.414,0,0,1-.513.6c-.332.351-.8.824-1.321,1.339s-1,.974-1.358,1.3a3.263,3.263,0,0,1-.6.5,3.308,3.308,0,0,1,.51-.594c.332-.35.8-.825,1.324-1.341s1.005-.977,1.36-1.3A3.216,3.216,0,0,1,903.55,5283.578Z" fill="#ffd7a6"/><path d="M924.331,5283.525a3.373,3.373,0,0,1,.6.513c.35.332.824.8,1.339,1.321s.974,1,1.3,1.357a3.348,3.348,0,0,1,.5.6,3.272,3.272,0,0,1-.594-.51c-.35-.332-.825-.8-1.342-1.324s-.976-1.006-1.3-1.36A3.255,3.255,0,0,1,924.331,5283.525Z" fill="#ffd7a6"/><path d="M924.274,5261.829a3.375,3.375,0,0,1,.513-.6c.331-.35.8-.824,1.321-1.339s1-.974,1.357-1.3a.392.392,0,1,1,.091.094c-.332.35-.8.825-1.324,1.342s-1.006.976-1.36,1.3A3.255,3.255,0,0,1,924.274,5261.829Z" fill="#ffd7a6"/><path d="M903.493,5261.883a3.369,3.369,0,0,1-.6-.513c-.351-.332-.825-.8-1.34-1.321s-.973-1-1.3-1.358a.392.392,0,1,1,.093-.09c.351.331.826.8,1.342,1.324s.976,1.005,1.3,1.36A3.243,3.243,0,0,1,903.493,5261.883Z" fill="#ffd7a6"/><path d="M924.274,5283.434a.915.915,0,0,1-.005-.1l0-.3c0-.271-.006-.662-.01-1.169,0-1.026-.012-2.519-.021-4.415-.01-3.794-.024-9.2-.04-15.67l.08.08-20.722.012h0l.092-.092c-.005,7.951-.01,15.389-.013,21.662l-.079-.079,15.005.04,4.215.021,1.115.009.288.005a.766.766,0,0,1,.1,0,.779.779,0,0,1-.092,0l-.279,0-1.1.009-4.2.021-15.056.04h-.079v-.079c0-6.273-.009-13.711-.013-21.662v-.092h.094l20.722.011h.08v.081c-.017,6.492-.031,11.915-.041,15.721-.009,1.888-.016,3.375-.021,4.4q-.006.751-.009,1.154l-.005.294A.806.806,0,0,1,924.274,5283.434Z" fill="#ffd7a6"/><rect width="6.934" height="6.934" transform="translate(910.473 5269.136)" fill="#ffd7a6"/><rect width="28.423" height="29.628" transform="translate(622.371 5323.403)" fill="#ffd7a6"/><rect width="28.423" height="29.628" transform="translate(620.446 5323.403)" fill="#ffeed9"/><path d="M648.877,5353.04h-28.44v-29.646h28.44Zm-28.422-.018h28.4v-29.61h-28.4Z" fill="#ffeed9"/><rect width="20.781" height="21.662" transform="translate(624.267 5327.386)" fill="#ffeed9"/><path d="M644.991,5327.444a3.39,3.39,0,0,1,.513-.6c.332-.351.8-.825,1.321-1.34s1-.973,1.357-1.3a.392.392,0,1,1,.091.093c-.332.351-.8.826-1.324,1.342s-1.006.976-1.36,1.3A3.293,3.293,0,0,1,644.991,5327.444Z" fill="#ffd7a6"/><path d="M624.21,5327.5a3.383,3.383,0,0,1-.6-.513c-.351-.332-.825-.8-1.34-1.321s-.973-1-1.3-1.357a.392.392,0,1,1,.093-.091c.351.332.826.8,1.342,1.324s.976,1.006,1.3,1.36A3.256,3.256,0,0,1,624.21,5327.5Z" fill="#ffd7a6"/><path d="M644.991,5349.048a.867.867,0,0,1-.005-.1l0-.3q0-.408-.01-1.17c0-1.026-.012-2.519-.021-4.415-.009-3.794-.023-9.2-.04-15.67l.08.08-20.722.012h0l.092-.092c-.005,7.951-.01,15.389-.013,21.662l-.079-.079,15,.041,4.215.02,1.115.01.289,0c.065,0,.1,0,.1,0a.64.64,0,0,1-.092.005l-.279,0-1.1.009-4.2.021-15.056.04h-.079v-.08c0-6.273-.009-13.711-.013-21.662v-.092h.094l20.722.012h.08v.08c-.017,6.493-.031,11.915-.041,15.722-.009,1.888-.016,3.375-.021,4.4,0,.5-.007.886-.009,1.154l-.005.293A.782.782,0,0,1,644.991,5349.048Z" fill="#ffd7a6"/><rect width="6.934" height="6.934" transform="translate(631.19 5334.75)" fill="#ffd7a6"/><path d="M903.309,5341.464s-4.22-.3-3.832,9.164a109.727,109.727,0,0,0,1.355,14.511s-.124,2.1-1.75,1.687-4.684-2.455-6.195-.928c-1.566,1.584-1.009,4.013,1.069,6.875s6.4,9.3,6.789,9.881.535,1.646-.618,1.543-8.932-2.74-9.962,1.026,6.069,10.787,6.83,11.569.8,1.277.494,1.75-2.84-.66-5.084-1.319-4.96-1.03-5.372,1.192,2.715,8.728,14.424,15.564l5.633,2.813,5.331-3.4c10.967-7.974,13.427-14.758,12.795-16.929s-3.3-1.529-5.465-.649-4.571,2.261-4.926,1.821-.363-.936.316-1.79,7.041-8.55,5.639-12.194-8.878-.243-10.014-.025-1.092-.866-.77-1.474,3.986-7.455,5.767-10.51,2.093-5.528.376-6.947c-1.656-1.369-4.495.97-6.071,1.543s-1.91-1.5-1.91-1.5a109.8,109.8,0,0,0-.1-14.573c-.56-9.459-4.831-8.7-4.831-8.7" fill="#ffeed9"/><path d="M903.643,5349.944s.011.067.022.2.026.333.045.581c.036.521.087,1.272.152,2.235.129,1.942.295,4.753.487,8.227.386,6.949.838,16.552,1.3,27.159s.891,20.214,1.238,27.164c.176,3.467.319,6.276.418,8.229.048.964.086,1.717.111,2.238.01.249.018.442.024.582s0,.2,0,.2-.012-.066-.023-.2-.026-.333-.045-.581c-.035-.521-.086-1.273-.152-2.236-.129-1.941-.295-4.752-.487-8.226-.386-6.949-.837-16.552-1.3-27.163s-.89-20.21-1.237-27.16c-.177-3.467-.32-6.277-.419-8.23-.048-.964-.085-1.716-.111-2.238q-.015-.372-.024-.582C903.639,5350.012,903.643,5349.944,903.643,5349.944Z" fill="#ffd7a6"/><path d="M897.051,5368.928a1.905,1.905,0,0,1,.35.292c.217.2.521.491.894.859.743.736,1.743,1.78,2.824,2.953l2.755,3.014.839.91a1.816,1.816,0,0,1,.293.348,1.914,1.914,0,0,1-.353-.289c-.216-.2-.52-.492-.889-.864-.736-.743-1.722-1.8-2.8-2.973l-2.776-2.993-.843-.906A1.791,1.791,0,0,1,897.051,5368.928Z" fill="#ffd7a6"/><path d="M905.565,5377.118c-.042-.042,2.018-2.2,4.6-4.818s4.712-4.709,4.755-4.667-2.018,2.2-4.6,4.819S905.607,5377.16,905.565,5377.118Z" fill="#ffd7a6"/><path d="M905.542,5393.442a1.865,1.865,0,0,1,.393-.25l1.1-.619c.93-.522,2.211-1.248,3.6-2.1s2.617-1.66,3.5-2.253l1.051-.7a1.915,1.915,0,0,1,.4-.237,2,2,0,0,1-.352.3c-.235.185-.579.446-1.013.758-.865.627-2.085,1.46-3.478,2.312s-2.687,1.561-3.636,2.05c-.476.243-.864.434-1.136.558A1.918,1.918,0,0,1,905.542,5393.442Z" fill="#ffd7a6"/><path d="M896.21,5387.729a1.643,1.643,0,0,1,.39.183c.243.13.592.324,1.021.567.857.488,2.034,1.174,3.328,1.943s2.458,1.476,3.3,2c.418.26.755.474.986.626a.216.216,0,1,1-.043.072c-.244-.13-.593-.324-1.021-.567-.858-.488-2.035-1.174-3.329-1.943s-2.457-1.476-3.295-2c-.419-.261-.756-.475-.986-.627A1.611,1.611,0,0,1,896.21,5387.729Z" fill="#ffd7a6"/><path d="M894.359,5402.137a2.661,2.661,0,0,1,.495.24l1.311.723c1.1.619,2.618,1.487,4.285,2.456s3.17,1.859,4.253,2.512l1.276.782a2.823,2.823,0,0,1,.454.312,2.708,2.708,0,0,1-.5-.239l-1.311-.723c-1.1-.619-2.617-1.487-4.285-2.457s-3.17-1.859-4.252-2.511l-1.277-.782A2.644,2.644,0,0,1,894.359,5402.137Z" fill="#ffd7a6"/><path d="M906.191,5408.913a3.147,3.147,0,0,1,.49-.328l1.369-.834c1.156-.7,2.749-1.682,4.477-2.809s3.271-2.185,4.381-2.959l1.317-.914a3.022,3.022,0,0,1,.5-.315,3.164,3.164,0,0,1-.448.382c-.3.236-.733.569-1.278.971-1.088.807-2.618,1.888-4.352,3.015s-3.341,2.089-4.517,2.761c-.59.334-1.069.6-1.4.775A3.071,3.071,0,0,1,906.191,5408.913Z" fill="#ffd7a6"/><path d="M914.657,5418.635H899.073l5.086,38.5h5.411Z" fill="#ffd7a6"/><path d="M899.882,5423.367c-.006,0,.017.055.083.137a.987.987,0,0,0,.376.269,1.886,1.886,0,0,0,1.646-.2,12.553,12.553,0,0,1,2.021-1.33,4.425,4.425,0,0,1,2.866.057,12.283,12.283,0,0,1,2.668,1.293,18.5,18.5,0,0,0,2.17,1.164,5.964,5.964,0,0,0,1.6.463,2.79,2.79,0,0,0,.453.03c.1,0,.157,0,.158-.013a8.085,8.085,0,0,1-2.138-.644,21.288,21.288,0,0,1-2.122-1.2,11.829,11.829,0,0,0-2.714-1.335,4.573,4.573,0,0,0-3.025-.033,3.985,3.985,0,0,0-1.138.7,9.091,9.091,0,0,1-.892.692,1.835,1.835,0,0,1-1.518.263A1.54,1.54,0,0,1,899.882,5423.367Z" fill="#f5f5f5"/><path d="M900.451,5430.459c.021.013.123-.159.367-.413a3.468,3.468,0,0,1,1.245-.79,5.549,5.549,0,0,1,2.167-.326,22.9,22.9,0,0,1,2.711.369,9.294,9.294,0,0,0,2.777.115,7.628,7.628,0,0,0,2.185-.623,6.979,6.979,0,0,0,1.313-.781,1.891,1.891,0,0,0,.417-.375,14,14,0,0,1-1.8.991,7.993,7.993,0,0,1-2.141.556,9.554,9.554,0,0,1-2.708-.134,20.435,20.435,0,0,0-2.745-.352,5.485,5.485,0,0,0-2.242.393,3.278,3.278,0,0,0-1.25.89,2.145,2.145,0,0,0-.236.346C900.463,5430.409,900.443,5430.454,900.451,5430.459Z" fill="#f5f5f5"/><path d="M912.892,5434.255a1.306,1.306,0,0,0-.43-.223,4.573,4.573,0,0,0-1.291-.277,8.266,8.266,0,0,0-1.953.112c-.726.117-1.505.318-2.324.492a9.844,9.844,0,0,1-2.32.262,5.053,5.053,0,0,1-1.843-.4,4.238,4.238,0,0,1-1.4-1.04,1.187,1.187,0,0,0,.264.407,3.294,3.294,0,0,0,1.058.8,4.983,4.983,0,0,0,1.907.469,9.381,9.381,0,0,0,2.384-.247c.827-.176,1.6-.383,2.311-.51a8.9,8.9,0,0,1,1.9-.164A7.218,7.218,0,0,1,912.892,5434.255Z" fill="#f5f5f5"/><path d="M901.828,5439.6a2.527,2.527,0,0,1,1.513-.153,7.339,7.339,0,0,1,1.583.59,6.024,6.024,0,0,0,2.054.567,6.172,6.172,0,0,0,3.729-.864,5.322,5.322,0,0,0,.927-.714c.19-.2.287-.318.275-.33a13.388,13.388,0,0,1-1.293.888,6.384,6.384,0,0,1-3.615.766c-1.475-.084-2.608-.964-3.631-1.08a2.31,2.31,0,0,0-1.175.1C901.931,5439.47,901.82,5439.586,901.828,5439.6Z" fill="#f5f5f5"/><path d="M902.7,5446.985a2.974,2.974,0,0,0,1.3-.258c.783-.262,1.753-.863,2.885-1.312a4.69,4.69,0,0,1,1.656-.347,3.053,3.053,0,0,1,1.332.3,2.955,2.955,0,0,1,.963.831.714.714,0,0,0-.148-.328,2.142,2.142,0,0,0-.73-.661,3.053,3.053,0,0,0-1.413-.38,4.659,4.659,0,0,0-1.75.344c-1.173.468-2.112,1.086-2.86,1.382C903.19,5446.878,902.69,5446.944,902.7,5446.985Z" fill="#f5f5f5"/><path d="M903.46,5450.423a3.633,3.633,0,0,0,.987.321,18.185,18.185,0,0,0,4.967.488,3.7,3.7,0,0,0,1.03-.122c0-.077-1.579-.01-3.506-.2S903.479,5450.349,903.46,5450.423Z" fill="#f5f5f5"/><rect width="15.237" height="32.615" transform="translate(784.969 5285.44)" fill="#ffeed9"/><rect width="18.723" height="31.514" transform="translate(800.838 5320.335)" fill="#ffeed9"/><path d="M821.839,5284.876h17.778v-28.933h.633v28.933H856.7V5255.3H821.839Z" fill="#ffeed9"/><rect width="15.237" height="31.514" transform="translate(784.969 5320.335)" fill="#ffeed9"/><rect width="16.454" height="31.514" transform="translate(840.25 5320.335)" fill="#ffeed9"/><rect width="18.723" height="32.615" transform="translate(800.838 5285.44)" fill="#ffeed9"/><rect width="16.454" height="32.615" transform="translate(840.25 5285.44)" fill="#ffeed9"/><rect width="15.237" height="28.397" transform="translate(784.969 5352.413)" fill="#ffeed9"/><path d="M800.205,5284.876v-28.933h.633v28.933h18.723V5255.3H784.969v29.575Z" fill="#ffeed9"/><rect width="18.723" height="28.397" transform="translate(800.838 5352.413)" fill="#ffeed9"/><rect width="16.454" height="28.397" transform="translate(840.25 5352.413)" fill="#ffeed9"/><rect width="17.778" height="32.615" transform="translate(821.839 5285.44)" fill="#ffeed9"/><rect width="17.778" height="28.397" transform="translate(821.839 5352.413)" fill="#ffeed9"/><rect width="17.778" height="31.514" transform="translate(821.839 5320.335)" fill="#ffeed9"/><rect width="15.237" height="32.615" transform="translate(710.711 5285.44)" fill="#ffeed9"/><rect width="18.723" height="31.514" transform="translate(726.581 5320.335)" fill="#ffeed9"/><path d="M747.582,5284.876H765.36v-28.933h.633v28.933h16.454V5255.3H747.582Z" fill="#ffeed9"/><rect width="15.237" height="31.514" transform="translate(710.711 5320.335)" fill="#ffeed9"/><rect width="16.454" height="31.514" transform="translate(765.993 5320.335)" fill="#ffeed9"/><rect width="18.723" height="32.615" transform="translate(726.581 5285.44)" fill="#ffeed9"/><rect width="16.454" height="32.615" transform="translate(765.993 5285.44)" fill="#ffeed9"/><rect width="15.237" height="28.397" transform="translate(710.711 5352.413)" fill="#ffeed9"/><path d="M725.948,5284.876v-28.933h.633v28.933H745.3V5255.3H710.711v29.575Z" fill="#ffeed9"/><rect width="18.723" height="28.397" transform="translate(726.581 5352.413)" fill="#ffeed9"/><rect width="16.454" height="28.397" transform="translate(765.993 5352.413)" fill="#ffeed9"/><rect width="17.778" height="32.615" transform="translate(747.582 5285.44)" fill="#ffeed9"/><rect width="17.778" height="28.397" transform="translate(747.582 5352.413)" fill="#ffeed9"/><rect width="17.778" height="31.514" transform="translate(747.582 5320.335)" fill="#ffeed9"/><path d="M927.86,5457.4c0,.068-70.346.123-157.1.123-86.786,0-157.116-.055-157.116-.123s70.33-.122,157.116-.122C857.514,5457.276,927.86,5457.331,927.86,5457.4Z" fill="#263238"/><path d="M877.028,5425.2v31.946h3.788l1.41-32.036Z" fill="#263238"/><path d="M814.746,5425.108l1.808,32.036h3.588l.041-31.946Z" fill="#263238"/><rect width="70.961" height="23.122" rx="6.543" transform="translate(808.803 5404.429)" fill="#455a64"/><path d="M882.991,5394.088c.849-6.4,1.541-13.29-1.534-18.965-3.194-5.894-10.241-9.239-16.918-8.636s-12.769,4.829-16.286,10.537a29.3,29.3,0,0,0-3.644,19.372" fill="#455a64"/><path d="M850.571,5419.407c0,.067-8.088.122-18.062.122s-18.065-.055-18.065-.122,8.086-.122,18.065-.122S850.571,5419.34,850.571,5419.407Z" fill="#263238"/><path d="M850.829,5419.272c.017.021-1.538,1.318-3.471,2.9s-3.517,2.844-3.534,2.823,1.537-1.318,3.472-2.9S850.812,5419.251,850.829,5419.272Z" fill="#fafafa"/><path d="M843.927,5411.809c.016.022-4.818,3.464-10.794,7.686s-10.836,7.63-10.852,7.607,4.817-3.462,10.795-7.687S843.912,5411.787,843.927,5411.809Z" fill="#fafafa"/><path d="M827.468,5411.456c.016.022-3.157,2.341-7.085,5.178s-7.128,5.121-7.143,5.1,3.156-2.34,7.086-5.178S827.452,5411.435,827.468,5411.456Z" fill="#fafafa"/><path d="M820.116,5406.478a.315.315,0,0,1-.075.051l-.224.13-.826.474c-.7.405-1.643.986-2.655,1.68s-1.893,1.373-2.52,1.877l-.739.6-.2.163a.339.339,0,0,1-.075.052s.02-.026.062-.067l.19-.177c.166-.152.412-.367.72-.626.617-.518,1.5-1.206,2.509-1.9s1.97-1.269,2.675-1.659c.353-.2.641-.348.843-.448l.233-.115A.3.3,0,0,1,820.116,5406.478Z" fill="#fafafa"/><path d="M882.57,5377.323s-.046.047-.142.128l-.418.35c-.365.3-.9.733-1.567,1.256-1.334,1.045-3.215,2.445-5.359,3.892s-4.149,2.665-5.619,3.51c-.735.423-1.333.758-1.751.982l-.482.257c-.11.057-.171.083-.171.083s.054-.037.162-.1l.472-.273,1.735-1.007c1.46-.86,3.455-2.087,5.6-3.532s4.028-2.835,5.372-3.866l1.585-1.231.43-.336C882.515,5377.36,882.57,5377.323,882.57,5377.323Z" fill="#fafafa"/><path d="M871.464,5370.068a.778.778,0,0,1,.2.1,5.929,5.929,0,0,1,.538.326,9.863,9.863,0,0,1,1.755,1.506,14.3,14.3,0,0,1,3.363,6.778,27.015,27.015,0,0,1,.329,7.6c-.077.971-.166,1.753-.236,2.293-.034.246-.063.45-.087.621a.776.776,0,0,1-.047.214,5.834,5.834,0,0,1,.04-.844c.04-.543.1-1.327.158-2.3a29.026,29.026,0,0,0-.4-7.537,14.674,14.674,0,0,0-3.251-6.711A14.231,14.231,0,0,0,871.464,5370.068Z" fill="#263238"/><path d="M878.354,5370.86s-.021.025-.066.064l-.2.169c-.175.146-.434.351-.758.6-.647.5-1.561,1.155-2.607,1.83s-2.024,1.236-2.743,1.621c-.359.192-.652.343-.857.443l-.237.113a.333.333,0,0,1-.086.034.323.323,0,0,1,.077-.051l.228-.13.842-.47c.709-.4,1.679-.969,2.723-1.642s1.962-1.322,2.619-1.8l.776-.573.212-.154A.35.35,0,0,1,878.354,5370.86Z" fill="#fafafa"/><path d="M801.013,5439.1l.47,11.6s-11.636,4.375-11.758,6.528l22.532-.1.008-18.11Z" fill="#ff3c00"/><g opacity="0.6"><path d="M808.446,5449.694a.921.921,0,0,1,.641,1.047.885.885,0,0,1-1.032.645.973.973,0,0,1-.674-1.113.918.918,0,0,1,1.149-.551" fill="#fff"/></g><g opacity="0.6"><path d="M812.257,5457.127l-.071-1.826-21.577.783s-1,.441-.884,1.147Z" fill="#fff"/></g><path d="M801.118,5450.59c0,.11.554.157,1.1.508s.833.813.934.769c.1-.022-.065-.679-.73-1.093S801.093,5450.489,801.118,5450.59Z" fill="#263238"/><path d="M798.759,5451.578c-.025.107.452.292.828.755s.486.956.6.95c.1.017.177-.628-.3-1.2S798.761,5451.473,798.759,5451.578Z" fill="#263238"/><path d="M797.43,5454.413c.1.023.25-.528-.035-1.129s-.8-.838-.847-.747c-.062.091.274.413.5.91S797.32,5454.4,797.43,5454.413Z" fill="#263238"/><path d="M801.3,5447.933c.046.1.55-.054,1.172-.014s1.108.233,1.165.138-.411-.485-1.144-.521S801.249,5447.847,801.3,5447.933Z" fill="#263238"/><g opacity="0.3"><path d="M801.108,5441.4l.081,2.068,11.073-.152.006-1.864Z"/></g><path d="M801.252,5445.591a2.113,2.113,0,0,0,1.128-.012,5.026,5.026,0,0,0,1.179-.368,5.437,5.437,0,0,0,.647-.346,1.445,1.445,0,0,0,.339-.267.482.482,0,0,0,.048-.586.6.6,0,0,0-.483-.249,1.43,1.43,0,0,0-.423.06,3.966,3.966,0,0,0-1.738.932c-.521.486-.7.9-.659.919.05.036.3-.309.832-.711a4.566,4.566,0,0,1,1-.572,4.28,4.28,0,0,1,.647-.2c.239-.064.442-.066.5.04.023.04.026.056-.024.126a1.119,1.119,0,0,1-.25.195,5.849,5.849,0,0,1-.594.344,6.369,6.369,0,0,1-1.089.423A7.67,7.67,0,0,0,801.252,5445.591Z" fill="#263238"/><path d="M801.4,5445.748a1.805,1.805,0,0,0,.292-1.092,3.644,3.644,0,0,0-.159-1.234,3.742,3.742,0,0,0-.291-.684.932.932,0,0,0-.722-.567.528.528,0,0,0-.47.317,1.532,1.532,0,0,0-.114.415,2.513,2.513,0,0,0,0,.76,2.593,2.593,0,0,0,.487,1.163c.443.582.9.711.912.674.036-.056-.348-.266-.688-.826a2.61,2.61,0,0,1-.362-1.058,2.351,2.351,0,0,1,.018-.652c.034-.24.123-.434.213-.41.112,0,.3.178.4.368a3.785,3.785,0,0,1,.283.61,4.092,4.092,0,0,1,.224,1.125C801.451,5445.319,801.336,5445.731,801.4,5445.748Z" fill="#263238"/><path d="M832.894,5389.15l-26.035-4.107a9.046,9.046,0,0,0-7.187,1.975h0a9.046,9.046,0,0,0-3.262,7.309l1.85,47.386h16.06v-36.8l15.42.283,12.231-10.758,8.817-1.565,6.576-4.006Z" fill="#263238"/><path d="M814.32,5395.61a.4.4,0,0,1,.017.119l.023.348c.021.307.038.76.054,1.344.036,1.166.068,2.854.1,4.94.057,4.172.1,9.935.112,16.3s-.014,12.132-.07,16.3c-.028,2.086-.062,3.774-.109,4.94-.02.583-.041,1.036-.072,1.343l-.032.348a.381.381,0,0,1-.02.117.443.443,0,0,1-.005-.12l.008-.349c.015-.306.021-.758.026-1.342.018-1.165.025-2.853.031-4.939,0-4.189,0-9.943,0-16.3C814.347,5406.134,814.324,5396.936,814.32,5395.61Z" fill="#455a64"/><path d="M838.2,5443.363l6.251,9.787s-7.849,9.641-6.87,11.562l19.413-11.438-9.115-15.65Z" fill="#ff3c00"/><g opacity="0.6"><path d="M849.954,5448.772a.919.919,0,0,1,1.081.582.883.883,0,0,1-.567,1.076.97.97,0,0,1-1.142-.622.918.918,0,0,1,.714-1.054" fill="#fff"/></g><g opacity="0.6"><path d="M856.99,5453.274l-.981-1.542-18.246,11.544s-.642.885-.186,1.436Z" fill="#fff"/></g><path d="M844.074,5453.237c.059.093.558-.144,1.2-.114.647.013,1.13.282,1.2.193.076-.07-.4-.553-1.182-.575S844,5453.162,844.074,5453.237Z" fill="#263238"/><path d="M842.534,5455.279c.033.1.538.024,1.1.235.565.195.9.58.993.521.1-.038-.163-.632-.862-.881S842.483,5455.187,842.534,5455.279Z" fill="#263238"/><path d="M842.814,5458.4c.1-.031-.049-.582-.6-.958s-1.114-.321-1.108-.218.445.218.891.534S842.714,5458.443,842.814,5458.4Z" fill="#263238"/><path d="M842.9,5450.848c.091.063.448-.324,1.006-.6s1.074-.357,1.076-.467-.6-.212-1.251.126S842.807,5450.8,842.9,5450.848Z" fill="#263238"/><g opacity="0.3"><path d="M839.436,5445.3l1.112,1.746,9.49-5.709-.934-1.613Z"/></g><path d="M841.672,5448.85c.022.04.431-.122.97-.578a5.086,5.086,0,0,0,.833-.911,5.321,5.321,0,0,0,.383-.626,1.354,1.354,0,0,0,.159-.4.478.478,0,0,0-.253-.53.6.6,0,0,0-.544.028,1.465,1.465,0,0,0-.334.265,3.97,3.97,0,0,0-1.032,1.68,1.886,1.886,0,0,0-.107,1.127c.061.006.106-.42.361-1.035a4.5,4.5,0,0,1,.579-1,4.218,4.218,0,0,1,.457-.5c.174-.175.348-.28.455-.219.039.023.05.035.043.121a1.15,1.15,0,0,1-.118.294,5.939,5.939,0,0,1-.341.6,6.26,6.26,0,0,1-.727.914C841.991,5448.558,841.64,5448.8,841.672,5448.85Z" fill="#263238"/><path d="M841.876,5448.913a1.8,1.8,0,0,0-.3-1.09,3.649,3.649,0,0,0-1.355-1.43.933.933,0,0,0-.91-.126.528.528,0,0,0-.246.511,1.539,1.539,0,0,0,.11.415,2.515,2.515,0,0,0,.385.655,2.609,2.609,0,0,0,1.007.76,1.462,1.462,0,0,0,1.128.123,9.476,9.476,0,0,1-1.01-.367,2.59,2.59,0,0,1-.846-.733,2.283,2.283,0,0,1-.313-.572c-.091-.224-.112-.436-.022-.461a.649.649,0,0,1,.527.118,3.8,3.8,0,0,1,.552.385,4.085,4.085,0,0,1,.76.86C841.708,5448.515,841.816,5448.929,841.876,5448.913Z" fill="#263238"/><path d="M802.141,5361.973l-7.536-3.839c-1.963-.849-2.713-1.337-2.53-1.694.243-.477.128-.305,3.916.731,0,0-5.394-1.526-3.966-2.114a6.054,6.054,0,0,1,2.065.225c-1.369-.466-1.885-.94-1.8-1.3.143-.616,3.37.137,4.871.522a30.431,30.431,0,0,1-4.088-1.3c-.671-.417.235-.721,1.056-.76.921-.045,6.31.468,7.873.535a.922.922,0,0,0,1.068-.908,5.826,5.826,0,0,1,1.125-4.571c.5-.4,1.22.155,1.024.837a8.45,8.45,0,0,0-.1,2.3,5.444,5.444,0,0,0,.4,1.789c.274.659.532,1.206.763,1.666l6.162,6.124-4.952,6.273Z" fill="#ffbf9d"/><path d="M797.97,5357.932a20.262,20.262,0,0,1-5.148-1.547,20.367,20.367,0,0,1,5.148,1.547Z" fill="#ff9a6c"/><path d="M798.96,5356.344a23.126,23.126,0,1,1-2.751-.832A11.646,11.646,0,0,1,798.96,5356.344Z" fill="#ff9a6c"/><path d="M799.727,5354.98a20.657,20.657,0,1,1-2.611-.762A10.482,10.482,0,0,1,799.727,5354.98Z" fill="#ff9a6c"/><path d="M835.469,5309.889c1.918-.587,3.917,1.13,5.886.744,1.2-.234,2.1-1.189,3.161-1.783a6.139,6.139,0,0,1,5.463-.207c1.624.825,2.671,1.705,2.892,3.513,1.478-.848,3.944,1.013,4.784,2.808a8.1,8.1,0,0,1,.153,5.576,26.168,26.168,0,0,1-4.326,9.207c-.18.243-.466.512-.74.384a.66.66,0,0,1-.284-.531,21.924,21.924,0,0,1,.093-5.33,13.236,13.236,0,0,0-.334-5.3,5.169,5.169,0,0,0-3.632-3.58,5.652,5.652,0,0,0-3.781.809c-1.148.645-2.157,1.507-3.25,2.24a7.256,7.256,0,0,1-3.635,1.409,3.446,3.446,0,0,1-3.286-1.754,2.294,2.294,0,0,1,1.356-3.156,2.587,2.587,0,0,1-.52-5.051Z" fill="#263238"/><path d="M855.043,5321.081l-1.906,19.893c-.324,3.383-3.872,8.4-7.234,7.908h0c-3.139-.458-4.906-5.9-4.6-9.052.145-1.5.263-2.746.268-2.9,0,0-5.019-.961-4.9-6.008.055-2.439.579-7.454,1.1-11.985a9.4,9.4,0,0,1,9.673-8.308l.487.017C853.169,5311.136,855.679,5315.859,855.043,5321.081Z" fill="#ffbf9d"/><path d="M841.565,5336.856a11.743,11.743,0,0,0,6.643-1.638s-1.682,3.576-6.7,2.945Z" fill="#ff9a6c"/><path d="M839.123,5322.367a.72.72,0,0,0,.669.751.69.69,0,0,0,.765-.623.721.721,0,0,0-.668-.752A.689.689,0,0,0,839.123,5322.367Z" fill="#263238"/><path d="M838.768,5321.45c.086.1.646-.288,1.422-.258s1.329.437,1.417.345c.043-.041-.042-.214-.284-.4a1.974,1.974,0,0,0-1.13-.392,1.9,1.9,0,0,0-1.136.323C838.813,5321.24,838.726,5321.407,838.768,5321.45Z" fill="#263238"/><path d="M846.717,5322.9a.721.721,0,0,0,.669.751.69.69,0,0,0,.766-.623.722.722,0,0,0-.669-.752A.69.69,0,0,0,846.717,5322.9Z" fill="#263238"/><path d="M846.384,5321.862c.086.1.647-.287,1.421-.258s1.33.437,1.418.345c.042-.041-.042-.214-.284-.4a1.984,1.984,0,0,0-1.131-.392,1.9,1.9,0,0,0-1.135.323C846.429,5321.651,846.342,5321.819,846.384,5321.862Z" fill="#263238"/><path d="M843.369,5327.513a5.137,5.137,0,0,0-1.252-.271c-.2-.028-.383-.074-.411-.21a1,1,0,0,1,.152-.582l.639-1.487a26.021,26.021,0,0,0,1.453-3.9,25.988,25.988,0,0,0-1.764,3.771q-.321.783-.614,1.5a1.154,1.154,0,0,0-.13.773.5.5,0,0,0,.316.3,1.322,1.322,0,0,0,.334.058A5.058,5.058,0,0,0,843.369,5327.513Z" fill="#263238"/><path d="M845.631,5328.129c-.125-.011-.156.83-.9,1.4s-1.633.448-1.644.566c-.014.052.194.17.572.194a2.1,2.1,0,0,0,1.371-.425,1.824,1.824,0,0,0,.7-1.177C845.776,5328.338,845.689,5328.126,845.631,5328.129Z" fill="#263238"/><path d="M846.29,5318.817c.069.213.847.141,1.753.282.908.123,1.632.415,1.76.231.057-.089-.064-.292-.354-.506a3.084,3.084,0,0,0-2.675-.391C846.435,5318.556,846.261,5318.716,846.29,5318.817Z" fill="#263238"/><path d="M839.132,5319.216c.13.181.671.017,1.313.031.643-.008,1.182.16,1.314-.02.058-.087-.022-.267-.253-.442a1.9,1.9,0,0,0-2.117-.008C839.156,5318.95,839.075,5319.128,839.132,5319.216Z" fill="#263238"/><path d="M854.5,5324.8c.088-.034,3.5-.9,3.271,2.542s-3.642,2.5-3.641,2.4S854.5,5324.8,854.5,5324.8Z" fill="#ffbf9d"/><path d="M855.27,5328.513c.016-.01.057.046.155.1a.6.6,0,0,0,.448.039,1.489,1.489,0,0,0,.777-1.286,1.979,1.979,0,0,0-.111-.871.694.694,0,0,0-.42-.491.306.306,0,0,0-.365.141c-.053.093-.036.164-.054.168s-.07-.062-.033-.2a.39.39,0,0,1,.15-.207.459.459,0,0,1,.338-.065.846.846,0,0,1,.591.576,2.041,2.041,0,0,1,.143.974,1.558,1.558,0,0,1-.975,1.429.644.644,0,0,1-.543-.128C855.27,5328.6,855.257,5328.518,855.27,5328.513Z" fill="#ff9a6c"/><path d="M836.74,5317.851a7.289,7.289,0,0,0,6.524-1.231c1.264-1,2.263-2.46,3.818-2.879a4.1,4.1,0,0,1,3.118.538,7.924,7.924,0,0,1,2.3,2.267c-1.064,2.53-.51,5.414.06,8.1a1.371,1.371,0,0,0,.374.81,1.1,1.1,0,0,0,1.385-.255,4.267,4.267,0,0,0,1.015-2.216,14.2,14.2,0,0,0,.163-5.6,9.667,9.667,0,0,0-2.484-4.969,9.156,9.156,0,0,0-6.333-2.651,11.246,11.246,0,0,0-6.6,2.1,6.588,6.588,0,0,0-2.2,2.366" fill="#263238"/><path d="M833.978,5311.053a.751.751,0,0,0,.02.3,1.413,1.413,0,0,0,.457.728,2.2,2.2,0,0,0,1.274.475,3.734,3.734,0,0,0,.858-.023,1.839,1.839,0,0,0,.893-.377,1.216,1.216,0,0,0,.465-.958,1.07,1.07,0,0,0-.7-.906,1.317,1.317,0,0,0-.618-.1,1.129,1.129,0,0,0-.6.245,1.573,1.573,0,0,0-.556,1.188,1.821,1.821,0,0,0,.5,1.284,2.756,2.756,0,0,0,1.225.753,4.541,4.541,0,0,0,2.958-.217,13.015,13.015,0,0,0,2.6-1.446,16.383,16.383,0,0,1,2.365-1.4,5.122,5.122,0,0,1,2.39-.494,4.89,4.89,0,0,1,2.045.6,6.1,6.1,0,0,1,2.215,2.16,7.765,7.765,0,0,1,.413.748,2.607,2.607,0,0,0,.135.267.257.257,0,0,0-.022-.074c-.017-.047-.042-.118-.082-.208a6.369,6.369,0,0,0-.387-.768,6.035,6.035,0,0,0-2.213-2.231,4.971,4.971,0,0,0-2.095-.638,5.233,5.233,0,0,0-2.463.491,16.341,16.341,0,0,0-2.394,1.4,12.908,12.908,0,0,1-2.573,1.426,4.387,4.387,0,0,1-2.848.217,2.589,2.589,0,0,1-1.153-.7,1.654,1.654,0,0,1-.463-1.17,1.417,1.417,0,0,1,.492-1.074,1.036,1.036,0,0,1,1.071-.131.937.937,0,0,1,.624.781,1.092,1.092,0,0,1-.411.86,1.729,1.729,0,0,1-.833.362,3.612,3.612,0,0,1-.832.034,2.147,2.147,0,0,1-1.239-.43,1.41,1.41,0,0,1-.466-.686A2.152,2.152,0,0,1,833.978,5311.053Z" fill="#455a64"/><path d="M858.166,5317.956a5.7,5.7,0,0,1-1.063.237,2.978,2.978,0,0,1-1.152-.161,5,5,0,0,1-1.271-.667,4.031,4.031,0,0,1-1.465-2.109,8.375,8.375,0,0,1-.192-1.077.891.891,0,0,0-.028.3,3.4,3.4,0,0,0,.1.81,3.94,3.94,0,0,0,1.481,2.216,4.83,4.83,0,0,0,1.324.679,2.922,2.922,0,0,0,1.21.131,2.682,2.682,0,0,0,.791-.211A.891.891,0,0,0,858.166,5317.956Z" fill="#455a64"/><path d="M857.927,5320.447c0-.031-.409.044-1.058-.015a4.735,4.735,0,0,1-3.932-2.8c-.268-.595-.329-1-.36-1a.872.872,0,0,0,.027.288,3.929,3.929,0,0,0,.222.755,4.568,4.568,0,0,0,4.034,2.875,3.935,3.935,0,0,0,.787-.036A.8.8,0,0,0,857.927,5320.447Z" fill="#455a64"/><path d="M848.844,5325.249a.095.095,0,1,0-.061-.111A.09.09,0,0,0,848.844,5325.249Z" fill="#ff9a6c"/><path d="M847.375,5324.861a.11.11,0,1,0-.059-.124A.1.1,0,0,0,847.375,5324.861Z" fill="#ff9a6c"/><path d="M846.378,5324.8c.047.008.1-.048.107-.124s-.015-.145-.062-.152-.094.048-.107.124S846.332,5324.793,846.378,5324.8Z" fill="#ff9a6c"/><path d="M848.084,5326.153c.047,0,.086-.022.087-.052s-.036-.056-.084-.058-.086.022-.087.052S848.036,5326.151,848.084,5326.153Z" fill="#ff9a6c"/><path d="M846.736,5325.79a.1.1,0,1,0-.073-.107A.093.093,0,0,0,846.736,5325.79Z" fill="#ff9a6c"/><path d="M839.7,5324.7a.1.1,0,1,0-.061-.114A.092.092,0,0,0,839.7,5324.7Z" fill="#ff9a6c"/><path d="M838.69,5324.57a.1.1,0,0,0,.1-.095.088.088,0,1,0-.17-.023A.1.1,0,0,0,838.69,5324.57Z" fill="#ff9a6c"/><path d="M840.587,5324.754a.08.08,0,0,0,.1-.053.081.081,0,0,0-.066-.093.076.076,0,1,0-.034.146Z" fill="#ff9a6c"/><path d="M839.8,5325.738a.094.094,0,0,0,.12-.052.086.086,0,1,0-.154-.075A.093.093,0,0,0,839.8,5325.738Z" fill="#ff9a6c"/><path d="M838.947,5325.535a.073.073,0,1,0-.033-.14.073.073,0,1,0,.033.14Z" fill="#ff9a6c"/><path d="M856.618,5329.5a2.106,2.106,0,0,1,.067.786,1.14,1.14,0,0,1-.4.709,1.035,1.035,0,0,1-.938.213.954.954,0,0,1-.647-.694,1.218,1.218,0,0,1,.17-.8,1.71,1.71,0,0,1,.526-.587c0-.026-.353.07-.63.526a1.29,1.29,0,0,0-.221.889,1.092,1.092,0,0,0,.752.828,1.173,1.173,0,0,0,1.09-.255,1.234,1.234,0,0,0,.42-.813,1.335,1.335,0,0,0-.076-.609C856.677,5329.557,856.627,5329.494,856.618,5329.5Z" fill="#263238"/><path d="M856.629,5328.914c-.011-.017-.129.039-.2.227a.5.5,0,0,0,.319.651.469.469,0,0,0,.432-.089.387.387,0,0,0,.14-.331c-.022-.214-.165-.274-.171-.253s.064.1.05.253a.283.283,0,0,1-.117.208.333.333,0,0,1-.284.048.37.37,0,0,1-.22-.2.428.428,0,0,1-.033-.256C856.573,5329.017,856.648,5328.931,856.629,5328.914Z" fill="#263238"/><path d="M850.666,5392.481c-.419.038-27.172,3.206-31.374,5.563-2.322,1.3-2.116,3.582-2.477,4.553-1.416,3.8-.208,7.66,1.764,11.207l19.617,34.2,12.439-8.366-12.5-27.3,19.139-1.879a10.413,10.413,0,0,0,8.726-8.116l2.277-10.554Z" fill="#263238"/><path d="M850.635,5439.64c-.061.028-3.637-7.673-7.985-17.2s-7.825-17.274-7.764-17.3,3.636,7.672,7.986,17.2S850.7,5439.612,850.635,5439.64Z" fill="#455a64"/><path d="M850.666,5394.123a.481.481,0,0,1-.124.021l-.366.035-1.408.118-5.177.417c-4.371.36-10.414.817-17.073,1.453-.833.079-1.654.169-2.462.261-.4.058-.81.092-1.191.17a5.913,5.913,0,0,0-1.125.33,8.421,8.421,0,0,0-3.647,2.525,8.589,8.589,0,0,0-1.111,1.764,8.132,8.132,0,0,0-.566,1.884,12.533,12.533,0,0,0-.081,3.547,21.412,21.412,0,0,0,1.263,5.006c.22.57.417,1,.555,1.3l.158.331a.561.561,0,0,1,.048.116.475.475,0,0,1-.07-.1c-.041-.071-.1-.177-.18-.32-.153-.285-.364-.714-.6-1.282a20.479,20.479,0,0,1-1.347-5.021,12.581,12.581,0,0,1,.054-3.6,8.283,8.283,0,0,1,.569-1.937,8.736,8.736,0,0,1,1.133-1.818,8.617,8.617,0,0,1,3.736-2.607,6.267,6.267,0,0,1,1.161-.342c.406-.083.8-.115,1.21-.175.812-.093,1.634-.183,2.468-.263,6.665-.636,12.709-1.067,17.084-1.382l5.184-.339,1.411-.073.367-.011A.548.548,0,0,1,850.666,5394.123Z" fill="#455a64"/><path d="M863.8,5375.028l1.01-32.24-10.143-2.168-1.1-1.786-6.821,4.392-1.369,3.079-1.658-3.517-2.459-1.865-1.131,2.184-7.643,3.144a3.182,3.182,0,0,0-1.635,1.518L822.27,5364.9l-15.216-10.542-4.712,8.3,17.614,15a7.288,7.288,0,0,0,9.883-1.948l4.516-6.416,1.9,10.8.31,10.951,13.262,2.473,18.576-1.726Z" fill="#ff3c00"/><g opacity="0.3"><path d="M849.15,5393.35a27.462,27.462,0,0,0,18.382-4.728l-1.014-3.689Z"/></g><path d="M864.811,5342.788s-6.318,1.939-6.81,8.337-.734,24.729-.734,24.729-.984.738-.738,1.476-18.211,11.075-18.211,11.075l3.693,6.431a80.274,80.274,0,0,0,24.943-8.312c6.741-3.531,4.087-31.2,3.964-31.567S869.134,5342.772,864.811,5342.788Z" fill="#ff3c00"/><path d="M836.251,5380.094a1.227,1.227,0,0,1-.073-.272l-.161-.787-.549-2.9c-.225-1.237-.49-2.7-.783-4.311-.145-.813-.3-1.665-.453-2.548-.118-.89-.241-1.81-.366-2.753-.483-3.762-.92-7.165-1.241-9.668-.145-1.215-.263-2.209-.349-2.934l-.082-.8a1.172,1.172,0,0,1-.012-.281,1.272,1.272,0,0,1,.061.274l.127.794c.1.722.25,1.712.426,2.922.339,2.5.8,5.9,1.311,9.656l.361,2.753c.152.883.3,1.735.439,2.548.274,1.618.521,3.079.731,4.318.2,1.207.356,2.195.472,2.916l.116.794A1.283,1.283,0,0,1,836.251,5380.094Z" fill="#263238"/><path d="M842.011,5394.836a.642.642,0,0,1-.073-.1l-.2-.32q-.262-.446-.741-1.252l-2.749-4.716-.045-.078.084-.032a44.24,44.24,0,0,0,8.2-4.464c3.035-1.967,6.309-4.4,10.152-6.437l-.049.168a1.621,1.621,0,0,1,1.188-2.32l-.109.1.2-1.485a77.434,77.434,0,0,0,.508-12.843c-.08-1.976-.272-3.847-.384-5.608a24.721,24.721,0,0,1,.1-4.909,12.187,12.187,0,0,1,1.183-3.872,9.148,9.148,0,0,1,1.8-2.466,7.028,7.028,0,0,1,1.562-1.138c.193-.108.353-.165.455-.213a.86.86,0,0,1,.16-.062,8.02,8.02,0,0,0-2.11,1.481,9.152,9.152,0,0,0-1.75,2.46,12.146,12.146,0,0,0-1.134,3.833,24.771,24.771,0,0,0-.069,4.873c.12,1.753.32,3.628.406,5.611a76.135,76.135,0,0,1-.49,12.883c-.067.51-.134,1.018-.2,1.49l-.012.094-.1.01a1.384,1.384,0,0,0-1,1.955l.065.108-.115.061c-3.819,2.018-7.1,4.442-10.147,6.4a43.335,43.335,0,0,1-8.262,4.429l.04-.11,2.687,4.752q.456.819.707,1.272l.178.33A.569.569,0,0,1,842.011,5394.836Z" fill="#263238"/><path d="M859.968,5380.741a6.243,6.243,0,0,0-3.361-3.443,1.639,1.639,0,0,1,.72.191,4.691,4.691,0,0,1,2.467,2.528A1.639,1.639,0,0,1,859.968,5380.741Z" fill="#263238"/><path d="M860.907,5379.141a7.433,7.433,0,0,0-3.257-3.634,4.866,4.866,0,0,1,3.257,3.634Z" fill="#263238"/><path d="M866.954,5386.524a1,1,0,0,1-.229.134l-.679.335c-.593.284-1.456.684-2.532,1.159-2.149.952-5.147,2.208-8.524,3.425a70.54,70.54,0,0,1-8.8,2.639c-1.155.228-2.09.413-2.748.465l-.754.078a1.032,1.032,0,0,1-.264.01,1.189,1.189,0,0,1,.259-.059l.746-.123c.651-.08,1.578-.291,2.723-.539a81.531,81.531,0,0,0,8.759-2.7c3.37-1.215,6.374-2.443,8.539-3.354l2.561-1.087.7-.293A1.2,1.2,0,0,1,866.954,5386.524Z" fill="#263238"/><path d="M843.249,5342.851c.012.016-.056.084-.139.236a4.468,4.468,0,0,0-.273.691,13.046,13.046,0,0,0-.5,2.428l-.037.354-.187-.3-.053-.084c-.531-.866-.928-1.68-1.3-2.213s-.655-.827-.628-.856a2.64,2.64,0,0,1,.767.755,24.483,24.483,0,0,1,1.372,2.185l.052.082-.225.055a9.955,9.955,0,0,1,.581-2.463,3.031,3.031,0,0,1,.354-.684C843.146,5342.889,843.242,5342.839,843.249,5342.851Z" fill="#263238"/><path d="M853.65,5341.607c.023.034-.55.4-1.39,1.1a18.737,18.737,0,0,0-2.945,3.07,18.365,18.365,0,0,0-1.093,1.618l-.128.212-.081-.232c-.393-1.13-.722-2.1-.947-2.793a6.827,6.827,0,0,1-.319-1.112,6.718,6.718,0,0,1,.454,1.064c.263.678.621,1.639,1.03,2.763l-.208-.02a16.537,16.537,0,0,1,1.1-1.647,16.238,16.238,0,0,1,3.033-3.058,12.94,12.94,0,0,1,1.072-.746A1.77,1.77,0,0,1,853.65,5341.607Z" fill="#263238"/><path d="M846.731,5376.785a1.393,1.393,0,0,1-.052-.292c-.027-.218-.06-.5-.1-.842-.085-.732-.194-1.792-.318-3.1-.248-2.622-.543-6.25-.783-10.261s-.38-7.65-.446-10.283c-.033-1.317-.052-2.382-.055-3.119,0-.347,0-.628,0-.848a1.385,1.385,0,0,1,.017-.3,1.268,1.268,0,0,1,.033.295l.044.847c.033.766.078,1.823.133,3.115.11,2.63.277,6.263.516,10.274s.508,7.636.712,10.261c.1,1.289.181,2.344.24,3.109.023.346.042.627.057.846A1.328,1.328,0,0,1,846.731,5376.785Z" fill="#263238"/><path d="M856.062,5368.819a3.661,3.661,0,0,1-.421.537c-.282.336-.706.81-1.244,1.382a53.787,53.787,0,0,1-9.37,7.9c-.655.433-1.194.77-1.573.991a3.727,3.727,0,0,1-.6.325,3.532,3.532,0,0,1,.55-.405l1.527-1.054c1.283-.9,3.023-2.186,4.851-3.724s3.39-3.036,4.492-4.149l1.3-1.326A3.7,3.7,0,0,1,856.062,5368.819Z" fill="#263238"/><path d="M845.175,5384.4a18.661,18.661,0,0,1-.074-3,18.369,18.369,0,0,1,.17-3,36.9,36.9,0,0,1-.1,6Z" fill="#263238"/><g opacity="0.3"><path d="M834.216,5369.546a74.463,74.463,0,0,0-1.257-9.993,100.2,100.2,0,0,1-2.293,14.98Z"/></g><g opacity="0.3"><path d="M845.378,5346.305c.477-.393,1.042-.074,1.327.474a4.062,4.062,0,0,1,.254,1.817,2.243,2.243,0,0,0,.192.995.908.908,0,0,0,.81.528c.4-.023.691-.377.926-.7q2.791-3.859,5.221-7.967c-2.609,1.011-4.365,3.49-6.053,6.117-.07.027-1.369-4.205-1.369-4.205-.359.913-.948,2.03-1.308,2.943"/></g><g opacity="0.3"><path d="M839.994,5343.212a25.838,25.838,0,0,0,3.816,6.161,16.4,16.4,0,0,0-.335-4.539c.477.329,1.427,1.142,1.9,1.471,0,0-1.034-2.235-1.46-3.047-.113-.217-.284-.46-.528-.448-.281.013-.416.342-.486.614l-.684,2.662a7.35,7.35,0,0,0-2.1-3.026"/></g><g opacity="0.3"><path d="M843.314,5379.6a4.14,4.14,0,0,1,1.553-3.885c.908-.688,2.073-.97,2.98-1.66,1.567-1.191,2.168-3.442,3.91-4.358.651-.343,1.639-.348,1.938.324.267.6-.214,1.256-.671,1.731a47.889,47.889,0,0,1-9.717,7.76"/></g><g opacity="0.3"><path d="M856.8,5377.564a4.718,4.718,0,0,1,1.377,3.26,4.878,4.878,0,0,0,.049,1.068.983.983,0,0,0,.663.77.941.941,0,0,0,1.021-.817,2.5,2.5,0,0,0-.3-1.412,5.671,5.671,0,0,0-2.684-3.157"/></g><g opacity="0.2"><path d="M822.12,5364.789a7.534,7.534,0,0,1,1.225,4.19,12.1,12.1,0,0,0-.245,2.54c.02.209-.335.281-.17.411.274.215.709-.009.833-.334a1.688,1.688,0,0,0-.053-1.025.719.719,0,0,0,.889.663,1.158,1.158,0,0,0,.787-.936,3.227,3.227,0,0,0-.089-1.28,8.674,8.674,0,0,0-.953-2.784,3.32,3.32,0,0,0-2.329-1.655"/></g><path d="M823.049,5371.733a11.872,11.872,0,0,0-.882-7.045,3.272,3.272,0,0,1,.533.929,8.976,8.976,0,0,1,.637,5.084A3.282,3.282,0,0,1,823.049,5371.733Z" fill="#263238"/><path d="M851.192,5427.551c-1.961-8.773,1.389-23.839,7.636-30.3a27.79,27.79,0,0,1,24.663-7.853v38.586Z" fill="#455a64"/><path d="M883.349,5411.284c.013.024-6.13,3.684-13.719,8.175s-13.757,8.115-13.771,8.092,6.128-3.683,13.721-8.176S883.335,5411.261,883.349,5411.284Z" fill="#fafafa"/><path d="M883.348,5398.152s-.11.075-.323.208l-.936.577-3.453,2.1c-2.921,1.77-6.962,4.2-11.445,6.86s-8.559,5.034-11.528,6.721c-1.486.841-2.689,1.521-3.529,1.976l-.965.526c-.222.119-.34.177-.34.177s.112-.07.33-.195l.957-.541,3.512-2c2.96-1.7,7.031-4.087,11.514-6.745l11.458-6.835,3.47-2.077.945-.562C883.232,5398.215,883.348,5398.152,883.348,5398.152Z" fill="#fafafa"/><path d="M879.184,5389.621s-.078.05-.231.137l-.672.377L875.8,5391.5c-2.1,1.142-5.021,2.692-8.252,4.389l-11.686,6.18s.078-.05.232-.137l.671-.377,2.484-1.362c2.1-1.142,5.021-2.692,8.254-4.39Z" fill="#fafafa"/><path d="M882.687,5389.653a.58.58,0,0,1-.151,0l-.439-.038c-.387-.027-.952-.117-1.687-.151a31.218,31.218,0,0,0-6.206.222c-.325.048-.659.082-1,.144l-1.031.209c-.708.12-1.418.351-2.165.542a26.253,26.253,0,0,0-4.558,1.835,23.262,23.262,0,0,0-8.444,7.291,31.4,31.4,0,0,0-2.889,5.069,35.834,35.834,0,0,0-1.9,5.1,42.619,42.619,0,0,0-1.114,4.8c-.236,1.526-.412,2.956-.485,4.268a38.717,38.717,0,0,0,.085,6.217c.046.734.157,1.3.192,1.682l.051.438a.709.709,0,0,1,.009.151.739.739,0,0,1-.033-.147l-.075-.435c-.052-.384-.178-.945-.239-1.68a36.488,36.488,0,0,1-.162-6.237c.062-1.318.229-2.755.457-4.29a42.34,42.34,0,0,1,1.1-4.829,35.755,35.755,0,0,1,1.9-5.133,31.447,31.447,0,0,1,2.908-5.109,23.3,23.3,0,0,1,8.54-7.351,26.29,26.29,0,0,1,4.6-1.83c.754-.188,1.47-.416,2.183-.531l1.04-.2c.34-.06.677-.092,1-.137a29.8,29.8,0,0,1,6.236-.146c.736.049,1.3.154,1.686.2l.437.063A.705.705,0,0,1,882.687,5389.653Z" fill="#263238"/><path d="M838.722,5389.069a15.215,15.215,0,0,1-3.108-.407,10.66,10.66,0,0,0-3.759-.476c-.875.136-3.116,1.019-4.542,1.427s-2.581.067-2.649.747.679,1.523,2.1,1.523c0,0-1.562.514-1.29.854s.747,1.154,1.426,1.154a1.445,1.445,0,0,0,1.223,1.358s.407,1.019,2.377,1.494c0,0-.152.883,1.35,1.155s9.923-3.532,9.923-3.532Z" fill="#ffbf9d"/><path d="M681.326,5341.009c-1.135-1.1-3.074-.143-4.027,1.116s-1.627,2.882-3.074,3.515-3.327.089-4.541,1.1c-1.674,1.39-.734,4.612-2.543,5.821a23.186,23.186,0,0,1-2.434.858c-1.809.933-1.788,3.486-1.508,5.5.392,2.83.822,5.763,2.384,8.155s4.6,4.076,7.3,3.152c2.6-.887,3.931-3.69,4.988-6.224l4.386-10.517a24.525,24.525,0,0,0,1.976-6.266,8.26,8.26,0,0,0-1.482-6.239" fill="#263238"/><path d="M678.245,5320.311a2.927,2.927,0,0,1,2.121-2.482,16.127,16.127,0,0,0,3.244-1.234,15.5,15.5,0,0,0,2.148-2.2,7.148,7.148,0,0,1,12.021,3.279,4.69,4.69,0,0,1-1.172,4.706c-1.512,1.275-3.754.992-5.691.6s-4.131-.788-5.749.35a8.277,8.277,0,0,0-2.131,2.836,5.066,5.066,0,0,1-2.473,2.476c-1.128.388-2.659-.282-2.7-1.474" fill="#263238"/><path d="M678.323,5320.949a3.243,3.243,0,0,1-1.277,2.53,4.453,4.453,0,0,0-1.616,2.389c-.145,1.137.685,2.257.444,3.377a8.228,8.228,0,0,1-1.041,1.9,4.045,4.045,0,0,0-.207,2.982c.289.98.749,3.168,1.431,3.93a15.732,15.732,0,0,0,7.635,4.555,29.566,29.566,0,0,0,8.432.462c2.308-.142,4.963-.036,6.886-3.211a23.938,23.938,0,0,0,2.019-5.68,8.8,8.8,0,0,0,.376-4.882c-.276-.925-.832-1.746-1.1-2.672a21.074,21.074,0,0,1-.353-3.59,8.237,8.237,0,0,0-11.718-6.5" fill="#263238"/><path d="M698.844,5324.937c-.217-3.312-2.42-7.372-5.72-7.015l-10.3,2.628a1.943,1.943,0,0,0-1.733,1.974l1.158,24.852-.072.016s2.348,7.009,9.16,4.868c1.351-.425,1.968-1.9,2.235-3.422l.07.009c0-.18.005-.348.007-.521a16.246,16.246,0,0,0,.041-3.412h0c.019-2.007.017-2.83.018-2.811,0,0,4.231-.712,5.1-6.236A58.918,58.918,0,0,0,698.844,5324.937Z" fill="#ffbf9d"/><path d="M698.313,5328.253a.709.709,0,0,1-.682.716.677.677,0,0,1-.731-.637.708.708,0,0,1,.681-.716A.677.677,0,0,1,698.313,5328.253Z" fill="#263238"/><path d="M697.872,5327.282c-.088.092-.625-.3-1.387-.3s-1.32.386-1.4.293c-.04-.041.049-.208.292-.386a1.948,1.948,0,0,1,1.122-.349,1.872,1.872,0,0,1,1.105.354C697.835,5327.074,697.915,5327.24,697.872,5327.282Z" fill="#263238"/><path d="M690.593,5328.515a.707.707,0,0,1-.681.716.677.677,0,0,1-.731-.637.708.708,0,0,1,.68-.716A.677.677,0,0,1,690.593,5328.515Z" fill="#263238"/><path d="M690.382,5327.441c-.088.092-.626-.3-1.388-.3s-1.319.386-1.4.293c-.041-.041.047-.208.291-.386a1.948,1.948,0,0,1,1.123-.349,1.871,1.871,0,0,1,1.1.354C690.344,5327.232,690.424,5327.4,690.382,5327.441Z" fill="#263238"/><path d="M693.16,5333.086a5.062,5.062,0,0,1,1.237-.226c.194-.021.379-.06.411-.192a.986.986,0,0,0-.131-.577l-.579-1.48a25.47,25.47,0,0,1-1.3-3.873,25.537,25.537,0,0,1,1.61,3.759c.193.52.378,1.015.554,1.489a1.121,1.121,0,0,1,.1.764.491.491,0,0,1-.319.285,1.33,1.33,0,0,1-.331.047A4.971,4.971,0,0,1,693.16,5333.086Z" fill="#263238"/><path d="M693.706,5342.1a14.048,14.048,0,0,1-7.4-1.956s1.8,3.789,7.329,3.26Z" fill="#ff9a6c"/><path d="M692.841,5334.923a1.374,1.374,0,0,0-1.232-.507,1.254,1.254,0,0,0-.864.466.8.8,0,0,0-.059.909.922.922,0,0,0,1,.25,2.9,2.9,0,0,0,.973-.583.826.826,0,0,0,.217-.226.254.254,0,0,0,0-.284" fill="#ff9a6c"/><path d="M690.918,5333.618c.124-.007.127.82.837,1.4s1.589.493,1.6.609c.012.052-.2.161-.568.172a2.062,2.062,0,0,1-1.332-.461,1.793,1.793,0,0,1-.649-1.179C690.77,5333.819,690.862,5333.614,690.918,5333.618Z" fill="#263238"/><path d="M690.721,5326.106c-.074.207-.835.11-1.729.22-.9.092-1.617.355-1.736.17-.053-.089.072-.284.363-.486a3.035,3.035,0,0,1,2.64-.3C690.588,5325.845,690.753,5326.007,690.721,5326.106Z" fill="#263238"/><path d="M697.587,5325.077c-.134.173-.659-.005-1.29-.012-.631-.029-1.166.119-1.289-.062-.055-.088.029-.261.262-.426a1.868,1.868,0,0,1,2.079.06C697.572,5324.814,697.646,5324.992,697.587,5325.077Z" fill="#263238"/><path d="M678.966,5338.717a4.9,4.9,0,0,0,5.834-5.422c-.172-1.356-.9-2.736-.433-4.02.622-1.7,3-2.219,3.632-3.913.367-.984.037-2.135.453-3.1a3.683,3.683,0,0,1,2.275-1.765,9.48,9.48,0,0,0,2.7-1.174,2.127,2.127,0,0,0,.764-2.6,52.371,52.371,0,0,0-12.067,2.932,4.657,4.657,0,0,0-2.38,1.542,4.878,4.878,0,0,0-.49,2.96q.348,7.437.694,14.875" fill="#263238"/><path d="M679.313,5340.616a.345.345,0,0,1-.089-.057l-.246-.187c-.214-.168-.527-.416-.915-.758a9.661,9.661,0,0,1-1.3-1.366,5.1,5.1,0,0,1-1.033-2.273,3.46,3.46,0,0,1,.712-2.906,11.316,11.316,0,0,1,1.287-1.1,3,3,0,0,0,1-1.369,17.634,17.634,0,0,0,.385-3.761,7.48,7.48,0,0,1,1.565-3.8,5.15,5.15,0,0,1,1.638-1.338,10.091,10.091,0,0,1,1.932-.653,4.483,4.483,0,0,0,1.7-.835,6.69,6.69,0,0,0,1.231-1.357c.693-.986,1.206-2.035,1.867-2.911a6.311,6.311,0,0,1,1.088-1.155,4.172,4.172,0,0,1,1.29-.7,2.749,2.749,0,0,1,2.453.245,2.258,2.258,0,0,1,.871,1.653,1.648,1.648,0,0,1-.332,1.137,1.047,1.047,0,0,1-.226.216c-.056.042-.085.062-.088.058a.44.44,0,0,1,.073-.077,1.234,1.234,0,0,0,.2-.226,1.64,1.64,0,0,0,.277-1.1,2.174,2.174,0,0,0-.856-1.549,2.614,2.614,0,0,0-2.319-.192,4,4,0,0,0-1.227.686,6.183,6.183,0,0,0-1.044,1.129c-.641.861-1.143,1.909-1.847,2.92a6.857,6.857,0,0,1-1.268,1.408,4.712,4.712,0,0,1-1.774.884,9.951,9.951,0,0,0-1.889.638,4.957,4.957,0,0,0-1.561,1.278,7.281,7.281,0,0,0-1.516,3.68,17.4,17.4,0,0,1-.41,3.809,3.22,3.22,0,0,1-1.078,1.456,11.4,11.4,0,0,0-1.273,1.067,3.287,3.287,0,0,0-.692,2.744,4.99,4.99,0,0,0,.971,2.219,10.172,10.172,0,0,0,1.254,1.378c.375.351.679.611.882.79A2.691,2.691,0,0,1,679.313,5340.616Z" fill="#455a64"/><path d="M713.539,5379.036l8.135-15.485-3.991-4.286-10.268,9.874,2.88,7.931Z" fill="#ff3c00"/><path d="M694.847,5349.3h0a13.61,13.61,0,0,1,7.7,7.01l10.491,22.317,9.037,3.665-7.957,2.293-7.087-5.2Z" fill="#ff3c00"/><path d="M714.113,5384.587l-3.807,2.934-18.991-19.534-10.857-19.611,1.255-3.648,8.394,3.5,2.424,3.054,1.252-4.25.539.763.876,2.376s8.242,6.857,10.021,12.294c1.484,4.538,1.019,13.913,1.923,16.461Z" fill="#fafafa"/><path d="M678.425,5348.122c-.127.381-8.119,3.591-8.5,6.389s5.743,24.434,5.743,24.434l9.708,8.576h24.93l-7.909-14.806a37.567,37.567,0,0,0-6.4-8.7c-2.34-2.371-5.173-5.305-6.631-7.057-1.58-1.9-8.279-10.759-8.279-10.759Z" fill="#ff3c00"/><path d="M683.426,5349.007a9.772,9.772,0,0,1,1.413.634c.858.419,2.036,1.014,3.331,1.684l1.468.767-.169.11a10.67,10.67,0,0,1,.158-2.612,3.6,3.6,0,0,1,.274-.988,9.821,9.821,0,0,1-.131,1.01,12.7,12.7,0,0,0-.07,2.574l.016.206-.185-.1-1.474-.756c-1.294-.669-2.459-1.288-3.3-1.747A9.692,9.692,0,0,1,683.426,5349.007Z" fill="#263238"/><path d="M694.964,5350.177a3.393,3.393,0,0,1-.482.758l-.1.14-.051-.172c-.159-.533-.363-1.278-.573-2.1l-.048-.188.226.027c-.751,1.415-1.208,2.6-1.273,2.578a9.85,9.85,0,0,1,1.057-2.692l.147-.281.079.308.048.187c.211.827.388,1.579.5,2.124l-.151-.032A3.326,3.326,0,0,1,694.964,5350.177Z" fill="#263238"/><path d="M702.644,5368.74a4.312,4.312,0,0,1-.4-.634l-1.017-1.766c-.856-1.492-2.043-3.551-3.386-5.8s-2.591-4.278-3.5-5.74c-.434-.7-.794-1.288-1.07-1.734a4.287,4.287,0,0,1-.367-.652,4.347,4.347,0,0,1,.447.6c.275.4.664.973,1.136,1.693.944,1.44,2.215,3.451,3.561,5.708s2.51,4.331,3.327,5.846c.409.758.733,1.375.95,1.805A4.521,4.521,0,0,1,702.644,5368.74Z" fill="#263238"/><g opacity="0.3"><path d="M698.8,5383.822a12.428,12.428,0,0,0,4.377.216,4.212,4.212,0,0,0,3.311-2.582,2.731,2.731,0,0,1,.54-1.249c.558-.515,1.446-.2,2.2-.267a2.769,2.769,0,0,0,2.007-1.406,8.214,8.214,0,0,0,.839-2.388,3.661,3.661,0,0,0,.148-1.24,1.235,1.235,0,0,0-.648-1.01c-.571-.257-1.215.117-1.723.483a129.824,129.824,0,0,0-11.592,9.812"/></g><path d="M763.3,5413.632l7.245,9.076s11.659-4.316,13.161-2.769l-17.094,14.68-11.869-13.679Z" fill="#455a64"/><g opacity="0.6"><path d="M764.625,5426.507a.92.92,0,0,0,.2,1.211.885.885,0,0,0,1.2-.189.972.972,0,0,0-.22-1.282.918.918,0,0,0-1.229.335" fill="#fff"/></g><g opacity="0.6"><path d="M766.614,5434.619l-1.142-1.426,16.816-13.541s1.045-.323,1.42.287Z" fill="#fff"/></g><path d="M770.749,5422.383c.069.086-.316.482-.5,1.1-.2.617-.1,1.16-.2,1.193-.091.05-.395-.556-.163-1.3S770.7,5422.291,770.749,5422.383Z" fill="#263238"/><path d="M773.179,5421.585c.089.064-.151.517-.131,1.113,0,.6.258,1.041.172,1.108-.067.081-.545-.358-.555-1.1S773.109,5421.507,773.179,5421.585Z" fill="#263238"/><path d="M776.04,5422.856c-.061.083-.535-.234-.713-.875s.056-1.159.151-1.119.063.491.218,1.015S776.116,5422.777,776.04,5422.856Z" fill="#263238"/><path d="M768.869,5420.5c.03.106-.452.32-.9.757s-.684.9-.789.867c-.1-.018-.007-.635.523-1.143S768.853,5420.4,768.869,5420.5Z" fill="#263238"/><g opacity="0.3"><path d="M764.735,5415.431l1.293,1.616-8.467,7.138-1.225-1.4Z"/></g><path d="M767.373,5418.694c.031.033-.255.368-.86.731a5.1,5.1,0,0,1-1.132.494,5.537,5.537,0,0,1-.715.161,1.406,1.406,0,0,1-.432.021.48.48,0,0,1-.419-.412.6.6,0,0,1,.2-.5,1.449,1.449,0,0,1,.359-.231,4.025,4.025,0,0,1,.689-.274,3.965,3.965,0,0,1,1.234-.16,1.885,1.885,0,0,1,1.1.263c-.015.06-.432-.036-1.1.008a4.476,4.476,0,0,0-1.133.225,4.224,4.224,0,0,0-.622.271c-.222.108-.377.239-.354.359.01.045.018.059.1.08a1.113,1.113,0,0,0,.317-.017,6.221,6.221,0,0,0,.674-.129,6.354,6.354,0,0,0,1.1-.394A7.686,7.686,0,0,1,767.373,5418.694Z" fill="#263238"/><path d="M767.367,5418.907c-.018.038-.441-.119-.936-.633a3.649,3.649,0,0,1-.916-1.745.931.931,0,0,1,.175-.9.525.525,0,0,1,.562-.068,1.51,1.51,0,0,1,.358.238,2.512,2.512,0,0,1,.495.576,2.591,2.591,0,0,1,.394,1.2,1.457,1.457,0,0,1-.247,1.107,9.119,9.119,0,0,0-.022-1.074,2.584,2.584,0,0,0-.42-1.037,2.293,2.293,0,0,0-.44-.481c-.183-.159-.377-.247-.429-.17a.646.646,0,0,0-.059.537,3.755,3.755,0,0,0,.187.647,4.052,4.052,0,0,0,.568,1C767.044,5418.619,767.4,5418.855,767.367,5418.907Z" fill="#263238"/><path d="M755.379,5439.57l-.439,11.6s11.648,4.344,11.775,6.5l-22.532-.045-.056-18.11Z" fill="#455a64"/><g opacity="0.6"><path d="M747.974,5450.185a.92.92,0,0,0-.638,1.049.885.885,0,0,0,1.034.641.97.97,0,0,0,.67-1.114.916.916,0,0,0-1.149-.548" fill="#fff"/></g><g opacity="0.6"><path d="M744.183,5457.627l.066-1.825,21.579.725s1,.439.887,1.145Z" fill="#fff"/></g><path d="M755.3,5451.061c0,.11-.554.159-1.1.511s-.831.815-.932.771c-.1-.021.063-.679.727-1.094S755.329,5450.96,755.3,5451.061Z" fill="#263238"/><path d="M757.666,5452.043c.025.107-.452.293-.826.758s-.484.956-.593.951c-.1.017-.178-.627.3-1.2S757.664,5451.938,757.666,5452.043Z" fill="#263238"/><path d="M759,5454.874c-.1.023-.252-.527.032-1.128s.8-.841.845-.749c.062.09-.273.413-.5.911S759.112,5454.864,759,5454.874Z" fill="#263238"/><path d="M755.112,5448.4c-.046.1-.551-.052-1.173-.012s-1.107.237-1.164.142.41-.486,1.143-.524S755.166,5448.319,755.112,5448.4Z" fill="#263238"/><g opacity="0.3"><path d="M755.29,5441.868l-.076,2.068-11.074-.123-.01-1.864Z"/></g><path d="M755.157,5446.062a2.1,2.1,0,0,1-1.128-.008,5.027,5.027,0,0,1-1.18-.365,5.283,5.283,0,0,1-.647-.345,1.4,1.4,0,0,1-.34-.266.48.48,0,0,1-.05-.586.6.6,0,0,1,.483-.25,1.494,1.494,0,0,1,.423.059,4.084,4.084,0,0,1,.7.242,3.993,3.993,0,0,1,1.039.685c.522.485.7.9.662.918-.05.036-.3-.309-.835-.709a4.435,4.435,0,0,0-1-.569,4.131,4.131,0,0,0-.648-.2c-.238-.064-.441-.066-.5.04-.022.041-.025.057.025.127a1.148,1.148,0,0,0,.25.194,5.847,5.847,0,0,0,.6.342,6.158,6.158,0,0,0,1.09.42A7.975,7.975,0,0,1,755.157,5446.062Z" fill="#263238"/><path d="M755.014,5446.22a1.8,1.8,0,0,1-.3-1.091,3.667,3.667,0,0,1,.157-1.235,3.6,3.6,0,0,1,.289-.685.931.931,0,0,1,.721-.568.527.527,0,0,1,.47.316,1.516,1.516,0,0,1,.115.414,2.479,2.479,0,0,1,0,.76,2.584,2.584,0,0,1-.484,1.164c-.441.583-.9.714-.91.677-.036-.056.347-.267.685-.828a2.587,2.587,0,0,0,.36-1.059,2.35,2.35,0,0,0-.02-.652c-.035-.24-.124-.433-.214-.409-.112,0-.3.178-.395.369a3.732,3.732,0,0,0-.281.611,4.079,4.079,0,0,0-.221,1.126C754.957,5445.791,755.074,5446.2,755.014,5446.22Z" fill="#263238"/><path d="M718.473,5371.737l12.049-27.83s-6.989,8.751-10.647,8.67c0,0-4.037,8.913-6.641,15.974l-3.967,10.239Z" fill="#fff"/><path d="M718.473,5371.737a1.512,1.512,0,0,1-.153.131l-.465.371-1.811,1.415c-1.593,1.233-3.887,3.007-6.726,5.2l-.237.183.108-.28c1.288-3.36,2.824-7.364,4.536-11.826s3.766-9.329,6.039-14.407l.032-.072h.082a4.44,4.44,0,0,0,2.044-.628,22.585,22.585,0,0,0,4.679-3.756,56.153,56.153,0,0,0,3.829-4.237l.538-.658-.339.778c-3.5,8.05-6.531,15-8.687,19.953l-2.536,5.771c-.3.662-.525,1.176-.686,1.536l-.181.393a.9.9,0,0,1-.066.13.8.8,0,0,1,.05-.142l.165-.406.654-1.558,2.477-5.807c2.133-4.953,5.128-11.909,8.6-19.963l.2.119a55.861,55.861,0,0,1-3.842,4.262,22.7,22.7,0,0,1-4.734,3.8,4.667,4.667,0,0,1-2.164.656l.113-.071c-2.272,5.072-4.333,9.927-6.055,14.385-1.7,4.467-3.283,8.457-4.586,11.808l-.129-.1,6.759-5.13,1.843-1.384.484-.356C718.411,5371.773,718.473,5371.737,718.473,5371.737Z" fill="#263238"/><path d="M670.667,5434.017l3.616,23.655h3.588l-1.767-23.566Z" fill="#263238"/><path d="M734.313,5434.106v23.566H738.1l1.41-23.655Z" fill="#263238"/><path d="M708.379,5366.742s1.529-3.508,2.344-3.994,5.8-2.76,5.8-2.76l-.512,1.118,4.962-2.962a2.323,2.323,0,0,1-.383,2.087c-.773,1.059-.516.961-.516.961s.839.5.417,1.253a16.791,16.791,0,0,1-1.131,1.666,2.18,2.18,0,0,1,.459,1.825,3.827,3.827,0,0,1,.112,1.84c-.182,1.069-2.114,3.1-2.114,3.1l-9.641,4.591-3.887-6.6Z" fill="#ffbf9d"/><path d="M687.115,5361.139l5.782,12.346,12.824-5.572s5.322,3.106,4.585,6.5l-11.554,9.491a10.345,10.345,0,0,1-7.825,2.275h0a10.349,10.349,0,0,1-7.39-4.589l-8.364-12.727-4.676-7.643a7.139,7.139,0,0,1,.2-7.911,5.815,5.815,0,0,1,1.652-1.55C674.432,5350.487,680.637,5349.936,687.115,5361.139Z" fill="#ff3c00"/><path d="M710.545,5374.427a.6.6,0,0,1,.124-.076l.374-.2,1.446-.734,5.284-2.627-.027.02a15.141,15.141,0,0,0,1.645-2.09,2.614,2.614,0,0,0,.472-1.3,3.719,3.719,0,0,0-.152-1.447l-.013-.042.012-.036a1.947,1.947,0,0,0-.442-1.713l-.057-.074.055-.072c.334-.441.666-.907.968-1.4a.831.831,0,0,0-.225-1.347l.106.01a.151.151,0,0,1-.185-.065.192.192,0,0,1-.018-.117.535.535,0,0,1,.032-.106c.025-.058.052-.11.08-.161.057-.1.117-.2.18-.29.122-.187.27-.375.383-.553a2.248,2.248,0,0,0,.36-1.243,2,2,0,0,0-.09-.583l.177.061-4.965,2.957-.323.193.157-.341q.261-.568.514-1.117l.151.151c-2.127.979-4.1,1.856-5.751,2.711a3.186,3.186,0,0,0-.836.99c-.228.364-.43.724-.613,1.073-.368.695-.674,1.337-.931,1.9l-.01.021-.019.01-2.1,1.058-.552.269a1.028,1.028,0,0,1-.193.081,1.013,1.013,0,0,1,.178-.111l.536-.3,2.074-1.111-.029.03c.248-.573.544-1.22.9-1.925.18-.353.379-.718.606-1.091a6.637,6.637,0,0,1,.375-.557,1.841,1.841,0,0,1,.515-.5c1.668-.884,3.621-1.766,5.75-2.757l.28-.13-.128.282-.51,1.119-.166-.149,4.96-2.966.13-.078.046.139a2.177,2.177,0,0,1,.106.667,2.488,2.488,0,0,1-.4,1.376c-.131.205-.265.371-.386.558-.062.091-.119.182-.171.274a1.268,1.268,0,0,0-.067.133.476.476,0,0,0-.017.05s0,0,0,0a.1.1,0,0,0-.039,0c-.032.006-.033,0-.05.01s-.006.006,0,0v-.015h0c.018.068-.025-.091-.021-.075l-.008,0,.1.009a1.261,1.261,0,0,1,.577.779.913.913,0,0,1-.052.5,3.282,3.282,0,0,1-.222.4c-.31.5-.644.966-.986,1.414l0-.145a2.9,2.9,0,0,1,.477.926,1.675,1.675,0,0,1,0,1.01v-.077a3.915,3.915,0,0,1,.158,1.546,2.265,2.265,0,0,1-.168.743,4.394,4.394,0,0,1-.344.648,15.03,15.03,0,0,1-1.686,2.109l-.011.012-.016.008-5.321,2.552-1.468.689-.386.173A.55.55,0,0,1,710.545,5374.427Z" fill="#ff9a6c"/><path d="M716.337,5360.91a24.477,24.477,0,0,1-4.155,2.565,24.457,24.457,0,0,1,4.155-2.565Z" fill="#ff9a6c"/><path d="M720.2,5360.79a28.765,28.765,0,0,1-3.771,3.712,28.765,28.765,0,0,1,3.771-3.712Z" fill="#ff9a6c"/><path d="M719.683,5363.763a8.6,8.6,0,0,1-1.874,2.2,8.649,8.649,0,0,1,1.874-2.2Z" fill="#ff9a6c"/><path d="M719.86,5365.768c.051.045-.162.37-.433.759s-.5.7-.565.667.084-.406.365-.807S719.81,5365.724,719.86,5365.768Z" fill="#ff9a6c"/><path d="M696.781,5385.127a.288.288,0,0,1,.059-.057l.184-.154.727-.586,2.772-2.2,9.886-7.752-.041.08a4.934,4.934,0,0,0-.363-1.89,7.855,7.855,0,0,0-1.065-1.738,13.546,13.546,0,0,0-3.279-2.818l.107.007-6.64,2.888-6.183,2.683-.1.045-.051-.1c-1.7-3.348-3.271-6.5-4.866-9.236-.79-1.373-1.576-2.646-2.314-3.829s-1.416-2.283-2.1-3.23a11.963,11.963,0,0,0-3.995-3.7c-.278-.164-.534-.289-.757-.4s-.412-.2-.567-.262l-.351-.155a.678.678,0,0,1-.117-.059,10.73,10.73,0,0,1,1.832.8,10.491,10.491,0,0,1,1.958,1.337,13.776,13.776,0,0,1,2.122,2.349c.7.948,1.387,2.046,2.135,3.223s1.54,2.45,2.338,3.822c1.612,2.736,3.193,5.889,4.9,9.232l-.154-.055,6.182-2.688,6.642-2.883.058-.025.05.032a13.719,13.719,0,0,1,3.337,2.88,8.041,8.041,0,0,1,1.092,1.8,5.167,5.167,0,0,1,.373,1.983v.049l-.041.032-9.941,7.682-2.808,2.149-.747.56-.194.141A.273.273,0,0,1,696.781,5385.127Z" fill="#263238"/><path d="M692.118,5377.366c-.067-.028.287-.91.489-2.051s.188-2.09.261-2.094a6.345,6.345,0,0,1-.75,4.145Z" fill="#263238"/><path d="M744.54,5387.521l21.15,28.106-9.893,8.5-10.185-13.317Z" fill="#ff3c00"/><path d="M699.761,5388.865s34.026-10.365,37.143-10.235,9.033,11.384,9.033,11.384l-9.553-.345-12.078,18.441-19.533-.909Z" fill="#ff3c00"/><path d="M727.574,5380.675c.02.065-3.478,1.161-7.81,2.449s-7.862,2.279-7.881,2.215,3.477-1.161,7.811-2.449S727.555,5380.61,727.574,5380.675Z" fill="#263238"/><path d="M735.481,5389.488h9.554a11.235,11.235,0,0,1,10.6,7.505h0a17.353,17.353,0,0,1,.964,6.6l-.744,38.863H742.992l-.231-12.419-1.626-23.612-11.133.47-6.309-.392Z" fill="#ff3c00"/><path d="M735.765,5389.294a5.507,5.507,0,0,1-.18.821,21.939,21.939,0,0,1-.675,2.192,22.37,22.37,0,0,1-1.419,3.095,25.17,25.17,0,0,1-2.326,3.462,62.324,62.324,0,0,1-5.2,5.491l-1.65,1.586a5.7,5.7,0,0,1-.626.561,5.582,5.582,0,0,1,.559-.628c.369-.4.917-.954,1.595-1.642a75.092,75.092,0,0,0,5.127-5.521,25.027,25.027,0,0,0,3.774-6.466c.339-.9.6-1.637.746-2.156A5.612,5.612,0,0,1,735.765,5389.294Z" fill="#263238"/><path d="M747.449,5389.75c0,.037-.666-.025-1.735-.084s-2.549-.1-4.183-.071-3.113.128-4.183.2a14.253,14.253,0,0,1-1.737.089,1.741,1.741,0,0,1,.459-.1c.3-.048.728-.1,1.263-.164,1.068-.117,2.55-.242,4.193-.273a36.359,36.359,0,0,1,4.2.143c.535.05.967.107,1.264.156A1.678,1.678,0,0,1,747.449,5389.75Z" fill="#263238"/><path d="M742.937,5435.355a1.657,1.657,0,0,1-.034-.324l-.052-.929c-.038-.837-.089-2-.153-3.421-.127-2.888-.3-6.877-.578-11.278s-.6-8.382-.841-11.263c-.115-1.42-.21-2.578-.277-3.413-.027-.383-.049-.692-.066-.929a1.672,1.672,0,0,1-.006-.325,1.578,1.578,0,0,1,.055.321l.111.924c.087.833.207,1.989.355,3.406.28,2.878.635,6.858.913,11.264s.424,8.4.506,11.287c.032,1.424.057,2.587.076,3.424l.006.931A1.6,1.6,0,0,1,742.937,5435.355Z" fill="#263238"/><path d="M756.617,5402.094c.068,0,.022,8.906-.1,19.888s-.279,19.887-.346,19.886-.022-8.9.1-19.889S756.55,5402.093,756.617,5402.094Z" fill="#263238"/><path d="M746.123,5400.642a22.277,22.277,0,0,0-2.743,1.295,22.525,22.525,0,0,0-2.4,1.859,2.626,2.626,0,0,1,.563-.708,8.959,8.959,0,0,1,1.707-1.359,8.853,8.853,0,0,1,1.985-.906A2.589,2.589,0,0,1,746.123,5400.642Z" fill="#263238"/><g opacity="0.3"><path d="M723.693,5406.5a10.919,10.919,0,0,0,7.665-1.751,10.568,10.568,0,0,0,4.5-6.288c.284-1.151.37-2.344.653-3.5a5.31,5.31,0,0,1,1.739-3.025c1.089-.834,3.768-1.365,4.566-2.48a36.331,36.331,0,0,0-4.241.27,24.5,24.5,0,0,1-3.066.228,30.571,30.571,0,0,1-1.122,3.409,67.463,67.463,0,0,1-10.693,13.133"/></g><path d="M670.025,5360.906s-5.066.2-6.618,2.326c-2.734,3.746-1.2,6.993-1.35,8.1s8.61,62.684,8.61,62.684h3.607l65.236.6,3.131-7.612-1.506-20.583-17.442.078s-7.142-20.5-13.387-21.873c-4.229-.929-14.161-.6-20.134-.291a8.342,8.342,0,0,1-7.442-3.8Z" fill="#455a64"/><path d="M727.843,5431.6s-.359.047-1.052.08-1.717.052-3.039.064c-2.645.036-6.485.048-11.268.043-9.565-.007-22.9-.083-37.973-.213h-.1l-.02-.095c-.271-1.291-.549-2.616-.832-3.963s-.545-2.722-.822-4.1c-3.275-16.7-5.2-31.994-6.227-43.088-.519-5.548-.83-10.046-1.026-13.156-.086-1.55-.152-2.755-.2-3.582l-.044-.932c-.009-.21-.007-.318-.007-.318s.015.107.032.316.038.528.068.931c.056.827.137,2.03.242,3.579.226,3.107.563,7.6,1.1,13.146,1.075,11.085,3.021,26.37,6.294,43.057.277,1.382.552,2.754.822,4.1l.83,3.961-.117-.095,37.972.294,11.266.03,3.038-.021c.347,0,.608-.026.785-.029S727.843,5431.6,727.843,5431.6Z" fill="#263238"/><path d="M727.156,5434.5a1.421,1.421,0,0,1,.027-.293c.032-.216.073-.492.124-.832.058-.359.129-.8.185-1.315s.15-1.1.2-1.747.125-1.358.152-2.124c.052-.764.054-1.582.066-2.443a52.187,52.187,0,0,0-.327-5.586,54.525,54.525,0,0,0-.965-5.515c-.394-1.676-.819-3.169-1.223-4.407-.187-.625-.4-1.175-.564-1.666s-.324-.907-.455-1.248l-.291-.788a1.311,1.311,0,0,1-.086-.281,1.335,1.335,0,0,1,.132.262l.334.772c.144.336.317.748.494,1.236s.4,1.036.6,1.659c.426,1.235.87,2.729,1.278,4.41a51.132,51.132,0,0,1,.989,5.537,49.336,49.336,0,0,1,.309,5.616c-.018.865-.028,1.686-.088,2.453-.037.769-.113,1.481-.183,2.131s-.161,1.235-.233,1.749-.153.953-.227,1.312l-.169.824A1.268,1.268,0,0,1,727.156,5434.5Z" fill="#263238"/><path d="M679.352,5390.39a1.739,1.739,0,0,1,.263-.222l.788-.6.574-.43c.219-.143.466-.285.727-.444a17.2,17.2,0,0,1,1.813-1.013l1.087-.529c.377-.187.794-.324,1.212-.5.424-.158.852-.352,1.313-.5l1.418-.448a40.706,40.706,0,0,1,6.477-1.347,47.2,47.2,0,0,1,6.6-.4c1.018-.017,1.983.065,2.887.1.9.083,1.742.142,2.5.25a32.672,32.672,0,0,1,3.582.657l.954.265a1.751,1.751,0,0,1,.328.108,1.779,1.779,0,0,1-.341-.061l-.963-.219c-.838-.178-2.059-.4-3.581-.579-.76-.1-1.6-.145-2.5-.219-.9-.024-1.862-.1-2.875-.075a49.191,49.191,0,0,0-6.572.418,41.982,41.982,0,0,0-6.444,1.321l-1.413.435c-.459.14-.885.329-1.308.483s-.834.3-1.21.48l-1.087.511a18.067,18.067,0,0,0-1.819.976c-.263.153-.512.288-.734.424l-.582.411-.812.562A1.908,1.908,0,0,1,679.352,5390.39Z" fill="#263238"/><path d="M805.72,5311.83a1.459,1.459,0,1,0,1.459-1.458A1.459,1.459,0,0,0,805.72,5311.83Z" fill="#263238"/><circle cx="1.459" cy="1.459" r="1.459" transform="translate(799.882 5310.372)" fill="#263238"/><path d="M794.059,5311.1a1.459,1.459,0,1,0,1.993-.534A1.461,1.461,0,0,0,794.059,5311.1Z" fill="#263238"/><path d="M801.251,5294.792a1.689,1.689,0,0,0-.295,0l-.867.024c-.191.009-.4.009-.639.029l-.765.107-.892.128-1,.248a16.137,16.137,0,0,0-4.832,2.106,17.049,17.049,0,0,0-7.833,12.818,17.779,17.779,0,0,0-.047,2.336c.028.4.02.8.078,1.195s.12.8.181,1.2a17.124,17.124,0,0,0,1.624,4.755,18.315,18.315,0,0,0,3.105,4.273,17.978,17.978,0,0,0,4.475,3.215A16.271,16.271,0,0,0,799,5328.9a10.775,10.775,0,0,0,1.455.123,13.055,13.055,0,0,0,1.47.027,17.4,17.4,0,0,0,2.946-.372,17.223,17.223,0,0,0,5.864-2.467l-.178.018,5.973,2.4.353.142-.1-.367-1.756-6.386-.03.158a17.145,17.145,0,0,0,3.187-7.3,15.505,15.505,0,0,0,.232-3.738,12.061,12.061,0,0,0-.169-1.8q-.069-.439-.136-.874c-.053-.287-.141-.565-.209-.845a17.079,17.079,0,0,0-6.664-9.715,16.3,16.3,0,0,0-3.966-2.092l-.893-.32-.848-.215-.776-.193c-.249-.048-.489-.073-.714-.108-.452-.057-.848-.135-1.2-.152l-.878-.03-.536-.012a.8.8,0,0,0-.181.007.884.884,0,0,0,.181.025l.534.042.872.059c.345.026.737.114,1.185.18a16.983,16.983,0,0,1,13.581,12.6c.065.275.15.549.2.831s.086.571.129.859a11.626,11.626,0,0,1,.158,1.763,15.2,15.2,0,0,1-.242,3.664,16.833,16.833,0,0,1-3.143,7.138l-.054.072.023.086,1.743,6.389.253-.225-5.97-2.4-.094-.038-.085.056a16.841,16.841,0,0,1-5.733,2.41,17.044,17.044,0,0,1-2.879.364,12.608,12.608,0,0,1-1.438-.026,10.444,10.444,0,0,1-1.422-.12,15.875,15.875,0,0,1-5.334-1.631,17.6,17.6,0,0,1-4.383-3.137,17.956,17.956,0,0,1-3.05-4.176,16.816,16.816,0,0,1-1.606-4.652q-.091-.594-.182-1.179c-.059-.391-.052-.785-.081-1.172a17.486,17.486,0,0,1,.036-2.293,16.878,16.878,0,0,1,7.631-12.665,16.265,16.265,0,0,1,4.753-2.143l.985-.262.883-.145.757-.125c.232-.026.445-.032.634-.047l.862-.062A1.733,1.733,0,0,0,801.251,5294.792Z" fill="#263238"/><rect width="31.492" height="4.327" transform="translate(626.711 5430.571)" fill="#263238"/><path d="M658.256,5434.952h-31.6v-4.435h31.6Zm-31.491-.108h31.384v-4.219H626.765Z" fill="#263238"/><path d="M629.631,5433.458l4.533,22.362h16.772l4.382-20.922Z" fill="#263238"/><path d="M629.631,5453.705l2.418,3.324h20.386l2.883-3.324Z" fill="#455a64"/><path d="M641.274,5434.111c-.062,0-.141-10.36-.177-23.137s-.015-23.139.047-23.14.141,10.358.177,23.14S641.336,5434.111,641.274,5434.111Z" fill="#263238"/><path d="M648.289,5408.185a1.093,1.093,0,0,1-.084.241l-.281.671-.206.482-.21.588-.242.675c-.084.239-.151.5-.233.769a31.3,31.3,0,0,0-.881,3.856,47.093,47.093,0,0,0-.488,4.822,65.148,65.148,0,0,0,.249,8.807c.1,1.125.2,2.033.278,2.661.033.294.059.533.08.723a1.028,1.028,0,0,1,.012.255,1.152,1.152,0,0,1-.057-.249c-.032-.188-.072-.426-.121-.718-.1-.624-.228-1.531-.35-2.656a58.041,58.041,0,0,1-.315-8.834,43.935,43.935,0,0,1,.508-4.845,29.207,29.207,0,0,1,.933-3.868c.088-.27.16-.53.25-.769l.26-.673.228-.584c.078-.177.157-.334.225-.478l.32-.655A1.081,1.081,0,0,1,648.289,5408.185Z" fill="#263238"/><path d="M647.484,5399.806a2.115,2.115,0,0,1-.1.342q-.123.359-.328.963c-.073.21-.153.442-.241.694l-.253.837c-.184.6-.4,1.28-.588,2.047-.1.382-.206.782-.315,1.2l-.3,1.31c-.22.9-.378,1.882-.581,2.905-.347,2.058-.653,4.332-.864,6.732s-.286,4.7-.316,6.783c-.006,2.088.02,3.968.106,5.546.028.789.078,1.5.119,2.128s.075,1.165.115,1.6c.033.424.058.762.078,1.015a2.03,2.03,0,0,1,.011.355,2.167,2.167,0,0,1-.056-.351q-.045-.376-.12-1.011c-.053-.439-.1-.978-.153-1.6s-.115-1.339-.153-2.129c-.106-1.579-.149-3.463-.154-5.555.019-2.093.1-4.393.3-6.8s.525-4.687.884-6.749c.209-1.026.375-2.007.6-2.909l.309-1.311c.114-.416.225-.816.33-1.2.2-.766.425-1.446.621-2.043l.272-.833.26-.689.368-.951A2.081,2.081,0,0,1,647.484,5399.806Z" fill="#263238"/><path d="M639.282,5435.944a.466.466,0,0,1-.017-.121l-.03-.357c-.023-.33-.053-.789-.093-1.372-.075-1.208-.183-2.928-.316-5.046-.273-4.26-.668-10.146-1.385-16.618-.366-3.236-.791-6.309-1.233-9.1-.235-1.391-.447-2.714-.689-3.945-.222-1.235-.46-2.379-.68-3.423s-.438-1.984-.623-2.811-.359-1.536-.507-2.115l-.327-1.335-.079-.349a.468.468,0,0,1-.02-.12.483.483,0,0,1,.042.114l.1.343c.088.319.211.763.368,1.325s.349,1.282.544,2.108.439,1.76.656,2.806.478,2.187.708,3.422c.25,1.231.47,2.555.71,3.947.454,2.788.885,5.865,1.252,9.1.717,6.479,1.088,12.37,1.321,16.633.116,2.133.2,3.859.244,5.052.022.584.039,1.043.051,1.374l.007.357A.461.461,0,0,1,639.282,5435.944Z" fill="#263238"/><path d="M641.017,5392.815a3.121,3.121,0,0,0-3.094-2.59,4.867,4.867,0,0,0-3.749,2.035,11.7,11.7,0,0,0-1.8,4.007,27.2,27.2,0,0,0-1.111,10.663,16.138,16.138,0,0,0,4.437,9.613,1.817,1.817,0,0,0,1.529.7,1.855,1.855,0,0,0,.806-.5,23.861,23.861,0,0,0,7.744-18.146,7.367,7.367,0,0,0-.97-3.9c-.752-1.132-2.506-2.334-3.787-1.879" fill="#ff3c00"/><path d="M630.011,5381.059l-2.076,3.76c-.049.087-.113.186-.213.194s-.19-.094-.25-.186l-5.488-8.423,1.264-.717Z" fill="#ff3c00"/><g opacity="0.2"><path d="M630.011,5381.059l-2.076,3.76c-.049.087-.113.186-.213.194s-.19-.094-.25-.186l-5.488-8.423,1.264-.717Z"/></g><path d="M641.144,5387.834l-18.723-11.048a.876.876,0,0,1-.456-.46c-.074-.277.134-.544.333-.75a12.9,12.9,0,0,1,10.006-3.931,11.434,11.434,0,0,1,9.046,5.626,10.315,10.315,0,0,1-.206,10.563" fill="#ff3c00"/><path d="M625.12,5373.259a1.076,1.076,0,0,1,.245-.03c.161-.008.4-.037.707-.034a14.14,14.14,0,0,1,2.6.206,15.182,15.182,0,0,1,12.119,10.966,14.155,14.155,0,0,1,.464,2.564,5.145,5.145,0,0,1,.028.546.905.905,0,0,1-.144.408,3.175,3.175,0,0,0,.029-.945,16.008,16.008,0,0,0-.53-2.53,15.294,15.294,0,0,0-11.994-10.853,15.933,15.933,0,0,0-2.57-.275C625.46,5373.269,625.121,5373.279,625.12,5373.259Z" fill="#263238"/><path d="M638.61,5380.209a4.593,4.593,0,0,1-.947.43c-.6.235-1.43.535-2.362.832s-1.787.531-2.41.684a4.466,4.466,0,0,1-1.021.194,5.131,5.131,0,0,1,.978-.347l2.385-.745,2.377-.768A5.067,5.067,0,0,1,638.61,5380.209Z" fill="#263238"/><path d="M635.662,5372.289a13.089,13.089,0,0,1,.105,4.186,13.192,13.192,0,0,1-.108-2.092A12.866,12.866,0,0,1,635.662,5372.289Z" fill="#263238"/><path d="M622.258,5376.577a8.221,8.221,0,0,1,1.36-.479c.85-.262,2.035-.594,3.355-.913s2.528-.562,3.4-.716a8.466,8.466,0,0,1,1.429-.193,9.976,9.976,0,0,1-1.4.349c-.867.193-2.064.461-3.382.778s-2.505.625-3.365.848A10.343,10.343,0,0,1,622.258,5376.577Z" fill="#263238"/><path d="M633.246,5389.63a7.68,7.68,0,0,0-5.332-1.381,16.291,16.291,0,0,0-5.836,1.506,17.98,17.98,0,0,0-8.011,6.305,10.522,10.522,0,0,0-1.13,9.847,1.4,1.4,0,0,0,.639.776,1.526,1.526,0,0,0,1.057-.081,59.056,59.056,0,0,0,10.508-4.188,19.825,19.825,0,0,0,8.079-7.72,6.619,6.619,0,0,0,.85-2.562,3.186,3.186,0,0,0-.824-2.5" fill="#ff3c00"/><path d="M633.278,5389.251a1.248,1.248,0,0,1-.258.1l-.753.259-.544.182c-.2.071-.408.159-.637.248-.454.184-.982.367-1.537.637-.281.128-.575.261-.88.4s-.61.314-.933.478c-.651.32-1.31.729-2.011,1.143a31.783,31.783,0,0,0-7.921,6.969c-.5.643-.989,1.244-1.389,1.849-.2.3-.415.579-.594.864l-.51.822c-.338.517-.587,1.017-.827,1.444-.117.215-.232.413-.327.6l-.25.518-.352.713a1.349,1.349,0,0,1-.137.243,1.224,1.224,0,0,1,.095-.261l.315-.733.233-.527c.09-.19.2-.392.311-.611.231-.434.472-.942.8-1.466q.24-.4.5-.835c.176-.289.385-.573.587-.876.4-.613.882-1.223,1.381-1.873a30.73,30.73,0,0,1,7.974-7.015c.709-.412,1.375-.817,2.033-1.132.327-.162.635-.332.944-.47l.892-.39c.562-.261,1.1-.436,1.557-.609.231-.083.445-.166.645-.231l.553-.164.766-.219A1.353,1.353,0,0,1,633.278,5389.251Z" fill="#263238"/><path d="M620.7,5396.063a37.529,37.529,0,0,1-3.917,1.262,37.964,37.964,0,0,1-3.98,1.047,75.488,75.488,0,0,1,7.9-2.309Z" fill="#263238"/><path d="M620.537,5404.707a6.262,6.262,0,0,1-.086-1.221c-.021-.754-.024-1.8.008-2.948s.094-2.193.157-2.946a6.216,6.216,0,0,1,.154-1.213,7.086,7.086,0,0,1,0,1.222c-.026.827-.057,1.832-.091,2.943s-.053,2.116-.073,2.942A7.032,7.032,0,0,1,620.537,5404.707Z" fill="#263238"/><path d="M627.941,5400.935c-.061,0-.258-2.115-.439-4.734s-.278-4.745-.216-4.749.258,2.115.439,4.734S628,5400.93,627.941,5400.935Z" fill="#263238"/><path d="M618.725,5391.246a6.922,6.922,0,0,1,1.255-.037c.774,0,1.843.028,3.023.067s2.248.086,3.021.132a7.034,7.034,0,0,1,1.25.121,6.949,6.949,0,0,1-1.254.038c-.774,0-1.844-.028-3.025-.067s-2.249-.087-3.022-.133A6.968,6.968,0,0,1,618.725,5391.246Z" fill="#263238"/><path d="M636.5,5417.036a1.039,1.039,0,0,1-.027-.251c-.008-.188-.019-.427-.033-.72-.028-.626-.034-1.532-.01-2.652s.1-2.452.231-3.927.356-3.091.659-4.774.682-3.272,1.065-4.705.793-2.707,1.168-3.764.7-1.908.945-2.485c.116-.271.211-.491.285-.665a1.07,1.07,0,0,1,.114-.226,1.112,1.112,0,0,1-.072.243l-.245.678c-.222.586-.524,1.441-.876,2.5s-.737,2.338-1.119,3.766-.735,3.015-1.044,4.692-.518,3.287-.675,4.756-.237,2.8-.278,3.912-.062,2.021-.06,2.646l-.01.72A1.04,1.04,0,0,1,636.5,5417.036Z" fill="#263238"/><path d="M637.486,5404.777a5.174,5.174,0,0,1-.747.82c-.485.483-1.172,1.131-1.957,1.819s-1.518,1.286-2.061,1.7a5.17,5.17,0,0,1-.91.633,5.728,5.728,0,0,1,.81-.756l2.013-1.748,2-1.767A5.692,5.692,0,0,1,637.486,5404.777Z" fill="#263238"/><path d="M643.412,5409.551a8.809,8.809,0,0,1-.8-1.1c-.511-.747-1.147-1.674-1.85-2.7s-1.366-1.934-1.889-2.674a8.852,8.852,0,0,1-.756-1.129,7.761,7.761,0,0,1,.884,1.034c.519.66,1.213,1.589,1.946,2.641s1.361,2.026,1.8,2.742A7.67,7.67,0,0,1,643.412,5409.551Z" fill="#263238"/><path d="M640.307,5394.537c.034.053-1.935,1.378-4.4,2.96s-4.485,2.824-4.518,2.772,1.934-1.378,4.4-2.96S640.274,5394.485,640.307,5394.537Z" fill="#263238"/><path d="M645.858,5400.529a73.626,73.626,0,0,1-5.8-5.664,73.626,73.626,0,0,1,5.8,5.664Z" fill="#263238"/><path d="M647.254,5400.409l1.69-.14a8.387,8.387,0,0,0,3.413-1.045,13.534,13.534,0,0,1,1.59-.8c2.09-.839,4.421-.689,6.669-.8a27.64,27.64,0,0,0,10.61-2.713,1.038,1.038,0,0,0,.462-.42c.347-.632-.3-1.2-.853-1.537a34.852,34.852,0,0,0-8.973-4.4c-3.229-.871-6.894-.724-9.649,1.172-3.234,2.226-4.412,6.8-4.959,10.685" fill="#ff3c00"/><path d="M671.726,5394.284a1.8,1.8,0,0,1-.286-.134l-.8-.419c-.7-.366-1.7-.9-2.959-1.511a27.677,27.677,0,0,0-4.579-1.765,15.137,15.137,0,0,0-5.936-.481,10.145,10.145,0,0,0-5.411,2.324,12.045,12.045,0,0,0-2.818,3.957c-.593,1.267-.959,2.344-1.225,3.082l-.3.852a1.839,1.839,0,0,1-.118.293,1.552,1.552,0,0,1,.075-.307l.261-.866a28,28,0,0,1,1.164-3.12,11.976,11.976,0,0,1,2.825-4.046,10.262,10.262,0,0,1,5.519-2.391,15.1,15.1,0,0,1,6.02.5,26.692,26.692,0,0,1,4.593,1.821c1.26.627,2.249,1.188,2.932,1.577l.781.457A1.508,1.508,0,0,1,671.726,5394.284Z" fill="#263238"/><path d="M667.668,5396.464c-.035.051-2.245-1.378-4.937-3.193s-4.845-3.328-4.811-3.38,2.245,1.378,4.937,3.194S667.7,5396.413,667.668,5396.464Z" fill="#263238"/><path d="M665.31,5389.775a5.343,5.343,0,0,1-1.609.289,5.448,5.448,0,0,1-1.641-.021,10.681,10.681,0,0,1,1.622-.165A10.8,10.8,0,0,1,665.31,5389.775Z" fill="#263238"/><path d="M655.635,5388.514a4.316,4.316,0,0,1-.725,1.133,4.806,4.806,0,0,1-.919,1.043,4.3,4.3,0,0,1,.725-1.132A4.853,4.853,0,0,1,655.635,5388.514Z" fill="#263238"/><path d="M657.615,5397.766a5.876,5.876,0,0,1-1.064-.577c-.638-.387-1.5-.955-2.423-1.624s-1.735-1.3-2.319-1.766a6.593,6.593,0,0,1-.918-.787,6.248,6.248,0,0,1,1.013.66l2.356,1.711c.919.667,1.763,1.253,2.377,1.673A7.07,7.07,0,0,1,657.615,5397.766Z" fill="#263238"/><path d="M649.742,5407.588c-1.612-.425-3.533,1.142-3.865,2.776a7.825,7.825,0,0,0,1,4.81,24.54,24.54,0,0,0,6.665,8.721,16.485,16.485,0,0,0,10.192,3.752c-.681-3.165.181-6.471-.2-9.687a12.6,12.6,0,0,0-11.16-11.049c-1.029-.111-2.22-.273-2.631.677" fill="#ff3c00"/><path d="M663.732,5427.647a1.088,1.088,0,0,1-.229-.106,4.351,4.351,0,0,1-.6-.4,6.28,6.28,0,0,1-1.591-2.129c-.257-.5-.545-1.041-.825-1.64s-.563-1.244-.867-1.917a18.586,18.586,0,0,0-1.066-2.049,16.04,16.04,0,0,0-1.467-2c-1.1-1.3-2.287-2.417-3.314-3.489a22.716,22.716,0,0,1-2.527-3.032,11.1,11.1,0,0,1-1.234-2.358c-.1-.3-.179-.53-.216-.691a1.163,1.163,0,0,1-.051-.248c.021-.006.113.33.348.907a12.193,12.193,0,0,0,1.284,2.3,24.012,24.012,0,0,0,2.545,2.977c1.03,1.06,2.221,2.179,3.336,3.488a15.757,15.757,0,0,1,1.483,2.025,18.219,18.219,0,0,1,1.067,2.078q.447,1.016.848,1.925c.27.6.55,1.144.8,1.646a6.521,6.521,0,0,0,1.506,2.134C663.427,5427.475,663.746,5427.626,663.732,5427.647Z" fill="#263238"/><path d="M655.4,5425.017a4.892,4.892,0,0,1,.148-1.085c.126-.664.333-1.575.613-2.568s.579-1.878.818-2.51a4.783,4.783,0,0,1,.44-1,5.927,5.927,0,0,1-.29,1.054c-.2.643-.474,1.532-.752,2.52s-.509,1.889-.674,2.541A5.86,5.86,0,0,1,655.4,5425.017Z" fill="#263238"/><path d="M663.427,5417.248a6.612,6.612,0,0,1-1.135-.261c-.7-.182-1.654-.43-2.721-.671s-2.041-.427-2.746-.56a6.685,6.685,0,0,1-1.138-.251,5.409,5.409,0,0,1,1.163.094c.714.094,1.7.257,2.77.5s2.031.515,2.716.736A5.554,5.554,0,0,1,663.427,5417.248Z" fill="#263238"/><path d="M649.416,5419.5a6.45,6.45,0,0,1,.174-1.256c.142-.769.367-1.827.669-2.983s.622-2.189.874-2.929a6.673,6.673,0,0,1,.462-1.181,7.767,7.767,0,0,1-.31,1.228c-.213.751-.508,1.787-.809,2.939s-.55,2.2-.731,2.959A7.77,7.77,0,0,1,649.416,5419.5Z" fill="#263238"/><path d="M659.729,5410.477c-.007.062-2.019-.1-4.494-.363s-4.477-.526-4.471-.587,2.019.1,4.495.363S659.736,5410.416,659.729,5410.477Z" fill="#263238"/><path d="M658.255,5434.88c0,.062-7.074.112-15.8.112s-15.8-.05-15.8-.112,7.072-.112,15.8-.112S658.255,5434.818,658.255,5434.88Z" fill="#455a64"/><path d="M653.334,5443.983c0,.062-4.766.112-10.644.112s-10.645-.05-10.645-.112,4.765-.113,10.645-.113S653.334,5443.921,653.334,5443.983Z" fill="#455a64"/><path d="M653.149,5445.284c0,.062-4.683.112-10.459.112s-10.459-.05-10.459-.112,4.682-.112,10.459-.112S653.149,5445.222,653.149,5445.284Z" fill="#455a64"/><path d="M653.519,5442.91c0,.062-4.929.112-11.009.112s-11.011-.05-11.011-.112,4.929-.112,11.011-.112S653.519,5442.848,653.519,5442.91Z" fill="#455a64"/><rect width="54.19" height="2.789" transform="translate(871.532 5317.44)" fill="#455a64"/><path d="M915.742,5289.213a.331.331,0,0,0-.038-.086l-.131-.243c-.12-.21-.306-.516-.572-.892a9.585,9.585,0,0,0-2.825-2.67,6.935,6.935,0,0,0-2.535-.931,6.273,6.273,0,0,0-3.079.323,5,5,0,0,0-2.635,2.157,16.156,16.156,0,0,0-1.154,3.484,6.318,6.318,0,0,1-.736,1.662,5.033,5.033,0,0,1-1.251,1.232c-.471.348-.964.661-1.411,1.026a6.076,6.076,0,0,0-1.145,1.242,7.62,7.62,0,0,0-1.175,2.868,10.236,10.236,0,0,0-.157,2.694,20.535,20.535,0,0,0,.69,3.834c.117.444.215.787.283,1.019a2.489,2.489,0,0,0,.115.351,2.347,2.347,0,0,0-.073-.362q-.09-.379-.244-1.029a22.016,22.016,0,0,1-.619-3.822,10.158,10.158,0,0,1,.179-2.65,7.488,7.488,0,0,1,1.163-2.79,5.864,5.864,0,0,1,1.112-1.2c.436-.354.926-.664,1.406-1.016a5.218,5.218,0,0,0,1.3-1.283,6.513,6.513,0,0,0,.764-1.718,16.218,16.218,0,0,1,1.131-3.441,4.809,4.809,0,0,1,2.522-2.077,6.116,6.116,0,0,1,2.986-.332,6.83,6.83,0,0,1,2.482.885,9.853,9.853,0,0,1,2.835,2.589c.274.366.471.663.6.866A2.465,2.465,0,0,0,915.742,5289.213Z" fill="#ffd7a6"/><path d="M900.233,5293.562c.326-.3.485-.092.924-.012a2.731,2.731,0,0,1,1.186.591,5,5,0,0,1,1.618,5.241,3.9,3.9,0,0,1-3.579-5.854" fill="#ffd7a6"/><path d="M913.649,5287.455c.164-.414.4-.292.829-.409a2.748,2.748,0,0,1,1.325.024,5,5,0,0,1,3.715,4.035,3.9,3.9,0,0,1-5.749-3.745" fill="#ffd7a6"/><path d="M897.278,5301.827a4.5,4.5,0,0,1,7.072.344,5.567,5.567,0,0,1-3.668,1.447,5.688,5.688,0,0,1-3.694-1.5" fill="#ffd7a6"/><path d="M898.379,5295.655a4.559,4.559,0,0,1-4.6-5.44,4.092,4.092,0,0,1,4.756,5.4" fill="#ffd7a6"/><path d="M903.1,5288.4a4.558,4.558,0,0,1-6.15-3.6,4.092,4.092,0,0,1,6.278,3.508" fill="#ffd7a6"/><path d="M904.684,5286.03a4.56,4.56,0,0,1,6.151,3.6,4.091,4.091,0,0,1-6.278-3.508" fill="#ffd7a6"/><path d="M906.571,5284.755a4.559,4.559,0,0,1-2.426-6.7,4.091,4.091,0,0,1,2.583,6.712" fill="#ffd7a6"/><path d="M911.407,5284.985a4.558,4.558,0,0,1,3.721-6.077,4.091,4.091,0,0,1-3.631,6.207" fill="#ffd7a6"/><path d="M891.913,5317.672l-2.576-16.17,19.743.24-1.947,15.719" fill="#263238"/><path d="M900.432,5298.548a3.368,3.368,0,0,0,3.277.278,3.554,3.554,0,0,0,1.793-2.833,4.023,4.023,0,0,0-3.271-.167,3.982,3.982,0,0,0-2.176,2.434" fill="#ff3c00"/><path d="M909.458,5302.03a3.366,3.366,0,0,0,3.276.278,3.551,3.551,0,0,0,1.793-2.833,3.789,3.789,0,0,0-5.447,2.267" fill="#ff3c00"/><path d="M904.392,5294.254a3.366,3.366,0,0,0,2.584,2.033,3.548,3.548,0,0,0,3.055-1.38,3.79,3.79,0,0,0-5.8-1.1" fill="#ff3c00"/><path d="M907.686,5298.283a3.366,3.366,0,0,0-2.947,1.459,3.544,3.544,0,0,0-.068,3.351,3.788,3.788,0,0,0,3.487-4.758" fill="#ff3c00"/><path d="M910.866,5304.648a3.368,3.368,0,0,0,.078,3.287,3.551,3.551,0,0,0,3.01,1.477,4.021,4.021,0,0,0-.187-3.27,3.67,3.67,0,0,0-2.625-1.676" fill="#ff3c00"/><path d="M916.113,5305.4a2.367,2.367,0,0,0-.781-.5,3.391,3.391,0,0,0-1.07-.188,12.881,12.881,0,0,0-1.457.086,4.253,4.253,0,0,1-1.794-.154,2.75,2.75,0,0,1-1.481-1.431,8.2,8.2,0,0,1-.638-2.184,6.283,6.283,0,0,0-.76-2.241,7.929,7.929,0,0,0-1.67-1.7,8.085,8.085,0,0,1-1.6-1.621,5.338,5.338,0,0,1-.795-3.716,5.215,5.215,0,0,1,.969-2.389,4.105,4.105,0,0,1,.473-.522,1.022,1.022,0,0,1,.187-.158,1.12,1.12,0,0,1-.156.189,5.009,5.009,0,0,0-.437.54,5.333,5.333,0,0,0-.886,2.36,5.238,5.238,0,0,0,.808,3.585,8.018,8.018,0,0,0,1.569,1.571,8.045,8.045,0,0,1,1.715,1.742,6.423,6.423,0,0,1,.786,2.316,8.09,8.09,0,0,0,.609,2.137,2.575,2.575,0,0,0,1.367,1.353,4.176,4.176,0,0,0,1.721.169,11.992,11.992,0,0,1,1.472-.054,3.3,3.3,0,0,1,1.1.23,1.811,1.811,0,0,1,.594.384.979.979,0,0,1,.122.138C916.1,5305.376,916.116,5305.394,916.113,5305.4Z" fill="#ff3c00"/><path d="M916.113,5305.4a2.367,2.367,0,0,0-.781-.5,3.391,3.391,0,0,0-1.07-.188,12.881,12.881,0,0,0-1.457.086,4.253,4.253,0,0,1-1.794-.154,2.75,2.75,0,0,1-1.481-1.431,8.2,8.2,0,0,1-.638-2.184,6.283,6.283,0,0,0-.76-2.241,7.929,7.929,0,0,0-1.67-1.7,8.085,8.085,0,0,1-1.6-1.621,5.338,5.338,0,0,1-.795-3.716,5.215,5.215,0,0,1,.969-2.389,4.105,4.105,0,0,1,.473-.522,1.022,1.022,0,0,1,.187-.158,1.12,1.12,0,0,1-.156.189,5.009,5.009,0,0,0-.437.54,5.333,5.333,0,0,0-.886,2.36,5.238,5.238,0,0,0,.808,3.585,8.018,8.018,0,0,0,1.569,1.571,8.045,8.045,0,0,1,1.715,1.742,6.423,6.423,0,0,1,.786,2.316,8.09,8.09,0,0,0,.609,2.137,2.575,2.575,0,0,0,1.367,1.353,4.176,4.176,0,0,0,1.721.169,11.992,11.992,0,0,1,1.472-.054,3.3,3.3,0,0,1,1.1.23,1.811,1.811,0,0,1,.594.384.979.979,0,0,1,.122.138C916.1,5305.376,916.116,5305.394,916.113,5305.4Z" fill="#ff3c00"/><path d="M878.425,5307.053a5,5,0,0,0-6.76-4.92,8.33,8.33,0,0,0,6.583,4.858" fill="#ff4f5b"/><path d="M877.121,5307.742a3.559,3.559,0,0,0-.212,4.021,9.034,9.034,0,0,0,3.07,2.949,6.484,6.484,0,0,0-2.793-7.356" fill="#ff4f5b"/><path d="M881.8,5302.77a5.764,5.764,0,0,0,6.55,5.134,7.883,7.883,0,0,0-2.2-4.169,3.766,3.766,0,0,0-4.416-.558" fill="#ff4f5b"/><path d="M881.768,5301.187a3.385,3.385,0,0,0-3.063-2.571,5.88,5.88,0,0,0-3.982,1.34,5.176,5.176,0,0,0,7.058.7" fill="#ff4f5b"/><path d="M874.412,5313.2a4.625,4.625,0,0,0-1.131,4.91,8.162,8.162,0,0,0,3.365,4.029,10.727,10.727,0,0,0,.627-5.219,5.484,5.484,0,0,0-2.974-4.141" fill="#ff4f5b"/><path d="M881.548,5297.223a4.166,4.166,0,0,1,6.6-.386,3.6,3.6,0,0,1-6.5.167" fill="#ff4f5b"/><path d="M883.209,5293.15a5.414,5.414,0,0,1-6.906-4.235,12.362,12.362,0,0,1,3.262.048,5.3,5.3,0,0,1,2.888,1.423,2.862,2.862,0,0,1,.756,2.764" fill="#ff4f5b"/><path d="M886.341,5292.1a4.427,4.427,0,0,1-.028-6.832,9.263,9.263,0,0,1,1.936,4.128,3.48,3.48,0,0,1-.015,1.709,1.574,1.574,0,0,1-1.2,1.118" fill="#ff4f5b"/><g opacity="0.4"><path d="M878.425,5307.053a5,5,0,0,0-6.76-4.92,8.33,8.33,0,0,0,6.583,4.858"/></g><g opacity="0.4"><path d="M877.121,5307.742a3.559,3.559,0,0,0-.212,4.021,9.034,9.034,0,0,0,3.07,2.949,6.484,6.484,0,0,0-2.793-7.356"/></g><g opacity="0.4"><path d="M881.8,5302.77a5.764,5.764,0,0,0,6.55,5.134,7.883,7.883,0,0,0-2.2-4.169,3.766,3.766,0,0,0-4.416-.558"/></g><g opacity="0.4"><path d="M881.768,5301.187a3.385,3.385,0,0,0-3.063-2.571,5.88,5.88,0,0,0-3.982,1.34,5.176,5.176,0,0,0,7.058.7"/></g><g opacity="0.4"><path d="M874.412,5313.2a4.625,4.625,0,0,0-1.131,4.91,8.162,8.162,0,0,0,3.365,4.029,10.727,10.727,0,0,0,.627-5.219,5.484,5.484,0,0,0-2.974-4.141"/></g><g opacity="0.4"><path d="M881.548,5297.223a4.166,4.166,0,0,1,6.6-.386,3.6,3.6,0,0,1-6.5.167"/></g><g opacity="0.4"><path d="M883.209,5293.15a5.414,5.414,0,0,1-6.906-4.235,12.362,12.362,0,0,1,3.262.048,5.3,5.3,0,0,1,2.888,1.423,2.862,2.862,0,0,1,.756,2.764"/></g><g opacity="0.4"><path d="M886.341,5292.1a4.427,4.427,0,0,1-.028-6.832,9.263,9.263,0,0,1,1.936,4.128,3.48,3.48,0,0,1-.015,1.709,1.574,1.574,0,0,1-1.2,1.118"/></g><path d="M891.757,5302.022a.406.406,0,0,1,0-.111l.02-.325c.019-.286.045-.707.055-1.25a11.169,11.169,0,0,0-.734-4.486,6.849,6.849,0,0,0-1.8-2.538,4.814,4.814,0,0,0-3.283-1.208,4.107,4.107,0,0,0-1.852.464,3.686,3.686,0,0,0-1.431,1.366,7.364,7.364,0,0,0-.831,4.125,29.436,29.436,0,0,1,.1,4.34,6.67,6.67,0,0,1-.54,2.013A4.218,4.218,0,0,1,880.24,5306a6.1,6.1,0,0,1-1.691.866,8.59,8.59,0,0,0-1.6.723,5.787,5.787,0,0,0-2.094,2.281,5.518,5.518,0,0,0-.6,2.5,5.838,5.838,0,0,0,.316,1.929,7.193,7.193,0,0,0,.747,1.5.465.465,0,0,1-.072-.085,3.254,3.254,0,0,1-.191-.265,5.285,5.285,0,0,1-.563-1.123,5.831,5.831,0,0,1-.357-1.957,5.594,5.594,0,0,1,.589-2.564,5.913,5.913,0,0,1,2.135-2.364c.976-.65,2.265-.811,3.258-1.592a5.092,5.092,0,0,0,1.669-3.474,29.769,29.769,0,0,0-.1-4.309,7.54,7.54,0,0,1,.866-4.241,3.883,3.883,0,0,1,1.515-1.438,4.289,4.289,0,0,1,1.943-.48,4.986,4.986,0,0,1,3.4,1.271,6.959,6.959,0,0,1,1.828,2.614,9.385,9.385,0,0,1,.621,2.56,14.132,14.132,0,0,1,.056,1.987c-.023.544-.062.966-.1,1.25l-.041.324A.453.453,0,0,1,891.757,5302.022Z" fill="#ff4f5b"/><g opacity="0.4"><path d="M891.757,5302.022a.406.406,0,0,1,0-.111l.02-.325c.019-.286.045-.707.055-1.25a11.169,11.169,0,0,0-.734-4.486,6.849,6.849,0,0,0-1.8-2.538,4.814,4.814,0,0,0-3.283-1.208,4.107,4.107,0,0,0-1.852.464,3.686,3.686,0,0,0-1.431,1.366,7.364,7.364,0,0,0-.831,4.125,29.436,29.436,0,0,1,.1,4.34,6.67,6.67,0,0,1-.54,2.013A4.218,4.218,0,0,1,880.24,5306a6.1,6.1,0,0,1-1.691.866,8.59,8.59,0,0,0-1.6.723,5.787,5.787,0,0,0-2.094,2.281,5.518,5.518,0,0,0-.6,2.5,5.838,5.838,0,0,0,.316,1.929,7.193,7.193,0,0,0,.747,1.5.465.465,0,0,1-.072-.085,3.254,3.254,0,0,1-.191-.265,5.285,5.285,0,0,1-.563-1.123,5.831,5.831,0,0,1-.357-1.957,5.594,5.594,0,0,1,.589-2.564,5.913,5.913,0,0,1,2.135-2.364c.976-.65,2.265-.811,3.258-1.592a5.092,5.092,0,0,0,1.669-3.474,29.769,29.769,0,0,0-.1-4.309,7.54,7.54,0,0,1,.866-4.241,3.883,3.883,0,0,1,1.515-1.438,4.289,4.289,0,0,1,1.943-.48,4.986,4.986,0,0,1,3.4,1.271,6.959,6.959,0,0,1,1.828,2.614,9.385,9.385,0,0,1,.621,2.56,14.132,14.132,0,0,1,.056,1.987c-.023.544-.062.966-.1,1.25l-.041.324A.453.453,0,0,1,891.757,5302.022Z"/></g><path d="M920.5,5298.494a4.206,4.206,0,0,0,.295-1.447,3.619,3.619,0,0,0-.384-1.67,3.481,3.481,0,0,0-1.61-1.555,3.549,3.549,0,0,0-1.269-.343,4.153,4.153,0,0,0-1.419.167c-.967.254-1.924.8-3.068,1.031a3.607,3.607,0,0,1-1.78-.044,2.667,2.667,0,0,1-1.449-1.157c-.689-1.07-.884-2.411-1.717-3.4a3.379,3.379,0,0,0-1.559-1.019,4.366,4.366,0,0,0-1.822-.185,4.67,4.67,0,0,0-3.031,1.577,7.127,7.127,0,0,0-1.5,2.782,8.391,8.391,0,0,0-.336,2.758,30.105,30.105,0,0,0,.512,4.033q.12.691.189,1.093l.042.286a.292.292,0,0,1,.007.1.356.356,0,0,1-.028-.095l-.064-.281-.228-1.085A27.4,27.4,0,0,1,899.7,5296a8.5,8.5,0,0,1,.317-2.812,7.273,7.273,0,0,1,1.529-2.866,5.414,5.414,0,0,1,1.385-1.108,4.766,4.766,0,0,1,3.68-.354,3.6,3.6,0,0,1,1.656,1.082c.881,1.057,1.07,2.408,1.73,3.423a2.462,2.462,0,0,0,1.335,1.076,3.431,3.431,0,0,0,1.68.046c1.1-.211,2.064-.753,3.06-1.009a4.246,4.246,0,0,1,1.478-.16,3.653,3.653,0,0,1,1.322.371,3.593,3.593,0,0,1,1.651,1.638,3.649,3.649,0,0,1,.36,1.725,3.4,3.4,0,0,1-.213,1.093A1.74,1.74,0,0,1,920.5,5298.494Z" fill="#ff3c00"/><path d="M908.957,5291.329a3.837,3.837,0,0,0,3.521.232,3.548,3.548,0,0,0,1.792-2.832,3.787,3.787,0,0,0-5.446,2.266" fill="#ff3c00"/><path d="M912.7,5294.724a3.836,3.836,0,0,0,1.635,3.127,3.548,3.548,0,0,0,3.351.057,3.787,3.787,0,0,0-4.769-3.471" fill="#ff3c00"/><path d="M919.193,5293.972a3.839,3.839,0,0,0,3.525-.145,3.551,3.551,0,0,0,1.481-3.008,4.028,4.028,0,0,0-3.271.182,3.987,3.987,0,0,0-1.9,2.652" fill="#ff3c00"/><path d="M903.5,5289.081a4.015,4.015,0,0,1-1.4-3.323,3.551,3.551,0,0,1,2.176-2.55,3.788,3.788,0,0,1-.555,5.873" fill="#ff3c00"/><path d="M878.151,5284.432a.323.323,0,0,1,.038-.086l.131-.242c.12-.211.306-.516.572-.893a9.636,9.636,0,0,1,2.825-2.67,6.967,6.967,0,0,1,2.535-.931,6.278,6.278,0,0,1,3.08.323,5,5,0,0,1,2.634,2.158,16.076,16.076,0,0,1,1.155,3.483,6.341,6.341,0,0,0,.735,1.662,5.043,5.043,0,0,0,1.252,1.233c.471.347.963.66,1.41,1.025a6.048,6.048,0,0,1,1.146,1.242,7.642,7.642,0,0,1,1.174,2.868,10.154,10.154,0,0,1,.157,2.694,20.534,20.534,0,0,1-.689,3.834c-.117.444-.216.787-.284,1.019a2.2,2.2,0,0,1-.115.351,2.5,2.5,0,0,1,.074-.362q.09-.379.244-1.028a22.233,22.233,0,0,0,.619-3.822,10.165,10.165,0,0,0-.18-2.651,7.511,7.511,0,0,0-1.162-2.79,5.874,5.874,0,0,0-1.113-1.2c-.435-.354-.925-.663-1.406-1.015a5.224,5.224,0,0,1-1.3-1.283,6.486,6.486,0,0,1-.764-1.719,16.2,16.2,0,0,0-1.132-3.441,4.809,4.809,0,0,0-2.522-2.077,6.107,6.107,0,0,0-2.985-.332,6.827,6.827,0,0,0-2.483.886,9.853,9.853,0,0,0-2.834,2.588c-.275.367-.472.663-.6.866A2.2,2.2,0,0,1,878.151,5284.432Z" fill="#ff3c00"/><path d="M893.661,5288.781c-.327-.3-.486-.092-.925-.012a2.734,2.734,0,0,0-1.185.592,4.994,4.994,0,0,0-1.619,5.24,3.9,3.9,0,0,0,3.579-5.854" fill="#ff3c00"/><path d="M880.245,5282.675c-.164-.415-.4-.293-.829-.409a2.724,2.724,0,0,0-1.325.024,4.994,4.994,0,0,0-3.716,4.034,3.9,3.9,0,0,0,5.75-3.745" fill="#ff3c00"/><path d="M896.616,5297.046a4.5,4.5,0,0,0-7.072.345,5.563,5.563,0,0,0,3.667,1.446,5.682,5.682,0,0,0,3.7-1.494" fill="#ff3c00"/><path d="M895.514,5290.874a4.557,4.557,0,0,0,4.6-5.44,4.092,4.092,0,0,0-4.755,5.4" fill="#ff3c00"/><path d="M890.792,5283.618a4.56,4.56,0,0,0,6.151-3.6,4.091,4.091,0,0,0-6.278,3.508" fill="#ff3c00"/><path d="M889.209,5281.249a4.558,4.558,0,0,0-6.15,3.6,4.092,4.092,0,0,0,6.278-3.508" fill="#ff3c00"/><path d="M887.322,5279.974a4.557,4.557,0,0,0,2.426-6.7,4.091,4.091,0,0,0-2.583,6.711" fill="#ff3c00"/><path d="M882.487,5280.205a4.559,4.559,0,0,0-3.722-6.078,4.091,4.091,0,0,0,3.632,6.207" fill="#ff3c00"/><path d="M889.086,5315.8l1.511,1.874h18.58l1.266-1.874Z" fill="#263238"/><path d="M910.034,5315.782c0,.059-4.565.107-10.2.107s-10.2-.048-10.2-.107,4.565-.107,10.2-.107S910.034,5315.722,910.034,5315.782Z" fill="#455a64"/><path d="M907.945,5308.727c.006,0-.034.057-.115.152a4.04,4.04,0,0,1-.379.4,6.944,6.944,0,0,1-1.659,1.151,7.292,7.292,0,0,1-2.9.745,6.916,6.916,0,0,1-1.775-.149,10.493,10.493,0,0,1-1.809-.6c-1.2-.51-2.286-1.091-3.347-1.428a5.762,5.762,0,0,0-2.89-.279,3.762,3.762,0,0,0-1.773.822c-.353.31-.488.542-.506.528a.655.655,0,0,1,.093-.168,2.721,2.721,0,0,1,.356-.421,3.693,3.693,0,0,1,1.8-.91,5.8,5.8,0,0,1,2.981.24c1.086.334,2.187.915,3.37,1.419a10.636,10.636,0,0,0,1.772.592,6.9,6.9,0,0,0,1.721.156,7.375,7.375,0,0,0,2.843-.684A8.787,8.787,0,0,0,907.945,5308.727Z" fill="#455a64"/><path d="M908.13,5307.276c.005.006-.038.055-.127.144a4.356,4.356,0,0,1-.407.371,7.682,7.682,0,0,1-1.719,1.067,8.094,8.094,0,0,1-2.921.7,7.955,7.955,0,0,1-1.779-.12,11.86,11.86,0,0,1-1.837-.519c-1.226-.446-2.352-.957-3.428-1.258A6.812,6.812,0,0,0,893,5307.4a4.384,4.384,0,0,0-1.84.7c-.386.271-.555.477-.571.462a.718.718,0,0,1,.116-.154,3.276,3.276,0,0,1,.406-.375,4.225,4.225,0,0,1,1.864-.785,6.778,6.778,0,0,1,2.992.223c1.1.3,2.234.806,3.447,1.246a12.006,12.006,0,0,0,1.8.515,7.961,7.961,0,0,0,1.732.129,8.2,8.2,0,0,0,2.868-.64A10.1,10.1,0,0,0,908.13,5307.276Z" fill="#455a64"/><rect width="1.627" height="4.536" transform="translate(886.208 5319.497)" fill="#455a64"/><rect width="1.627" height="4.536" transform="translate(909.419 5319.497)" fill="#455a64"/></g></svg>