<svg xmlns="http://www.w3.org/2000/svg" width="268" height="258.46" viewBox="0 0 268 258.46"><g transform="translate(-880.704 -5064.304)"><rect width="25.227" height="6.674" transform="translate(894.385 5117.459)" fill="#ffeed9"/><path d="M908.945,5131.163a.8.8,0,0,1-.008-.122l-.008-.342q-.008-.472-.019-1.313c-.01-1.153-.025-2.809-.043-4.9l.078.078-25.226.05c.057-.057-.13.128.127-.128v3.391q0,1.671,0,3.283l-.126-.126,17.978.057,5.307.036,1.435.016.375.008a.9.9,0,0,1,.133.009.742.742,0,0,1-.117.008l-.36.008-1.408.016-5.277.036-18.066.057h-.125v-.126q0-1.611,0-3.283v-3.391c.257-.257.072-.071.13-.129l25.226.051h.079v.078c-.018,2.108-.033,3.78-.043,4.943q-.012.831-.019,1.3l-.008.329A.6.6,0,0,1,908.945,5131.163Z" fill="#ffeed9"/><rect width="25.227" height="6.674" transform="translate(900.963 5266.079)" fill="#ebebeb"/><path d="M915.523,5279.782a.779.779,0,0,1-.008-.121l-.008-.342q-.008-.471-.019-1.314c-.01-1.152-.025-2.808-.044-4.9l.079.078-25.226.05c.057-.057-.13.128.127-.128h0v3.39q0,1.671,0,3.282l-.126-.125,17.978.057,5.307.036,1.434.016.376.008a1.011,1.011,0,0,1,.133.008.545.545,0,0,1-.117.009l-.36.008-1.408.016-5.277.036-18.066.057h-.125v-.127q0-1.61,0-3.282v-3.39h0c.257-.258.072-.072.13-.129l25.226.05h.079v.078c-.019,2.108-.033,3.78-.043,4.943q-.012.831-.019,1.3l-.009.328A.542.542,0,0,1,915.523,5279.782Z" fill="#e0e0e0"/><rect width="25.227" height="6.674" transform="translate(1119.237 5088.874)" fill="#ffeed9"/><path d="M1133.8,5102.577a.774.774,0,0,1-.008-.121l-.008-.342c-.005-.315-.011-.752-.019-1.314-.01-1.152-.025-2.808-.044-4.9l.079.078-25.226.051c.057-.058-.13.128.127-.129v1.707q0,.849,0,1.684,0,1.671,0,3.283l-.126-.126,17.978.058,5.307.035,1.434.017.376.008a.915.915,0,0,1,.133.008.519.519,0,0,1-.117.008l-.36.008-1.408.017-5.277.036-18.066.057h-.125v-.126q0-1.61,0-3.283V5095.9c.257-.257.072-.071.13-.128l25.226.05h.078v.078c-.019,2.108-.033,3.781-.043,4.944q-.012.831-.019,1.3c0,.134-.006.242-.009.328A.544.544,0,0,1,1133.8,5102.577Z" fill="#ffeed9"/><rect width="25.227" height="6.674" transform="translate(903.702 5064.304)" fill="#ffeed9"/><rect width="25.227" height="6.674" transform="translate(977.962 5262.742)" fill="#ebebeb"/><path d="M1018.132,5085.417a.807.807,0,0,1-.009-.133l-.009-.376-.021-1.441c-.011-1.265-.027-3.083-.047-5.376l.086.086-27.693.055c.062-.063-.142.141.139-.141v3.723q0,1.835,0,3.6l-.138-.138,19.736.063,5.826.04,1.575.018.412.008a1.041,1.041,0,0,1,.146.009.647.647,0,0,1-.128.009l-.4.009-1.545.018-5.794.04-19.832.062H990.3v-.139q0-1.767,0-3.6,0-.918,0-1.849v-1.874c.283-.282.079-.078.143-.141l27.693.055h.086v.086c-.021,2.314-.037,4.15-.048,5.427l-.021,1.422-.009.361A.57.57,0,0,1,1018.132,5085.417Z" fill="#ffeed9"/><path d="M1021.887,5078.091a.777.777,0,0,1-.011-.14l-.011-.388-.025-1.469c-.013-1.284-.032-3.1-.055-5.33l.1.1-16.639.04c-.127.126.17-.172.14-.141v1.909c0,.629,0,1.252,0,1.864,0,1.226,0,2.414-.005,3.553l-.134-.134,11.9.063,3.468.038.935.016a2.831,2.831,0,0,1,.334.017,1.925,1.925,0,0,1-.3.016l-.907.017-3.437.037-11.994.064h-.134v-.135c0-1.139,0-2.327-.005-3.553,0-.612,0-1.235,0-1.864v-1.909c-.031.03.268-.268.142-.142l16.639.04h.1v.1c-.023,2.257-.041,4.092-.054,5.392q-.017.914-.026,1.446A4.1,4.1,0,0,1,1021.887,5078.091Z" fill="#ffeed9"/><path d="M1138.031,5259.425a1.175,1.175,0,0,1-.008-.133l-.009-.376q-.008-.516-.021-1.441c-.011-1.265-.027-3.084-.047-5.376l.085.086-27.692.055c.062-.063-.143.141.139-.141v1.874q0,.932,0,1.849c0,1.222,0,2.425,0,3.6l-.138-.138,19.736.063,5.825.039,1.575.019.412.008a1.024,1.024,0,0,1,.146.009.561.561,0,0,1-.128.009l-.395.009-1.545.018-5.794.04-19.832.062h-.138v-.139c0-1.178,0-2.381,0-3.6q0-.918,0-1.849V5252.1c.282-.282.079-.078.143-.141l27.692.055h.087v.086c-.02,2.314-.036,4.15-.047,5.427q-.013.912-.021,1.422l-.009.361A.493.493,0,0,1,1138.031,5259.425Z" fill="#e0e0e0"/><path d="M1141.786,5252.1a.866.866,0,0,1-.01-.14l-.011-.388-.025-1.469c-.014-1.285-.032-3.1-.055-5.33l.1.1-16.638.039c-.127.126.17-.172.14-.14v1.909q0,.943,0,1.864c0,1.226,0,2.414-.005,3.553l-.134-.134,11.9.063,3.467.037.935.017a2.592,2.592,0,0,1,.334.017,2.065,2.065,0,0,1-.3.016l-.907.017-3.437.037-11.993.064h-.135v-.135c0-1.139,0-2.327-.005-3.553q0-.919,0-1.864v-1.909c-.031.03.268-.268.143-.142l16.638.04h.1v.1c-.023,2.257-.042,4.092-.055,5.392q-.015.913-.025,1.446A4.2,4.2,0,0,1,1141.786,5252.1Z" fill="#e0e0e0"/><path d="M1060.471,5115.1a.848.848,0,0,1-.009-.133c0-.1-.005-.222-.009-.376q-.008-.516-.021-1.442c-.011-1.264-.027-3.083-.047-5.375l.086.086-27.693.055c.063-.063-.142.141.14-.141v.939c0,.313,0,.624,0,.935v1.848q0,1.835,0,3.6l-.138-.138,19.736.063,5.826.039,1.575.018.412.009a1.058,1.058,0,0,1,.146.009.644.644,0,0,1-.128.009l-.4.009-1.546.018-5.793.039-19.833.063h-.138v-.139q0-1.767,0-3.6,0-.916,0-1.848v-1.874c.283-.283.08-.078.143-.141l27.693.055h.086v.086c-.021,2.314-.037,4.15-.048,5.427q-.014.912-.02,1.422l-.01.361A.476.476,0,0,1,1060.471,5115.1Z" fill="#e0e0e0"/><path d="M1064.226,5107.776a.8.8,0,0,1-.011-.14c0-.105-.006-.232-.011-.388q-.009-.541-.025-1.469c-.013-1.285-.032-3.1-.055-5.33l.1.1-16.639.039c-.127.126.171-.172.14-.14v1.908q0,.945,0,1.865c0,1.226,0,2.414-.005,3.553l-.134-.135,11.9.064,3.468.037.935.017a2.881,2.881,0,0,1,.334.017,2.006,2.006,0,0,1-.3.016l-.907.017-3.437.037-11.994.064h-.134v-.135c0-1.139,0-2.327-.005-3.553q0-.92,0-1.865v-1.908c-.031.03.268-.268.142-.142l16.639.04h.1v.1c-.023,2.257-.041,4.092-.054,5.392q-.016.914-.026,1.446A4.049,4.049,0,0,1,1064.226,5107.776Z" fill="#e0e0e0"/><path d="M1076.7,5287.364a1.164,1.164,0,0,1-.008-.133l-.009-.376q-.008-.518-.021-1.442c-.011-1.265-.027-3.083-.047-5.376l.085.086-27.692.055c.062-.063-.143.141.139-.141v1.874q0,.932,0,1.849,0,1.835,0,3.6l-.138-.138,19.736.062,5.825.04,1.575.018.412.009a1.024,1.024,0,0,1,.146.009.562.562,0,0,1-.128.009l-.4.008-1.545.019-5.794.039L1049,5287.5h-.138v-.138q0-1.767,0-3.6,0-.918,0-1.849v-1.874c.282-.282.079-.078.143-.141l27.692.055h.087v.086c-.02,2.315-.036,4.15-.047,5.427q-.014.912-.021,1.423l-.009.36A.516.516,0,0,1,1076.7,5287.364Z" fill="#e0e0e0"/><path d="M1080.451,5280.037a.829.829,0,0,1-.01-.139l-.011-.389-.025-1.468c-.014-1.285-.032-3.1-.055-5.33l.1.1-16.638.04c-.127.126.17-.172.14-.141v1.909q0,.945,0,1.865c0,1.225,0,2.414-.005,3.552l-.134-.134,11.9.064,3.467.037.935.017a2.872,2.872,0,0,1,.334.016,1.944,1.944,0,0,1-.3.017l-.907.017-3.436.037-11.994.063h-.135v-.135c0-1.138,0-2.327-.005-3.552q0-.919,0-1.865v-1.909c-.03.03.268-.268.143-.141l16.638.039h.1v.1c-.023,2.257-.042,4.092-.055,5.391-.01.609-.019,1.092-.025,1.446A4.236,4.236,0,0,1,1080.451,5280.037Z" fill="#e0e0e0"/><path d="M1102.7,5074.649a.819.819,0,0,1-.009-.133l-.009-.376q-.008-.518-.021-1.442c-.011-1.265-.027-3.083-.047-5.376l.086.086-27.693.055c.062-.062-.142.141.139-.141v1.874q0,.932,0,1.849,0,1.835,0,3.6l-.138-.138,19.736.063,5.825.039,1.576.018.412.009a1.043,1.043,0,0,1,.146.009.67.67,0,0,1-.129.009l-.4.009-1.545.018-5.794.039-19.832.063h-.138v-.138q0-1.767,0-3.6,0-.916,0-1.849v-1.874c.282-.282.079-.078.143-.141l27.693.055h.086v.085c-.021,2.315-.037,4.15-.048,5.427-.009.608-.016,1.083-.021,1.423l-.009.361A.583.583,0,0,1,1102.7,5074.649Z" fill="#ffeed9"/><path d="M1148.7,5311.275c0,.082-60,.148-133.994.148-74.021,0-134.006-.066-134.006-.148s59.985-.148,134.006-.148C1088.7,5311.127,1148.7,5311.193,1148.7,5311.275Z" fill="#263238"/><path d="M1079.93,5137.527a10.758,10.758,0,0,1,10.435,4.745c3.829,5.907,14.63,20.645,14.63,20.645l13.586-8.954,5.759,6.836s-8.486,12.921-15.008,15.8-14.991-4.258-14.991-4.258l-8.658-10.044Z" fill="#ffbf9d"/><path d="M1095.142,5161.653c-.281.375-6.318,22.488-11.311,25.086-1.78.926-22.626-5.379-22.626-5.379s.844-6.843,1.125-6.937,16.825,1.031,16.825,1.031l6.563-18.543Z" fill="#c17560"/><path d="M1063.227,5174.426a28.4,28.4,0,0,0-2.331-3.808c-.708-.722-3.33-2.623-4-3.873a.877.877,0,0,0-.739,1.291,9.606,9.606,0,0,0,2.033,3.294c.623.572.15,1.02-.457.969s-4.608-1.134-4.608-1.134-4.349-1.945-4.907-1.647a.916.916,0,0,0-.247,1.363c.212.215,3.792,2.233,3.792,2.233l2.007.662s-6.419-1.642-6.99-1.271a.791.791,0,0,0-.22,1.207,13.964,13.964,0,0,0,3.06,1.031l3.753,1.216-7.322-1.093s-.706-.01-.811.565.646,1.067.646,1.067l7.449,1.829s-4.168-.821-4.429-.552c-.348.362-.3.74,0,.914a39.288,39.288,0,0,0,4.346,1.242l7.15,1.314,3.415.848,1.418-7.079Z" fill="#c17560"/><path d="M1066.573,5178.861a28.607,28.607,0,0,1,2.5-3.7c.741-.689,3.446-2.468,4.171-3.686a.877.877,0,0,1,.679,1.323,9.586,9.586,0,0,1-2.181,3.2c-.649.543-.2,1.012.412.989s4.655-.923,4.655-.923,4.433-1.745,4.977-1.422a.917.917,0,0,1,.185,1.374c-.222.205-3.89,2.057-3.89,2.057l-2.036.57s6.488-1.348,7.042-.951a.791.791,0,0,1,.164,1.216,13.952,13.952,0,0,1-3.1.89l-3.805,1.044,7.365-.758s.706.022.784.6-.694,1.037-.694,1.037l-7.524,1.487s4.2-.63,4.449-.349c.332.377.268.753-.044.913a39.559,39.559,0,0,1-4.4,1.042l-7.2.986-3.451.692-1.093-7.136Z" fill="#ffbf9d"/><path d="M1034.754,5180.325c.282.375,4.407,9.093,6,10.312s31.031-5.156,31.031-5.156-.843-6.844-1.125-6.938-26.156,2.157-26.156,2.157l-2.959-8.491Z" fill="#ffbf9d"/><path d="M1026.584,5161.078l-22.019-7.022-2.547,8.349s16.519,8.353,22.352,10.509c4.792,1.771,6.6,2.208,8.631.057,1.1-1.169,4.438-5.649,7.484-9.821l-8.387-8.578Z" fill="#ffbf9d"/><path d="M953.99,5141.232s-8.947,1.833-11.775,7.726c-3.046,6.345-13.632,19.136-13.632,19.136l-23.436-.614-3.222,6.123s15.3,8.753,22.355,9.8c9.44,1.4,14.957-5.882,14.957-5.882l8.659-10.044Z" fill="#f5f5f5"/><path d="M1025.908,5161.678a28.464,28.464,0,0,1,1.733-4.114c.592-.821,2.9-3.094,3.371-4.43,0,0,1.137-.081.924,1.165a9.6,9.6,0,0,1-1.515,3.562c-.53.659.005,1.032.6.89s4.386-1.814,4.386-1.814,4.007-2.576,4.6-2.366a.917.917,0,0,1,.45,1.311c-.177.245-3.414,2.777-3.414,2.777l-1.885.956s6.1-2.587,6.72-2.306a.791.791,0,0,1,.4,1.16,13.925,13.925,0,0,1-2.87,1.479l-3.529,1.766,7.076-2.181s.7-.115.886.437-.478,1.152-.478,1.152l-7.09,2.927s4-1.438,4.3-1.21c.4.305.409.686.135.9a39.333,39.333,0,0,1-4.111,1.881l-6.871,2.373-3.249,1.351-2.465-6.785Z" fill="#c17560"/><path d="M983.633,5140.441a11.745,11.745,0,0,1,10.538,5.188c3.828,5.906,12.859,19.852,12.859,19.852l17.806-3.755,3.816,7.349s-11.708,7.508-18.23,10.387-12.515-2.9-12.515-2.9l-8.419-10.912Z" fill="#f5f5f5"/><path d="M1001.349,5177.05c-.281.375-4.406,9.094-6,10.313s-21.673-4.246-21.673-4.246.817-6.629,1.1-6.722,16.825,1.03,16.825,1.03l2.719-5.216Z" fill="#ffbf9d"/><path d="M974.986,5176.569a26.073,26.073,0,0,0-2.119-3.486c-.645-.663-3.035-2.408-3.642-3.552a.8.8,0,0,0-.679,1.177,8.77,8.77,0,0,0,1.848,3.017c.568.525.134.933-.42.885s-4.208-1.051-4.208-1.051-3.969-1.791-4.479-1.52a.838.838,0,0,0-.231,1.245c.193.2,3.459,2.052,3.459,2.052l1.832.611s-5.861-1.52-6.384-1.183a.723.723,0,0,0-.2,1.1,12.753,12.753,0,0,0,2.793.951l3.426,1.123-6.688-1.021s-.646-.011-.743.514.587.977.587.977l6.8,1.694s-3.807-.763-4.046-.518c-.32.33-.278.675,0,.835a35.944,35.944,0,0,0,3.969,1.148l6.53,1.223,3.118.785,1.317-6.464Z" fill="#ffbf9d"/><path d="M931.614,5162.678a9.322,9.322,0,0,1,9.042,4.113c3.318,5.118,12.677,17.889,12.677,17.889l11.774-7.759,4.99,5.923s-7.354,11.2-13.006,13.692-12.989-3.69-12.989-3.69l-7.5-8.7Z" fill="#ff3c00"/><path d="M965.752,5176.52a25.957,25.957,0,0,1,.611-4c.339-.853,1.864-3.365,1.984-4.645,0,0,.982-.324,1.071.82a8.71,8.71,0,0,1-.542,3.47c-.321.7.233.906.722.651s3.456-2.569,3.456-2.569,2.954-3.156,3.526-3.1a.831.831,0,0,1,.686,1.053c-.1.255-2.387,3.2-2.387,3.2l-1.447,1.259s4.793-3.63,5.4-3.52a.717.717,0,0,1,.608.932c-.065.359-2.2,1.938-2.2,1.938l-2.712,2.337,5.741-3.488s.587-.257.877.187-.165,1.12-.165,1.12l-5.589,4.148s3.2-2.152,3.511-2.018c.419.18.513.513.32.765a35.936,35.936,0,0,1-3.2,2.567l-5.518,3.612-2.559,1.91-3.674-5.422Z" fill="#ffbf9d"/><path d="M961.212,5124.629a46.861,46.861,0,0,1-2.809-7.6,16.388,16.388,0,0,1-.153-8.025c.1-.4,1.06-3.082,1.47-3.082.292,0-.216,2.467-.044,2.7a13.9,13.9,0,0,1,2.36,7.913,36.63,36.63,0,0,1-.824,8.088" fill="#263238"/><path d="M977.786,5138.036c-.169-1.9-.3-3.4-.282-3.406s6.454-1.308,6.237-7.81c-.1-3.141-.846-9.589-1.585-15.418a12.123,12.123,0,0,0-12.581-10.586l-.628.028c-6.743.7-9.913,6.825-9.022,13.547l2.366,23.61,5.122,5a6.123,6.123,0,0,0,10.373-4.967Z" fill="#c17560"/><path d="M977.5,5134.63a15.716,15.716,0,0,1-8.577-2.114s2.28,4.632,8.738,3.75Z" fill="#7c4236"/><path d="M979.555,5117.287a.929.929,0,0,1-.852.977.889.889,0,0,1-.995-.793.93.93,0,0,1,.851-.978A.89.89,0,0,1,979.555,5117.287Z" fill="#263238"/><path d="M980.889,5114.158c-.109.126-.836-.362-1.835-.314s-1.708.581-1.822.464c-.055-.052.052-.276.36-.523a2.555,2.555,0,0,1,1.452-.521,2.45,2.45,0,0,1,1.467.4C980.829,5113.887,980.943,5114.1,980.889,5114.158Z" fill="#263238"/><path d="M971.119,5117.734a.928.928,0,0,1-.852.977.887.887,0,0,1-1-.793.93.93,0,0,1,.851-.978A.891.891,0,0,1,971.119,5117.734Z" fill="#263238"/><path d="M971.607,5114.935c-.11.127-.837-.361-1.835-.313s-1.708.581-1.822.464c-.055-.052.051-.276.36-.522a2.548,2.548,0,0,1,1.452-.522,2.446,2.446,0,0,1,1.467.4C971.546,5114.665,971.661,5114.879,971.607,5114.935Z" fill="#263238"/><path d="M975.058,5122.52a6.623,6.623,0,0,1,1.609-.367c.254-.038.493-.1.528-.276a1.306,1.306,0,0,0-.205-.748l-.843-1.907a33.37,33.37,0,0,1-1.926-5,33.512,33.512,0,0,1,2.324,4.836q.425,1,.812,1.92a1.482,1.482,0,0,1,.178,1,.639.639,0,0,1-.4.392,1.68,1.68,0,0,1-.431.08A6.537,6.537,0,0,1,975.058,5122.52Z" fill="#263238"/><path d="M971.368,5111.575c-.132.257-1.106.007-2.288,0-1.181-.027-2.162.2-2.287-.063-.054-.125.141-.358.553-.573a3.979,3.979,0,0,1,3.485.046C971.237,5111.213,971.426,5111.452,971.368,5111.575Z" fill="#263238"/><path d="M980.433,5110.677c-.165.235-.864.031-1.692.058-.828,0-1.521.222-1.693-.008-.076-.112.024-.344.321-.573a2.455,2.455,0,0,1,2.727-.04C980.4,5110.334,980.506,5110.563,980.433,5110.677Z" fill="#263238"/><path d="M960.675,5119.179c-.113-.043-4.526-1.117-4.181,3.32s4.729,3.175,4.727,3.048S960.675,5119.179,960.675,5119.179Z" fill="#c17560"/><path d="M959.734,5123.971c-.02-.013-.073.06-.2.13a.772.772,0,0,1-.576.057,1.92,1.92,0,0,1-1.019-1.647,2.556,2.556,0,0,1,.13-1.123.9.9,0,0,1,.536-.639.4.4,0,0,1,.472.176c.07.12.048.211.072.216s.09-.081.04-.262a.5.5,0,0,0-.2-.264.586.586,0,0,0-.437-.08,1.087,1.087,0,0,0-.753.751,2.625,2.625,0,0,0-.172,1.257,2.014,2.014,0,0,0,1.276,1.829.831.831,0,0,0,.7-.173C959.735,5124.079,959.75,5123.978,959.734,5123.971Z" fill="#7c4236"/><path d="M978.65,5104.3c.683-.458-1.671-2.595-3.5-3.243-2.77-.978-6.9-1.37-9.3-.46a10.723,10.723,0,0,0-6.468,5.6,17.5,17.5,0,0,0-1.185,9.074,5.306,5.306,0,0,0,.859,2.654c.7.927,1.946,1.441,2.011,2.8a1.862,1.862,0,0,0,.578,1.313c.885.793,1.808-.1,2.193-.956a12.867,12.867,0,0,0,.667-5.9,13.038,13.038,0,0,0-.646-4.192c-.281-.72-.69-1.388-.931-2.123a2.675,2.675,0,0,1,.123-2.24,2.752,2.752,0,0,1,.328-.4,4.641,4.641,0,0,1,4.512-1.27c2.573.666,6.951,1.616,7.991.672a6.843,6.843,0,0,0,1.811-2.185Z" fill="#263238"/><path d="M976.639,5125.376c.032.072-.143.244-.508.369a2.65,2.65,0,0,1-2.74-.779c-.245-.3-.3-.537-.238-.582.144-.1.712.528,1.662.782C975.756,5125.45,976.569,5125.216,976.639,5125.376Z" fill="#263238"/><path d="M982.72,5293.5l-.315,11.329s11.942,4.079,12.1,6.178l-23,.264-.267-17.669Z" fill="#263238"/><path d="M975.282,5303.962a.849.849,0,1,0,.424,1.644.855.855,0,1,0-.509-1.616" fill="#e0e0e0"/><path d="M971.5,5311.275l.046-1.782,22.039.413s1.028.414.919,1.105Z" fill="#455a64"/><path d="M982.777,5304.716c0,.108-.564.163-1.114.514s-.839.807-.943.765c-.1-.019.058-.663.731-1.078S982.8,5304.618,982.777,5304.716Z" fill="#fff"/><path d="M985.2,5305.642c.026.1-.458.292-.835.751s-.483.94-.6.936c-.1.018-.189-.609.291-1.171S985.2,5305.54,985.2,5305.642Z" fill="#fff"/><path d="M986.6,5308.387c-.1.023-.263-.511.019-1.1s.806-.831.855-.743c.064.088-.274.407-.5.9S986.708,5308.375,986.6,5308.387Z" fill="#fff"/><path d="M982.549,5302.128c-.046.1-.563-.044-1.2,0s-1.127.246-1.187.154c-.066-.076.413-.479,1.161-.526S982.6,5302.043,982.549,5302.128Z" fill="#fff"/><path d="M954.85,5293.21l-.842,13.689,2.6,11a1.416,1.416,0,0,1-1.209,1.7h0a1.505,1.505,0,0,1-1.277-.4c-2.112-2.075-9.843-9.745-9.723-10.743.14-1.157-.114-14.493-.114-14.493Z" fill="#263238"/><path d="M955.4,5319.6l-10.965-12.072-.022.581a2.049,2.049,0,0,0,.473,1.387c.872,1.051,3.346,3.9,9.194,9.7a1.507,1.507,0,0,0,1.32.405Z" fill="#455a64"/><g opacity="0.6"><path d="M947.542,5303.2a.823.823,0,0,1,.2,1.117.882.882,0,0,1-1.158.2.87.87,0,0,1-.207-1.184.917.917,0,0,1,1.229-.084" fill="#fff"/></g><path d="M952.347,5313.51a4.45,4.45,0,0,1,1.3-1.025,4.685,4.685,0,0,1,1.662-.25c.014-.033-.164-.145-.5-.2a2.387,2.387,0,0,0-1.294.176,2.285,2.285,0,0,0-.995.81C952.342,5313.3,952.312,5313.5,952.347,5313.51Z" fill="#fff"/><path d="M953.3,5315.378a12.06,12.06,0,0,1,1.292-.549A12.389,12.389,0,0,1,956,5314.7a1.685,1.685,0,0,0-1.486-.163C953.659,5314.747,953.226,5315.338,953.3,5315.378Z" fill="#fff"/><path d="M950.535,5311.1a14.925,14.925,0,0,1,1.934-.975,15.5,15.5,0,0,1,2.145-.407,3.4,3.4,0,0,0-2.249.123A3.25,3.25,0,0,0,950.535,5311.1Z" fill="#fff"/><path d="M950.427,5306.918c.035.083.839-.208,1.871-.211s1.84.26,1.874.176a3.792,3.792,0,0,0-3.745.035Z" fill="#fff"/><path d="M950.568,5302.894a4.862,4.862,0,0,1,3.825.247c.025-.027-.125-.2-.449-.4a3.224,3.224,0,0,0-1.412-.42,3.3,3.3,0,0,0-1.461.233C950.723,5302.707,950.548,5302.863,950.568,5302.894Z" fill="#fff"/><path d="M952.513,5301.858a1.128,1.128,0,0,0,.039-.517,3.463,3.463,0,0,0-.38-1.371,1.608,1.608,0,0,0-.688-.786.613.613,0,0,0-.67.1.9.9,0,0,0-.25.611,2.01,2.01,0,0,0,1.751,1.894,2.452,2.452,0,0,0,2.411-1.129.769.769,0,0,0,.064-.663.584.584,0,0,0-.595-.312,2.1,2.1,0,0,0-.962.439,4.11,4.11,0,0,0-1.018,1.034,1.206,1.206,0,0,0-.238.466,6.557,6.557,0,0,1,1.385-1.326,1.967,1.967,0,0,1,.848-.364.313.313,0,0,1,.326.169.53.53,0,0,1-.069.433,2.192,2.192,0,0,1-2.1.956,1.749,1.749,0,0,1-1.511-1.587.653.653,0,0,1,.156-.434.331.331,0,0,1,.369-.063,1.455,1.455,0,0,1,.595.655A5.13,5.13,0,0,1,952.513,5301.858Z" fill="#fff"/><path d="M988.049,5202.268a41.4,41.4,0,0,1,1.916,13.569c-.086,2.912-6.553,83.7-6.553,83.7l-14.888.847-.1-75.574-1.206.3s-6.3,32.593-6.666,37.833c-.33,4.71-5.251,39.07-5.251,39.07l-13.6.914,1.791-45.181,2.606-43.4,1.189-12.658Z" fill="#455a64"/><path d="M967.6,5217.242a2.756,2.756,0,0,0,.588.294,6.929,6.929,0,0,0,1.733.522,3.789,3.789,0,0,0,1.277-.029,2.67,2.67,0,0,0,1.316-.65,2.994,2.994,0,0,0,.77-1.374,16.3,16.3,0,0,0,.324-1.6c.378-2.19.619-4.186.751-5.634.066-.724.106-1.311.126-1.717a.318.318,0,1,0-.114-.009c-.059.461-.132,1.032-.219,1.706-.184,1.439-.457,3.426-.833,5.609a5.1,5.1,0,0,1-1,2.838,2.982,2.982,0,0,1-2.375.665,8.1,8.1,0,0,1-1.717-.427A3.267,3.267,0,0,0,967.6,5217.242Z" fill="#263238"/><path d="M971.468,5206.889c.005-.012-.091-.066-.287-.072a1.286,1.286,0,0,0-.768.261,1.306,1.306,0,0,0-.554,1.038,1.244,1.244,0,0,0,.921,1.108,1.339,1.339,0,0,0,1.443-.34,1.27,1.27,0,0,0,.23-1.143,1.171,1.171,0,0,0-.439-.653c-.158-.109-.269-.122-.274-.11a1.48,1.48,0,0,1,.511.806,1.115,1.115,0,0,1-.236.935,1.076,1.076,0,0,1-1.139.24,1,1,0,0,1-.746-.852,1.139,1.139,0,0,1,.415-.877A1.618,1.618,0,0,1,971.468,5206.889Z" fill="#263238"/><path d="M987.155,5151.725l-2.388-11.4-6.353-.718-.749-3.338-3.386,3.206-13.166-6.155-1.213,4.925-11.592,5.131-.375,31.655-.063,13.132-1.507,13.4a8.73,8.73,0,0,0,.534,4.457l33.39.547a54.514,54.514,0,0,0,6.944-.784,3.5,3.5,0,0,0,2.917-3.187c.541-10.508.63-42.139.63-42.139Z" fill="#f5f5f5"/><path d="M980.994,5205.342a.542.542,0,0,0,.02-.16c.005-.129.012-.283.021-.471q.018-.669.049-1.812c.023-1.607.057-3.876.1-6.664.043-5.628.08-13.407-.261-22-.179-4.295-.444-8.389-.965-12.088-.537-3.694-1.272-6.972-1.927-9.709s-1.263-4.933-1.68-6.45q-.31-1.1-.493-1.743l-.137-.45a.588.588,0,0,0-.058-.151.536.536,0,0,0,.024.16l.1.46q.159.65.43,1.76c.376,1.528.938,3.734,1.57,6.473s1.332,6.018,1.849,9.7c.5,3.679.756,7.766.934,12.055.342,8.578.344,16.354.364,21.981.005,2.789.009,5.058.012,6.666q.012,1.143.018,1.812l.013.472A.574.574,0,0,0,980.994,5205.342Z" fill="#263238"/><path d="M971.06,5157.25a5.651,5.651,0,0,0-.765.045l-2.231.2-8.125.8-.154.016.017.155c.391,3.723.86,8.177,1.366,12.988l.009.086.071.049c.389.264.809.532,1.241.795a24.154,24.154,0,0,0,2.328,1.259,6.747,6.747,0,0,0,2.505.725,4.947,4.947,0,0,0,2.445-.643,10.727,10.727,0,0,0,1.951-1.39c.292-.256.573-.516.84-.782a1.674,1.674,0,0,0,.373-.478,2.5,2.5,0,0,0,.2-.553,8.372,8.372,0,0,0,.137-2.154,31.013,31.013,0,0,0-.456-3.791c-.4-2.3-.858-4.125-1.182-5.384-.164-.63-.3-1.116-.4-1.445a2.542,2.542,0,0,0-.171-.494,3.007,3.007,0,0,0,.1.514q.126.553.331,1.459c.279,1.268.693,3.1,1.061,5.394a31.984,31.984,0,0,1,.407,3.759,8.168,8.168,0,0,1-.146,2.062,1.592,1.592,0,0,1-.489.868c-.265.261-.543.514-.83.763a10.5,10.5,0,0,1-1.893,1.335,4.594,4.594,0,0,1-2.265.591,6.437,6.437,0,0,1-2.359-.7,24.042,24.042,0,0,1-2.29-1.241c-.425-.259-.845-.526-1.223-.783l.08.135c-.53-4.809-1.021-9.26-1.431-12.981l-.138.171,8.021-.942,2.253-.284.6-.083A1.231,1.231,0,0,0,971.06,5157.25Z" fill="#263238"/><path d="M966.366,5135.962a33.254,33.254,0,0,0-5.34-2.295l-1.017,5.185,14.416,6.712-.012-6.044S970.138,5137.834,966.366,5135.962Z" fill="#f5f5f5"/><path d="M960.142,5161.819a92.867,92.867,0,0,0,11.745-1.266,92.812,92.812,0,0,0-11.745,1.266Z" fill="#263238"/><g opacity="0.3"><path d="M972.761,5171.042a17.856,17.856,0,0,1-2,3.411,5.138,5.138,0,0,1-3.171,1.7,5.276,5.276,0,0,1-3.079-.818,8.071,8.071,0,0,1-3.16-3.9c-.1-.115,2.152,1.292,3.369,1.894a5.408,5.408,0,0,0,3.41.627c1.77-.2,3.317-1.705,4.628-2.909"/></g><g opacity="0.3"><path d="M974.407,5140.159l1.184,7.367-14.152-8.186,12.985,6.223Z"/></g><path d="M977.1,5147.211a207.518,207.518,0,0,1,5.617,30.607c.755,7.167,1.438,16.675,1.438,16.675l-3.086,4.062-5.039-4.2s-.383-20.23-.84-26.992c-.376-5.564.083-19.8.083-19.8Z" fill="#ff3c00"/><path d="M974.453,5142.372l1.173-.742,1.322,2.224.152,3.357-1.827.35-.815-1.942Z" fill="#ff3c00"/><path d="M974.279,5139.472c-.024.017.284.46.753,1.194s1.088,1.763,1.687,2.947l.142.284.093.186.084-.19a23.587,23.587,0,0,0,1.088-3.012c.11-.391.188-.709.235-.93a1.207,1.207,0,0,0,.053-.347c-.027-.007-.164.47-.417,1.238s-.63,1.825-1.138,2.972l.177,0-.143-.286a24.856,24.856,0,0,0-1.746-2.935c-.25-.359-.462-.642-.615-.833A1.4,1.4,0,0,0,974.279,5139.472Z" fill="#263238"/><path d="M959.9,5138.583a.981.981,0,0,0,.2.11l.579.281,2.131,1.026c1.8.868,4.261,2.109,6.991,3.466,1.662.823,3.236,1.586,4.605,2.22l.126.059,0-.138c-.034-1.75-.063-3.224-.084-4.29l-.038-1.208a2.42,2.42,0,0,0-.033-.429,2.723,2.723,0,0,0-.022.429c0,.3-.006.709-.01,1.209,0,1.067.008,2.541.014,4.291l.123-.079c-1.361-.648-2.929-1.416-4.591-2.24-2.729-1.356-5.2-2.578-7.019-3.415-.907-.421-1.645-.749-2.159-.97l-.594-.248A.963.963,0,0,0,959.9,5138.583Z" fill="#263238"/><path d="M975.606,5147.943c.03.045.345-.114.7-.355s.624-.473.594-.518-.345.114-.7.355S975.576,5147.9,975.606,5147.943Z" fill="#263238"/><path d="M975.277,5146.932a18.662,18.662,0,0,0,1.426-3.525,18.456,18.456,0,0,0-1.426,3.525Z" fill="#263238"/><path d="M991.023,5149.477a1.258,1.258,0,0,1,.038.325c.012.248.027.556.045.932.035.81.061,1.982.077,3.431.032,2.9-.026,6.9-.143,11.319s-.21,8.418-.234,11.313c-.009,1.413-.017,2.574-.023,3.429-.005.375-.01.684-.013.932a1.3,1.3,0,0,1-.026.326,1.277,1.277,0,0,1-.037-.324c-.012-.249-.027-.557-.046-.932-.035-.81-.061-1.982-.076-3.431-.033-2.9.025-6.9.142-11.321s.21-8.416.234-11.311c.01-1.414.017-2.574.023-3.429l.013-.933A1.372,1.372,0,0,1,991.023,5149.477Z" fill="#263238"/><path d="M957.914,5114.267l6.559-1a13.815,13.815,0,0,0-.318-1.649c-.156-.461-6.335.779-6.335.779S957.9,5114.036,957.914,5114.267Z" fill="#f5f5f5"/><path d="M945.211,5153.631c.08-.017.8,3.15,1.6,7.073s1.394,7.117,1.314,7.134-.8-3.15-1.6-7.074S945.131,5153.647,945.211,5153.631Z" fill="#263238"/><path d="M1083.81,5164.548l-.034-.162Z" fill="#455a64"/><path d="M1083.819,5164.587Z" fill="#455a64"/><path d="M1083.81,5164.548l.009.039Z" fill="#455a64"/><path d="M909.694,5291.311l-3.238,17.321,8.084.993,5.06-16.5Z" fill="#ffbf9d"/><path d="M915.45,5306.429s-6.368,2.789-8.432-1.1l-1.027,1.49-5.446,10.977a1.574,1.574,0,0,0,.537,2.036,1.6,1.6,0,0,0,1.693.013c2.724-1.691,12.716-7.959,12.842-9.048l.521-2.854a1.474,1.474,0,0,0-.688-1.516Z" fill="#455a64"/><g opacity="0.6"><path d="M901.342,5319.966l14.472-10.157-.124.622c-.07.686-.425.893-.837,1.261-1.223,1.091-4.477,3.429-12.033,8.165a1.6,1.6,0,0,1-1.478.109Z" fill="#fff"/></g><g opacity="0.6"><path d="M914.41,5307.614a.912.912,0,0,0-.492,1.137.931.931,0,0,0,1.156.5.885.885,0,1,0-.746-1.594" fill="#fff"/></g><path d="M906.058,5314.24a4.784,4.784,0,0,0-1.094-1.4,4.927,4.927,0,0,0-1.67-.667c-.006-.039.207-.115.569-.093a2.507,2.507,0,0,1,1.3.5,2.42,2.42,0,0,1,.834,1.1C906.117,5314.014,906.1,5314.235,906.058,5314.24Z" fill="#263238"/><path d="M904.595,5315.991c-.085.049-.473-.523-1.209-.9a13.072,13.072,0,0,0-1.434-.477,1.784,1.784,0,0,1,1.59.187C904.378,5315.235,904.681,5315.967,904.595,5315.991Z" fill="#263238"/><path d="M908.554,5312.119a15.641,15.641,0,0,0-1.77-1.5,16.214,16.214,0,0,0-2.134-.951,3.578,3.578,0,0,1,2.314.675A3.453,3.453,0,0,1,908.554,5312.119Z" fill="#263238"/><path d="M909.508,5308.64c-.058.08-.822-.423-1.9-.676s-1.983-.17-2-.267a3.994,3.994,0,0,1,3.9.943Z" fill="#263238"/><path d="M907,5307.812a1.243,1.243,0,0,1,.191-.533,3.9,3.9,0,0,1,.982-1.208,1.781,1.781,0,0,1,1.025-.494.64.64,0,0,1,.612.386.981.981,0,0,1-.026.716,2.218,2.218,0,0,1-2.561,1.153,2.565,2.565,0,0,1-1.868-2.142.853.853,0,0,1,.231-.689.631.631,0,0,1,.723-.061,2.2,2.2,0,0,1,.751.844,4.324,4.324,0,0,1,.541,1.46,1.283,1.283,0,0,1,.027.565,6.915,6.915,0,0,0-.772-1.907,2.062,2.062,0,0,0-.672-.72.338.338,0,0,0-.4.031.589.589,0,0,0-.124.462,2.292,2.292,0,0,0,1.641,1.839,1.928,1.928,0,0,0,2.189-.948.715.715,0,0,0,.04-.5.349.349,0,0,0-.335-.218,1.621,1.621,0,0,0-.876.4A5.748,5.748,0,0,0,907,5307.812Z" fill="#263238"/><path d="M924.14,5290.032l3.238,17.321-8.084.993-5.06-16.5Z" fill="#ffbf9d"/><path d="M918.383,5305.15s6.368,2.789,8.433-1.1l1.026,1.49,5.446,10.977a1.572,1.572,0,0,1-.536,2.036,1.6,1.6,0,0,1-1.693.013c-2.725-1.691-12.716-7.959-12.842-9.048l-.521-2.854a1.476,1.476,0,0,1,.687-1.516Z" fill="#455a64"/><g opacity="0.6"><path d="M932.492,5318.687,918.02,5308.53l.123.622c.071.686.425.894.838,1.261,1.223,1.091,4.476,3.429,12.033,8.165a1.6,1.6,0,0,0,1.478.109Z" fill="#fff"/></g><g opacity="0.6"><path d="M919.424,5306.335a.91.91,0,0,1,.491,1.137.929.929,0,0,1-1.155.5.884.884,0,1,1,.745-1.594" fill="#fff"/></g><path d="M927.776,5312.961a4.739,4.739,0,0,1,1.094-1.4,4.9,4.9,0,0,1,1.67-.667c.006-.039-.208-.115-.57-.093a2.51,2.51,0,0,0-1.3.5,2.43,2.43,0,0,0-.833,1.1C927.717,5312.735,927.736,5312.956,927.776,5312.961Z" fill="#263238"/><path d="M929.239,5314.712c.084.05.473-.523,1.209-.9a13.494,13.494,0,0,1,1.434-.477,1.788,1.788,0,0,0-1.59.187C929.455,5313.956,929.153,5314.689,929.239,5314.712Z" fill="#263238"/><path d="M925.279,5310.84a15.819,15.819,0,0,1,1.771-1.5,16.379,16.379,0,0,1,2.133-.951,3.578,3.578,0,0,0-2.314.675A3.46,3.46,0,0,0,925.279,5310.84Z" fill="#263238"/><path d="M924.325,5307.362c.058.08.823-.424,1.9-.677s1.984-.17,2-.267a4,4,0,0,0-3.9.944Z" fill="#263238"/><path d="M926.834,5306.533a1.259,1.259,0,0,0-.191-.533,3.885,3.885,0,0,0-.983-1.208,1.784,1.784,0,0,0-1.024-.494.641.641,0,0,0-.612.386.98.98,0,0,0,.026.716,2.218,2.218,0,0,0,2.561,1.153,2.567,2.567,0,0,0,1.868-2.142.854.854,0,0,0-.232-.689.629.629,0,0,0-.723-.061,2.188,2.188,0,0,0-.75.844,4.358,4.358,0,0,0-.542,1.46,1.323,1.323,0,0,0-.027.565,6.958,6.958,0,0,1,.772-1.907,2.046,2.046,0,0,1,.673-.719.336.336,0,0,1,.394.03.584.584,0,0,1,.125.462,2.292,2.292,0,0,1-1.641,1.839,1.927,1.927,0,0,1-2.189-.948.71.71,0,0,1-.04-.5.344.344,0,0,1,.335-.217,1.611,1.611,0,0,1,.875.4A5.749,5.749,0,0,1,926.834,5306.533Z" fill="#263238"/><path d="M905.557,5167.544l-3.632,1.655s3.215-20.049,3.992-25.068c1.25-8.072,4.686-17.3,16.228-16.358,0,0,8.7.68,11.2,6.989,1.356,3.416,1.448,12.579,1.682,23.1l.2,1.807c1.043,4.561,1.179,7.788,2.479,12.274,1.692,5.837,1.692,17.2.56,23.9l-9.7.941Z" fill="#263238"/><path d="M923.568,5130.526l-.737-.717-8.076,3.158a2.246,2.246,0,0,0-2.142,2.152l-.2,26.205a7.35,7.35,0,0,0,1.37,4.747l1.114,1.5a5.933,5.933,0,0,0,9.919-.524,2.853,2.853,0,0,0,.291-.675,5.2,5.2,0,0,0,.126-.584c.261-2.106.294-3.934.294-3.934.167-2.313.224-3.263.224-3.241,0,0,4.932-.515,6.329-6.824.7-3.138.615-7.466.473-11.725C932.355,5134.172,928.3,5130.57,923.568,5130.526Z" fill="#ffbf9d"/><path d="M922.126,5144.163a.818.818,0,0,1-.838.777.783.783,0,0,1-.8-.788.819.819,0,0,1,.836-.777A.784.784,0,0,1,922.126,5144.163Z" fill="#263238"/><path d="M930.3,5144.248a.818.818,0,0,1-.838.776.782.782,0,0,1-.8-.787.818.818,0,0,1,.836-.777A.783.783,0,0,1,930.3,5144.248Z" fill="#263238"/><path d="M931.693,5141.742c-.108.1-.7-.4-1.578-.446s-1.551.35-1.639.237c-.044-.051.071-.237.364-.425a2.246,2.246,0,0,1,1.32-.321,2.168,2.168,0,0,1,1.248.488C931.666,5141.5,931.746,5141.7,931.693,5141.742Z" fill="#263238"/><path d="M922.766,5141.741c-.118.089-.656-.465-1.525-.606s-1.578.189-1.655.067c-.038-.055.094-.228.406-.384a2.24,2.24,0,0,1,1.346-.184,2.158,2.158,0,0,1,1.192.613C922.763,5141.5,922.822,5141.7,922.766,5141.741Z" fill="#263238"/><path d="M925.772,5148.176a5.859,5.859,0,0,1,1.444-.172c.226-.009.441-.041.488-.192a1.139,1.139,0,0,0-.109-.674q-.268-.834-.561-1.75a29.506,29.506,0,0,1-1.221-4.561,29.285,29.285,0,0,1,1.585,4.452q.279.921.532,1.758a1.3,1.3,0,0,1,.063.889.56.56,0,0,1-.389.305,1.485,1.485,0,0,1-.384.03A5.762,5.762,0,0,1,925.772,5148.176Z" fill="#263238"/><path d="M925.75,5158.616a16.242,16.242,0,0,1-8.394-2.792s1.879,4.54,8.291,4.329Z" fill="#ff9a6c"/><path d="M925.272,5150.272a1.586,1.586,0,0,0-1.384-.674,1.445,1.445,0,0,0-1.031.475.918.918,0,0,0-.133,1.044,1.066,1.066,0,0,0,1.135.361,3.344,3.344,0,0,0,1.164-.6.956.956,0,0,0,.266-.245.293.293,0,0,0,.019-.327" fill="#ff9a6c"/><path d="M923.148,5148.627c.144,0,.088.955.864,1.682s1.8.683,1.8.817c.01.061-.238.172-.668.157a2.375,2.375,0,0,1-1.5-.628,2.069,2.069,0,0,1-.663-1.406C922.963,5148.848,923.083,5148.618,923.148,5148.627Z" fill="#263238"/><path d="M923.643,5138.321c-.124.222-.974-.032-2.013-.077-1.04-.065-1.911.1-2.011-.135-.044-.111.136-.31.506-.485a3.5,3.5,0,0,1,3.066.162C923.54,5138,923.7,5138.215,923.643,5138.321Z" fill="#263238"/><path d="M931.6,5137.962c-.166.19-.759-.054-1.487-.108-.726-.079-1.353.053-1.482-.165-.057-.1.053-.3.334-.472a2.162,2.162,0,0,1,2.393.22C931.608,5137.658,931.68,5137.868,931.6,5137.962Z" fill="#263238"/><path d="M912.658,5146.3s4.49,1.448,7.155-9.644c.911-3.793,4.467-6.836,4.467-6.836l-1.425-.444s-8.91,2.411-9.06,2.521-2.289,4.572-2.289,4.572Z" fill="#263238"/><path d="M898.72,5235.653l11.288,50.1,6.349,18.927,9.98-2.818-4.926-65.744Z" fill="#263238"/><path d="M906.468,5199.329s-6.421,15.619-7.054,20.851-1.45,15.434-1.45,15.434l41.048,1.044s1.87-7.826,0-22.667a49.737,49.737,0,0,0-4.132-13.737c-.421-1.208,2.617-22.034,2.617-22.034l-.327-12.808-4.7-2.814H925.7c-3.728,4.609-8.433,2.358-13.338-.2-1.87-.974-9.109,4.328-9.109,4.328a146.559,146.559,0,0,0,1.015,18.437C905.317,5192.127,906.468,5199.329,906.468,5199.329Z" fill="#ff3c00"/><path d="M894.714,5222.709a3.874,3.874,0,0,0,1.072,2.292,9.258,9.258,0,0,1,1.456,3.152s.771,4.366.952,5.781.186,2.71-.937,2.444-1.457-1.124-1.636-3.722l-.649-1.376-.614,1.048-.153,4.163s2.8,2.75,2.6,3.531-.738.649-.738.649l-.466.434-4.31-3.144-1.544-5.521.551-7.078.062-5.513,4.637-.556Z" fill="#ffbf9d"/><path d="M906.181,5165.058s-8.055,2.592-9.149,7.427S894.33,5192,894,5194.017s-1.827,5.261-2.784,11.275c-1.108,6.968-2.113,16.546-2.113,16.546l6.371.428s3.466-8.352,5.273-14.807c1.763-6.3,2.653-8.672,3.543-12.068a44.155,44.155,0,0,0,1.389-9.464Z" fill="#ff3c00"/><path d="M902.442,5171.1s1.054-1.008.49-1.518-2.659-.567-2.659-.567,2.1-.888,2.275-2.144-.4-1.624-.8-1.423-1.5,1.378-2.324,1.893a18.462,18.462,0,0,0-2.148,1.8,1.226,1.226,0,0,0-.234,1.855s-1.567,1.243-.726,2.134c0,0-1.319.813-.749,1.872l.39.709s-1.167.68.064,2.06l2-1.939s1.826.006,1.994-.741a4,4,0,0,0,.109-1.24s2.234-.375,2.489-1.166A2.245,2.245,0,0,0,902.442,5171.1Z" fill="#c17560"/><path d="M895.431,5188.443c.1.167.217.33.339.489C895.526,5188.937,895.407,5188.673,895.431,5188.443Z" fill="#263238"/><path d="M915.677,5177.3c.85-3.2,2.153-6.356,2.086-9.665-.063-3.175-1.382-6.167-2.4-9.177s-1.727-6.347-.6-9.314a36.942,36.942,0,0,1,2.561-4.493c.834-1.512,7.024-13.22,6.408-14.833l-16.272,7.382c-1.884,10.28-2.851,27.141-2.05,36.4.246,2.84,2.364,16.035,3.819,18.486.432.727,4.521,1.573,4.521,1.573s.269-2.622.3-2.435a31.451,31.451,0,0,0,.865,3.515c1.155.987,2.927,2.263,4.163,2.054C917.3,5194.013,914.827,5180.5,915.677,5177.3Z" fill="#263238"/><path d="M917.63,5236.114c-.536,2.5-5.007,20.673-4.758,27.709s-3.493,26.6-3.983,29.5c-.621,3.681-1.659,11.16-1.659,11.16l8.584.981s10.75-26.666,11.746-34.27,2.24-12.142,3.983-15.093,7.469-19.448,7.469-19.448" fill="#263238"/><path d="M939.012,5236.658s-.032.123-.109.357l-.349,1.039-1.387,3.984c-.613,1.727-1.37,3.839-2.282,6.282-.457,1.221-.952,2.525-1.5,3.9q-.409,1.032-.874,2.111-.242.535-.492,1.085c-.185.358-.374.728-.575,1.079a22.7,22.7,0,0,0-1.875,4.77,53.7,53.7,0,0,0-1.206,5.453c-.168.951-.316,1.924-.459,2.913l-.205,1.5-.27,1.522c-.449,2.022-1.02,4.075-1.684,6.154-1.306,4.167-2.839,8.49-4.49,12.953s-3.424,9.067-5.3,13.766l-.042.1-.112-.013-2.517-.288-6.066-.694-.152-.017.022-.15q.535-3.6,1.057-7.1.261-1.748.517-3.467c.167-1.147.394-2.274.589-3.394.806-4.474,1.542-8.784,2.16-12.892.6-4.109,1.143-8.016,1.317-11.682.065-.919.015-1.808.036-2.7-.016-.893.068-1.762.122-2.614.168-1.7.372-3.323.624-4.861.992-6.157,2.116-11.051,2.879-14.425.394-1.677.7-2.978.911-3.872l.243-1c.055-.226.091-.34.091-.34s-.017.118-.063.346l-.216,1.01c-.2.9-.487,2.2-.859,3.883-.729,3.38-1.823,8.28-2.787,14.431-.245,1.537-.442,3.157-.6,4.85-.052.847-.132,1.712-.113,2.594-.019.877.035,1.8-.028,2.714-.164,3.686-.7,7.6-1.291,11.711-.611,4.113-1.341,8.427-2.142,12.9-.194,1.121-.419,2.246-.585,3.391s-.341,2.3-.514,3.464q-.518,3.5-1.052,7.1l-.13-.167,6.067.693,2.517.288-.155.091c1.879-4.694,3.65-9.3,5.307-13.755s3.192-8.777,4.5-12.933c.667-2.074,1.24-4.121,1.69-6.126q.137-.757.27-1.5.105-.757.209-1.5c.146-.991.3-1.965.469-2.919a53.255,53.255,0,0,1,1.228-5.473,22.766,22.766,0,0,1,1.911-4.808c.208-.361.39-.715.574-1.067q.251-.545.494-1.076.467-1.072.881-2.1c.555-1.37,1.057-2.671,1.521-3.888.926-2.437,1.7-4.542,2.327-6.263l1.439-3.965.376-1.029C938.961,5236.774,939.012,5236.658,939.012,5236.658Z" fill="#455a64"/><path d="M935.593,5170.235a2.169,2.169,0,0,1,.208.543c.117.354.263.874.422,1.522a32.253,32.253,0,0,1,.766,10.362c-.061.664-.129,1.2-.193,1.568a2.2,2.2,0,0,1-.125.567c-.047-.006.04-.825.109-2.15a40.23,40.23,0,0,0-.762-10.3C935.754,5171.045,935.548,5170.248,935.593,5170.235Z" fill="#263238"/><path d="M902.513,5175.14a5.167,5.167,0,0,1,.148.865c.092.61.212,1.4.356,2.36.328,2.043.765,4.767,1.248,7.779.511,3.008.973,5.729,1.319,7.769.17.951.312,1.742.421,2.349a5.172,5.172,0,0,1,.138.867,4.788,4.788,0,0,1-.251-.842c-.134-.549-.313-1.346-.514-2.335-.4-1.978-.9-4.721-1.4-7.76s-.909-5.795-1.163-7.8c-.128-1-.215-1.814-.264-2.377A4.732,4.732,0,0,1,902.513,5175.14Z" fill="#263238"/><path d="M923.993,5201.518a8.356,8.356,0,0,1-1.6.361c-.995.18-2.377.394-3.909.58s-2.926.307-3.936.37a8.406,8.406,0,0,1-1.639.031,9.621,9.621,0,0,1,1.621-.24l3.918-.455,3.913-.493A9.576,9.576,0,0,1,923.993,5201.518Z" fill="#263238"/><path d="M929.447,5201.07c.032.075-3.087,1.438-6.964,3.044s-7.048,2.846-7.079,2.77,3.086-1.438,6.965-3.044S929.416,5200.994,929.447,5201.07Z" fill="#263238"/><path d="M1073.042,5136.528l.307-25.19c.28-6.264-3.131-11.648-9.4-11.755l-.58.024a11.208,11.208,0,0,0-10.74,10.758c-.213,5.431-.379,11.434-.223,14.336.323,6.008,6.374,6.695,6.374,6.695s.037,3.657.034,5.423l4.838,6.713v.358Z" fill="#ffbf9d"/><path d="M1058.78,5131.4a14.538,14.538,0,0,0,7.731-2.638s-1.7,4.6-7.717,4.3Z" fill="#ff9a6c"/><path d="M1055.083,5115.551a.86.86,0,0,0,.864.832.822.822,0,0,0,.853-.811.86.86,0,0,0-.863-.832A.823.823,0,0,0,1055.083,5115.551Z" fill="#263238"/><path d="M1054.017,5112.967c.111.108.741-.4,1.665-.436s1.62.4,1.716.281c.047-.052-.07-.25-.374-.453a2.356,2.356,0,0,0-1.379-.363,2.26,2.26,0,0,0-1.32.487C1054.05,5112.713,1053.962,5112.919,1054.017,5112.967Z" fill="#263238"/><path d="M1063.43,5115.551a.858.858,0,0,0,.863.832.821.821,0,0,0,.853-.811.859.859,0,0,0-.863-.832A.821.821,0,0,0,1063.43,5115.551Z" fill="#263238"/><path d="M1063.081,5112.807c.111.108.742-.4,1.666-.436s1.62.4,1.715.281c.047-.052-.069-.25-.374-.452a2.349,2.349,0,0,0-1.379-.364,2.269,2.269,0,0,0-1.32.487C1063.115,5112.553,1063.027,5112.759,1063.081,5112.807Z" fill="#263238"/><path d="M1060.06,5120.042a6.2,6.2,0,0,0-1.511-.209c-.237-.014-.462-.052-.509-.211a1.21,1.21,0,0,1,.129-.706q.3-.87.623-1.825a30.9,30.9,0,0,0,1.373-4.763,30.911,30.911,0,0,0-1.753,4.641q-.311.961-.593,1.835a1.362,1.362,0,0,0-.085.931.6.6,0,0,0,.4.329,1.6,1.6,0,0,0,.4.039A5.934,5.934,0,0,0,1060.06,5120.042Z" fill="#263238"/><path d="M1062.662,5109.93c.136.23,1.022-.054,2.112-.123,1.089-.09,2.007.063,2.108-.185.043-.118-.15-.323-.542-.5a3.681,3.681,0,0,0-3.214.235C1062.763,5109.589,1062.6,5109.82,1062.662,5109.93Z" fill="#263238"/><path d="M1053.862,5110.253c.2.2.945-.033,1.849-.067.9-.061,1.675.1,1.846-.128.074-.108-.052-.315-.392-.5a3.093,3.093,0,0,0-2.977.156C1053.874,5109.933,1053.775,5110.153,1053.862,5110.253Z" fill="#263238"/><path d="M1073.042,5115.809c.1-.048,4.08-1.392,4.118,2.723s-4.1,3.3-4.109,3.187S1073.042,5115.809,1073.042,5115.809Z" fill="#ffbf9d"/><path d="M1074.294,5120.148c.018-.013.072.05.194.1a.717.717,0,0,0,.536.006,1.774,1.774,0,0,0,.806-1.6,2.377,2.377,0,0,0-.211-1.025.83.83,0,0,0-.544-.545.364.364,0,0,0-.421.2c-.054.115-.028.2-.049.205s-.089-.069-.058-.239a.46.46,0,0,1,.16-.259.537.537,0,0,1,.4-.109,1.008,1.008,0,0,1,.755.631,2.437,2.437,0,0,1,.259,1.145,1.86,1.86,0,0,1-1.029,1.787.768.768,0,0,1-.656-.1C1074.3,5120.247,1074.28,5120.156,1074.294,5120.148Z" fill="#ff9a6c"/><path d="M1062.962,5120.614c-.142-.009-.148.936-.96,1.6s-1.817.558-1.825.69c-.013.059.224.185.649.2a2.352,2.352,0,0,0,1.523-.523,2.047,2.047,0,0,0,.744-1.344C1063.131,5120.844,1063.027,5120.609,1062.962,5120.614Z" fill="#263238"/><path d="M1044.323,5104.951a.98.98,0,0,1,.452-.575,3.01,3.01,0,0,1,1.536-.267,8.645,8.645,0,0,0,3.754-.988,4.286,4.286,0,0,1-1.115-.765,2.584,2.584,0,0,1-.773-2.56.577.577,0,0,1,.319-.4c.266-.085.5.175.692.381a2.224,2.224,0,0,0,2.1.863,3.656,3.656,0,0,0,1.559-.481c.018-.019.033-.039.051-.058.212-.223.418-.436.622-.643v0h0a13.612,13.612,0,0,1,4.215-3.2,13.98,13.98,0,0,1,7.457-.672,5.651,5.651,0,0,1,4.317,4.347,4.347,4.347,0,0,1,4.365-.46l.035-.016c1.6.55,2.525,2.223,3.013,3.843.027.089.05.179.076.268a6.317,6.317,0,0,0,2.168,2.07c.155.087.333.195.353.372s-.126.323-.268.428a3.2,3.2,0,0,1-1.284.55,7.3,7.3,0,0,0,.541,1.114c.184.3.4.665.248.983a.673.673,0,0,1-.7.315,1.971,1.971,0,0,1-.745-.327l.547,1.27a3.756,3.756,0,0,1-1.734-.1c-.322,1.524-.544,4.341-.924,5.375a6.276,6.276,0,0,0-1.907.1c-.71.245-.424,1.5-1.355,1.155-.475-.177-1.22-1.958-1.383-2.437a23.489,23.489,0,0,1-1.131-9.934,7.539,7.539,0,0,0-2.351-1.657l.072.063c-1.689-.565-3.6-1.118-5.186-.31-1.232.627-1.945,1.92-2.859,2.956a8.616,8.616,0,0,1-6.322,3.165c-.215,1.82-.251,4.791-.321,6.488l-1.486-3.377v.014c-.119-.2-.218-.4-.314-.6l-.032-.061v-.007a10.585,10.585,0,0,0-.488-.959l-.016.014a1.059,1.059,0,0,1-1.564-1.4,2.4,2.4,0,0,1,.506-.521,1.675,1.675,0,0,1-1.591.432,1.314,1.314,0,0,1-.945-1.289,1.122,1.122,0,0,1,.657-.905,3.769,3.769,0,0,1-2.153-.449C1044.606,5105.879,1044.185,5105.486,1044.323,5104.951Z" fill="#263238"/><path d="M1067.625,5100.649a5.26,5.26,0,0,1,.61.545,4.321,4.321,0,0,1,.947,1.99,7.654,7.654,0,0,1,.172,1.528c.008.555-.029,1.149-.065,1.776a16.13,16.13,0,0,0-.023,1.975,7.033,7.033,0,0,0,.148,1.041,2.166,2.166,0,0,0,.437,1,.908.908,0,0,0,.853.276,1.357,1.357,0,0,0,.76-.44,3.124,3.124,0,0,0,.562-1.538l-.126.016a5.079,5.079,0,0,0,.747,1.254,1.8,1.8,0,0,0,1.179.624,1.167,1.167,0,0,0,.62-.115,1,1,0,0,0,.417-.421,1.037,1.037,0,0,0,.122-.535.746.746,0,0,0-.2-.466l-.063.057a3.863,3.863,0,0,0,1.3.956,3.587,3.587,0,0,0,.4.152.755.755,0,0,0,.144.034.6.6,0,0,0-.136-.057c-.09-.036-.224-.088-.391-.17a4.011,4.011,0,0,1-1.26-.971l-.063.058a.772.772,0,0,1,.05.894.894.894,0,0,1-.377.372,1.036,1.036,0,0,1-.562.1,1.679,1.679,0,0,1-1.094-.594,4.976,4.976,0,0,1-.72-1.226l-.089-.192-.037.209a3.017,3.017,0,0,1-.536,1.469,1.213,1.213,0,0,1-.68.394.765.765,0,0,1-.725-.234,2.039,2.039,0,0,1-.4-.941,6.892,6.892,0,0,1-.147-1.018,16.127,16.127,0,0,1,.015-1.959c.031-.627.065-1.224.051-1.785a7.527,7.527,0,0,0-.191-1.549,4.266,4.266,0,0,0-1-2A2.446,2.446,0,0,0,1067.625,5100.649Z" fill="#455a64"/><path d="M1049.06,5106.721a.3.3,0,0,0,.049.04l.152.108a1.913,1.913,0,0,0,.257.161,3.358,3.358,0,0,0,.368.189,5.35,5.35,0,0,0,2.583.434,6.831,6.831,0,0,0,3.62-1.383,11.833,11.833,0,0,0,3.082-3.635c.429-.734.778-1.486,1.164-2.181a7.992,7.992,0,0,1,1.324-1.849,4.117,4.117,0,0,1,1.724-1.073,2.961,2.961,0,0,1,.914-.116,3.272,3.272,0,0,1,.839.152,3.486,3.486,0,0,1,1.954,1.615,4.065,4.065,0,0,1,.321.9.18.18,0,0,0-.005-.063l-.031-.184a3,3,0,0,0-.236-.678,3.421,3.421,0,0,0-.685-.906,3.518,3.518,0,0,0-1.286-.779,3.375,3.375,0,0,0-.867-.165,3.047,3.047,0,0,0-.951.112,4.223,4.223,0,0,0-1.782,1.093,8.026,8.026,0,0,0-1.354,1.874c-.391.7-.739,1.45-1.165,2.177a11.809,11.809,0,0,1-3.038,3.6,6.785,6.785,0,0,1-3.549,1.389,5.424,5.424,0,0,1-2.554-.386A8.656,8.656,0,0,1,1049.06,5106.721Z" fill="#455a64"/><path d="M1048.482,5104.08a.917.917,0,0,0,.218.148,4.6,4.6,0,0,0,.643.318,6.238,6.238,0,0,0,1.017.321,7.072,7.072,0,0,0,1.3.157,7.219,7.219,0,0,0,1.3-.1,6.187,6.187,0,0,0,1.029-.279,4.729,4.729,0,0,0,.655-.291.884.884,0,0,0,.224-.139c-.012-.023-.343.152-.912.336a7.083,7.083,0,0,1-1.018.245,7.054,7.054,0,0,1-2.55-.053,7.141,7.141,0,0,1-1.008-.287C1048.818,5104.246,1048.495,5104.057,1048.482,5104.08Z" fill="#455a64"/><path d="M1100.662,5158.72s-6.178-11.141-8.768-15.578a12.765,12.765,0,0,0-6.052-5.315c-3.633-1.907-11.931-4.523-12.568-4.722l-.042-.013s-2.914,4.727-8.422,4.606c-4.3-.094-6.058-2.676-6.37-3.2-.035-.059-.057-.1-.057-.1l-13.7,4.2c-1.552.543-13.267,15.272-13.267,15.272l.686.7,8.387,8.578,2.14,2.19-.081,5.837-1.277,22.277s.144.178-.632,2.118-1.109,9.057-1.109,9.057l.18.054a37.965,37.965,0,0,0,4.459,1.1c.12.022.24.047.36.068a47.9,47.9,0,0,0,12.215.45l.27-.023a132.646,132.646,0,0,0,25.866-5.428l-.787-4.1a9.231,9.231,0,0,0-1.166-3.641l.713-12.065,1.716-18.656-.006-.028c.169.794.321,1.507.43,2.02Z" fill="#455a64"/><path d="M1088.821,5305.472l-2.26-47.939-3.112-47.061-1.268-9.82c-8.5,2.563-16.954,4.923-25.171,5.63l-.27.023a48.092,48.092,0,0,1-11.972-.412,50.9,50.9,0,0,1-5.062-1.21c-.181,1.332-.329,3.154-.4,4.773l-.016.006c-.044,1.112-.051,2.272-.005,3.467.119,3.158,7.538,90.719,7.538,90.719l3.125.133-.036-.94c-.035,0-.063-.013-.072-.032s.01-.064.067-.112l-.348-9.227,11.894-.053-.036,10.85.409.018-.746-82.032,1.218.307s6.709,35.258,7.138,40.938c.385,5.106,5.727,42.308,5.727,42.308l1.573-.038-.04-.886c-.089.038-.145.057-.158.038s.041-.094.151-.192l-.089-2a2.328,2.328,0,0,1-.367-.492.865.865,0,0,1-.057-.719.55.55,0,0,1,.357-.3l-.315-7.058,10.926.941s-.146,5.811-.266,10.422Z" fill="#263238"/><path d="M1050.01,5305.51a1.879,1.879,0,0,1,1,.305c.7.439.877,1.134.769,1.157-.107.046-.4-.457-.985-.815a3.617,3.617,0,0,0-.857-.388c-.257.1-1.135.431-2.321.915a1.683,1.683,0,0,1,.708.512c.5.6.425,1.283.316,1.264-.116.006-.217-.526-.627-1a3.479,3.479,0,0,0-.724-.636c-.667.275-1.411.589-2.185.931a1.681,1.681,0,0,1,.589.7c.3.636.139,1.218.033,1.193s-.15-.5-.4-1.022a5.716,5.716,0,0,0-.46-.769,29.919,29.919,0,0,0-6.533,3.63c.105-.06.179-.093.179-.093l22.809-.763.069,1.93.027-8.292-11.469-.486Zm6.244-.209a.972.972,0,0,1,1.216-.58l-.089-.029a.972.972,0,0,1,.675,1.108.934.934,0,0,1-1.094.678A1.026,1.026,0,0,1,1056.254,5305.3Z" fill="#455a64"/><path d="M1056.962,5306.478a.934.934,0,0,0,1.094-.678.972.972,0,0,0-.675-1.108l.089.029a.972.972,0,0,0-1.216.58A1.026,1.026,0,0,0,1056.962,5306.478Z" fill="#e0e0e0"/><path d="M1038.33,5311.485c-.3.17-.849.566-.759,1.117A1.908,1.908,0,0,1,1038.33,5311.485Z" fill="#263238"/><path d="M1038.509,5311.392s-.074.033-.179.093a1.908,1.908,0,0,0-.759,1.117l23.816-.043-.069-1.93Z" fill="#263238"/><path d="M1050.01,5305.51c-.236,0-.39.056-.378.106s.122.092.3.153l.085-.032Z" fill="#fff"/><path d="M1051.776,5306.972c.108-.023-.067-.718-.769-1.157a1.879,1.879,0,0,0-1-.305l.009.227-.085.032a3.617,3.617,0,0,1,.857.388C1051.374,5306.515,1051.669,5307.018,1051.776,5306.972Z" fill="#fff"/><path d="M1047.136,5306.654c-.009.04.052.093.15.165l.327-.135C1047.345,5306.584,1047.138,5306.593,1047.136,5306.654Z" fill="#fff"/><path d="M1048.01,5307.455c.41.479.511,1.011.627,1,.109.019.188-.663-.316-1.264a1.683,1.683,0,0,0-.708-.512l-.327.135A3.479,3.479,0,0,1,1048.01,5307.455Z" fill="#fff"/><path d="M1044.8,5307.661c-.024.034.008.1.066.194l.238-.1C1044.944,5307.648,1044.819,5307.618,1044.8,5307.661Z" fill="#fff"/><path d="M1045.723,5309.646c.106.025.266-.557-.033-1.193a1.681,1.681,0,0,0-.589-.7l-.238.1a5.716,5.716,0,0,1,.46.769C1045.573,5309.145,1045.607,5309.635,1045.723,5309.646Z" fill="#fff"/><path d="M1084.969,5305.566a1.033,1.033,0,0,1-.373.944.848.848,0,0,1-1.307-.9l-6.556.161.137,3.076a3.843,3.843,0,0,1,1.787-.364,2.936,2.936,0,0,1,1.926.577c-.038.09-.865-.235-1.933-.251a9.1,9.1,0,0,0-1.774.176v.012l-1.374,5.708a1.234,1.234,0,0,1,.466-.156,2.423,2.423,0,0,1,2.354,1.1c.18.3.208.52.171.533a4.638,4.638,0,0,0-1.327-1.127,3.688,3.688,0,0,0-1.682-.273l-.606,2.52a2.2,2.2,0,0,1,1.358-.034c.88.237,1.319.883,1.243.925a12.476,12.476,0,0,0-1.329-.61,4.34,4.34,0,0,0-1.31-.123l-.825,3.426a1.523,1.523,0,0,0,1.225,1.857l11.518-12.923c.029-1.02.07-2.571.116-4.293Zm-6.549,6.938a15.228,15.228,0,0,0-2.214-.466,4.162,4.162,0,0,1,4.2,1.546A15.042,15.042,0,0,0,1078.42,5312.5Z" fill="#455a64"/><path d="M1086.722,5310.974v-.028c-.009.047-.021.09-.033.135A.341.341,0,0,0,1086.722,5310.974Z" fill="#455a64"/><path d="M1086.791,5310.421l-.013-.629-.019.021c-.017.556-.029.953-.036,1.133A4.019,4.019,0,0,0,1086.791,5310.421Z" fill="#263238"/><path d="M1075.241,5322.736a1.523,1.523,0,0,0,1.373-.422c6.143-6.208,8.748-9.268,9.666-10.4a2.043,2.043,0,0,0,.41-.836c-.53,1.243-7.977,9.086-10.121,11.233A1.514,1.514,0,0,1,1075.241,5322.736Z" fill="#263238"/><path d="M1076.569,5322.314c2.144-2.147,9.591-9.99,10.121-11.233.012-.045.024-.088.033-.135.007-.18.019-.577.036-1.133l-11.518,12.923A1.514,1.514,0,0,0,1076.569,5322.314Z" fill="#263238"/><path d="M1083.4,5306.276a.885.885,0,0,0,1.195.234,1.033,1.033,0,0,0,.373-.944l-1.68.041A.88.88,0,0,0,1083.4,5306.276Z" fill="#fff"/><path d="M1075.451,5314.758c0,.009.017.013.034.017l.018-.073C1075.469,5314.726,1075.446,5314.747,1075.451,5314.758Z" fill="#fff"/><path d="M1077.167,5315.048a4.638,4.638,0,0,1,1.327,1.127c.037-.013.009-.232-.171-.533a2.423,2.423,0,0,0-2.354-1.1,1.234,1.234,0,0,0-.466.156l-.018.073A3.688,3.688,0,0,1,1077.167,5315.048Z" fill="#fff"/><path d="M1074.7,5317.42c.006.025.059.031.144.033l.038-.158C1074.754,5317.345,1074.682,5317.4,1074.7,5317.42Z" fill="#fff"/><path d="M1076.151,5317.576a12.476,12.476,0,0,1,1.329.61c.076-.042-.363-.688-1.243-.925a2.2,2.2,0,0,0-1.358.034l-.038.158A4.34,4.34,0,0,1,1076.151,5317.576Z" fill="#fff"/><path d="M1078.532,5312.2a3.371,3.371,0,0,0-2.326-.16,15.228,15.228,0,0,1,2.214.466,15.042,15.042,0,0,1,1.987,1.08A3.361,3.361,0,0,0,1078.532,5312.2Z" fill="#fff"/><path d="M1076.707,5308.974c.009.023.068.022.169.008l-.006-.138C1076.758,5308.9,1076.695,5308.954,1076.707,5308.974Z" fill="#fff"/><path d="M1080.583,5309.057a2.936,2.936,0,0,0-1.926-.577,3.843,3.843,0,0,0-1.787.364l.006.138a9.1,9.1,0,0,1,1.774-.176C1079.718,5308.822,1080.545,5309.147,1080.583,5309.057Z" fill="#fff"/><path d="M1076.435,5301.632a.593.593,0,0,0,.065.47c.021.038.05.074.074.111l-.031-.705A.269.269,0,0,0,1076.435,5301.632Z" fill="#263238"/><path d="M1049.556,5293.47l.348,9.227a1.84,1.84,0,0,1,1.195-.3c.775.04,1.276.47,1.208.554-.06.1-.572-.12-1.23-.15-.543-.036-1,.066-1.168.044l.036.94,11.469.486.036-10.85Z" fill="#263238"/><path d="M1049.837,5302.809c.009.019.037.027.072.032l-.005-.144C1049.847,5302.745,1049.823,5302.786,1049.837,5302.809Z" fill="#263238"/><path d="M1051.077,5302.8c.658.03,1.17.25,1.23.15.068-.084-.433-.514-1.208-.554a1.84,1.84,0,0,0-1.195.3l.005.144C1050.08,5302.863,1050.534,5302.761,1051.077,5302.8Z" fill="#263238"/><path d="M1078.979,5303.086a1.856,1.856,0,0,0,1.27-1.625.72.72,0,0,0-.155-.471.33.33,0,0,0-.381-.073,1.568,1.568,0,0,0-.626.7,4.565,4.565,0,0,0-.4.987c.048.069.1.136.133.2A2.915,2.915,0,0,1,1078.979,5303.086Z" fill="#263238"/><path d="M1078.463,5303.174c0-.057,0-.114.006-.183a3.472,3.472,0,0,1,.046-.358,5.363,5.363,0,0,0-.868-.776,1.983,1.983,0,0,0-.873-.4.37.37,0,0,0-.231.054l.031.705A2.247,2.247,0,0,0,1078.463,5303.174Z" fill="#263238"/><path d="M1078.661,5303.163a1.82,1.82,0,0,0,.232-.056c-.062-.087-.146-.2-.252-.325-.034.148-.057.276-.073.386C1078.6,5303.165,1078.63,5303.167,1078.661,5303.163Z" fill="#263238"/><path d="M1083.627,5305.068l-.069.056a.919.919,0,0,1,1.27.106.673.673,0,0,1,.141.336l1.906-.046c.12-4.611.266-10.422.266-10.422l-10.926-.941.315,7.058a.6.6,0,0,1,.264-.031,2.125,2.125,0,0,1,.989.487,4.363,4.363,0,0,1,.772.762,3.919,3.919,0,0,1,.329-.922,1.729,1.729,0,0,1,.724-.843.612.612,0,0,1,.692.122.993.993,0,0,1,.249.665,2.149,2.149,0,0,1-1.841,2.03c-.062.008-.122.006-.183.009-.007.036-.013.06-.023.058s-.013-.022-.02-.056a2.5,2.5,0,0,1-1.885-.77l.089,2a2.251,2.251,0,0,1,.32-.234,3.316,3.316,0,0,1,2.977-.167c.359.166.538.337.516.37a7.5,7.5,0,0,0-2.006-.315,4.789,4.789,0,0,0-1.8.5l.04.886,6.556-.161A.9.9,0,0,1,1083.627,5305.068Z" fill="#263238"/><path d="M1083.558,5305.124l.069-.056a.9.9,0,0,0-.338.539l1.68-.041a.673.673,0,0,0-.141-.336A.919.919,0,0,0,1083.558,5305.124Z" fill="#263238"/><path d="M1076.535,5304.92c.013.019.069,0,.158-.038l-.007-.154C1076.576,5304.826,1076.521,5304.9,1076.535,5304.92Z" fill="#263238"/><path d="M1078.493,5304.382a7.5,7.5,0,0,1,2.006.315c.022-.033-.157-.2-.516-.37a3.316,3.316,0,0,0-2.977.167,2.251,2.251,0,0,0-.32.234l.007.154A4.789,4.789,0,0,1,1078.493,5304.382Z" fill="#263238"/><path d="M1076.173,5301.515a.865.865,0,0,0,.057.719,2.328,2.328,0,0,0,.367.492l-.023-.513c-.024-.037-.053-.073-.074-.111a.593.593,0,0,1-.065-.47.269.269,0,0,1,.108-.124l-.013-.293A.55.55,0,0,0,1076.173,5301.515Z" fill="#263238"/><path d="M1078.641,5302.782c.013-.056.03-.115.047-.176-.04-.055-.086-.113-.133-.173-.015.069-.03.137-.04.2C1078.562,5302.686,1078.6,5302.734,1078.641,5302.782Z" fill="#263238"/><path d="M1079.087,5301.619a1.568,1.568,0,0,1,.626-.7.33.33,0,0,1,.381.073.72.72,0,0,1,.155.471,1.856,1.856,0,0,1-1.27,1.625c.066.135.092.219.081.225s-.07-.069-.167-.2a1.82,1.82,0,0,1-.232.056c-.031,0-.062,0-.093,0-.022.153-.033.265-.043.326.061,0,.121,0,.183-.009a2.149,2.149,0,0,0,1.841-2.03.993.993,0,0,0-.249-.665.612.612,0,0,0-.692-.122,1.729,1.729,0,0,0-.724.843,3.919,3.919,0,0,0-.329.922c.047.06.093.118.133.173A4.565,4.565,0,0,1,1079.087,5301.619Z" fill="#263238"/><path d="M1078.979,5303.086a2.915,2.915,0,0,0-.158-.283c-.037-.061-.085-.128-.133-.2-.017.061-.034.12-.047.176.106.128.19.238.252.325C1078.921,5303.1,1078.951,5303.1,1078.979,5303.086Z" fill="#263238"/><path d="M1076.774,5301.454a1.983,1.983,0,0,1,.873.4,5.363,5.363,0,0,1,.868.776c.01-.063.025-.131.04-.2a4.363,4.363,0,0,0-.772-.762,2.125,2.125,0,0,0-.989-.487.6.6,0,0,0-.264.031l.013.293A.37.37,0,0,1,1076.774,5301.454Z" fill="#263238"/><path d="M1078.5,5303.552c.01,0,.016-.022.023-.058l-.043,0C1078.489,5303.53,1078.5,5303.553,1078.5,5303.552Z" fill="#263238"/><path d="M1078.463,5303.174l.1-.006c.016-.11.039-.238.073-.386-.04-.048-.079-.1-.126-.149a3.472,3.472,0,0,0-.046.358C1078.465,5303.06,1078.464,5303.117,1078.463,5303.174Z" fill="#263238"/><path d="M1079.06,5303.311c.011-.006-.015-.09-.081-.225-.028.01-.058.013-.086.021C1078.99,5303.242,1079.043,5303.324,1079.06,5303.311Z" fill="#263238"/><path d="M1078.463,5303.174a1.682,1.682,0,0,0,.019.322l.043,0c.01-.061.021-.173.043-.326Z" fill="#263238"/><path d="M1078.463,5303.174a2.247,2.247,0,0,1-1.889-.961l.023.513a2.5,2.5,0,0,0,1.885.77A1.682,1.682,0,0,1,1078.463,5303.174Z" fill="#263238"/><path d="M1041.134,5144.842a4.8,4.8,0,0,1,.075.828c.041.589.093,1.347.156,2.258.135,1.907.327,4.542.483,7.457s.229,5.56.209,7.475c-.009.957-.035,1.732-.075,2.266a.417.417,0,1,1-.115,0c0-.534,0-1.307-.019-2.261-.034-1.91-.138-4.548-.3-7.461s-.315-5.548-.4-7.46c-.042-.956-.061-1.73-.062-2.266A4.165,4.165,0,0,1,1041.134,5144.842Z" fill="#263238"/><path d="M1085.163,5147.156a3.584,3.584,0,0,1-.073.738c-.078.529-.175,1.2-.292,1.994-.248,1.683-.572,4.01-.863,6.589s-.491,4.92-.624,6.617c-.064.8-.117,1.475-.16,2.009a3.466,3.466,0,0,1-.093.735,3.608,3.608,0,0,1-.022-.741c0-.477.025-1.166.066-2.017.079-1.7.248-4.051.539-6.636s.649-4.913.95-6.59c.151-.838.283-1.515.385-1.981A3.553,3.553,0,0,1,1085.163,5147.156Z" fill="#263238"/><rect width="10.226" height="22.525" transform="translate(1058.273 5154.235) rotate(3.718)" fill="#f5f5f5"/><path d="M1001.325,5198.149a38.169,38.169,0,0,0-5.5,22.178c1.029,12.4,6.006,36.128,6.006,36.128s.171,20.255,2.4,30.686,1.833,13.755,1.833,13.755h9.836s.687-26.6,0-32.2-.763-7.558.3-12.4l.9-33.861.853-23.274Z" fill="#263238"/><path d="M1032.029,5199.125a31.558,31.558,0,0,1,6.256,20.442c-.542,12.426-4.581,36.334-4.581,36.334s.625,20.247-1.194,30.756a127.629,127.629,0,0,0-1.98,15.327l-9.139-1.127s-1.732-26.557-1.266-32.172.464-7.582-.793-12.374l-2.227-33.8.3-23.559Z" fill="#263238"/><path d="M1006.311,5297.015l.543,9.476s-9.9,3.71-9.974,5.47l19.263-.347-.213-14.8Z" fill="#263238"/><path d="M1012.794,5305.586a.711.711,0,1,1-.313,1.386.715.715,0,1,1,.386-1.364" fill="#e0e0e0"/><path d="M1016.143,5311.614l-.083-1.491-18.438.89s-.85.373-.742.948Z" fill="#455a64"/><path d="M1006.54,5306.4c.005.089.476.122.944.4s.723.654.809.617c.086-.019-.065-.554-.638-.884S1006.518,5306.32,1006.54,5306.4Z" fill="#fff"/><path d="M1004.535,5307.238c-.02.087.391.232.718.607s.427.775.521.769c.088.013.143-.515-.273-.973S1004.535,5307.152,1004.535,5307.238Z" fill="#fff"/><path d="M1003.433,5309.569c.086.018.208-.434-.043-.922s-.7-.676-.733-.6.239.334.438.737S1003.34,5309.562,1003.433,5309.569Z" fill="#fff"/><path d="M1006.667,5304.23c.041.081.47-.051,1-.026s.95.178,1,.1-.358-.391-.985-.412S1006.619,5304.16,1006.667,5304.23Z" fill="#fff"/><path d="M1030.1,5297.574l-1.043,11.437,1.9,9.274a1.185,1.185,0,0,1-1.053,1.394h0a1.26,1.26,0,0,1-1.059-.369c-1.717-1.789-8-8.4-7.874-9.234.145-.964.262-12.134.262-12.134Z" fill="#263238"/><path d="M1029.906,5319.679l-8.881-10.376-.033.486a1.716,1.716,0,0,0,.362,1.172c.7.9,2.7,3.351,7.456,8.347a1.27,1.27,0,0,0,1.1.371Z" fill="#455a64"/><g opacity="0.6"><path d="M1023.734,5305.758a.69.69,0,0,1,.141.94.739.739,0,0,1-.974.142.727.727,0,0,1-.144-1,.768.768,0,0,1,1.03-.041" fill="#fff"/></g><path d="M1027.5,5314.5a3.742,3.742,0,0,1,1.111-.827,3.939,3.939,0,0,1,1.4-.168c.012-.027-.134-.126-.412-.181a2.009,2.009,0,0,0-1.087.116,1.906,1.906,0,0,0-.853.653C1027.5,5314.325,1027.472,5314.493,1027.5,5314.5Z" fill="#fff"/><path d="M1028.252,5316.091a10.323,10.323,0,0,1,1.1-.427,10.712,10.712,0,0,1,1.181-.073,1.416,1.416,0,0,0-1.24-.173C1028.569,5315.572,1028.192,5316.056,1028.252,5316.091Z" fill="#fff"/><path d="M1026.044,5312.441a12.385,12.385,0,0,1,1.643-.769,12.765,12.765,0,0,1,1.8-.287,2.843,2.843,0,0,0-1.885.047A2.71,2.71,0,0,0,1026.044,5312.441Z" fill="#fff"/><path d="M1026.057,5308.938c.027.071.707-.153,1.571-.13s1.534.263,1.564.194a3.176,3.176,0,0,0-3.135-.064Z" fill="#fff"/><path d="M1026.274,5305.574a4.064,4.064,0,0,1,3.2.3c.021-.022-.1-.174-.366-.344a2.794,2.794,0,0,0-2.4-.226C1026.408,5305.421,1026.258,5305.547,1026.274,5305.574Z" fill="#fff"/><path d="M1027.928,5304.755a.943.943,0,0,0,.045-.432,2.893,2.893,0,0,0-.284-1.157,1.35,1.35,0,0,0-.556-.675.513.513,0,0,0-.564.071.753.753,0,0,0-.224.506,1.683,1.683,0,0,0,1.418,1.628,2.052,2.052,0,0,0,2.046-.885.642.642,0,0,0,.071-.553.49.49,0,0,0-.491-.276,1.769,1.769,0,0,0-.816.343,3.492,3.492,0,0,0-.878.84,1.023,1.023,0,0,0-.211.385,5.507,5.507,0,0,1,1.193-1.076,1.638,1.638,0,0,1,.719-.283.259.259,0,0,1,.268.148.441.441,0,0,1-.069.362,1.837,1.837,0,0,1-1.783.748,1.465,1.465,0,0,1-1.225-1.366.543.543,0,0,1,.141-.359.278.278,0,0,1,.311-.044,1.227,1.227,0,0,1,.482.563A4.283,4.283,0,0,1,1027.928,5304.755Z" fill="#fff"/><path d="M1004.839,5124.915s-2.617,9.783-2.842,16.706l-.075,2.307s5.774,4.794,10.617,5.089l4.059-9.981Z" fill="#263238"/><path d="M1030.487,5130.916c-1.1-4.772-1.528-10.326-5.5-13.438-2.945-2.309-6.3-2.953-10.039-2.8a13.225,13.225,0,0,0-5.523,1.834c-2.2,1.244-3.13,3.768-4.191,6.061-2.125,4.594-1.856,10.814-.416,12.543l19.195,10.136c3.833-1.995,6.234-2.789,6.847-7.9A18.723,18.723,0,0,0,1030.487,5130.916Z" fill="#263238"/><path d="M1024.786,5121.27l-12.08-3.564c-3.891-.567-6.679,4.142-7.08,8.054-.446,4.346-.819,9.67-.431,12.941.781,6.578,5.758,7.607,5.758,7.607,0-.022.012.1-.027,2.042l-.015,4a3.32,3.32,0,0,0,.95,2.71c1.782,2.308,5.03,2.617,8.858,1.2a5.522,5.522,0,0,0,3.933-4.723l2.1-27.856A2.3,2.3,0,0,0,1024.786,5121.27Z" fill="#ffbf9d"/><path d="M1007.611,5131.842a.84.84,0,0,0,.775.878.8.8,0,0,0,.894-.722.839.839,0,0,0-.774-.878A.8.8,0,0,0,1007.611,5131.842Z" fill="#263238"/><path d="M1006.425,5129.7c.1.113.753-.332,1.655-.294s1.546.515,1.648.408c.05-.047-.048-.248-.328-.469a2.3,2.3,0,0,0-1.314-.462,2.21,2.21,0,0,0-1.323.37C1006.478,5129.457,1006.376,5129.651,1006.425,5129.7Z" fill="#263238"/><path d="M1015.542,5131.964a.839.839,0,0,0,.775.878.8.8,0,0,0,.894-.722.839.839,0,0,0-.774-.878A.8.8,0,0,0,1015.542,5131.964Z" fill="#263238"/><path d="M1015.3,5129.808c.1.113.755-.331,1.656-.293s1.545.515,1.648.408c.049-.047-.048-.248-.329-.47a2.3,2.3,0,0,0-1.313-.462,2.214,2.214,0,0,0-1.323.37C1015.353,5129.563,1015.25,5129.757,1015.3,5129.808Z" fill="#263238"/><path d="M1011.785,5135.657a5.928,5.928,0,0,0-1.454-.322c-.23-.033-.446-.087-.479-.246a1.173,1.173,0,0,1,.181-.677l.75-1.727a30.3,30.3,0,0,0,1.711-4.528,30.156,30.156,0,0,0-2.071,4.38c-.252.607-.493,1.185-.722,1.739a1.325,1.325,0,0,0-.155.9.577.577,0,0,0,.365.352,1.6,1.6,0,0,0,.389.07A5.891,5.891,0,0,0,1011.785,5135.657Z" fill="#263238"/><path d="M1010.927,5146.308a16.638,16.638,0,0,0,8.847-1.991s-2.345,4.489-8.863,3.62Z" fill="#ff9a6c"/><path d="M1014.711,5137.662a1.309,1.309,0,0,0-1.064-.636,1.7,1.7,0,0,0-1.58.707,1.059,1.059,0,0,0-.1.761c.052.132.01.066.107.159a2.984,2.984,0,0,0,1.187.8,1.277,1.277,0,0,0,1.368-.444A1.3,1.3,0,0,0,1014.711,5137.662Z" fill="#ff9a6c"/><path d="M1014.577,5136.425c-.146-.015-.192.964-1.061,1.62s-1.907.5-1.92.639c-.017.061.223.2.663.233a2.442,2.442,0,0,0,1.6-.478,2.124,2.124,0,0,0,.827-1.362C1014.743,5136.67,1014.645,5136.422,1014.577,5136.425Z" fill="#263238"/><path d="M1014.958,5126.506c.065.253.973.224,2.015.454,1.047.208,1.867.6,2.028.394.073-.1-.053-.343-.374-.613a3.593,3.593,0,0,0-3.08-.646C1015.145,5126.213,1014.931,5126.386,1014.958,5126.506Z" fill="#263238"/><path d="M1006.5,5127.273c.205.178.862-.132,1.687-.262.822-.155,1.547-.084,1.678-.32.055-.113-.084-.3-.418-.448a2.568,2.568,0,0,0-1.422-.134,2.533,2.533,0,0,0-1.289.6C1006.474,5126.963,1006.408,5127.185,1006.5,5127.273Z" fill="#263238"/><path d="M1012.664,5117c-.011.047-.02.1-.031.142l.023.01Z" fill="#263238"/><path d="M1021.11,5148.947c.185-1.714-.505-3.436-.3-5.148.212-1.816,1.388-3.371,1.871-5.134.773-2.824-.288-5.826-.676-8.744a6.925,6.925,0,0,1-4.252-2.454,19.209,19.209,0,0,1-2.876-5.283,8.84,8.84,0,0,0,1.779,5.081,2.383,2.383,0,0,1-2.038-.662,5.35,5.35,0,0,1-1.2-1.857,14.528,14.528,0,0,1-1.158-5.23,18.792,18.792,0,0,0,.855,7.637,3.272,3.272,0,0,0-1.422.054,1.56,1.56,0,0,1-1.353-.288,1.7,1.7,0,0,1-.37-.871,19.6,19.6,0,0,1-.217-6.654,20.328,20.328,0,0,0-1.5,3.687,7.143,7.143,0,0,0-.027,3.935.58.58,0,0,1-.813,0,1.381,1.381,0,0,1-.355-.822,10.144,10.144,0,0,1,.215-3.312,16.864,16.864,0,0,0-1.232,3.784,5.649,5.649,0,0,1-2.05,3.323,17.423,17.423,0,0,1,.164-5.018,15.156,15.156,0,0,1,1.47-3.982,11.855,11.855,0,0,1,2.651-3.69c1.927-1.687,2.732-.96,3.962-.317l.145.061c.005-.03.006-.061.01-.091l.056-.262a18.456,18.456,0,0,1,9.718.455c2.319.756,2.532,5.749,3.1,3.376.342-1.436,2.2-.125,2.225-.084,2.735,4.933,5.635,12.759,5.768,25.125h0Z" fill="#263238"/><path d="M1027.256,5145.016c-.028-.018.253-.418.643-1.2a12.527,12.527,0,0,0,1.106-3.521,12.184,12.184,0,0,0-.365-5.416,15.836,15.836,0,0,0-3.435-5.708c-1.582-1.795-3.281-3.335-4.718-4.852a23.581,23.581,0,0,1-3.4-4.386,11.785,11.785,0,0,1-1.362-3.483,7.719,7.719,0,0,1-.139-1.009,1.581,1.581,0,0,1-.012-.354c.036,0,.059.486.264,1.338a12.425,12.425,0,0,0,1.43,3.4,24.366,24.366,0,0,0,3.413,4.3c1.437,1.5,3.145,3.033,4.743,4.846a15.859,15.859,0,0,1,3.473,5.824,12.172,12.172,0,0,1,.311,5.53,11.827,11.827,0,0,1-1.211,3.539,9.158,9.158,0,0,1-.531.868A1.621,1.621,0,0,1,1027.256,5145.016Z" fill="#e0e0e0"/><path d="M1006.141,5150.679l5.248-.371,12.754.18,10.751,3.616-6.46,9.707-10.465,3.7-8.134-1.919-4.654-5.621Z" fill="#ffbf9d"/><path d="M1034.31,5180.385l2.851-25.421-8.9-3.358h-.062c-2.475,7.038-5.429,8.786-7.9,9.7-2.558.949-5.539,1.984-10.081-1.878-4.045-3.44-2.234-8.883-2.234-8.883s-6.29-.373-8.854.431-3.553,4.643-4.135,6.317l.031,4.454,3.684,15.65h0s.433,14.15.214,15.461.214,4.488,2.4,5.288c1.758.645,22.8,1.445,30.7.976,1.673-.1,4.667-1.534,3.485-4.537Z" fill="#ff3c00"/><path d="M1042.806,5176.683l-2.02-15.94c-.489-2.622-1.442-4.882-3.625-5.779h0l-3.83,24.266,1.061,2.732Z" fill="#ff3c00"/><path d="M995,5157.3l-3.885,15.376,10.311,5.917-4.118-21.293Z" fill="#ff3c00"/><path d="M995.7,5162.49a19.577,19.577,0,0,1,.218,1.982,41.811,41.811,0,0,0,2.047,9.35,19.1,19.1,0,0,1,.63,1.891,1.906,1.906,0,0,1-.257-.473c-.15-.311-.346-.771-.57-1.347a32.112,32.112,0,0,1-2.059-9.4c-.037-.617-.052-1.117-.046-1.462A1.835,1.835,0,0,1,995.7,5162.49Z" fill="#263238"/><path d="M1036.7,5159.842a5,5,0,0,1-.085.875c-.083.612-.192,1.409-.323,2.369-.274,2-.634,4.763-.961,7.824s-.557,5.84-.711,7.853c-.074.965-.136,1.767-.184,2.383a.44.44,0,1,1-.115-.006c.009-.565.039-1.382.09-2.391.1-2.018.3-4.8.625-7.87s.721-5.831,1.049-7.825c.163-1,.306-1.8.416-2.356A5.036,5.036,0,0,1,1036.7,5159.842Z" fill="#263238"/><path d="M1026.193,5190.752a5.041,5.041,0,0,1-.843-.256c-.538-.181-1.307-.471-2.245-.856a55.321,55.321,0,0,1-13.6-8.071c-.788-.64-1.41-1.175-1.826-1.561a4.906,4.906,0,0,1-.629-.618,5.164,5.164,0,0,1,.7.531c.438.358,1.079.867,1.881,1.483a64.875,64.875,0,0,0,13.55,8.043c.925.409,1.679.728,2.2.941A5.024,5.024,0,0,1,1026.193,5190.752Z" fill="#263238"/><path d="M1007.742,5150.566s-1.837-2.073-3.183-2.3-6.333.719-7.84,1.021c-2.087.417-1.99,1.971-.6,2.087a24.757,24.757,0,0,0,3.851-.093,3.994,3.994,0,0,0,3.34,1.856C1005.533,5153.086,1007.742,5150.566,1007.742,5150.566Z" fill="#ffbf9d"/><path d="M1004.559,5148.261a30.067,30.067,0,0,0-3.485-1.18c-1.7-.439-2.81-.438-3.275.153s-1.781,3.774-1.4,4.407a23.346,23.346,0,0,0,5.336,3.76c.662.085,1.169-.211.874-1.056s-2.642-3.069-2.642-3.069l.482-1.958Z" fill="#ffbf9d"/><path d="M997.582,5147.65s-2.411,5.313-2.474,5.748,1.176,1.489,2.147,2.017,3.986,1.5,4.321,1a1.749,1.749,0,0,0,.3-1l-4.526-2.89Z" fill="#ffbf9d"/><path d="M995.413,5153.5s.034,2.445,0,2.814.536,1.473,1.206,1.205.6-.289.67-.965a12.77,12.77,0,0,0,0-1.68l-1.708-1.139" fill="#ffbf9d"/><path d="M1003.661,5153.118a2.049,2.049,0,0,1-1.178,0,3.553,3.553,0,0,1-2.316-1.7l.15.074-.375.055a11.4,11.4,0,0,1-3.126.156,2.931,2.931,0,0,1-1.248-.365c.015-.048.486.1,1.268.156a14.594,14.594,0,0,0,3.063-.24l.376-.054.1-.014.05.089a3.573,3.573,0,0,0,2.107,1.652C1003.211,5153.123,1003.66,5153.067,1003.661,5153.118Z" fill="#ff9a6c"/><path d="M1003.4,5148.2a45.857,45.857,0,1,1-3.656.451A22.971,22.971,0,0,1,1003.4,5148.2Z" fill="#ff9a6c"/><path d="M996.673,5151.606c.053-.01.115.376.451.877a5.773,5.773,0,0,0,1.735,1.584,16.1,16.1,0,0,0,3.094,1.376,6.29,6.29,0,0,1-3.253-1.126,5.047,5.047,0,0,1-1.755-1.725A1.588,1.588,0,0,1,996.673,5151.606Z" fill="#ff9a6c"/><path d="M997.527,5155.677a3.613,3.613,0,0,1-2.372-2.2c.076-.044.476.566,1.127,1.164S997.565,5155.6,997.527,5155.677Z" fill="#ff9a6c"/><path d="M1097.825,5145.23c.409-.232,6.456-2.492,6.456-2.492l12.712-.472,5.631,1.184-5.493,9.188-8.291.673-7.248-3.016-2.907-3.413Z" fill="#c17560"/><path d="M1108.584,5102.2a2.712,2.712,0,0,1,3.095-2.33,3.471,3.471,0,0,1,4.591-1.4c.743.412,1.3,1.093,2.03,1.535.7.425,1.512.61,2.248.963a2.476,2.476,0,0,1,1.533,1.774,2.15,2.15,0,0,1-1.456,2.07,6.31,6.31,0,0,1-2.688.242.941.941,0,0,1,.278,1.211,1.9,1.9,0,0,1-1.042.841,4.135,4.135,0,0,1-4.241-.783l-1.694-1.3A2.712,2.712,0,0,1,1108.584,5102.2Z" fill="#263238"/><path d="M1112.819,5107.865a.9.9,0,0,0,1.2-.022,1.21,1.21,0,0,0,.288-1.22,1.9,1.9,0,0,0-.81-1.009,4.573,4.573,0,0,0-1.212-.511,8.47,8.47,0,0,0-2-.379,1.609,1.609,0,0,0-.712.087.676.676,0,0,0-.433.534c-.028.337.268.6.54.806a20.975,20.975,0,0,0,3.237,1.964" fill="#ff725e"/><path d="M1113.811,5107.692c1.607-1.794,5.607-1.554,6.563-.388a3.051,3.051,0,0,1,4,1.3l4.259.9a4.435,4.435,0,0,1,2.048.81,1.524,1.524,0,0,1,.373,1.983,2.312,2.312,0,0,1,1,3.691,1.612,1.612,0,0,1-.223,2.334,16.146,16.146,0,0,1,2.773,4.717,3.289,3.289,0,0,1,.229,2.24,1.312,1.312,0,0,1-1.83.779,1.885,1.885,0,0,1,.1,2.036c.719.013.941,1.124.451,1.65a2.627,2.627,0,0,1-2.013.576,3.464,3.464,0,0,0-2.088.371.658.658,0,0,0,.238.455,2.959,2.959,0,0,1,.689,4.026c-.085.121-.165.232-.234.332a6.461,6.461,0,0,1-2.08,1.483c-1.621.86-2.591.706-4.406.982.5,1.167-2.427,3.783-5.822,1.257a65.1,65.1,0,0,1-18.548,2.646c-.995.01-2.192-.116-2.64-1a2.474,2.474,0,0,1-2.279-.73,7.278,7.278,0,0,1-1.349-2.093,4.335,4.335,0,0,1-3.148-3.885,5.364,5.364,0,0,1-2.049-3.8,3.145,3.145,0,0,1-1.833-4.232,18.977,18.977,0,0,1,2.029-5.886c-1.143-.239-1.583-1.774-1.122-2.847a5.985,5.985,0,0,1,2.476-2.4c-.852.233-1.6-.833-1.406-1.694a3.375,3.375,0,0,1,1.719-1.918,16.117,16.117,0,0,1,3.525-1.6c.4-1.5,2.3-3.228,3.7-3.9,5.653-2.723,9.623-3.431,16.888,1.813" fill="#263238"/><path d="M1115.186,5113.9l-9.967-3.3c-3.887-.59-6.7,4.1-7.125,8.009-.472,4.342-.876,9.662-.508,12.934a9.952,9.952,0,0,0,6.54,8.347c0-.009-.15,3.991-.15,3.991.5,3.07,3.755,3.125,3.755,3.125,8.922.2,9.518-4.834,9.518-4.834l-.038-24.693C1117.289,5116.291,1116.367,5114.08,1115.186,5113.9Z" fill="#c17560"/><path d="M1104.4,5128.543a6.023,6.023,0,0,0-1.453-.33c-.229-.034-.445-.09-.476-.249a1.165,1.165,0,0,1,.184-.675q.363-.822.76-1.723a30.071,30.071,0,0,0,1.737-4.516,30.261,30.261,0,0,0-2.1,4.366q-.383.907-.732,1.734a1.334,1.334,0,0,0-.161.9.581.581,0,0,0,.364.354,1.548,1.548,0,0,0,.388.072A5.839,5.839,0,0,0,1104.4,5128.543Z" fill="#263238"/><path d="M1104.126,5139.893a21.543,21.543,0,0,0,8.026-2.647s-1.515,4.123-8.083,4.626Z" fill="#7c4236"/><path d="M1108.253,5118.5c.078.25.984.174,2.035.349,1.056.155,1.9.5,2.045.29.068-.1-.071-.34-.405-.593a3.585,3.585,0,0,0-3.108-.486C1108.424,5118.195,1108.22,5118.378,1108.253,5118.5Z" fill="#263238"/><path d="M1099.582,5118.348c.149.211.78.027,1.527.051.748,0,1.373.2,1.528-.008.069-.1-.022-.31-.289-.517a2.215,2.215,0,0,0-2.462-.035C1099.612,5118.037,1099.516,5118.244,1099.582,5118.348Z" fill="#263238"/><path d="M1095.155,5121.75a4.5,4.5,0,0,1,1.086-2.813,16.806,16.806,0,0,0,1.212-1.169c.736-.965.632-2.307.945-3.479a4.937,4.937,0,0,1,3.06-3.319c1.226-.437,2.615-.378,3.766-.987.85-.451,1.5-1.234,2.373-1.633,1.706-.778,3.683.1,5.293,1.058.318,1.279-.492,2.385-1.272,3.447a4.571,4.571,0,0,1-3.363,1.83c-1.021.061-2.213-.17-2.931.557-.755.766-.463,2.116-1.084,2.994-.888,1.255-2.906.776-4.233,1.551-1.025.6-1.456,1.825-1.973,2.893s-1.409,2.184-2.6,2.127A13.407,13.407,0,0,1,1095.155,5121.75Z" fill="#263238"/><path d="M1110.341,5111.734a23.172,23.172,0,0,1,8.75,1.585,4.217,4.217,0,0,1,2.156,1.489,4.14,4.14,0,0,1,.455,2.267,23.025,23.025,0,0,1-1.953,7.706l-3.058,1.827c-2.354-.559-1.27-4.622-1.155-6.659a4.811,4.811,0,0,1-2.807-4.249A5.326,5.326,0,0,1,1110.341,5111.734Z" fill="#263238"/><path d="M1116.734,5125.729c.094-1.4,1.813-1.671,3.015-.948a2.632,2.632,0,0,1,1.071,2.666c-.231,3.963-4.162,2.914-4.162,2.8C1116.658,5130.176,1116.624,5127.367,1116.734,5125.729Z" fill="#c17560"/><path d="M1117.956,5128.816c.018-.012.066.052.179.113a.7.7,0,0,0,.516.04,1.711,1.711,0,0,0,.879-1.487,2.271,2.271,0,0,0-.136-1,.8.8,0,0,0-.488-.56.35.35,0,0,0-.418.165c-.06.108-.039.188-.061.194s-.081-.071-.04-.233a.437.437,0,0,1,.171-.239.516.516,0,0,1,.387-.079.971.971,0,0,1,.686.656,2.347,2.347,0,0,1,.175,1.119,1.8,1.8,0,0,1-1.106,1.653.744.744,0,0,1-.626-.142C1117.957,5128.912,1117.941,5128.822,1117.956,5128.816Z" fill="#7c4236"/><path d="M1118.4,5130.482a.189.189,0,0,0,.011.053.578.578,0,0,0,.053.151.923.923,0,0,0,.46.412,2.427,2.427,0,0,0,.98.205,3.334,3.334,0,0,0,.636-.041,2.314,2.314,0,0,0,.694-.209l-.048-.024a1.972,1.972,0,0,0,3.139,1.255l-.068-.012a.818.818,0,0,0,.52.347,1.123,1.123,0,0,0,.642-.053,1.034,1.034,0,0,0,.516-.419,1.378,1.378,0,0,0,.2-.652,2.03,2.03,0,0,0-.43-1.323,6.007,6.007,0,0,0-1.044-1.018l-.007.092a1.4,1.4,0,0,0,.629-.939,2.025,2.025,0,0,0-.112-1.169,3.13,3.13,0,0,0-.693-.989,9.277,9.277,0,0,0-.937-.795l.006.089a1.486,1.486,0,0,0,.392-1.149,2.144,2.144,0,0,0-.447-1.178,5.3,5.3,0,0,0-1.932-1.351l.032.068a2.632,2.632,0,0,0-2.856-3.251l.061.068a2.266,2.266,0,0,0-.535-1.929,2.234,2.234,0,0,0-1.673-.824l.049.05a2.227,2.227,0,0,0-.9-1.729,2.179,2.179,0,0,0-1.656-.459l.045.039a2.178,2.178,0,0,0-.321-1.017,2.785,2.785,0,0,0-.6-.728,2.274,2.274,0,0,0-1.355-.586l-.148-.01c-.048,0-.1.007-.14.01a2.051,2.051,0,0,0-.251.029,2.945,2.945,0,0,0-.379.106l-.221.095a.71.71,0,0,0-.073.035.441.441,0,0,0,.078-.025l.223-.084a3.048,3.048,0,0,1,.378-.1,2.058,2.058,0,0,1,.247-.023c.045,0,.09-.008.138-.008l.145.012a2.243,2.243,0,0,1,1.318.59,2.744,2.744,0,0,1,.581.717,2.119,2.119,0,0,1,.3.981v.046l.044-.007a2.094,2.094,0,0,1,1.589.453,2.131,2.131,0,0,1,.854,1.657v.05h.05a2.132,2.132,0,0,1,1.592.794,2.163,2.163,0,0,1,.507,1.835l-.018.077.079-.009a2.517,2.517,0,0,1,2.727,3.111l-.012.047.043.022a5.19,5.19,0,0,1,1.889,1.317,2.022,2.022,0,0,1,.422,1.11,1.365,1.365,0,0,1-.356,1.059l-.048.048.054.042a4.646,4.646,0,0,1,1.6,1.734,1.922,1.922,0,0,1,.108,1.1,1.285,1.285,0,0,1-.575.865l-.069.041.062.051a5.864,5.864,0,0,1,1.028,1,1.915,1.915,0,0,1,.414,1.252,1.061,1.061,0,0,1-.65.985.873.873,0,0,1-1.048-.252l-.026-.043-.041.031a1.916,1.916,0,0,1-2,.187,1.942,1.942,0,0,1-1.02-1.378l-.007-.045-.04.021a2.32,2.32,0,0,1-.674.21,3.277,3.277,0,0,1-.625.047,2.416,2.416,0,0,1-.967-.186.917.917,0,0,1-.458-.388C1118.412,5130.555,1118.4,5130.48,1118.4,5130.482Z" fill="#455a64"/><path d="M1133.5,5126.245a1.329,1.329,0,0,0,.149-.239,2.024,2.024,0,0,0,.211-.784,2,2,0,0,0-.324-1.244,2.1,2.1,0,0,0-1.436-.914l.034.047a2.716,2.716,0,0,0-.358-1.956,2.626,2.626,0,0,0-.775-.825,6.294,6.294,0,0,0-1.084-.511,2.177,2.177,0,0,1-.519-.308,1.358,1.358,0,0,1-.361-.488c-.177-.38-.233-.829-.455-1.239a2.409,2.409,0,0,0-2.414-1.2l.069.067a3.176,3.176,0,0,0-3.517-3.6l.066.066a2.788,2.788,0,0,0-4.335-2.608l.064.006a3.816,3.816,0,0,0-1.384-.846,5.756,5.756,0,0,0-1.422-.327,6.666,6.666,0,0,0-2.351.158,4.749,4.749,0,0,0-1.4.579,2.778,2.778,0,0,0-.322.234c-.071.056-.1.088-.1.088s.149-.114.443-.3a4.892,4.892,0,0,1,1.394-.549,6.72,6.72,0,0,1,2.328-.133,5.681,5.681,0,0,1,1.4.332,3.75,3.75,0,0,1,1.346.831l.029.029.035-.023a2.681,2.681,0,0,1,4.16,2.512l-.007.074.073-.009a3.06,3.06,0,0,1,3.385,3.467l-.011.079.079-.012a2.3,2.3,0,0,1,2.3,1.135c.212.383.27.829.455,1.23a1.468,1.468,0,0,0,.392.524,2.262,2.262,0,0,0,.546.322,6.149,6.149,0,0,1,1.07.5,2.545,2.545,0,0,1,.752.791,2.637,2.637,0,0,1,.359,1.891l-.008.041.042.006a2.039,2.039,0,0,1,1.394.871,1.961,1.961,0,0,1,.333,1.206,2.1,2.1,0,0,1-.187.777C1133.548,5126.163,1133.491,5126.242,1133.5,5126.245Z" fill="#455a64"/><path d="M1095.588,5127.316a.392.392,0,0,0,.015-.325.774.774,0,0,0-.232-.329,1.338,1.338,0,0,0-.489-.246,2.326,2.326,0,0,1-.619-.259,1.228,1.228,0,0,1-.446-.636,2.4,2.4,0,0,1-.1-.907c.014-.327.066-.674.066-1.044a10.7,10.7,0,0,0-.5-2.344,3.273,3.273,0,0,1-.053-1.3,1.587,1.587,0,0,1,.718-1.115,5.96,5.96,0,0,1,1.39-.47,2.4,2.4,0,0,0,.71-.331,1.6,1.6,0,0,0,.5-.627,7.671,7.671,0,0,0,.417-1.56,2.623,2.623,0,0,1,.275-.751,1.2,1.2,0,0,1,.584-.512,4.358,4.358,0,0,1,1.1-.15,1.749,1.749,0,0,0,.555-.139,1.1,1.1,0,0,0,.439-.37,3.884,3.884,0,0,0,.415-1.013,2.421,2.421,0,0,1,.5-.894,2.386,2.386,0,0,1,1.726-.825,2.454,2.454,0,0,1,1.683.609l.053.047.029-.064a3.774,3.774,0,0,1,2.354-2.032,3.493,3.493,0,0,1,1.325-.114,3.187,3.187,0,0,1,1.089.3,2.784,2.784,0,0,1,1.157,1.064,2.856,2.856,0,0,1,.2.373l.047.1c.011.022.017.033.019.032a.221.221,0,0,0-.011-.035l-.04-.1a2.515,2.515,0,0,0-.184-.383,2.776,2.776,0,0,0-1.158-1.1,3.209,3.209,0,0,0-1.109-.322,3.529,3.529,0,0,0-1.355.106,3.852,3.852,0,0,0-2.425,2.07l.081-.017a2.555,2.555,0,0,0-1.754-.643,2.5,2.5,0,0,0-1.811.859,2.564,2.564,0,0,0-.522.933,3.756,3.756,0,0,1-.4.981,1.159,1.159,0,0,1-.909.459,4.471,4.471,0,0,0-1.127.157,1.336,1.336,0,0,0-.645.563,2.77,2.77,0,0,0-.288.786,7.688,7.688,0,0,1-.407,1.536,1.467,1.467,0,0,1-.464.584,2.3,2.3,0,0,1-.675.315,5.97,5.97,0,0,0-1.414.486,1.523,1.523,0,0,0-.519.52,2.009,2.009,0,0,0-.246.67,3.392,3.392,0,0,0,.06,1.344,10.72,10.72,0,0,1,.516,2.322c0,.362-.045.709-.056,1.041a2.463,2.463,0,0,0,.112.932,1.291,1.291,0,0,0,.477.662,2.358,2.358,0,0,0,.637.255,1.339,1.339,0,0,1,.481.23.749.749,0,0,1,.232.309A.484.484,0,0,1,1095.588,5127.316Z" fill="#455a64"/><path d="M1087.9,5121.176a.447.447,0,0,0,.04-.074l.11-.223.409-.859c.179-.372.38-.837.668-1.346a3.526,3.526,0,0,1,1.327-1.423c.321-.174.692-.288,1.064-.454a2.467,2.467,0,0,0,.541-.316,1.373,1.373,0,0,0,.405-.518c.188-.411.193-.877.343-1.3a1.127,1.127,0,0,1,.382-.541,2.091,2.091,0,0,1,.637-.295,4.143,4.143,0,0,0,.7-.268,1.28,1.28,0,0,0,.542-.561,5.786,5.786,0,0,0,.339-1.538,1.9,1.9,0,0,1,.263-.727,1,1,0,0,1,.629-.414c.522-.108,1.082.074,1.662-.017a1.4,1.4,0,0,0,.763-.4,3.635,3.635,0,0,0,.494-.682,7.383,7.383,0,0,1,.435-.684,1.534,1.534,0,0,1,.583-.5,2.336,2.336,0,0,1,1.5.013,3.472,3.472,0,0,0,1.505.131,4,4,0,0,0,1.31-.6,6.87,6.87,0,0,1,1.167-.648,4.091,4.091,0,0,1,2.352-.075,4.394,4.394,0,0,1,1.742.9,4.9,4.9,0,0,1,.961,1.138,5.508,5.508,0,0,1,.411.853c.039.1.069.172.092.229a.409.409,0,0,0,.036.077.444.444,0,0,0-.024-.081l-.081-.234a4.981,4.981,0,0,0-.394-.868,4.848,4.848,0,0,0-.957-1.165,4.424,4.424,0,0,0-1.765-.929,4.165,4.165,0,0,0-2.408.064,6.84,6.84,0,0,0-1.188.651,3.923,3.923,0,0,1-1.275.577,3.4,3.4,0,0,1-1.458-.134,4.952,4.952,0,0,0-.772-.135,1.512,1.512,0,0,0-1.429.661,7.654,7.654,0,0,0-.443.694,3.519,3.519,0,0,1-.477.659,1.279,1.279,0,0,1-.7.37c-.541.089-1.1-.094-1.667.019a1.11,1.11,0,0,0-.7.463,2.015,2.015,0,0,0-.281.774,5.819,5.819,0,0,1-.326,1.507,1.15,1.15,0,0,1-.494.513,3.814,3.814,0,0,1-.681.262,2.265,2.265,0,0,0-.668.314,1.23,1.23,0,0,0-.416.593c-.154.45-.158.911-.334,1.3a1.619,1.619,0,0,1-.894.79c-.363.165-.736.283-1.065.464a3.587,3.587,0,0,0-1.346,1.465c-.285.517-.479.984-.652,1.359s-.3.664-.389.869l-.1.228A.4.4,0,0,0,1087.9,5121.176Z" fill="#455a64"/><path d="M1092.114,5117.029a.251.251,0,0,0-.072-.013.444.444,0,0,0-.211.047.85.85,0,0,0-.4.7,2.083,2.083,0,0,0,.085.593,2.45,2.45,0,0,1,.1.686,1.535,1.535,0,0,1-.279.732c-.154.239-.35.473-.508.758a1.137,1.137,0,0,0-.1,1c.127.338.372.62.492.963a1.48,1.48,0,0,1-.108,1.091c-.155.363-.375.714-.527,1.116a1.779,1.779,0,0,0-.127.644,1.593,1.593,0,0,0,.15.656,7.71,7.71,0,0,0,.753,1.13,1.83,1.83,0,0,1,.419,1.256,6,6,0,0,1-.48,1.337,2.057,2.057,0,0,0-.148.729,1.639,1.639,0,0,0,.186.712,6.03,6.03,0,0,0,.855,1.122,3.219,3.219,0,0,1,.692,1.122,9.754,9.754,0,0,0,.411,1.234,1.45,1.45,0,0,0,.4.5,1.824,1.824,0,0,0,.56.27,4.984,4.984,0,0,1,.55.2,1.992,1.992,0,0,1,.458.312,4.051,4.051,0,0,1,.649.849c.182.295.351.585.541.845a2.71,2.71,0,0,0,1.38,1.016,2.912,2.912,0,0,0,1.3.125,2.6,2.6,0,0,0,.79-.231,2.079,2.079,0,0,0,.249-.143,2.994,2.994,0,0,1-1.045.327,2.91,2.91,0,0,1-1.267-.141,2.654,2.654,0,0,1-1.333-1c-.184-.257-.35-.546-.531-.844a4.086,4.086,0,0,0-.66-.873,2.066,2.066,0,0,0-.482-.332,5.01,5.01,0,0,0-.56-.2,1.712,1.712,0,0,1-.528-.256,1.312,1.312,0,0,1-.369-.465,9.621,9.621,0,0,1-.4-1.221,3.339,3.339,0,0,0-.712-1.162,6.008,6.008,0,0,1-.838-1.1,1.522,1.522,0,0,1-.172-.661,1.942,1.942,0,0,1,.14-.685,6.023,6.023,0,0,0,.486-1.366,1.51,1.51,0,0,0-.1-.719,2.915,2.915,0,0,0-.344-.617,7.7,7.7,0,0,1-.745-1.111,1.493,1.493,0,0,1-.142-.609,1.674,1.674,0,0,1,.118-.6c.145-.389.363-.74.52-1.113a1.58,1.58,0,0,0,.106-1.165c-.134-.367-.38-.647-.5-.964a1.044,1.044,0,0,1,.087-.924c.149-.275.343-.512.5-.757a1.576,1.576,0,0,0,.282-.77,2.433,2.433,0,0,0-.114-.7,2.085,2.085,0,0,1-.093-.576.834.834,0,0,1,.359-.684A.5.5,0,0,1,1092.114,5117.029Z" fill="#455a64"/><path d="M1120.739,5129.835a2.066,2.066,0,0,1,.593.343,2.677,2.677,0,0,1,.961,1.583,2.834,2.834,0,0,1-.031,1.3,3.2,3.2,0,0,1-.726,1.305,3.256,3.256,0,0,1-1.378.9,2.988,2.988,0,0,1-1.768.038,3.228,3.228,0,0,1-1.511-.922,2.894,2.894,0,0,1-.72-1.483,3.079,3.079,0,0,1,.78-2.607,2.755,2.755,0,0,1,.9-.582,2.8,2.8,0,0,1,.782-.2,1.685,1.685,0,0,1,.51.018.624.624,0,0,1,.17.054,2.2,2.2,0,0,0-.673-.013,2.847,2.847,0,0,0-.756.223,2.756,2.756,0,0,0-.858.578,2.988,2.988,0,0,0-.719,2.51,2.779,2.779,0,0,0,.692,1.406,3.093,3.093,0,0,0,1.442.875,2.854,2.854,0,0,0,1.68-.032,3.148,3.148,0,0,0,1.322-.859,3.091,3.091,0,0,0,.707-1.244,2.749,2.749,0,0,0,.048-1.246,2.683,2.683,0,0,0-.894-1.559A6.109,6.109,0,0,0,1120.739,5129.835Z" fill="#e0e0e0"/><path d="M1108.42,5124.726a.86.86,0,0,0,.792.9.823.823,0,0,0,.92-.737.861.861,0,0,0-.791-.9A.823.823,0,0,0,1108.42,5124.726Z" fill="#263238"/><path d="M1100.577,5124.6a.86.86,0,0,0,.791.9.824.824,0,0,0,.921-.737.862.862,0,0,0-.791-.9A.824.824,0,0,0,1100.577,5124.6Z" fill="#263238"/><path d="M1099.673,5121.345c.083.13.74-.317,1.585-.223s1.4.653,1.51.543c.051-.048-.022-.274-.264-.532a1.919,1.919,0,0,0-2.47-.255C1099.746,5121.081,1099.632,5121.287,1099.673,5121.345Z" fill="#263238"/><path d="M1107.745,5122.041c.116.132.84-.43,1.856-.421,1.016-.006,1.755.559,1.867.426.055-.059-.06-.3-.383-.553a2.466,2.466,0,0,0-1.493-.505,2.4,2.4,0,0,0-1.478.5C1107.8,5121.743,1107.689,5121.981,1107.745,5122.041Z" fill="#263238"/><path d="M1088.308,5104.815a4.956,4.956,0,0,1,1.083-.627,3.785,3.785,0,0,1,1.425-.253,3.508,3.508,0,0,1,1.814.523l.087.054.052-.089a3.276,3.276,0,0,1,1.986-1.459,3.326,3.326,0,0,1,2.788.442l.1.075.075-.1a5.345,5.345,0,0,1,3.389-2.054,5.1,5.1,0,0,1,3.087.465,5.313,5.313,0,0,1,2.147,1.906l.035.054.064,0a8,8,0,0,1,3.2.794,8.338,8.338,0,0,1,2.13,1.455,11.148,11.148,0,0,1,1.457,1.758.47.47,0,0,0-.063-.142c-.049-.089-.116-.227-.223-.393a7.542,7.542,0,0,0-1.07-1.327,8.177,8.177,0,0,0-2.142-1.532,8.093,8.093,0,0,0-3.279-.855l.1.057a5.526,5.526,0,0,0-2.237-2.011,5.33,5.33,0,0,0-3.247-.5,5.57,5.57,0,0,0-3.552,2.167l.179-.028a3.548,3.548,0,0,0-3-.458,3.453,3.453,0,0,0-2.1,1.586l.138-.035a3.632,3.632,0,0,0-1.918-.513,3.784,3.784,0,0,0-1.468.309,3.389,3.389,0,0,0-.809.493A1.326,1.326,0,0,0,1088.308,5104.815Z" fill="#263238"/><path d="M1115.171,5103.432a2.327,2.327,0,0,0,.99.238,3.572,3.572,0,0,0,2.607-.934,3.291,3.291,0,0,0,.967-1.712,3.682,3.682,0,0,0-.22-2.262,3.36,3.36,0,0,0-1.82-1.743,3.594,3.594,0,0,0-2.728-.023l.155.038a2.551,2.551,0,0,0-1.492-.851,2.662,2.662,0,0,0-1.445.123,2.382,2.382,0,0,0-1.1.891,2.64,2.64,0,0,0-.226,2.575l.178-.161a2.171,2.171,0,0,0-2.041-.041,2.24,2.24,0,0,0-1.206,1.418,2.886,2.886,0,0,0,.789,2.85,3.591,3.591,0,0,0,1.75.906,3.266,3.266,0,0,0,.521.07.624.624,0,0,0,.182-.006c0-.021-.247-.026-.684-.143a3.651,3.651,0,0,1-1.66-.937,2.727,2.727,0,0,1-.7-2.679,2.023,2.023,0,0,1,1.1-1.268,1.936,1.936,0,0,1,1.811.044l.362.221-.184-.382a2.4,2.4,0,0,1,.219-2.319,2.12,2.12,0,0,1,.977-.79,2.4,2.4,0,0,1,1.3-.108,2.3,2.3,0,0,1,1.337.757l.063.076.091-.038a3.351,3.351,0,0,1,2.527.014,3.132,3.132,0,0,1,1.7,1.6,3.483,3.483,0,0,1,.23,2.12,3.126,3.126,0,0,1-.884,1.627,3.533,3.533,0,0,1-2.48.966A5.2,5.2,0,0,1,1115.171,5103.432Z" fill="#263238"/><path d="M1134.016,5113.736a.534.534,0,0,0,.078-.15,2.923,2.923,0,0,0,.152-.463,4.244,4.244,0,0,0-1.342-4.218,4.414,4.414,0,0,0-3.343-1.017l.131.071a5.253,5.253,0,0,0-2.667-2.518,5.087,5.087,0,0,0-2.781-.322,5.219,5.219,0,0,0-2.353,1.019l.132-.01a5.769,5.769,0,0,0-2.82-.673,5.951,5.951,0,0,0-2.209.45,5.355,5.355,0,0,0-1.264.73,2.148,2.148,0,0,0-.379.354,7.719,7.719,0,0,1,1.7-.949,5.991,5.991,0,0,1,2.157-.383,5.633,5.633,0,0,1,2.7.683l.07.038.063-.048a5.017,5.017,0,0,1,2.246-.952,4.863,4.863,0,0,1,2.636.31,5.038,5.038,0,0,1,2.54,2.383l.041.082.091-.011a4.216,4.216,0,0,1,3.17.931,4.063,4.063,0,0,1,1.37,2.261,4.434,4.434,0,0,1,.029,1.771C1134.083,5113.515,1134,5113.729,1134.016,5113.736Z" fill="#263238"/><path d="M1108.4,5130.5a1.26,1.26,0,0,0-1.274-.993,1.318,1.318,0,0,0-1.033.691,1.622,1.622,0,0,0-.093,1.258l.018.091a1.433,1.433,0,0,0,1.6.389A1.342,1.342,0,0,0,1108.4,5130.5Z" fill="#7c4236"/><path d="M1105.315,5131.548c0-.147.977-.073,1.734-.852s.731-1.825.868-1.822c.062-.009.171.246.149.685a2.438,2.438,0,0,1-.67,1.526,2.12,2.12,0,0,1-1.449.651C1105.536,5131.741,1105.3,5131.614,1105.315,5131.548Z" fill="#263238"/><path d="M1092.354,5191.786c-.228.342-5.464,18.213-4.667,24.019s4.667,22.993,4.667,22.993,2.391,9.79,1.935,13.66a125.7,125.7,0,0,0,1.025,24.587c1.494,8.963,3.091,25.025,3.091,25.025l11.545-.891-.521-55.892,2.845-21.97,1.594-21.514Z" fill="#263238"/><path d="M1125.477,5294.431l-1.151,12.617,2.1,10.231a1.307,1.307,0,0,1-1.163,1.537h0a1.382,1.382,0,0,1-1.167-.407c-1.9-1.974-8.824-9.267-8.686-10.186.16-1.064.289-13.385.289-13.385Z" fill="#263238"/><path d="M1125.264,5318.816l-9.8-11.446-.036.536a1.9,1.9,0,0,0,.4,1.294c.776.994,2.983,3.7,8.225,9.207a1.4,1.4,0,0,0,1.208.409Z" fill="#455a64"/><g opacity="0.6"><path d="M1118.456,5303.46a.761.761,0,0,1,.156,1.037.815.815,0,0,1-1.075.156.8.8,0,0,1-.158-1.1.846.846,0,0,1,1.136-.044" fill="#fff"/></g><path d="M1122.612,5313.108a4.124,4.124,0,0,1,1.226-.912,4.316,4.316,0,0,1,1.541-.185c.014-.03-.147-.138-.454-.2a2.216,2.216,0,0,0-1.2.127,2.106,2.106,0,0,0-.941.721C1122.613,5312.911,1122.58,5313.1,1122.612,5313.108Z" fill="#fff"/><path d="M1123.441,5314.858a4.21,4.21,0,0,1,2.51-.551,1.562,1.562,0,0,0-1.368-.191C1123.79,5314.286,1123.374,5314.82,1123.441,5314.858Z" fill="#fff"/><path d="M1121,5310.832a13.723,13.723,0,0,1,1.813-.849,14.165,14.165,0,0,1,1.991-.316,3.132,3.132,0,0,0-2.08.052A3,3,0,0,0,1121,5310.832Z" fill="#fff"/><path d="M1121.019,5306.968c.03.078.78-.169,1.733-.143s1.692.29,1.726.213a3.5,3.5,0,0,0-3.459-.07Z" fill="#fff"/><path d="M1121.259,5303.256a6.987,6.987,0,0,1,1.8-.195,6.9,6.9,0,0,1,1.725.528c.024-.025-.11-.192-.4-.379a3.074,3.074,0,0,0-2.647-.25C1121.406,5303.088,1121.241,5303.227,1121.259,5303.256Z" fill="#fff"/><path d="M1123.083,5302.353a1.042,1.042,0,0,0,.05-.477,3.211,3.211,0,0,0-.314-1.276,1.483,1.483,0,0,0-.613-.744.568.568,0,0,0-.622.078.834.834,0,0,0-.247.558,1.857,1.857,0,0,0,1.564,1.8,2.265,2.265,0,0,0,2.257-.977.709.709,0,0,0,.078-.611.541.541,0,0,0-.541-.3,1.942,1.942,0,0,0-.9.379,3.807,3.807,0,0,0-.969.927,1.1,1.1,0,0,0-.232.424,6.061,6.061,0,0,1,1.315-1.187,1.809,1.809,0,0,1,.793-.312.287.287,0,0,1,.3.164.485.485,0,0,1-.076.4,2.023,2.023,0,0,1-1.966.826,1.617,1.617,0,0,1-1.352-1.507.6.6,0,0,1,.156-.4.305.305,0,0,1,.342-.047,1.345,1.345,0,0,1,.532.62A4.745,4.745,0,0,1,1123.083,5302.353Z" fill="#fff"/><path d="M1132.008,5192.772c.228.341,5.464,18.212,4.667,24.018s-4.667,22.993-4.667,22.993-2.39,9.79-1.935,13.66-.341,16.749-1.025,24.587c-.768,8.813-2.7,24.139-2.7,24.139l-11.995-.782.585-55.115-2.846-21.97-1.594-21.513Z" fill="#263238"/><path d="M1098.928,5294.828l.6,10.452s-10.917,4.093-11,6.035l21.249-.383-.234-16.323Z" fill="#263238"/><path d="M1106.081,5304.282a.785.785,0,1,1-.347,1.53.79.79,0,1,1,.426-1.506" fill="#e0e0e0"/><path d="M1109.774,5310.932l-.091-1.644-20.339.981s-.938.411-.819,1.046Z" fill="#455a64"/><path d="M1099.181,5305.183c.005.1.525.135,1.042.444s.8.722.892.681c.095-.021-.072-.611-.7-.975S1099.157,5305.092,1099.181,5305.183Z" fill="#fff"/><path d="M1096.97,5306.1c-.022.1.431.257.791.67s.471.855.575.849c.1.014.158-.568-.3-1.074S1096.97,5306.009,1096.97,5306.1Z" fill="#fff"/><path d="M1095.754,5308.676c.095.019.229-.479-.048-1.017s-.766-.746-.809-.662.264.368.485.813S1095.651,5308.668,1095.754,5308.676Z" fill="#fff"/><path d="M1099.321,5302.786c.045.09.519-.055,1.106-.028s1.048.2,1.1.11-.394-.432-1.086-.455S1099.269,5302.709,1099.321,5302.786Z" fill="#fff"/><path d="M1135.615,5204.219a3.945,3.945,0,0,1-1.176,2.29,9.416,9.416,0,0,0-1.6,3.151s-.948,4.411-1.184,5.843-.29,2.749.861,2.52,1.524-1.088,1.8-3.723l.71-1.375.585,1.088v4.239s-2.954,2.693-2.776,3.5.727.687.727.687l.457.458,4.5-3.036,1.777-5.556-.3-7.218.144-5.609-4.7-.739Z" fill="#c17560"/><path d="M1126.927,5144.727s7.279,3.373,8.21,8.331,2.017,19.946,2.275,22.01,2.061,5.383,2.408,11.569.34,15.8.34,15.8l-4.568,1.284s-3.687-9.033-4.6-15.794-2.637-9.666-2.216-12.409-1.1-9.738-1.1-9.738Z" fill="#c17560"/><path d="M1126.927,5159.088c.248.481.011,9.713.716,9.988s10.022-.369,10.022-.369-1.142-14.235-2.712-17.112-5.541-6.374-6.332-6.365-3.2,11.957-3.2,11.957Z" fill="#ff3c00"/><path d="M1099,5144.485c-.569.455-9.169,4.22-9.169,4.22l3.073,21.286,1.419,8.741-4.52,18.519a35.171,35.171,0,0,0,25.5,7.968c15.709-1.252,19.254-6.73,19.254-6.73l-6.733-27.078s-.683-8.345-.683-11.383c0-.569,1.48-14.8,1.48-14.8l-7.285-2.162s-1.366,5.463-10.814,5.463S1099,5144.485,1099,5144.485Z" fill="#ff3c00"/><path d="M1126.149,5157.359a2.154,2.154,0,0,1,.3.49,13.062,13.062,0,0,1,.648,1.425,17.935,17.935,0,0,1,.837,10.177,12.716,12.716,0,0,1-.407,1.511,2.114,2.114,0,0,1-.215.533c-.05-.016.19-.795.416-2.084a19.988,19.988,0,0,0-.828-10.064C1126.466,5158.112,1126.1,5157.382,1126.149,5157.359Z" fill="#ff3c00"/><path d="M1122.872,5143.632s1.837-2.073,3.183-2.3,6.333.72,7.84,1.021c2.087.418,1.99,1.972.6,2.088a24.692,24.692,0,0,1-3.851-.093,3.993,3.993,0,0,1-3.34,1.855C1125.08,5146.152,1122.872,5143.632,1122.872,5143.632Z" fill="#ffbf9d"/><path d="M1126.055,5141.327a30.276,30.276,0,0,1,3.485-1.18c1.7-.439,2.81-.438,3.275.153s1.781,3.774,1.4,4.408a23.391,23.391,0,0,1-5.337,3.76c-.661.084-1.168-.212-.873-1.057s2.642-3.068,2.642-3.068l-.482-1.959Z" fill="#ffbf9d"/><path d="M1133.032,5140.717s2.411,5.312,2.474,5.747-1.176,1.489-2.147,2.017-3.986,1.5-4.321,1a1.753,1.753,0,0,1-.3-1l4.526-2.89Z" fill="#ffbf9d"/><path d="M1135.2,5146.565s-.034,2.445,0,2.813-.536,1.474-1.206,1.206-.6-.289-.67-.965a12.816,12.816,0,0,1,0-1.681l1.708-1.139" fill="#ffbf9d"/><path d="M1126.953,5146.184a11.243,11.243,0,0,0,1.128-.192,3.568,3.568,0,0,0,2.107-1.652l.05-.089.1.015.376.053a14.6,14.6,0,0,0,3.063.241c.782-.052,1.253-.205,1.268-.157a2.906,2.906,0,0,1-1.248.365,11.43,11.43,0,0,1-3.126-.155l-.375-.055.15-.075a3.558,3.558,0,0,1-2.316,1.7A2.032,2.032,0,0,1,1126.953,5146.184Z" fill="#ff9a6c"/><path d="M1127.212,5141.263a45.733,45.733,0,1,1,3.607.744A23.027,23.027,0,0,1,1127.212,5141.263Z" fill="#ff9a6c"/><path d="M1133.941,5144.673a1.586,1.586,0,0,1-.272.985,5.043,5.043,0,0,1-1.755,1.726,6.314,6.314,0,0,1-3.253,1.126,16.245,16.245,0,0,0,3.094-1.376,5.756,5.756,0,0,0,1.735-1.585C1133.826,5145.048,1133.888,5144.663,1133.941,5144.673Z" fill="#ff9a6c"/><path d="M1133.087,5148.743c-.038-.078.6-.432,1.245-1.037s1.051-1.207,1.127-1.164a3.609,3.609,0,0,1-2.372,2.2Z" fill="#ff9a6c"/><path d="M1083.079,5165.393c0-.456,2.6-13.869,5.559-15.805l1.366-1.024,3.073,18.44v1.253Z" fill="#ff3c00"/><path d="M1093.077,5170.533a9.085,9.085,0,0,1-.494-1.669c-.259-1.043-.57-2.495-.837-4.113s-.438-3.1-.527-4.165a9.04,9.04,0,0,1-.068-1.739,11.238,11.238,0,0,1,.276,1.716c.143,1.062.346,2.527.611,4.14s.544,3.064.749,4.116A11.2,11.2,0,0,1,1093.077,5170.533Z" fill="#263238"/><path d="M948.8,5114.711l-1.081-4.008a13.356,13.356,0,1,0-3.173,3.583l-.005.006Z" fill="#fff"/><path d="M948.8,5114.711s-.1-.016-.287-.038l-.821-.095-3.145-.348.044.1,0-.006a.062.062,0,0,0-.011-.087.067.067,0,0,0-.077,0,13.352,13.352,0,0,1-5.951,2.614,13.421,13.421,0,0,1-8.745-1.551,13.19,13.19,0,0,1-3.421-20.178l.544-.6.595-.549a14.257,14.257,0,0,1,1.254-1,13.394,13.394,0,0,1,8.782-2.3,13.27,13.27,0,0,1,10.1,20.009l-.006.048c.361,1.279.641,2.267.834,2.951.1.329.169.584.222.771s.083.269.083.269a2.533,2.533,0,0,0-.057-.25l-.191-.762-.773-3.012-.007.048a13.286,13.286,0,0,0,1.949-6.271,13.485,13.485,0,0,0-12.13-14.079,13.65,13.65,0,0,0-8.974,2.344,14.186,14.186,0,0,0-1.281,1.025l-.608.56-.557.617a13.456,13.456,0,0,0,3.52,20.582,13.328,13.328,0,0,0,4.6,1.57,13.166,13.166,0,0,0,4.3-.043,13.359,13.359,0,0,0,5.995-2.705l-.088-.086,0,.006a.061.061,0,0,0,.011.086.062.062,0,0,0,.032.013l3.2.276c.345.028.612.05.807.065A2.472,2.472,0,0,0,948.8,5114.711Z" fill="#263238"/><path d="M936.047,5110.25l-7.013-4.69,1.637-2.447,4.7,3.146,5.851-7.743,2.349,1.775Z" fill="#ff725e"/></g></svg>