<svg xmlns="http://www.w3.org/2000/svg" width="258.316" height="240.947" viewBox="0 0 258.316 240.947"><g transform="translate(-410.989 -122.501)"><path d="M415.789,501.435V516.3h3.434a20.865,20.865,0,0,1,0-4.715c.329-1.755,4.057-6.274,3.947-10.155Z" transform="translate(-1.953 -154.172)" fill="#ffeed9"/><path d="M462.106,501.435V516.3h3.434a20.83,20.83,0,0,1,0-4.715c.329-1.755,4.057-6.274,3.947-10.155Z" transform="translate(-20.797 -154.172)" fill="#ffeed9"/><path d="M502.373,501.435V516.3h-3.434a20.865,20.865,0,0,0,0-4.715c-.329-1.755-4.057-6.274-3.947-10.155Z" transform="translate(-34.176 -154.172)" fill="#ffeed9"/><path d="M542.466,501.435V516.3h-3.434a20.869,20.869,0,0,0,0-4.715c-.329-1.755-4.057-6.274-3.947-10.155Z" transform="translate(-50.488 -154.172)" fill="#ffeed9"/><rect width="82.278" height="73.888" transform="translate(411.5 273.855)" fill="#ffeed9"/><path d="M513.2,377.673l.612,73.888h21.554V377.67Z" transform="translate(-41.584 -103.818)" fill="#ffeed9"/><rect width="52.825" height="18.801" transform="translate(415.203 279.291)" fill="#ffd7a6"/><rect width="52.825" height="18.801" transform="translate(415.203 301.84)" fill="#ffd7a6"/><rect width="52.825" height="18.801" transform="translate(415.203 324.389)" fill="#ffd7a6"/><g transform="translate(433.174 252.623)"><path d="M450.67,341.878l-2.279,21.145h29.193l2.421-21.145Z" transform="translate(-448.391 -341.878)" fill="#ffd7a6"/></g><g transform="translate(434.436 254.142)"><g transform="translate(0 0)"><path d="M452.735,344.439l-2.217,18.5h26.347l2.132-18.5Z" transform="translate(-450.519 -344.439)" fill="#ffeed9"/></g></g><g transform="translate(439.722 257.254)"><path d="M460.8,349.686l-1.364,12.278h16.627l.853-12.278Z" transform="translate(-459.431 -349.686)" fill="#ffd7a6"/></g><path d="M498.988,357.231l6.03,12.123-7.409-.085,1.378-12.038" transform="translate(-35.242 -95.502)" fill="#ebebeb"/><path d="M463.229,403.018a1.932,1.932,0,1,1-1.932-1.932A1.932,1.932,0,0,1,463.229,403.018Z" transform="translate(-19.682 -113.345)" fill="#ffeed9"/><path d="M463.229,441.411a1.932,1.932,0,1,1-1.932-1.932A1.932,1.932,0,0,1,463.229,441.411Z" transform="translate(-19.682 -128.965)" fill="#ffeed9"/><path d="M463.229,479.8a1.932,1.932,0,1,1-1.932-1.932A1.932,1.932,0,0,1,463.229,479.8Z" transform="translate(-19.682 -144.586)" fill="#ffeed9"/><g transform="translate(421.292 153.289)"><path d="M475.012,174.861l-46.653-.454,1.3,60.8,46.647.171Z" transform="translate(-428.359 -174.407)" fill="#ffd7a6"/></g><g transform="translate(424.096 155.393)"><g transform="translate(0 0)"><path d="M473.926,179.016l-40.839-1.061,1.181,55.142,40.827.5Z" transform="translate(-433.087 -177.955)" fill="#ffeed9"/></g></g><g transform="translate(430.869 164.241)"><g transform="translate(0 0)"><path d="M471.6,193.322l-27.1-.451.826,38.541,27.074-.58Z" transform="translate(-444.505 -192.872)" fill="#ffd7a6"/></g></g><g transform="translate(430.869 164.241)"><g transform="translate(0 0)"><path d="M445.331,231.413l26.649-20.38L444.5,192.872Z" transform="translate(-444.505 -192.872)" fill="#ffeed9"/></g></g><g transform="translate(622.839 309.487)"><g transform="translate(0 13.104)"><path d="M768.158,459.84c-.174.524,5.932,23.727,5.932,23.727l4.187-.872L772.52,459.84Z" transform="translate(-768.155 -459.84)" fill="#ffd7a6"/></g><g transform="translate(24.079 9.79)"><path d="M817.125,454.252l-8.374,27.041h4.885l8.025-25.122Z" transform="translate(-808.751 -454.252)" fill="#ffd7a6"/></g><g transform="translate(30.534 5.603)"><path d="M829.229,447.193l-9.6,31.228h4.885l9.246-29.309Z" transform="translate(-819.634 -447.193)" fill="#ffd7a6"/></g><g transform="translate(2.97 34.912)"><path d="M773.161,496.607l4.885,16.923h24.6l4.536-16.923Z" transform="translate(-773.161 -496.607)" fill="#ffd7a6"/></g><g transform="translate(3.44)"><path d="M786.174,472.659a.794.794,0,0,1-.055-.174l-.13-.518c-.113-.476-.27-1.145-.473-2-.4-1.76-.978-4.278-1.69-7.391l-5.521-24.644.15.12h-4.307l.151-.188,5.555,24.665c.689,3.122,1.245,5.646,1.635,7.411.183.859.326,1.532.428,2.011.043.217.078.39.1.524a.793.793,0,0,1,.025.181.854.854,0,0,1-.055-.174l-.133-.517c-.114-.476-.276-1.145-.483-2l-1.728-7.389c-1.439-6.279-3.428-14.957-5.649-24.644l-.043-.189h4.625l.027.121,5.427,24.665,1.6,7.411c.178.859.318,1.532.418,2.011l.1.524A.856.856,0,0,1,786.174,472.659Z" transform="translate(-773.955 -437.747)" fill="#ffd7a6"/></g></g><g transform="translate(410.989 361.874)"><path d="M662.534,526.224c0,.085-56.315.154-125.766.154-69.476,0-125.779-.069-125.779-.154s56.3-.155,125.779-.155C606.22,526.069,662.534,526.138,662.534,526.224Z" transform="translate(-410.989 -526.069)" fill="#263238"/></g><g transform="translate(606.775 199.904)"><g transform="translate(0 0)"><path d="M780.64,253.229a2.285,2.285,0,0,0-.421-.129,2.915,2.915,0,0,0-1.286.018,4.649,4.649,0,0,0-1.87.96,9.907,9.907,0,0,0-1.9,2.212,39.731,39.731,0,0,0-3.287,7.437,108.941,108.941,0,0,0-3.345,10.457l0,.014,0,.008a3.053,3.053,0,0,1-.692.856,1.366,1.366,0,0,1-1.078.345,2,2,0,0,1-.994-.573c-.276-.257-.537-.531-.8-.806a18.449,18.449,0,0,0-1.644-1.6,3.032,3.032,0,0,0-2.078-.849,2.814,2.814,0,0,0-1.906,1.27,4.788,4.788,0,0,0-.656,2.356,23.766,23.766,0,0,0,.687,5.185q.5,2.66,1.015,5.449.26,1.393.525,2.819l.267,1.432a1.858,1.858,0,0,1-.17,1.519.748.748,0,0,1-.792.269,2,2,0,0,1-.7-.365l-1.2-.9a26.956,26.956,0,0,0-2.513-1.692,9.571,9.571,0,0,0-2.811-1.17,3.3,3.3,0,0,0-1.5.01,2.212,2.212,0,0,0-1.219.819,5.024,5.024,0,0,0-.8,2.964,16.622,16.622,0,0,0,.311,3.215,41.06,41.06,0,0,0,1.808,6.393,8.516,8.516,0,0,1,.518,1.65,1.2,1.2,0,0,1-.219.915,1.1,1.1,0,0,1-.172.173.574.574,0,0,1-.231.136.707.707,0,0,1-.516-.114,8.836,8.836,0,0,1-1.372-1.091l-1.271-1.179a18.844,18.844,0,0,0-2.7-2.172,5.662,5.662,0,0,0-1.556-.708,1.932,1.932,0,0,0-1.586.2,2.294,2.294,0,0,0-.9,1.374,6.991,6.991,0,0,0-.212,1.736,14.618,14.618,0,0,0,.447,3.543,30.836,30.836,0,0,0,2.575,6.818,51.692,51.692,0,0,0,3.839,6.378,36.678,36.678,0,0,0,2.311,2.982l2.408,2.951.028.034-.142-.055,3.771-.549a34.627,34.627,0,0,0,3.72-.641,51.614,51.614,0,0,0,7.133-2.139,30.861,30.861,0,0,0,6.494-3.314,14.651,14.651,0,0,0,2.715-2.322,6.993,6.993,0,0,0,1.011-1.427,2.3,2.3,0,0,0,.262-1.62,1.929,1.929,0,0,0-1.04-1.214,5.662,5.662,0,0,0-1.628-.523,18.833,18.833,0,0,0-3.459-.206l-1.734.017a8.809,8.809,0,0,1-1.75-.114.707.707,0,0,1-.458-.264.579.579,0,0,1-.079-.256,1.11,1.11,0,0,1-.011-.243,1.2,1.2,0,0,1,.454-.825,8.558,8.558,0,0,1,1.493-.872,41,41,0,0,0,5.638-3.517,16.612,16.612,0,0,0,2.391-2.172,5.017,5.017,0,0,0,1.4-2.733,2.217,2.217,0,0,0-.354-1.425,3.3,3.3,0,0,0-1.1-1.012,9.589,9.589,0,0,0-2.869-1.023,26.944,26.944,0,0,0-3-.437l-1.5-.142a1.975,1.975,0,0,1-.765-.2.749.749,0,0,1-.4-.735,1.871,1.871,0,0,1,.9-1.235l1.16-.881,2.284-1.733,4.415-3.351a23.689,23.689,0,0,0,3.994-3.377,4.77,4.77,0,0,0,1.1-2.185,2.806,2.806,0,0,0-.559-2.22,2.041,2.041,0,0,0-.97-.579,4.709,4.709,0,0,0-1.139-.187,18.431,18.431,0,0,0-2.295.082c-.378.028-.754.055-1.132.059a2,2,0,0,1-1.12-.244,1.367,1.367,0,0,1-.566-.98,3.059,3.059,0,0,1,.064-1.1l0-.009.007-.012a108.792,108.792,0,0,0,4.548-9.972,40.843,40.843,0,0,0,2.578-7.7,10.015,10.015,0,0,0,.117-2.908,4.713,4.713,0,0,0-.69-1.982,2.831,2.831,0,0,0-.919-.9,2.151,2.151,0,0,0-.4-.192,1.557,1.557,0,0,1,.408.169,2.8,2.8,0,0,1,.948.89,4.731,4.731,0,0,1,.723,2,10.038,10.038,0,0,1-.094,2.935A40.493,40.493,0,0,1,780,266.932a107.512,107.512,0,0,1-4.52,10.008l.009-.021a2.874,2.874,0,0,0-.056,1.023,1.173,1.173,0,0,0,.485.846,1.817,1.817,0,0,0,1.012.208c.367-.005.741-.033,1.117-.062a18.583,18.583,0,0,1,2.322-.089,4.891,4.891,0,0,1,1.19.194,2.249,2.249,0,0,1,1.066.636,3.012,3.012,0,0,1,.619,2.4,4.992,4.992,0,0,1-1.138,2.293,23.887,23.887,0,0,1-4.029,3.425l-4.405,3.357-2.279,1.736-1.158.882a2.706,2.706,0,0,0-.527.464,1.188,1.188,0,0,0-.273.593.482.482,0,0,0,.269.486,1.749,1.749,0,0,0,.668.171l1.492.139a27.261,27.261,0,0,1,3.029.437,9.826,9.826,0,0,1,2.953,1.051,3.575,3.575,0,0,1,1.193,1.1,2.5,2.5,0,0,1,.4,1.594,5.277,5.277,0,0,1-1.464,2.9,16.859,16.859,0,0,1-2.43,2.212,41.225,41.225,0,0,1-5.675,3.549,8.451,8.451,0,0,0-1.435.834.914.914,0,0,0-.355.625.8.8,0,0,0,.009.183c.007.047.024.159.042.149a.511.511,0,0,0,.276.128,8.7,8.7,0,0,0,1.68.1l1.731-.019a19.129,19.129,0,0,1,3.514.209,5.941,5.941,0,0,1,1.717.553,2.229,2.229,0,0,1,1.19,1.4,2.608,2.608,0,0,1-.284,1.827,7.291,7.291,0,0,1-1.055,1.493,14.986,14.986,0,0,1-2.768,2.372,31.111,31.111,0,0,1-6.557,3.35,51.753,51.753,0,0,1-7.179,2.155,34.951,34.951,0,0,1-3.734.645l-3.777.549-.087.012-.056-.068-.028-.034-2.411-2.956a36.42,36.42,0,0,1-2.319-2.994,51.909,51.909,0,0,1-3.862-6.42,31.091,31.091,0,0,1-2.6-6.886,14.943,14.943,0,0,1-.453-3.615,7.285,7.285,0,0,1,.224-1.814,2.6,2.6,0,0,1,1.02-1.542,2.229,2.229,0,0,1,1.825-.237,5.937,5.937,0,0,1,1.642.746,19.079,19.079,0,0,1,2.74,2.208l1.269,1.178a8.7,8.7,0,0,0,1.313,1.052.513.513,0,0,0,.291.091c.006.019.094-.052.131-.082a.809.809,0,0,0,.129-.13.91.91,0,0,0,.158-.7,8.456,8.456,0,0,0-.5-1.582A41.288,41.288,0,0,1,749.5,294.8a16.9,16.9,0,0,1-.311-3.271,5.277,5.277,0,0,1,.861-3.128,2.491,2.491,0,0,1,1.365-.913,3.573,3.573,0,0,1,1.619-.011,9.793,9.793,0,0,1,2.893,1.206,27.049,27.049,0,0,1,2.536,1.712l1.2.9a1.753,1.753,0,0,0,.609.324.482.482,0,0,0,.529-.174,1.178,1.178,0,0,0,.2-.621,2.679,2.679,0,0,0-.077-.7q-.133-.72-.264-1.432l-.52-2.817-1-5.447a23.891,23.891,0,0,1-.68-5.245,5,5,0,0,1,.7-2.464,3.017,3.017,0,0,1,2.069-1.362,2.256,2.256,0,0,1,1.218.244,4.9,4.9,0,0,1,1.012.657,18.594,18.594,0,0,1,1.66,1.627c.259.275.517.547.785.8a1.822,1.822,0,0,0,.89.527,1.175,1.175,0,0,0,.928-.3,2.882,2.882,0,0,0,.646-.795l-.008.021a107.58,107.58,0,0,1,3.391-10.465,39.329,39.329,0,0,1,3.339-7.442,9.934,9.934,0,0,1,1.934-2.216,4.661,4.661,0,0,1,1.908-.951,2.872,2.872,0,0,1,1.3.007A1.648,1.648,0,0,1,780.64,253.229Z" transform="translate(-741.072 -252.998)" fill="#263238"/></g><g transform="translate(8.27 8.3)"><path d="M783.2,266.992a1.014,1.014,0,0,1-.06.194l-.2.558-.814,2.132-3.018,7.833-9.852,25.883c-3.834,10.116-7.34,19.261-9.938,25.857-1.3,3.3-2.36,5.962-3.11,7.8l-.868,2.111-.233.546a.984.984,0,0,1-.09.182,1,1,0,0,1,.06-.194l.2-.558.814-2.132,3.018-7.832,9.853-25.887c3.833-10.113,7.338-19.257,9.937-25.853,1.3-3.3,2.36-5.963,3.11-7.8.371-.9.662-1.61.868-2.111.1-.228.174-.409.233-.546A.963.963,0,0,1,783.2,266.992Z" transform="translate(-755.015 -266.992)" fill="#263238"/></g><g transform="translate(26.406 28.765)"><path d="M795.96,301.5a10.469,10.469,0,0,1-1.484.881l-3.633,2.021c-1.42.789-2.713,1.493-3.667,1.971a7.909,7.909,0,0,1-1.584.69,12.117,12.117,0,0,1,1.482-.883l3.62-2.048c1.421-.789,2.723-1.476,3.682-1.944A8.806,8.806,0,0,1,795.96,301.5Z" transform="translate(-785.591 -301.494)" fill="#263238"/></g><g transform="translate(19.899 21.813)"><path d="M780.647,301.934c-.077.038-1.487-2.654-3.15-6.012s-2.95-6.111-2.874-6.149,1.487,2.654,3.151,6.012S780.723,301.9,780.647,301.934Z" transform="translate(-774.62 -289.773)" fill="#263238"/></g><g transform="translate(12.985 40.608)"><path d="M770.718,330.625a9.082,9.082,0,0,1-1.3-1.188c-.769-.77-1.8-1.866-2.875-3.137s-1.987-2.468-2.618-3.355a8.934,8.934,0,0,1-.955-1.483,11.319,11.319,0,0,1,1.13,1.352c.674.852,1.608,2.024,2.679,3.287s2.071,2.379,2.8,3.186A11.02,11.02,0,0,1,770.718,330.625Z" transform="translate(-762.963 -321.461)" fill="#263238"/></g><g transform="translate(20.75 47.215)"><path d="M786.895,332.608a8.549,8.549,0,0,1-1.564.458c-.974.244-2.326.561-3.822.893s-2.855.615-3.842.8a8.555,8.555,0,0,1-1.611.245,8.548,8.548,0,0,1,1.564-.458c.975-.244,2.326-.562,3.823-.893s2.855-.615,3.842-.8A8.547,8.547,0,0,1,786.895,332.608Z" transform="translate(-776.055 -332.599)" fill="#263238"/></g><g transform="translate(14.861 61.745)"><path d="M780.049,357.1a13.861,13.861,0,0,1-2.016.538c-1.254.294-2.991.679-4.912,1.085s-3.666.757-4.932,1a13.816,13.816,0,0,1-2.061.324,14,14,0,0,1,2.016-.537c1.254-.294,2.991-.679,4.913-1.085s3.666-.757,4.931-1A13.971,13.971,0,0,1,780.049,357.1Z" transform="translate(-766.127 -357.096)" fill="#263238"/></g><g transform="translate(5.653 52.639)"><path d="M760.124,353.637a2.248,2.248,0,0,1-.445-.405c-.273-.273-.656-.68-1.123-1.189-.93-1.02-2.185-2.459-3.5-4.105s-2.449-3.182-3.239-4.315c-.4-.566-.706-1.03-.915-1.355a2.294,2.294,0,0,1-.3-.524,2.219,2.219,0,0,1,.4.454l.994,1.3c.833,1.1,1.989,2.61,3.3,4.25s2.536,3.1,3.423,4.154A17.712,17.712,0,0,1,760.124,353.637Z" transform="translate(-750.603 -341.744)" fill="#263238"/></g></g><g transform="translate(605.123 232.162)"><g transform="translate(0)"><path d="M749.18,379.389c-10.3-8.3-11.792-22.5-10.5-35.078.216-2.1.137-4.335,1.265-6.114s3.551-2.88,5.375-1.864c1.513.843,2.07,2.708,2.841,4.272a12.344,12.344,0,0,0,4.613,5.054c1.293.788,2.922,1.326,4.3.687,1.884-.877,2.271-3.371,2.4-5.466q.365-5.856.73-11.71A19.571,19.571,0,0,1,761.26,323a6.508,6.508,0,0,1,4.383-4.11c2.03-.421,4.414.9,4.694,2.974a19.381,19.381,0,0,1-.12,2.611,2.208,2.208,0,0,0,1.147,2.161,2.539,2.539,0,0,0,2.365-.8,27.912,27.912,0,0,0,5.516-7.2,38.723,38.723,0,0,1,5.2-7.466,11.349,11.349,0,0,1,7.966-3.776c3.01.036,6.078,2.106,6.634,5.1s-1.37,5.88-3.408,8.141a46.83,46.83,0,0,1-10.366,8.607,3.856,3.856,0,0,0-1.748,1.638c-.55,1.365.677,2.842,2.024,3.4,1.524.627,3.229.581,4.848.885s3.338,1.145,3.85,2.731c.711,2.2-1.233,4.319-3.1,5.667a40.113,40.113,0,0,1-12.317,6.027,13.539,13.539,0,0,0-4.55,1.838c-1.316,1-2.195,2.828-1.546,4.353s2.543,2.132,4.177,1.943a27.959,27.959,0,0,0,4.715-1.44c2.951-.889,6.653-.435,8.325,2.177a6.642,6.642,0,0,1,.3,5.907,15.313,15.313,0,0,1-3.529,4.956,40.351,40.351,0,0,1-18.017,10.9c-6.833,1.857-13.06,2.059-19.526-.822" transform="translate(-738.287 -307.383)" fill="#ff3c00"/></g></g><g transform="translate(605.123 232.162)" opacity="0.1"><g transform="translate(0)"><path d="M749.18,379.389c-10.3-8.3-11.792-22.5-10.5-35.078.216-2.1.137-4.335,1.265-6.114s3.551-2.88,5.375-1.864c1.513.843,2.07,2.708,2.841,4.272a12.344,12.344,0,0,0,4.613,5.054c1.293.788,2.922,1.326,4.3.687,1.884-.877,2.271-3.371,2.4-5.466q.365-5.856.73-11.71A19.571,19.571,0,0,1,761.26,323a6.508,6.508,0,0,1,4.383-4.11c2.03-.421,4.414.9,4.694,2.974a19.381,19.381,0,0,1-.12,2.611,2.208,2.208,0,0,0,1.147,2.161,2.539,2.539,0,0,0,2.365-.8,27.912,27.912,0,0,0,5.516-7.2,38.723,38.723,0,0,1,5.2-7.466,11.349,11.349,0,0,1,7.966-3.776c3.01.036,6.078,2.106,6.634,5.1s-1.37,5.88-3.408,8.141a46.83,46.83,0,0,1-10.366,8.607,3.856,3.856,0,0,0-1.748,1.638c-.55,1.365.677,2.842,2.024,3.4,1.524.627,3.229.581,4.848.885s3.338,1.145,3.85,2.731c.711,2.2-1.233,4.319-3.1,5.667a40.113,40.113,0,0,1-12.317,6.027,13.539,13.539,0,0,0-4.55,1.838c-1.316,1-2.195,2.828-1.546,4.353s2.543,2.132,4.177,1.943a27.959,27.959,0,0,0,4.715-1.44c2.951-.889,6.653-.435,8.325,2.177a6.642,6.642,0,0,1,.3,5.907,15.313,15.313,0,0,1-3.529,4.956,40.351,40.351,0,0,1-18.017,10.9c-6.833,1.857-13.06,2.059-19.526-.822" transform="translate(-738.287 -307.383)"/></g></g><g transform="translate(615.209 234.184)"><path d="M755.292,390.114a92.141,92.141,0,0,1,4.6-17.02,187.947,187.947,0,0,1,8.832-19.686l2.58-5.041c.851-1.653,1.694-3.292,2.618-4.844a93.892,93.892,0,0,1,5.821-8.615c1.984-2.651,3.963-5.093,5.831-7.364s3.659-4.348,5.367-6.175a74.5,74.5,0,0,1,8.695-8.013c1.1-.862,1.969-1.5,2.567-1.93l.682-.481a1.579,1.579,0,0,1,.24-.152,1.434,1.434,0,0,1-.217.185l-.66.511c-.582.447-1.439,1.107-2.52,1.986a78.759,78.759,0,0,0-8.589,8.082c-1.691,1.834-3.46,3.919-5.32,6.193s-3.823,4.724-5.794,7.374a95.128,95.128,0,0,0-5.779,8.593c-.916,1.545-1.751,3.17-2.6,4.828s-1.706,3.338-2.577,5.039a192.911,192.911,0,0,0-8.843,19.635,93.763,93.763,0,0,0-4.667,16.94" transform="translate(-755.292 -310.792)" fill="#263238"/></g><g transform="translate(632.467 243.664)"><g transform="translate(0 0)"><path d="M785.875,350.018a4.277,4.277,0,0,1-.143-.907c-.071-.586-.144-1.437-.219-2.49-.153-2.105-.265-5.019-.377-8.232s-.265-6.119-.449-8.216c-.09-1.048-.17-1.9-.234-2.482a4.142,4.142,0,0,1-.055-.917,4.187,4.187,0,0,1,.2.9c.109.58.232,1.426.356,2.475.255,2.1.453,5.011.563,8.229.1,3.171.194,6.039.264,8.231.038.99.071,1.824.1,2.494A4.146,4.146,0,0,1,785.875,350.018Z" transform="translate(-784.388 -326.775)" fill="#263238"/></g></g><g transform="translate(633.955 263.581)"><g transform="translate(0 0)"><path d="M814.158,360.5a5.82,5.82,0,0,1-1.083.055c-.695.014-1.7.029-2.942.087-2.483.1-5.909.351-9.677.8s-7.16,1.008-9.6,1.48c-1.224.227-2.208.438-2.89.58a5.785,5.785,0,0,1-1.068.186,5.77,5.77,0,0,1,1.034-.334c.673-.187,1.651-.439,2.871-.7,2.435-.543,5.832-1.142,9.612-1.6a95.116,95.116,0,0,1,9.714-.684c1.247-.023,2.256,0,2.952.037A5.729,5.729,0,0,1,814.158,360.5Z" transform="translate(-786.896 -360.353)" fill="#263238"/></g></g><g transform="translate(608.982 260.706)"><g transform="translate(0 0)"><path d="M755.989,390.814a1.4,1.4,0,0,1-.162-.341l-.393-1.005c-.338-.874-.794-2.153-1.336-3.739-1.087-3.173-2.451-7.6-3.889-12.511s-2.76-9.347-3.78-12.537c-.5-1.551-.912-2.828-1.218-3.776l-.326-1.03a1.367,1.367,0,0,1-.088-.368,1.44,1.44,0,0,1,.162.342l.393,1c.338.875.794,2.153,1.336,3.74,1.087,3.173,2.451,7.6,3.89,12.512s2.76,9.345,3.779,12.536l1.218,3.775.326,1.03A1.388,1.388,0,0,1,755.989,390.814Z" transform="translate(-744.793 -355.506)" fill="#263238"/></g></g><g transform="translate(620.178 286.935)"><path d="M800.229,399.731a1.42,1.42,0,0,1-.365.122l-1.062.277-3.915.978c-3.306.827-7.859,2.022-12.888,3.348s-9.6,2.482-12.923,3.24c-1.662.38-3.01.674-3.945.858l-1.078.206a1.419,1.419,0,0,1-.382.045,1.489,1.489,0,0,1,.365-.123l1.062-.276,3.915-.978c3.306-.827,7.859-2.021,12.89-3.349s9.6-2.481,12.921-3.24c1.662-.38,3.01-.674,3.946-.858l1.078-.205A1.436,1.436,0,0,1,800.229,399.731Z" transform="translate(-763.669 -399.727)" fill="#263238"/></g><g transform="translate(474.57 140.432)"><rect width="143.841" height="197.103" fill="#455a64"/></g><g transform="translate(486.548 148.398)"><path d="M664.554,343.576H538.376V166.162H664.554V343.576Z" transform="translate(-538.376 -166.162)" fill="#e0e0e0"/></g><g transform="translate(485.691 146.052)"><path d="M661.974,338.675H536.933V162.206H661.974V338.675Z" transform="translate(-536.933 -162.206)" fill="#ebebeb"/></g><g transform="translate(483.202 146.345)"><g transform="translate(0.155 0.154)"><path d="M646.936,325.249l-14.4,11.727H533V162.961H659.175V315.327Z" transform="translate(-532.997 -162.961)" fill="#fafafa"/></g><path d="M646.83,325.143s.255-.218.769-.64l2.307-1.886,9.131-7.433-.018.038c-.015-25.028-.047-80.641-.09-152.366l.139.139-125.076.015h-1.1l.154-.154c-.011,65.421-.022,125.773-.031,174.015l-.123-.123,99.537.071-.033.012,10.815-8.773,2.711-2.19c.6-.485.909-.723.909-.723s-.294.252-.892.744l-2.693,2.211-10.783,8.813-.015.012h-.019l-99.537.071h-.124v-.124c-.008-48.242-.019-108.594-.031-174.015V162.7h1.256l125.076.015h.14v.139c-.043,71.725-.076,127.338-.091,152.366v.024l-.018.015-9.162,7.4-2.323,1.867C647.1,324.939,646.83,325.143,646.83,325.143Z" transform="translate(-532.736 -162.701)" fill="#263238"/></g><g transform="translate(520.67 134.338)"><path d="M14.757,0h22.73A14.154,14.154,0,0,1,51.641,14.154V17.7a0,0,0,0,1,0,0H0a0,0,0,0,1,0,0V14.757A14.757,14.757,0,0,1,14.757,0Z" transform="translate(0)" fill="#ff3c00"/></g><g transform="translate(531.431 124.789)"><path d="M615.934,135.908l-1.888-9.549H643.78l-1.652,9.549Z" transform="translate(-614.046 -126.358)" fill="#ff3c00"/></g><g transform="translate(496.554 174.223)"><path d="M576.5,230.959H555.247V209.7H576.5Zm-20.664-.593h20.071V210.294H555.84Z" transform="translate(-555.247 -209.701)" fill="#ff3c00"/></g><g transform="translate(526.835 179.202)"><path d="M672.392,218.25c0,.085-14.8.154-33.045.154s-33.049-.069-33.049-.154,14.794-.155,33.049-.155S672.392,218.164,672.392,218.25Z" transform="translate(-606.298 -218.095)" fill="#263238"/></g><g transform="translate(526.835 183.62)"><path d="M672.392,225.7c0,.085-14.8.154-33.045.154s-33.049-.069-33.049-.154,14.794-.154,33.049-.154S672.392,225.612,672.392,225.7Z" transform="translate(-606.298 -225.543)" fill="#263238"/></g><g transform="translate(526.835 188.037)"><g transform="translate(0 0)"><path d="M672.392,233.144c0,.085-14.8.155-33.045.155s-33.049-.069-33.049-.155,14.794-.154,33.049-.154S672.392,233.059,672.392,233.144Z" transform="translate(-606.298 -232.99)" fill="#263238"/></g></g><g transform="translate(526.835 192.454)"><path d="M672.392,240.592c0,.085-14.8.154-33.045.154s-33.049-.069-33.049-.154,14.794-.155,33.049-.155S672.392,240.506,672.392,240.592Z" transform="translate(-606.298 -240.437)" fill="#263238"/></g><g transform="translate(496.554 206.985)"><path d="M576.5,286.192H555.247V264.935H576.5ZM555.84,285.6h20.071V265.528H555.84Z" transform="translate(-555.247 -264.935)" fill="#ff3c00"/></g><g transform="translate(500.781 208.33)"><path d="M562.373,276.924l2.822-3.031,4.7,3.763L580.664,267.2l2.579,3.04-13.554,13.37Z" transform="translate(-562.373 -267.204)" fill="#ff3c00"/></g><g transform="translate(526.835 211.963)"><path d="M672.392,273.483c0,.085-14.8.155-33.045.155s-33.049-.069-33.049-.155,14.794-.154,33.049-.154S672.392,273.4,672.392,273.483Z" transform="translate(-606.298 -273.329)" fill="#263238"/></g><g transform="translate(526.835 216.381)"><path d="M672.392,280.93c0,.085-14.8.155-33.045.155s-33.049-.069-33.049-.155,14.794-.154,33.049-.154S672.392,280.845,672.392,280.93Z" transform="translate(-606.298 -280.776)" fill="#263238"/></g><g transform="translate(526.835 220.798)"><path d="M672.392,288.378c0,.085-14.8.154-33.045.154s-33.049-.069-33.049-.154,14.794-.155,33.049-.155S672.392,288.292,672.392,288.378Z" transform="translate(-606.298 -288.223)" fill="#263238"/></g><g transform="translate(526.835 225.215)"><g transform="translate(0 0)"><path d="M672.392,295.825c0,.085-14.8.154-33.045.154s-33.049-.069-33.049-.154,14.794-.154,33.049-.154S672.392,295.74,672.392,295.825Z" transform="translate(-606.298 -295.671)" fill="#263238"/></g></g><g transform="translate(496.554 238.686)"><path d="M576.5,339.64H555.247V318.382H576.5Zm-20.664-.593h20.071V318.975H555.84Z" transform="translate(-555.247 -318.382)" fill="#ff3c00"/></g><g transform="translate(500.781 240.033)"><path d="M562.373,330.372l2.822-3.031,4.7,3.763,10.765-10.452,2.579,3.04-13.554,13.37Z" transform="translate(-562.373 -320.652)" fill="#ff3c00"/></g><g transform="translate(526.835 243.666)"><g transform="translate(0 0)"><path d="M672.392,326.931c0,.085-14.8.155-33.045.155s-33.049-.069-33.049-.155,14.794-.154,33.049-.154S672.392,326.846,672.392,326.931Z" transform="translate(-606.298 -326.777)" fill="#263238"/></g></g><g transform="translate(526.835 248.083)"><path d="M672.392,334.379c0,.085-14.8.154-33.045.154s-33.049-.069-33.049-.154,14.794-.155,33.049-.155S672.392,334.293,672.392,334.379Z" transform="translate(-606.298 -334.224)" fill="#263238"/></g><g transform="translate(526.835 252.5)"><path d="M672.392,341.826c0,.085-14.8.154-33.045.154s-33.049-.069-33.049-.154,14.794-.155,33.049-.155S672.392,341.74,672.392,341.826Z" transform="translate(-606.298 -341.671)" fill="#263238"/></g><g transform="translate(526.835 256.918)"><path d="M672.392,349.273c0,.085-14.8.155-33.045.155s-33.049-.069-33.049-.155,14.794-.154,33.049-.154S672.392,349.188,672.392,349.273Z" transform="translate(-606.298 -349.119)" fill="#263238"/></g><g transform="translate(496.554 269.296)"><path d="M576.5,391.246H555.247V369.988H576.5Zm-20.664-.593h20.071V370.581H555.84Z" transform="translate(-555.247 -369.988)" fill="#ff3c00"/><g transform="translate(4.227 1.346)"><path d="M562.373,381.978l2.822-3.031,4.7,3.763,10.765-10.452,2.579,3.04-13.554,13.37Z" transform="translate(-562.373 -372.257)" fill="#ff3c00"/></g><g transform="translate(30.28 4.979)"><path d="M672.392,378.537c0,.085-14.8.154-33.045.154s-33.049-.069-33.049-.154,14.794-.155,33.049-.155S672.392,378.451,672.392,378.537Z" transform="translate(-606.298 -378.382)" fill="#263238"/></g><g transform="translate(30.28 9.397)"><path d="M672.392,385.984c0,.085-14.8.154-33.045.154s-33.049-.069-33.049-.154,14.794-.154,33.049-.154S672.392,385.9,672.392,385.984Z" transform="translate(-606.298 -385.83)" fill="#263238"/></g><g transform="translate(30.28 13.814)"><path d="M672.392,393.431c0,.085-14.8.155-33.045.155s-33.049-.069-33.049-.155,14.794-.154,33.049-.154S672.392,393.346,672.392,393.431Z" transform="translate(-606.298 -393.277)" fill="#263238"/></g><g transform="translate(30.28 18.231)"><path d="M672.392,400.879c0,.085-14.8.154-33.045.154s-33.049-.069-33.049-.154,14.794-.155,33.049-.155S672.392,400.793,672.392,400.879Z" transform="translate(-606.298 -400.724)" fill="#263238"/></g></g><g transform="translate(573.018 291.704)"><path d="M697.992,407.766l-13.833,28.649h9.877Z" transform="translate(-684.159 -407.766)" fill="#e0e0e0"/></g><g transform="translate(582.894 291.676)"><g transform="translate(0.001 0.19)"><path d="M700.81,436.688l3.957-28.649,22.684,7Z" transform="translate(-700.81 -408.039)" fill="#fafafa"/></g><g transform="translate(0)"><path d="M700.81,436.558l7.628-6.278,18.918-15.487.05.262-8.758-2.7-13.925-4.307.187-.119c-1.186,8.322-2.2,15.45-2.923,20.518-.715,4.926-1.084,7.469-1.178,8.111,0,0,0-.039.013-.127l.05-.4q.073-.557.2-1.56c.184-1.392.448-3.393.779-5.906.683-5.108,1.644-12.292,2.766-20.68l.023-.17.164.05,13.93,4.29,8.756,2.706.271.084-.22.178L708.4,430.471l-5.591,4.492-1.492,1.2-.382.3A1.32,1.32,0,0,1,700.81,436.558Z" transform="translate(-700.809 -407.719)" fill="#263238"/></g></g><g transform="translate(557.471 124.789)" opacity="0.3"><path d="M659.588,126.358l-1.64,9.549h2.042l1.652-9.549h-2.6" transform="translate(-657.948 -126.358)"/></g><g transform="translate(458.338 185.877)"><g transform="translate(9.182 7.871)"><path d="M510.794,274.378h0a5.335,5.335,0,0,0,5.74-5.116c.111-2.9.209-5.841.209-5.841s4.4-.412,4.72-4.768.174-14.411.174-14.411h0a15.178,15.178,0,0,0-15.34.986l.272,15.33v8.247C506.6,271.572,508.035,274.166,510.794,274.378Z" transform="translate(-506.297 -242.618)" fill="#ffbf9d"/></g><g transform="translate(6.92 4.218)"><path d="M515.57,250.83a2.232,2.232,0,0,0-2.976-.649,2.53,2.53,0,0,0-.843,3.165,3.336,3.336,0,0,0,2.137,1.616,1.673,1.673,0,0,1,1.31,1.8,5.579,5.579,0,0,1-1.53,3.033,8.038,8.038,0,0,1-5.042,2.389c-1.855.219-3.981-.167-5.06-1.692a6.914,6.914,0,0,1-.87-3.918l-.2-9.635a13.755,13.755,0,0,1,.219-3.457,4.64,4.64,0,0,1,1.823-2.858c1.059-.7,2.4-.757,3.608-1.147a29.843,29.843,0,0,0,4.2-2.211,5.165,5.165,0,0,1,4.559-.442c1.017.511,1.7,1.526,2.688,2.088,1.408.8,3.325.619,4.009,2.689a3.516,3.516,0,0,1-.023,2.215,5.118,5.118,0,0,1-6.959,2.736,6.9,6.9,0,0,1-.082,3.048c-.16.482-.218,1.217-.97,1.23" transform="translate(-502.483 -236.46)" fill="#263238"/></g><g transform="translate(0.589 0)"><path d="M499.208,238.97a14.81,14.81,0,0,0,1.4-4.376,5.014,5.014,0,0,0-1.372-4.229,4.126,4.126,0,0,0-2.871-1.015,4.855,4.855,0,0,0-4.377,3.468,5.23,5.23,0,0,0,1.76,5.358,5.67,5.67,0,0,0,5.643.736" transform="translate(-491.81 -229.349)" fill="#263238"/></g><g transform="translate(6.778 8.032)"><path d="M504.308,242.892a2.143,2.143,0,0,1-2.064,2.016c-.021-.088.638-.263,1.206-.83S504.22,242.869,504.308,242.892Z" transform="translate(-502.243 -242.891)" fill="#ff4f5b"/></g><g transform="translate(2.451 5.136)"><path d="M499.907,241.97a4.122,4.122,0,0,1-1.183.865,3.406,3.406,0,0,1-1.558.441,2.169,2.169,0,0,1-1.819-.816,2.424,2.424,0,0,1-.322-1.969,3.821,3.821,0,0,1,.733-1.442,4.556,4.556,0,0,1,1.031-1.04,13.777,13.777,0,0,1-.854,1.168,3.912,3.912,0,0,0-.631,1.375,2.2,2.2,0,0,0,.293,1.726,1.927,1.927,0,0,0,1.569.713,3.42,3.42,0,0,0,1.462-.352C499.42,242.256,499.878,241.924,499.907,241.97Z" transform="translate(-494.948 -238.009)" fill="#263238"/></g><g transform="translate(0 9.609)"><path d="M490.822,249.957a1.9,1.9,0,0,1,.212.483,4.993,4.993,0,0,0,.642,1.241,1.8,1.8,0,0,0,1.706.784,2.341,2.341,0,0,0,1.641-1.652,16.963,16.963,0,0,0,.445-2.531,3.913,3.913,0,0,1,.832-2,2.141,2.141,0,0,1,1.268-.723.839.839,0,0,1,.533.045c0,.03-.193-.008-.511.073a2.156,2.156,0,0,0-1.125.747,3.846,3.846,0,0,0-.716,1.9,15.122,15.122,0,0,1-.434,2.584,2.593,2.593,0,0,1-1.884,1.833,1.736,1.736,0,0,1-1.181-.228,2.467,2.467,0,0,1-.751-.706,4.292,4.292,0,0,1-.58-1.333A1.626,1.626,0,0,1,490.822,249.957Z" transform="translate(-490.816 -245.548)" fill="#263238"/></g></g><g transform="translate(455.217 236.487)"><path d="M486.541,314.674s-2.22,16.264,0,18.326a4.642,4.642,0,0,0,4.357,1.377l4.227-3.535.832-16.168Z" transform="translate(-485.554 -314.674)" fill="#ffbf9d"/></g><g transform="translate(502.146 181.11)"><path d="M564.673,231.032,567.5,228l4.7,3.763,10.765-10.452,2.579,3.04-13.553,13.37Z" transform="translate(-564.673 -221.312)" fill="#ff3c00"/></g><g transform="translate(491.35 191.655)"><path d="M570.529,239.091l-4.092,2.626c-.185-1.617-1.42-3.221-1.357-2.408s.008,5.028.008,5.028l-7.3,15.358a7.27,7.27,0,0,1-4.5,4.323l-6.813,2.026,2.664,9.007,9.469-3.139a8.167,8.167,0,0,0,5.189-5.2l6.528-19.884a30.888,30.888,0,0,0,1.055-3.918A7.47,7.47,0,0,0,570.529,239.091Z" transform="translate(-546.473 -239.091)" fill="#ffbf9d"/></g><g transform="translate(473.196 355.064)"><g transform="translate(0.044)"><path d="M524.574,519.141l-.1-4.554-8.532.136.079,6.664.529.025c2.357.093,11.987.307,13.553-.195C531.849,520.658,524.574,519.141,524.574,519.141Z" transform="translate(-515.941 -514.587)" fill="#ff4f5b"/><g transform="translate(0.049 4.282)" opacity="0.5"><path d="M519.146,524.208a2.958,2.958,0,0,0-1.118-1.8,2.874,2.874,0,0,0-2-.588l.036,2.384Z" transform="translate(-516.024 -521.806)" fill="#fff"/></g></g><g transform="translate(0.123 5.421)" opacity="0.4"><path d="M528.185,523.727s2.552.692,2.242,1.116-10.051.574-14.353.263l.011-.191,11.363-.078S527.689,523.755,528.185,523.727Z" transform="translate(-516.074 -523.727)" fill="#fff"/></g><g transform="translate(0 6.391)"><path d="M515.866,525.577a.758.758,0,0,0,.146.014l.422.019,1.552.043c1.31.027,3.121.04,5.121.011s3.81-.1,5.119-.161l1.549-.088.421-.031a.789.789,0,0,0,.146-.018.827.827,0,0,0-.147,0l-.422.012-1.551.056c-1.309.046-3.118.1-5.118.13s-3.809.027-5.118.019l-1.552-.01h-.422A.778.778,0,0,0,515.866,525.577Z" transform="translate(-515.866 -525.362)" fill="#263238"/></g><g transform="translate(11.48 5.316)"><path d="M535.238,524.9a2.251,2.251,0,0,1,.8-1.346,1.377,1.377,0,0,0-.8,1.346Z" transform="translate(-535.221 -523.549)" fill="#263238"/></g><g transform="translate(8.956 4.708)"><path d="M530.969,523.242c.024.015.142-.133.264-.332s.2-.371.176-.386-.142.133-.264.332S530.945,523.228,530.969,523.242Z" transform="translate(-530.965 -522.524)" fill="#263238"/></g><g transform="translate(8.261 4.582)"><path d="M529.8,522.8c.02.021.152-.071.3-.205s.247-.26.227-.281-.152.071-.3.205S529.777,522.781,529.8,522.8Z" transform="translate(-529.794 -522.312)" fill="#263238"/></g><g transform="translate(7.815 4.219)"><path d="M529.041,521.754a1.016,1.016,0,0,0,.446.05,1,1,0,0,0,.445-.054,1.015,1.015,0,0,0-.446-.05A1,1,0,0,0,529.041,521.754Z" transform="translate(-529.041 -521.7)" fill="#263238"/></g><g transform="translate(7.655 3.698)"><path d="M528.773,520.831a1.252,1.252,0,0,0,1.011.061,36.269,36.269,0,0,1-1.011-.061Z" transform="translate(-528.773 -520.822)" fill="#263238"/></g><g transform="translate(9.238 3.894)"><path d="M531.441,521.935a1.59,1.59,0,0,0,.548-.012,3.16,3.16,0,0,0,.581-.138,1.581,1.581,0,0,0,.332-.142.3.3,0,0,0,.133-.173.216.216,0,0,0-.086-.218,1.006,1.006,0,0,0-1.239.313.981.981,0,0,0-.173.368.309.309,0,0,0-.012.148,1.556,1.556,0,0,1,.243-.471.993.993,0,0,1,.464-.311.848.848,0,0,1,.654.034c.088.063.056.166-.04.225a1.677,1.677,0,0,1-.307.136,3.8,3.8,0,0,1-.562.155C531.649,521.914,531.44,521.918,531.441,521.935Z" transform="translate(-531.441 -521.151)" fill="#263238"/></g><g transform="translate(8.652 3.649)"><path d="M531.181,521.793a.543.543,0,0,0,.057-.382.9.9,0,0,0-.155-.4.55.55,0,0,0-.461-.272.217.217,0,0,0-.165.256.6.6,0,0,0,.1.243,1.667,1.667,0,0,0,.264.328.8.8,0,0,0,.317.217c.009-.014-.111-.1-.265-.268a1.907,1.907,0,0,1-.235-.326c-.077-.115-.132-.322.005-.349s.279.119.365.227a.9.9,0,0,1,.161.354A2.056,2.056,0,0,1,531.181,521.793Z" transform="translate(-530.453 -520.74)" fill="#263238"/></g><g transform="translate(0.138 4.205)"><path d="M516.1,521.741c0,.019.244-.027.63.013a2.674,2.674,0,0,1,2.262,1.747c.136.364.152.609.171.607a.506.506,0,0,0,0-.172,2.278,2.278,0,0,0-.1-.459,2.593,2.593,0,0,0-2.325-1.8,2.241,2.241,0,0,0-.469.02A.5.5,0,0,0,516.1,521.741Z" transform="translate(-516.099 -521.676)" fill="#263238"/></g><g transform="translate(0.92 0.706)"><path d="M517.465,515.777a29.83,29.83,0,0,0,.01,3.507,29.794,29.794,0,0,0-.01-3.507Z" transform="translate(-517.418 -515.777)" fill="#263238"/></g><g transform="translate(4.276 5.811)"><path d="M523.075,524.409a7.009,7.009,0,0,0,2.494-.015c0-.03-.56.012-1.247.015S523.078,524.378,523.075,524.409Z" transform="translate(-523.075 -524.383)" fill="#263238"/></g><g transform="translate(2.6 5.856)"><path d="M520.254,524.463c-.02.021.047.117.106.244s.092.24.121.237.042-.135-.027-.282S520.272,524.442,520.254,524.463Z" transform="translate(-520.25 -524.459)" fill="#263238"/></g><g transform="translate(1.958 5.08)"><path d="M519.17,523.156c-.02.02.037.109.126.2s.179.143.2.123-.037-.108-.126-.2S519.19,523.136,519.17,523.156Z" transform="translate(-519.166 -523.152)" fill="#263238"/></g><g transform="translate(1.054 4.689)"><path d="M517.644,522.543c.007.029.12.026.246.069s.218.107.24.088-.051-.136-.208-.186S517.635,522.517,517.644,522.543Z" transform="translate(-517.643 -522.493)" fill="#263238"/></g><g transform="translate(0.409 4.561)"><path d="M516.556,522.3c-.01.027.04.07.112.1s.136.026.146,0-.04-.07-.111-.1S516.566,522.269,516.556,522.3Z" transform="translate(-516.555 -522.276)" fill="#263238"/></g></g><g transform="translate(443.818 349.182)"><path d="M474.286,513.65l2.893-3.519-6.556-5.46-4.287,5.1.385.365c1.725,1.607,8.886,8.051,10.4,8.691C478.812,519.544,474.286,513.65,474.286,513.65Z" transform="translate(-466.336 -504.671)" fill="#ff4f5b"/><g transform="translate(0.085 3.183)" opacity="0.5"><path d="M468.814,513.886a2.957,2.957,0,0,0,.327-2.1,2.873,2.873,0,0,0-1.135-1.753l-1.527,1.831Z" transform="translate(-466.479 -510.038)" fill="#fff"/></g><g transform="translate(0 4.965)" opacity="0.4"><path d="M476.416,520.033s1.483,2.189.972,2.308-7.993-6.121-11.053-9.161l.132-.138,8.665,7.352S476.021,519.731,476.416,520.033Z" transform="translate(-466.336 -513.042)" fill="#fff"/></g><g transform="translate(0.033 4.875)"><path d="M466.392,512.89a.745.745,0,0,0,.1.106l.307.289,1.148,1.045c.976.875,2.34,2.066,3.875,3.348s2.951,2.412,3.985,3.217l1.233.944.339.251a.074.074,0,1,0,.013-.017l-.327-.266-1.212-.969c-1.023-.819-2.43-1.957-3.965-3.239s-2.9-2.463-3.892-3.324l-1.17-1.02-.32-.275A.815.815,0,0,0,466.392,512.89Z" transform="translate(-466.392 -512.89)" fill="#263238"/></g><g transform="translate(8.709 11.856)"><path d="M481.021,525.221a2.253,2.253,0,0,1,1.483-.5,1.378,1.378,0,0,0-1.483.5Z" transform="translate(-481.019 -524.659)" fill="#263238"/></g><g transform="translate(7.595 9.558)"><path d="M479.141,521.051a.891.891,0,0,0,.416-.079c.221-.071.393-.15.385-.177a.9.9,0,0,0-.416.079C479.3,520.944,479.133,521.024,479.141,521.051Z" transform="translate(-479.141 -520.786)" fill="#263238"/></g><g transform="translate(7.299 9.034)"><path d="M478.641,519.969c0,.029.162.046.359.039s.357-.036.356-.065-.162-.046-.359-.039S478.64,519.94,478.641,519.969Z" transform="translate(-478.641 -519.902)" fill="#263238"/></g><g transform="translate(7.477 8.2)"><path d="M478.944,518.5c-.018.022.119.169.305.329s.354.272.373.25-.119-.169-.306-.329S478.962,518.477,478.944,518.5Z" transform="translate(-478.942 -518.496)" fill="#263238"/></g><g transform="translate(7.724 7.67)"><path d="M479.362,517.6a1.257,1.257,0,0,0,.727.705c.015-.026-.168-.158-.365-.351S479.387,517.586,479.362,517.6Z" transform="translate(-479.358 -517.601)" fill="#263238"/></g><g transform="translate(8.262 9.309)"><path d="M480.3,520.494a1.575,1.575,0,0,0,.423.349,3.2,3.2,0,0,0,.531.275,1.623,1.623,0,0,0,.345.109.3.3,0,0,0,.214-.044.216.216,0,0,0,.077-.222,1,1,0,0,0-1.143-.57.981.981,0,0,0-.372.166c-.077.058-.11.1-.106.105a1.534,1.534,0,0,1,.491-.2.988.988,0,0,1,.555.066.85.85,0,0,1,.473.453c.026.1-.066.162-.177.144a1.634,1.634,0,0,1-.321-.1,3.763,3.763,0,0,1-.528-.249C480.469,520.614,480.308,520.481,480.3,520.494Z" transform="translate(-480.265 -520.365)" fill="#263238"/></g><g transform="translate(8.25 8.359)"><path d="M480.381,519.955c0,.01.154-.046.292-.252a.9.9,0,0,0,.142-.4.551.551,0,0,0-.171-.507.219.219,0,0,0-.292.086.6.6,0,0,0-.085.248,1.636,1.636,0,0,0-.014.421.789.789,0,0,0,.1.371c.016,0-.021-.145-.026-.375a1.885,1.885,0,0,1,.034-.4c.016-.137.11-.33.231-.261a.491.491,0,0,1,.129.41.91.91,0,0,1-.109.373A1.979,1.979,0,0,1,480.381,519.955Z" transform="translate(-480.245 -518.764)" fill="#263238"/></g><g transform="translate(1.662 3.193)"><path d="M469.138,510.055c-.011.016.2.139.47.421a2.675,2.675,0,0,1,.575,2.8c-.134.364-.282.561-.266.572s.047-.042.11-.132a2.23,2.23,0,0,0,.224-.413,2.593,2.593,0,0,0-.592-2.877,2.205,2.205,0,0,0-.368-.291A.5.5,0,0,0,469.138,510.055Z" transform="translate(-469.137 -510.054)" fill="#263238"/></g><g transform="translate(2.335 1.033)"><path d="M472.553,506.413a29.728,29.728,0,0,0-2.28,2.664,14.83,14.83,0,0,0,1.179-1.3A15.082,15.082,0,0,0,472.553,506.413Z" transform="translate(-470.272 -506.412)" fill="#263238"/></g><g transform="translate(3.776 7.079)"><path d="M472.7,516.606a7.025,7.025,0,0,0,1.9,1.615c.017-.025-.432-.355-.955-.8S472.725,516.586,472.7,516.606Z" transform="translate(-472.703 -516.606)" fill="#263238"/></g><g transform="translate(2.347 6.007)"><path d="M470.441,514.8c-.03,0-.041.12-.079.254s-.087.242-.063.259.12-.075.163-.231S470.468,514.794,470.441,514.8Z" transform="translate(-470.293 -514.798)" fill="#263238"/></g><g transform="translate(2.477 5.001)"><path d="M470.548,513.1c-.028,0-.043.106-.033.231s.042.225.071.222.043-.106.033-.231S470.577,513.1,470.548,513.1Z" transform="translate(-470.512 -513.102)" fill="#263238"/></g><g transform="translate(2.048 4.141)"><path d="M469.791,511.66c-.014.026.074.1.142.212s.094.224.124.223.05-.137-.036-.277S469.8,511.634,469.791,511.66Z" transform="translate(-469.789 -511.653)" fill="#263238"/></g><g transform="translate(1.651 3.604)"><path d="M469.133,510.75c-.025.014-.015.079.021.145s.087.109.112.1.015-.079-.021-.145S469.158,510.737,469.133,510.75Z" transform="translate(-469.12 -510.748)" fill="#263238"/></g></g><g transform="translate(444.535 257.954)"><g transform="translate(0 4.368)"><path d="M492.533,358.762s-2.841,12.019-2.037,14.4,6.008,3.752,6.008,3.752l-.176,32.911L467.546,445.4l10.629,8.7s31.158-35.644,33.9-42.1-1.75-53.767-1.75-53.767Z" transform="translate(-467.546 -358.23)" fill="#263238"/></g><g transform="translate(15.641)"><path d="M517.962,350.866l1.408,99.96-14.642.074-7.348-81.412h0c-1.553-1.482-3.739-4.022-3.437-9.684l.356-6.579Z" transform="translate(-493.916 -350.866)" fill="#263238"/></g><g transform="translate(24.248 20.23)"><path d="M508.428,426.268a.588.588,0,0,1,.085-.148l.278-.41,1.088-1.54,3.973-5.5-.025.075c-.319-3.469-.705-7.677-1.122-12.213-.531-5.945-.962-11.332-1.215-15.235-.129-1.951-.214-3.532-.261-4.625-.018-.523-.032-.941-.043-1.259a2.339,2.339,0,0,1,.006-.44,2.378,2.378,0,0,1,.056.437c.025.317.059.734.1,1.255.088,1.124.209,2.692.359,4.616.308,3.9.773,9.28,1.3,15.224.4,4.552.805,8.753,1.068,12.24l0,.039-.027.037L510,424.256l-1.144,1.5-.308.388C508.473,426.229,508.433,426.272,508.428,426.268Z" transform="translate(-508.427 -384.973)" fill="#455a64"/></g><g transform="translate(21.085 18.61)"><path d="M510.753,383.862a33.059,33.059,0,0,1-7.659-1.608,99.8,99.8,0,0,1,7.659,1.608Z" transform="translate(-503.094 -382.241)" fill="#455a64"/></g><g transform="translate(30.751 52.993)"><path d="M527.411,441.574a11.682,11.682,0,0,0-8.021-.636,3.339,3.339,0,0,1,1.141-.447,8.987,8.987,0,0,1,5.823.461A3.342,3.342,0,0,1,527.411,441.574Z" transform="translate(-519.39 -440.209)" fill="#455a64"/></g><g transform="translate(25.293 58.991)"><path d="M528.831,450.321c.068.052-4.051,5.58-9.2,12.346s-9.377,12.212-9.445,12.16,4.05-5.579,9.2-12.347S528.764,450.269,528.831,450.321Z" transform="translate(-510.188 -450.32)" fill="#455a64"/></g><g transform="translate(34.577 6.647)"><path d="M533.217,362.851a2.454,2.454,0,0,1-.824,1.087,4.078,4.078,0,0,1-5.968-.629,2.46,2.46,0,0,1-.58-1.236,12.919,12.919,0,0,0,.749,1.1,4.067,4.067,0,0,0,5.661.6A12.736,12.736,0,0,0,533.217,362.851Z" transform="translate(-525.841 -362.073)" fill="#455a64"/></g></g><g transform="translate(462.507 196.14)"><path d="M501.821,264.459a12.769,12.769,0,0,1-.693-17.808" transform="translate(-497.844 -246.651)" fill="#263238"/></g><g transform="translate(454.419 223.272)"><path d="M488.05,292.395s-3.181,3.593-3.84,17.338c0,0,9.059,1.718,9.225,1.224S488.05,292.395,488.05,292.395Z" transform="translate(-484.21 -292.395)" fill="#ff3c00"/></g><g transform="translate(454.419 223.272)" opacity="0.3"><path d="M488.05,292.395s-3.181,3.593-3.84,17.338c0,0,9.059,1.718,9.225,1.224S488.05,292.395,488.05,292.395Z" transform="translate(-484.21 -292.395)"/></g><g transform="translate(460.821 240.61)"><path d="M495,321.625" transform="translate(-495.002 -321.625)" fill="#455a64"/></g><g transform="translate(457.264 216.517)"><path d="M491.468,327.789H519.28l-.45-4.344s-3.178-16.529-3.154-16.746l.5-1.053a10.487,10.487,0,0,0,.122-8.746h0l13.618-4.657-3.334-11.237c-6.18,1.043-15.521,2.207-15.521,2.207l-1.39.117s-9.642.5-9.848.527c-4.034.488-8.727.8-10.442,5.115-.918,2.308-.046,5.773,1.451,9.345l3.565,10.972c1.424,6.03-.849,5.743-2.1,11.813C492.114,322.02,491.45,326.947,491.468,327.789Z" transform="translate(-489.006 -281.006)" fill="#ff3c00"/></g><g transform="translate(457.264 216.517)" opacity="0.3"><path d="M491.468,327.789H519.28l-.45-4.344s-3.178-16.529-3.154-16.746l.5-1.053a10.487,10.487,0,0,0,.122-8.746h0l13.618-4.657-3.334-11.237c-6.18,1.043-15.521,2.207-15.521,2.207l-1.39.117s-9.642.5-9.848.527c-4.034.488-8.727.8-10.442,5.115-.918,2.308-.046,5.773,1.451,9.345l3.565,10.972c1.424,6.03-.849,5.743-2.1,11.813C492.114,322.02,491.45,326.947,491.468,327.789Z" transform="translate(-489.006 -281.006)"/></g><g transform="translate(482.412 227.931)"><path d="M547.039,300.254a2.673,2.673,0,0,1-.6.254c-.4.144-.97.343-1.682.583-1.424.481-3.4,1.119-5.584,1.816s-4.135,1.392-5.52,1.964c-.7.281-1.249.531-1.635.7a2.7,2.7,0,0,1-.609.24,2.641,2.641,0,0,1,.556-.348c.371-.2.913-.48,1.6-.788a52.575,52.575,0,0,1,5.512-2.058c2.186-.7,4.171-1.3,5.613-1.731.721-.213,1.306-.381,1.712-.49A2.721,2.721,0,0,1,547.039,300.254Z" transform="translate(-531.404 -300.25)" fill="#263238"/></g><g transform="translate(459.702 221.799)"><path d="M529.845,290.065c0,.085-8.222.155-18.363.155s-18.365-.069-18.365-.155,8.221-.154,18.365-.154S529.845,289.98,529.845,290.065Z" transform="translate(-493.116 -289.911)" fill="#fafafa"/></g><g transform="translate(456.406 227.261)"><g transform="translate(0 0)"><path d="M528.431,299.274c0,.085-9.15.155-20.435.155s-20.437-.069-20.437-.155,9.149-.154,20.437-.154S528.431,299.189,528.431,299.274Z" transform="translate(-487.559 -299.12)" fill="#fafafa"/></g></g><g transform="translate(455.276 233.477)"><g transform="translate(0 0)"><path d="M489.06,309.753a9.445,9.445,0,0,1-3.406,0,9.478,9.478,0,0,1,3.406,0Z" transform="translate(-485.654 -309.599)" fill="#fafafa"/></g></g><g transform="translate(458.682 233.665)"><g transform="translate(0 0)"><path d="M518.127,310.071c0,.085-5.984.154-13.365.154s-13.366-.069-13.366-.154,5.983-.155,13.366-.155S518.127,309.985,518.127,310.071Z" transform="translate(-491.396 -309.916)" fill="#fafafa"/></g></g><g transform="translate(460.832 240.069)"><g transform="translate(0 0)"><path d="M519.012,320.868c0,.085-5.371.154-11.995.154s-12-.069-12-.154,5.37-.155,12-.155S519.012,320.782,519.012,320.868Z" transform="translate(-495.021 -320.713)" fill="#fafafa"/></g></g><g transform="translate(462.904 246.002)"><path d="M520.259,330.87c0,.085-4.868.155-10.872.155s-10.873-.069-10.873-.155,4.867-.154,10.873-.154S520.259,330.785,520.259,330.87Z" transform="translate(-498.514 -330.716)" fill="#fafafa"/></g><g transform="translate(462.339 250.805)"><g transform="translate(0 0)"><path d="M520.823,338.968c0,.085-5.208.154-11.63.154s-11.631-.069-11.631-.154,5.207-.154,11.631-.154S520.823,338.883,520.823,338.968Z" transform="translate(-497.562 -338.814)" fill="#fafafa"/></g></g><g transform="translate(460.644 256.927)"><path d="M521.168,349.288c0,.085-5.925.155-13.231.155s-13.232-.069-13.232-.155,5.923-.154,13.232-.154S521.168,349.2,521.168,349.288Z" transform="translate(-494.704 -349.134)" fill="#fafafa"/></g><g transform="translate(457.572 229.924)"><g transform="translate(0 0)"><path d="M494.442,317.971a2.228,2.228,0,0,1-.246-.546l-.584-1.518c-.489-1.283-1.179-3.051-1.9-5.023s-1.311-3.78-1.685-5.1c-.186-.663-.326-1.2-.406-1.579a2.244,2.244,0,0,1-.1-.592,21.848,21.848,0,0,1,.711,2.107c.426,1.3,1.047,3.1,1.766,5.063s1.373,3.75,1.81,5.054c.22.652.387,1.183.493,1.553A2.256,2.256,0,0,1,494.442,317.971Z" transform="translate(-489.524 -303.609)" fill="#263238"/></g></g><g transform="translate(627.762 122.501)"><g transform="translate(0)"><path d="M816.875,122.894l-40.42-.393,1.129,52.676,40.415.148Z" transform="translate(-776.455 -122.501)" fill="#ffd7a6"/></g><g transform="translate(2.43 1.823)"><path d="M815.934,126.494l-35.383-.919,1.024,47.774,35.372.435Z" transform="translate(-780.552 -125.575)" fill="#ffeed9"/></g><g transform="translate(8.297 9.489)"><path d="M813.919,138.889l-23.476-.39.715,33.392,23.456-.5Z" transform="translate(-790.444 -138.499)" fill="#ffd7a6"/></g><g transform="translate(8.297 9.489)"><path d="M791.159,171.891l23.089-17.658-23.8-15.734Z" transform="translate(-790.444 -138.499)" fill="#ffeed9"/></g></g></g></svg>