<svg xmlns="http://www.w3.org/2000/svg" width="38.443" height="48.931" viewBox="0 0 38.443 48.931"><g transform="translate(-525.922 -3756.701)"><g transform="translate(525.922 3756.701)"><path d="M559.472,3763.111h-4.427v-1.98c0-.641-.7-.932-1.34-.932h-3.437a5.21,5.21,0,0,0-5.184-3.495,5.3,5.3,0,0,0-5.185,3.495h-3.378c-.641,0-1.281.292-1.281.932v1.98h-4.427a4.951,4.951,0,0,0-4.893,4.718v33.376a4.686,4.686,0,0,0,4.893,4.426h28.658a4.686,4.686,0,0,0,4.893-4.426v-33.376A4.951,4.951,0,0,0,559.472,3763.111Zm-21.9-.582h3.2a1.282,1.282,0,0,0,1.107-1.049,3.378,3.378,0,0,1,3.2-2.621,3.319,3.319,0,0,1,3.145,2.621,1.283,1.283,0,0,0,1.165,1.049h3.32v4.66H537.572Zm24.464,38.676a2.363,2.363,0,0,1-2.563,2.1H530.815a2.363,2.363,0,0,1-2.563-2.1v-33.376a2.621,2.621,0,0,1,2.563-2.388h4.427v2.97a1.223,1.223,0,0,0,1.282,1.107h17.182a1.28,1.28,0,0,0,1.34-1.107v-2.97h4.427a2.621,2.621,0,0,1,2.562,2.388v33.376Z" transform="translate(-525.922 -3756.7)" fill="#ff3c00"/><path d="M544.5,3799.652a1.164,1.164,0,0,0-1.631-.058l-3.728,3.553-1.572-1.631a1.166,1.166,0,0,0-1.632-.059,1.224,1.224,0,0,0,0,1.69l2.388,2.446a1.05,1.05,0,0,0,.816.349,1.162,1.162,0,0,0,.815-.349l4.544-4.311a1.106,1.106,0,0,0,.067-1.563C544.548,3799.7,544.525,3799.673,544.5,3799.652Z" transform="translate(-529.765 -3773.611)" fill="#ff3c00"/><path d="M568.5,3804.045H555.1a1.165,1.165,0,0,0,0,2.33h13.4a1.165,1.165,0,0,0,0-2.33Z" transform="translate(-537.047 -3775.5)" fill="#ff3c00"/><path d="M544.5,3784.195a1.165,1.165,0,0,0-1.631-.058l-3.728,3.553-1.572-1.631a1.165,1.165,0,0,0-1.632-.058,1.223,1.223,0,0,0,0,1.689l2.388,2.447a1.049,1.049,0,0,0,.816.35,1.165,1.165,0,0,0,.815-.35l4.544-4.31a1.107,1.107,0,0,0,.067-1.564A.911.911,0,0,0,544.5,3784.195Z" transform="translate(-529.765 -3767.474)" fill="#ff3c00"/><path d="M568.5,3788.588H555.1a1.165,1.165,0,0,0,0,2.33h13.4a1.165,1.165,0,1,0,0-2.33Z" transform="translate(-537.047 -3769.362)" fill="#ff3c00"/><path d="M544.5,3815.109a1.166,1.166,0,0,0-1.631-.058l-3.728,3.553-1.572-1.631a1.166,1.166,0,0,0-1.632-.059,1.224,1.224,0,0,0,0,1.689l2.388,2.447a1.048,1.048,0,0,0,.816.349,1.163,1.163,0,0,0,.815-.349l4.544-4.31a1.107,1.107,0,0,0,.067-1.564C544.548,3815.153,544.525,3815.131,544.5,3815.109Z" transform="translate(-529.765 -3779.75)" fill="#ff3c00"/><path d="M568.5,3819.5H555.1a1.165,1.165,0,0,0,0,2.33h13.4a1.165,1.165,0,1,0,0-2.33Z" transform="translate(-537.047 -3781.638)" fill="#ff3c00"/></g></g></svg>