<svg xmlns="http://www.w3.org/2000/svg" width="263.779" height="199.157" viewBox="0 0 263.779 199.157"><g transform="translate(-601.202 -1063.423)"><g transform="translate(630.302 1066.735)"><g transform="translate(15.502 14.965)"><path d="M690.929,1102.067V1230.4h63.307V1102.067Zm58.8,123.587H695.053V1106.815h54.671Z" transform="translate(-688.195 -1099.957)" fill="#e0c9b6"/><path d="M754.134,1230.622H685.746V1098.067h68.388Zm-64.167-4.22h59.947V1102.288H689.966Z" transform="translate(-685.746 -1098.067)" fill="#ebd2bf"/><path d="M753.527,1139.041v-3.165H726.719v-26.808h-3.165v26.808H696.746v3.165h26.808v28.918H696.746v3.165h26.808v28.918H696.746v3.165h26.808v26.808h3.165v-26.808h26.808v-3.165H726.719v-28.918h26.808v-3.165H726.719v-28.918Z" transform="translate(-690.943 -1103.264)" fill="#f5ddc9"/><g transform="translate(106.187)"><path d="M892.21,1102.067V1230.4h63.307V1102.067Zm58.8,123.587H896.334V1106.815h54.671Z" transform="translate(-889.476 -1099.957)" fill="#e0c9b6"/><path d="M955.415,1230.622H887.027V1098.067h68.388Zm-64.167-4.22h59.947V1102.288H891.247Z" transform="translate(-887.027 -1098.067)" fill="#ebd2bf"/><path d="M954.809,1139.041v-3.165H928v-26.808h-3.165v26.808H898.027v3.165h26.808v28.918H898.027v3.165h26.808v28.918H898.027v3.165h26.808v26.808H928v-26.808h26.808v-3.165H928v-28.918h26.808v-3.165H928v-28.918Z" transform="translate(-892.224 -1103.264)" fill="#f5ddc9"/></g></g><g transform="translate(0 0.628)"><rect width="19.566" height="5.251" rx="1.319" transform="translate(5.974)" fill="#f5ddc9"/><rect width="19.566" height="5.251" rx="1.319" transform="translate(0 6.506)" fill="#f5ddc9"/><rect width="19.566" height="5.251" rx="1.319" transform="translate(20.479 6.506)" fill="#f0d7c3"/></g><g transform="translate(164.915 0)"><rect width="19.566" height="5.251" rx="1.319" transform="translate(34.07 11.757) rotate(180)" fill="#f5ddc9"/><rect width="19.566" height="5.251" rx="1.319" transform="translate(40.045 5.251) rotate(180)" fill="#f5ddc9"/><rect width="19.566" height="5.251" rx="1.319" transform="translate(19.566 5.251) rotate(180)" fill="#f0d7c3"/></g><g transform="translate(85.781 0)"><rect width="19.566" height="5.251" rx="1.319" transform="translate(30.905 11.757) rotate(180)" fill="#f5ddc9"/><rect width="19.566" height="5.251" rx="1.319" transform="translate(40.045 5.251) rotate(180)" fill="#f5ddc9"/><rect width="19.566" height="5.251" rx="1.319" transform="translate(19.566 5.251) rotate(180)" fill="#f0d7c3"/></g><g transform="translate(164.915 152.173)"><rect width="19.566" height="5.251" rx="1.319" transform="translate(34.07 11.757) rotate(180)" fill="#f5ddc9"/><rect width="19.566" height="5.251" rx="1.319" transform="translate(40.045 5.251) rotate(180)" fill="#f5ddc9"/><rect width="19.566" height="5.251" rx="1.319" transform="translate(19.566 5.251) rotate(180)" fill="#f0d7c3"/></g><g transform="translate(0 152.801)"><rect width="19.566" height="5.251" rx="1.319" transform="translate(5.974)" fill="#f5ddc9"/><rect width="19.566" height="5.251" rx="1.319" transform="translate(0 6.507)" fill="#f5ddc9"/><rect width="19.566" height="5.251" rx="1.319" transform="translate(20.479 6.507)" fill="#f0d7c3"/></g><g transform="translate(79.134 152.801)"><rect width="19.566" height="5.251" rx="1.319" transform="translate(9.14)" fill="#f5ddc9"/><rect width="19.566" height="5.251" rx="1.319" transform="translate(0 6.507)" fill="#f5ddc9"/><rect width="19.566" height="5.251" rx="1.319" transform="translate(20.479 6.507)" fill="#f0d7c3"/></g></g><g transform="translate(601.202 1063.423)"><rect width="17.474" height="0.132" transform="translate(219.875 181.238)" fill="#ebebeb"/><rect width="4.586" height="0.132" transform="translate(170.151 182.669)" fill="#ebebeb"/><rect width="10.125" height="0.132" transform="translate(209.222 176.339)" fill="#ebebeb"/><rect width="22.787" height="0.132" transform="translate(27.675 177.225)" fill="#ebebeb"/><rect width="3.341" height="0.132" transform="translate(55.159 177.225)" fill="#ebebeb"/><rect width="49.419" height="0.132" transform="translate(69.359 179.453)" fill="#ebebeb"/><path d="M744.291,1212.641H642.42a3.015,3.015,0,0,1-3.011-3.011v-143.2a3.015,3.015,0,0,1,3.011-3.011H744.291a3.014,3.014,0,0,1,3.011,3.011v143.2A3.015,3.015,0,0,1,744.291,1212.641ZM642.42,1063.555a2.882,2.882,0,0,0-2.879,2.879v143.2a2.882,2.882,0,0,0,2.879,2.879H744.291a2.882,2.882,0,0,0,2.879-2.879v-143.2a2.882,2.882,0,0,0-2.879-2.879Z" transform="translate(-619.253 -1063.423)" fill="#ebebeb"/><path d="M960.588,1212.641H858.718a3.015,3.015,0,0,1-3.011-3.011v-143.2a3.014,3.014,0,0,1,3.011-3.011h101.87a3.015,3.015,0,0,1,3.012,3.011v143.2A3.015,3.015,0,0,1,960.588,1212.641Zm-101.87-149.086a2.882,2.882,0,0,0-2.879,2.879v143.2a2.882,2.882,0,0,0,2.879,2.879h101.87a2.883,2.883,0,0,0,2.88-2.879v-143.2a2.883,2.883,0,0,0-2.88-2.879Z" transform="translate(-721.441 -1063.423)" fill="#ebebeb"/><rect width="263.779" height="0.132" transform="translate(0 172.746)" fill="#ebebeb"/></g><ellipse cx="102.288" cy="5.974" rx="102.288" ry="5.974" transform="translate(628.26 1246.018)" fill="#ffeed9"/><g transform="translate(751.659 1199.689)"><g transform="translate(12.692)"><path d="M910.457,1346.63l3.315-24.911,3.315,24.911Z" transform="translate(-910.457 -1321.719)" fill="#ff1d14"/><path d="M910.457,1346.63l3.315-24.911,3.315,24.911Z" transform="translate(-910.457 -1321.719)" opacity="0.3"/></g><path d="M886.4,1346.63l3.315-24.911h12.692l-3.315,24.911Z" transform="translate(-886.398 -1321.719)" fill="#ff1d14"/><path d="M886.4,1346.63l3.315-24.911h12.692l-3.315,24.911Z" transform="translate(-886.398 -1321.719)" fill="#fff" opacity="0.7"/><g transform="translate(3.423 5.129)"><path d="M895.942,1332.97a.753.753,0,0,1,.2.7,1.125,1.125,0,0,1-.224.516,1.241,1.241,0,0,1-.492.373,1.794,1.794,0,0,1-.739.14,2.3,2.3,0,0,1-.631-.086,1.386,1.386,0,0,1-.5-.246l.371-.55a1.115,1.115,0,0,0,.376.207,1.454,1.454,0,0,0,.463.073.831.831,0,0,0,.443-.106.412.412,0,0,0,.2-.3.284.284,0,0,0-.114-.3,1.023,1.023,0,0,0-.545-.1h-.794l.436-1.748h1.894l-.091.577h-1.3l-.142.59h.253A1.322,1.322,0,0,1,895.942,1332.97Z" transform="translate(-893.204 -1331.489)" fill="#ff1d14"/><path d="M899.576,1334.462a1.025,1.025,0,0,1-.385-.552,1.9,1.9,0,0,1-.034-.863,2.275,2.275,0,0,1,.307-.863,1.619,1.619,0,0,1,.56-.552,1.416,1.416,0,0,1,.717-.19,1.114,1.114,0,0,1,.657.19,1.03,1.03,0,0,1,.385.552,1.9,1.9,0,0,1,.034.863,2.269,2.269,0,0,1-.307.863,1.613,1.613,0,0,1-.56.552,1.416,1.416,0,0,1-.718.191A1.113,1.113,0,0,1,899.576,1334.462Zm1.238-.661a1.581,1.581,0,0,0,.281-.754,1.3,1.3,0,0,0-.043-.754.421.421,0,0,0-.407-.244.6.6,0,0,0-.48.244,1.577,1.577,0,0,0-.281.754,1.29,1.29,0,0,0,.042.754.418.418,0,0,0,.4.244A.607.607,0,0,0,900.815,1333.8Z" transform="translate(-895.834 -1331.441)" fill="#ff1d14"/><path d="M905.117,1332.954a.787.787,0,0,1-.116-.623,1.04,1.04,0,0,1,.313-.624.847.847,0,0,1,.594-.233.609.609,0,0,1,.518.233.794.794,0,0,1,.114.624,1.049,1.049,0,0,1-.311.623.84.84,0,0,1-.591.232A.616.616,0,0,1,905.117,1332.954Zm.835-.255a.743.743,0,0,0,.145-.368.6.6,0,0,0-.029-.368.229.229,0,0,0-.217-.125.327.327,0,0,0-.255.127.721.721,0,0,0-.147.366.585.585,0,0,0,.031.365.228.228,0,0,0,.215.127A.328.328,0,0,0,905.951,1332.7Zm1.8-1.189h.528l-2.612,3.105h-.528Zm-.62,3.036a.562.562,0,0,1-.225-.3.931.931,0,0,1-.026-.453,1.135,1.135,0,0,1,.169-.453.893.893,0,0,1,.32-.3.858.858,0,0,1,.414-.1.615.615,0,0,1,.52.233.787.787,0,0,1,.116.623,1.037,1.037,0,0,1-.314.623.844.844,0,0,1-.594.233A.68.68,0,0,1,907.131,1334.547Zm.7-.386a.738.738,0,0,0,.145-.366.6.6,0,0,0-.028-.366.227.227,0,0,0-.217-.126.331.331,0,0,0-.255.124.727.727,0,0,0-.147.368.585.585,0,0,0,.031.368.229.229,0,0,0,.215.125A.325.325,0,0,0,907.827,1334.161Z" transform="translate(-898.603 -1331.457)" fill="#ff1d14"/><path d="M893.515,1343.132a1.231,1.231,0,0,1-.517-.574,1.446,1.446,0,0,1-.09-.823,1.814,1.814,0,0,1,.35-.823,1.954,1.954,0,0,1,.7-.575,2.014,2.014,0,0,1,.9-.208,1.618,1.618,0,0,1,.837.208,1.249,1.249,0,0,1,.516.575,1.427,1.427,0,0,1,.091.823,1.8,1.8,0,0,1-.352.823,2,2,0,0,1-1.6.782A1.629,1.629,0,0,1,893.515,1343.132Zm1.452-.53a1.148,1.148,0,0,0,.4-.352,1.185,1.185,0,0,0,.208-.515.957.957,0,0,0-.045-.514.721.721,0,0,0-.292-.353.878.878,0,0,0-.477-.126,1.1,1.1,0,0,0-.517.126,1.143,1.143,0,0,0-.4.353,1.177,1.177,0,0,0-.208.514.956.956,0,0,0,.045.515.722.722,0,0,0,.292.352.879.879,0,0,0,.477.126A1.1,1.1,0,0,0,894.968,1342.6Z" transform="translate(-892.887 -1335.546)" fill="#ff1d14"/><path d="M901.049,1340.807l-.13.821h1.437l-.091.577h-1.437l-.179,1.131h-.719l.492-3.105h2.347l-.091.577Z" transform="translate(-896.214 -1335.593)" fill="#ff1d14"/><path d="M906.422,1340.807l-.13.821h1.437l-.091.577H906.2l-.179,1.131H905.3l.492-3.105h2.347l-.091.577Z" transform="translate(-898.753 -1335.593)" fill="#ff1d14"/></g></g><g transform="translate(719.908 1216.307)"><path d="M840.195,1380.437l-1.978-14.555,9.892-11.87,13.189,1.583,10.947-2.374,10.947,2.374.791,5.539-2.11,20.473-4.484,1.941Z" transform="translate(-831.883 -1353.22)" fill="#ff1d14"/><path d="M890.846,1356.72l-16.555,13.892-3.4-4.4,13.541-9.056Z" transform="translate(-847.318 -1354.874)" opacity="0.2"/><g transform="translate(0 3.561)"><path d="M881.955,1363.4H827.927a1.715,1.715,0,0,1-1.715-1.714h0a1.715,1.715,0,0,1,1.715-1.715h54.029a1.715,1.715,0,0,1,1.715,1.715h0A1.715,1.715,0,0,1,881.955,1363.4Z" transform="translate(-826.212 -1359.97)" fill="#263238"/><path d="M881.955,1363.4H827.927a1.715,1.715,0,0,1-1.715-1.714h0a1.715,1.715,0,0,1,1.715-1.715h54.029a1.715,1.715,0,0,1,1.715,1.715h0A1.715,1.715,0,0,1,881.955,1363.4Z" transform="translate(-826.212 -1359.97)" fill="#fff" opacity="0.5"/></g><g transform="translate(3.09 6.99)"><path d="M832.069,1366.47l1.755,21.426a4.726,4.726,0,0,0,4.71,4.34h38.348a4.726,4.726,0,0,0,4.71-4.34l1.755-21.426Zm9.625,17.826a1.752,1.752,0,1,1-3.5,0v-12.909a1.752,1.752,0,0,1,3.5,0Zm8.883,0a1.752,1.752,0,1,1-3.5,0v-12.909a1.752,1.752,0,0,1,3.5,0Zm8.883,0a1.752,1.752,0,1,1-3.5,0v-12.909a1.752,1.752,0,0,1,3.5,0Zm8.883,0a1.752,1.752,0,1,1-3.5,0v-12.909a1.752,1.752,0,0,1,3.5,0Zm8.883,0a1.752,1.752,0,1,1-3.5,0v-12.909a1.752,1.752,0,0,1,3.5,0Z" transform="translate(-832.069 -1366.47)" fill="#263238"/><path d="M832.069,1366.47l1.755,21.426a4.726,4.726,0,0,0,4.71,4.34h38.348a4.726,4.726,0,0,0,4.71-4.34l1.755-21.426Zm9.625,17.826a1.752,1.752,0,1,1-3.5,0v-12.909a1.752,1.752,0,0,1,3.5,0Zm8.883,0a1.752,1.752,0,1,1-3.5,0v-12.909a1.752,1.752,0,0,1,3.5,0Zm8.883,0a1.752,1.752,0,1,1-3.5,0v-12.909a1.752,1.752,0,0,1,3.5,0Zm8.883,0a1.752,1.752,0,1,1-3.5,0v-12.909a1.752,1.752,0,0,1,3.5,0Zm8.883,0a1.752,1.752,0,1,1-3.5,0v-12.909a1.752,1.752,0,0,1,3.5,0Z" transform="translate(-832.069 -1366.47)" fill="#fff" opacity="0.7"/></g><path d="M906.716,1355.726l7-2.506,10.148,2.506,2.374,12.658-8.309,1.058-2.9-12.529Z" transform="translate(-864.246 -1353.22)" fill="#ff1d14"/><g transform="translate(52.89 13.497)"><path d="M926.466,1380.166l.616,2.11,9.056-1.319-.572-2.154Z" transform="translate(-926.466 -1378.803)" fill="#ff1d14"/><path d="M926.466,1380.166l.616,2.11,9.056-1.319-.572-2.154Z" transform="translate(-926.466 -1378.803)" fill="#fff" opacity="0.6"/></g><path d="M929.163,1375.652a.681.681,0,1,1-.682-.682A.681.681,0,0,1,929.163,1375.652Z" transform="translate(-874.206 -1363.496)" fill="#fff" opacity="0.7"/><path d="M927.246,1369.277a.681.681,0,1,1-.681-.682A.681.681,0,0,1,927.246,1369.277Z" transform="translate(-873.301 -1360.484)" fill="#fff" opacity="0.7"/><g transform="translate(4.354 0.791)"><path d="M851.594,1356.3l-3.366-1.583-11.784,1.583-1.978,7.1,1.978,3.188s-2.289,10.947-.683,11.079,3.561-10.683,3.561-10.683l5.958-.9s.178,11.587,2.925,11.585,0-11.834,0-11.834Zm-15.809,20.377c-1.121-.4,1.385-9.628,1.385-9.628h1.451S836.906,1377.075,835.785,1376.68Zm12.443-.2c-1.5.725-2.156-10.287-2.156-10.287h1.385S849.725,1375.756,848.228,1376.482Z" transform="translate(-834.466 -1354.72)" fill="#ff1d14"/><path d="M851.594,1356.3l-3.366-1.583-11.784,1.583-1.978,7.1,1.978,3.188s-2.289,10.947-.683,11.079,3.561-10.683,3.561-10.683l5.958-.9s.178,11.587,2.925,11.585,0-11.834,0-11.834Zm-15.809,20.377c-1.121-.4,1.385-9.628,1.385-9.628h1.451S836.906,1377.075,835.785,1376.68Zm12.443-.2c-1.5.725-2.156-10.287-2.156-10.287h1.385S849.725,1375.756,848.228,1376.482Z" transform="translate(-834.466 -1354.72)" fill="#fff" opacity="0.7"/></g></g><g transform="translate(656.939 1137.069)"><g transform="translate(0 14.373)"><path d="M843.4,1314.958h-8.525V1217a9.052,9.052,0,0,0-9.042-9.042H722.947a9.052,9.052,0,0,0-9.041,9.042v97.955H705.38a2.051,2.051,0,0,0-2.052,2.052v.34h22.816v-.34a2.051,2.051,0,0,0-2.052-2.052h-8.525V1217a7.388,7.388,0,0,1,7.379-7.38H825.831a7.389,7.389,0,0,1,7.38,7.38v97.955h-8.526a2.051,2.051,0,0,0-2.052,2.052v.34H845.45v-.34A2.051,2.051,0,0,0,843.4,1314.958Z" transform="translate(-703.328 -1207.063)" fill="#263238"/><path d="M843.4,1314.958h-8.525V1217a9.052,9.052,0,0,0-9.042-9.042H722.947a9.052,9.052,0,0,0-9.041,9.042v97.955H705.38a2.051,2.051,0,0,0-2.052,2.052v.34h22.816v-.34a2.051,2.051,0,0,0-2.052-2.052h-8.525V1217a7.388,7.388,0,0,1,7.379-7.38H825.831a7.389,7.389,0,0,1,7.38,7.38v97.955h-8.526a2.051,2.051,0,0,0-2.052,2.052v.34H845.45v-.34A2.051,2.051,0,0,0,843.4,1314.958Z" transform="translate(-703.328 -1207.063)" fill="#fff" opacity="0.4"/><g transform="translate(21.691)"><g transform="translate(12.998)"><path d="M786.461,1211.617a2.435,2.435,0,0,1,.106-.507h-.852a3.516,3.516,0,0,0-.085.507C785.583,1212.15,786.414,1212.147,786.461,1211.617Z" transform="translate(-776.899 -1208.551)" fill="#263238"/><path d="M792.478,1222.25l-11.184-6.723v-3.2c2.318-.494,3.644-3.261,1.746-5.16a2.884,2.884,0,0,0-4.187-.007h1.679a1.967,1.967,0,0,1,1.876.639,2.218,2.218,0,0,1-1.528,3.763.425.425,0,0,0-.415.416v3.553l-11.183,6.723a.416.416,0,0,0,.419.718l5.458-3.281,3.968-2.385c.451-.271.938-.516,1.366-.821.088-.063.321-.165.438-.242.28.231,1.255.793,1.52.952l3.914,2.353,5.7,3.424A.416.416,0,0,0,792.478,1222.25Z" transform="translate(-769.082 -1206.258)" fill="#263238"/></g><path d="M782.9,1251.357l1.032,20.236-28.909-.229.619-19.181-3.871,27.271-7.329-.888a147.244,147.244,0,0,1,3.066-27.762c3.066-13.992,10.34-16.379,10.34-16.379a26.43,26.43,0,0,0,22.778,0s8.013,2.165,10.012,14.38,3.109,29.983,3.109,29.983l-7.329.666Z" transform="translate(-744.443 -1219.565)" fill="#ff1d14"/><g transform="translate(5.538 34.168)" opacity="0.2"><path d="M754.941,1296.528l1.791.217,3.651-25.721a14.474,14.474,0,0,0-2.169,5.761C757.285,1281.5,755.639,1292.008,754.941,1296.528Z" transform="translate(-754.941 -1271.024)"/></g><g transform="translate(38.702 33.754)" opacity="0.2"><path d="M823.578,1296.147c-.7-4.525-2.343-15.022-3.271-19.732-.7-3.57-1.753-5.327-2.5-6.175l3.273,26.135Z" transform="translate(-817.804 -1270.24)"/></g><g transform="translate(10.761 41.498)" opacity="0.8"><path d="M793.031,1284.919H764.992l-.152,4.708h28.431Z" transform="translate(-764.84 -1284.919)" fill="#fff"/></g><path d="M769.414,1244.582l-2.631,9S765.68,1248.181,769.414,1244.582Z" transform="translate(-754.925 -1224.364)" opacity="0.1"/><path d="M811.981,1244.582l2.631,9S815.715,1248.181,811.981,1244.582Z" transform="translate(-776.351 -1224.364)" opacity="0.1"/></g><g transform="translate(39.256)"><g transform="translate(9.026)"><path d="M812.226,1211.617a2.447,2.447,0,0,1,.106-.507h-.851a3.467,3.467,0,0,0-.086.507C811.348,1212.15,812.179,1212.147,812.226,1211.617Z" transform="translate(-802.664 -1208.551)" fill="#263238"/><path d="M818.242,1222.25l-11.183-6.723v-3.2c2.318-.494,3.644-3.261,1.745-5.16a2.884,2.884,0,0,0-4.187-.007H806.3a1.967,1.967,0,0,1,1.876.639,2.218,2.218,0,0,1-1.528,3.763.425.425,0,0,0-.415.416v3.553l-11.184,6.723a.416.416,0,0,0,.419.718l5.458-3.281,3.968-2.385c.45-.271.937-.516,1.366-.821.088-.063.321-.165.438-.242.28.231,1.255.793,1.52.952l3.914,2.353,5.694,3.424A.416.416,0,0,0,818.242,1222.25Z" transform="translate(-794.847 -1206.258)" fill="#263238"/></g><g transform="translate(0 14.86)"><path d="M787.172,1234.425a26.43,26.43,0,0,0,22.778,0s7.848,3.05,10.532,15.027l-8.259,1.906,1.032,20.236-28.909-.229.619-19.181-7.227-2.478S779.3,1237.11,787.172,1234.425Z" transform="translate(-777.738 -1234.425)" fill="#ff1d14"/><path d="M787.172,1234.425a26.43,26.43,0,0,0,22.778,0s7.848,3.05,10.532,15.027l-8.259,1.906,1.032,20.236-28.909-.229.619-19.181-7.227-2.478S779.3,1237.11,787.172,1234.425Z" transform="translate(-777.738 -1234.425)" fill="#fff" opacity="0.5"/><path d="M789.33,1261.321l1.024.351.593-7.1Z" transform="translate(-783.215 -1243.944)" opacity="0.2"/><path d="M841.219,1251.029l.994,8.173,1.607-.37Z" transform="translate(-807.729 -1242.269)" opacity="0.2"/><ellipse cx="9.048" cy="3.693" rx="9.048" ry="3.693" transform="translate(11.794 7.859)" fill="#ff1d14"/></g></g><g transform="translate(59.729)"><g transform="translate(13.478)"><path d="M859.475,1211.617a2.447,2.447,0,0,1,.106-.507h-.851a3.533,3.533,0,0,0-.086.507C858.6,1212.15,859.428,1212.147,859.475,1211.617Z" transform="translate(-849.913 -1208.551)" fill="#263238"/><path d="M865.491,1222.25l-11.183-6.723v-3.2c2.318-.494,3.644-3.261,1.746-5.16a2.884,2.884,0,0,0-4.187-.007h1.679a1.967,1.967,0,0,1,1.876.639,2.218,2.218,0,0,1-1.528,3.763.426.426,0,0,0-.416.416v3.553l-11.183,6.723a.416.416,0,0,0,.419.718l5.458-3.281,3.968-2.385c.451-.271.937-.516,1.366-.821.088-.063.321-.165.438-.242.28.231,1.254.793,1.519.952l3.916,2.353,5.694,3.424A.416.416,0,0,0,865.491,1222.25Z" transform="translate(-842.096 -1206.258)" fill="#263238"/></g><g transform="translate(0.48 11.235)"><path d="M866.761,1271.918s-1.111-17.767-3.109-29.982a21.179,21.179,0,0,0-4.175-10.08,11.645,11.645,0,0,0-9.084-4.3h-3.952l-2.3,2.4h-3.878l-2.031-2.4h-2.285a13.765,13.765,0,0,0-12.028,7,34,34,0,0,0-3.4,9.379,147.236,147.236,0,0,0-3.066,27.762l7.329.888,3.871-27.271-.445,32.595,28.909.229-1.207-33.649,3.519,28.1Z" transform="translate(-817.457 -1227.555)" fill="#263238"/><path d="M832.8,1251.293c-.277,3.7-5.539,31.595-5.539,31.595l1.374.377.78.094,3.871-27.271S833.081,1247.6,832.8,1251.293Z" transform="translate(-822.091 -1238.33)" opacity="0.2"/><path d="M895.631,1283.168c-.725-5.092-2.569-17.978-3.663-24.984-1.385-8.863-1.616-7.854-1.616-7.854v4.9l3.519,28.1Z" transform="translate(-851.896 -1238.299)" opacity="0.2"/></g><g transform="translate(19.489 10.617)"><path d="M855.191,1226.383l4.075,2.648,3.72-2.648,2.329.448-2.688,5.286-3.362-1.971-3.716,1.971-2.061-5.286Z" transform="translate(-853.488 -1226.383)" fill="#263238"/><path d="M855.191,1226.383l4.075,2.648,3.72-2.648,2.329.448-2.688,5.286-3.362-1.971-3.716,1.971-2.061-5.286Z" transform="translate(-853.488 -1226.383)" fill="#fff" opacity="0.2"/></g><g transform="translate(0 54.377)"><path d="M816.547,1309.331l8.273,1.055-.278,1.777-8-1Z" transform="translate(-816.547 -1309.331)" fill="#263238"/><path d="M816.547,1309.331l8.273,1.055-.278,1.777-8-1Z" transform="translate(-816.547 -1309.331)" fill="#fff" opacity="0.2"/></g><g transform="translate(41.825 54.525)"><path d="M904.132,1309.612l-8.305.759.214,1.785,8.217-.731Z" transform="translate(-895.827 -1309.612)" fill="#263238"/><path d="M904.132,1309.612l-8.305.759.214,1.785,8.217-.731Z" transform="translate(-895.827 -1309.612)" fill="#fff" opacity="0.2"/></g><g transform="translate(24.462 23.528)"><path d="M864.256,1251.526a.671.671,0,1,1-.67-.671A.67.67,0,0,1,864.256,1251.526Z" transform="translate(-862.915 -1250.856)" fill="#fff" opacity="0.7"/><path d="M864.767,1271.118a.671.671,0,1,1-.671-.67A.67.67,0,0,1,864.767,1271.118Z" transform="translate(-863.156 -1260.112)" fill="#fff" opacity="0.7"/><path d="M865.527,1291.414a.671.671,0,1,1-.671-.67A.671.671,0,0,1,865.527,1291.414Z" transform="translate(-863.516 -1269.701)" fill="#fff" opacity="0.7"/><path d="M865.527,1312.162a.671.671,0,1,1-.671-.67A.671.671,0,0,1,865.527,1312.162Z" transform="translate(-863.516 -1279.503)" fill="#fff" opacity="0.7"/></g></g><g transform="translate(88.08)"><g transform="translate(1.526)"><path d="M890.559,1211.617a2.443,2.443,0,0,1,.106-.507h-.851a3.524,3.524,0,0,0-.085.507C889.681,1212.15,890.512,1212.147,890.559,1211.617Z" transform="translate(-880.997 -1208.551)" fill="#263238"/><path d="M896.575,1222.25l-11.183-6.723v-3.2c2.318-.494,3.644-3.261,1.746-5.16a2.883,2.883,0,0,0-4.187-.007h1.679a1.967,1.967,0,0,1,1.876.639,2.218,2.218,0,0,1-1.528,3.763.426.426,0,0,0-.416.416v3.553l-11.183,6.723a.416.416,0,0,0,.419.718l5.458-3.281,3.968-2.385c.451-.271.937-.516,1.365-.821.089-.063.322-.165.439-.242.28.231,1.254.793,1.519.952l3.915,2.353,5.694,3.424A.416.416,0,0,0,896.575,1222.25Z" transform="translate(-873.179 -1206.258)" fill="#263238"/></g><g transform="translate(0 13.639)"><path d="M870.341,1234.824l3.212-2.712s4.448,3.836,10.056,3.232a27.894,27.894,0,0,0,10.056-3.232l2.682,1.987s-3.848,6.008.649,13.337l-.674,22.494H871.281l-.994-22.995S875.505,1240.533,870.341,1234.824Z" transform="translate(-870.287 -1232.112)" fill="#ff1d14"/><path d="M897.052,1268.459l-.052-.052-4.407,4.406-4.407-4.406-4.407,4.406-4.406-4.406-4.407,4.406-4.319-4.319.177,4.085,4.142,4.142,4.407-4.406,4.406,4.406,4.407-4.406,4.407,4.406,4.341-4.341Z" transform="translate(-870.458 -1249.259)" fill="#fff" opacity="0.5"/><path d="M897.093,1275.881l-4.341,4.341-4.406-4.407-4.407,4.407-4.406-4.407-4.407,4.407-4.142-4.143.177,4.085,3.966,3.966,4.407-4.407,4.406,4.407,4.407-4.407,4.406,4.407,4.22-4.22Z" transform="translate(-870.616 -1252.76)" fill="#fff" opacity="0.7"/><path d="M897.13,1283.411l-4.22,4.22-4.406-4.406-4.406,4.406-4.406-4.406-4.407,4.406-3.966-3.966.177,4.085,3.789,3.789,4.407-4.407,4.406,4.407,4.406-4.407,4.406,4.407,4.1-4.1Z" transform="translate(-870.774 -1256.26)" fill="#fff" opacity="0.9"/></g></g></g><g transform="translate(57.722 0)"><rect width="30.194" height="10.547" rx="2.8" fill="#ff1d14"/><rect width="2.111" height="5.259" transform="translate(14.042 10.012)" fill="#ff1d14"/><g transform="translate(3.042 1.761)"><path d="M834.255,1185.139l0-1.672-.82,1.378h-.291l-.816-1.342v1.636h-.605v-2.787h.533l1.044,1.732,1.027-1.732h.529l.008,2.787Z" transform="translate(-824.75 -1182.352)" fill="#fff"/><path d="M838.926,1182.352h.645v2.787h-.645Z" transform="translate(-828.155 -1182.352)" fill="#fff"/><path d="M843.957,1182.352v2.787h-.529l-1.39-1.693v1.693H841.4v-2.787h.534l1.385,1.693v-1.693Z" transform="translate(-829.324 -1182.352)" fill="#fff"/><path d="M847.795,1182.877H846.9v-.526h2.428v.526h-.891v2.262h-.645Z" transform="translate(-831.923 -1182.352)" fill="#fff"/><path d="M819.248,1192.757a1.381,1.381,0,0,1-.541-.513,1.5,1.5,0,0,1,0-1.485,1.382,1.382,0,0,1,.541-.513,1.729,1.729,0,0,1,1.429-.058,1.309,1.309,0,0,1,.492.366l-.414.382a.888.888,0,0,0-.7-.326.931.931,0,0,0-.462.113.808.808,0,0,0-.316.316,1,1,0,0,0,0,.924.8.8,0,0,0,.316.317.931.931,0,0,0,.462.113.886.886,0,0,0,.7-.33l.414.382a1.289,1.289,0,0,1-.493.37,1.641,1.641,0,0,1-.657.127A1.6,1.6,0,0,1,819.248,1192.757Z" transform="translate(-818.509 -1185.994)" fill="#fff"/><path d="M824.67,1192.755a1.392,1.392,0,0,1-.546-.516,1.48,1.48,0,0,1,0-1.477,1.391,1.391,0,0,1,.546-.516,1.728,1.728,0,0,1,1.563,0,1.422,1.422,0,0,1,0,2.508,1.728,1.728,0,0,1-1.563,0Zm1.228-.476a.817.817,0,0,0,.313-.317,1,1,0,0,0,0-.924.82.82,0,0,0-.313-.316.933.933,0,0,0-.892,0,.819.819,0,0,0-.313.316,1,1,0,0,0,0,.924.817.817,0,0,0,.313.317.933.933,0,0,0,.892,0Z" transform="translate(-821.069 -1185.994)" fill="#fff"/><path d="M833.185,1190.15v2.787h-.53l-1.39-1.692v1.692h-.637v-2.787h.533l1.385,1.692v-1.692Z" transform="translate(-824.235 -1186.036)" fill="#fff"/><path d="M836.726,1190.15h1.266a1.782,1.782,0,0,1,.8.173,1.292,1.292,0,0,1,.541.487,1.486,1.486,0,0,1,0,1.465,1.3,1.3,0,0,1-.541.488,1.786,1.786,0,0,1-.8.173h-1.266Zm1.234,2.257a.938.938,0,0,0,.667-.233.926.926,0,0,0,0-1.262.939.939,0,0,0-.667-.233h-.589v1.728Z" transform="translate(-827.115 -1186.036)" fill="#fff"/><path d="M842.96,1190.15h.645v2.787h-.645Z" transform="translate(-830.061 -1186.036)" fill="#fff"/><path d="M845.731,1190.675h-.892v-.525h2.428v.525h-.892v2.262h-.645Z" transform="translate(-830.948 -1186.036)" fill="#fff"/><path d="M850.1,1190.15h.645v2.787H850.1Z" transform="translate(-833.433 -1186.036)" fill="#fff"/><path d="M852.984,1192.755a1.392,1.392,0,0,1-.545-.516,1.483,1.483,0,0,1,0-1.477,1.391,1.391,0,0,1,.545-.516,1.728,1.728,0,0,1,1.563,0,1.41,1.41,0,0,1,.546.516,1.467,1.467,0,0,1,0,1.477,1.41,1.41,0,0,1-.546.516,1.728,1.728,0,0,1-1.563,0Zm1.228-.476a.816.816,0,0,0,.313-.317,1,1,0,0,0,0-.924.819.819,0,0,0-.313-.316.933.933,0,0,0-.892,0,.82.82,0,0,0-.313.316,1,1,0,0,0,0,.924.817.817,0,0,0,.313.317.933.933,0,0,0,.892,0Z" transform="translate(-834.446 -1185.994)" fill="#fff"/><path d="M861.5,1190.15v2.787h-.53l-1.389-1.692v1.692h-.637v-2.787h.533l1.385,1.692v-1.692Z" transform="translate(-837.612 -1186.036)" fill="#fff"/></g></g></g><g transform="translate(769.401 1119.27)"><g transform="translate(14.832)"><g transform="translate(4.582 44.112)"><path d="M982.135,1252.9s-6.882,27.879-8.438,37.316c-1.535,9.3-3.938,37.5-3.938,37.5l7.314,1.125s4.443-27.472,7.313-36.191c2.183-6.631,9.848-18.267,11.438-24.94.826-3.466,0-14.251,0-14.251Z" transform="translate(-962.937 -1252.899)" fill="#ff1d14"/><path d="M971.586,1396.049l-.824,7.437,3.8.452,1.323-7.437Z" transform="translate(-963.411 -1320.529)" fill="#ffb570"/><g transform="translate(0 80.791)"><path d="M965.351,1408.942a1.866,1.866,0,0,1-1.246-.466.389.389,0,0,1,.055-.448.541.541,0,0,1,.35-.207c.749-.124,2.177.9,2.24.949a.1.1,0,0,1,.039.113.107.107,0,0,1-.092.075A7.631,7.631,0,0,1,965.351,1408.942Zm-.6-.92a.686.686,0,0,0-.2.005.287.287,0,0,0-.218.123c-.09.12-.07.185-.044.223.172.305,1.27.427,2.091.412A4.791,4.791,0,0,0,964.747,1408.022Z" transform="translate(-960.244 -1406.876)" fill="#ff1d14"/><path d="M967.813,1408.119a.059.059,0,0,1-.043-.008c-.5-.286-1.444-1.34-1.3-1.82.023-.117.126-.252.414-.25a.771.771,0,0,1,.556.236,2.975,2.975,0,0,1,.5,1.757.1.1,0,0,1-.056.089A.1.1,0,0,1,967.813,1408.119Zm-.88-1.875-.059-.012c-.187,0-.207.07-.217.1-.057.292.551,1.1,1.058,1.479a2.443,2.443,0,0,0-.438-1.4.543.543,0,0,0-.343-.167Z" transform="translate(-961.377 -1406.04)" fill="#ff1d14"/><path d="M963.79,1408.9l4.755.5a.385.385,0,0,1,.342.338l.454,3.959a.64.64,0,0,1-.694.715c-1.711-.209-3.225-.463-5.36-.684-2.519-.264-1.911.105-4.877-.163-1.786-.164-1.9-2.226-1.133-2.246,3.508-.073,3.977-1.08,5.443-2.179A1.536,1.536,0,0,1,963.79,1408.9Z" transform="translate(-956.828 -1407.386)" fill="#263238"/></g><path d="M1000.379,1277.872c-3.658,8.095-3.246,20.962-3,25.1,1.184-3.568,3.934-8.566,6.474-13.461l-.379-4.422S1004.785,1268.122,1000.379,1277.872Z" transform="translate(-975.914 -1263.27)" opacity="0.1"/><g transform="translate(5.872 73.224)"><path d="M968.019,1391.7l-.061,2.77,8.872,1.357.633-2.6Z" transform="translate(-967.958 -1391.697)" fill="#ff1d14"/><path d="M968.019,1391.7l-.061,2.77,8.872,1.357.633-2.6Z" transform="translate(-967.958 -1391.697)" fill="#fff" opacity="0.3"/></g></g><g transform="translate(24.687 44.321)"><path d="M1002.32,1253.294s-.713,28.534-.562,38.045c.149,9.432,1.75,37.691,1.75,37.691h7.423s.844-28.3,1.688-37.691,4.75-21.94-1.688-37.691Z" transform="translate(-998.149 -1253.294)" fill="#ff1d14"/><path d="M1008.235,1397.392v7.119h3.9l.508-7.119Z" transform="translate(-1001.22 -1321.372)" fill="#ffb570"/><g transform="translate(0 81.083)"><path d="M1002.916,1410.014a1.867,1.867,0,0,1-1.285-.345.39.39,0,0,1,.012-.451.544.544,0,0,1,.329-.24c.733-.194,2.253.693,2.32.732a.1.1,0,0,1,.049.109.11.11,0,0,1-.085.084A7.713,7.713,0,0,1,1002.916,1410.014Zm-.689-.858a.688.688,0,0,0-.2.024.285.285,0,0,0-.2.143c-.079.129-.052.192-.023.227.2.287,1.305.3,2.121.211A4.8,4.8,0,0,0,1002.227,1409.155Z" transform="translate(-998.068 -1407.916)" fill="#ff1d14"/><path d="M1005.278,1408.974a.059.059,0,0,1-.043,0c-.522-.237-1.566-1.2-1.468-1.688.012-.119.1-.262.388-.288a.766.766,0,0,1,.576.182,2.978,2.978,0,0,1,.665,1.7.1.1,0,0,1-.047.093A.1.1,0,0,1,1005.278,1408.974Zm-1.055-1.783-.06-.006c-.186.014-.2.089-.207.116-.029.3.654,1.046,1.194,1.372a2.441,2.441,0,0,0-.57-1.349.538.538,0,0,0-.357-.134Z" transform="translate(-999.106 -1406.99)" fill="#ff1d14"/><path d="M1001.578,1409.6l4.781.043a.385.385,0,0,1,.373.3l.829,3.9a.639.639,0,0,1-.487.762.614.614,0,0,1-.135.015c-1.723-.045-3.255-.154-5.4-.17-2.532-.022-1.892.286-4.87.3-1.794.007-2.1-2.034-1.342-2.128,3.485-.406,3.856-1.454,5.21-2.688A1.538,1.538,0,0,1,1001.578,1409.6Z" transform="translate(-994.937 -1408.221)" fill="#263238"/></g><g transform="translate(4.192 74.247)"><path d="M1002.883,1394.031l.316,2.752,8.974.139.273-2.664Z" transform="translate(-1002.883 -1394.031)" fill="#ff1d14"/><path d="M1002.883,1394.031l.316,2.752,8.974.139.273-2.664Z" transform="translate(-1002.883 -1394.031)" fill="#fff" opacity="0.3"/></g></g><g transform="translate(31.339)"><path d="M1013.332,1199.308l4.222.957c-.329-1.83.529-4.227,1.252-5.954l-5.085,2.792A3.289,3.289,0,0,1,1013.332,1199.308Z" transform="translate(-1010.279 -1181.107)" fill="#ffb570"/><path d="M1017.083,1196.437l-3,1.676a7.213,7.213,0,0,1-.041,1.289c1,.063,2.679-.444,3.1-1.449A3.1,3.1,0,0,0,1017.083,1196.437Z" transform="translate(-1010.617 -1182.112)" opacity="0.2" style="isolation:isolate"/><path d="M1019.823,1181.112c-1.777,3.492-2.456,5-5.066,6.054-3.928,1.585-7.826-1.367-7.129-5.316.634-3.556,3.445-8.686,7.569-8.564a5.342,5.342,0,0,1,4.626,7.826Z" transform="translate(-1007.546 -1171.173)" fill="#ffb570"/><path d="M1018.529,1184.563c-.13.29-.388.461-.577.381s-.243-.391-.119-.682.388-.461.577-.381S1018.634,1184.279,1018.529,1184.563Z" transform="translate(-1012.375 -1176.17)" fill="#263238"/><path d="M1012.273,1181.861c-.131.3-.388.461-.577.381s-.243-.39-.119-.682.388-.46.576-.375S1012.4,1181.57,1012.273,1181.861Z" transform="translate(-1009.419 -1174.895)" fill="#263238"/><path d="M1012.327,1180.848l-.612-.507S1011.835,1181.046,1012.327,1180.848Z" transform="translate(-1009.516 -1174.507)" fill="#263238"/><path d="M1012.787,1184.327a8.562,8.562,0,0,1-1.856,1.41,1.4,1.4,0,0,0,.959.648Z" transform="translate(-1009.145 -1176.39)" fill="#ff8935"/><path d="M1014.37,1191.322a2.649,2.649,0,0,1-.444-.155.092.092,0,0,1-.053-.119v0A.1.1,0,0,1,1014,1191a2.53,2.53,0,0,0,2.277-.085.093.093,0,0,1,.1.156A2.6,2.6,0,0,1,1014.37,1191.322Z" transform="translate(-1010.532 -1179.496)" fill="#263238"/><path d="M1021.169,1183.255a.184.184,0,0,1-.141-.17,2.21,2.21,0,0,0-1-1.46.19.19,0,0,1-.064-.26.184.184,0,0,1,.253-.062l.006,0a2.538,2.538,0,0,1,1.177,1.761.184.184,0,0,1-.174.193h0A.1.1,0,0,1,1021.169,1183.255Z" transform="translate(-1013.401 -1174.949)" fill="#263238"/><path d="M1012.205,1178.381a.194.194,0,0,1-.137-.133.19.19,0,0,1,.13-.232,1.833,1.833,0,0,1,1.7.307.178.178,0,0,1,.027.25l-.01.011a.184.184,0,0,1-.26.018l0,0h0a1.492,1.492,0,0,0-1.334-.22A.183.183,0,0,1,1012.205,1178.381Z" transform="translate(-1009.679 -1173.367)" fill="#263238"/><path d="M1018.573,1183.605l-.612-.506S1018.084,1183.782,1018.573,1183.605Z" transform="translate(-1012.466 -1175.81)" fill="#263238"/><g transform="translate(2.199)"><path d="M1020.3,1176.1a5.853,5.853,0,0,1-5.776-2.256l2.256.36-5.07-2.25a10.253,10.253,0,0,1,3.945-1.758l-1.131-.773s8.025-1.617,8.728,6.188a4.458,4.458,0,0,1-.852,3.375C1021.208,1180.3,1020.3,1176.1,1020.3,1176.1Z" transform="translate(-1011.715 -1169.283)" fill="#263238"/><path d="M1028.312,1182.509s-1.857,2.429-1.269,4.925c0,0,3.175-1.922,3.366-4.544C1030.655,1179.513,1028.312,1182.509,1028.312,1182.509Z" transform="translate(-1018.902 -1174.952)" fill="#263238"/></g><path d="M1027.755,1192.2a2.817,2.817,0,0,1-1.945.9c-.986.027-1.245-.912-.774-1.726.431-.728,1.459-1.621,2.357-1.278a1.265,1.265,0,0,1,.361,2.1Z" transform="translate(-1015.701 -1179.081)" fill="#ffb570"/><g transform="translate(9.646 13.034)"><path d="M1027.548,1194.619a2.266,2.266,0,0,1,.234,1.659c-.131.531-.59,1.243-1.2.766-.7-.553-.731-2.688.389-2.8.161-.016.162-.27,0-.253-1.4.14-1.457,2.628-.479,3.312a.89.89,0,0,0,1.292-.371,2.455,2.455,0,0,0-.021-2.44.126.126,0,0,0-.218.128Z" transform="translate(-1025.831 -1193.99)" fill="#263238"/><g opacity="0.5"><path d="M1027.548,1194.619a2.266,2.266,0,0,1,.234,1.659c-.131.531-.59,1.243-1.2.766-.7-.553-.731-2.688.389-2.8.161-.016.162-.27,0-.253-1.4.14-1.457,2.628-.479,3.312a.89.89,0,0,0,1.292-.371,2.455,2.455,0,0,0-.021-2.44.126.126,0,0,0-.218.128Z" transform="translate(-1025.831 -1193.99)" fill="#fff"/></g></g></g><g transform="translate(0 8.535)"><path d="M956.639,1195.067l-3-3,.506-2.893a1.512,1.512,0,0,0-.515-1.418l-1.116-.94-.127-.353a1.513,1.513,0,0,0-2.369-.669h0a1.505,1.505,0,0,0-.365.426l-1.308,2.272a1.51,1.51,0,0,0-.133,1.206l.74,2.368,2.062,1.219,2.813,4.031Z" transform="translate(-948.142 -1185.462)" fill="#ffb570"/><path d="M980.061,1203.887a.773.773,0,0,0-1.055-.554c-1.158.488-3.816,1.669-9.826,4.516-1.781.844-6.039-3.056-8.907-6.844l-3.844,3.422s6.845,9.141,11.251,9.235,13.22-5.813,13.22-5.813Z" transform="translate(-952.057 -1192.805)" fill="#263238"/></g><path d="M988.4,1215.861a55.631,55.631,0,0,0,6.027-3.243V1211.1l-2.048-2.121A35.8,35.8,0,0,0,988.4,1215.861Z" transform="translate(-967.162 -1188.037)" opacity="0.5"/><path d="M991.32,1232.059s-.656-10.97.938-19.314,1.875-9.376,11.251-7.032,9.657,1.781,8.251,6.376c-1.209,3.948-3.469,15.283-4.407,20.627Z" transform="translate(-968.478 -1185.978)" fill="#263238"/><path d="M1010.624,1203.2l.54-.91a2.2,2.2,0,0,0,.309-1.126v-.5a.321.321,0,0,1,.455-.294,14.284,14.284,0,0,0,4.8,1.288.443.443,0,0,1,.378.622l-.265.6a1.81,1.81,0,0,0-.154.756l.015,1.033A6.484,6.484,0,0,1,1010.624,1203.2Z" transform="translate(-977.661 -1183.957)" fill="#263238"/><path d="M1011.511,1206.495s1.144,1.738,4.9,1.237C1016.407,1207.732,1011.956,1210.353,1011.511,1206.495Z" transform="translate(-978.08 -1186.864)" opacity="0.5"/><path d="M1010.014,1260.718l-2.625,2.344h-2.816a2.93,2.93,0,0,0-1.554.446l-.985.615a2.23,2.23,0,0,0-.667,3.138l.377.558a2.23,2.23,0,0,0,3.31.436l.8-.693.492-.123a2.877,2.877,0,0,0,1.948-1.659h0l3.222-2.344Z" transform="translate(-973.108 -1212.481)" fill="#ffb570"/><g transform="translate(35.747 21.48)"><path d="M1021.273,1210.035s5.4.841,5.576,5.26,1.561,11.877.549,15.68-9.23,9.848-9.23,9.848l-2.266-3.948s6.6-4.9,6.6-10.339S1018.956,1209.269,1021.273,1210.035Z" transform="translate(-1015.902 -1210)" fill="#263238"/><path d="M1027.241,1226.366a37.638,37.638,0,0,1,.621,5.624,7.281,7.281,0,0,1-.139,1.374c.853-2.933.79-8.525.661-11.82C1028.04,1222.856,1027.647,1224.528,1027.241,1226.366Z" transform="translate(-1021.259 -1215.454)" opacity="0.5"/></g></g><g transform="translate(7.1 10.748)"><path d="M957.246,1205.9l-11.357-6.827v-3.253c2.353-.5,3.7-3.312,1.773-5.241-2.045-2.045-5.074-.413-5.308,2.195-.048.54.8.537.844,0,.167-1.86,2.386-3.087,3.822-1.553a2.253,2.253,0,0,1-1.553,3.822.431.431,0,0,0-.421.422v3.608l-11.357,6.827a.422.422,0,0,0,.426.729l5.543-3.332,4.029-2.422c.457-.275.952-.524,1.387-.833.09-.064.327-.168.445-.246.284.235,1.274.805,1.543.967l3.976,2.39,5.783,3.476A.422.422,0,0,0,957.246,1205.9Z" transform="translate(-933.486 -1189.657)" fill="#263238"/><path d="M957.246,1205.9l-11.357-6.827v-3.253c2.353-.5,3.7-3.312,1.773-5.241-2.045-2.045-5.074-.413-5.308,2.195-.048.54.8.537.844,0,.167-1.86,2.386-3.087,3.822-1.553a2.253,2.253,0,0,1-1.553,3.822.431.431,0,0,0-.421.422v3.608l-11.357,6.827a.422.422,0,0,0,.426.729l5.543-3.332,4.029-2.422c.457-.275.952-.524,1.387-.833.09-.064.327-.168.445-.246.284.235,1.274.805,1.543.967l3.976,2.39,5.783,3.476A.422.422,0,0,0,957.246,1205.9Z" transform="translate(-933.486 -1189.657)" fill="#fff" opacity="0.5"/></g><g transform="translate(0 23.064)"><path d="M934.1,1213s5.358,3.728,13.3,0c0,0,8.08,3.445,8.5,7.242s1.333,17.932,1.333,17.932h-6.115l.281,19.76H929.387l.776-19.76h-7.735s1.85-18.391,3.808-20.692S934.1,1213,934.1,1213Z" transform="translate(-921.161 -1213.001)" fill="#ff1d14"/><path d="M943.007,1213s-.714.263-1.726.7c1,1,3.359,2.748,7.869,2.882a14,14,0,0,0,8.828-2.782c-.984-.509-1.673-.8-1.673-.8C948.365,1216.729,943.007,1213,943.007,1213Z" transform="translate(-930.069 -1213.001)" fill="#fff" opacity="0.3"/><path d="M935.51,1241.075l-2.024,10.292,1.9.07.368-10.363Z" transform="translate(-926.386 -1226.265)" opacity="0.2"/><g transform="translate(0 24.048)"><path d="M920.45,1258.585l-.422,2.18,8.946.347v-2.175Z" transform="translate(-920.028 -1258.585)" fill="#ff1d14"/><path d="M920.45,1258.585l-.422,2.18,8.946.347v-2.175Z" transform="translate(-920.028 -1258.585)" fill="#fff" opacity="0.3"/></g><path d="M976.2,1241.075l.321,10.363,1.105-.07-1.33-10.292Z" transform="translate(-946.567 -1226.265)" opacity="0.2"/><g transform="translate(29.956 24.048)"><path d="M976.81,1258.585v2.11h7.1l-.281-2.11Z" transform="translate(-976.81 -1258.585)" fill="#ff1d14"/><path d="M976.81,1258.585v2.11h7.1l-.281-2.11Z" transform="translate(-976.81 -1258.585)" fill="#fff" opacity="0.3"/></g><path d="M957.658,1290.354H935.866l-.066,1.688h21.882Z" transform="translate(-927.479 -1249.546)" fill="#fff" opacity="0.3"/></g><path d="M953.028,1188.756v2.458l-2.135,2.077-1.143-.277-.519-1.991,1.627-2.025Z" transform="translate(-933.825 -1178.483)" fill="#ffb570"/></g><g transform="translate(620.051 1112.788)"><g transform="translate(1.353 135.957)"><path d="M649.308,1414.707l-1.517,8.238h-4.511l.869-8.238Z" transform="translate(-641.284 -1414.707)" fill="#e67b62"/><g transform="translate(0 5.859)"><path d="M653.555,1429.182a.127.127,0,0,1-.1-.1.12.12,0,0,1,.057-.125c.078-.045,1.836-1.071,2.685-.846a.627.627,0,0,1,.381.277.451.451,0,0,1,.014.522,2.16,2.16,0,0,1-1.487.4A8.9,8.9,0,0,1,653.555,1429.182Zm.387-.164c.944.108,2.223.088,2.455-.244.034-.041.064-.113-.026-.262a.335.335,0,0,0-.237-.166.81.81,0,0,0-.23-.027A5.555,5.555,0,0,0,653.943,1429.018Z" transform="translate(-646.09 -1426.884)" fill="#ff1d14"/><path d="M653.475,1428.1a.12.12,0,0,1-.055-.108,3.443,3.443,0,0,1,.77-1.968.889.889,0,0,1,.666-.211c.331.03.436.2.449.333.113.569-1.1,1.679-1.7,1.954a.068.068,0,0,1-.05,0A.114.114,0,0,1,653.475,1428.1Zm1.3-2.059a.624.624,0,0,0-.413.155,2.823,2.823,0,0,0-.659,1.56c.625-.377,1.416-1.244,1.381-1.588-.009-.031-.024-.118-.24-.134l-.069.007Z" transform="translate(-646.073 -1425.813)" fill="#ff1d14"/><path d="M646.436,1428.831l-5.532.05a.446.446,0,0,0-.432.352l-.959,4.51a.741.741,0,0,0,.72.9c1.994-.053,3.766-.178,6.249-.2,2.93-.026,2.19.332,5.635.349,2.076.009,2.434-2.354,1.553-2.462-4.033-.471-4.462-1.683-6.029-3.11A1.782,1.782,0,0,0,646.436,1428.831Z" transform="translate(-639.495 -1427.238)" fill="#263238"/></g><path d="M643.979,1420.914l4.7.455.472-2.564-4.277-1.013-.612.427Z" transform="translate(-641.613 -1416.165)" opacity="0.2"/></g><g transform="translate(21.378 135.957)"><path d="M685.946,1414.707l-.409,8.238h-4.511l-.239-8.238Z" transform="translate(-679.029 -1414.707)" fill="#e67b62"/><g transform="translate(0 5.859)"><path d="M691.515,1429.182a.125.125,0,0,1-.1-.1.119.119,0,0,1,.057-.125c.078-.045,1.836-1.071,2.685-.846a.627.627,0,0,1,.38.277.452.452,0,0,1,.014.522,2.163,2.163,0,0,1-1.487.4A8.9,8.9,0,0,1,691.515,1429.182Zm.388-.164c.944.108,2.222.088,2.454-.244.034-.041.064-.113-.026-.262a.335.335,0,0,0-.237-.166.809.809,0,0,0-.229-.027A5.548,5.548,0,0,0,691.9,1429.018Z" transform="translate(-684.05 -1426.884)" fill="#ff1d14"/><path d="M691.435,1428.1a.118.118,0,0,1-.055-.108,3.441,3.441,0,0,1,.77-1.968.889.889,0,0,1,.666-.211c.331.03.436.2.449.333.113.569-1.095,1.679-1.7,1.954a.069.069,0,0,1-.05,0A.114.114,0,0,1,691.435,1428.1Zm1.3-2.059a.625.625,0,0,0-.414.155,2.822,2.822,0,0,0-.659,1.56c.625-.377,1.415-1.244,1.381-1.588-.009-.031-.024-.118-.24-.134l-.069.007Z" transform="translate(-684.033 -1425.813)" fill="#ff1d14"/><path d="M684.4,1428.831l-5.532.05a.446.446,0,0,0-.432.352l-.96,4.51a.741.741,0,0,0,.72.9c1.994-.053,3.767-.178,6.249-.2,2.931-.026,2.19.332,5.635.349,2.076.009,2.435-2.354,1.553-2.462-4.033-.471-4.462-1.683-6.028-3.11A1.784,1.784,0,0,0,684.4,1428.831Z" transform="translate(-677.454 -1427.238)" fill="#263238"/></g><path d="M680.993,1421.369h4.749l.157-3.153-1.075-.424-2.977.208-.943.281Z" transform="translate(-679.084 -1416.165)" opacity="0.2"/></g><g transform="translate(15.979 61.416)"><path d="M680.785,1273.412s1.684,28.321,1.662,37.774c-.023,9.936-1.933,39.7-1.933,39.7h-7.57s-.1-29.114-.923-38.775c-.7-8.183-4.8-32.5-4.8-32.5v-6.2Z" transform="translate(-667.219 -1273.412)" fill="#263238"/><path d="M676.878,1416.769l.067,3.041,8.9.1.081-2.989Z" transform="translate(-671.782 -1341.14)" fill="#263238"/><path d="M672.176,1309.481c1.935-12.767,1.019-28.516,1.019-28.516l-4.112,8.171C669.99,1294.713,671.323,1303.119,672.176,1309.481Z" transform="translate(-668.1 -1276.98)" opacity="0.4"/><path d="M676.878,1416.769l.067,3.041,8.9.1.081-2.989Z" transform="translate(-671.782 -1341.14)" fill="#fff" opacity="0.3"/></g><g transform="translate(1.715 61.416)"><path d="M661.006,1273.412s-4.034,29.871-5.534,39.805c-1.425,9.434-6.142,37.667-6.142,37.667l-7.57-.554s2.715-28.782,3.139-38.406c.309-7.011.135-20.774.369-28.066.185-5.724.554-10.447.554-10.447Z" transform="translate(-640.927 -1273.412)" fill="#263238"/><path d="M640.5,1415.626l-.323,3.047,8.863.739.462-2.954Z" transform="translate(-640.182 -1340.6)" fill="#263238"/><path d="M640.5,1415.626l-.323,3.047,8.863.739.462-2.954Z" transform="translate(-640.182 -1340.6)" fill="#fff" opacity="0.3"/></g><path d="M678.274,1198.485s3.6-.826,7.372,4.154c2.729,3.6,11.278,12.741,9.616,16.711-1.265,3.02-4.247,2.585-9.325-3.97S675.41,1197.5,678.274,1198.485Z" transform="translate(-656.089 -1176.569)" fill="#ff1d14"/><path d="M678.274,1198.485s3.6-.826,7.372,4.154c2.729,3.6,11.278,12.741,9.616,16.711-1.265,3.02-4.247,2.585-9.325-3.97S675.41,1197.5,678.274,1198.485Z" transform="translate(-656.089 -1176.569)" fill="#fff" opacity="0.7"/><g transform="translate(31.576 38.747)"><path d="M700.129,1231.077s-6.335,6.253-1.57,7.663c4.524,1.338,5.809-2.357,6.016-5.078C704.715,1231.816,704.1,1229.231,700.129,1231.077Z" transform="translate(-696.783 -1230.442)" fill="#ff1d14"/><path d="M700.129,1231.077s-6.335,6.253-1.57,7.663c4.524,1.338,5.809-2.357,6.016-5.078C704.715,1231.816,704.1,1229.231,700.129,1231.077Z" transform="translate(-696.783 -1230.442)" fill="#fff" opacity="0.7"/></g><path d="M647.807,1238.873a1,1,0,0,1-.923-1.051c.2-3.905.864-18.648-.33-26.175-1.385-8.725-2.216-13.017,7.2-14.264s15.371.139,16.756,7.063c1.19,5.951.744,27.043.595,32.853a1.73,1.73,0,0,1-1.548,1.68A119.957,119.957,0,0,1,647.807,1238.873Z" transform="translate(-641.08 -1175.884)" fill="#ff1d14"/><path d="M647.807,1238.873a1,1,0,0,1-.923-1.051c.2-3.905.864-18.648-.33-26.175-1.385-8.725-2.216-13.017,7.2-14.264s15.371.139,16.756,7.063c1.19,5.951.744,27.043.595,32.853a1.73,1.73,0,0,1-1.548,1.68A119.957,119.957,0,0,1,647.807,1238.873Z" transform="translate(-641.08 -1175.884)" fill="#fff" opacity="0.5"/><path d="M671.369,1192.907l.473-1.044-.734-1.212-1.245.128a4.339,4.339,0,0,1-.034-1.248,10.2,10.2,0,0,1,.209-1.269l-3.123-2.61-2.291-1.9c.534,2.4,1.126,6.3.053,8.514l5.567,3.166,1.835-2.187A4.444,4.444,0,0,1,671.369,1192.907Z" transform="translate(-650.014 -1169.636)" fill="#e67b62"/><path d="M657.157,1197.15s4.406-4.826,9.391,3.391a30.783,30.783,0,0,0-.213-4.149,2.013,2.013,0,0,1,3.034.666c.742,1.118.178,3.207-2.637,4.314A94.545,94.545,0,0,0,657.157,1197.15Z" transform="translate(-646.487 -1175.302)" fill="#ff1d14"/><path d="M671.928,1189.7a10.227,10.227,0,0,0-.209,1.269c-1.174-.233-2.933-1.279-3.095-2.6a5.319,5.319,0,0,1,.18-1.279Z" transform="translate(-651.904 -1171.215)" opacity="0.2" style="isolation:isolate"/><path d="M682.731,1169.18s3.4,1.7,2.5,3.122-2.581-.589-2.581-.589Z" transform="translate(-658.532 -1162.753)" fill="#263238"/><path d="M664.649,1168.835c-.475,3.75-.951,5.914.571,8.215a4.914,4.914,0,0,0,8.661-.775c1.426-3.152,1.93-8.756-1.383-11a4.992,4.992,0,0,0-7.849,3.561Z" transform="translate(-649.807 -1160.474)" fill="#e67b62"/><path d="M675.324,1178.85c-.057.3.057.58.252.623s.4-.167.475-.476-.058-.58-.252-.622S675.381,1178.55,675.324,1178.85Z" transform="translate(-655.063 -1167.094)" fill="#263238"/><path d="M681.992,1180.116c-.057.3.057.58.252.618s.4-.166.475-.475-.057-.58-.252-.623S682.049,1179.811,681.992,1180.116Z" transform="translate(-658.213 -1167.689)" fill="#263238"/><path d="M678.915,1180.47a11.535,11.535,0,0,0,.78,2.486,1.6,1.6,0,0,1-1.312,0Z" transform="translate(-656.515 -1168.086)" fill="#d54c38"/><path d="M675.751,1188.161a2.634,2.634,0,0,1-1.961-.6.1.1,0,0,1-.02-.127.086.086,0,0,1,.119-.021l0,0a2.513,2.513,0,0,0,2.155.519.085.085,0,0,1,.1.06l0,.01a.1.1,0,0,1-.07.108A3,3,0,0,1,675.751,1188.161Z" transform="translate(-654.328 -1171.359)" fill="#263238"/><path d="M673.715,1175.963a.162.162,0,0,1-.081-.029.175.175,0,0,1-.043-.245l.005-.007a1.734,1.734,0,0,1,1.426-.746.176.176,0,0,1,.162.189v.006a.18.18,0,0,1-.19.166,1.359,1.359,0,0,0-1.132.594A.166.166,0,0,1,673.715,1175.963Z" transform="translate(-654.236 -1165.472)" fill="#263238"/><path d="M683.872,1177.261a.19.19,0,0,1-.143-.09,1.48,1.48,0,0,0-1.074-.766.18.18,0,0,1-.167-.194h0a.185.185,0,0,1,.19-.166h0a1.805,1.805,0,0,1,1.355.951.18.18,0,0,1-.062.247A.2.2,0,0,1,683.872,1177.261Z" transform="translate(-658.454 -1165.996)" fill="#263238"/><path d="M661.149,1161.013s-4.73.849-2.084,2.6c0,0-2.787,2.056.511,2.552,0,0-.991,2.729,2.244,1.716,0,0,2.859.446,1.455-3.694,0,0,4.368,1.123,5.757-.608,0,0,4.753,3.319,5.493.252.57-2.364-2.326-2.444-2.326-2.444s1.151-1.963-.209-2.724a2.364,2.364,0,0,0-2.6.331s1.037-1.944-.75-1.993a3.529,3.529,0,0,0-2.6,1.586S659.806,1157.446,661.149,1161.013Z" transform="translate(-646.868 -1156.997)" fill="#263238"/><path d="M661.093,1177.011a4.008,4.008,0,0,0,1.464,2.291c.951.7,1.669-.147,1.616-1.341-.047-1.074-.6-2.733-1.65-2.952S660.837,1175.865,661.093,1177.011Z" transform="translate(-648.319 -1165.493)" fill="#e67b62"/><path d="M678.034,1215.941l-.847,9.371a1.058,1.058,0,0,1-.666.894,37.756,37.756,0,0,1-3.678,1.3,42.468,42.468,0,0,1-4.366.474,1.065,1.065,0,0,0-.974.888h0a1.067,1.067,0,0,0,.876,1.228l13.723,2.292a1.066,1.066,0,0,0,1.222-.846l2.758-13.994a1.066,1.066,0,0,0-.818-1.248l-5.94-1.3A1.067,1.067,0,0,0,678.034,1215.941Z" transform="translate(-651.367 -1184.386)" fill="#263238"/><g transform="translate(0 22.573)"><path d="M672.464,1244.231h3.964a1.151,1.151,0,0,0,.607-.173l2.121-1.316a1.15,1.15,0,0,1,.607-.173h.846a1.157,1.157,0,0,0,.279-.034l1.131-.283a1.152,1.152,0,0,1,1.133.346h0a1.151,1.151,0,0,1,.194,1.248l-1.319,2.9a1.152,1.152,0,0,1-1.048.674h-2.495a1.153,1.153,0,0,1-.175-.013l-2.467-.38a1.153,1.153,0,0,0-.293-.008l-3.085.318a1.151,1.151,0,0,1-1.257-1.313l.12-.807A1.15,1.15,0,0,1,672.464,1244.231Z" transform="translate(-653.118 -1219.832)" fill="#e67b62"/><path d="M645.73,1199.785c-.925,0-4.8-.275-7.2,9.7s-2.4,17.449,2.123,18.649,13.619,2.031,13.619,0l1.493-.113a1.03,1.03,0,0,0,.952-1.026v-2.582a1.029,1.029,0,0,0-1.079-1.028l-.834.04s-.026-1.108-2.057-1.2-8.948,1.036-9.076-1.185S650.345,1199.782,645.73,1199.785Z" transform="translate(-636.931 -1199.785)" fill="#ff1d14"/><path d="M645.73,1199.785c-.925,0-4.8-.275-7.2,9.7s-2.4,17.449,2.123,18.649,13.619,2.031,13.619,0l1.493-.113a1.03,1.03,0,0,0,.952-1.026v-2.582a1.029,1.029,0,0,0-1.079-1.028l-.834.04s-.026-1.108-2.057-1.2-8.948,1.036-9.076-1.185S650.345,1199.782,645.73,1199.785Z" transform="translate(-636.931 -1199.785)" fill="#fff" opacity="0.7"/></g><path d="M699.186,1232.5l-1.365.95a.783.783,0,0,0-.327.527l-.412,2.766-.668.7a.782.782,0,0,0,.02,1.1l.147.144a.783.783,0,0,0,.744.2l1.342-.35a.78.78,0,0,0,.51-.422l1.43-3.019a.782.782,0,0,0,.075-.335v-1.4a.783.783,0,0,0-.292-.609l-.268-.215A.782.782,0,0,0,699.186,1232.5Z" transform="translate(-664.932 -1192.604)" fill="#e67b62"/></g><g transform="translate(667.899 1190.193)"><g transform="translate(25.141 8.325)"><g transform="translate(5.381)"><path d="M787.563,1324.153a2.874,2.874,0,0,1-1.977-.531.6.6,0,0,1,.018-.694.834.834,0,0,1,.506-.369c1.128-.3,3.467,1.065,3.57,1.126a.157.157,0,0,1,.075.167.166.166,0,0,1-.13.13A11.813,11.813,0,0,1,787.563,1324.153Zm-1.06-1.321a1.047,1.047,0,0,0-.305.037.441.441,0,0,0-.315.22c-.121.2-.08.294-.035.349.309.442,2.008.468,3.264.324A7.379,7.379,0,0,0,786.5,1322.832Z" transform="translate(-785.484 -1320.925)" fill="#ff1d14"/><path d="M791.2,1322.554a.09.09,0,0,1-.066-.006c-.8-.365-2.409-1.841-2.258-2.6.018-.183.158-.4.6-.444a1.184,1.184,0,0,1,.886.281,4.577,4.577,0,0,1,1.023,2.618.158.158,0,0,1-.073.144A.148.148,0,0,1,791.2,1322.554Zm-1.623-2.744-.091-.009c-.287.022-.307.137-.32.178-.045.457,1.007,1.609,1.837,2.111a3.759,3.759,0,0,0-.877-2.075.835.835,0,0,0-.55-.206Z" transform="translate(-787.08 -1319.501)" fill="#ff1d14"/><g opacity="0.7"><path d="M787.563,1324.153a2.874,2.874,0,0,1-1.977-.531.6.6,0,0,1,.018-.694.834.834,0,0,1,.506-.369c1.128-.3,3.467,1.065,3.57,1.126a.157.157,0,0,1,.075.167.166.166,0,0,1-.13.13A11.813,11.813,0,0,1,787.563,1324.153Zm-1.06-1.321a1.047,1.047,0,0,0-.305.037.441.441,0,0,0-.315.22c-.121.2-.08.294-.035.349.309.442,2.008.468,3.264.324A7.379,7.379,0,0,0,786.5,1322.832Z" transform="translate(-785.484 -1320.925)" fill="#fff"/><path d="M791.2,1322.554a.09.09,0,0,1-.066-.006c-.8-.365-2.409-1.841-2.258-2.6.018-.183.158-.4.6-.444a1.184,1.184,0,0,1,.886.281,4.577,4.577,0,0,1,1.023,2.618.158.158,0,0,1-.073.144A.148.148,0,0,1,791.2,1322.554Zm-1.623-2.744-.091-.009c-.287.022-.307.137-.32.178-.045.457,1.007,1.609,1.837,2.111a3.759,3.759,0,0,0-.877-2.075.835.835,0,0,0-.55-.206Z" transform="translate(-787.08 -1319.501)" fill="#fff"/></g></g><path d="M785.5,1323.513l7.357.067a.593.593,0,0,1,.575.468l1.275,6a.984.984,0,0,1-.75,1.173.971.971,0,0,1-.207.023c-2.652-.07-5.009-.237-8.311-.262-3.9-.034-2.912.441-7.493.464-2.761.012-3.238-3.131-2.066-3.275,5.363-.625,5.934-2.238,8.017-4.136A2.372,2.372,0,0,1,785.5,1323.513Z" transform="translate(-775.285 -1321.395)" fill="#ff1d14"/><path d="M793.965,1335.752a.984.984,0,0,0,.75-1.173l-.145-.68c-.771-.055-1.672-.132-2.733-.239-5.356-.541-8.169.27-11.848.325a10.245,10.245,0,0,1-4.6-.88,2.378,2.378,0,0,0,2.563,2.873c4.581-.023,3.6-.5,7.493-.464,3.3.025,5.659.192,8.311.262A.971.971,0,0,0,793.965,1335.752Z" transform="translate(-775.288 -1325.927)" fill="#fff" opacity="0.6"/><path d="M804.329,1327.713a1.555,1.555,0,1,1-1.556-1.555A1.555,1.555,0,0,1,804.329,1327.713Z" transform="translate(-787.537 -1322.646)" fill="#fff"/></g><g transform="translate(11.093 8.282)"><g transform="translate(5.38)"><path d="M760.934,1324.072a2.874,2.874,0,0,1-1.977-.531.6.6,0,0,1,.018-.694.836.836,0,0,1,.506-.369c1.128-.3,3.467,1.065,3.57,1.126a.158.158,0,0,1,.076.167.169.169,0,0,1-.13.13A11.841,11.841,0,0,1,760.934,1324.072Zm-1.06-1.321a1.07,1.07,0,0,0-.306.037.444.444,0,0,0-.315.22c-.12.2-.08.294-.035.349.309.442,2.009.467,3.265.324A7.38,7.38,0,0,0,759.874,1322.751Z" transform="translate(-758.855 -1320.844)" fill="#ff1d14"/><path d="M764.569,1322.473a.094.094,0,0,1-.067-.007c-.8-.365-2.409-1.841-2.258-2.6.018-.183.157-.4.6-.444a1.185,1.185,0,0,1,.886.281,4.579,4.579,0,0,1,1.023,2.618.158.158,0,0,1-.073.144A.151.151,0,0,1,764.569,1322.473Zm-1.623-2.744-.091-.009c-.287.022-.308.137-.32.178-.045.457,1.006,1.609,1.837,2.111a3.751,3.751,0,0,0-.876-2.074.833.833,0,0,0-.55-.206Z" transform="translate(-760.452 -1319.42)" fill="#ff1d14"/><g opacity="0.7"><path d="M760.934,1324.072a2.874,2.874,0,0,1-1.977-.531.6.6,0,0,1,.018-.694.836.836,0,0,1,.506-.369c1.128-.3,3.467,1.065,3.57,1.126a.158.158,0,0,1,.076.167.169.169,0,0,1-.13.13A11.841,11.841,0,0,1,760.934,1324.072Zm-1.06-1.321a1.07,1.07,0,0,0-.306.037.444.444,0,0,0-.315.22c-.12.2-.08.294-.035.349.309.442,2.009.467,3.265.324A7.38,7.38,0,0,0,759.874,1322.751Z" transform="translate(-758.855 -1320.844)" fill="#fff"/><path d="M764.569,1322.473a.094.094,0,0,1-.067-.007c-.8-.365-2.409-1.841-2.258-2.6.018-.183.157-.4.6-.444a1.185,1.185,0,0,1,.886.281,4.579,4.579,0,0,1,1.023,2.618.158.158,0,0,1-.073.144A.151.151,0,0,1,764.569,1322.473Zm-1.623-2.744-.091-.009c-.287.022-.308.137-.32.178-.045.457,1.006,1.609,1.837,2.111a3.751,3.751,0,0,0-.876-2.074.833.833,0,0,0-.55-.206Z" transform="translate(-760.452 -1319.42)" fill="#fff"/></g></g><path d="M758.876,1323.434l7.357.067a.591.591,0,0,1,.574.468l1.276,6a.985.985,0,0,1-.75,1.174,1.028,1.028,0,0,1-.208.023c-2.651-.07-5.009-.238-8.311-.263-3.9-.034-2.912.441-7.494.465-2.761.011-3.237-3.131-2.065-3.275,5.363-.626,5.933-2.238,8.017-4.137A2.368,2.368,0,0,1,758.876,1323.434Z" transform="translate(-748.657 -1321.315)" fill="#ff1d14"/><path d="M767.336,1335.671a.985.985,0,0,0,.75-1.174l-.145-.68c-.771-.055-1.672-.132-2.733-.239-5.356-.541-8.17.271-11.848.325a10.246,10.246,0,0,1-4.6-.88,2.379,2.379,0,0,0,2.563,2.874c4.582-.024,3.6-.5,7.494-.465,3.3.025,5.659.193,8.311.263A1.011,1.011,0,0,0,767.336,1335.671Z" transform="translate(-748.66 -1325.847)" fill="#fff" opacity="0.8"/><path d="M777.7,1327.632a1.555,1.555,0,1,1-1.555-1.555A1.555,1.555,0,0,1,777.7,1327.632Z" transform="translate(-760.909 -1322.565)" fill="#fff"/></g><path d="M736.734,1304.985l.781,10.345a1.167,1.167,0,0,1-.562,1.093,41.653,41.653,0,0,1-3.764,2.08,46.759,46.759,0,0,1-4.661,1.309,1.173,1.173,0,0,0-.9,1.142h0a1.176,1.176,0,0,0,1.176,1.176h15.34a1.176,1.176,0,0,0,1.175-1.142l.458-15.719a1.176,1.176,0,0,0-1.116-1.209l-6.7-.339A1.176,1.176,0,0,0,736.734,1304.985Z" transform="translate(-727.629 -1303.72)" fill="#263238"/></g><g transform="translate(650.051 1208.224)"><g transform="translate(47.753 3.281)"><g transform="translate(0.361)"><path d="M811.833,1394.011l1.31-.071-2.383-44.681a5.433,5.433,0,0,0-5.426-5.144H792.806a5.434,5.434,0,0,0-5.427,5.144L785,1393.941l1.31.071.538-10.1h24.449ZM786.916,1382.6l1.775-33.273a4.121,4.121,0,0,1,4.116-3.9h12.527a4.121,4.121,0,0,1,4.116,3.9l1.775,33.273Z" transform="translate(-784.997 -1344.116)" fill="#263238"/><path d="M811.833,1394.011l1.31-.071-2.383-44.681a5.433,5.433,0,0,0-5.426-5.144H792.806a5.434,5.434,0,0,0-5.427,5.144L785,1393.941l1.31.071.538-10.1h24.449ZM786.916,1382.6l1.775-33.273a4.121,4.121,0,0,1,4.116-3.9h12.527a4.121,4.121,0,0,1,4.116,3.9l1.775,33.273Z" transform="translate(-784.997 -1344.116)" fill="#fff" opacity="0.2"/></g><path d="M835.653,1434.448l.749-.041a.609.609,0,0,0,.576-.641l-.324-6.069a.514.514,0,0,0-.513-.487H835.2a.514.514,0,0,0-.513.542l.326,6.12A.609.609,0,0,0,835.653,1434.448Z" transform="translate(-808.111 -1383.374)" fill="#263238"/><path d="M786.093,1427.211h-.941a.514.514,0,0,0-.513.487l-.324,6.069a.609.609,0,0,0,.576.641l.749.041a.61.61,0,0,0,.641-.576l.326-6.12A.514.514,0,0,0,786.093,1427.211Z" transform="translate(-784.313 -1383.374)" fill="#263238"/></g><g transform="translate(0 0)"><g transform="translate(2.408 1.968)"><rect width="26.836" height="6.123" fill="#ff1d14"/><rect width="26.836" height="6.123" fill="#fff" opacity="0.2"/></g><g transform="translate(29.244 1.968)"><rect width="46.424" height="6.123" fill="#ff1d14"/><rect width="46.424" height="6.123" fill="#fff" opacity="0.4"/></g><rect width="26.464" height="3.28" fill="#ff1d14"/><rect width="26.464" height="3.28" fill="#fff" opacity="0.5"/><g transform="translate(26.464)"><rect width="51.486" height="3.28" fill="#ff1d14"/><rect width="51.486" height="3.28" fill="#fff" opacity="0.7"/></g></g><g transform="translate(1.329 3.281)"><g transform="translate(0.361)"><path d="M723.835,1394.011l1.31-.071-2.383-44.681a5.434,5.434,0,0,0-5.426-5.144H704.808a5.433,5.433,0,0,0-5.426,5.144L697,1393.941l1.31.071.538-10.1H723.3ZM698.918,1382.6l1.775-33.273a4.121,4.121,0,0,1,4.116-3.9h12.527a4.121,4.121,0,0,1,4.116,3.9l1.775,33.273Z" transform="translate(-696.999 -1344.116)" fill="#263238"/><path d="M723.835,1394.011l1.31-.071-2.383-44.681a5.434,5.434,0,0,0-5.426-5.144H704.808a5.433,5.433,0,0,0-5.426,5.144L697,1393.941l1.31.071.538-10.1H723.3ZM698.918,1382.6l1.775-33.273a4.121,4.121,0,0,1,4.116-3.9h12.527a4.121,4.121,0,0,1,4.116,3.9l1.775,33.273Z" transform="translate(-696.999 -1344.116)" fill="#fff" opacity="0.2"/></g><path d="M747.655,1434.448l.749-.041a.609.609,0,0,0,.576-.641l-.324-6.069a.514.514,0,0,0-.513-.487H747.2a.514.514,0,0,0-.513.542l.326,6.12A.609.609,0,0,0,747.655,1434.448Z" transform="translate(-720.113 -1383.374)" fill="#263238"/><path d="M698.094,1427.211h-.941a.514.514,0,0,0-.513.487l-.324,6.069a.609.609,0,0,0,.575.641l.75.041a.609.609,0,0,0,.64-.576l.327-6.12A.514.514,0,0,0,698.094,1427.211Z" transform="translate(-696.315 -1383.374)" fill="#263238"/></g></g><g transform="translate(674.443 1217.943)"><path d="M742.582,1356.322c4.175.334,27.319,2.023,45.116.013a.511.511,0,0,1,.572.519,126.925,126.925,0,0,0,.986,17.448.516.516,0,0,1-.456.584c-3.107.316-19.8,1.79-45.351-.017a.519.519,0,0,1-.483-.568,68.643,68.643,0,0,0-.934-17.374A.52.52,0,0,1,742.582,1356.322Z" transform="translate(-740.973 -1356.32)" fill="#ff1d14"/><path d="M774.839,1362.378l3.542-2.215,1.248,3,4.887-.84-1.381,2.974,4.923.759-3.639,2.156,3.639,2.156-4.923.76,1.381,2.974-4.887-.84-1.248,3-3.542-2.215-3.542,2.215-1.248-3-4.887.84,1.381-2.974-4.922-.76,3.639-2.156-3.639-2.156,4.922-.759-1.381-2.974,4.887.84,1.248-3Z" transform="translate(-750.231 -1358.136)" fill="#f5f5f5"/><g transform="translate(17.493 8.079)"><path d="M773.877,1375.5a2.062,2.062,0,0,1-.686-.322l.3-.672a2.048,2.048,0,0,0,.589.292,2.205,2.205,0,0,0,.684.11,1.089,1.089,0,0,0,.562-.113.341.341,0,0,0,.181-.3.29.29,0,0,0-.107-.229.829.829,0,0,0-.275-.146q-.169-.055-.455-.121a6.337,6.337,0,0,1-.722-.209,1.178,1.178,0,0,1-.482-.336.908.908,0,0,1-.2-.617,1.071,1.071,0,0,1,.182-.609,1.22,1.22,0,0,1,.548-.432,2.235,2.235,0,0,1,.9-.16,2.946,2.946,0,0,1,.722.089,2.123,2.123,0,0,1,.617.253l-.275.677a2.152,2.152,0,0,0-1.069-.3,1,1,0,0,0-.553.121.369.369,0,0,0-.179.319.312.312,0,0,0,.207.295,3.274,3.274,0,0,0,.63.19,6.172,6.172,0,0,1,.722.209,1.194,1.194,0,0,1,.482.331.887.887,0,0,1,.2.612,1.053,1.053,0,0,1-.185.6,1.235,1.235,0,0,1-.554.433,2.256,2.256,0,0,1-.9.16A3.148,3.148,0,0,1,773.877,1375.5Z" transform="translate(-773.191 -1371.633)" fill="#ff1d14"/><path d="M782.514,1374.788h-1.791l-.342.827h-.914l1.719-3.857h.882l1.725,3.857h-.937Zm-.281-.678-.611-1.476-.612,1.476Z" transform="translate(-776.156 -1371.692)" fill="#ff1d14"/><path d="M788.427,1371.758h.893v3.129h1.933v.728h-2.826Z" transform="translate(-780.389 -1371.692)" fill="#ff1d14"/><path d="M797.721,1374.9v.716h-2.986v-3.857h2.914v.717h-2.027v.838h1.79v.694h-1.79v.893Z" transform="translate(-783.369 -1371.692)" fill="#ff1d14"/></g><g transform="translate(0 0.226)"><path d="M740.445,1357.575a1.607,1.607,0,0,1,1.784,0c.289.21.566-.271.28-.479a2.149,2.149,0,0,0-2.343,0,.277.277,0,0,0,.28.479Z" transform="translate(-740.032 -1356.748)" fill="#ff1d14"/><g opacity="0.5"><path d="M740.445,1357.575a1.607,1.607,0,0,1,1.784,0c.289.21.566-.271.28-.479a2.149,2.149,0,0,0-2.343,0,.277.277,0,0,0,.28.479Z" transform="translate(-740.032 -1356.748)" fill="#fff"/></g></g><g transform="translate(45.838 0.226)"><path d="M827.332,1357.575a1.608,1.608,0,0,1,1.784,0c.289.21.565-.271.28-.479a2.15,2.15,0,0,0-2.343,0,.277.277,0,0,0,.28.479Z" transform="translate(-826.919 -1356.748)" fill="#ff1d14"/><g opacity="0.5"><path d="M827.332,1357.575a1.608,1.608,0,0,1,1.784,0c.289.21.565-.271.28-.479a2.15,2.15,0,0,0-2.343,0,.277.277,0,0,0,.28.479Z" transform="translate(-826.919 -1356.748)" fill="#fff"/></g></g><g transform="translate(46.707 17.103)"><path d="M828.978,1389.566a1.608,1.608,0,0,1,1.784,0c.289.21.566-.27.28-.478a2.148,2.148,0,0,0-2.343,0,.277.277,0,0,0,.28.478Z" transform="translate(-828.566 -1388.74)" fill="#ff1d14"/><g opacity="0.5"><path d="M828.978,1389.566a1.608,1.608,0,0,1,1.784,0c.289.21.566-.27.28-.478a2.148,2.148,0,0,0-2.343,0,.277.277,0,0,0,.28.478Z" transform="translate(-828.566 -1388.74)" fill="#fff"/></g></g><g transform="translate(0.949 17.256)"><path d="M742.243,1389.855a1.608,1.608,0,0,1,1.784,0c.289.21.565-.27.28-.479a2.15,2.15,0,0,0-2.344,0,.277.277,0,0,0,.28.479Z" transform="translate(-741.83 -1389.029)" fill="#ff1d14"/><g opacity="0.5"><path d="M742.243,1389.855a1.608,1.608,0,0,1,1.784,0c.289.21.565-.27.28-.479a2.15,2.15,0,0,0-2.344,0,.277.277,0,0,0,.28.479Z" transform="translate(-741.83 -1389.029)" fill="#fff"/></g></g></g></g></svg>