<svg xmlns="http://www.w3.org/2000/svg" xmlns:xlink="http://www.w3.org/1999/xlink" width="265.22" height="192.498" viewBox="0 0 265.22 192.498"><defs><linearGradient id="a" x1="0.093" y1="1.08" x2="0.749" y2="-0.04" gradientUnits="objectBoundingBox"><stop offset="0.346" stop-color="#fff"/><stop offset="0.697" stop-color="#b0b0b0"/></linearGradient></defs><g transform="translate(-233.133 -1367.065)"><g transform="translate(432.978 1409.901)"><path d="M503.528,1444.8l-3.852,4.291.315,2.522,4.506-5.507Z" transform="translate(-478.808 -1423.268)" fill="#d8d8d8"/><g transform="translate(11.925)"><path d="M504.713,1431.042c.209,1.808,3.074,7.923,4.725,10.147s1.846,2.529,1.846,2.529l-8.844,4.082s-1.769-4.042-3.307-5.444S504.713,1431.042,504.713,1431.042Z" transform="translate(-490.602 -1420.902)" fill="#ddac9e"/><path d="M491.078,1432.015c.811,5.173,4.019,10.694,6.635,10.285s7.39-3.307,6.475-11.177c-.606-5.2-4.01-9.541-8.8-8.019C490.156,1424.762,490.272,1426.829,491.078,1432.015Z" transform="translate(-489.183 -1419.484)" fill="#eac3b7"/><path d="M489.224,1423.74c-.74,2.463-.25,3.673.989,3.654s3.043-1,3.971-.394c.869.565,2.229.542,2.878.921s-.719-1.994-.719-1.994l1.225,1.812-.382-1.86.5.915,2.107,1.193.786,2.594,1.436.8.148-2.016,1.428,3.091,2.227,3.394s1.866-3.566,1.994-5.309a10.476,10.476,0,0,0-.3-3.638c-.232-1.439-.3-1.779-.611-3.113-.35-1.449-1.889-3.424-2.887-3.609s-1.606-.334-2.077-.041-.614-.813-2.063-1.025a9.238,9.238,0,0,0-3.466-.257c-2.039.185-3.928,1.938-5.461,2.92A6.173,6.173,0,0,0,489.224,1423.74Z" transform="translate(-488.876 -1418.796)" fill="#300901"/><path d="M494.573,1436.358l-.109.011h0a1.125,1.125,0,0,1-1.071-.919l.272-.066-.272.065-.251-.961h0c-.015-.06-.022-.1-.031-.156h0a1.091,1.091,0,0,1,.651-1.289l1.987-.483h0a.461.461,0,0,1,.118-.017h0a1.119,1.119,0,0,1,1.065,1.03l.063.329.121.656h0a.569.569,0,0,1,.024.154h0a1.094,1.094,0,0,1-.706,1.21l-1.86.437Zm1.8-2.65c-.055-.278-.25-.441-.421-.428h-.007l-.022,0-1.977.479h0c-.178.042-.289.257-.258.52h0c0,.013.012.046.02.091l.234.945h0a.466.466,0,0,0,.434.393h0a.237.237,0,0,0,.075-.007l1.854-.449h0a.431.431,0,0,0,.271-.5v-.018l-.139-.7-.063-.326Z" transform="translate(-489.601 -1421.159)" fill="#5e1c17"/><path d="M491.166,1437.045a.222.222,0,0,1-.043.011h0c-.3-.021-.5-.481-.591-.984l-.166-.913h0c-.009-.072-.017-.132-.024-.2h0c-.05-.452,0-.945.272-1.048l.812-.232h0a.038.038,0,0,1,.03-.009h.009c.3.022.5.493.595,1l.156.919h0a1.223,1.223,0,0,1,.03.192h0c.046.451-.013.931-.274,1.038l-.8.229Zm.554-2.279a.749.749,0,0,0-.181-.438v0l-.814.248h0s-.065.078-.031.371h0c0,.031.009.078.019.133l.157.9h0a.688.688,0,0,0,.183.43h0s0,0,.022,0l.786-.235h0a.581.581,0,0,0,.033-.374h0c0-.046-.009-.076-.009-.088l-.165-.941Z" transform="translate(-489.125 -1421.354)" fill="#5e1c17"/><path d="M497.62,1432.837s7.73-2.909,7.948-2.729a4.344,4.344,0,0,0,.619.595l-.919-.111-7.571,3.43Z" transform="translate(-490.379 -1420.74)" fill="#5e1c17"/><path d="M504.683,1431.485a1.358,1.358,0,0,1,2.4-.524c.5.9.56,4.34-1.11,4.951S504.683,1431.485,504.683,1431.485Z" transform="translate(-491.587 -1420.795)" fill="#eac3b7"/><path d="M493.247,1434.714l-1.047.126.083.847,1.1-.248Z" transform="translate(-489.447 -1421.533)" fill="#5e1c17"/></g><path d="M498.564,1484.048l-.292-1.6a102.038,102.038,0,0,1-.761-19.189c.53-6.31,1.688-9.274,3.194-11.529a10.392,10.392,0,0,1,2.235-2.237c3.111-2.331,6.849-5.786,6.849-5.786,3.62,3.02,7.046,5.017,7.7,14.962s-.154,10.773.422,14.642c.967,6.427,2.82,11.083-.68,12.153C517.23,1485.46,498.577,1487.178,498.564,1484.048Z" transform="translate(-478.402 -1423.079)" fill="#c0d9f2"/><path d="M486.065,1476.927c-.628-.182-4.662-1.342-6.539-.927a19.464,19.464,0,0,0-3.143.952c-.552.25-2.584,2.061-1.68,2.175.165.026.617-.55.858-.644a1.8,1.8,0,0,0-.756,1.193c.12.219.306.163.615-.03.135-.078.841-.539.984-.63-1.385.815-.9,1.26-.915,1.241.18.271,1.391-.749,1.891-.88.037-.011.082-.029.128-.046-.377.228-1.23.682-1.32,1.086-.051.244.383.2.934-.048.211-.093.669-.254,1.2-.427a1.6,1.6,0,0,0,.176-.037c2-.5,4.918.84,8.02-.189Z" transform="translate(-474.475 -1428.617)" fill="#ddac9e"/><path d="M498.84,1450.731c-1.38-.2-3.325,1.6-4.51,6.54-.713,2.969-1.562,10.051-1.562,10.051l-9.183,4.291,2.222,2.913,11.354-1.182.89-17.575Z" transform="translate(-476.041 -1424.285)" fill="#c0d9f2"/><g transform="translate(18.949 26.043)"><path d="M503.045,1451.757l-1.491,2.843-1.012-.193V1451s.864-1,1.447-.7S503.045,1451.757,503.045,1451.757Z" transform="translate(-497.905 -1450.246)" fill="#037f4a"/><path d="M500.2,1453.912c-1.97,6.563-2.844,19.176-2.844,19.176l2.285,4.1.921-3.45.624-19.866Z" transform="translate(-497.358 -1450.871)" fill="#037f4a"/></g><path d="M488.371,1478.472c-.621-.207-4.6-1.53-6.5-1.193a18.4,18.4,0,0,0-3.177.823c-.561.224-2.671,1.949-1.77,2.1.165.03.639-.526.885-.609a1.8,1.8,0,0,0-.806,1.162c.111.22.3.172.615,0,.139-.081.861-.508,1.012-.593-1.418.756-.958,1.219-.967,1.2.168.281,1.423-.689,1.925-.8.036-.009.083-.03.131-.041-.388.211-1.256.63-1.364,1.03-.063.241.377.217.938-.007.213-.085.674-.229,1.212-.377.054-.008.106-.015.176-.03,2.021-.421,4.876,1.042,8.023.141Z" transform="translate(-474.859 -1428.843)" fill="#eac3b7"/><g transform="translate(12.622 25.541)"><path d="M508.05,1450.886c-2.37,1.927-1.753,14.079-2.5,15.212-.639.957-6.213,4.529-12.589,6.515-1.469.459.591,5.184.591,5.184s5.8,1.686,18.07-5.036c3.181-1.742,3.978-7.164,3.906-9.451C515.161,1451.924,512.633,1447.162,508.05,1450.886Z" transform="translate(-490.184 -1449.64)" fill="#fff"/><path d="M493.528,1477.384l-3.8.545s-.1,4.544.5,5.232a20.219,20.219,0,0,1,4.267-.667Z" transform="translate(-489.718 -1454.411)" fill="#fff"/></g><path d="M511.853,1443.751l-2.481-2.333-7.434,6.563,1.747,4.226Z" transform="translate(-479.197 -1422.686)" fill="#fff"/></g><g transform="translate(334.262 1367.065)"><path d="M513.252,1457.285l-157.991-4.034.015-78.175,157.483-8.012Z" transform="translate(-355.261 -1367.065)" fill="#ff3c00" opacity="0.24"/><path d="M389.793,1384.252l-29.217,71.619,7.486.563Z" transform="translate(-356.175 -1370.02)" fill="#fff" opacity="0.58"/><path d="M430.021,1373.353l-28.077,81.26,18.89.448L448.1,1371.37Z" transform="translate(-363.288 -1367.805)" fill="#fff" opacity="0.58"/></g><path d="M339.347,1472.8l124.783,8.41v84.113L339.347,1548Z" transform="translate(-18.263 -18.18)" fill="#96c3f2"/><path d="M538.189,1555.437,488.6,1565.745v-79.413l49.593-9.646Z" transform="translate(-43.925 -18.849)" fill="#7aa7d6"/><g transform="translate(307.085 1448.61)"><path d="M467.2,1478.609l-144.752-8.724,28.481-4.343,162.785,6.76Z" transform="translate(-322.442 -1465.542)" fill="#fff"/><path d="M467.375,1486.441,322.441,1475.72v-4.932l144.934,8.385Z" transform="translate(-322.441 -1466.444)" fill="#ff3c00"/><path d="M543.589,1479.872l-46.444,7.067v-7.2l46.444-6.074Z" transform="translate(-352.48 -1466.938)" fill="#cc3000"/><g transform="translate(106.593 3.989)"><path d="M470.364,1470.36l-19.2,3.12,27.773,1.384,19.052-3.17Z" transform="translate(-451.168 -1470.36)" fill="#c0d9f2"/><g transform="translate(0.813 0.08)"><path d="M460.4,1473.988l10.943-1.638v-1.894l-19.2,3.12Z" transform="translate(-452.15 -1470.456)" fill="#7aa7d6"/></g></g></g><g transform="translate(391.243 1402.803)"><g transform="translate(0 3.913)"><path d="M433.474,1423.9c-.079,1.864-3.256,7.621-4.818,10.007a47.423,47.423,0,0,1-4.582,5.533l11.27,7s1.182-11.071,4.56-12C441.99,1433.868,433.474,1423.9,433.474,1423.9Z" transform="translate(-424.074 -1416.49)" fill="#ddac9e"/><g transform="translate(8.209 13.669)"><path d="M441.895,1435.259c.528-.29.091-1.437-.565-2.656l-1.241-1.145-6.1,11.31,2.025,2.305,1.78-1.668S438.388,1437.232,441.895,1435.259Z" transform="translate(-433.987 -1431.458)" fill="#eac3b7"/></g><path d="M448.891,1423.11c-1.706,6.695-5.5,11.605-8.266,11.364s-7.945-5.484-7.5-10.834,4.545-9.712,9.674-8.48C448.386,1416.505,450.211,1417.909,448.891,1423.11Z" transform="translate(-425.626 -1414.95)" fill="#eac3b7"/></g><path d="M449.049,1421.778c2.179-1.531-2.707-12.6-10.9-11.474s-9.528,5.555-9.905,9.683,1.4,8.4.2,8.616c-1.606.286,8.22,3.521,8.22,3.521s4.081-4.25,4.317-5.188c.695-2.73,3.476-3.272,3.112-1.583s.59,1.5.59,1.5l.335.476s1.991-4.442,2.789-5.144S449.049,1421.778,449.049,1421.778Z" transform="translate(-424.782 -1410.225)" fill="#300901"/><path d="M428.25,1436.958l1.042-1.8,9.418,3.63-.737,2.327Z" transform="translate(-424.792 -1414.512)" fill="#fff"/></g><path d="M422.53,1437.9c-4.192.2-9.426,1.2-11.7,2.5,0,0-2.692,21.378-4.4,26.664-5.867,18.13-8.157,22.579-8,25.062s32.37,11.092,35.2,9.6c1.49-10.159.545-27.34,2.666-34.662,2.117-7.342,3.762-17.447,3.762-17.447s1.039-1.759-2.207-4.422a20.77,20.77,0,0,0-6.017-3.342Z" transform="translate(-28.421 -12.179)"/><path d="M427.111,1436.072l-2.941,1.883s7.753,4.776,10.312,5.021a7.807,7.807,0,0,0,3.826-.352l-.063-2.213s-5.072-1.79-7.182-2.486A20.843,20.843,0,0,1,427.111,1436.072Z" transform="translate(-32.848 -11.865)"/><path d="M412.03,1441.054c-1.8-2.116-11.668,19.055-10.4,23.73s20.636,4.328,23.331,4.534c2.711.2-7.347-7.6-7.347-7.6l3.777-4.74-8.048-4.654S412.478,1441.577,412.03,1441.054Z" transform="translate(-28.953 -12.697)"/><g transform="translate(402.298 1430.042)"><path d="M473.359,1469.251a16.846,16.846,0,0,1,4.333-1.06c.994-.022,3.013.133,3.506.741s.139.93.139.93a1.464,1.464,0,0,1,.113,2.04,1.243,1.243,0,0,1-.6,1.669c.31.586-.545.851-1.023.889a28.28,28.28,0,0,1-4.6-.567c-.584-.074-4.723,2.153-5.522,2.394s-2.054-6.514-2.054-6.514Z" transform="translate(-442.622 -1447.43)" fill="#eac3b7"/><path d="M441.135,1453.032a33.849,33.849,0,0,0,7.644,18.235,153.913,153.913,0,0,0,20.63,1.846,23.046,23.046,0,0,0-.892-8.671,70.389,70.389,0,0,1-12.9-2.072c-3.138-.961-7.726-15.444-9.658-16.5-4.22-2.3-7.809-4.054-8.533-1.477C437.424,1444.4,439.327,1446.575,441.135,1453.032Z" transform="translate(-437.424 -1443.12)"/></g><g transform="translate(233.133 1395.286)"><path d="M256.9,1430.223l4.8,4.68-.168,2.955-5.65-6.046Z" transform="translate(-237.043 -1406.146)" fill="#d8d8d8"/><path d="M253.707,1415.875c-.106,2.108-3.677,8.653-5.418,11.357s-1.614,3.068-1.614,3.068l10.189,3.626a34.507,34.507,0,0,1,3.9-6.092C262.443,1426.092,253.707,1415.875,253.707,1415.875Z" transform="translate(-235.461 -1403.678)" fill="#ddac9e"/><path d="M249.887,1426.452l1.1-1.026,8.57,8.631-.171,3.913Z" transform="translate(-236.014 -1405.32)" fill="#fff"/><path d="M244.036,1576.352c.811,2.438.137,5-.267,8.26s-1.219,5.685,2.03,6.5,18.013.9,18.013.9,4.334-3.88-2.979-4.966c-5.685-.84-8.533-5.96-8.264-10.7C252.64,1575.136,244.036,1576.352,244.036,1576.352Z" transform="translate(-234.893 -1431.179)" fill="#2b2b2b"/><path d="M262.339,1499.541c-.506,11.089-1,32.606-1.792,38.4-1.045,7.6-2.169,33.84-2.169,33.84l-13.478-.419s-3.365-27.241.161-37.82c1.072-3.208-3.018-35.005-3.018-35.005Z" transform="translate(-234.665 -1417.892)" fill="#2b2b2b"/><path d="M241.054,1580.129c.81,2.437.133,5.012-.272,8.266-.253,2.029-.65,3.952-.094,5.107.332.695,2.2,1.04,3.452,1.04,2.237,0,1.943-1.067,3.325-1.012,1.049.041,2.843,1.06,4.014,1.193a39.668,39.668,0,0,0,7.99.252s6.156-3.1-1.156-4.2a10.245,10.245,0,0,1-8.725-10.65C249.652,1578.913,241.054,1580.129,241.054,1580.129Z" transform="translate(-234.384 -1431.828)"/><path d="M259.934,1500.276c-.51,11.074-1.038,32.51-2.626,40.455-1.5,7.508-3.035,34.058-3.035,34.058l-15.911-.215a365.574,365.574,0,0,1,2.292-39.013c.789-7.09-.075-13.779-.47-24.158-.061-1.594-1.305-4.26-1.364-5.68a24.154,24.154,0,0,1,1.132-8.625Z" transform="translate(-234.032 -1417.644)"/><path d="M263.61,1492.013l-.66-12.956s1.2-16.282-.31-26.358c-1.089-7.276-3.418-11.82-5.338-14.317a23.851,23.851,0,0,0-1.66-2.365c-2.521-2.514-9.671-5.52-9.671-5.52-3,5.083-6.077,7.11-6.077,18.7s.813,18.3.436,22.837c-.627,7.529-1.588,14.29-1.755,20.421C238.575,1492.454,263.834,1495.645,263.61,1492.013Z" transform="translate(-234.069 -1406.193)"/><path d="M246.233,1430.369l3.026-3.7s6.806,7.656,8.123,8.414a29.245,29.245,0,0,1,5.77,12.335c-.758-.754-4.957-6.657-4.957-6.657l-.087-3.3-2.714-.123Z" transform="translate(-235.385 -1405.534)" fill="#2b2b2b"/><g transform="translate(0 85.201)"><path d="M257.881,1511.929l-9.836-.226h0a.879.879,0,0,1-.861-.9l.133-5.9h0a.886.886,0,0,1,.9-.862l9.835.225h0a.886.886,0,0,1,.862.9l-.135,5.9h0a.888.888,0,0,1-.9.863Zm-9.517-1.389,9.254.208.121-5.316-9.252-.211-.123,5.319Z" transform="translate(-235.549 -1504.039)" fill="#1f4c6b"/><path d="M233.532,1535.29a.376.376,0,0,0,.355.393l32.4.739a.378.378,0,0,0,.373-.382l.558-24.675a.377.377,0,0,0-.352-.4l-32.4-.735a.381.381,0,0,0-.381.38Z" transform="translate(-233.202 -1505.104)" fill="#0b253f"/><path d="M233.133,1520.957a.379.379,0,0,0,.373.389l33.671.768a.382.382,0,0,0,.391-.378l.271-11.766a.388.388,0,0,0-.378-.4l-33.67-.767a.384.384,0,0,0-.391.378Z" transform="translate(-233.133 -1504.859)" fill="#1f4c6b"/><rect width="2.653" height="5.604" transform="translate(14.361 18.715) rotate(-88.674)" fill="#8eafc1"/></g><path d="M254.6,1490.978c-.041,1.189.561,3.2.522,4.4s1.525,5.377,1.447,6.109.06,1.827.021,2.521c-.085,1.805-1.455,1.256-1.63.382-.064-.3-.071-.233-.071-.233s-.186.9-.779.946c-.793.051-1.042-.375-1.22-.942-.21.747-1.371.693-1.625-.352-.594.774-1.268.268-1.616-1.175a57.163,57.163,0,0,1-.051-7.021,30.9,30.9,0,0,0-.947-5.253Z" transform="translate(-235.8 -1416.486)" fill="#e8c8ba"/><path d="M256.537,1495.719l-.094,2.427-7.558.878-.378-3.847Z" transform="translate(-235.776 -1417.314)" fill="#fff"/><path d="M254.362,1446.725c-.527-4.128-5.329-6.24-8-4.261s-3.7,16.076-2.425,28.042c0,0,2.279,17.653,2.446,18.648a34.675,34.675,0,0,1,10.417-1.274l-3.773-21.853Z" transform="translate(-234.897 -1408.121)" fill="#2b2b2b"/><path d="M253.165,1486.4l9.448-2.2-.221,4.83-9.887,2.641Z" transform="translate(-236.464 -1415.428)" fill="#2b2b2b"/><path d="M269.32,1415.968c.541-6.068.518-8.477-5.676-10-5.678-1.4-9.051,3.9-9.595,9.972s5.1,11.551,8.162,11.825c1.9.169,3.954-2.06,5.379-5.221.739.066,1.94.118,1.779-.289a26.491,26.491,0,0,1-.4-3.943A20.262,20.262,0,0,0,269.32,1415.968Z" transform="translate(-236.723 -1401.935)" fill="#eac3b7"/><path d="M268.8,1405.182c1.045,2.8.575,4.562-.867,4.636s-2.839-.176-3.871.6c-.963.724-2.545.806-3.263,1.29s.681-2.367.681-2.367l-1.286,2.193.3-2.187-.509,1.1-2.348,1.542-.714,3.072-1.6,1.039-.33-2.326-1.419,3.7-2.849,3.776a25.2,25.2,0,0,1-2.194-5.677,12.155,12.155,0,0,1,.069-4.243,35.964,35.964,0,0,1,.474-3.654c.292-1.714,1.927-4.12,3.074-4.412s1.838-.509,2.4-.2.653-1,2.314-1.349a10.787,10.787,0,0,1,4-.562,11.625,11.625,0,0,1,5.788,1.887A7.18,7.18,0,0,1,268.8,1405.182Z" transform="translate(-235.753 -1401.146)" fill="#300901"/><path d="M255.652,1415.622a1.576,1.576,0,0,0-2.819-.422c-.508,1.075-.32,5.073,1.662,5.656S255.652,1415.622,255.652,1415.622Z" transform="translate(-236.479 -1403.441)" fill="#eac3b7"/></g><g transform="translate(292.267 1403.164)"><path d="M340.582,1474.017c.277,3.361,2.942,47.464,2.942,47.464s-8.11.652-10.906-.187l3.361-68.711a13.613,13.613,0,0,1-.561-3.922c1.962,1.687,4.253,6.726,4.253,8.129S340.582,1474.017,340.582,1474.017Z" transform="translate(-309.373 -1417.194)" fill="#4d87db"/><g transform="translate(15.266 90.238)"><g transform="translate(0.756)"><path d="M339.336,1519.636c.25,3.982-2.922,19.328-4.183,20.925s-4.434,26-4.44,29.134c.006,3.885,3.427,8.89,7.684,11.323-2.632,1.366-7.741-1.158-9.791-5.338-1.112-2.265-4.119,1.164-4.5-.363-.852-3.462,1.108-4.438,1.51-9.486s-1.931-20.784,2.251-28.363c2.552-4.632-3.213-11.113-2.52-12.751S339.336,1519.636,339.336,1519.636Z" transform="translate(-323.895 -1519.636)" fill="#ddac9e"/></g><path d="M325.008,1578.516a5.454,5.454,0,0,0-1.961,4.976c.368,2.041,1.12,6.909.551,8.451,1.03.362,1.086.132,1.086.132s.6-7.132,1.542-6.628,2.054,4.828,3.605,7,8.848,2.1,9.313,1.545a1.878,1.878,0,0,0-.682-2.874,14.609,14.609,0,0,1-2.781-1.912s-4.373,1.147-5.868-1.621S325.008,1578.516,325.008,1578.516Z" transform="translate(-322.981 -1529.76)"/></g><g transform="translate(11.02 89.594)"><path d="M331.921,1521.044c.6,4.142-.211,16.528-2.449,20.169-1.12,1.821-3.909,25.907-3.637,29.195.34,4.076,4.354,9.014,9.02,11.193-2.637,1.657-8.2-.545-10.712-4.735-1.358-2.286-4.211,1.571-4.74,0-1.193-3.548.78-4.738.761-10.062s-4.567-18.7-.85-26.99c2.275-5.079.26-18.67.843-20.449S331.921,1521.044,331.921,1521.044Z" transform="translate(-317.854 -1518.858)" fill="#eac3b7"/><path d="M319.971,1580.049a5.722,5.722,0,0,0-1.625,5.376c.561,2.1,1.771,7.138,1.312,8.794,1.108.3,1.138.044,1.138.044s.013-7.514,1.043-7.065,2.569,4.879,4.388,7.021,9.442,1.423,9.874.814a1.972,1.972,0,0,0-.952-2.955,15.548,15.548,0,0,1-3.08-1.759s-4.486,1.577-6.282-1.195S319.971,1580.049,319.971,1580.049Z" transform="translate(-317.913 -1529.379)"/></g><path d="M336.883,1443.322c.478,4.018,3.85,8.027,6.418,6.581-1.6,1.768-6.261,6.425-8.827,2.091s-.8-5.623-.8-5.623Z" transform="translate(-309.452 -1416.276)" fill="#232121"/><path d="M339.022,1426.309c-5.059,7.71-3.374,19.429,2.126,16.539-1.447.962-2.772,4.214-6.626.721s-4.814-7.108-3.129-11.44,5.862-8.388,5.862-8.388Z" transform="translate(-309.025 -1412.909)" fill="#232121"/><path d="M334.416,1428.346c-3.491,8.3-2.314,16.726,3.18,23.171,1.523,1.788-5.16.879-8.429-.8-2.883-1.476-5.459-3.819-7.354-4.3,1.309-1.466,2.627-16.493,4.308-18.176C329.432,1424.933,334.416,1428.346,334.416,1428.346Z" transform="translate(-307.515 -1413.435)" fill="#eac3b7"/><path d="M323.249,1442.535c1.743.868,4.83,4.343,4.83,4.343,4.723,5.882,6.756,5.5,7.89,6.972,3.211,4.182,1.792,7.734.45,9.3-1,1.164-1.31,2.02-1.2,4.421.08,1.693,3.1,54.537,3.1,54.537s-25.218-.822-24.657-2.911c9.241-34.453,7.833-56.062,5.183-66.416C317.162,1446.2,320.59,1441.22,323.249,1442.535Z" transform="translate(-306.112 -1416.104)" fill="#ce0000"/><path d="M332.124,1435.656l-5.177,7.106-5.3-7.706,5.9-4.336Z" transform="translate(-307.487 -1414.109)" fill="url(#a)" style="mix-blend-mode:multiply;isolation:isolate"/><path d="M321.85,1419.909c.3-6.65,4.716-9.472,10-9.235s8.011,4.545,7.717,11.189a22.745,22.745,0,0,1-.448,3.643,19.242,19.242,0,0,0,.58,2.169c.012.544-.722.741-1.5.807-1.352,3.187-2.661,6.292-7.013,5.062C326.1,1432.111,321.561,1426.559,321.85,1419.909Z" transform="translate(-307.519 -1410.66)" fill="#eac3b7"/><path d="M327.047,1420.36c11.267,1.742,12.359.056,12.474-.348.835-2.935-1.3-8.327-7.869-9.1-7.288-.841-11.908,5.568-11.743,7.12.432,4.277,3.376,11.935,3.376,11.935Z" transform="translate(-307.187 -1410.691)"/><path d="M320,1442.749c3.08,2.8,8.629,11.809,12.27,11.809-.561,1.961,1.31,70.406,1.31,70.406s-30.781-1.879-28.958-5.4c2.943-5.668,3.287-26.3,13.982-46.844.533-1.021-1.69-12.609-1.97-13.449s-1.962-9.524-1.962-9.524Z" transform="translate(-304.546 -1416.178)" fill="#3357bc"/><g transform="translate(3.71 76.077)"><g transform="translate(9.283 0.331)"><path d="M335.387,1513.012l-.094.007-.022-.009h0a1.2,1.2,0,0,1-1.143-1.147l-.061-1.241v-.078l.007-.019h0a1.2,1.2,0,0,1,1.141-1.165l1.154-.052h0c.01-.007.022,0,.043,0h0c.009,0,.02,0,.02,0h0a1.2,1.2,0,0,1,1.2,1.15l.06,1.241h0c0,.045-.009.06.006.06h0a1.205,1.205,0,0,1-1.154,1.2l-1.149.052Zm-.051-.88a.1.1,0,0,1,.022,0h0a.143.143,0,0,1,.041,0l1.1-.052h0a.324.324,0,0,0,.308-.278h0a.087.087,0,0,1,0-.033h0v-.015h0l-.063-1.258h0a.324.324,0,0,0-.317-.314v-.007l-1.174.06h0a.318.318,0,0,0-.3.319h0a.671.671,0,0,1-.006.078l.058,1.193h0a.321.321,0,0,0,.32.31h0l.007,0Z" transform="translate(-322.615 -1504.029)" fill="#ddac9e"/><path d="M322.6,1512.5h-.055l-1.171-.065h0a1.231,1.231,0,0,1-1.136-1.21v-.046h.437l-.437-.027.076-1.244h0a1.208,1.208,0,0,1,1.2-1.138h0c.1,0,.1.016.1.007l1.117.072h0a1.2,1.2,0,0,1,1.138,1.2h0c-.007.085-.017.093-.013.093l-.068,1.223h0a1.194,1.194,0,0,1-1.2,1.132Zm-1.069-2.848-.013-.159v.152l-.018,0v0h0a.339.339,0,0,0-.311.315l-.072,1.245v.02h0a.347.347,0,0,0,.317.332l1.143.065h.024a.327.327,0,0,0,.317-.3l.07-1.253h0c.007-.018.011-.018.011-.018h0a.317.317,0,0,0-.307-.326l-1.16-.074Z" transform="translate(-320.237 -1503.936)" fill="#ddac9e"/><path d="M334.084,1509.678a.606.606,0,0,0,.441-.741h0c-.437-1.812-1.608-5.968-5.948-6h0a1.376,1.376,0,0,0-.2.007h0c-3.478.085-5.656,2.583-6.382,5.815h0a.623.623,0,0,0,.458.737h0a.609.609,0,0,0,.732-.46h0c.717-2.917,2.367-4.769,5.282-4.876h.109c3.32-.033,4.292,3.224,4.764,5.077h0a.613.613,0,0,0,.593.467h0a.618.618,0,0,0,.151-.022Z" transform="translate(-320.537 -1502.933)"/></g><path d="M336.125,1530.392c-1.551,1.023-24.2-.741-26.063-1.788a1.893,1.893,0,0,1-1.032-1.922c.074-1.469.313-11.282,2.059-14.186a3.842,3.842,0,0,1,2.589-1.825c.743.009,23.96.752,23.96.752Z" transform="translate(-309.026 -1503.933)" fill="#232121"/><path d="M346.288,1528.613c-.575,1.9-6.224,2.343-6.533,1.987-.782-.88-.571-14.881,1.54-17.872,1.262-1.8,2.642-1.425,3.565.867C345.841,1516.033,346.433,1528.122,346.288,1528.613Z" transform="translate(-314.238 -1504.092)"/><path d="M333.424,1513.076l-.141.006-.022-.013h0a1.208,1.208,0,0,1-1.1-1.143l.436-.021-.436.016-.052-1.245.219-.059h-.219a1.2,1.2,0,0,1,1.144-1.2l1.153-.055v0h0l.033,0h0c.017,0,.024.005.024,0h0a1.209,1.209,0,0,1,1.2,1.15l.055,1.245h0c0,.039-.01.052,0,.052h0a1.205,1.205,0,0,1-1.156,1.21l-1.147.056Zm-.037-.883a.094.094,0,0,1,.031,0h0a.169.169,0,0,1,.042.008l1.075-.052h0a.337.337,0,0,0,.311-.282h0a.056.056,0,0,1,0-.04l-.063-1.267h0a.326.326,0,0,0-.3-.316l-1.189.054h0a.329.329,0,0,0-.308.325h0a.518.518,0,0,1-.015.126l.065,1.141h0a.336.336,0,0,0,.338.316h0c0,.008,0,0,.009-.007Z" transform="translate(-312.995 -1503.708)" fill="#eac3b7"/><path d="M320.623,1512.554h-.046l-1.171-.069h0a1.221,1.221,0,0,1-1.136-1.211v-.039h.436l-.436-.028.076-1.241h0a1.214,1.214,0,0,1,1.2-1.139h0a.3.3,0,0,1,.1.009l1.124.066h0a1.208,1.208,0,0,1,1.142,1.2h0c-.007.1-.015.1-.009.1l-.078,1.215h0a1.2,1.2,0,0,1-1.2,1.132Zm.4-2.431.087-.017h-.084a.323.323,0,0,0-.311-.329l-1.15-.067-.019-.069v.06l0,0v0h0a.343.343,0,0,0-.319.321l-.078,1.241v.012h0a.339.339,0,0,0,.316.333l1.14.07h.02a.327.327,0,0,0,.328-.3l.075-1.251Z" transform="translate(-310.616 -1503.616)" fill="#eac3b7"/><path d="M334.661,1512.561l.371,1.086-.276,2.142-1.586,1.132-.923-1.421.45-2.268.56-.689Z" transform="translate(-313.019 -1504.255)"/><path d="M320.543,1512.024l.369,1.085-.358,2.124-1.71,1.091-.8-1.381.539-2.253.556-.686Z" transform="translate(-310.576 -1504.163)"/><path d="M332.547,1509.005c.059.471-1.2.471-1.49.2s-.448-2.946-2.718-4.957a3.631,3.631,0,0,0-4.636-.013,9.81,9.81,0,0,0-2.551,4.6c.009.161-1.606-.005-1.612-.209a8.3,8.3,0,0,1,4.457-5.735C326.587,1501.707,331.8,1503.443,332.547,1509.005Z" transform="translate(-310.834 -1502.534)" fill="#232121"/></g><path d="M324.333,1449.944c-2.094-.4-4.318-1.1-6.032,3.058s-.446,22.976-.446,22.976.936,5.469,4.864,16.574c.463,3.58,1.4,3.911,2.518,4.138a5.769,5.769,0,0,0,3.644-.227c.306-.144-1.68-2.686-1.68-2.686l.165-.393a12.558,12.558,0,0,0,2.746.783c.91.046-.952-.783-1.792-1.9-1.1-1.466-1.969-1.049-2.247-1.915-.556-1.729-1.455-16.651-1.455-18.094,0-4.2-.209-15.121,0-18.494C324.86,1449.907,324.333,1449.944,324.333,1449.944Z" transform="translate(-306.758 -1417.362)" fill="#eac3b7"/><path d="M326.952,1449.305c0,1.125-2.111,20.841-2.111,20.841l1.5,14.642-6.575,2.767s-3.367-12.721-3.367-14.121-1.565-18.724-.144-23.166c1.12-3.5,4.325-9.155,6.283-6.634S326.952,1449.305,326.952,1449.305Z" transform="translate(-306.456 -1416.222)" fill="#4d87db"/><path d="M336.7,1420.817a19.778,19.778,0,0,0-6.361,6.007c-2.07,2.817-4.641,13.784-.551,17.989.739.8,3.056,1.49,3.362-.575.055,1.814-1.2,3.739-4.568,3.054-3.654-.753-7.669-6.723-6.921-10.729,1.195-6.344,1.41-16.275,4.771-16.987S336.7,1420.817,336.7,1420.817Z" transform="translate(-307.472 -1412.167)"/><path d="M322.023,1413.337c-4.749,2.305-9.336,10.716-9.474,26.962-.085,10.171-1.813,13.625-5.459,12.835,2.939,3.259,7.791,3.606,8.61-2.319,1.332-9.667,5.985-8.615,6.024-9.791.169-4.97,2.759-10.51,2.4-13.324C323.814,1425.259,322.023,1413.337,322.023,1413.337Z" transform="translate(-304.984 -1411.12)"/></g><g transform="translate(369.907 1469.553)"><path d="M435.155,1497.074c-.732,8.06-3.734,30.129-4.534,42.395-.394,6.029-5.584,30.27-4.119,33.935-7.325,3.665-13.212,2.062-13.212,2.062s3-31.866,3.732-34.8,1.062-22.935-1.866-30.262-4.861-16.584-1.2-17.313S435.155,1497.074,435.155,1497.074Z" transform="translate(-400.654 -1491.21)"/><path d="M407.61,1490.835c-1.648,3.571-4.533,8.266-3.467,16.8.893,7.134-1.331,27.2-1.331,27.2s-3.734,31.511-3.734,38.93c9.889,1.371,10.4-3.668,10.4-5.868s8.523-30.347,8.8-31.994.455-28.268-.369-33.212S407.61,1490.835,407.61,1490.835Z" transform="translate(-398.441 -1490.835)"/><path d="M415.4,1589.59c-1.1,3.114-2.014,4.76-1.1,6.774s5.653,1.414,8.425.183c1.645-.729,5.255.734,7.143.734,4.03,0,6.776-4.395,3.478-4.761a16.489,16.489,0,0,1-8.058-3.3C423.822,1587.942,415.4,1589.59,415.4,1589.59Z" transform="translate(-400.993 -1507.668)"/><path d="M399.4,1586.871c-.367,2.016-2.016,4.028-.367,5.312s3.3,1.284,5.31.732,2.748-1.65,3.846-2.566,4.03-1.466,4.948-2.746,1.645-4.946,0-4.579-6.413.916-6.413.916Z" transform="translate(-398.308 -1506.682)"/></g><g transform="translate(401.973 1518.406)"><path d="M465.4,1559.494c-2.072-6.177-4.514-7.766-6.325-7.741h0c-2.545-.132-5.382,3.455-5.629,5.619h0a.964.964,0,0,1-1.09.812h0a.96.96,0,0,1-.811-1.093h0c.521-3.035,3.448-7.125,7.526-7.26h0c3.1.022,6.036,2.648,8.148,9.061h0a.964.964,0,0,1-.61,1.214h0a.952.952,0,0,1-.3.05h0a.965.965,0,0,1-.912-.661Z" transform="translate(-439.527 -1549.831)"/><path d="M468.872,1585.394c1.6-.663,5.867-2.8,5.867-4.4s-.328-20.364-1.067-21.6c-1.2-2-29.2-3.2-30.262-3.2a13.763,13.763,0,0,0-3.6,1.2l25.731,11.869Z" transform="translate(-437.51 -1550.926)" fill="#2b2b2b"/><path d="M469.393,1584.242a1.458,1.458,0,0,1-1.708,1.482l-29.355-5.24a1.743,1.743,0,0,1-1.292-1.888l1.555-19.962a1.409,1.409,0,0,1,1.508-1.39l28.329,2.731a2.089,2.089,0,0,1,1.8,1.9Z" transform="translate(-437.032 -1551.104)"/><g transform="translate(3.996 14.612)"><path d="M453.188,1576.919c-.048.775-.571,1.327-1.165,1.23l-9.23-1.515a1.372,1.372,0,0,1-.93-1.53l.474-6.424c.057-.742.553-1.274,1.122-1.2l9.144,1.3a1.383,1.383,0,0,1,.986,1.53Z" transform="translate(-441.858 -1567.477)" fill="#2b2b2b"/><path d="M469.538,1579.492c-.037.8-.58,1.367-1.217,1.264l-9.813-1.606a1.454,1.454,0,0,1-1.01-1.59l.391-6.634c.045-.763.566-1.316,1.164-1.232l9.722,1.379a1.463,1.463,0,0,1,1.069,1.586Z" transform="translate(-444.547 -1567.857)" fill="#2b2b2b"/></g><path d="M462.5,1561.266c-2.068-6.178-4.514-7.767-6.325-7.746h0c-2.545-.133-5.382,3.458-5.629,5.622h0a.968.968,0,0,1-1.093.812h0a.961.961,0,0,1-.808-1.091h0c.521-3.032,3.448-7.131,7.526-7.261h0c3.1.024,6.037,2.644,8.15,9.061h0a.964.964,0,0,1-.612,1.214h0a1,1,0,0,1-.3.048h0a.962.962,0,0,1-.912-.657Z" transform="translate(-439.028 -1550.135)"/></g></g></svg>