<svg xmlns="http://www.w3.org/2000/svg" width="114" height="114" viewBox="0 0 114 114"><g transform="translate(-180 -2301.922)"><g transform="translate(180 2301.922)" fill="#fff" stroke="#ff3c00" stroke-width="5"><circle cx="57" cy="57" r="57" stroke="none"/><circle cx="57" cy="57" r="54.5" fill="none"/></g><g transform="translate(202.161 2330.455)"><path d="M123.943,292.037a1.32,1.32,0,1,0-1.8-.483A1.32,1.32,0,0,0,123.943,292.037Zm0,0" transform="translate(-105.87 -251.363)" fill="#992400"/><path d="M12.666,69.187,19.311,80.7a5.278,5.278,0,1,0,9.142-5.278l-3.959-6.858,3.428-1.979a1.32,1.32,0,0,0,.483-1.8L26.69,61.809l25.275-4.958a3.958,3.958,0,0,0,3.209-5.931l-4.386-7.6,2.8-4.245a1.32,1.32,0,0,0,.042-1.387L50.994,33.12a1.322,1.322,0,0,0-1.222-.657l-5.077.3-4.869-8.433a3.924,3.924,0,0,0-3.379-1.979H36.4a3.924,3.924,0,0,0-3.333,1.825L15.826,46.141,4.619,52.611a9.237,9.237,0,0,0,8.047,16.577Zm13.5,7.553A2.639,2.639,0,0,1,21.6,79.379L15,67.95l4.571-2.639,6.6,11.43ZM23.175,66.277l-1.32-2.286,2.286-1.32,1.32,2.286Zm25.941-31.13,1.824,3.159-1.626,2.463L46.17,35.323ZM35.271,25.628a1.319,1.319,0,0,1,2.269.026L52.889,52.239a1.319,1.319,0,0,1-1.11,1.978,4.845,4.845,0,0,0-.724.123L34.819,26.219c.341-.438.385-.48.452-.591Zm-2.208,2.828L48.317,54.877,25.3,59.393l-7-12.124ZM3.524,63.909A6.593,6.593,0,0,1,5.938,54.9l10.285-5.938,6.6,11.428L12.536,66.325a6.606,6.606,0,0,1-9.013-2.415Zm0,0" transform="translate(0 -19.405)" fill="#992400"/><path d="M51.035,310.233a1.32,1.32,0,0,0-1.8-.483l-2.286,1.32a1.321,1.321,0,0,1-1.8-.483,1.32,1.32,0,1,0-2.286,1.32,3.964,3.964,0,0,0,5.408,1.449l2.286-1.32a1.32,1.32,0,0,0,.483-1.8Zm0,0" transform="translate(-37.05 -268.722)" fill="#992400"/><path d="M444.306,42.648l-7.353,4.092a1.32,1.32,0,1,0,1.284,2.306l7.353-4.092a1.32,1.32,0,0,0-1.283-2.306Zm0,0" transform="translate(-378.705 -36.875)" fill="#992400"/><path d="M446.823,138.032l-5.1-1.366a1.319,1.319,0,1,0-.683,2.549l5.1,1.366a1.319,1.319,0,1,0,.682-2.549Zm0,0" transform="translate(-381.993 -118.592)" fill="#992400"/><path d="M384.905.979l-1.368,5.1a1.32,1.32,0,1,0,2.549.684l1.367-5.1a1.32,1.32,0,1,0-2.549-.684Zm0,0" transform="translate(-332.887 0)" fill="#992400"/></g></g></svg>