<svg xmlns="http://www.w3.org/2000/svg" width="114" height="114" viewBox="0 0 114 114"><g transform="translate(-180 -2569.922)"><g transform="translate(180 2569.922)" fill="#fff" stroke="#ff3c00" stroke-width="5"><circle cx="57" cy="57" r="57" stroke="none"/><circle cx="57" cy="57" r="54.5" fill="none"/></g><g transform="translate(210.383 2601.433)"><g transform="translate(32.002 20.268)"><path d="M301.067,190a1.067,1.067,0,1,0,1.067,1.067A1.067,1.067,0,0,0,301.067,190Z" transform="translate(-300 -190)" fill="#992400"/></g><path d="M53.367,47.333,39.128,33.094a21.143,21.143,0,0,0,3.541-11.76A21.335,21.335,0,1,0,21.335,42.669a21.144,21.144,0,0,0,11.76-3.541l3.936,3.936,0,0,10.3,10.3a4.266,4.266,0,1,0,6.034-6.034ZM32.593,36.88h0a19.221,19.221,0,1,1,4.288-4.288A19.294,19.294,0,0,1,32.593,36.88Zm2.238.967a21.406,21.406,0,0,0,3.016-3.016l3.026,3.026a25.893,25.893,0,0,1-3.016,3.016ZM51.858,51.858a2.132,2.132,0,0,1-3.017,0l-9.472-9.472a28.031,28.031,0,0,0,3.016-3.016l9.472,9.472a2.132,2.132,0,0,1,0,3.016Z" fill="#992400"/><g transform="translate(4.267 4.267)"><path d="M57.068,40A17.068,17.068,0,1,0,74.135,57.068,17.087,17.087,0,0,0,57.068,40Zm0,32A14.934,14.934,0,1,1,72,57.068,14.951,14.951,0,0,1,57.068,72Z" transform="translate(-40 -40)" fill="#992400"/></g><g transform="translate(20.268 8.534)"><path d="M203.021,88.222A12.821,12.821,0,0,0,191.067,80a1.067,1.067,0,1,0,0,2.133,10.74,10.74,0,0,1,9.963,6.853,1.067,1.067,0,1,0,1.991-.765Z" transform="translate(-190 -80)" fill="#992400"/></g></g></g></svg>