<svg xmlns="http://www.w3.org/2000/svg" xmlns:xlink="http://www.w3.org/1999/xlink" width="190" height="134" viewBox="0 0 190 134"><defs><clipPath id="a"><rect width="190" height="134" transform="translate(1125 4090)" fill="#fff" stroke="#707070" stroke-width="1"/></clipPath></defs><g transform="translate(-1125 -4090)" clip-path="url(#a)"><g transform="translate(1156 4093)"><path d="M116,94.875H105.75v-60.5H60.791a18.906,18.906,0,0,1-9.519,13.672c-2.681,9.831-9.157,20.183-9.157,20.183S35.64,57.878,32.959,48.047A18.906,18.906,0,0,1,23.44,34.375H1.75v81H116a10.25,10.25,0,0,0,0-20.5Z" transform="translate(0 0)" fill="#23a8fe"/><path d="M116,94.875H105.75v-50.5H55.95a18.983,18.983,0,0,1-4.679,3.672C48.59,57.878,42.114,68.23,42.114,68.23S35.64,57.878,32.959,48.047a18.983,18.983,0,0,1-4.679-3.672H11.75v61h104.5V94.888C116.166,94.886,116.084,94.875,116,94.875Z" transform="translate(0 0)" fill="#dfebfa"/><path d="M116,12.625H105.75v82.25H116a10.25,10.25,0,0,1,10.25,10.25V22.875A10.25,10.25,0,0,0,116,12.625Z" transform="translate(0 0)" fill="#4f67d2"/><path d="M105.75,55.428V44.375H92.411l4.654,4.654v5.352L89.2,57.338H81.66L78.7,54.381,73.823,56.3l-6.357,6.358v6.061l4.287,4.288h5.471l6.431,6.431v8.2l4.768,4.768,6.1-6.1V82.767l2.809-2.809v-5.6l4.445-4.445L95.26,63.4l6.692-2.038.872.873a6.54,6.54,0,0,0,2.926,1.692Z" transform="translate(0 0)" fill="#55c98f"/><path d="M61.012,31.522A18.9,18.9,0,1,0,32.959,48.047c2.681,9.832,9.156,20.183,9.156,20.183s6.476-10.351,9.157-20.183a18.887,18.887,0,0,0,9.74-16.525Z" transform="translate(0 0)" fill="#4f67d2"/><path d="M44.54,64c-1.4,2.587-2.425,4.225-2.425,4.225a99.667,99.667,0,0,1-4.877-9.049l-2.4.526-5.748-3.75-.918-2.249,6.372-.828c-.6-1.593-1.142-3.22-1.582-4.833a18.983,18.983,0,0,1-4.679-3.672H11.75v6.083l4.292,4.292L18,60.25,23.26,60l8.073,5.046-.916,5.333,3.25,5.417H35.5l-1.083,8.25,1.666,12h3.73l1.6-9.75,4.917-6.25L57,78.8l.082-9.42L52,62.877Z" transform="translate(0 0)" fill="#55c98f"/><path d="M42.115,39.515a7.994,7.994,0,1,1,7.994-7.994A7.994,7.994,0,0,1,42.115,39.515Z" transform="translate(0 0)" fill="#fee55a"/><g transform="translate(0 10.875)"><path d="M126.25,21.125a1.75,1.75,0,0,0-1.75,1.75V96.662a12.065,12.065,0,0,0-8.5-3.537h-8.5V14.375H116a1.75,1.75,0,1,0,0-3.5H105.75a1.75,1.75,0,0,0-1.75,1.75v20H62.726c.02-.367.036-.734.036-1.1a20.647,20.647,0,1,0-41.293,0c0,.37.017.737.036,1.1H1.75A1.75,1.75,0,0,0,0,34.375v81a1.75,1.75,0,0,0,1.75,1.75H116a12.013,12.013,0,0,0,12-12V22.875a1.75,1.75,0,0,0-1.75-1.75ZM94.023,64.637,99.3,69.914l-3.207,3.207a1.751,1.751,0,0,0-.512,1.237v4.875l-2.3,2.3a1.752,1.752,0,0,0-.513,1.238v2.823L88.42,89.942,85.4,86.925V79.441a1.752,1.752,0,0,0-.513-1.237l-6.431-6.432a1.749,1.749,0,0,0-1.237-.512H72.478L69.216,68V63.385L74.8,57.8l3.473-1.369,2.146,2.145a1.75,1.75,0,0,0,1.237.513H89.2a1.749,1.749,0,0,0,.616-.112l7.866-2.957a1.751,1.751,0,0,0,1.134-1.638V49.029a1.75,1.75,0,0,0-.513-1.237l-1.666-1.667H104V60.937l-.811-.812a1.748,1.748,0,0,0-1.747-.437L94.75,61.726a1.75,1.75,0,0,0-.727,2.911ZM104,36.125v6.5H59.508a20.65,20.65,0,0,0,2.722-6.5ZM42.116,14.375a17.144,17.144,0,0,1,8.306,32.142,1.756,1.756,0,0,0-.839,1.07A82.293,82.293,0,0,1,42.116,64.77a94,94,0,0,1-5.982-12.634c-.558-1.494-1.067-3.01-1.487-4.549a1.751,1.751,0,0,0-.838-1.07,17.144,17.144,0,0,1,8.307-32.142Zm-5.3,60.263a1.747,1.747,0,0,0-1.315-.6h-.843l-2.406-4.011.807-4.692a1.749,1.749,0,0,0-.8-1.781l-8.073-5.046a1.771,1.771,0,0,0-1.012-.264l-3.963.191L17.69,54.163a1.747,1.747,0,0,0-.411-.65L13.5,49.733V46.125H27.537A20.815,20.815,0,0,0,31.466,49.2q.324,1.117.7,2.22l-4.22.548a1.75,1.75,0,0,0-1.4,2.4l.918,2.25a1.755,1.755,0,0,0,.664.8l5.749,3.75a1.764,1.764,0,0,0,1.33.244l1.049-.23c1.678,3.407,3.222,6.063,3.946,7.269.4.661.773,1.333,1.6,1.49a1.806,1.806,0,0,0,1.875-.922c.237-.383.982-1.611,1.982-3.419l5.593-.849,4.076,5.214-.063,7.264L46.131,78.3a1.752,1.752,0,0,0-1.172.656l-4.916,6.25a1.747,1.747,0,0,0-.351.8L38.327,94.29h-.72L36.183,84.035l1.052-8.015a1.747,1.747,0,0,0-.42-1.382ZM34.495,57.4l-3.51-2.29L33.4,54.8C33.756,55.68,34.123,56.547,34.495,57.4ZM116,113.625H3.5v-77.5H22a20.65,20.65,0,0,0,2.722,6.5H11.75A1.75,1.75,0,0,0,10,44.375v61a1.75,1.75,0,0,0,1.75,1.75h37.5a1.75,1.75,0,1,0,0-3.5H13.5V54.683l1.025,1.026,1.827,5.128A1.778,1.778,0,0,0,18.084,62l4.713-.227L29.41,65.9l-.718,4.175a1.747,1.747,0,0,0,.224,1.2l3.25,5.417a1.748,1.748,0,0,0,1.34.842l-.824,6.28a1.754,1.754,0,0,0,0,.469l1.667,12a1.751,1.751,0,0,0,1.733,1.509h3.73a1.749,1.749,0,0,0,1.726-1.466l1.533-9.3L47.26,81.7l9.949-1.164a1.748,1.748,0,0,0,1.546-1.722l.082-9.42a1.758,1.758,0,0,0-.371-1.094l-5.083-6.5a1.751,1.751,0,0,0-1.641-.652l-4.055.615A76.518,76.518,0,0,0,52.765,49.2a20.617,20.617,0,0,0,3.924-3.079h35l3.629,3.629v3.415l-6.434,2.419h-6.5L79.939,53.14a1.747,1.747,0,0,0-1.878-.391l-4.879,1.923a1.731,1.731,0,0,0-.6.39l-6.357,6.357a1.746,1.746,0,0,0-.513,1.237v6.063a1.746,1.746,0,0,0,.513,1.237l4.287,4.287a1.752,1.752,0,0,0,1.237.513H76.5l5.406,5.406v7.48a1.751,1.751,0,0,0,.512,1.238l4.769,4.767a1.748,1.748,0,0,0,2.474,0l6.1-6.1a1.751,1.751,0,0,0,.512-1.238V83.492l2.3-2.3a1.75,1.75,0,0,0,.513-1.237V75.083l3.931-3.932a1.748,1.748,0,0,0,0-2.474L98.56,64.225l2.9-.882.13.13A8.335,8.335,0,0,0,104,65.134V94.875a1.75,1.75,0,0,0,1.75,1.75h8.75v7H84.625a1.75,1.75,0,0,0,0,3.5H116.25a1.75,1.75,0,0,0,1.75-1.75v-8.5a8.495,8.495,0,0,1-2,16.752Z" transform="translate(0 -10.875)" fill="#231f20"/><path d="M42.115,41.266a9.744,9.744,0,1,0-9.743-9.744,9.744,9.744,0,0,0,9.743,9.744Zm0-15.988a6.244,6.244,0,1,1-6.243,6.243,6.244,6.244,0,0,1,6.243-6.243Z" transform="translate(0 -10.875)" fill="#231f20"/><path d="M69.625,103.625H64.25a1.75,1.75,0,0,0,0,3.5h5.375a1.75,1.75,0,1,0,0-3.5Z" transform="translate(0 -10.875)" fill="#231f20"/></g></g></g></svg>