<svg xmlns="http://www.w3.org/2000/svg" width="164" height="164" viewBox="0 0 164 164"><g transform="translate(-1079 -1857)"><g transform="translate(899.186 575.265)"><g transform="translate(195.146 1291.326)"><circle cx="65.203" cy="65.203" r="65.203" transform="translate(0 14.578)" fill="#ff3c00"/><g transform="translate(4.168 10.103)"><g transform="translate(2.301 2.301)"><path d="M10,302H37.606v46.01H10Z" transform="translate(-10 -234.825)" fill="#8690a6"/><path d="M382,302h27.606v46.01H382Z" transform="translate(-296.421 -234.825)" fill="#8690a6"/><path d="M422,422h9.2v9.2H422Z" transform="translate(-327.219 -327.219)" fill="#eefaff"/><path d="M422,342h9.2v9.2H422Z" transform="translate(-327.219 -265.623)" fill="#eefaff"/><path d="M283.606,10l-9.2,9.2,9.2,9.2H256V10Z" transform="translate(-199.407 -10)" fill="#ff7b79"/><path d="M164.007,136a27.608,27.608,0,0,0-27.487,25.027h54.973A27.608,27.608,0,0,0,164.007,136Z" transform="translate(-107.414 -107.013)" fill="#ffda8f"/><path d="M276,302h15.183v36.808H276Z" transform="translate(-214.806 -234.825)" fill="#ffda8f"/><path d="M170,302h15.183v36.808H170Z" transform="translate(-133.192 -234.825)" fill="#ffda8f"/><g transform="translate(9.202 47.391)"><path d="M166.377,235.784V225.2L128.189,216,90,225.2v10.582h9.2v36.808H90v9.2h76.377v-9.2h-9.2V235.784ZM108.4,272.593V235.784h15.183v36.808Zm39.569,0H132.79V235.784h15.183Z" transform="translate(-80.798 -216)" fill="#eefaff"/><path d="M50,422h9.2v9.2H50Z" transform="translate(-50 -374.609)" fill="#eefaff"/><path d="M50,342h9.2v9.2H50Z" transform="translate(-50 -313.013)" fill="#eefaff"/></g></g><g transform="translate(0 0)"><path d="M115.486,67.175h-16.1V58.893a2.3,2.3,0,0,0-1.762-2.237l-9.151-2.205A29.906,29.906,0,0,0,61.194,29.076V23.005H86.5a2.3,2.3,0,0,0,1.627-3.927L80.551,11.5l7.575-7.575A2.3,2.3,0,0,0,86.5,0H58.893a2.3,2.3,0,0,0-2.3,2.3V29.076A29.906,29.906,0,0,0,29.317,54.452l-9.151,2.205A2.3,2.3,0,0,0,18.4,58.893v8.282H2.3a2.3,2.3,0,0,0-2.3,2.3v46.01a2.3,2.3,0,0,0,2.3,2.3h46.24a2.3,2.3,0,1,0,0-4.6H23.005v-4.6H94.781v4.6H69.246a2.3,2.3,0,1,0,0,4.6h46.24a2.3,2.3,0,0,0,2.3-2.3V69.476A2.3,2.3,0,0,0,115.486,67.175ZM61.194,4.6H80.945L75.671,9.876a2.3,2.3,0,0,0,0,3.254L80.946,18.4H61.194Zm-2.3,28.986A25.163,25.163,0,0,1,83.576,53.272L59.432,47.455a2.3,2.3,0,0,0-1.078,0L34.21,53.272A25.164,25.164,0,0,1,58.893,33.588ZM23.005,60.705l35.888-8.648,35.888,8.648v6.47H23.005Zm13.8,11.071v32.207h-4.6V71.776Zm4.6,0H51.992v32.207H41.409Zm15.183,0h4.6v32.207h-4.6Zm9.2,0H76.377v32.207H65.795Zm15.183,0h4.6v32.207h-4.6ZM4.6,113.185V71.776H27.606v32.207h-4.6v-6.9a2.3,2.3,0,0,0-2.3-2.3H11.5a2.3,2.3,0,0,0-2.3,2.3v9.2a2.3,2.3,0,0,0,2.3,2.3h6.9v4.6Zm13.8-9.2H13.8v-4.6h4.6Zm94.781,9.2h-13.8v-4.6h6.9a2.3,2.3,0,0,0,2.3-2.3v-9.2a2.3,2.3,0,0,0-2.3-2.3h-9.2a2.3,2.3,0,0,0-2.3,2.3v6.9h-4.6V71.776h23.005Zm-13.8-9.2v-4.6h4.6v4.6Z" transform="translate(0 0)"/><path d="M412,334.3v9.2a2.3,2.3,0,0,0,2.3,2.3h9.2a2.3,2.3,0,0,0,2.3-2.3v-9.2a2.3,2.3,0,0,0-2.3-2.3h-9.2A2.3,2.3,0,0,0,412,334.3Zm4.6,2.3h4.6v4.6h-4.6Z" transform="translate(-317.219 -255.623)"/><path d="M42.3,345.8h9.2a2.3,2.3,0,0,0,2.3-2.3v-9.2a2.3,2.3,0,0,0-2.3-2.3H42.3a2.3,2.3,0,0,0-2.3,2.3v9.2A2.3,2.3,0,0,0,42.3,345.8Zm2.3-9.2h4.6v4.6H44.6Z" transform="translate(-30.798 -255.623)"/><ellipse cx="2.43" cy="1.822" rx="2.43" ry="1.822" transform="translate(56.464 113.56)"/></g></g></g><rect width="164" height="164" transform="translate(179.814 1281.735)" fill="none"/></g></g></svg>