<svg xmlns="http://www.w3.org/2000/svg" width="400" height="298.087" viewBox="0 0 400 298.087">
  <g id="Grupo_952625" data-name="Grupo 952625" transform="translate(-594.981 -1513.798)">
    <g id="Grupo_952584" data-name="Grupo 952584" transform="translate(594.981 1513.798)">
      <rect id="Rectángulo_339673" data-name="Rectángulo 339673" width="400" height="0.2" transform="translate(0 261.957)" fill="#ebe1d2"/>
      <rect id="Rectángulo_339674" data-name="Rectángulo 339674" width="72.721" height="0.2" transform="translate(287.2 269.576)" fill="#ebe1d2"/>
      <rect id="Rectángulo_339675" data-name="Rectángulo 339675" width="19.91" height="0.2" transform="translate(245.067 267.405)" fill="#ebe1d2"/>
      <rect id="Rectángulo_339676" data-name="Rectángulo 339676" width="30.869" height="0.2" transform="translate(279.619 277.004)" fill="#ebe1d2"/>
      <rect id="Rectángulo_339677" data-name="Rectángulo 339677" width="18.11" height="0.2" transform="translate(41.967 275.66)" fill="#ebe1d2"/>
      <rect id="Rectángulo_339678" data-name="Rectángulo 339678" width="21.511" height="0.2" transform="translate(67.2 275.66)" fill="#ebe1d2"/>
      <rect id="Rectángulo_339679" data-name="Rectángulo 339679" width="37.47" height="0.2" transform="translate(142.647 272.283)" fill="#ebe1d2"/>
      <path id="Trazado_636399" data-name="Trazado 636399" d="M792.234,1740.076H637.754a4.572,4.572,0,0,1-4.566-4.566V1518.364a4.572,4.572,0,0,1,4.566-4.566H792.234a4.571,4.571,0,0,1,4.566,4.566v217.145A4.571,4.571,0,0,1,792.234,1740.076ZM637.754,1514a4.372,4.372,0,0,0-4.366,4.366v217.145a4.371,4.371,0,0,0,4.366,4.366H792.234a4.371,4.371,0,0,0,4.366-4.366V1518.364a4.371,4.371,0,0,0-4.366-4.366Z" transform="translate(-602.623 -1513.798)" fill="#ebe1d2"/>
      <path id="Trazado_636400" data-name="Trazado 636400" d="M1008.531,1740.076H854.052a4.571,4.571,0,0,1-4.566-4.566V1518.364a4.572,4.572,0,0,1,4.566-4.566h154.479a4.572,4.572,0,0,1,4.566,4.566v217.145A4.571,4.571,0,0,1,1008.531,1740.076ZM854.052,1514a4.371,4.371,0,0,0-4.366,4.366v217.145a4.371,4.371,0,0,0,4.366,4.366h154.479a4.371,4.371,0,0,0,4.366-4.366V1518.364a4.371,4.371,0,0,0-4.366-4.366Z" transform="translate(-645.882 -1513.798)" fill="#ebe1d2"/>
    </g>
    <g id="Grupo_952597" data-name="Grupo 952597" transform="translate(636.949 1551.002)">
      <g id="Grupo_952585" data-name="Grupo 952585" transform="translate(0 13.223)">
        <rect id="Rectángulo_339680" data-name="Rectángulo 339680" width="95.644" height="211.53" transform="translate(95.644 211.53) rotate(180)" fill="#f0e5d6"/>
        <rect id="Rectángulo_339681" data-name="Rectángulo 339681" width="91.111" height="211.53" transform="translate(91.111 211.53) rotate(180)" fill="#f5eadb"/>
        <rect id="Rectángulo_339682" data-name="Rectángulo 339682" width="201.93" height="81.512" transform="translate(86.311 4.8) rotate(90)" fill="#f0e5d6"/>
        <path id="Trazado_636401" data-name="Trazado 636401" d="M681.676,1700.807H665.054a2.14,2.14,0,0,1-2.134-2.133h0a2.14,2.14,0,0,1,2.134-2.134h16.622a2.14,2.14,0,0,1,2.133,2.134h0A2.139,2.139,0,0,1,681.676,1700.807Z" transform="translate(-650.536 -1600.773)" fill="#fff"/>
        <rect id="Rectángulo_339683" data-name="Rectángulo 339683" width="201.93" height="1.245" transform="translate(6.044 4.8) rotate(90)" fill="#f0e5d6"/>
      </g>
      <g id="Grupo_952588" data-name="Grupo 952588" transform="translate(78.997 112.449)">
        <g id="Grupo_952586" data-name="Grupo 952586" transform="translate(0 46.535)">
          <rect id="Rectángulo_339684" data-name="Rectángulo 339684" width="14.24" height="61.758" transform="translate(75.694 61.758) rotate(180)" fill="#f0e5d6"/>
          <rect id="Rectángulo_339685" data-name="Rectángulo 339685" width="70.226" height="3.913" transform="translate(72.96 65.671) rotate(180)" fill="#f0e5d6"/>
          <rect id="Rectángulo_339686" data-name="Rectángulo 339686" width="61.454" height="61.758" fill="#f5eadb"/>
          <rect id="Rectángulo_339687" data-name="Rectángulo 339687" width="50.257" height="20.254" transform="translate(5.599 7.601)" fill="#f0e5d6"/>
          <rect id="Rectángulo_339688" data-name="Rectángulo 339688" width="50.257" height="20.254" transform="translate(5.599 33.902)" fill="#f0e5d6"/>
          <path id="Trazado_636402" data-name="Trazado 636402" d="M777.2,1769.974H788.48a1.393,1.393,0,0,0,1.389-1.389h0a1.393,1.393,0,0,0-1.389-1.389H777.2a1.393,1.393,0,0,0-1.389,1.389h0A1.393,1.393,0,0,0,777.2,1769.974Z" transform="translate(-752.111 -1760.666)" fill="#f5eadb"/>
          <path id="Trazado_636403" data-name="Trazado 636403" d="M777.2,1802.851H788.48a1.393,1.393,0,0,0,1.389-1.389h0a1.393,1.393,0,0,0-1.389-1.389H777.2a1.393,1.393,0,0,0-1.389,1.389h0A1.393,1.393,0,0,0,777.2,1802.851Z" transform="translate(-752.111 -1767.241)" fill="#f5eadb"/>
        </g>
        <path id="Trazado_636404" data-name="Trazado 636404" d="M790.186,1748.964h0a1.057,1.057,0,0,1-1.054-1.054v-32.09a1.057,1.057,0,0,1,1.054-1.054h0a1.057,1.057,0,0,1,1.054,1.054v32.09A1.057,1.057,0,0,1,790.186,1748.964Z" transform="translate(-754.776 -1703.644)" fill="#f5eadb"/>
        <rect id="Rectángulo_339689" data-name="Rectángulo 339689" width="19.76" height="2.489" transform="translate(25.53 44.075)" fill="#f0e5d6"/>
        <path id="Trazado_636405" data-name="Trazado 636405" d="M797.161,1729.245h0a.528.528,0,0,1-.527-.527v-16.045a.528.528,0,0,1,.527-.527h0a.529.529,0,0,1,.527.527v16.045A.529.529,0,0,1,797.161,1729.245Z" transform="translate(-756.276 -1703.12)" fill="#f0e5d6"/>
        <g id="Grupo_952587" data-name="Grupo 952587" transform="translate(20.047)">
          <path id="Trazado_636406" data-name="Trazado 636406" d="M771.246,1715.967s.39-15.1,15.363-15.1,15.363,15.1,15.363,15.1Z" transform="translate(-771.246 -1700.864)" fill="#f0e5d6"/>
        </g>
      </g>
      <g id="Grupo_952591" data-name="Grupo 952591" transform="translate(147.571 105.501)">
        <g id="Grupo_952589" data-name="Grupo 952589" transform="translate(0 43.418)">
          <path id="Trazado_636407" data-name="Trazado 636407" d="M917.6,1746.451v.006c.426,0,.855.009,1.288.038a18.362,18.362,0,0,1,16.438,23.086,91.888,91.888,0,0,0-2.878,23.911v23.477a3.082,3.082,0,0,1-3.082,3.082H854.848v-73.6Z" transform="translate(-836.493 -1746.451)" fill="#f0e5d6"/>
          <path id="Trazado_636408" data-name="Trazado 636408" d="M831.9,1764.806a18.356,18.356,0,1,1,36.082,4.775,91.878,91.878,0,0,0-2.878,23.91v23.477a3.082,3.082,0,0,1-3.082,3.082H838.493a3.082,3.082,0,0,1-3.082-3.082v-24.855a83.8,83.8,0,0,0-2.842-22.4A18.332,18.332,0,0,1,831.9,1764.806Z" transform="translate(-831.904 -1746.451)" fill="#f5eadb"/>
        </g>
        <rect id="Rectángulo_339690" data-name="Rectángulo 339690" width="66.89" height="44.687" transform="translate(110.537 117.018) rotate(180)" fill="#f0e5d6"/>
        <path id="Rectángulo_339691" data-name="Rectángulo 339691" d="M0,0H89.53a0,0,0,0,1,0,0V65.069A17.365,17.365,0,0,1,72.165,82.434h-54.8A17.365,17.365,0,0,1,0,65.069V0A0,0,0,0,1,0,0Z" transform="translate(165.822 82.434) rotate(180)" fill="#e0d6c8"/>
        <path id="Rectángulo_339692" data-name="Rectángulo 339692" d="M0,0H89.53a0,0,0,0,1,0,0V65.906A16.528,16.528,0,0,1,73,82.434H16.528A16.528,16.528,0,0,1,0,65.906V0A0,0,0,0,1,0,0Z" transform="translate(148.332 82.434) rotate(180)" fill="#f5eadb"/>
        <path id="Rectángulo_339693" data-name="Rectángulo 339693" d="M1.505,0H61.85A5.039,5.039,0,0,1,66.89,5.039v8.12A5.039,5.039,0,0,1,61.85,18.2H1.505A1.505,1.505,0,0,1,0,16.693V1.505A1.505,1.505,0,0,1,1.505,0Z" transform="translate(107.364 86.449) rotate(180)" fill="#e0d6c8"/>
        <g id="Grupo_952590" data-name="Grupo 952590" transform="translate(91.307 43.418)">
          <path id="Trazado_636409" data-name="Trazado 636409" d="M1031.738,1746.451v.006c.426,0,.855.009,1.288.038a18.362,18.362,0,0,1,16.438,23.086,91.886,91.886,0,0,0-2.878,23.911v23.477a3.083,3.083,0,0,1-3.082,3.082H968.982v-73.6Z" transform="translate(-950.627 -1746.451)" fill="#f0e5d6"/>
          <path id="Trazado_636410" data-name="Trazado 636410" d="M946.038,1764.806a18.356,18.356,0,1,1,36.082,4.775,91.872,91.872,0,0,0-2.878,23.91v23.477a3.082,3.082,0,0,1-3.082,3.082H952.627a3.082,3.082,0,0,1-3.082-3.082v-24.855a83.8,83.8,0,0,0-2.842-22.4A18.33,18.33,0,0,1,946.038,1764.806Z" transform="translate(-946.038 -1746.451)" fill="#f5eadb"/>
        </g>
        <path id="Trazado_636411" data-name="Trazado 636411" d="M855.926,1840.685H1007.37a2.234,2.234,0,0,0,2.234-2.234H853.692A2.234,2.234,0,0,0,855.926,1840.685Z" transform="translate(-836.262 -1721.433)" fill="#e0d6c8"/>
      </g>
      <g id="Grupo_952596" data-name="Grupo 952596" transform="translate(185.684 0)">
        <g id="Grupo_952593" data-name="Grupo 952593" transform="translate(68.335)">
          <g id="Grupo_952592" data-name="Grupo 952592" transform="translate(0)">
            <rect id="Rectángulo_339694" data-name="Rectángulo 339694" width="48.712" height="53.131" transform="translate(51.626 53.131) rotate(180)" fill="#e0d6c8"/>
            <rect id="Rectángulo_339695" data-name="Rectángulo 339695" width="49.979" height="53.131" transform="translate(49.979 53.131) rotate(180)" fill="#f5eadb"/>
            <rect id="Rectángulo_339696" data-name="Rectángulo 339696" width="44.757" height="41.605" transform="translate(45.792 4.187) rotate(90)" fill="#fff"/>
            <path id="Trazado_636412" data-name="Trazado 636412" d="M993.357,1579.368l11.378,19.708H981.979Z" transform="translate(-968.367 -1564.116)" fill="#f5eadb"/>
          </g>
        </g>
        <g id="Grupo_952595" data-name="Grupo 952595" transform="translate(0 31.014)">
          <g id="Grupo_952594" data-name="Grupo 952594" transform="translate(0 0)">
            <rect id="Rectángulo_339697" data-name="Rectángulo 339697" width="48.712" height="53.131" transform="translate(51.626 53.131) rotate(180)" fill="#e0d6c8"/>
            <rect id="Rectángulo_339698" data-name="Rectángulo 339698" width="49.979" height="53.131" transform="translate(49.979 53.131) rotate(180)" fill="#f5eadb"/>
            <rect id="Rectángulo_339699" data-name="Rectángulo 339699" width="44.757" height="41.605" transform="translate(45.792 4.187) rotate(90)" fill="#fff"/>
            <path id="Trazado_636413" data-name="Trazado 636413" d="M902.985,1637.912l-4.935-8.548a5.879,5.879,0,0,1,5.091-8.819h9.871a5.879,5.879,0,0,1,5.091,8.819l-4.935,8.548A5.879,5.879,0,0,1,902.985,1637.912Z" transform="translate(-883.087 -1603.365)" fill="#f5eadb"/>
          </g>
        </g>
      </g>
    </g>
    <ellipse id="_Path_" data-name="&lt;Path&gt;" cx="155.111" cy="9.059" rx="155.111" ry="9.059" transform="translate(639.87 1793.768)" fill="#f5eadb"/>
    <g id="Grupo_952616" data-name="Grupo 952616" transform="translate(663.765 1532.572)">
      <g id="Grupo_952598" data-name="Grupo 952598" transform="translate(0 16.702)">
        <path id="Trazado_636414" data-name="Trazado 636414" d="M865.374,1558.142H680.961L693.1,1809.3H877.514Z" transform="translate(-680.961 -1558.142)" fill="#ff271e"/>
        <path id="Trazado_636415" data-name="Trazado 636415" d="M865.374,1558.142H680.961L693.1,1809.3H877.514Z" transform="translate(-680.961 -1558.142)" opacity="0.2"/>
      </g>
      <path id="Trazado_636416" data-name="Trazado 636416" d="M867.508,1558.142H683.094l12.14,251.153H879.648Z" transform="translate(-681.387 -1541.44)" fill="#ff271e"/>
      <g id="Grupo_952613" data-name="Grupo 952613" transform="translate(10.139 25.148)">
        <path id="Trazado_636417" data-name="Trazado 636417" d="M859.877,1568.7H693.634l11.616,231.354,144.558-.192,24.022-21.3Z" transform="translate(-693.634 -1568.7)" opacity="0.2"/>
        <g id="Grupo_952612" data-name="Grupo 952612">
          <g id="Grupo_952599" data-name="Grupo 952599">
            <path id="Trazado_636418" data-name="Trazado 636418" d="M861.154,1568.7a1884.082,1884.082,0,0,0,16.716,207.083q-19.758,13.592-39.319,27.178h-124.3A1887.274,1887.274,0,0,1,693.634,1568.7Z" transform="translate(-693.634 -1568.7)" fill="#fff"/>
            <path id="Trazado_636419" data-name="Trazado 636419" d="M914.1,1825.346q-19.758,13.593-39.319,27.178,4.279-18,8.906-36.007Q898.883,1820.933,914.1,1825.346Z" transform="translate(-729.863 -1618.263)" fill="#ebebeb"/>
          </g>
          <g id="Grupo_952602" data-name="Grupo 952602" transform="translate(16.885 18.485)">
            <g id="Grupo_952600" data-name="Grupo 952600">
              <path id="Trazado_636420" data-name="Trazado 636420" d="M742.942,1594.487q.464,12.708,1.1,25.422H718.623q-.638-12.714-1.1-25.422h25.422m2.589-2.681H714.74q.54,15.388,1.335,30.784h30.791q-.794-15.4-1.334-30.784Z" transform="translate(-714.74 -1591.806)" fill="#ff271e"/>
            </g>
            <g id="Grupo_952601" data-name="Grupo 952601" transform="translate(44.758 6.479)">
              <path id="Trazado_636421" data-name="Trazado 636421" d="M857.977,1605.649h-87.06q-.12-2.873-.23-5.744h87.06Q857.857,1602.778,857.977,1605.649Z" transform="translate(-770.687 -1599.904)" fill="#e0e0e0"/>
              <path id="Trazado_636422" data-name="Trazado 636422" d="M839.711,1620.748H771.586q-.139-2.873-.268-5.746h68.126Q839.573,1617.875,839.711,1620.748Z" transform="translate(-770.813 -1602.924)" fill="#e0e0e0"/>
            </g>
          </g>
          <g id="Grupo_952605" data-name="Grupo 952605" transform="translate(19.298 68.276)">
            <g id="Grupo_952603" data-name="Grupo 952603">
              <path id="Trazado_636423" data-name="Trazado 636423" d="M746.031,1656.727q.805,12.718,1.782,25.438H722.391q-.978-12.721-1.782-25.438h25.422m2.518-2.682H717.757q.952,15.4,2.158,30.8h30.791q-1.206-15.4-2.158-30.8Z" transform="translate(-717.757 -1654.045)" fill="#ff271e"/>
            </g>
            <g id="Grupo_952604" data-name="Grupo 952604" transform="translate(44.93 6.483)">
              <path id="Trazado_636424" data-name="Trazado 636424" d="M806.287,1667.9H774.3q-.2-2.874-.384-5.749H805.9Q806.09,1665.024,806.287,1667.9Z" transform="translate(-773.92 -1662.149)" fill="#e0e0e0"/>
              <path id="Trazado_636425" data-name="Trazado 636425" d="M846.27,1667.9H822.744q-.2-2.874-.384-5.749h23.526Q846.074,1665.024,846.27,1667.9Z" transform="translate(-783.608 -1662.149)" fill="#e0e0e0"/>
              <path id="Trazado_636426" data-name="Trazado 636426" d="M851.561,1683.006H775.377q-.216-2.874-.422-5.749h76.184Q851.345,1680.131,851.561,1683.006Z" transform="translate(-774.127 -1665.171)" fill="#e0e0e0"/>
            </g>
          </g>
          <g id="Grupo_952608" data-name="Grupo 952608" transform="translate(23.042 118.094)">
            <g id="Grupo_952606" data-name="Grupo 952606">
              <path id="Trazado_636427" data-name="Trazado 636427" d="M750.783,1719q1.145,12.721,2.462,25.44H727.823q-1.318-12.719-2.461-25.44h25.422m2.446-2.682H722.437q1.364,15.4,2.982,30.806H756.21q-1.618-15.4-2.981-30.806Z" transform="translate(-722.437 -1716.317)" fill="#ff271e"/>
            </g>
            <g id="Grupo_952607" data-name="Grupo 952607" transform="translate(45.104 6.485)">
              <path id="Trazado_636428" data-name="Trazado 636428" d="M867.316,1739.532h-87.06q.283,2.875.575,5.749h87.06Q867.6,1742.407,867.316,1739.532Z" transform="translate(-779.105 -1727.445)" fill="#e0e0e0"/>
              <path id="Trazado_636429" data-name="Trazado 636429" d="M846.943,1724.423H778.817q.265,2.874.538,5.749H847.48Q847.207,1727.3,846.943,1724.423Z" transform="translate(-778.817 -1724.423)" fill="#e0e0e0"/>
            </g>
          </g>
          <g id="Grupo_952611" data-name="Grupo 952611" transform="translate(28.118 167.91)">
            <g id="Grupo_952609" data-name="Grupo 952609">
              <path id="Trazado_636430" data-name="Trazado 636430" d="M757.2,1781.27q1.484,12.716,3.141,25.429H734.918q-1.657-12.713-3.141-25.429H757.2m2.374-2.682H728.781q1.775,15.4,3.8,30.793h30.792q-2.029-15.393-3.8-30.793Z" transform="translate(-728.781 -1778.587)" fill="#ff271e"/>
            </g>
            <g id="Grupo_952610" data-name="Grupo 952610" transform="translate(45.277 6.483)">
              <path id="Trazado_636431" data-name="Trazado 636431" d="M873.129,1792.438h-87.06q-.35-2.873-.692-5.747h87.061Q872.779,1789.564,873.129,1792.438Z" transform="translate(-785.377 -1786.691)" fill="#e0e0e0"/>
              <path id="Trazado_636432" data-name="Trazado 636432" d="M827.579,1807.539H787.948q-.368-2.872-.728-5.746h39.631Q827.211,1804.666,827.579,1807.539Z" transform="translate(-785.746 -1789.711)" fill="#e0e0e0"/>
              <path id="Trazado_636433" data-name="Trazado 636433" d="M862.795,1807.539H845.682q-.37-2.872-.728-5.746h17.113Q862.427,1804.666,862.795,1807.539Z" transform="translate(-797.292 -1789.711)" fill="#e0e0e0"/>
            </g>
          </g>
          <path id="Trazado_636434" data-name="Trazado 636434" d="M733.362,1617.055l-1.127-1.8c-2.459-3.917-7.489-7.418-9.219-8.437q.643-1.147,1.289-2.3a36.293,36.293,0,0,1,9.015,7.735c3.871-5.277,9.593-10.72,17.433-16.582l1.66,2.167c-8.372,6.262-14.228,12-17.922,17.519Z" transform="translate(-699.51 -1574.096)" fill="#ff271e"/>
          <path id="Trazado_636435" data-name="Trazado 636435" d="M737.129,1679.31q-.589-.9-1.175-1.8c-2.562-3.92-7.686-7.423-9.446-8.442q.613-1.147,1.227-2.3a37.716,37.716,0,0,1,9.222,7.741c3.73-5.281,9.306-10.723,16.99-16.593l1.718,2.169c-8.2,6.273-13.909,12.006-17.453,17.53Q737.67,1678.466,737.129,1679.31Z" transform="translate(-700.209 -1586.545)" fill="#ff271e"/>
          <path id="Trazado_636436" data-name="Trazado 636436" d="M742.574,1741.734l-1.223-1.8c-2.667-3.919-7.887-7.422-9.672-8.442q.582-1.148,1.166-2.3a39.3,39.3,0,0,1,9.43,7.742c3.59-5.281,9.019-10.725,16.545-16.6l1.775,2.169c-8.034,6.271-13.587,12.01-16.983,17.532Q743.092,1740.889,742.574,1741.734Z" transform="translate(-701.243 -1599.029)" fill="#ff271e"/>
          <path id="Trazado_636437" data-name="Trazado 636437" d="M824.046,1842.192c-4.721,0-7.442-1.745-9.839-3.281-2.294-1.474-4.459-2.858-8.446-2.86a10.7,10.7,0,0,0-7.64,2.86,12.661,12.661,0,0,1-8.9,3.281c-4.717,0-7.442-1.745-9.838-3.281-2.294-1.474-4.455-2.858-8.445-2.86a10.687,10.687,0,0,0-7.638,2.86,12.658,12.658,0,0,1-8.9,3.281c-4.719,0-7.439-1.745-9.838-3.281-2.294-1.474-4.458-2.858-8.445-2.86l-.322-2.3c4.718,0,7.433,1.742,9.83,3.281,2.291,1.468,4.458,2.862,8.446,2.859a10.692,10.692,0,0,0,7.636-2.859,12.692,12.692,0,0,1,8.91-3.281c4.718,0,7.43,1.742,9.83,3.281,2.29,1.468,4.46,2.862,8.446,2.859a10.7,10.7,0,0,0,7.638-2.859,12.7,12.7,0,0,1,8.912-3.281c4.718,0,7.432,1.742,9.83,3.281,2.291,1.468,4.458,2.862,8.447,2.859Q823.88,1841.041,824.046,1842.192Z" transform="translate(-702.066 -1621.71)" fill="#ebebeb"/>
        </g>
      </g>
      <g id="Grupo_952615" data-name="Grupo 952615" transform="translate(46.647)">
        <path id="Trazado_636438" data-name="Trazado 636438" d="M832.032,1560.182c-2.7-7.17-8.947-11.922-15.673-11.922H802.668a5.208,5.208,0,0,1-4.762-3.165,12.777,12.777,0,0,0-11.654-7.83,11.334,11.334,0,0,0-10.9,7.83,4.624,4.624,0,0,1-4.457,3.165h-13.69c-6.726,0-12.515,4.753-14.521,11.922l-.8,2.864H833.11Z" transform="translate(-739.793 -1537.265)" fill="#263238"/>
        <g id="Grupo_952614" data-name="Grupo 952614" transform="translate(0 22.97)">
          <path id="Trazado_636439" data-name="Trazado 636439" d="M832,1571.6H742.219a2.992,2.992,0,0,1-2.947-2.811h0a2.661,2.661,0,0,1,2.676-2.811H831.73a2.99,2.99,0,0,1,2.947,2.811h0A2.661,2.661,0,0,1,832,1571.6Z" transform="translate(-739.269 -1565.977)" fill="#ff271e"/>
          <path id="Trazado_636440" data-name="Trazado 636440" d="M832,1571.6H742.219a2.992,2.992,0,0,1-2.947-2.811h0a2.661,2.661,0,0,1,2.676-2.811H831.73a2.99,2.99,0,0,1,2.947,2.811h0A2.661,2.661,0,0,1,832,1571.6Z" transform="translate(-739.269 -1565.977)" opacity="0.2"/>
        </g>
      </g>
    </g>
    <g id="Grupo_952624" data-name="Grupo 952624" transform="translate(800.495 1564.502)">
      <path id="Trazado_636441" data-name="Trazado 636441" d="M954.286,1865.684h-5.861l-.584-13.574H953.7Z" transform="translate(-871.068 -1632.164)" fill="#ffc3bd"/>
      <path id="Trazado_636442" data-name="Trazado 636442" d="M997.687,1865.684h-5.861l-2.946-13.574h5.861Z" transform="translate(-879.275 -1632.164)" fill="#ffc3bd"/>
      <path id="Trazado_636443" data-name="Trazado 636443" d="M989.757,1868.23h6.585a.511.511,0,0,1,.5.4l1.158,5.21a.861.861,0,0,1-.858,1.042c-2.3-.039-3.416-.174-6.312-.174-1.782,0-5.452.186-7.912.186-2.406,0-2.782-2.433-1.774-2.653,4.516-.988,6.217-2.35,7.663-3.65A1.421,1.421,0,0,1,989.757,1868.23Z" transform="translate(-877.623 -1635.388)" fill="#263238"/>
      <path id="Trazado_636444" data-name="Trazado 636444" d="M945.08,1868.23h6.4a.511.511,0,0,1,.5.4l1.158,5.21a.853.853,0,0,1-.843,1.043c-2.31-.039-5.646-.175-8.548-.175-3.394,0-6.324.186-10.3.186-2.406,0-3.074-2.433-2.066-2.653,4.585-1,8.329-1.111,12.291-3.554A2.713,2.713,0,0,1,945.08,1868.23Z" transform="translate(-867.684 -1635.388)" fill="#263238"/>
      <path id="Trazado_636445" data-name="Trazado 636445" d="M959.814,1601.768c-.841,4.288-1.258,9.6,1.742,12.464,0,0-1.723,4.35-9.69,4.35-7.281,0-3.636-4.35-3.636-4.35,4.782-1.142,4.532-7.054,3.7-10.386Z" transform="translate(-870.963 -1582.096)" fill="#ffc3bd"/>
      <g id="Grupo_952617" data-name="Grupo 952617" transform="translate(75.01 29.057)">
        <path id="Trazado_636446" data-name="Trazado 636446" d="M945.637,1617.177c.166-1.067,2.034-2.3,4.166-2.767s10.3-1.5,12.8-.466-.433,4.093-.433,4.093Z" transform="translate(-945.637 -1613.499)" fill="#ff271e"/>
        <path id="Trazado_636447" data-name="Trazado 636447" d="M945.637,1617.177c.166-1.067,2.034-2.3,4.166-2.767s10.3-1.5,12.8-.466-.433,4.093-.433,4.093Z" transform="translate(-945.637 -1613.499)" fill="#fff" opacity="0.4"/>
      </g>
      <g id="Grupo_952618" data-name="Grupo 952618" transform="translate(76.775 219.95)">
        <path id="Trazado_636448" data-name="Trazado 636448" d="M947.843,1852.115l.3,7h5.864l-.3-7Z" transform="translate(-947.843 -1852.115)" opacity="0.2"/>
        <path id="Trazado_636449" data-name="Trazado 636449" d="M994.742,1852.115h-5.864l1.522,7h5.864Z" transform="translate(-956.05 -1852.115)" opacity="0.2"/>
      </g>
      <path id="Trazado_636450" data-name="Trazado 636450" d="M978.566,1623.948l-7.062,4.734s10.145,18.037,9.293,20.927c-1.158,3.933-2.776,12.54-4.974,16.906a8.255,8.255,0,0,0,2.565,3.467c5.586-4.261,11.261-17.614,11.048-21.337C988.949,1640.157,978.566,1623.948,978.566,1623.948Z" transform="translate(-875.8 -1586.532)" fill="#ffc3bd"/>
      <path id="Trazado_636451" data-name="Trazado 636451" d="M975.507,1677.049l-5.575-.432,2.934,6.17s4.887.216,5.7-3.519Z" transform="translate(-875.486 -1597.066)" fill="#cd5b51"/>
      <g id="Grupo_952621" data-name="Grupo 952621" transform="translate(0 36.849)">
        <path id="Trazado_636452" data-name="Trazado 636452" d="M982.476,1699.891l-.473.885-3.171,5.994L866.374,1647.3l3.633-6.877Z" transform="translate(-854.774 -1626.676)" fill="#ff271e"/>
        <path id="Trazado_636453" data-name="Trazado 636453" d="M991.569,1682.715l-2.322,4.388-1.313,2.477-112.47-59.465,3.633-6.877Z" transform="translate(-856.592 -1623.239)" fill="#ff271e"/>
        <g id="Grupo_952619" data-name="Grupo 952619" transform="translate(15.253 6.838)">
          <rect id="Rectángulo_339700" data-name="Rectángulo 339700" width="7.777" height="127.222" transform="matrix(0.468, -0.884, 0.884, 0.468, 0, 6.874)" fill="#ff271e"/>
          <rect id="Rectángulo_339701" data-name="Rectángulo 339701" width="7.777" height="127.223" transform="matrix(0.468, -0.884, 0.884, 0.468, 0, 6.872)" opacity="0.2"/>
        </g>
        <g id="Grupo_952620" data-name="Grupo 952620" transform="translate(3.479 0.003)">
          <path id="Trazado_636454" data-name="Trazado 636454" d="M859.5,1624.151l-3.272,6.188,8.119,13.531,10.907-20.627Z" transform="translate(-856.223 -1623.243)" fill="#ff271e"/>
          <path id="Trazado_636455" data-name="Trazado 636455" d="M859.5,1624.151l-3.272,6.188,8.119,13.531,10.907-20.627Z" transform="translate(-856.223 -1623.243)" fill="#fff" opacity="0.8"/>
        </g>
        <path id="Trazado_636456" data-name="Trazado 636456" d="M851.874,1624.767l3.479,5.8,3.272-6.188Z" transform="translate(-851.874 -1623.467)" fill="#ff271e"/>
      </g>
      <path id="Trazado_636457" data-name="Trazado 636457" d="M964.267,1679.427l2.931,5.458,4.535-2.1-2.933-6.17Z" transform="translate(-874.353 -1597.066)" fill="#cd5b51"/>
      <path id="Trazado_636458" data-name="Trazado 636458" d="M976.176,1618.977c5.546.807,11.9,20.023,11.9,20.023l-11.647,6.578a142.7,142.7,0,0,1-7.659-15.927C966.116,1622.542,970.228,1618.112,976.176,1618.977Z" transform="translate(-875.089 -1585.516)" fill="#263238"/>
      <path id="Trazado_636459" data-name="Trazado 636459" d="M973.862,1627.15c-2.52-2.3-.976,7.559.224,13.872.616,1.232,1.2,2.352,1.7,3.287C978.59,1639.35,977.334,1630.326,973.862,1627.15Z" transform="translate(-876.001 -1587.104)" opacity="0.2"/>
      <path id="Trazado_636460" data-name="Trazado 636460" d="M936.392,1618.926s-6.918,17.7-.347,50.663H967.4c.216-4.813-2.808-28.289,1.834-50.965a81.746,81.746,0,0,0-10.5-1.325,115.31,115.31,0,0,0-13.326,0A58.856,58.856,0,0,0,936.392,1618.926Z" transform="translate(-868.142 -1585.163)" fill="#263238"/>
      <path id="Trazado_636461" data-name="Trazado 636461" d="M933.716,1628.884l-7.906-3.131s-9.1,18.585-11.965,19.522c-3.9,1.277-11.9,4.826-16.745,5.491a8.259,8.259,0,0,0-1.4,4.079c6.677,2.184,20.893-.716,23.838-3C926.254,1646.628,933.716,1628.884,933.716,1628.884Z" transform="translate(-860.636 -1586.893)" fill="#ffc3bd"/>
      <path id="Trazado_636462" data-name="Trazado 636462" d="M942.107,1626.049c-1.3-3.008-3.8-4.264-6.432-3.824-1.008,3.687-2.712,11.792-2.432,23.992l1.864.9S944.339,1631.193,942.107,1626.049Z" transform="translate(-868.142 -1586.17)" opacity="0.2"/>
      <path id="Trazado_636463" data-name="Trazado 636463" d="M940.948,1623.351c1.975,5.244-8.032,20.687-8.032,20.687l-11.722-6.366a71.521,71.521,0,0,1,6.774-13.722C932.116,1617.769,938.781,1617.6,940.948,1623.351Z" transform="translate(-865.738 -1585.576)" fill="#263238"/>
      <path id="Trazado_636464" data-name="Trazado 636464" d="M896.029,1657l-6.982,1.51,3.538,6.456a19.268,19.268,0,0,0,5.238-3.821Z" transform="translate(-859.309 -1593.142)" fill="#ffc3bd"/>
      <path id="Trazado_636465" data-name="Trazado 636465" d="M884.935,1660.319l2.784,3.855,4.044,1.169-3.539-6.456Z" transform="translate(-858.486 -1593.52)" fill="#ffc3bd"/>
      <path id="Trazado_636466" data-name="Trazado 636466" d="M946.084,1593.836c-.027.472-.3.84-.608.822s-.537-.414-.51-.886.3-.841.608-.822S946.111,1593.364,946.084,1593.836Z" transform="translate(-870.492 -1580.332)" fill="#263238"/>
      <path id="Trazado_636467" data-name="Trazado 636467" d="M946.262,1594.1a16.932,16.932,0,0,1-2.487,3.906,2.724,2.724,0,0,0,2.23.553Z" transform="translate(-870.254 -1580.563)" fill="#ff847f"/>
      <path id="Trazado_636468" data-name="Trazado 636468" d="M945.547,1591.578a.272.272,0,0,1-.118-.042.277.277,0,0,1-.082-.384,2.753,2.753,0,0,1,2.168-1.311.276.276,0,0,1,.279.276.279.279,0,0,1-.275.279h0a2.2,2.2,0,0,0-1.706,1.057A.277.277,0,0,1,945.547,1591.578Z" transform="translate(-870.56 -1579.71)" fill="#263238"/>
      <path id="Trazado_636469" data-name="Trazado 636469" d="M962.018,1591.3c-.69,5.776-.8,9.192-3.9,12-4.662,4.222-11.663,1.154-12.713-4.712-.945-5.279.342-13.839,6.15-15.818A7.934,7.934,0,0,1,962.018,1591.3Z" transform="translate(-870.524 -1578.206)" fill="#ffc3bd"/>
      <path id="Trazado_636470" data-name="Trazado 636470" d="M949.114,1591.4c-2.024.4-5.254-4.094-2.62-7.911-1.336-.666-5.691,1.955-7.336-.489s2.911-3.756,2.045-5.822c3.09.634-2,4.486.933,4.11s6.322-5.8,9.634-3.577c5.8,3.9,13.7-2.6,10.476,5.533,3.955-.8,6.658,3.878,2.89,7.111-7.508,6.445-2.89,7.289-7.644,7.622C955.072,1598.148,949.532,1595.29,949.114,1591.4Z" transform="translate(-869.259 -1577.177)" fill="#263238"/>
      <path id="Trazado_636471" data-name="Trazado 636471" d="M954.189,1596a4.887,4.887,0,0,1-2.793,2.473c-1.623.546-2.524-.884-2.147-2.462.338-1.421,1.592-3.418,3.257-3.279A2.194,2.194,0,0,1,954.189,1596Z" transform="translate(-871.332 -1580.287)" fill="#ffc3bd"/>
      <g id="Grupo_952622" data-name="Grupo 952622" transform="translate(79.025 84.426)">
        <path id="Trazado_636472" data-name="Trazado 636472" d="M950.655,1682.71s6.652,44.794,10.3,61.575c4,18.377,19.065,79.591,19.065,79.591h10.736s-9.934-59.73-12.216-77.926c-2.477-19.747-7.658-63.241-7.658-63.241Z" transform="translate(-950.655 -1682.71)" fill="#ff271e"/>
        <path id="Trazado_636473" data-name="Trazado 636473" d="M950.655,1682.71s6.652,44.794,10.3,61.575c4,18.377,19.065,79.591,19.065,79.591h10.736s-9.934-59.73-12.216-77.926c-2.477-19.747-7.658-63.241-7.658-63.241Z" transform="translate(-950.655 -1682.71)" fill="#fff" opacity="0.2"/>
        <path id="Trazado_636474" data-name="Trazado 636474" d="M959.468,1702.073c-.494-.7-.946-.942-1.363-.822-.029.009-.057.019-.086.03a1.074,1.074,0,0,0-.262.157,1.763,1.763,0,0,0-.23.233c-.042.051-.085.1-.126.163-.058.081-.115.17-.172.265a6.045,6.045,0,0,0-.359.729c-.062.149-.124.306-.184.472-.072.2-.142.408-.21.628q-.137.442-.266.936c-.022.085-.044.172-.066.259-.044.179-.088.364-.131.552q-.054.234-.106.477-.1.475-.2.978-.1.536-.2,1.1c-.022.131-.044.264-.066.4q-.118.721-.226,1.47h0v0c1.776,11.152,3.888,23.934,5.623,32.854q.127-.434.245-.917a41.838,41.838,0,0,0,.8-4.519C963.375,1726.019,962.674,1706.656,959.468,1702.073Z" transform="translate(-951.568 -1686.412)" opacity="0.2"/>
      </g>
      <g id="Grupo_952623" data-name="Grupo 952623" transform="translate(67.488 84.426)">
        <path id="Trazado_636475" data-name="Trazado 636475" d="M936.649,1682.71s-.807,43.824-.17,61.7c.663,18.592,7.158,79.468,7.158,79.468h9.929s.365-59.79.806-78.049c.482-19.906,2.885-63.118,2.885-63.118Z" transform="translate(-936.234 -1682.71)" fill="#ff271e"/>
        <path id="Trazado_636476" data-name="Trazado 636476" d="M936.649,1682.71s-.807,43.824-.17,61.7c.663,18.592,7.158,79.468,7.158,79.468h9.929s.365-59.79.806-78.049c.482-19.906,2.885-63.118,2.885-63.118Z" transform="translate(-936.234 -1682.71)" fill="#fff" opacity="0.2"/>
      </g>
      <path id="Trazado_636477" data-name="Trazado 636477" d="M955.736,1855.265c.046,0,0,3.244,0,3.244H944.292l-.482-3.644Z" transform="translate(-870.261 -1632.715)" fill="#263238"/>
      <path id="Trazado_636478" data-name="Trazado 636478" d="M997.708,1855.559c.046,0,.534,3,.534,3h-11.8l-1.044-3.444Z" transform="translate(-878.579 -1632.765)" fill="#263238"/>
      <path id="Trazado_636479" data-name="Trazado 636479" d="M989.264,1869.138a1.779,1.779,0,0,1-1.129-.3.835.835,0,0,1-.286-.734.441.441,0,0,1,.238-.393c.642-.332,2.538.829,2.753.962a.139.139,0,0,1-.042.253A6.9,6.9,0,0,1,989.264,1869.138Zm-.871-1.213a.409.409,0,0,0-.18.034.172.172,0,0,0-.087.163.567.567,0,0,0,.188.5,2.819,2.819,0,0,0,2.081.105A5.6,5.6,0,0,0,988.392,1867.925Z" transform="translate(-879.068 -1635.273)" fill="#ff271e"/>
      <path id="Trazado_636480" data-name="Trazado 636480" d="M991.062,1868.588a.143.143,0,0,1-.066-.016c-.607-.33-1.779-1.614-1.655-2.268a.451.451,0,0,1,.442-.363.757.757,0,0,1,.591.177c.682.557.821,2.249.826,2.32a.138.138,0,0,1-.138.15Zm-1.182-2.376c-.021,0-.042,0-.063,0-.18.022-.2.106-.2.14-.074.386.674,1.357,1.276,1.814a3.342,3.342,0,0,0-.691-1.837A.493.493,0,0,0,989.879,1866.212Z" transform="translate(-879.366 -1634.929)" fill="#ff271e"/>
      <path id="Trazado_636481" data-name="Trazado 636481" d="M945.15,1869.138a2.219,2.219,0,0,1-1.424-.36.779.779,0,0,1-.26-.676.441.441,0,0,1,.229-.369c.711-.4,3.068.8,3.334.935a.139.139,0,0,1-.037.26A9.932,9.932,0,0,1,945.15,1869.138Zm-1.061-1.214a.54.54,0,0,0-.259.051.167.167,0,0,0-.087.148.509.509,0,0,0,.167.447,3.755,3.755,0,0,0,2.619.159A7.656,7.656,0,0,0,944.089,1867.925Z" transform="translate(-870.192 -1635.272)" fill="#ff271e"/>
      <path id="Trazado_636482" data-name="Trazado 636482" d="M947.325,1868.587a.141.141,0,0,1-.057-.012c-.707-.318-2.109-1.584-2-2.248.026-.155.136-.35.517-.387a1,1,0,0,1,.77.238,3.962,3.962,0,0,1,.91,2.258.138.138,0,0,1-.138.152Zm-1.43-2.376c-.027,0-.055,0-.083,0-.25.026-.266.124-.271.156-.064.4.888,1.395,1.61,1.828a3.255,3.255,0,0,0-.773-1.807A.738.738,0,0,0,945.9,1866.211Z" transform="translate(-870.551 -1634.929)" fill="#ff271e"/>
    </g>
  </g>
</svg>
