<svg xmlns="http://www.w3.org/2000/svg" width="164" height="164" viewBox="0 0 164 164">
  <g id="Grupo_953247" data-name="Grupo 953247" transform="translate(-377 -1857)">
    <g id="Grupo_81380" data-name="Grupo 81380" transform="translate(197.186 575.265)">
      <g id="Grupo_930456" data-name="Grupo 930456" transform="translate(195.146 1291.326)">
        <circle id="Elipse_7667" data-name="Elipse 7667" cx="65.203" cy="65.203" r="65.203" transform="translate(0 14.578)" fill="#ff3c00"/>
        <g id="parrafo" transform="translate(16.192 23.023)">
          <g id="Color">
            <g id="Grupo_953256" data-name="Grupo 953256" transform="translate(0 32.674)">
              <path id="Trazado_654402" data-name="Trazado 654402" d="M90.876,8H7.148A7.182,7.182,0,0,0,0,15.148V66.2a7.182,7.182,0,0,0,7.148,7.148H90.876A7.182,7.182,0,0,0,98.023,66.2V15.148A7.182,7.182,0,0,0,90.876,8Z" transform="translate(0 -8)" fill="#cfd8dc"/>
            </g>
            <g id="Grupo_953257" data-name="Grupo 953257">
              <path id="Trazado_654403" data-name="Trazado 654403" d="M90.876,0H7.148A7.155,7.155,0,0,0,0,7.148V17.358a7.155,7.155,0,0,0,7.148,7.148H90.876a7.155,7.155,0,0,0,7.148-7.148V7.148A7.155,7.155,0,0,0,90.876,0Z" fill="#03a9f4"/>
            </g>
          </g>
          <g id="regular">
            <g id="Grupo_953258" data-name="Grupo 953258" transform="translate(53.096 44.927)">
              <path id="Trazado_654404" data-name="Trazado 654404" d="M42.611,17.126H16.063a3.063,3.063,0,1,1,0-6.126H42.611a3.063,3.063,0,1,1,0,6.126Z" transform="translate(-13 -11)"/>
            </g>
            <g id="Grupo_953259" data-name="Grupo 953259" transform="translate(53.096 57.18)">
              <path id="Trazado_654405" data-name="Trazado 654405" d="M42.611,20.126H16.063a3.063,3.063,0,1,1,0-6.126H42.611a3.063,3.063,0,1,1,0,6.126Z" transform="translate(-13 -14)"/>
            </g>
            <g id="Grupo_953260" data-name="Grupo 953260" transform="translate(53.096 69.433)">
              <path id="Trazado_654406" data-name="Trazado 654406" d="M42.611,23.126H16.063a3.063,3.063,0,0,1,0-6.126H42.611a3.063,3.063,0,0,1,0,6.126Z" transform="translate(-13 -17)"/>
            </g>
            <g id="Grupo_953261" data-name="Grupo 953261" transform="translate(12.241 44.927)">
              <path id="Trazado_654407" data-name="Trazado 654407" d="M32.608,17.126H6.06A3.063,3.063,0,1,1,6.06,11H32.608a3.063,3.063,0,1,1,0,6.126Z" transform="translate(-2.997 -11)"/>
            </g>
            <g id="Grupo_953262" data-name="Grupo 953262" transform="translate(12.241 57.18)">
              <path id="Trazado_654408" data-name="Trazado 654408" d="M32.608,20.126H6.06A3.063,3.063,0,1,1,6.06,14H32.608a3.063,3.063,0,1,1,0,6.126Z" transform="translate(-2.997 -14)"/>
            </g>
            <g id="Grupo_953263" data-name="Grupo 953263" transform="translate(12.241 69.433)">
              <path id="Trazado_654409" data-name="Trazado 654409" d="M32.608,23.126H6.06A3.063,3.063,0,0,1,6.06,17H32.608a3.063,3.063,0,0,1,0,6.126Z" transform="translate(-2.997 -17)"/>
            </g>
            <g id="Grupo_953264" data-name="Grupo 953264" transform="translate(53.096 81.686)">
              <path id="Trazado_654410" data-name="Trazado 654410" d="M42.611,26.126H16.063a3.063,3.063,0,1,1,0-6.126H42.611a3.063,3.063,0,1,1,0,6.126Z" transform="translate(-13 -20)"/>
            </g>
            <g id="Grupo_953265" data-name="Grupo 953265" transform="translate(12.241 81.686)">
              <path id="Trazado_654411" data-name="Trazado 654411" d="M32.608,26.126H6.06A3.063,3.063,0,1,1,6.06,20H32.608a3.063,3.063,0,1,1,0,6.126Z" transform="translate(-2.997 -20)"/>
            </g>
            <g id="Grupo_953266" data-name="Grupo 953266" transform="translate(0 32.674)">
              <path id="Trazado_654412" data-name="Trazado 654412" d="M90.876,73.349H7.148A7.155,7.155,0,0,1,0,66.2V15.148A7.155,7.155,0,0,1,7.148,8H90.876a7.155,7.155,0,0,1,7.148,7.148V66.2A7.155,7.155,0,0,1,90.876,73.349ZM7.148,14.126a1.021,1.021,0,0,0-1.021,1.021V66.2a1.021,1.021,0,0,0,1.021,1.021H90.876A1.021,1.021,0,0,0,91.9,66.2V15.148a1.021,1.021,0,0,0-1.021-1.021Z" transform="translate(0 -8)"/>
            </g>
            <g id="Grupo_953267" data-name="Grupo 953267">
              <path id="Trazado_654413" data-name="Trazado 654413" d="M90.876,24.506H7.148A7.155,7.155,0,0,1,0,17.358V7.148A7.155,7.155,0,0,1,7.148,0H90.876a7.155,7.155,0,0,1,7.148,7.148V17.358A7.155,7.155,0,0,1,90.876,24.506ZM7.148,6.126A1.021,1.021,0,0,0,6.126,7.148V17.358a1.021,1.021,0,0,0,1.021,1.021H90.876A1.021,1.021,0,0,0,91.9,17.358V7.148a1.021,1.021,0,0,0-1.021-1.021Z"/>
            </g>
          </g>
        </g>
      </g>
      <rect id="Rectángulo_305736" data-name="Rectángulo 305736" width="164" height="164" transform="translate(179.814 1281.735)" fill="none"/>
    </g>
  </g>
</svg>
