<svg xmlns="http://www.w3.org/2000/svg" width="164" height="164" viewBox="0 0 164 164">
  <g id="Grupo_953248" data-name="Grupo 953248" transform="translate(-377 -1857)">
    <g id="Grupo_81380" data-name="Grupo 81380" transform="translate(197.186 575.265)">
      <g id="Grupo_930456" data-name="Grupo 930456" transform="translate(195.146 1291.326)">
        <circle id="Elipse_7667" data-name="Elipse 7667" cx="65.203" cy="65.203" r="65.203" transform="translate(0 14.578)" fill="#ff3c00"/>
        <g id="hombre" transform="translate(16.182 8.638)">
          <path id="Trazado_654414" data-name="Trazado 654414" d="M55.62,35h2.03A24.354,24.354,0,0,1,82,59.354V77.62a6.089,6.089,0,0,1-6.089,6.089H19.089A6.089,6.089,0,0,1,13,77.62V59.354A24.354,24.354,0,0,1,37.354,35Z" transform="translate(1.03 36.033)" fill="#48a58e"/>
          <path id="Trazado_654415" data-name="Trazado 654415" d="M26,30.06V40.086a8.118,8.118,0,0,0,16.236,0V30.06Z" transform="translate(14.413 30.948)" fill="#d7b19c"/>
          <path id="Trazado_654416" data-name="Trazado 654416" d="M18,37.531V21.3A20.3,20.3,0,0,1,38.3,1H55.707a2.876,2.876,0,0,1,2.03,4.909l-3.2,3.209A12.177,12.177,0,0,1,66.709,21.3V37.531Z" transform="translate(6.177 1.03)" fill="#775043"/>
          <path id="Trazado_654417" data-name="Trazado 654417" d="M66.706,27.772a6.088,6.088,0,0,0-4.668-5.92,2.115,2.115,0,0,1-1.587-1.624,6.535,6.535,0,0,0-5.48-5.074c-3.775-.528-8.546-1.685-11.327-4.183a1.956,1.956,0,0,0-2.594,0c-2.78,2.5-7.552,3.653-11.327,4.183a6.535,6.535,0,0,0-5.48,5.074,2.115,2.115,0,0,1-1.587,1.624,6.089,6.089,0,0,0-.114,11.806,2.048,2.048,0,0,1,1.6,1.745,18.266,18.266,0,0,0,36.41,0,2.048,2.048,0,0,1,1.6-1.745,6.06,6.06,0,0,0,4.546-5.886Z" transform="translate(6.18 10.789)" fill="#e7c3ab"/>
          <path id="Trazado_654418" data-name="Trazado 654418" d="M58.679,69V62.168A20.533,20.533,0,0,0,68.843,46.413a8.09,8.09,0,0,0,6.072-7.852V22.325A14.231,14.231,0,0,0,64.971,8.768l.392-.394A4.905,4.905,0,0,0,61.882,0H44.472A22.351,22.351,0,0,0,22.148,22.325V38.561a7.972,7.972,0,0,0,6.158,7.8,20.366,20.366,0,0,0,10.079,15.8V69a26.268,26.268,0,0,0-14.59,4.4,2.03,2.03,0,1,0,2.247,3.381,22.227,22.227,0,0,1,12.344-3.72h.2a10.148,10.148,0,0,0,19.889,0h.2A22.351,22.351,0,0,1,81,95.388v18.266a4.059,4.059,0,0,1-4.059,4.059H70.856V99.447a2.03,2.03,0,0,0-4.059,0v18.266H30.266V99.447a2.03,2.03,0,1,0-4.059,0v18.266H20.118a4.059,4.059,0,0,1-4.059-4.059V95.388a22.183,22.183,0,0,1,4.187-13.021A2.029,2.029,0,1,0,16.952,80,26.205,26.205,0,0,0,12,95.388v18.266a8.118,8.118,0,0,0,8.118,8.118H76.945a8.118,8.118,0,0,0,8.118-8.118V95.388A26.414,26.414,0,0,0,58.679,69ZM44.472,4.059H61.882A.846.846,0,0,1,62.491,5.5L59.274,8.713a2.03,2.03,0,0,0,1.435,3.464A10.16,10.16,0,0,1,70.856,22.325v9.2a8.646,8.646,0,0,0-2.232-.946,8.6,8.6,0,0,0-7.185-6.635A20.244,20.244,0,0,1,51.19,20.265a3.968,3.968,0,0,0-5.309,0,20.245,20.245,0,0,1-10.247,3.684,8.778,8.778,0,0,0-7.27,6.72,8.118,8.118,0,0,0-2.157.881V22.325A18.286,18.286,0,0,1,44.472,4.059ZM32.35,46.048a4.083,4.083,0,0,0-3.123-3.568,4.059,4.059,0,0,1,.081-7.866,4.14,4.14,0,0,0,3.1-3.156,4.53,4.53,0,0,1,3.783-3.5c5.65-.789,9.823-2.364,12.285-4.682,2.575,2.318,6.748,3.893,12.4,4.684a4.53,4.53,0,0,1,3.779,3.5,4.136,4.136,0,0,0,3.1,3.148,4.059,4.059,0,0,1,.059,7.873,4.059,4.059,0,0,0-3.1,3.535,16.236,16.236,0,0,1-32.365.026ZM48.531,77.122a6.089,6.089,0,0,1-6.089-6.089V63.979a19.686,19.686,0,0,0,12.177,0v7.055A6.089,6.089,0,0,1,48.531,77.122Z" transform="translate(0 0)"/>
        </g>
      </g>
      <rect id="Rectángulo_305736" data-name="Rectángulo 305736" width="164" height="164" transform="translate(179.814 1281.735)" fill="none"/>
    </g>
  </g>
</svg>
