<svg xmlns="http://www.w3.org/2000/svg" width="164" height="164" viewBox="0 0 164 164">
  <g id="Grupo_953249" data-name="Grupo 953249" transform="translate(-377 -1857)">
    <g id="Grupo_81380" data-name="Grupo 81380" transform="translate(197.186 575.265)">
      <g id="Grupo_930456" data-name="Grupo 930456" transform="translate(195.146 1291.326)">
        <circle id="Elipse_7667" data-name="Elipse 7667" cx="65.203" cy="65.203" r="65.203" transform="translate(0 14.578)" fill="#ff3c00"/>
        <g id="signo-de-interrogacion" transform="translate(-42.568 8.813)">
          <g id="Grupo_953277" data-name="Grupo 953277" transform="translate(65.879 1.763)">
            <g id="Grupo_953270" data-name="Grupo 953270" transform="translate(0 0.001)">
              <g id="Grupo_953269" data-name="Grupo 953269">
                <g id="Grupo_953268" data-name="Grupo 953268">
                  <path id="Trazado_654419" data-name="Trazado 654419" d="M209.83,99.951,230.345,83.88l3.2-27.979L209.83,42.844,200.2,56.076a16.284,16.284,0,0,1-1.865,29.915A23.115,23.115,0,0,0,183,107.777v4.2a9.916,9.916,0,0,0,9.914,9.916h14.5Z" transform="translate(-156.811 -34.533)" fill="#fe7d43"/>
                  <path id="Trazado_654420" data-name="Trazado 654420" d="M110.133,7.577A36.087,36.087,0,0,0,71.615,43.606a9.915,9.915,0,0,0,9.915,9.915h14.5" transform="translate(-71.615 -7.5)" fill="#fe7d43"/>
                </g>
                <path id="Trazado_654421" data-name="Trazado 654421" d="M207.416,419.815h-14.5A9.915,9.915,0,0,0,183,429.73v.082a9.915,9.915,0,0,0,9.915,9.915h12.737" transform="translate(-156.808 -322.861)" fill="#fe7d43"/>
              </g>
              <path id="Trazado_654422" data-name="Trazado 654422" d="M249.922,7.5h-14.5" transform="translate(-196.903 -7.5)" fill="#fe7d43"/>
            </g>
            <g id="Grupo_953276" data-name="Grupo 953276" transform="translate(14.501)">
              <g id="Grupo_953275" data-name="Grupo 953275">
                <g id="Grupo_953272" data-name="Grupo 953272" transform="translate(0 0.001)">
                  <g id="Grupo_953271" data-name="Grupo 953271">
                    <path id="Trazado_654423" data-name="Trazado 654423" d="M169.389,94.864a9.915,9.915,0,0,1-9.915-9.915V80.743a23.109,23.109,0,0,1,15.335-21.784,16.28,16.28,0,1,0-21.54-17.636,16.559,16.559,0,0,0-.158,2.283,9.915,9.915,0,1,1-19.83,0,36.108,36.108,0,1,1,48.138,34.05,3.248,3.248,0,0,0-2.116,3.088v4.206a9.915,9.915,0,0,1-9.915,9.915Z" transform="translate(-133.282 -7.5)" fill="#ffd15b"/>
                  </g>
                  <path id="Trazado_654424" data-name="Trazado 654424" d="M254.583,439.727a9.915,9.915,0,0,1-9.915-9.915v-.082a9.915,9.915,0,0,1,19.83,0v.082A9.915,9.915,0,0,1,254.583,439.727Z" transform="translate(-218.476 -322.861)" fill="#ffd15b"/>
                </g>
                <g id="Grupo_953274" data-name="Grupo 953274" transform="translate(0)">
                  <g id="Grupo_953273" data-name="Grupo 953273">
                    <path id="Trazado_654425" data-name="Trazado 654425" d="M142.4,38.58a36.143,36.143,0,0,0-.347,5.022,9.907,9.907,0,0,0,5.532,8.895,9.917,9.917,0,0,1-14.3-8.895A36.114,36.114,0,0,1,171.8,7.573q1.01.067,2.006.193A36.274,36.274,0,0,0,142.4,38.58Z" transform="translate(-133.283 -7.495)" fill="#ffc344"/>
                    <path id="Trazado_654426" data-name="Trazado 654426" d="M268.776,123.462a23.116,23.116,0,0,0-15.338,21.786v4.2a9.912,9.912,0,0,0,5.537,8.895,9.917,9.917,0,0,1-14.3-8.895v-4.2a23.109,23.109,0,0,1,15.338-21.786A16.282,16.282,0,0,0,259,92.44a16.272,16.272,0,0,1,9.771,31.022Z" transform="translate(-218.483 -72.003)" fill="#ffc344"/>
                  </g>
                  <path id="Trazado_654427" data-name="Trazado 654427" d="M258.975,438.7a9.917,9.917,0,0,1-14.3-8.895v-.084a9.917,9.917,0,0,1,14.3-8.895,9.923,9.923,0,0,0-5.537,8.895v.084a9.912,9.912,0,0,0,5.537,8.895Z" transform="translate(-218.483 -322.852)" fill="#ffc344"/>
                </g>
              </g>
            </g>
          </g>
          <g id="Grupo_953278" data-name="Grupo 953278" transform="translate(64.116 0)">
            <path id="Trazado_654428" data-name="Trazado 654428" d="M154.256,35.06A37.97,37.97,0,0,0,119.014.081C118.145.024,101.975,0,101.975,0h-.044a37.757,37.757,0,0,0-18,4.632A38.178,38.178,0,0,0,69.159,19.021a1.764,1.764,0,1,0,3.053,1.766A34.653,34.653,0,0,1,85.621,7.729a34.269,34.269,0,0,1,14.938-4.168A37.746,37.746,0,0,0,78.617,37.869a11.638,11.638,0,0,0,3.328,8.152H75.794a8.161,8.161,0,0,1-8.15-8.152,34.772,34.772,0,0,1,.331-4.778A34.153,34.153,0,0,1,69.1,27.96a1.764,1.764,0,0,0-3.377-1.02A37.707,37.707,0,0,0,64.481,32.6a38.309,38.309,0,0,0-.365,5.266,11.692,11.692,0,0,0,11.677,11.68H90.3a11.692,11.692,0,0,0,11.669-11.679,14.8,14.8,0,0,1,.141-2.039,14.473,14.473,0,0,1,7.151-10.521,14.518,14.518,0,0,1-2.449,26.25A24.882,24.882,0,0,0,90.308,75.008v4.2a11.692,11.692,0,0,0,11.677,11.68h14.5a11.692,11.692,0,0,0,11.679-11.679V75.007a1.484,1.484,0,0,1,.94-1.425,38.005,38.005,0,0,0,25.15-38.521ZM93.835,79.213v-4.2a21.349,21.349,0,0,1,14.158-20.124,18.038,18.038,0,0,0,5.213-31.138A14.509,14.509,0,0,1,121.32,51.56a24.876,24.876,0,0,0-16.511,23.447v4.206a11.637,11.637,0,0,0,3.327,8.152h-6.15a8.16,8.16,0,0,1-8.15-8.152Zm34.095-8.956a5.014,5.014,0,0,0-3.291,4.751v4.206a8.152,8.152,0,1,1-16.3,0V75.007A21.343,21.343,0,0,1,122.5,54.886a18.044,18.044,0,0,0-4.776-35.016q-.6-.04-1.194-.039a18.118,18.118,0,0,0-17.9,15.513,18.365,18.365,0,0,0-.174,2.526,8.151,8.151,0,1,1-16.3,0A34.344,34.344,0,1,1,127.93,70.256Z" transform="translate(-64.116 0)"/>
            <path id="Trazado_654429" data-name="Trazado 654429" d="M201.681,412.315h-14.5A11.692,11.692,0,0,0,175.5,423.994v.082a11.692,11.692,0,0,0,11.679,11.679s14.807,0,14.96-.008a1.764,1.764,0,1,0-.126-3.525q-.166.006-.332.006a8.162,8.162,0,0,1-8.152-8.153v-.082a8.151,8.151,0,0,1,16.3,0v.082a8.171,8.171,0,0,1-1.888,5.22,1.764,1.764,0,0,0,2.71,2.258,11.7,11.7,0,0,0,2.706-7.478v-.082a11.691,11.691,0,0,0-11.677-11.678Zm-22.653,11.761v-.082a8.161,8.161,0,0,1,8.152-8.152h6.148a11.635,11.635,0,0,0-3.327,8.15v.082a11.639,11.639,0,0,0,3.327,8.152H187.18A8.16,8.16,0,0,1,179.028,424.076Z" transform="translate(-149.309 -315.361)"/>
          </g>
        </g>
      </g>
      <rect id="Rectángulo_305736" data-name="Rectángulo 305736" width="164" height="164" transform="translate(179.814 1281.735)" fill="none"/>
    </g>
  </g>
</svg>
