<svg xmlns="http://www.w3.org/2000/svg" width="114" height="114" viewBox="0 0 114 114">
  <g id="Grupo_953328" data-name="Grupo 953328" transform="translate(-180 -10380.595)">
    <g id="Elipse_7730" data-name="Elipse 7730" transform="translate(180 10380.595)" fill="#fff" stroke="#ff3c00" stroke-width="5">
      <circle cx="57" cy="57" r="57" stroke="none"/>
      <circle cx="57" cy="57" r="54.5" fill="none"/>
    </g>
    <g id="apreton-de-manos" transform="translate(201.903 10347.57)">
      <g id="Grupo_953170" data-name="Grupo 953170" transform="translate(0 66.227)">
        <g id="Grupo_953169" data-name="Grupo 953169" transform="translate(0 0)">
          <path id="Trazado_636936" data-name="Trazado 636936" d="M69.866,80.6,56.252,66.987a1.121,1.121,0,0,0-1.586,0L47.86,73.794a1.121,1.121,0,0,0,0,1.585l.679.679-1.56,1.56a3.5,3.5,0,0,1-3.911.687,9.682,9.682,0,0,0-8.634.321,7.556,7.556,0,0,0-4.388.234,3.491,3.491,0,0,1-3.7-.778l-2.8-2.8.334-.334a1.121,1.121,0,0,0,0-1.585l-6.807-6.807a1.121,1.121,0,0,0-1.586,0L.329,81.709a1.121,1.121,0,0,0,0,1.585L7.135,90.1a1.121,1.121,0,0,0,1.586,0l.406-.406L11.1,91.671a3.428,3.428,0,0,1,.956,1.8,17.605,17.605,0,0,0,4.877,9.258l.372.372a4.032,4.032,0,0,0,2.927,6.809c.067,0,.134,0,.2-.005a4.032,4.032,0,0,0,4.028,4.237l.09,0a4.033,4.033,0,0,0,6.884,2.941c.064-.064.125-.131.184-.2a3.771,3.771,0,0,0,4.758-2.2l.115.115a3.771,3.771,0,0,0,6.2-1.354,3.769,3.769,0,0,0,5.985-3.05,3.8,3.8,0,0,0-.106-.891,3.77,3.77,0,0,0,2.315-5.874l.9-.9a17.6,17.6,0,0,0,4.9-9.373,3.028,3.028,0,0,1,.856-1.6l3.345-3.345.588.588a1.121,1.121,0,0,0,1.586,0l6.807-6.807a1.121,1.121,0,0,0,0-1.585ZM7.928,87.723,2.707,82.5,16.275,68.933,21.5,74.155ZM21.5,107.145a1.792,1.792,0,1,1,0-2.535A1.8,1.8,0,0,1,21.5,107.145Zm4.229,4.229a1.792,1.792,0,1,1,0-2.535A1.779,1.779,0,0,1,25.731,111.374Zm4.121,4.121a1.792,1.792,0,1,1,0-2.535A1.781,1.781,0,0,1,29.852,115.495Zm19.041-8.606a1.524,1.524,0,0,1-2.158,0L35.859,96.015A1.121,1.121,0,1,0,34.274,97.6l11.715,11.714a1.527,1.527,0,1,1-2.16,2.16L41.853,109.5l-.033-.034-.01-.009-9.085-9.085a1.121,1.121,0,1,0-1.586,1.585l9.114,9.114a1.526,1.526,0,0,1-2.173,2.144L28.2,103.329a1.121,1.121,0,1,0-1.586,1.585l7.326,7.326.006.006a1.527,1.527,0,0,1-1.081,2.605,1.554,1.554,0,0,1-.289-.028,4.032,4.032,0,0,0-3.989-4.632l-.09,0a4.03,4.03,0,0,0-4.031-4.123q-.1,0-.2,0a4.03,4.03,0,0,0-4.937-4.128l-.8-.8a15.371,15.371,0,0,1-4.258-8.083,5.662,5.662,0,0,0-1.574-2.975l-1.976-1.976L21.956,76.866l2.8,2.8A5.716,5.716,0,0,0,28.8,81.321a5.877,5.877,0,0,0,2.008-.354,5.277,5.277,0,0,1,.979-.251l-6.942,6.942a4.5,4.5,0,0,0,6.359,6.359l3.486-3.486.944.944h0l.039.039.038.038h0l.032.031,13.145,13.145a1.527,1.527,0,0,1,0,2.16Zm7.061-16.724a5.258,5.258,0,0,0-1.477,2.794,15.367,15.367,0,0,1-4.276,8.184l-.862.862-7.092-7.092c.154.011.309.019.465.019a5.721,5.721,0,0,0,2.185-.425,1.121,1.121,0,0,0-.849-2.075c-2.885,1.181-6.345-2.073-6.73-2.448l-.019-.019-.04-.04h0l-.035-.035h0l-.944-.944,1.07-1.07a1.121,1.121,0,1,0-1.585-1.586L33.9,88.15l0,0,0,0-4.277,4.277a2.254,2.254,0,1,1-3.188-3.188l7.383-7.383a7.435,7.435,0,0,1,8.323-1.514A5.758,5.758,0,0,0,48.564,79.2l1.561-1.56L59.3,86.82Zm6.311-3.549L50.238,74.587l5.222-5.221L67.488,81.394Z" transform="translate(0 -66.227)" fill="#992400"/>
        </g>
      </g>
      <g id="Grupo_953172" data-name="Grupo 953172" transform="translate(62.274 81.13)">
        <g id="Grupo_953171" data-name="Grupo 953171">
          <circle id="Elipse_7816" data-name="Elipse 7816" cx="1.121" cy="1.121" r="1.121" fill="#992400"/>
        </g>
      </g>
      <g id="Grupo_953174" data-name="Grupo 953174" transform="translate(6.223 82.237)">
        <g id="Grupo_953173" data-name="Grupo 953173">
          <circle id="Elipse_7817" data-name="Elipse 7817" cx="1.121" cy="1.121" r="1.121" fill="#992400"/>
        </g>
      </g>
    </g>
  </g>
</svg>
