<svg xmlns="http://www.w3.org/2000/svg" width="295" height="687.745" viewBox="0 0 295 687.745">
  <g id="Grupo_953138" data-name="Grupo 953138" transform="translate(-98.25 5.797)">
    <g id="Grupo_953141" data-name="Grupo 953141" transform="translate(9.423 11.989)">
      <path id="Trazado_629390" data-name="Trazado 629390" d="M246.755,5231.79,265.4,5321.8c-8.293,8.419-17.09,16.376-31.289,19.377L165.8,5353.185l-16.039-105.809Z" transform="translate(114.532 -5113.117)" fill="#fafafa"/>
      <path id="Trazado_629391" data-name="Trazado 629391" d="M248.672,5228.64l18.647,90.014-31.289,19.376-68.308,12.005-20.164-101.568Z" transform="translate(116.509 -5115.521)" fill="#ffeed9"/>
      <path id="Trazado_629392" data-name="Trazado 629392" d="M166.114,5276.96l12.732,4.8s-4.6,7.494-11.3,11.555a57.1,57.1,0,0,1-19.991,7.822S162.472,5293.722,166.114,5276.96Z" transform="translate(204.982 -5078.63)" fill="#ffd7a6"/>
      <path id="Trazado_629393" data-name="Trazado 629393" d="M196.8,5250.123l-46.683-14.481,2.98-9.829,47.45,13.794Z" transform="translate(178.759 -5117.679)" fill="#ffd7a6"/>
      <path id="Trazado_629394" data-name="Trazado 629394" d="M198.3,5270.272l30.26-38.383,8.106,6.305-29.894,39.347Z" transform="translate(57.688 -5113.042)" fill="#ffd7a6"/>
      <g id="Grupo_934243" data-name="Grupo 934243" transform="translate(281.63 147.806)">
        <path id="Trazado_629395" data-name="Trazado 629395" d="M161.913,5263.351c.035.183,17.275-3.036,38.5-7.189s38.413-7.665,38.378-7.845-17.271,3.039-38.507,7.192S161.878,5263.172,161.913,5263.351Z" transform="translate(-161.913 -5248.309)" fill="#ffd7a6"/>
      </g>
      <g id="Grupo_934244" data-name="Grupo 934244" transform="translate(284.681 161.604)">
        <path id="Trazado_629396" data-name="Trazado 629396" d="M160.183,5271.178c.035.181,17.277-3.039,38.5-7.191s38.413-7.667,38.378-7.844-17.271,3.036-38.507,7.19S160.148,5271,160.183,5271.178Z" transform="translate(-160.183 -5256.135)" fill="#ffd7a6"/>
      </g>
      <g id="Grupo_934245" data-name="Grupo 934245" transform="translate(286.654 173.98)">
        <path id="Trazado_629397" data-name="Trazado 629397" d="M159.064,5278.194c.035.183,17.277-3.039,38.5-7.19s38.413-7.665,38.378-7.845-17.271,3.038-38.5,7.191S159.029,5278.015,159.064,5278.194Z" transform="translate(-159.064 -5263.152)" fill="#ffd7a6"/>
      </g>
      <g id="Grupo_934246" data-name="Grupo 934246" transform="translate(289.051 185.799)">
        <path id="Trazado_629398" data-name="Trazado 629398" d="M157.705,5284.9c.035.181,17.275-3.039,38.5-7.19s38.413-7.665,38.378-7.845-17.271,3.04-38.507,7.192S157.67,5284.717,157.705,5284.9Z" transform="translate(-157.705 -5269.853)" fill="#ffd7a6"/>
      </g>
    </g>
    <g id="Grupo_953139" data-name="Grupo 953139" transform="translate(98.25 128.876)">
      <path id="Trazado_629399" data-name="Trazado 629399" d="M355.213,5229.1l31.228,76.143c10.37,2.1,20.881,3.6,32.924-1.286l56.707-25.289L435,5192.106Z" transform="translate(-343.467 -5191.016)" fill="#fafafa"/>
      <path id="Trazado_629400" data-name="Trazado 629400" d="M357.7,5227.538l31.229,76.142,32.924-1.284,56.707-25.291-35.888-85.477Z" transform="translate(-351.624 -5191.628)" fill="#ffeed9"/>
      <path id="Trazado_629401" data-name="Trazado 629401" d="M389.6,5236.383l-7.046,9.938s7.169,3.261,14.171,2.922a51.193,51.193,0,0,0,18.755-4.206S400.693,5247,389.6,5236.383Z" transform="translate(-345.25 -5134.271)" fill="#ffd7a6"/>
      <path id="Trazado_629402" data-name="Trazado 629402" d="M405.844,5238.356l27.4-34.12-7.133-5.8-28.31,34Z" transform="translate(-397.798 -5182.907)" fill="#ffd7a6"/>
      <path id="Trazado_629403" data-name="Trazado 629403" d="M410,5205.245l-41.676-13.335-2.858,8.74,41.886,14.231Z" transform="translate(-300.801 -5191.27)" fill="#ffd7a6"/>
      <g id="Grupo_934247" data-name="Grupo 934247" transform="translate(28.395 30.982)">
        <path id="Trazado_629404" data-name="Trazado 629404" d="M437.167,5205.212c-.094-.219-14.627,5.725-32.46,13.27s-32.221,13.844-32.127,14.064,14.623-5.722,32.463-13.272S437.258,5205.432,437.167,5205.212Z" transform="translate(-372.579 -5205.207)" fill="#ffd7a6"/>
      </g>
      <g id="Grupo_934248" data-name="Grupo 934248" transform="translate(33.037 42.751)">
        <path id="Trazado_629405" data-name="Trazado 629405" d="M435.132,5210.37c-.091-.22-14.627,5.724-32.46,13.27s-32.219,13.846-32.127,14.063,14.625-5.722,32.463-13.27S435.225,5210.588,435.132,5210.37Z" transform="translate(-370.544 -5210.364)" fill="#ffd7a6"/>
      </g>
      <g id="Grupo_934249" data-name="Grupo 934249" transform="translate(37.77 52.923)">
        <path id="Trazado_629406" data-name="Trazado 629406" d="M433.058,5214.83c-.091-.221-14.627,5.721-32.46,13.269s-32.221,13.846-32.127,14.063,14.625-5.721,32.463-13.271S433.152,5215.049,433.058,5214.83Z" transform="translate(-368.47 -5214.824)" fill="#ffd7a6"/>
      </g>
      <g id="Grupo_934250" data-name="Grupo 934250" transform="translate(41.909 62.893)">
        <path id="Trazado_629407" data-name="Trazado 629407" d="M431.244,5219.2c-.091-.218-14.627,5.727-32.46,13.271s-32.219,13.844-32.127,14.063,14.625-5.723,32.463-13.273S431.337,5219.419,431.244,5219.2Z" transform="translate(-366.656 -5219.193)" fill="#ffd7a6"/>
      </g>
    </g>
    <g id="Grupo_953140" data-name="Grupo 953140" transform="translate(126.933 -5.797)">
      <path id="Trazado_629415" data-name="Trazado 629415" d="M391.84,5220.233l-33.222,101.3c-13.2,3.679-26.643,6.6-42.659,1.422l-75.631-27.369,44.964-115.676Z" transform="translate(-212.33 -5177.078)" fill="#e0e0e0"/>
      <path id="Trazado_629416" data-name="Trazado 629416" d="M388.1,5217.586l-33.222,101.3-42.658,1.421-75.632-27.368,38.369-113.8Z" transform="translate(-201.464 -5177.769)" fill="#ff3c00"/>
      <path id="Trazado_629417" data-name="Trazado 629417" d="M286.675,5246.2l10.033,12.185s-8.956,4.882-18.036,5.1a66.211,66.211,0,0,1-24.623-3.675S273.334,5260.952,286.675,5246.2Z" transform="translate(-143.296 -5117.263)" fill="#ff4f5b"/>
      <path id="Trazado_629418" data-name="Trazado 629418" d="M286.675,5246.2c3.049,6.165,6.127,13.385,10.033,12.185,0,0-8.956,4.882-18.036,5.1a66.211,66.211,0,0,1-24.623-3.675S273.334,5260.952,286.675,5246.2Z" transform="translate(-143.296 -5117.263)" opacity="0.3"/>
      <path id="Trazado_629419" data-name="Trazado 629419" d="M270.378,5236.285l-38.589-41.521,8.673-8.163,39.757,41.271Z" transform="translate(-84.463 -5171.038)" fill="#ffd7a6"/>
      <path id="Trazado_629420" data-name="Trazado 629420" d="M277.686,5199.55l52.6-21.13,4.511,11.023-52.785,22.31Z" transform="translate(-226.346 -5178.42)" fill="#ffd7a6"/>
      <g id="Grupo_934275" data-name="Grupo 934275" transform="translate(73.888 41.584)">
        <path id="Trazado_629421" data-name="Trazado 629421" d="M250.641,5200.282c-.063.19,19.139,6.894,42.885,14.977s43.056,14.484,43.121,14.3-19.135-6.893-42.891-14.977S250.706,5200.1,250.641,5200.282Z" transform="translate(-250.641 -5200.278)" fill="#263238"/>
      </g>
      <g id="Grupo_934276" data-name="Grupo 934276" transform="translate(68.99 57.224)">
        <path id="Trazado_629422" data-name="Trazado 629422" d="M253.217,5208.505c-.065.188,19.139,6.894,42.885,14.975s43.056,14.483,43.119,14.3-19.135-6.891-42.889-14.976S253.28,5208.319,253.217,5208.505Z" transform="translate(-253.217 -5208.501)" fill="#263238"/>
      </g>
      <g id="Grupo_934277" data-name="Grupo 934277" transform="translate(63.827 70.811)">
        <path id="Trazado_629423" data-name="Trazado 629423" d="M255.93,5215.646c-.063.189,19.139,6.9,42.885,14.975s43.056,14.484,43.121,14.3-19.135-6.891-42.889-14.975S255.995,5215.461,255.93,5215.646Z" transform="translate(-255.93 -5215.643)" fill="#263238"/>
      </g>
      <g id="Grupo_934278" data-name="Grupo 934278" transform="translate(59.414 84.081)">
        <path id="Trazado_629424" data-name="Trazado 629424" d="M258.251,5222.624c-.065.188,19.139,6.89,42.885,14.974s43.056,14.484,43.119,14.294S325.12,5245,301.366,5236.92,258.314,5222.434,258.251,5222.624Z" transform="translate(-258.251 -5222.62)" fill="#263238"/>
      </g>
    </g>
    <g id="Grupo_953142" data-name="Grupo 953142" transform="translate(4.074 6.668)">
      <path id="Trazado_629470" data-name="Trazado 629470" d="M329.631,5551.174c-2.9,0,22.19,67.4,28.648,84.623.713,1.905,1.215,3.585,1.215,3.585l-175.655.305,2.072-163.438a3.086,3.086,0,0,1,.022-.321l14.689-116.909a2.876,2.876,0,0,1,2.1-2.421c6.955-1.885,32.018-8.355,51.193-9.064,22.477-.833,54.984,3.625,54.984,3.625s29.167,3.008,45.22,8.8a2.884,2.884,0,0,1,1.883,3.117Z" transform="translate(-24.239 -4964.406)" fill="#ff3c00"/>
      <g id="Grupo_934402" data-name="Grupo 934402" transform="translate(224.266 514.32)">
        <path id="Trazado_629471" data-name="Trazado 629471" d="M212.585,5405.779a11.64,11.64,0,0,0,.88,2.123,20.8,20.8,0,0,0,1.235,2.4,33.493,33.493,0,0,0,1.863,3.051,38.294,38.294,0,0,0,2.565,3.494,49.762,49.762,0,0,0,3.294,3.74,52.613,52.613,0,0,0,18.972,12.422,49.611,49.611,0,0,0,4.743,1.528,38.145,38.145,0,0,0,4.23.954,33.847,33.847,0,0,0,3.542.49,21.039,21.039,0,0,0,2.689.175,11.624,11.624,0,0,0,2.3-.044c.009-.187-3.274-.165-8.416-1.208a40.767,40.767,0,0,1-4.152-1.043c-1.494-.384-3.027-.99-4.653-1.576a54.853,54.853,0,0,1-18.7-12.247c-1.188-1.257-2.354-2.419-3.3-3.636a40.5,40.5,0,0,1-2.615-3.388C214.048,5408.715,212.752,5405.7,212.585,5405.779Z" transform="translate(-212.579 -5405.778)" fill="#263238"/>
      </g>
      <g id="Grupo_934403" data-name="Grupo 934403" transform="translate(176.841 608.45)" opacity="0.2">
        <path id="Trazado_629472" data-name="Trazado 629472" d="M338.939,5497.809c-16.622,7.056-35.779,4.309-50.394-6.3-6.334-4.6-11.649-10.612-18.483-14.426-9.478-5.291-20.779-5.79-31.6-6.564-14.491-1.033-29.1-2.809-42.721-7.856-2.761-1.023-5.583-2.254-7.468-4.518s-2.518-5.828-.677-8.124c1.881-2.346,5.344-2.479,8.353-2.392,45.425,1.343,86.931,4.985,131.148,15.487" transform="translate(-186.49 -5447.609)"/>
      </g>
      <path id="Trazado_629473" data-name="Trazado 629473" d="M350.853,5282.648c-14.039-14.292-36.195-22.731-54.55-14.7-12.342,5.4-20.713,16.98-31.544,24.989-7.889,5.832-17.637,10.339-21.771,19.234-3.643,7.844-1.886,16.974-1.006,25.577s.263,18.528-6.4,24.041c-3.5,2.9-8.1,4.038-12.041,6.3-7.932,4.542-12.644,13.387-14.343,22.371s-.783,18.229.139,27.325l37.808,7.2,6.211-10.446,2.165,16.422,48.251,4.353Z" transform="translate(-70.519 -5067.668)" fill="#263238"/>
      <g id="Grupo_934470" data-name="Grupo 934470" transform="translate(189.079 226.268)">
        <g id="Grupo_934469" data-name="Grupo 934469">
          <g id="Grupo_934468" data-name="Grupo 934468">
            <g id="Grupo_934457" data-name="Grupo 934457">
              <g id="Grupo_934456" data-name="Grupo 934456">
                <g id="Grupo_934455" data-name="Grupo 934455">
                  <g id="Grupo_934408" data-name="Grupo 934408">
                    <g id="Grupo_934407" data-name="Grupo 934407">
                      <g id="Grupo_934406" data-name="Grupo 934406">
                        <g id="Grupo_934405" data-name="Grupo 934405">
                          <g id="Grupo_934404" data-name="Grupo 934404">
                            <path id="Trazado_629474" data-name="Trazado 629474" d="M301.607,5282.086l.081,10.518,2.975,157.7c.259,18.28-17.23,33.845-36.8,33.972h0c-19.77.131-27.835-14.723-28.4-33.186-.594-19.375-1.575-39.765-1.575-39.765s-25.079-3.456-31.15-35.888c-3.018-16.127-2.937-42.707-2.167-64.456a34.405,34.405,0,0,1,37.052-33.112Z" transform="translate(-204.115 -5277.768)" fill="#ffbf9d"/>
                          </g>
                        </g>
                      </g>
                    </g>
                  </g>
                  <g id="Grupo_934420" data-name="Grupo 934420" transform="translate(6.521 42.257)">
                    <g id="Grupo_934413" data-name="Grupo 934413" transform="translate(2.522 8.022)">
                      <g id="Grupo_934412" data-name="Grupo 934412">
                        <g id="Grupo_934411" data-name="Grupo 934411">
                          <g id="Grupo_934410" data-name="Grupo 934410">
                            <g id="Grupo_934409" data-name="Grupo 934409">
                              <path id="Trazado_629475" data-name="Trazado 629475" d="M241.072,5304a4.18,4.18,0,0,0,4.145,4.1,4,4,0,0,0,4.2-3.885,4.179,4.179,0,0,0-4.14-4.105A4,4,0,0,0,241.072,5304Z" transform="translate(-241.072 -5300.113)" fill="#263238"/>
                            </g>
                          </g>
                        </g>
                      </g>
                    </g>
                    <g id="Grupo_934419" data-name="Grupo 934419">
                      <g id="Grupo_934418" data-name="Grupo 934418">
                        <g id="Grupo_934417" data-name="Grupo 934417">
                          <g id="Grupo_934416" data-name="Grupo 934416">
                            <g id="Grupo_934415" data-name="Grupo 934415">
                              <g id="Grupo_934414" data-name="Grupo 934414">
                                <path id="Trazado_629476" data-name="Trazado 629476" d="M238.607,5301.167c.533.53,3.634-1.9,8.13-2.01,4.487-.177,7.851,2.042,8.324,1.48.232-.25-.322-1.22-1.787-2.225a11.462,11.462,0,0,0-6.683-1.859,11.013,11.013,0,0,0-6.451,2.28C238.787,5299.93,238.346,5300.929,238.607,5301.167Z" transform="translate(-238.535 -5296.546)" fill="#263238"/>
                              </g>
                            </g>
                          </g>
                        </g>
                      </g>
                    </g>
                  </g>
                  <g id="Grupo_934432" data-name="Grupo 934432" transform="translate(50.73 41.876)">
                    <g id="Grupo_934425" data-name="Grupo 934425" transform="translate(2.593 8.402)">
                      <g id="Grupo_934424" data-name="Grupo 934424">
                        <g id="Grupo_934423" data-name="Grupo 934423">
                          <g id="Grupo_934422" data-name="Grupo 934422">
                            <g id="Grupo_934421" data-name="Grupo 934421">
                              <path id="Trazado_629477" data-name="Trazado 629477" d="M221.394,5304a4.179,4.179,0,0,0,4.143,4.1,4,4,0,0,0,4.2-3.885,4.179,4.179,0,0,0-4.14-4.105A4,4,0,0,0,221.394,5304Z" transform="translate(-221.394 -5300.113)" fill="#263238"/>
                            </g>
                          </g>
                        </g>
                      </g>
                    </g>
                    <g id="Grupo_934431" data-name="Grupo 934431">
                      <g id="Grupo_934430" data-name="Grupo 934430">
                        <g id="Grupo_934429" data-name="Grupo 934429">
                          <g id="Grupo_934428" data-name="Grupo 934428">
                            <g id="Grupo_934427" data-name="Grupo 934427">
                              <g id="Grupo_934426" data-name="Grupo 934426">
                                <path id="Trazado_629478" data-name="Trazado 629478" d="M218.959,5301c.536.529,3.639-1.9,8.13-2.011,4.489-.178,7.851,2.044,8.326,1.48.23-.25-.32-1.218-1.789-2.225a11.463,11.463,0,0,0-6.681-1.86,11.05,11.05,0,0,0-6.454,2.28C219.143,5299.764,218.7,5300.762,218.959,5301Z" transform="translate(-218.889 -5296.377)" fill="#263238"/>
                              </g>
                            </g>
                          </g>
                        </g>
                      </g>
                    </g>
                  </g>
                  <g id="Grupo_934438" data-name="Grupo 934438" transform="translate(23.863 42.771)">
                    <g id="Grupo_934437" data-name="Grupo 934437">
                      <g id="Grupo_934436" data-name="Grupo 934436">
                        <g id="Grupo_934435" data-name="Grupo 934435">
                          <g id="Grupo_934434" data-name="Grupo 934434">
                            <g id="Grupo_934433" data-name="Grupo 934433">
                              <path id="Trazado_629479" data-name="Trazado 629479" d="M244.13,5334.287c.016-.255-2.792-.662-7.336-1.115-1.152-.086-2.243-.287-2.459-1.062-.293-.825.153-2.072.673-3.425l3.153-8.832c4.372-12.576,7.5-22.9,6.994-23.074s-4.464,9.88-8.834,22.455q-1.573,4.651-3.009,8.885c-.4,1.316-1.1,2.814-.472,4.52a2.885,2.885,0,0,0,1.935,1.626,7.807,7.807,0,0,0,1.955.217C241.293,5334.6,244.121,5334.543,244.13,5334.287Z" transform="translate(-232.586 -5296.776)" fill="#263238"/>
                            </g>
                          </g>
                        </g>
                      </g>
                    </g>
                  </g>
                  <g id="Grupo_934443" data-name="Grupo 934443" transform="translate(33.768 120.721)">
                    <g id="Grupo_934442" data-name="Grupo 934442">
                      <g id="Grupo_934441" data-name="Grupo 934441">
                        <g id="Grupo_934440" data-name="Grupo 934440">
                          <g id="Grupo_934439" data-name="Grupo 934439">
                            <path id="Trazado_629480" data-name="Trazado 629480" d="M214.55,5344.258a82.909,82.909,0,0,0,43.3-12.841s-9.966,22.665-42.648,20.52Z" transform="translate(-214.55 -5331.417)" fill="#ff9a6c"/>
                          </g>
                        </g>
                      </g>
                    </g>
                  </g>
                  <g id="Grupo_934448" data-name="Grupo 934448" transform="translate(37.183 87.828)">
                    <g id="Grupo_934447" data-name="Grupo 934447">
                      <g id="Grupo_934446" data-name="Grupo 934446">
                        <g id="Grupo_934445" data-name="Grupo 934445">
                          <g id="Grupo_934444" data-name="Grupo 934444">
                            <path id="Trazado_629481" data-name="Trazado 629481" d="M226.517,5320.034a8.1,8.1,0,0,1,7.178-3.209,7.4,7.4,0,0,1,5.182,2.6,4.689,4.689,0,0,1,.5,5.348c-1.166,1.737-3.69,2.2-5.853,1.652a17.042,17.042,0,0,1-5.839-3.27,4.991,4.991,0,0,1-1.321-1.3,1.5,1.5,0,0,1-.038-1.67" transform="translate(-226.093 -5316.799)" fill="#ff9a6c"/>
                          </g>
                        </g>
                      </g>
                    </g>
                  </g>
                  <g id="Grupo_934454" data-name="Grupo 934454" transform="translate(34.723 83.027)">
                    <g id="Grupo_934453" data-name="Grupo 934453" transform="translate(0)">
                      <g id="Grupo_934452" data-name="Grupo 934452">
                        <g id="Grupo_934451" data-name="Grupo 934451">
                          <g id="Grupo_934450" data-name="Grupo 934450">
                            <g id="Grupo_934449" data-name="Grupo 934449">
                              <path id="Trazado_629482" data-name="Trazado 629482" d="M240.791,5314.666c-.731-.023-.605,4.858-4.687,8.434-4.073,3.591-9.289,3.186-9.309,3.869-.059.307,1.186.916,3.382.916a12.166,12.166,0,0,0,7.777-2.953,10.575,10.575,0,0,0,3.618-7.065C241.7,5315.822,241.124,5314.627,240.791,5314.666Z" transform="translate(-226.793 -5314.665)" fill="#263238"/>
                            </g>
                          </g>
                        </g>
                      </g>
                    </g>
                  </g>
                </g>
              </g>
            </g>
            <g id="Grupo_934462" data-name="Grupo 934462" transform="translate(49.346 29.806)">
              <g id="Grupo_934461" data-name="Grupo 934461" transform="translate(0)">
                <g id="Grupo_934460" data-name="Grupo 934460">
                  <g id="Grupo_934459" data-name="Grupo 934459">
                    <g id="Grupo_934458" data-name="Grupo 934458">
                      <path id="Trazado_629483" data-name="Trazado 629483" d="M217.745,5294.628c.477,1.213,4.948.508,10.241,1,5.3.384,9.595,1.812,10.266.7.3-.535-.475-1.666-2.228-2.8a17.907,17.907,0,0,0-15.623-1.288C218.486,5293.067,217.538,5294.055,217.745,5294.628Z" transform="translate(-217.717 -5291.014)" fill="#263238"/>
                    </g>
                  </g>
                </g>
              </g>
            </g>
            <g id="Grupo_934467" data-name="Grupo 934467" transform="translate(6.274 32.871)">
              <g id="Grupo_934466" data-name="Grupo 934466">
                <g id="Grupo_934465" data-name="Grupo 934465">
                  <g id="Grupo_934464" data-name="Grupo 934464">
                    <g id="Grupo_934463" data-name="Grupo 934463">
                      <path id="Trazado_629484" data-name="Trazado 629484" d="M237.827,5297.3c.992.995,4.732-.169,9.262-.344,4.525-.306,8.389.454,9.244-.637.371-.528-.261-1.536-1.964-2.455a14.914,14.914,0,0,0-7.576-1.464,14.65,14.65,0,0,0-7.333,2.253C237.887,5295.748,237.388,5296.814,237.827,5297.3Z" transform="translate(-237.674 -5292.376)" fill="#263238"/>
                    </g>
                  </g>
                </g>
              </g>
            </g>
          </g>
        </g>
      </g>
      <path id="Trazado_629485" data-name="Trazado 629485" d="M207.243,5351.671s52.39,12.293,62.549,61.974c4.669,22.829,11.211,153.906-19.325,174.271-39.413,26.281-89.511,2.364-89.511,2.364l6.433-63.4h32.529l4.39-69.458C203.085,5462.746,207.243,5351.671,207.243,5351.671Z" transform="translate(112.944 -4959.104)" fill="#ff3c00"/>
      <path id="Trazado_629486" data-name="Trazado 629486" d="M290.712,5569.8a40.511,40.511,0,0,1-36.341-42.056l21.4-90.938s13.877-78.042,57.756-85.077l-14.951,118.976,1.427,25.07s-.68,16.589-2.367,47.665Z" transform="translate(-156.899 -4959.027)" fill="#ff3c00"/>
      <g id="Grupo_934471" data-name="Grupo 934471" transform="translate(128.136 553.655)">
        <path id="Trazado_629487" data-name="Trazado 629487" d="M260.748,5423.474a56.182,56.182,0,0,1,7.9.868,32.09,32.09,0,0,1,25.173,25.7,55.685,55.685,0,0,1,.7,7.913,8.72,8.72,0,0,0,.25-2.142,28.672,28.672,0,0,0-.362-5.877,31.553,31.553,0,0,0-25.648-26.182,28.362,28.362,0,0,0-5.869-.482A8.941,8.941,0,0,0,260.748,5423.474Z" transform="translate(-260.748 -5423.258)" fill="#263238"/>
      </g>
      <path id="Trazado_629488" data-name="Trazado 629488" d="M185.6,5272.4c-5.9,7.92-8.7,14.005-12.239,28.089-1.733,6.9,3.877,11.772,9.446,15.983a4.493,4.493,0,0,0,7.1-2.6h0s-1.935,21.583,5.869,31.263c3.659,4.536,3.814,10.354,2.946,15.258a25.844,25.844,0,0,1-6.971,13.2c-9.048,9.516-11.562,25.034-5.319,36.7,1.6,2.987,3.686,5.721,4.962,8.86a13.418,13.418,0,0,1,1.04,5.73,4.536,4.536,0,0,0,3.848,4.818,356.28,356.28,0,0,0,80.967,2.435,4.44,4.44,0,0,0,3.965-3.356c2.113-8.944-1.411-18.7-5.932-26.934-5.047-9.195-11.476-18.021-13.213-28.369-1.634-9.737,1.024-20.237-2.889-29.3-4.8-11.128-17.851-16.39-24.386-26.6-6.163-9.629-5.668-22.256-11.19-32.268-7.09-12.853-24.548-18.789-38-12.918" transform="translate(77.705 -5061.052)" fill="#263238"/>
      <path id="Trazado_629489" data-name="Trazado 629489" d="M284.043,5283.545c-10.245,5.266-14.978,17.8-24.93,23.6-9.066,5.284-20.376,3.89-30.752,2.332q.581-3.453,1.157-6.9a18.6,18.6,0,0,1-3.846,5.588,6.319,6.319,0,0,1-6.305,1.494c-3.481-1.4-3.942-6.191-3.049-9.836a33.764,33.764,0,0,1,9.057-15.34,45.934,45.934,0,0,1,59.923-4.791" transform="translate(-22.24 -5060.244)" fill="#263238"/>
      <g id="Grupo_934472" data-name="Grupo 934472" transform="translate(159.471 455.201)">
        <path id="Trazado_629490" data-name="Trazado 629490" d="M265.379,5379.505a7.442,7.442,0,0,0-.1,1.281c-.027.92-.065,2.139-.112,3.668-.063,3.188-.223,7.8-.466,13.491-.468,11.389-1.53,27.1-2.815,44.447s-2.252,33.084-2.568,44.493c-.167,5.7-.234,10.318-.2,13.505l.047,3.673a7.464,7.464,0,0,0,.072,1.281,7,7,0,0,0,.1-1.281q.04-1.375.11-3.668c.063-3.186.225-7.8.468-13.49.466-11.387,1.53-27.1,2.815-44.453s2.252-33.08,2.567-44.485c.164-5.7.234-10.319.2-13.507-.02-1.534-.036-2.754-.047-3.674A7.267,7.267,0,0,0,265.379,5379.505Z" transform="translate(-259.115 -5379.505)" fill="#263238"/>
      </g>
      <g id="Grupo_934473" data-name="Grupo 934473" transform="translate(312.809 478.038)">
        <path id="Trazado_629491" data-name="Trazado 629491" d="M191.252,5479.392a3.655,3.655,0,0,0,.117-.908c.045-.7.1-1.559.169-2.617.135-2.392.315-5.648.538-9.619.461-8.123,1.175-19.338,2.021-31.724.857-12.334,1.634-23.5,2.205-31.717.261-3.973.475-7.228.632-9.619.054-1.056.1-1.922.135-2.617a3.733,3.733,0,0,0-.009-.917,3.679,3.679,0,0,0-.162.9c-.077.689-.173,1.55-.293,2.6-.223,2.387-.529,5.635-.9,9.6-.713,8.106-1.609,19.314-2.455,31.708s-1.465,23.616-1.773,31.752c-.146,4.064-.252,7.358-.268,9.633,0,1.063-.009,1.929-.011,2.625A3.7,3.7,0,0,0,191.252,5479.392Z" transform="translate(-191.198 -5389.655)" fill="#263238"/>
      </g>
      <g id="Grupo_934474" data-name="Grupo 934474" transform="translate(312.863 567.711)">
        <path id="Trazado_629492" data-name="Trazado 629492" d="M185.878,5429.569c-.016.154,1.7.228,4.264,1.094A18.955,18.955,0,0,1,203,5445.915c.419,2.673.2,4.376.356,4.386a3.032,3.032,0,0,0,.252-1.179,15.708,15.708,0,0,0-.011-3.285,18.267,18.267,0,0,0-13.272-15.746,15.34,15.34,0,0,0-3.236-.568A3.027,3.027,0,0,0,185.878,5429.569Z" transform="translate(-185.878 -5429.504)" fill="#263238"/>
      </g>
      <g id="Grupo_934475" data-name="Grupo 934475" transform="translate(273.883 567.366)">
        <path id="Trazado_629493" data-name="Trazado 629493" d="M192.113,5493.163a4.489,4.489,0,0,0,.189-1c.1-.752.22-1.709.374-2.9l1.215-10.652c.956-9.1,2.259-21.493,3.7-35.184.477-4.756.938-9.358,1.366-13.627l-.4.366c10.443-.06,19.489-.112,26.053-.151l7.565-.117,2.021-.068a2.552,2.552,0,0,0,.7-.072,2.792,2.792,0,0,0-.7-.07l-2.021-.066c-1.872-.031-4.419-.07-7.565-.121l-26.053-.15-.369,0-.038.37c-.439,4.269-.911,8.867-1.4,13.623-1.341,13.7-2.554,26.1-3.447,35.209-.391,4.43-.713,8.05-.947,10.684-.088,1.188-.16,2.153-.216,2.905A4.747,4.747,0,0,0,192.113,5493.163Z" transform="translate(-192.096 -5429.352)" fill="#263238"/>
      </g>
      <g id="Grupo_934476" data-name="Grupo 934476" transform="translate(273.9 597.391)">
        <path id="Trazado_629494" data-name="Trazado 629494" d="M164.094,5476.481a7.485,7.485,0,0,0,1.231.455l3.576,1.141c3.112.965,7.624,2.341,13.258,3.845a166.676,166.676,0,0,0,20.065,4.165,69.314,69.314,0,0,0,25.031-1.185,106.1,106.1,0,0,0,12.531-3.53c1.982-.708,3.918-1.434,5.785-2.211.932-.394,1.861-.757,2.75-1.237l1.337-.675,1.24-.8a30.473,30.473,0,0,0,7.858-7.7,53.723,53.723,0,0,0,4.84-8.26,97.245,97.245,0,0,0,4.926-12.911c.475-1.56.833-2.774,1.051-3.6a7.411,7.411,0,0,0,.3-1.276,7.561,7.561,0,0,0-.464,1.225c-.3.885-.7,2.07-1.2,3.552a109.287,109.287,0,0,1-5.151,12.752,54.365,54.365,0,0,1-4.867,8.1,30.128,30.128,0,0,1-7.716,7.465l-1.206.77-1.294.645c-.851.455-1.784.813-2.709,1.2-1.859.764-3.78,1.48-5.749,2.175a107.5,107.5,0,0,1-12.437,3.487,69.646,69.646,0,0,1-24.75,1.241,175.922,175.922,0,0,1-20.018-3.975c-5.641-1.425-10.175-2.713-13.317-3.579q-2.268-.617-3.618-.989A7.894,7.894,0,0,0,164.094,5476.481Z" transform="translate(-164.094 -5442.695)" fill="#263238"/>
      </g>
      <path id="Trazado_629495" data-name="Trazado 629495" d="M183.016,5304.354c-3.348-7.555-1.195-17.057,4.761-22.783s15.209-7.558,23.067-5a17.779,17.779,0,0,1,9,6.158c3.994,5.518,3.218,13.631-.914,19.045s-11.008,8.279-17.811,8.658-13.549-1.489-19.838-4.106" transform="translate(118.531 -5054.407)" fill="#263238"/>
      <g id="Grupo_934484" data-name="Grupo 934484" transform="translate(165.736 493.082)">
        <g id="Grupo_934479" data-name="Grupo 934479" transform="translate(28.415)">
          <path id="Trazado_629496" data-name="Trazado 629496" d="M275.141,5409.058c-11.4,9.4-38.209,31.652-38.209,31.652l-15.014-2.671,45.484-38.265a6.048,6.048,0,0,1,8.265.458h0A6.042,6.042,0,0,1,275.141,5409.058Z" transform="translate(-221.919 -5393.817)" fill="#455a64"/>
          <path id="Trazado_629497" data-name="Trazado 629497" d="M222.969,5406.7l5.9-5.329a2.888,2.888,0,0,0,.272-4h0a2.888,2.888,0,0,0-4.154-.267l-5.68,5.206Z" transform="translate(-168.542 -5396.339)" fill="#455a64"/>
          <g id="Grupo_934477" data-name="Grupo 934477" transform="translate(36.84 13.211)">
            <path id="Trazado_629498" data-name="Trazado 629498" d="M226.65,5402.22c-.169.16,1.469,2.167,3.659,4.48s4.107,4.063,4.275,3.9-1.467-2.167-3.659-4.483S226.821,5402.058,226.65,5402.22Z" transform="translate(-226.638 -5402.21)" fill="#263238"/>
          </g>
          <g id="Grupo_934478" data-name="Grupo 934478" transform="translate(36.393 5.394)">
            <path id="Trazado_629499" data-name="Trazado 629499" d="M221.384,5425.3a28.889,28.889,0,0,0,4.539-2.965c2.716-1.957,6.379-4.793,10.232-8.149,1.91-1.653,3.846-3.351,4.791-5.514a7.9,7.9,0,0,0,.153-5.985,7.508,7.508,0,0,0-2.41-3.237,3.006,3.006,0,0,0-1.294-.7,13.87,13.87,0,0,0,1.08.956,7.877,7.877,0,0,1,2.059,3.192,7.448,7.448,0,0,1-.3,5.458c-.88,1.931-2.712,3.535-4.633,5.2-3.837,3.343-7.421,6.237-10.036,8.313A41.8,41.8,0,0,0,221.384,5425.3Z" transform="translate(-221.382 -5398.737)" fill="#263238"/>
          </g>
        </g>
        <g id="Grupo_934483" data-name="Grupo 934483" transform="translate(0 43.671)">
          <path id="Trazado_629500" data-name="Trazado 629500" d="M317.763,5451.849c-10.8-3.631-22.282-1.185-33.083-4.815-3.623-1.217-7.351-2.493-10.209-5.031-3.429-3.049-5.176-7.528-7.912-11.214-8.177-11.011-23.454-13.293-37.1-14.691-3.186-.327-6.449-.646-9.552.136s-6.071,2.909-6.944,5.992,1.118,6.926,4.3,7.246c-2.988.13-5.081,3.167-5.63,6.109s-.063,5.987-.457,8.952c-.556,4.169-2.835,8.068-2.7,12.273.18,5.746,4.946,10.484,10.259,12.7s11.188,2.5,16.886,3.3c27.973,3.938,49.251,19.821,76.219,31.819" transform="translate(-203.68 -5415.746)" fill="#ffbf9d"/>
          <path id="Trazado_629501" data-name="Trazado 629501" d="M258.309,5436.8c-.923,1.921-3.76,2.352-5.511,1.135a5.9,5.9,0,0,1-2.113-5.693,13.244,13.244,0,0,1,2.7-5.73,74.416,74.416,0,0,1,7.826-8.646l8.668,7.258Z" transform="translate(-250.612 -5413.102)" fill="#ffbf9d"/>
          <g id="Grupo_934480" data-name="Grupo 934480" transform="translate(10.89 13.715)">
            <path id="Trazado_629502" data-name="Trazado 629502" d="M244.043,5422.351c.016.265,5.308-.167,11.717.823,6.42.945,11.348,2.922,11.44,2.673a11.3,11.3,0,0,0-3.162-1.458,43.507,43.507,0,0,0-16.544-2.5A11.331,11.331,0,0,0,244.043,5422.351Z" transform="translate(-244.043 -5421.842)" fill="#ff9a6c"/>
          </g>
          <g id="Grupo_934481" data-name="Grupo 934481" transform="translate(7.073 29.842)">
            <path id="Trazado_629503" data-name="Trazado 629503" d="M247.207,5430.36c.052.257,4.458-.647,9.944-.49,5.493.117,9.847,1.237,9.91.984.077-.193-4.269-1.711-9.887-1.833C251.557,5428.867,247.142,5430.165,247.207,5430.36Z" transform="translate(-247.207 -5429.009)" fill="#ff9a6c"/>
          </g>
          <g id="Grupo_934482" data-name="Grupo 934482" transform="translate(7.621 5.266)">
            <path id="Trazado_629504" data-name="Trazado 629504" d="M254.119,5439c.137-.014,0-1.274.239-3.263a16.76,16.76,0,0,1,3.735-8.745l.245-.3-.27-.266a7.838,7.838,0,0,1-2.253-5.732c.041-1.621.486-2.549.362-2.6a4.3,4.3,0,0,0-.911,2.565,7.913,7.913,0,0,0,2.216,6.365l-.027-.572a16.337,16.337,0,0,0-1.186,1.587,15.6,15.6,0,0,0-2.511,7.648A7.273,7.273,0,0,0,254.119,5439Z" transform="translate(-253.746 -5418.087)" fill="#ff9a6c"/>
          </g>
        </g>
      </g>
      <path id="Trazado_629505" data-name="Trazado 629505" d="M271.759,5425.864,257.544,5439.2l-1.816,7.918,13.144-2.961C270.753,5437.465,272.144,5431.092,271.759,5425.864Z" transform="translate(-98.335 -4866.345)" fill="#455a64"/>
      <path id="Trazado_629506" data-name="Trazado 629506" d="M311.133,5435.44c.29.523,76.683,38.186,76.683,38.186v8.1l-77.957-40.553-96.73-3.65v-5.734Z" transform="translate(-118.47 -4858.936)" fill="#f5f5f5"/>
      <path id="Trazado_629507" data-name="Trazado 629507" d="M387.816,5479.706c-.533-.364-84.345-7.919-84.345-7.919l-90.342-37.448,96.73,3.651,77.957,40.551Z" transform="translate(-118.47 -4855.749)" fill="#263238"/>
      <g id="Grupo_934488" data-name="Grupo 934488" transform="translate(116.96 584.416)">
        <path id="Trazado_629508" data-name="Trazado 629508" d="M320.9,5456.41c.677-4.392-3.526-8.152-7.811-9.324s-8.866-.708-13.2-1.694a60.074,60.074,0,0,1-8.051-2.869c-13.36-5.129-28.018-5.392-42.327-5.595a9.089,9.089,0,0,0,3.245,11.1,14.959,14.959,0,0,0,.443,10.73,33.466,33.466,0,0,0,5.97,9.169c2.012,2.357,4.226,4.668,7.061,5.918,2.817,1.244,5.986,1.329,9.064,1.393,9.6.2,19.894.209,27.833-5.185,6.17-4.2,10.452-11.391,17.6-13.518l-1.694.067" transform="translate(-248.759 -5436.929)" fill="#ffbf9d"/>
        <g id="Grupo_934485" data-name="Grupo 934485" transform="translate(8.11 6.336)">
          <path id="Trazado_629509" data-name="Trazado 629509" d="M259.358,5447.564a7.647,7.647,0,0,0,1.838.174c1.366.042,3.04.1,5.011.163,4.233.1,10.081.171,16.539.2l9.113,0a12.517,12.517,0,0,0,4.028-.614,6.2,6.2,0,0,0,2.912-2.123,3.868,3.868,0,0,0,.761-2.888,3.651,3.651,0,0,0-1.01-2,2.033,2.033,0,0,0-1.719-.712,3.7,3.7,0,0,1,1.478.94,3.341,3.341,0,0,1,.009,4.3,5.66,5.66,0,0,1-2.662,1.817,12.187,12.187,0,0,1-3.807.5c-2.819-.022-5.882-.042-9.1-.068-6.458-.035-12.306-.016-16.539.042l-5.013.108A7.854,7.854,0,0,0,259.358,5447.564Z" transform="translate(-259.358 -5439.744)" fill="#ff9a6c"/>
        </g>
        <g id="Grupo_934486" data-name="Grupo 934486" transform="translate(13.034 18.563)">
          <path id="Trazado_629510" data-name="Trazado 629510" d="M248.742,5448.814a12.133,12.133,0,0,0,2.306.454c1.494.229,3.661.537,6.357.8a61.96,61.96,0,0,0,9.523.225,70.015,70.015,0,0,0,11.5-1.934,89.562,89.562,0,0,1,20.808-2.553c2.689-.013,4.867.093,6.373.176a13.657,13.657,0,0,0,2.347.07,11.25,11.25,0,0,0-2.318-.4c-1.5-.184-3.686-.384-6.4-.448a81.077,81.077,0,0,0-21,2.326,75.1,75.1,0,0,1-11.366,1.982,68.029,68.029,0,0,1-9.424-.045c-2.687-.183-4.86-.4-6.364-.529A12.7,12.7,0,0,0,248.742,5448.814Z" transform="translate(-248.742 -5445.178)" fill="#ff9a6c"/>
        </g>
        <g id="Grupo_934487" data-name="Grupo 934487" transform="translate(21.011 23.108)">
          <path id="Trazado_629511" data-name="Trazado 629511" d="M251.574,5454.893a7.726,7.726,0,0,0,1.8.336c1.163.153,2.849.36,4.944.54a59.677,59.677,0,0,0,16.422-.532c6.431-1.227,11.433-4.5,15.268-6.029a39.071,39.071,0,0,1,6.433-1.978,5.682,5.682,0,0,0-1.832.1,23.314,23.314,0,0,0-4.824,1.322c-3.981,1.427-8.963,4.572-15.212,5.754a67.269,67.269,0,0,1-16.215.767q-2.923-.163-4.955-.273A7.6,7.6,0,0,0,251.574,5454.893Z" transform="translate(-251.574 -5447.198)" fill="#ff9a6c"/>
        </g>
      </g>
      <g id="Grupo_934489" data-name="Grupo 934489" transform="translate(121.702 539.976)" opacity="0.2">
        <path id="Trazado_629512" data-name="Trazado 629512" d="M299.819,5448.691c-.808-5.927-2.088-11.866-4.761-17.22s-6.856-10.112-12.3-12.583-12.216-2.374-17.122,1.05a8.879,8.879,0,0,0-3.414,4.072,5,5,0,0,0,.821,5.064c1.8,1.909,4.84,1.607,7.464,1.491a31.42,31.42,0,0,1,29.046,17.5" transform="translate(-261.883 -5417.18)"/>
      </g>
      <g id="Grupo_934490" data-name="Grupo 934490" transform="translate(297.134 491.234)" opacity="0.2">
        <path id="Trazado_629513" data-name="Trazado 629513" d="M195.407,5470.814c-6.472-11.674-4.179-26.319.79-38.712s12.387-23.786,16.179-36.583a225.906,225.906,0,0,1-11.157,76.509" transform="translate(-191.436 -5395.519)"/>
      </g>
      <path id="Trazado_629514" data-name="Trazado 629514" d="M281.007,5352.836s-7.9,18.625-36.4,17.442-29.426-23.3-29.426-23.3l-19.068,20.275,18.114,37.339,24.334,18.164,33.152-13.625,27.313-21.191Z" transform="translate(8.625 -4964.974)" fill="#ff3c00"/>
      <g id="Grupo_934491" data-name="Grupo 934491" transform="translate(356.37 467.431)" opacity="0.5">
        <path id="Trazado_629515" data-name="Trazado 629515" d="M166.583,5384.973c-.295.365,3.434,3.844,8.326,7.769s9.1,6.811,9.392,6.447-3.436-3.843-8.33-7.771S166.876,5384.605,166.583,5384.973Z" transform="translate(-166.567 -5384.941)" fill="#fafafa"/>
      </g>
      <g id="Grupo_934492" data-name="Grupo 934492" transform="translate(343.028 436.744)">
        <path id="Trazado_629516" data-name="Trazado 629516" d="M172.708,5381.933c.146.423,4.647-.848,9.516-3.851,4.885-2.983,8.054-6.425,7.743-6.747-.326-.363-3.9,2.417-8.63,5.3C176.626,5379.543,172.531,5381.476,172.708,5381.933Z" transform="translate(-172.703 -5371.302)" fill="#fafafa"/>
      </g>
      <g id="Grupo_934493" data-name="Grupo 934493" transform="translate(318.519 449.541)">
        <path id="Trazado_629517" data-name="Trazado 629517" d="M184.629,5377c-.385.3,3.216,5.531,7.313,12.176,4.12,6.638,7.2,12.193,7.635,11.981.41-.19-2.018-6.149-6.19-12.874C189.233,5381.552,184.983,5376.721,184.629,5377Z" transform="translate(-184.601 -5376.991)" fill="#fafafa"/>
      </g>
      <g id="Grupo_934494" data-name="Grupo 934494" transform="translate(339.436 485.932)">
        <path id="Trazado_629518" data-name="Trazado 629518" d="M176.749,5413.393c.333.3,4.1-3.537,7.385-9.235,3.317-5.685,4.779-10.85,4.356-10.991-.459-.174-2.59,4.6-5.824,10.14C179.463,5408.857,176.371,5413.08,176.749,5413.393Z" transform="translate(-176.717 -5393.163)" fill="#fafafa"/>
      </g>
      <g id="Grupo_934495" data-name="Grupo 934495" transform="translate(361.076 514.809)">
        <path id="Trazado_629519" data-name="Trazado 629519" d="M171.257,5424.747c.464.06,1.413-4.085,2.117-9.26s.9-9.429.434-9.489-1.411,4.082-2.115,9.257S170.794,5424.682,171.257,5424.747Z" transform="translate(-171.006 -5405.997)" fill="#fafafa"/>
      </g>
      <g id="Grupo_934496" data-name="Grupo 934496" transform="translate(329.872 522.361)" opacity="0.5">
        <path id="Trazado_629520" data-name="Trazado 629520" d="M192.248,5428.012c.405-.237-1.688-4.6-4.676-9.751s-5.738-9.137-6.143-8.9,1.688,4.6,4.676,9.75S191.843,5428.246,192.248,5428.012Z" transform="translate(-181.379 -5409.352)" fill="#fafafa"/>
      </g>
      <g id="Grupo_934497" data-name="Grupo 934497" transform="translate(364.628 550.943)">
        <path id="Trazado_629521" data-name="Trazado 629521" d="M165.159,5440.494c.338.3,3.972-3.257,7.5-8.412s5.554-9.815,5.148-10.021c-.425-.226-3.072,4.011-6.548,9.063C167.8,5436.184,164.795,5440.178,165.159,5440.494Z" transform="translate(-165.129 -5422.053)" fill="#fafafa"/>
      </g>
      <g id="Grupo_934498" data-name="Grupo 934498" transform="translate(332.14 564.684)">
        <path id="Trazado_629522" data-name="Trazado 629522" d="M177.266,5428.179c-.333.333,3.407,4.646,8.351,9.637s9.226,8.768,9.559,8.439-3.407-4.645-8.353-9.635S177.6,5427.851,177.266,5428.179Z" transform="translate(-177.246 -5428.159)" fill="#fafafa"/>
      </g>
      <g id="Grupo_934499" data-name="Grupo 934499" transform="translate(350.605 606.54)" opacity="0.5">
        <path id="Trazado_629523" data-name="Trazado 629523" d="M171.805,5463.465c.308.325,3.913-2.684,7.2-7.4,3.31-4.7,4.908-9.12,4.5-9.295-.441-.211-2.673,3.762-5.887,8.322C174.431,5459.665,171.459,5463.119,171.805,5463.465Z" transform="translate(-171.778 -5446.761)" fill="#fafafa"/>
      </g>
      <g id="Grupo_934500" data-name="Grupo 934500" transform="translate(308.688 611.343)">
        <path id="Trazado_629524" data-name="Trazado 629524" d="M187.323,5448.946c-.232.409,3.774,3.127,8.945,6.078s9.552,5.012,9.784,4.6-3.771-3.127-8.945-6.078S187.555,5448.538,187.323,5448.946Z" transform="translate(-187.314 -5448.895)" fill="#fafafa"/>
      </g>
      <g id="Grupo_934501" data-name="Grupo 934501" transform="translate(292.328 581.192)">
        <path id="Trazado_629525" data-name="Trazado 629525" d="M197.481,5452.205c.288.34,4.1-2.56,7.54-7.295,3.465-4.722,5.065-9.234,4.656-9.407-.445-.207-2.678,3.845-6.026,8.405C200.33,5448.485,197.148,5451.845,197.481,5452.205Z" transform="translate(-197.457 -5435.496)" fill="#fafafa"/>
      </g>
      <g id="Grupo_934502" data-name="Grupo 934502" transform="translate(263.516 504.059)">
        <path id="Trazado_629526" data-name="Trazado 629526" d="M206.707,5401.249c-.281.373,4.032,4.078,9.633,8.272s10.369,7.29,10.65,6.915-4.032-4.08-9.633-8.273S206.988,5400.873,206.707,5401.249Z" transform="translate(-206.694 -5401.218)" fill="#fafafa"/>
      </g>
      <g id="Grupo_934503" data-name="Grupo 934503" transform="translate(291.576 482.364)">
        <path id="Trazado_629527" data-name="Trazado 629527" d="M204.409,5411.342c.466-.05.392-4.511-.169-9.969s-1.391-9.844-1.856-9.795-.392,4.511.169,9.968S203.943,5411.388,204.409,5411.342Z" transform="translate(-202.078 -5391.577)" fill="#fafafa"/>
      </g>
      <g id="Grupo_934504" data-name="Grupo 934504" transform="translate(265.882 446.932)" opacity="0.5">
        <path id="Trazado_629528" data-name="Trazado 629528" d="M205.8,5392.862c.261.375,5.311-2.736,10.851-7.473s9.419-9.221,9.093-9.539c-.344-.337-4.705,3.578-10.193,8.247S205.525,5392.47,205.8,5392.862Z" transform="translate(-205.791 -5375.831)" fill="#fafafa"/>
      </g>
      <g id="Grupo_934505" data-name="Grupo 934505" transform="translate(286.902 416.35)">
        <path id="Trazado_629529" data-name="Trazado 629529" d="M197.68,5362.254c-.356.3,3.207,5.094,7.959,10.694s8.9,9.9,9.253,9.6-3.207-5.091-7.959-10.7S198.038,5361.952,197.68,5362.254Z" transform="translate(-197.656 -5362.239)" fill="#fafafa"/>
      </g>
      <g id="Grupo_934506" data-name="Grupo 934506" transform="translate(311.014 405.137)" opacity="0.5">
        <path id="Trazado_629530" data-name="Trazado 629530" d="M186.919,5363.385c.257.421,3.9-1.454,8.627-3.038,4.721-1.619,8.749-2.346,8.7-2.835-.025-.446-4.3-.46-9.244,1.229C190.056,5360.4,186.667,5363.018,186.919,5363.385Z" transform="translate(-186.906 -5357.257)" fill="#fafafa"/>
      </g>
      <g id="Grupo_934507" data-name="Grupo 934507" transform="translate(244.589 415.976)">
        <path id="Trazado_629531" data-name="Trazado 629531" d="M226.96,5379.307c.45-.132-.32-4.095-1.717-8.854s-2.9-8.506-3.348-8.375.32,4.1,1.719,8.853S226.512,5379.439,226.96,5379.307Z" transform="translate(-221.766 -5362.075)" fill="#fafafa"/>
      </g>
      <g id="Grupo_934508" data-name="Grupo 934508" transform="translate(233.67 453.475)">
        <path id="Trazado_629532" data-name="Trazado 629532" d="M229.588,5395.971c.468-.028.626-3.905.351-8.665s-.875-8.594-1.341-8.567-.626,3.906-.353,8.666S229.12,5396,229.588,5395.971Z" transform="translate(-228.111 -5378.739)" fill="#fafafa"/>
      </g>
      <g id="Grupo_934509" data-name="Grupo 934509" transform="translate(211.059 486.854)">
        <path id="Trazado_629533" data-name="Trazado 629533" d="M232.427,5405.561c.292.365,3.859-2.015,7.964-5.314s7.2-6.272,6.9-6.638-3.859,2.013-7.966,5.314S232.132,5405.2,232.427,5405.561Z" transform="translate(-232.407 -5393.572)" fill="#fafafa"/>
      </g>
      <g id="Grupo_934510" data-name="Grupo 934510" transform="translate(185.414 459.525)">
        <path id="Trazado_629534" data-name="Trazado 629534" d="M243.613,5381.457c-.308.35,2.874,3.665,7.108,7.4s7.921,6.481,8.231,6.13-2.874-3.666-7.109-7.4S243.924,5381.1,243.613,5381.457Z" transform="translate(-243.593 -5381.427)" fill="#fafafa"/>
      </g>
      <g id="Grupo_934511" data-name="Grupo 934511" transform="translate(197.208 428.086)" opacity="0.5">
        <path id="Trazado_629535" data-name="Trazado 629535" d="M238.274,5380.378c.25.382,4.28-1.827,8.616-5.432s7.264-7.147,6.933-7.464c-.342-.335-3.747,2.627-8.015,6.157S238.008,5379.978,238.274,5380.378Z" transform="translate(-238.26 -5367.456)" fill="#fafafa"/>
      </g>
      <g id="Grupo_934512" data-name="Grupo 934512" transform="translate(167.552 407.921)">
        <path id="Trazado_629536" data-name="Trazado 629536" d="M252.925,5358.515c-.369.261,1.6,3.631,5.09,6.893,3.472,3.278,6.96,5.039,7.194,4.653.265-.406-2.691-2.734-6.033-5.89C255.821,5361.032,253.316,5358.227,252.925,5358.515Z" transform="translate(-252.881 -5358.494)" fill="#fafafa"/>
      </g>
      <g id="Grupo_934513" data-name="Grupo 934513" transform="translate(187.966 399.125)" opacity="0.5">
        <path id="Trazado_629537" data-name="Trazado 629537" d="M239.391,5360.306c.063.451,5.266.079,11.474-1.5s10.968-3.711,10.808-4.137c-.164-.453-5.1.951-11.224,2.491C244.335,5358.717,239.321,5359.829,239.391,5360.306Z" transform="translate(-239.39 -5354.585)" fill="#fafafa"/>
      </g>
      <g id="Grupo_934514" data-name="Grupo 934514" transform="translate(141.726 430.185)" opacity="0.5">
        <path id="Trazado_629538" data-name="Trazado 629538" d="M274.467,5395.7c.448-.093-.569-6.46-2.894-14.042-2.309-7.586-5.023-13.432-5.446-13.262-.45.174,1.537,6.245,3.823,13.76C272.252,5389.66,274,5395.8,274.467,5395.7Z" transform="translate(-266.063 -5368.388)" fill="#fafafa"/>
      </g>
      <g id="Grupo_934515" data-name="Grupo 934515" transform="translate(141.726 475.676)">
        <path id="Trazado_629539" data-name="Trazado 629539" d="M262.409,5406.354c.342.319,4.363-3.389,8.985-8.284s8.09-9.124,7.75-9.445-4.363,3.388-8.985,8.283S262.069,5406.033,262.409,5406.354Z" transform="translate(-262.386 -5388.605)" fill="#fafafa"/>
      </g>
      <g id="Grupo_934516" data-name="Grupo 934516" transform="translate(127.691 489.965)" opacity="0.5">
        <path id="Trazado_629540" data-name="Trazado 629540" d="M276.383,5418.774c.468-.009.756-5.347.644-11.922s-.583-11.907-1.051-11.9-.758,5.346-.646,11.925S275.912,5418.785,276.383,5418.774Z" transform="translate(-275.305 -5394.955)" fill="#fafafa"/>
      </g>
      <g id="Grupo_934517" data-name="Grupo 934517" transform="translate(141.908 525.948)">
        <path id="Trazado_629541" data-name="Trazado 629541" d="M264.616,5432.3c.367.265,3.864-4.009,7.082-9.973,3.238-5.956,4.905-11.217,4.482-11.38-.45-.178-2.79,4.717-5.974,10.573C267.041,5427.388,264.219,5432.023,264.616,5432.3Z" transform="translate(-264.578 -5410.945)" fill="#fafafa"/>
      </g>
      <g id="Grupo_934518" data-name="Grupo 934518" transform="translate(108.262 553.392)">
        <path id="Trazado_629542" data-name="Trazado 629542" d="M279.705,5423.174c-.326.337,1.933,3.074,5.047,6.116s5.907,5.236,6.233,4.9-1.933-3.074-5.047-6.116S280.034,5422.839,279.705,5423.174Z" transform="translate(-279.674 -5423.14)" fill="#fafafa"/>
      </g>
      <g id="Grupo_934519" data-name="Grupo 934519" transform="translate(176.693 495.63)" opacity="0.5">
        <path id="Trazado_629543" data-name="Trazado 629543" d="M261.787,5417.061c.416-.125-1.08-5.471-4.941-11.03-3.828-5.585-8.294-8.879-8.56-8.534-.335.373,3.481,4.117,7.165,9.5C259.172,5412.347,261.319,5417.243,261.787,5417.061Z" transform="translate(-248.265 -5397.472)" fill="#fafafa"/>
      </g>
      <g id="Grupo_934520" data-name="Grupo 934520" transform="translate(279.853 538.672)">
        <path id="Trazado_629544" data-name="Trazado 629544" d="M211.379,5437.847c.457-.113-.347-4.96-1.791-10.826s-2.981-10.53-3.438-10.419.347,4.959,1.791,10.827S210.924,5437.96,211.379,5437.847Z" transform="translate(-206.022 -5416.6)" fill="#fafafa"/>
      </g>
      <g id="Grupo_934521" data-name="Grupo 934521" transform="translate(245.181 552.649)">
        <path id="Trazado_629545" data-name="Trazado 629545" d="M216.229,5434.065c.257.392,4.311-1.8,9.059-4.9s8.389-5.923,8.132-6.313-4.311,1.8-9.059,4.892S215.973,5433.671,216.229,5434.065Z" transform="translate(-216.216 -5422.811)" fill="#fafafa"/>
      </g>
      <g id="Grupo_934522" data-name="Grupo 934522" transform="translate(247.132 524.379)">
        <path id="Trazado_629546" data-name="Trazado 629546" d="M219.851,5420.9c.389.262,2.3-1.911,4.26-4.843s3.238-5.531,2.847-5.792-2.3,1.909-4.257,4.849S219.461,5420.642,219.851,5420.9Z" transform="translate(-219.781 -5410.247)" fill="#fafafa"/>
      </g>
      <g id="Grupo_934523" data-name="Grupo 934523" transform="translate(229.527 541.532)">
        <path id="Trazado_629547" data-name="Trazado 629547" d="M226.993,5417.951c-.27.385,1.445,2.053,3.828,3.724s4.534,2.721,4.8,2.336-1.442-2.05-3.828-3.725S227.263,5417.568,226.993,5417.951Z" transform="translate(-226.965 -5417.872)" fill="#fafafa"/>
      </g>
      <g id="Grupo_934524" data-name="Grupo 934524" transform="translate(272.603 642.005)" opacity="0.5">
        <path id="Trazado_629548" data-name="Trazado 629548" d="M213.3,5479.252c.461-.144-.29-3.841-.961-8.409-.691-4.567-1.049-8.323-1.532-8.323-.452-.007-.857,3.863-.146,8.572C211.353,5475.806,212.867,5479.39,213.3,5479.252Z" transform="translate(-210.274 -5462.521)" fill="#fafafa"/>
      </g>
      <g id="Grupo_934525" data-name="Grupo 934525" transform="translate(234.986 623.818)" opacity="0.5">
        <path id="Trazado_629549" data-name="Trazado 629549" d="M222.919,5476.137c.407.233,3.5-4.438,6.908-10.424s5.842-11.034,5.434-11.266-3.5,4.437-6.908,10.426S222.511,5475.906,222.919,5476.137Z" transform="translate(-222.874 -5454.438)" fill="#fafafa"/>
      </g>
      <g id="Grupo_934526" data-name="Grupo 934526" transform="translate(191.942 627.338)" opacity="0.5">
        <path id="Trazado_629550" data-name="Trazado 629550" d="M238.828,5456.015c-.374.286,3.708,6.247,9.116,13.315s10.092,12.57,10.466,12.283-3.711-6.243-9.118-13.314S239.2,5455.731,238.828,5456.015Z" transform="translate(-238.805 -5456.004)" fill="#fafafa"/>
      </g>
      <g id="Grupo_934527" data-name="Grupo 934527" transform="translate(179.832 661.748)" opacity="0.5">
        <path id="Trazado_629551" data-name="Trazado 629551" d="M242.1,5471.486c-.068.464,5.324,1.629,12.043,2.6s12.219,1.384,12.286.921-5.324-1.627-12.043-2.6S242.163,5471.023,242.1,5471.486Z" transform="translate(-242.097 -5471.296)" fill="#fafafa"/>
      </g>
      <g id="Grupo_934528" data-name="Grupo 934528" transform="translate(176.114 628.823)">
        <path id="Trazado_629552" data-name="Trazado 629552" d="M255.494,5472.352c.473-.108.047-3.584-.128-7.852-.2-4.271-.074-7.77-.556-7.835-.446-.074-1.341,3.46-1.139,7.91C253.856,5469.019,255.055,5472.464,255.494,5472.352Z" transform="translate(-253.642 -5456.664)" fill="#fafafa"/>
      </g>
      <g id="Grupo_934529" data-name="Grupo 934529" transform="translate(236.103 653.131)">
        <path id="Trazado_629553" data-name="Trazado 629553" d="M220.687,5479.146c.162.415,4.566-1.047,9.158-4.368,4.611-3.3,7.4-7,7.059-7.289-.362-.331-3.607,2.738-8.049,5.913C224.434,5476.6,220.487,5478.7,220.687,5479.146Z" transform="translate(-220.68 -5467.465)" fill="#fafafa"/>
      </g>
      <g id="Grupo_934530" data-name="Grupo 934530" transform="translate(300.959 646.023)">
        <path id="Trazado_629554" data-name="Trazado 629554" d="M201.365,5480.521c.455-.115-.092-3.835-1.217-8.31s-2.408-8.017-2.862-7.9.09,3.838,1.217,8.313S200.91,5480.634,201.365,5480.521Z" transform="translate(-197.125 -5464.307)" fill="#fafafa"/>
      </g>
      <g id="Grupo_934531" data-name="Grupo 934531" transform="translate(271.962 250.171)">
        <path id="Trazado_629555" data-name="Trazado 629555" d="M234.6,5288.4c-.106-.134-1.955,1.46-5.367,3.333a39.438,39.438,0,0,1-6.242,2.723,39.8,39.8,0,0,1-16.454,1.895,39.484,39.484,0,0,1-6.7-1.235c-3.747-1.047-5.909-2.18-5.981-2.024a6.736,6.736,0,0,0,1.478.86,14.593,14.593,0,0,0,1.829.83,23.256,23.256,0,0,0,2.5.908,35.529,35.529,0,0,0,6.789,1.439,37.79,37.79,0,0,0,16.787-1.934,35.57,35.57,0,0,0,6.285-2.94,24.3,24.3,0,0,0,2.232-1.456,14.628,14.628,0,0,0,1.591-1.224A6.646,6.646,0,0,0,234.6,5288.4Z" transform="translate(-193.859 -5288.391)" fill="#455a64"/>
      </g>
      <g id="Grupo_934532" data-name="Grupo 934532" transform="translate(270.617 256.326)">
        <path id="Trazado_629556" data-name="Trazado 629556" d="M194.27,5303.718a7.528,7.528,0,0,0,1.775.549c1.157.3,2.844.676,4.95,1.044a45.157,45.157,0,0,0,16.688.1,25.982,25.982,0,0,0,14.417-8.222,17.7,17.7,0,0,0,2.732-4.3,6.264,6.264,0,0,0,.6-1.764c-.173-.095-.945,2.528-3.778,5.665a26.589,26.589,0,0,1-14.14,7.784,48.864,48.864,0,0,1-16.422.14c-2.1-.288-3.8-.578-4.975-.772A7.906,7.906,0,0,0,194.27,5303.718Z" transform="translate(-194.27 -5291.126)" fill="#455a64"/>
      </g>
      <g id="Grupo_934533" data-name="Grupo 934533" transform="translate(289.49 271.772)">
        <path id="Trazado_629557" data-name="Trazado 629557" d="M224.908,5394.837c.011.011.083-.065.214-.222a8.744,8.744,0,0,0,.554-.729,9.318,9.318,0,0,0,1.3-3.261c.644-2.97-.025-7.817-3.58-12.1a30.745,30.745,0,0,0-6.814-5.749c-2.671-1.763-5.675-3.382-8.618-5.367a26.289,26.289,0,0,1-7.849-7.663,13.939,13.939,0,0,1-1.951-5.386,16.749,16.749,0,0,1,.315-5.923c.889-3.973,2.671-7.615,4.125-11.236a31.169,31.169,0,0,0,2.754-10.966,29.265,29.265,0,0,0-5.587-18.058,27.353,27.353,0,0,0-9.608-8.469c-.675-.325-1.285-.614-1.825-.874l-1.4-.49a6.245,6.245,0,0,0-1.166-.348,6.73,6.73,0,0,0,1.107.505l1.355.562q.79.414,1.771.933a27.988,27.988,0,0,1,9.275,8.527,28.914,28.914,0,0,1,5.3,17.676,30.594,30.594,0,0,1-2.743,10.687c-1.451,3.591-3.258,7.255-4.185,11.371a17.567,17.567,0,0,0-.32,6.22,14.691,14.691,0,0,0,2.075,5.7,26.844,26.844,0,0,0,8.123,7.878c3.006,2,6.013,3.591,8.672,5.311a30.432,30.432,0,0,1,6.742,5.55,14.771,14.771,0,0,1,3.711,11.649A11.239,11.239,0,0,1,224.908,5394.837Z" transform="translate(-185.769 -5297.99)" fill="#455a64"/>
      </g>
      <g id="Grupo_934534" data-name="Grupo 934534" transform="translate(277.431 275.808)">
        <path id="Trazado_629558" data-name="Trazado 629558" d="M208.752,5393.19a5.064,5.064,0,0,0,.943-.532,7.663,7.663,0,0,0,2.1-2.29,10.9,10.9,0,0,0,1.467-4.693,17.806,17.806,0,0,0-.711-6.476c-1.323-4.783-5.32-9.133-8.319-14.6a18.281,18.281,0,0,1-2.45-9.281,24.915,24.915,0,0,1,2.617-10.058c3.094-6.55,7.853-11.755,11.139-17.206a35.446,35.446,0,0,0,3.843-8.192,19.754,19.754,0,0,0,.8-7.853,15.537,15.537,0,0,0-4.743-10.187,10.874,10.874,0,0,0-2.613-1.676,4.869,4.869,0,0,0-1.017-.363,16.584,16.584,0,0,1,3.407,2.283,15.5,15.5,0,0,1,4.37,10,19.383,19.383,0,0,1-.875,7.593,35.32,35.32,0,0,1-3.837,7.985c-1.663,2.665-3.639,5.32-5.646,8.122a57.951,57.951,0,0,0-5.594,9.137,25.523,25.523,0,0,0-2.68,10.4,18.98,18.98,0,0,0,2.592,9.667c3.117,5.561,7.106,9.826,8.434,14.4a17.641,17.641,0,0,1,.812,6.265,10.862,10.862,0,0,1-1.278,4.565A9.667,9.667,0,0,1,208.752,5393.19Z" transform="translate(-200.946 -5299.782)" fill="#455a64"/>
      </g>
      <g id="Grupo_934535" data-name="Grupo 934535" transform="translate(220.947 206.544)">
        <path id="Trazado_629559" data-name="Trazado 629559" d="M214.306,5309.377a2.009,2.009,0,0,0,.614-.259,12.539,12.539,0,0,0,1.613-1.026,19.706,19.706,0,0,0,4.685-5.228,57.943,57.943,0,0,0,4.509-9.353c.752-1.793,1.553-3.664,2.536-5.514a34.183,34.183,0,0,1,3.6-5.371,36.847,36.847,0,0,1,18.83-12.136c5.675-1.481,9.381-1.146,9.368-1.343a13.926,13.926,0,0,0-2.565-.144,33.979,33.979,0,0,0-6.951.906A36.12,36.12,0,0,0,231.2,5282.09a34.143,34.143,0,0,0-3.675,5.517c-.995,1.9-1.789,3.8-2.523,5.6a62.507,62.507,0,0,1-4.3,9.338,21.193,21.193,0,0,1-4.381,5.284C215.078,5308.88,214.266,5309.31,214.306,5309.377Z" transform="translate(-214.305 -5269.003)" fill="#455a64"/>
      </g>
      <g id="Grupo_934536" data-name="Grupo 934536" transform="translate(198.227 204.751)">
        <path id="Trazado_629560" data-name="Trazado 629560" d="M214.567,5310.239a3.311,3.311,0,0,0,.875-.091,13.446,13.446,0,0,0,2.446-.634,21.161,21.161,0,0,0,7.766-5.049,46.791,46.791,0,0,0,8.06-11.133c2.552-4.479,5.027-9.631,8.859-14.11A27.825,27.825,0,0,1,256.4,5270.6a53.839,53.839,0,0,1,13.45-1.794c3.886-.084,7.039.076,9.215.161l2.511.1a3.533,3.533,0,0,0,.878-.02,3.319,3.319,0,0,0-.866-.151c-.569-.067-1.413-.164-2.5-.254-2.174-.186-5.329-.438-9.244-.431a52.287,52.287,0,0,0-13.657,1.643,28.267,28.267,0,0,0-14.253,8.82c-3.931,4.6-6.393,9.806-8.9,14.284a48.083,48.083,0,0,1-7.8,11.089,21.994,21.994,0,0,1-7.462,5.163C215.76,5310,214.547,5310.146,214.567,5310.239Z" transform="translate(-214.567 -5268.206)" fill="#455a64"/>
      </g>
      <g id="Grupo_934537" data-name="Grupo 934537" transform="translate(157.213 274.435)">
        <path id="Trazado_629561" data-name="Trazado 629561" d="M252.426,5377.258c.095-.035-.416-1.155-.959-3.289a30.86,30.86,0,0,1,7.142-28.958c1.886-2.1,4.044-4.085,6.226-6.171a56.566,56.566,0,0,0,6.037-6.479,40.043,40.043,0,0,0,4.345-7.034,41.262,41.262,0,0,0,3.85-13.389,37.966,37.966,0,0,0-.092-9.391,23.182,23.182,0,0,0-.448-2.513,3.368,3.368,0,0,0-.236-.86c-.088.016.164,1.218.355,3.408a41.643,41.643,0,0,1-.173,9.284,39.627,39.627,0,0,1-1.307,6.271,39.108,39.108,0,0,1-2.651,6.846,40.2,40.2,0,0,1-4.3,6.865,57.235,57.235,0,0,1-5.968,6.378c-2.176,2.08-4.347,4.088-6.26,6.229a31.555,31.555,0,0,0-4.734,6.787,30.989,30.989,0,0,0-3.366,13.508,29.38,29.38,0,0,0,1.26,9.31,19.473,19.473,0,0,0,.882,2.4A3.428,3.428,0,0,0,252.426,5377.258Z" transform="translate(-249.881 -5299.174)" fill="#455a64"/>
      </g>
      <g id="Grupo_934538" data-name="Grupo 934538" transform="translate(306.914 230.646)">
        <path id="Trazado_629562" data-name="Trazado 629562" d="M213.819,5294.563a4.855,4.855,0,0,0-.207-1.6,15.653,15.653,0,0,0-1.6-4.1,17.406,17.406,0,0,0-25.308-6.052,15.65,15.65,0,0,0-3.281,2.929,4.937,4.937,0,0,0-.907,1.33,29.255,29.255,0,0,1,4.514-3.756,17.328,17.328,0,0,1,24.464,5.852A29.035,29.035,0,0,1,213.819,5294.563Z" transform="translate(-182.513 -5279.712)" fill="#455a64"/>
      </g>
      <g id="Grupo_934539" data-name="Grupo 934539" transform="translate(306.684 237.913)">
        <path id="Trazado_629563" data-name="Trazado 629563" d="M205.271,5297.383a13.276,13.276,0,0,0-.455-3.7,16.307,16.307,0,0,0-3.85-8.167,8.629,8.629,0,0,0-8.636-2.184,5.056,5.056,0,0,0-2.306,1.578c-.41.522-.536.873-.5.893a7.625,7.625,0,0,1,2.986-1.9,8.37,8.37,0,0,1,7.847,2.209c2.354,2.443,3.26,5.563,3.875,7.711A20.735,20.735,0,0,0,205.271,5297.383Z" transform="translate(-189.52 -5282.943)" fill="#455a64"/>
      </g>
      <g id="Grupo_934540" data-name="Grupo 934540" transform="translate(301.732 228.488)">
        <path id="Trazado_629564" data-name="Trazado 629564" d="M195.8,5278.76c-.22.153,2.5,3.725,4.278,8.872,1.832,5.129,1.944,9.621,2.212,9.6.2.034.473-4.59-1.411-9.883C199.037,5282.044,195.932,5278.6,195.8,5278.76Z" transform="translate(-195.784 -5278.755)" fill="#ff4f5b"/>
      </g>
    </g>
  </g>
</svg>
