<svg xmlns="http://www.w3.org/2000/svg" width="163" height="163" viewBox="0 0 163 163">
  <g id="Grupo_953231" data-name="Grupo 953231" transform="translate(-390 -2188.19)">
    <circle id="Elipse_7761" data-name="Elipse 7761" cx="81.5" cy="81.5" r="81.5" transform="translate(390 2188.19)" fill="#ff8e00"/>
    <circle id="Elipse_7762" data-name="Elipse 7762" cx="66.768" cy="66.768" r="66.768" transform="translate(405.675 2203.865)" fill="#fff"/>
    <g id="investigacion_3_" data-name="investigacion(3)" transform="translate(437.124 2229.923)">
      <path id="Trazado_634499" data-name="Trazado 634499" d="M399.169,271.7a2.331,2.331,0,0,1-3.3,0l-15.269-15.269,3.3-3.3,15.269,15.269A2.331,2.331,0,0,1,399.169,271.7Zm0,0" transform="translate(-321.48 -213.814)" fill="#484b63"/>
      <path id="Trazado_634500" data-name="Trazado 634500" d="M7.5,62.5H56.433v68.662H7.5Zm0,0" transform="translate(-6.335 -52.791)" fill="#d8d5ed"/>
      <path id="Trazado_634501" data-name="Trazado 634501" d="M40,307.727h9.321v25.166H40Zm0,0" transform="translate(-33.786 -259.924)" fill="#ff2c5c"/>
      <path id="Trazado_634502" data-name="Trazado 634502" d="M134,247.727h9.321v34.486H134Zm0,0" transform="translate(-113.184 -209.244)" fill="#ffd659"/>
      <path id="Trazado_634503" data-name="Trazado 634503" d="M230,269.727h9.321V300.8H230Zm0,0" transform="translate(-194.271 -227.827)" fill="#4fc6f5"/>
      <path id="Trazado_634504" data-name="Trazado 634504" d="M70,307.727h4.66v25.166H70Zm0,0" transform="translate(-59.126 -259.924)" fill="#e62753"/>
      <path id="Trazado_634505" data-name="Trazado 634505" d="M164,247.727h4.66v34.486H164Zm0,0" transform="translate(-138.523 -209.244)" fill="#ffbd54"/>
      <path id="Trazado_634506" data-name="Trazado 634506" d="M260,269.727h4.66V300.8H260Zm0,0" transform="translate(-219.61 -227.827)" fill="#3bb3e3"/>
      <path id="Trazado_634507" data-name="Trazado 634507" d="M179.078,14.738a24.7,24.7,0,1,0,0,34.93A24.7,24.7,0,0,0,179.078,14.738Zm0,0" transform="translate(-115.645 -6.338)" fill="#50536e"/>
      <path id="Trazado_634508" data-name="Trazado 634508" d="M201.172,71.761a20.039,20.039,0,1,1,0-28.34A20.062,20.062,0,0,1,201.172,71.761Zm0,0" transform="translate(-141.034 -31.726)" fill="#b5fcff"/>
      <path id="Trazado_634509" data-name="Trazado 634509" d="M297.414,43.425a20.01,20.01,0,0,0-16.5-5.725,20.029,20.029,0,0,1,0,39.789,20.032,20.032,0,0,0,16.5-34.065Zm0,0" transform="translate(-237.276 -31.73)" fill="#71f6fc"/>
      <path id="Trazado_634510" data-name="Trazado 634510" d="M78.514,53.463,66.561,41.508A25.873,25.873,0,0,0,67.6,11.661a1.165,1.165,0,1,0-1.947,1.281A23.556,23.556,0,1,1,62.608,9.21l.064.064a1.165,1.165,0,0,0,1.654-1.642l-.067-.067a25.893,25.893,0,0,0-36.579,0q-.475.475-.92.968H1.164A1.165,1.165,0,0,0,0,9.7v5.153a1.165,1.165,0,1,0,2.33,0V10.864H24.89a25.665,25.665,0,0,0-2.3,3.92H8.077a1.165,1.165,0,1,0,0,2.33H21.628a25.812,25.812,0,0,0-.836,2.848H8.077a1.165,1.165,0,0,0,0,2.33H20.361a26.035,26.035,0,0,0-.235,2.848H8.077a1.165,1.165,0,0,0,0,2.331h12.09a25.891,25.891,0,0,0,2.608,9.841H20.816a1.165,1.165,0,0,0-1.165,1.166V72.969a1.165,1.165,0,0,0,1.165,1.166h9.321A1.165,1.165,0,0,0,31.3,72.969v-25.8a25.671,25.671,0,0,0,3.262,1.91V72.969a1.166,1.166,0,0,0,1.165,1.166H45.05a1.165,1.165,0,0,0,1.165-1.166V51.711a26.288,26.288,0,0,0,2.719-.167v18a1.165,1.165,0,1,0,2.33,0V51.169a25.69,25.69,0,0,0,10.355-4.716L73.569,58.406a3.5,3.5,0,0,0,4.945-4.943ZM28.972,71.8h-6.99V39.643h2.1a25.88,25.88,0,0,0,3.6,4.506q.63.63,1.293,1.206Zm7.923,0V50.08a25.935,25.935,0,0,0,6.99,1.549V71.8ZM76.867,56.758a1.165,1.165,0,0,1-1.649,0l-11.8-11.8c.286-.262.567-.529.843-.8s.544-.556.805-.843l11.8,11.8a1.166,1.166,0,0,1,0,1.648Zm0,0" transform="translate(0.001 -0.001)"/>
      <path id="Trazado_634511" data-name="Trazado 634511" d="M50.1,175.273a1.165,1.165,0,0,0-1.165,1.165v2.641H2.33V121.774a1.165,1.165,0,1,0-2.33,0v58.47a1.165,1.165,0,0,0,1.165,1.165H50.1a1.165,1.165,0,0,0,1.165-1.165v-3.807A1.165,1.165,0,0,0,50.1,175.273Zm0,0" transform="translate(0 -101.873)"/>
      <path id="Trazado_634512" data-name="Trazado 634512" d="M32.5,301.36v25.17a1.165,1.165,0,0,0,1.165,1.165h9.321a1.165,1.165,0,0,0,1.165-1.165V301.36a1.165,1.165,0,0,0-1.165-1.165H33.665A1.165,1.165,0,0,0,32.5,301.36Zm2.33,1.166h6.991v22.839H34.83Zm0,0" transform="translate(-27.451 -253.562)"/>
      <path id="Trazado_634513" data-name="Trazado 634513" d="M54.377,197.511a1.165,1.165,0,0,0,0-2.331H45.665a1.165,1.165,0,0,0,0,2.331Zm0,0" transform="translate(-37.587 -164.86)"/>
      <path id="Trazado_634514" data-name="Trazado 634514" d="M180.673,29.988a21.174,21.174,0,1,0,14.994,6.2A21.06,21.06,0,0,0,180.673,29.988Zm13.346,34.547a18.9,18.9,0,1,1,5.519-13.348A18.744,18.744,0,0,1,194.019,64.535Zm0,0" transform="translate(-134.703 -25.33)"/>
    </g>
  </g>
</svg>
