<svg xmlns="http://www.w3.org/2000/svg" width="169.045" height="165.813" viewBox="0 0 169.045 165.813">
  <g id="Grupo_930521" data-name="Grupo 930521" transform="translate(-371.955 -1857)">
    <g id="Grupo_81380" data-name="Grupo 81380" transform="translate(197.186 575.265)">
      <g id="Grupo_930456" data-name="Grupo 930456" transform="translate(195.146 1291.326)">
        <circle id="Elipse_7667" data-name="Elipse 7667" cx="65.203" cy="65.203" r="65.203" transform="translate(0 14.578)" fill="#ff3c00"/>
        <g id="investigacion_1_" data-name="investigacion(1)" transform="translate(11.67 7.616)">
          <path id="Trazado_626484" data-name="Trazado 626484" d="M409.732,282.264a3.658,3.658,0,0,1-5.171,0l-23.956-23.956,5.171-5.171,23.956,23.956A3.658,3.658,0,0,1,409.732,282.264Zm0,0" transform="translate(-287.84 -191.439)" fill="#484b63"/>
          <path id="Trazado_626485" data-name="Trazado 626485" d="M7.5,62.5H84.276V170.23H7.5Zm0,0" transform="translate(-5.673 -47.266)" fill="#d8d5ed"/>
          <path id="Trazado_626486" data-name="Trazado 626486" d="M40,307.727H54.624v39.485H40Zm0,0" transform="translate(-30.251 -232.723)" fill="#ff2c5c"/>
          <path id="Trazado_626487" data-name="Trazado 626487" d="M134,247.727h14.624v54.109H134Zm0,0" transform="translate(-101.34 -187.347)" fill="#ffd659"/>
          <path id="Trazado_626488" data-name="Trazado 626488" d="M230,269.727h14.624v48.747H230Zm0,0" transform="translate(-173.942 -203.985)" fill="#4fc6f5"/>
          <path id="Trazado_626489" data-name="Trazado 626489" d="M70,307.727h7.312v39.485H70Zm0,0" transform="translate(-52.939 -232.723)" fill="#e62753"/>
          <path id="Trazado_626490" data-name="Trazado 626490" d="M164,247.727h7.312v54.109H164Zm0,0" transform="translate(-124.028 -187.347)" fill="#ffbd54"/>
          <path id="Trazado_626491" data-name="Trazado 626491" d="M260,269.727h7.312v48.747H260Zm0,0" transform="translate(-196.63 -203.985)" fill="#3bb3e3"/>
          <path id="Trazado_626492" data-name="Trazado 626492" d="M203.069,18.855a38.753,38.753,0,1,0,0,54.8,38.753,38.753,0,0,0,0-54.8Zm0,0" transform="translate(-103.544 -5.674)" fill="#50536e"/>
          <path id="Trazado_626493" data-name="Trazado 626493" d="M220.632,91.221a31.442,31.442,0,1,1,0-44.465A31.477,31.477,0,0,1,220.632,91.221Zm0,0" transform="translate(-126.276 -28.405)" fill="#b5fcff"/>
          <path id="Trazado_626494" data-name="Trazado 626494" d="M306.8,46.759a31.4,31.4,0,0,0-25.888-8.982,31.425,31.425,0,0,1,0,62.429A31.43,31.43,0,0,0,306.8,46.759Zm0,0" transform="translate(-212.447 -28.409)" fill="#71f6fc"/>
          <path id="Trazado_626495" data-name="Trazado 626495" d="M123.188,83.882,104.434,65.125A40.594,40.594,0,0,0,106.061,18.3a1.828,1.828,0,1,0-3.054,2.01,36.96,36.96,0,1,1-4.775-5.855l.1.1a1.828,1.828,0,0,0,2.594-2.576l-.1-.106a40.626,40.626,0,0,0-57.393,0q-.745.745-1.443,1.52H1.827A1.828,1.828,0,0,0,0,15.217V23.3a1.828,1.828,0,1,0,3.656,0V17.046h35.4a40.268,40.268,0,0,0-3.6,6.15H12.673a1.828,1.828,0,1,0,0,3.656H33.935a40.5,40.5,0,0,0-1.312,4.469H12.673a1.828,1.828,0,0,0,0,3.656H31.947a40.848,40.848,0,0,0-.368,4.468H12.673a1.828,1.828,0,0,0,0,3.657H31.643a40.623,40.623,0,0,0,4.092,15.44H32.66a1.828,1.828,0,0,0-1.828,1.829v54.116a1.828,1.828,0,0,0,1.828,1.829H47.284a1.828,1.828,0,0,0,1.828-1.829V74a40.278,40.278,0,0,0,5.118,3v37.486a1.829,1.829,0,0,0,1.828,1.829H70.683a1.828,1.828,0,0,0,1.828-1.829V81.134a41.244,41.244,0,0,0,4.266-.263v28.238a1.828,1.828,0,1,0,3.656,0V80.283a40.307,40.307,0,0,0,16.246-7.4l18.75,18.753a5.485,5.485,0,0,0,7.759-7.756ZM45.457,112.659H34.489V62.2h3.293a40.606,40.606,0,0,0,5.647,7.07q.988.988,2.028,1.892Zm12.431,0V78.574A40.692,40.692,0,0,0,68.856,81v31.655ZM120.6,89.052a1.828,1.828,0,0,1-2.587,0L99.5,70.532c.448-.41.89-.829,1.323-1.262s.853-.873,1.263-1.323L120.6,86.467a1.83,1.83,0,0,1,0,2.585Zm0,0" transform="translate(0)"/>
          <path id="Trazado_626496" data-name="Trazado 626496" d="M78.606,206.375a1.828,1.828,0,0,0-1.828,1.828v4.144H3.656V122.437a1.828,1.828,0,1,0-3.656,0v91.739A1.828,1.828,0,0,0,1.828,216H78.606a1.827,1.827,0,0,0,1.828-1.828V208.2A1.827,1.827,0,0,0,78.606,206.375Zm0,0" transform="translate(-0.001 -91.212)"/>
          <path id="Trazado_626497" data-name="Trazado 626497" d="M32.5,302.023v39.491a1.828,1.828,0,0,0,1.828,1.828H48.953a1.828,1.828,0,0,0,1.828-1.828V302.023a1.828,1.828,0,0,0-1.828-1.828H34.328A1.828,1.828,0,0,0,32.5,302.023Zm3.656,1.829H47.125v35.834H36.156Zm0,0" transform="translate(-24.579 -227.027)"/>
          <path id="Trazado_626498" data-name="Trazado 626498" d="M60,198.837a1.828,1.828,0,0,0,0-3.657H46.328a1.828,1.828,0,0,0,0,3.657Zm0,0" transform="translate(-33.654 -147.608)"/>
          <path id="Trazado_626499" data-name="Trazado 626499" d="M192.733,29.988a33.221,33.221,0,1,0,23.526,9.731,33.044,33.044,0,0,0-23.526-9.731Zm20.94,54.2a29.657,29.657,0,1,1,8.659-20.943A29.41,29.41,0,0,1,213.673,84.191Zm0,0" transform="translate(-120.608 -22.679)"/>
        </g>
      </g>
      <rect id="Rectángulo_305736" data-name="Rectángulo 305736" width="164" height="164" transform="translate(179.814 1281.735)" fill="none"/>
    </g>
    <path id="Trazado_654391" data-name="Trazado 654391" d="M209.042,1218.168h-.169a20.335,20.335,0,0,0-20.247,20.422v.055a20.4,20.4,0,0,0,20.427,20.377h.058a20.4,20.4,0,0,0,20.363-20.432v-.146A20.354,20.354,0,0,0,209.042,1218.168Z" transform="translate(183.329 763.791)" fill="#ff8e00"/>
    <g id="Grupo_953179" data-name="Grupo 953179" transform="translate(183.329 763.791)">
      <g id="Grupo_81356" data-name="Grupo 81356">
        <path id="Trazado_626455" data-name="Trazado 626455" d="M207.964,1247.932h-4.448v-14.159l-4.369,1.276v-3.368l8.409-2.909h.408Z" fill="none"/>
        <path id="Trazado_626456" data-name="Trazado 626456" d="M216.557,1243.629a2.524,2.524,0,0,1,1.75.625,2.182,2.182,0,0,1,0,3.2,2.759,2.759,0,0,1-3.507-.006,2.18,2.18,0,0,1,0-3.185A2.5,2.5,0,0,1,216.557,1243.629Z" fill="none"/>
      </g>
      <g id="Grupo_81357" data-name="Grupo 81357">
        <path id="Trazado_626457" data-name="Trazado 626457" d="M207.964,1247.932h-4.448v-14.159l-4.369,1.276v-3.368l8.409-2.909h.408Z" fill="#fff"/>
        <path id="Trazado_626458" data-name="Trazado 626458" d="M216.557,1243.629a2.524,2.524,0,0,1,1.75.625,2.182,2.182,0,0,1,0,3.2,2.759,2.759,0,0,1-3.507-.006,2.18,2.18,0,0,1,0-3.185A2.5,2.5,0,0,1,216.557,1243.629Z" fill="#fff"/>
      </g>
    </g>
  </g>
</svg>
