<svg xmlns="http://www.w3.org/2000/svg" width="188.595" height="188.596" viewBox="0 0 188.595 188.596"><g transform="translate(-1014.503 -225.687)"><path d="M1188.507,391.344a93.974,93.974,0,0,1-13.549,16.823c-1.406,1.388-2.846,2.732-4.322,4.015-.427.368-.855.734-1.283,1.092-.323.271-.655.542-.987.811s-.647.525-.97.777q-2.526,2.017-5.159,3.824c-.279.192-.568.384-.856.567q-1.257.852-2.54,1.65c-.341.219-.681.428-1.022.637-.821.5-1.641.987-2.48,1.458-.209.122-.418.236-.629.358l-.863.472c-.367.2-.742.4-1.135.594-.035.018-.078.043-.122.062-1.8.943-3.632,1.833-5.5,2.654-.21.1-.428.192-.647.288-.079.035-.166.07-.244.105-.314.139-.629.271-.943.4-.733.306-1.467.6-2.209.89-.271.1-.532.2-.8.3l-.131.052a1.275,1.275,0,0,1-.157.062c-.245.1-.506.192-.76.288-.166.062-.331.122-.505.184-.114.044-.227.087-.349.131l-.3.105c-.54.192-1.082.375-1.632.559-.759.244-1.52.488-2.279.716-.008,0-.017.008-.025.008-.1.035-.184.053-.279.087-.227.07-.455.132-.682.2-.619.175-1.231.349-1.859.515-.183.053-.358.1-.54.14-.4.105-.812.209-1.214.314-.122.027-.244.06-.366.087-.1.027-.184.043-.279.07s-.167.044-.254.062c-.472.112-.943.218-1.4.331-.027.008-.045.008-.07.017-.192.045-.393.088-.594.122q-.747.17-1.493.314c-.017,0-.035.01-.052.01l-.271.052c-.759.149-1.528.288-2.287.41-1.38.236-2.759.436-4.147.6-.306.043-.611.077-.916.112-.533.062-1.057.114-1.589.157-.332.035-.664.07-1,.1-.575.06-1.134.1-1.711.131-.567.053-1.135.079-1.7.1-.908.06-1.807.079-2.715.1-.192.008-.383.017-.567.008-.043,0-.087.008-.13.008q-.315.015-.629,0c-.2.01-.4.018-.612.018-.4,0-.811-.008-1.213-.018-.812-.008-1.633-.025-2.445-.069-1.431-.053-2.854-.14-4.277-.254-.262-.025-.533-.044-.8-.079-.358-.035-.724-.069-1.082-.114-1.824-.174-3.64-.418-5.456-.716-.7-.122-1.406-.244-2.1-.375-.219-.044-.446-.087-.672-.131l-.6-.105a1.731,1.731,0,0,0-.218-.052c-.341-.07-.672-.14-1.03-.219-.1-.017-.192-.044-.288-.06-.4-.088-.786-.175-1.187-.271h-.01q-2.187-.511-4.364-1.127c-.149-.044-.288-.087-.428-.122q-2.017-.589-4.016-1.266l-1.274-.445c-.244-.087-.488-.175-.724-.262-.349-.122-.69-.253-1.03-.384-1.04-.393-2.078-.8-3.108-1.239l-.052-.027a1.835,1.835,0,0,1-.209-.087c-.062-.027-.132-.052-.192-.079-.376-.149-.751-.314-1.135-.488-.122-.053-.236-.105-.349-.166-.288-.132-.577-.254-.856-.393-.261-.114-.524-.227-.776-.349-.2-.087-.4-.184-.6-.271-.42-.209-.829-.41-1.24-.612l-1.022-.524a1.89,1.89,0,0,1-.192-.1c-.261-.122-.515-.262-.768-.4-.14-.07-.271-.14-.4-.21a.374.374,0,0,1-.114-.06,1,1,0,0,1-.166-.1c-.411-.209-.812-.427-1.214-.646-.192-.105-.375-.209-.567-.323-.043-.027-.1-.052-.14-.079-.542-.306-1.09-.62-1.632-.943-.227-.14-.463-.271-.69-.419-.008-.008-.025-.008-.034-.025a1.469,1.469,0,0,1-.227-.132l-.341-.209c-.218-.131-.436-.262-.646-.393l-.42-.261c-.139-.088-.288-.184-.428-.271-.288-.184-.575-.376-.855-.559-.053-.035-.114-.079-.166-.114s-.088-.062-.132-.088-.1-.06-.139-.1l-.078-.052a.075.075,0,0,0-.035-.018,8.084,8.084,0,0,1-.724-.5c-.306-.184-.595-.384-.883-.594-.017-.018-.044-.027-.061-.044-.035-.018-.07-.053-.1-.07-.131-.1-.253-.184-.376-.271-.044-.027-.087-.062-.122-.087l-.236-.157c-.191-.14-.383-.271-.567-.4a.172.172,0,0,1-.06-.053c-.734-.523-1.45-1.055-2.148-1.605-.463-.349-.916-.7-1.37-1.057-.542-.436-1.092-.881-1.625-1.327-.079-.069-.166-.139-.253-.209-.751-.62-1.493-1.266-2.209-1.93-.576-.507-1.144-1.03-1.7-1.562-.864-.8-1.711-1.615-2.531-2.453-.594-.594-1.17-1.205-1.746-1.816-.008-.018-.035-.027-.044-.053q-1.309-1.387-2.523-2.828c-.184-.192-.349-.393-.515-.585-1.415-1.685-2.786-3.4-4.077-5.177q-1.088-1.492-2.122-3.021c-.122-.174-.236-.348-.358-.523-.192-.288-.384-.585-.577-.881a.519.519,0,0,0-.044-.079c-1.047-1.615-2.052-3.265-2.985-4.941a5.591,5.591,0,0,1-.323-.6c-.664-1.162-1.276-2.349-1.869-3.545-.393-.794-.776-1.572-1.152-2.366q-1.924-4.176-3.448-8.494c-.463-1.336-.908-2.671-1.309-4.033-.035-.105-.07-.209-.1-.323-.079-.279-.166-.55-.253-.838-.219-.76-.428-1.528-.629-2.287a94.285,94.285,0,1,1,170.941,26.565Z" transform="translate(0 -21)" fill="#b9cee6"/><g transform="translate(1054.336 269.523)"><path d="M1081.368,390.485c-3.117,4.767-6.364,9.5-9.691,14.169l-1.274-.445c-.244-.087-.488-.175-.724-.262-.349-.122-.69-.253-1.03-.384-1.04-.393-2.078-.8-3.108-1.239l-.052-.027a1.835,1.835,0,0,1-.209-.087c-.062-.027-.132-.052-.192-.079-.376-.149-.751-.314-1.135-.488-.122-.053-.236-.105-.349-.166-.288-.132-.577-.254-.856-.393-.261-.114-.524-.227-.776-.349-.2-.087-.4-.184-.6-.271-.42-.209-.829-.41-1.24-.612l-1.022-.523a1.9,1.9,0,0,1-.192-.1c-.261-.122-.515-.262-.768-.4-.14-.07-.271-.14-.4-.21a.375.375,0,0,1-.114-.06,1,1,0,0,1-.166-.1c-.411-.209-.812-.427-1.214-.646-.192-.105-.375-.209-.567-.323-.043-.027-.1-.052-.14-.079-.542-.306-1.09-.62-1.632-.943-.227-.14-.463-.271-.69-.419-.008-.008-.025-.008-.034-.025a1.474,1.474,0,0,1-.227-.132l-.341-.209c-.218-.131-.436-.262-.646-.393l-.42-.261c-.139-.088-.288-.184-.428-.271-.288-.184-.575-.376-.855-.559-.053-.035-.114-.079-.166-.114s-.088-.062-.132-.088-.1-.06-.139-.1l-.078-.052a.075.075,0,0,0-.035-.018,8.078,8.078,0,0,1-.724-.5c-.306-.184-.595-.384-.883-.594-.017-.018-.044-.027-.061-.044-.035-.018-.07-.053-.1-.07-.131-.1-.253-.184-.376-.271-.044-.027-.087-.062-.122-.087a149.791,149.791,0,0,1,10.442-15.408,34.006,34.006,0,0,1,2.662-2.41c2.269-1.9,5.177-4.252,5.876-5.02Z" transform="translate(-1047.451 -264.871)" fill="#686766"/><g transform="translate(10.695 91.054)"><path d="M1156.045,372.5c-.149.411-.3.829-.436,1.257a154.786,154.786,0,0,0-5.439,23.475c-.017.122-.043.236-.06.358-.341.219-.681.428-1.022.637-.821.5-1.641.987-2.48,1.458-.209.122-.418.236-.629.358l-.863.472c-.367.2-.742.4-1.135.594-.035.018-.078.044-.122.062-1.8.943-3.632,1.833-5.5,2.654-.21.1-.428.192-.647.288-.079.035-.166.07-.244.105-.314.139-.629.271-.943.4-.733.306-1.467.6-2.209.89-.271.1-.532.2-.8.3l-.131.052a1.275,1.275,0,0,1-.157.062c-.245.1-.506.192-.76.288-.166.062-.331.122-.505.184-.114.044-.227.087-.349.131l-.3.105c-.54.192-1.082.375-1.632.559-.759.244-1.52.488-2.279.716-.008,0-.017.008-.025.008-.1.035-.184.053-.279.087-.227.07-.455.132-.682.2-.619.175-1.231.349-1.859.515-.183.053-.358.1-.54.14-.4.105-.812.209-1.214.314-.122.027-.244.06-.366.087-.1.027-.184.043-.279.07s-.167.044-.254.062c-.472.112-.943.218-1.4.331-.027.008-.045.008-.07.017-.192.045-.393.088-.594.122q-.747.17-1.493.314c-.017,0-.035.01-.052.01l-.271.052c-.759.149-1.528.288-2.287.41-1.38.236-2.759.436-4.147.6-.306.044-.611.077-.916.112-.533.062-1.057.114-1.589.157-.332.035-.664.07-1,.1-.575.06-1.134.1-1.711.131-.567.053-1.135.079-1.7.1-.908.06-1.807.079-2.715.1-.192.008-.383.017-.567.008-.043,0-.087.008-.13.008q-.315.014-.629,0c-.2.01-.4.018-.612.018-.4,0-.811-.008-1.213-.018-.812-.008-1.633-.025-2.445-.069-1.431-.053-2.854-.14-4.277-.254-.262-.025-.533-.044-.8-.079-.358-.035-.724-.069-1.082-.114-1.824-.174-3.64-.418-5.456-.716-.7-.122-1.406-.244-2.1-.375-.219-.044-.446-.087-.672-.131l-.6-.105a1.731,1.731,0,0,0-.218-.052c-.341-.07-.672-.14-1.03-.219-.1-.017-.192-.044-.288-.06-.4-.088-.786-.175-1.187-.271h-.01q-2.187-.511-4.364-1.127c-.149-.044-.288-.087-.428-.122q-2.017-.589-4.016-1.266l-1.274-.445c-.244-.087-.488-.175-.724-.262-.349-.122-.69-.253-1.03-.384-1.04-.393-2.078-.8-3.108-1.239l-.052-.027a1.835,1.835,0,0,1-.209-.087c-.062-.027-.132-.052-.192-.079-.376-.149-.751-.314-1.135-.488-.122-.053-.236-.105-.349-.166-.288-.132-.577-.254-.856-.393-.261-.114-.524-.227-.776-.349-.2-.087-.4-.184-.6-.271-.42-.209-.829-.41-1.24-.612l-1.022-.523a1.9,1.9,0,0,1-.192-.1c-.261-.122-.515-.262-.768-.4a152.665,152.665,0,0,1,2.016-23.021,8.146,8.146,0,0,1,.393-1.353c2.287-5.919,12.1-12.231,25.762-15.749,2.234-.576,4.583-1.082,7.018-1.492.8-.132,1.59-.262,2.4-.376,1.013-.139,2.043-.271,3.082-.384.594-.06,1.187-.122,1.791-.174a95.05,95.05,0,0,1,12.081-.279c.8.035,1.615.079,2.428.131,1.518.105,3.037.244,4.573.428.349.035.69.079,1.04.122s.7.087,1.047.149A88.9,88.9,0,0,1,1156.045,372.5Z" transform="translate(-1056.297 -358.261)" fill="#5e5d5b"/><path d="M1134.667,391.052c-.017.122-.043.236-.06.358-.341.219-.681.428-1.022.637-.821.5-1.641.987-2.48,1.458-.209.122-.418.236-.629.358a19.249,19.249,0,0,1,3.71-6.041Z" transform="translate(-1040.795 -352.084)" fill="#424140"/></g><g transform="translate(21.755)"><g transform="translate(13.151 54.366)"><path d="M1087.294,359.75l17.94-.244c5.3-1.355,6.86-2.455,10.483,1.032,13.428,12.919-23.175,34.967-31.021,35.164C1070.976,396.048,1075.752,366.149,1087.294,359.75Z" transform="translate(-1076.324 -321.585)" fill="#424140"/><path d="M1086.541,360.263l18.664-4.308c5.3-1.356,10.991,4.266,10.922,9.293-.134,9.821-20.446,24.323-28.293,24.52C1074.113,390.115,1081.345,366.4,1086.541,360.263Z" transform="translate(-1075.571 -322.098)" fill="#fba479"/><g transform="translate(10.571)"><path d="M1087.756,338.02l-2.688,32.935,28.822-4.086s.491-19.578-.592-37.216C1112.884,322.9,1087.756,338.02,1087.756,338.02Z" transform="translate(-1085.068 -327.915)" fill="#fba479"/><path d="M1087.108,343.225l-1.571,19.249c11.431,5.245,23.021-9.742,26.067-14.8a17.434,17.434,0,0,0,2.072-12.2l-20.035,4.854Z" transform="translate(-1084.97 -326.335)" fill="#ef7950"/></g></g><path d="M1123.552,341.635c-.164-16.153,4.283-31.722-2.84-45.538-2.275-4.414-14.14-10.3-16.428-11.179a14.239,14.239,0,0,0-9.036-1.02c-2.419.353-10.911,5.577-13.721,8.466-5.656,5.813-5.994,11.878-8.234,26.944-.682,4.593-1.542,10.02-2.782,16.531-1.9,9.957,2.241,18.042,8.125,25.738,3.039,3.975,1.439,7.648,7.537,8.308,13.411.827,22.292-7.335,27.9-12.723C1119.107,352.333,1123.62,348.22,1123.552,341.635Z" transform="translate(-1064.484 -282.8)" fill="#fba479"/><path d="M1095.516,347.021c-3.39.166-8.5.781-10.727,3.36l.2-3.285C1088.186,346.029,1092.112,346.816,1095.516,347.021Z" transform="translate(-1061.404 -269.655)" fill="#ef7950"/><path d="M1116.386,303.6c4.016.944,8.274,1.018,10.2-.278,2.207-12.953-7.12-20.736-23.391-20.358-3.689.086-57.855.493-29.641,21.157,6.891,5.046,20.45-2.361,27.581-5.767,2.613-1.249,4.227-2.38,6.454-1.8C1110.216,296.721,1114.838,301.281,1116.386,303.6Z" transform="translate(-1065.446 -282.946)" fill="#261411"/><g transform="translate(8.983 60.881)"><path d="M1103.915,334.178c-1.651,4.04-8.906,13.232-15.422,13.84-5.028.468-12.275-6.843-14.655-9.411,1.99,0,5.527-.3,7.28-.469C1083.087,337.956,1098.975,336.418,1103.915,334.178Z" transform="translate(-1072.675 -333.121)" fill="#873421"/><g transform="translate(3.357 1.366)"><path d="M1098.06,338.835a11.317,11.317,0,0,1-1.725,3.114c-.189.242-.386.487-.578.736-.479.614-.964,1.245-1.477,1.838a13.726,13.726,0,0,1-6.727,3c-2.122.2-4.588-.893-6.931-2.434l-.182-.343a3.389,3.389,0,0,1-.678-.782c-.5-.752-.8-1.674-1.21-2.442C1079.751,341.436,1097.213,338.914,1098.06,338.835Z" transform="translate(-1075.047 -333.514)" fill="#fff"/><path d="M1101.2,334.434c-.571,2.1-1.278,4.659-2.59,5.664a20.6,20.6,0,0,1-4.276,1.107c-5.124,1.011-13.195,2.122-14.895,1.228a11.126,11.126,0,0,1-3.557-4.056c-.076-.127-.151-.253-.226-.382.2-.013.406-.023.623-.04.763-.046,1.61-.11,2.526-.185C1085.578,337.212,1095.9,335.937,1101.2,334.434Z" transform="translate(-1075.653 -334.434)" fill="#fff"/><path d="M1098.568,339.521c-1.093.539-17.471,3.229-19.171,2.336a11.125,11.125,0,0,1-3.557-4.056l.4-.422c.763-.046,1.61-.11,2.525-.185a18.933,18.933,0,0,0,1.3,3.12c.264.494.221.5.678.654C1081.418,341.205,1096.645,339.677,1098.568,339.521Z" transform="translate(-1075.614 -333.857)" fill="#e8e6e6"/></g><path d="M1104.479,333.636a7.622,7.622,0,0,1-1.2.55c-.436.166-.943.323-1.5.488h-.01c-.157.044-.314.087-.488.131-.157.045-.331.088-.507.132l-.331.079c-.1.025-.192.052-.288.07-.018.008-.035.008-.053.017-.078.017-.166.044-.253.06-.027.01-.052.01-.087.018s-.062.008-.088.017a.382.382,0,0,1-.1.018.211.211,0,0,1-.07.017.65.65,0,0,1-.131.035c-.07.018-.14.027-.21.044a1.33,1.33,0,0,1-.209.044c-.052.01-.105.027-.157.035-.122.027-.253.053-.384.079a.311.311,0,0,1-.087.018c-.1.025-.218.052-.323.069a.454.454,0,0,0-.105.018,2.126,2.126,0,0,1-.226.043c-.07.017-.132.027-.2.044s-.157.027-.226.035c-.114.027-.227.052-.341.07s-.2.035-.3.052a.118.118,0,0,1-.053.008c-.035.008-.069.008-.1.018l-.122.025c-.035.01-.078.01-.114.018s-.062.008-.087.017a.255.255,0,0,1-.08.008c-.009,0-.009,0-.017.01a.261.261,0,0,0-.078.017c-.027,0-.061.008-.087.008a.073.073,0,0,1-.043.01c-.1.017-.2.044-.306.052l-.306.052a1.307,1.307,0,0,1-.192.035,2.263,2.263,0,0,1-.236.035c-.2.035-.392.07-.6.105h-.025c-.078.017-.157.025-.236.035l-.01.008c-.043.008-.087.008-.13.017-.149.027-.3.043-.453.07-.088.017-.184.027-.279.044-.132.018-.254.044-.384.062-.166.025-.333.044-.5.069l-.716.105c-.105.017-.209.027-.314.043-.157.018-.314.044-.472.07-.06.008-.114.008-.166.017a.608.608,0,0,1-.131.018c-.149.027-.3.044-.455.06-.1.018-.192.035-.288.044-.236.035-.48.062-.724.1-.088.008-.175.025-.262.035a1.338,1.338,0,0,0-.174.017.252.252,0,0,1-.078.008c-.245.035-.49.062-.734.1h-.008c-.053.008-.105.008-.166.017-.236.027-.481.062-.725.088-.087.008-.174.025-.261.034l-.21.027c-.182.017-.358.035-.523.052l-.418.053c-.123.017-.245.025-.359.043s-.236.027-.358.035l-.951.1c-.052,0-.1.01-.157.01a.031.031,0,0,1-.025.008l-.525.052a.252.252,0,0,0-.078.008.221.221,0,0,0-.078.01c-.131.008-.261.025-.393.035s-.244.025-.366.034c-.227.027-.453.053-.681.07-.393.035-.786.07-1.161.105-.279.025-.55.043-.821.07l-.341.025c-.192.018-.384.035-.567.044a.936.936,0,0,1-.149.008l-.341.027a2.18,2.18,0,0,1-.236.018l-.3.025c-.1.01-.21.01-.314.018s-.184.017-.271.017c-.114.008-.219.018-.323.018h-.018l-.279.025c-.925.044-1.7.079-2.269.079a4.239,4.239,0,0,1-1.092-.087s1.109,1.292,2.829,2.968c.209.209.437.419.664.637.122.122.253.244.383.368a39.321,39.321,0,0,0,5.055,4.05c.079.052.157.1.236.149.157.1.306.192.463.288.061.035.122.079.182.114.157.1.3.174.446.262a.438.438,0,0,1,.061.025c.114.07.236.132.349.192a3.454,3.454,0,0,0,.349.184c.184.1.366.183.559.271.13.06.271.122.411.183.348.149.7.279,1.039.393.244.07.5.14.733.2.2.044.4.088.594.114a4.02,4.02,0,0,0,.463.052,4.564,4.564,0,0,0,.5.027c.182,0,.366-.008.55-.027.2-.017.4-.043.61-.077a2.016,2.016,0,0,0,.2-.036c.122-.025.244-.043.376-.077s.253-.062.383-.1l.349-.105h.018c.061-.025.131-.044.191-.069s.123-.044.184-.062c.008,0,.026-.008.035-.008l.341-.131c.1-.035.192-.079.3-.114.14-.062.279-.131.42-.192a.477.477,0,0,1,.1-.043c.1-.053.192-.1.289-.14.148-.079.3-.157.453-.244.288-.149.559-.314.838-.48.01,0,.01-.008.018-.008.122-.079.253-.157.384-.236,0-.01.017-.018.026-.018.132-.1.262-.183.393-.271a.008.008,0,0,0,.008-.008c.122-.07.219-.149.333-.226.157-.114.323-.236.48-.359.341-.253.681-.524,1.013-.811a33.2,33.2,0,0,0,5.063-5.361c.393-.523.759-1.039,1.1-1.537.2-.3.393-.594.577-.881.149-.253.3-.507.437-.751a13.752,13.752,0,0,0,.769-1.483c.043-.088.078-.175.112-.262a6.93,6.93,0,0,0,.279-.794,2.984,2.984,0,0,0,.105-.49A2.446,2.446,0,0,1,1104.479,333.636Zm-.428.881c0,.008,0,.008-.008.018l-.079.191c-.018.035-.044.088-.062.132l-.025.035-.01.017c-.008.017-.008.035-.017.052-.035.07-.07.132-.105.21-.009.008-.009.025-.017.035l-.009.008c-.078.157-.167.331-.262.5-.052.1-.114.2-.174.306s-.105.184-.157.279c-.07.114-.14.236-.219.358q-.143.236-.314.5c-.009.008-.009.017-.017.027-.132.2-.279.418-.42.637-.017.017-.027.035-.044.052-.044.06-.087.122-.13.192l-.053.079c-.078.1-.147.2-.226.306-.027.044-.053.077-.079.112-.079.123-.175.245-.271.368-.079.1-.166.218-.254.331-.052.07-.1.14-.157.2-.025.035-.052.079-.078.114a.737.737,0,0,0-.1.122l-.236.288-.349.428a.857.857,0,0,0-.07.087.2.2,0,0,0-.052.062.35.35,0,0,0-.052.062c-.122.148-.254.288-.384.436-.008.008-.017.025-.027.034-.157.184-.314.358-.48.542a.009.009,0,0,1-.009.01.4.4,0,0,0-.062.069c-.087.087-.166.175-.253.262s-.166.184-.253.271-.167.174-.254.261a.417.417,0,0,1-.061.062.628.628,0,0,0-.078.087c-.043.035-.079.079-.122.114-.1.105-.2.2-.306.306a.11.11,0,0,1-.035.025,1.918,1.918,0,0,1-.192.192c-.1.087-.192.184-.288.271a.464.464,0,0,1-.07.062.98.98,0,0,1-.087.087.008.008,0,0,0-.008.008l-.01.008c-.052.044-.1.1-.156.14a1.393,1.393,0,0,0-.132.114.453.453,0,0,1-.07.06.3.3,0,0,1-.061.052l-.219.192a.378.378,0,0,1-.035.027c-.174.157-.358.306-.532.453-.1.07-.184.149-.279.219a1.546,1.546,0,0,1-.149.114c-.1.079-.2.157-.306.236q-.457.341-.917.655c-.157.1-.314.209-.472.3a.029.029,0,0,1-.017.008c-.14.088-.271.175-.411.254s-.288.174-.436.253-.288.157-.436.227c-.131.07-.27.131-.4.192a.263.263,0,0,1-.061.035l-.419.183c-.139.062-.279.122-.428.175l-.366.131c-.026.008-.052.018-.087.027a.5.5,0,0,1-.114.035,6.688,6.688,0,0,1-.69.191,1.267,1.267,0,0,1-.174.045c-.052.008-.114.025-.174.034-.018,0-.045.01-.07.01-.009,0-.018.008-.027.008h-.008l-.131.027c-.035.008-.07.008-.105.017-.07.008-.149.017-.219.027l-.234.025c-.079.009-.157.009-.227.018a2.3,2.3,0,0,1-.341,0,2.068,2.068,0,0,1-.244-.01.817.817,0,0,0-.14-.009c-.034,0-.069-.008-.1-.008h-.035a2.591,2.591,0,0,1-.271-.035.213.213,0,0,1-.07-.017c-.139-.018-.279-.044-.418-.07-.122-.027-.236-.052-.358-.087-.07-.027-.14-.043-.21-.07a.65.65,0,0,1-.13-.035c-.009.008-.009,0-.017,0-.123-.035-.236-.079-.358-.122-.027-.008-.062-.017-.088-.027-.078-.035-.166-.06-.253-.1-.149-.052-.288-.114-.436-.174-.087-.035-.166-.07-.254-.114-.113-.053-.236-.105-.358-.167-.043-.017-.1-.044-.147-.069-.149-.079-.306-.157-.463-.244-.1-.053-.209-.114-.323-.175a1.994,1.994,0,0,1-.262-.157c-.052-.027-.114-.06-.174-.1-.018-.01-.035-.027-.053-.035s-.017-.008-.025-.008c-.062-.044-.132-.079-.192-.114-.044-.035-.1-.062-.149-.1-.149-.1-.3-.183-.445-.288a.067.067,0,0,1-.035-.017c-.149-.1-.288-.192-.436-.3a.275.275,0,0,1-.062-.044.468.468,0,0,1-.079-.052c-.218-.149-.436-.306-.646-.463h-.008v-.008h-.009c-.078-.062-.167-.122-.245-.184a.484.484,0,0,1-.078-.062c-.069-.044-.131-.1-.2-.148s-.147-.114-.226-.184h-.01c-.087-.062-.166-.131-.253-.2-.008,0-.008-.008-.018-.017-.087-.07-.174-.132-.261-.2-.131-.114-.262-.219-.393-.332-.122-.087-.236-.192-.349-.288-.07-.062-.139-.114-.2-.175-.122-.1-.236-.191-.349-.3s-.227-.2-.34-.3c-.219-.2-.446-.393-.655-.594-.105-.1-.209-.191-.306-.288a1.148,1.148,0,0,1-.147-.139l-.053-.053a1.085,1.085,0,0,0-.1-.087c-.053-.052-.1-.1-.149-.14-.078-.079-.166-.157-.244-.236-.157-.148-.306-.3-.455-.445-.218-.218-.428-.428-.629-.637-.13-.131-.261-.262-.375-.384-.105-.1-.2-.2-.289-.3-.079-.079-.147-.157-.209-.227l-.017-.017a.139.139,0,0,1-.035-.035l-.132-.132a.114.114,0,0,1-.025-.034l-.087-.088v-.008a.6.6,0,0,0,.174,0c.137,0,.282,0,.433-.006.07,0,.132,0,.2,0s.149-.008.227-.008c.174-.01.358-.018.55-.027a1.536,1.536,0,0,0,.192-.008,1.51,1.51,0,0,0,.191-.008c.088,0,.167-.01.245-.01s.166-.008.253-.017a2.207,2.207,0,0,0,.244-.017.3.3,0,0,0,.1-.01h.044l.366-.025.794-.053c.157-.008.314-.025.472-.035s.323-.025.488-.035v-.008c.053,0,.114-.008.167-.008.1-.008.209-.017.3-.027h.053c.061-.008.122-.008.183-.017.026,0,.053-.008.07-.008.132-.008.254-.018.376-.035l.619-.052c.184-.018.358-.027.515-.044h.027c.035-.01.087-.01.131-.018a.345.345,0,0,0,.088-.008h.087a.084.084,0,0,1,.052-.01h.008c.018,0,.043-.008.07-.008l.306-.025c.236-.027.523-.062.838-.087l.209-.027h.053c.1-.018.218-.027.331-.035.174-.018.349-.035.532-.062.105-.008.21-.017.324-.034.148-.018.3-.035.462-.053a.312.312,0,0,0,.088-.008c.008.008.008.008.008,0h.008a.159.159,0,0,0,.062-.008h.069c.105-.018.21-.027.314-.035.087-.008.175-.027.271-.035l.21-.027c.156-.017.313-.035.48-.052h.008c.174-.017.349-.044.532-.06.227-.027.463-.062.7-.088.052-.008.1-.008.157-.017h.008c.044-.008.078-.008.122-.018.018,0,.035-.008.053-.008.1-.008.2-.027.3-.035l.647-.079c.035-.008.06-.008.087-.017s.044-.008.06-.008c.132-.018.254-.027.385-.045s.279-.035.42-.06c.157-.018.306-.035.453-.062.14-.008.289-.034.428-.052.209-.027.42-.06.637-.087a1.627,1.627,0,0,1,.227-.035.4.4,0,0,1,.044-.008l.742-.105c.209-.027.418-.06.629-.1a2.723,2.723,0,0,0,.349-.053c.035-.008.079-.008.112-.017.1-.008.184-.027.281-.035.209-.035.418-.07.637-.105l.166-.025c.043-.01.087-.018.139-.027a.718.718,0,0,0,.14-.027c.149-.017.306-.044.453-.07l.446-.077h.009c.122-.018.253-.044.384-.07a.149.149,0,0,0,.06-.008h.009c.367-.062.725-.132,1.083-.2.017,0,.043-.01.06-.01a.33.33,0,0,0,.1-.017c.122-.018.236-.044.358-.07l.149-.027c.025-.008.061-.008.1-.017s.052-.008.087-.017l.236-.053c.13-.017.254-.044.376-.07.017,0,.035-.008.052-.008.358-.087.707-.157,1.038-.236.132-.025.254-.052.376-.087l.445-.105c.07-.017.131-.034.184-.043.271-.069.523-.131.768-.2l.062-.017c.147-.043.3-.087.436-.122s.279-.088.41-.123a.632.632,0,0,1,.07-.025l.157-.052c.149-.053.3-.1.437-.149s.279-.1.4-.149c.052-.017.105-.043.157-.06a2.256,2.256,0,0,0,.3-.123H1104c.008-.008.017-.008.025-.017a.065.065,0,0,0,.043-.017c.018-.01.035-.01.045-.018a.122.122,0,0,1-.018.052c0,.01-.008.018-.008.027A.578.578,0,0,1,1104.051,334.518Z" transform="translate(-1072.876 -333.304)" fill="#e26939"/></g><path d="M1125.306,321.408l-2.061-4.433c-1.8.145-3.643.87-5.554,1-2.476,21.731-16.281,37.326-25.1,39.335-.574-1.555-2.083-2.605-2.151-4.311-2.31.12-1.357,3.088-2.786,3.829-1.3.672-14.336-8.627-16.715-14.438-.52,2.57,6.044,20.688,7.56,23.259,2.477,4.2,6.3,7.5,9.424,11.24.169-.626.675-1.105.8-1.734,1.128.759,2.534,3.663,3.29,5.006a22.493,22.493,0,0,0,9.332-8.818c.308.832.811,1.59,1.144,2.4C1114.4,359.1,1126.377,341.048,1125.306,321.408Z" transform="translate(-1064.304 -275.835)" fill="#261411"/><path d="M1086.617,333.786l-6.336-.235c-4.12,2.327-9.345,6-13.484,8.927,3.186.117,17.559-2.592,20.86-3.563A12.855,12.855,0,0,0,1086.617,333.786Z" transform="translate(-1065.164 -272.371)" fill="#261411"/><path d="M1084.846,333.842l5.984-2.094c4.626,1.008,10.7,2.972,15.522,4.552-3.007,1.052-17.541,2.7-20.982,2.749A12.882,12.882,0,0,1,1084.846,333.842Z" transform="translate(-1061.409 -272.748)" fill="#261411"/><g transform="translate(13.012 34.398)"><path d="M1089.322,337.154c-1.944-1.227-6.914-.289-8.311-1.331-1.106-.827,3.151-18.106-2.839-24.425,3.77,7.954.238,21.843-1.964,26.844A20.772,20.772,0,0,0,1089.322,337.154Z" transform="translate(-1076.209 -311.398)" fill="#ef7950"/></g><g transform="translate(3.561 29.74)"><g transform="translate(22.403 1.922)"><path d="M1087.292,313.218c-1.266,2.176,1.07,7.815,1.678,9.733l2.752.688c-.5-1.373-2.627-5.679-.122-10.267,1.263-2.313,4.467-3.818,5-4.237C1095.717,309.54,1088.193,311.668,1087.292,313.218Z" transform="translate(-1086.922 -309.135)" fill="#ef7950"/><path d="M1104.33,319.632c-.007.017-.019.04-.028.058a4.4,4.4,0,0,1-2.211,1.9,17.747,17.747,0,0,1-6.514,1.321c-2.817.1-5.56-.3-6.961-1.146.081-.069.158-.134.231-.2.021-.017.037-.034.054-.051a5.967,5.967,0,0,0,.5-.525l.021-.025c2.162-2.579,1.266-5.808,4.929-6.131a12.426,12.426,0,0,1,1.3-.041,10.819,10.819,0,0,1,6.336,2.049,7.785,7.785,0,0,1,2.337,2.776Z" transform="translate(-1086.568 -307.953)" fill="#fff"/><g transform="translate(4.992 6.643)"><path d="M1091.13,318.5c-.433,2.544.954,4.965,3.1,5.406s4.233-1.255,4.665-3.8-.953-4.966-3.1-5.408S1091.563,315.956,1091.13,318.5Z" transform="translate(-1091.051 -314.63)" fill="#6d4a44"/><path d="M1091.542,318.055a2.922,2.922,0,0,0,1.988,3.471,2.683,2.683,0,0,0,3-2.439,2.924,2.924,0,0,0-1.989-3.471A2.684,2.684,0,0,0,1091.542,318.055Z" transform="translate(-1090.958 -314.433)" fill="#261411"/><path d="M1094.994,317.68l4.9.115s.284,2.193-.413,2.391C1098.319,320.519,1094.994,317.68,1094.994,317.68Z" transform="translate(-1090.226 -313.992)" fill="#fff"/></g><path d="M1104.221,320.087a6.751,6.751,0,0,0-2.387-2.355,10.815,10.815,0,0,0-6.336-2.052,5.523,5.523,0,0,0-.86.006c-3.381.3-3.559,3.922-5.5,5.92,1.483-1.957,1.125-5.338,1.689-7.436a2.366,2.366,0,0,1,2.1-1.515,12.37,12.37,0,0,1,1.3-.042,10.829,10.829,0,0,1,6.336,2.05,5.852,5.852,0,0,1,2.107,2.344C1102.664,317.023,1104.181,319.977,1104.221,320.087Z" transform="translate(-1086.458 -308.409)" fill="#6d4a44"/><path d="M1104.232,320.149a6.989,6.989,0,0,0-.76-1.22,8.117,8.117,0,0,0-1.577-1.556,10.819,10.819,0,0,0-6.336-2.049,12.426,12.426,0,0,0-1.3.041c-3.656.323-3.041,3.848-5.191,6.424,1.482-1.957,1.213-5.445,1.776-7.544a2.289,2.289,0,0,1,2.142-1.948,12.708,12.708,0,0,1,1.3-.042,10.823,10.823,0,0,1,6.336,2.05,5.834,5.834,0,0,1,2.107,2.344C1102.724,316.677,1104.145,319.919,1104.232,320.149Z" transform="translate(-1086.473 -308.484)" fill="#ef7950"/><path d="M1104.331,318.787a5.016,5.016,0,0,1-2.328,2.8,16.23,16.23,0,0,1-6.515,1.32,13.242,13.242,0,0,1-6.872-1.979c1.4.843,4.147,1.244,6.963,1.149a17.777,17.777,0,0,0,6.514-1.324,4.388,4.388,0,0,0,2.211-1.9Z" transform="translate(-1086.568 -307.118)" fill="#ef7950"/><path d="M1088.9,321.661l1.786,1.939c3.594,1.635,6.955.132,9.333-.34C1096.608,323.938,1091.57,323.234,1088.9,321.661Z" transform="translate(-1086.507 -306.517)" fill="#ef7950"/></g><g transform="translate(3.172 7.213)"><path d="M1079.552,320.969s-1.114,2.582-1.833,3.082a7.219,7.219,0,0,1-2.313.689,7.608,7.608,0,0,0,3.429-.465c.3-.14,1.323-.5,1.473-.858C1080.475,323.019,1079.647,321.345,1079.552,320.969Z" transform="translate(-1070.097 -311.953)" fill="#ef7950"/><path d="M1071.017,321.4l.022.056a3.574,3.574,0,0,0,1.515,1.724,7.426,7.426,0,0,0,4.079.879,6.011,6.011,0,0,0,4.129-1.569c-.054-.06-.108-.121-.157-.183-.015-.016-.027-.03-.04-.047a5.8,5.8,0,0,1-.35-.481l-.016-.024c-1.545-2.389-1.289-5.61-3.546-5.692a4.681,4.681,0,0,0-.794.045,5.277,5.277,0,0,0-3.669,2.412,8.028,8.028,0,0,0-1.17,2.868Z" transform="translate(-1071.015 -312.978)" fill="#fff"/><g transform="translate(2.055 2.797)"><path d="M1072.716,320.316c-.043,2.563.99,4.711,2.313,4.795s2.43-1.926,2.474-4.489-.99-4.713-2.313-4.795S1072.76,317.752,1072.716,320.316Z" transform="translate(-1072.715 -315.825)" fill="#6d4a44"/><path d="M1074.007,320.3c-.03,1.645.636,3.024,1.483,3.077s1.561-1.233,1.587-2.881-.636-3.022-1.485-3.077S1074.034,318.661,1074.007,320.3Z" transform="translate(-1072.445 -315.491)" fill="#261411"/><path d="M1075.7,318.814l1.128-.039s.955,2.208.555,2.516C1076.712,321.807,1075.7,318.814,1075.7,318.814Z" transform="translate(-1072.091 -315.208)" fill="#fff"/></g><path d="M1071.017,321.863a6.2,6.2,0,0,1,1.24-2.459,5.271,5.271,0,0,1,3.668-2.414,2.031,2.031,0,0,1,.522-.05c2.083.075,2.515,3.615,3.874,5.449-1.076-1.823-1.163-5.158-1.691-7.176-.308-.8-.735-1.326-1.41-1.352a4.893,4.893,0,0,0-.793.042,5.271,5.271,0,0,0-3.668,2.414,5.782,5.782,0,0,0-1.072,2.429C1071.689,318.764,1071.033,321.753,1071.017,321.863Z" transform="translate(-1071.015 -313.439)" fill="#6d4a44"/><path d="M1071.018,321.923a8.413,8.413,0,0,1,.353-1.244,7.536,7.536,0,0,1,.817-1.624,5.277,5.277,0,0,1,3.669-2.412,4.684,4.684,0,0,1,.794-.045c2.254.083,2.636,5.091,4.109,6.427-.613-2.255-1.6-5.721-2.131-7.74-.272-1.034-.69-1.745-1.477-1.772a4.791,4.791,0,0,0-.794.042,5.277,5.277,0,0,0-3.667,2.413,5.788,5.788,0,0,0-1.072,2.431C1071.624,318.427,1071.051,321.693,1071.018,321.923Z" transform="translate(-1071.014 -313.511)" fill="#ef7950"/><path d="M1071.015,320.473a7.432,7.432,0,0,0,1.954,3.054,5.734,5.734,0,0,0,3.743.794c1.72-.085,3.271-1.844,4.05-2.759a6.018,6.018,0,0,1-4.129,1.569,7.418,7.418,0,0,1-4.08-.879,3.567,3.567,0,0,1-1.515-1.724C1071.032,320.513,1071.022,320.49,1071.015,320.473Z" transform="translate(-1071.015 -312.057)" fill="#ef7950"/></g><path d="M1087.42,308.247c.636-.164,1.85-.4,1.85-.4l2.03,1.955s-.317-2.065.039-2.1c9.368-.982,13.236,2.975,13.236,2.975-12.737-1.274-14.579,3.928-17.8,3.524C1084.321,313.892,1084.965,309.483,1087.42,308.247Z" transform="translate(-1064.873 -307.546)" fill="#261411"/><path d="M1079.4,309.724c-.643-.132-1.868-.3-1.868-.3l-1.925,2.058s.207-2.078-.149-2.1a6.936,6.936,0,0,0-7.066,4.769c12.653-1.933,8.771,2.055,11.963,1.485C1082.792,315.2,1081.915,310.83,1079.4,309.724Z" transform="translate(-1068.391 -307.164)" fill="#261411"/></g><g transform="translate(55.416 35.594)"><path d="M1113.3,313.943c2.314-2.526,8.449-1.828,10.293,1.028,2.053,3.172-5.482,16.119-8.589,15.483C1107.784,328.974,1113.3,313.943,1113.3,313.943Z" transform="translate(-1111.283 -312.387)" fill="#fba479"/><path d="M1112.3,321.1a23.363,23.363,0,0,1,.491-3.3,15.236,15.236,0,0,1,.6-1.662,3.63,3.63,0,0,1,.411-.826c1.33-1.719,3.564-1.318,5.156-1.157a4.721,4.721,0,0,1,2.295.635c.4.352.481,1.093.655,1.558-1.006-1.539-3.934-1.428-5.477-.811-1.608.646-2.621,3.165-2.422,4.85a2.447,2.447,0,0,1,1.847,3.065c-.4,1.211-3,1.423-3.141.134C1114.921,323.594,1113.507,321.536,1112.3,321.1Z" transform="translate(-1111.071 -312.051)" fill="#ef7950"/></g></g><g transform="translate(74.825 106.529)"><path d="M1155.139,382.176c-1.406,1.388-2.846,2.732-4.322,4.015-.427.368-.855.734-1.283,1.092-.323.271-.655.542-.987.811s-.647.525-.97.777q-2.526,2.017-5.159,3.824c-.279.192-.568.384-.856.567q-1.257.852-2.54,1.65c-.341.219-.681.428-1.022.637-.821.5-1.641.987-2.48,1.458-.209.122-.418.236-.629.358l-.863.472c-.367.2-.742.4-1.135.594-.035.018-.078.043-.122.062-1.8.943-3.632,1.833-5.5,2.654-.21.1-.428.192-.647.288-.079.035-.166.07-.244.105-.314.139-.629.271-.943.4-.733.306-1.467.6-2.209.89-.271.1-.532.2-.8.3l-.131.052a1.275,1.275,0,0,1-.157.062c-.245.1-.506.192-.76.288-.166.062-.331.122-.505.184-.114.044-.227.087-.349.131l-.3.105c-.54.192-1.082.375-1.632.559-.759.244-1.52.488-2.279.716-.008,0-.017.008-.025.008-.1.035-.184.053-.279.087-.227.07-.455.132-.682.2-.619.175-1.231.349-1.859.515-.183.053-.358.1-.54.14-.4.105-.812.209-1.214.314-.122.027-.244.06-.366.087-.1.027-.184.043-.279.07s-.167.044-.254.062c-.472.112-.943.218-1.4.331-.027.008-.045.008-.07.017q1.872-3.745,3.841-7.262c9.036-16.134,19.39-28.136,29.646-28.7a15.558,15.558,0,0,1,1.694-.008C1150.87,371.43,1154.047,375.926,1155.139,382.176Z" transform="translate(-1109.342 -371.061)" fill="#686766"/><g transform="translate(0 28.732)"><path d="M1113.183,394.827c-.846,2.269-1.624,4.583-2.366,6.914-.472.112-.943.218-1.4.331-.027.008-.045.008-.07.017Q1111.214,398.345,1113.183,394.827Z" transform="translate(-1109.342 -394.827)" fill="#424140"/></g></g></g></g></svg>