<svg xmlns="http://www.w3.org/2000/svg" width="581.121" height="581.119" viewBox="0 0 581.121 581.119"><g transform="translate(1564.581 5118.484)"><path d="M842.979,3885.87l-.662,1.145a22.408,22.408,0,0,1-1.892,18.1,22.784,22.784,0,0,1-20.056,11.292,25.246,25.246,0,0,1-12.6-3.405,24.856,24.856,0,0,1-11.465-14.311,22.372,22.372,0,0,1,16.7-28.6l.661-1.147-42.029-24.263a123.726,123.726,0,0,1-30.1,32.473l.765,1.325a22.4,22.4,0,0,1,14.729,10.689c6.384,11.06,2.124,25.513-9.5,32.222a25.24,25.24,0,0,1-12.6,3.405,22.788,22.788,0,0,1-20.056-11.294,22.4,22.4,0,0,1-1.892-18.1l-1.063-1.843a122.682,122.682,0,0,1-44.4,8.238v56.033l-9.336,0a17.316,17.316,0,0,0-14.041-7.408c-9.78,0-17.706,8.454-17.706,18.883s7.928,18.887,17.706,18.887a17.318,17.318,0,0,0,14.041-7.41h9.336V4033c91.865,0,170.6-44.46,217.793-122.681Z" transform="translate(-1941.549 -8606.205)" fill="#388af5"/><path d="M653.441,3945.411a22.4,22.4,0,0,1,16.621,7.41h1.306v-50.715a122.092,122.092,0,0,1-42.245-9.439l-.782,1.357a22.408,22.408,0,0,1-1.893,18.1,22.8,22.8,0,0,1-20.056,11.292,25.261,25.261,0,0,1-12.6-3.407A24.833,24.833,0,0,1,582.33,3905.7a22.369,22.369,0,0,1,16.694-28.6l.969-1.678a123.816,123.816,0,0,1-30.115-34.96l-49.562,28.615-4.635-8.028a17.312,17.312,0,0,0-.6-15.864c-4.889-8.471-16.174-11.109-25.207-5.893s-12.391,16.309-7.5,24.777a17.314,17.314,0,0,0,13.437,8.454l4.636,8.028-44.219,25.53c45.934,79.558,123.806,125.513,215.145,127.273v-46.684h-1.306a22.4,22.4,0,0,1-16.621,7.413c-12.768,0-23.156-10.917-23.156-24.337S640.673,3945.411,653.441,3945.411Z" transform="translate(-1950.838 -8606.646)" fill="#3874b7"/><path d="M556.21,3804.9H554.5a22.4,22.4,0,0,1-16.621,7.409c-12.769,0-23.156-10.92-23.157-24.335s10.388-24.333,23.157-24.333a22.409,22.409,0,0,1,16.621,7.408h1.848a122.865,122.865,0,0,1,15.32-44.221l-47.537-27.444,4.459-7.722a17.311,17.311,0,0,0,13.438-8.455c4.89-8.469,1.532-19.561-7.5-24.776s-20.32-2.577-25.209,5.89a17.309,17.309,0,0,0-.6,15.866l-4.458,7.722-46.221-26.685c-45.934,79.559-46.8,169.977-2.652,249.957l39.426-22.762-.62-1.075a22.405,22.405,0,0,1-14.729-10.689c-6.383-11.059-2.123-25.512,9.5-32.221a25.243,25.243,0,0,1,12.6-3.408,22.793,22.793,0,0,1,20.056,11.294,22.409,22.409,0,0,1,1.893,18.1l.62,1.074,44.951-25.952A122.972,122.972,0,0,1,556.21,3804.9Z" transform="translate(-1952.655 -8616.514)" fill="#cc3000"/><path d="M535.293,3660.023c11.62,6.708,15.881,21.163,9.5,32.22a22.4,22.4,0,0,1-14.728,10.689l-.443.769,42.93,24.785a123.918,123.918,0,0,1,29.417-31.929l-.375-.65a22.408,22.408,0,0,1-14.728-10.689c-6.382-11.059-2.122-25.512,9.5-32.222a25.237,25.237,0,0,1,12.595-3.406,22.79,22.79,0,0,1,20.057,11.294,22.406,22.406,0,0,1,1.894,18.1l.555.961a122.566,122.566,0,0,1,45.213-8.567v-52.4h9.582a17.308,17.308,0,0,0,14.041,7.411c9.778,0,17.707-8.454,17.707-18.885s-7.929-18.886-17.707-18.886a17.308,17.308,0,0,0-14.041,7.411h-9.582v-55.851c-91.868,0-170.6,44.46-217.8,122.681l41.428,23.918.444-.768a22.406,22.406,0,0,1,1.892-18.1,22.789,22.789,0,0,1,20.056-11.292A25.243,25.243,0,0,1,535.293,3660.023Z" transform="translate(-1950.693 -8622.82)" fill="#21456e"/><path d="M843.407,3702.6l-4.609-7.984,46.917-27.088c-45.932-79.559-123.8-125.514-215.145-127.275v50.318h1.554a22.4,22.4,0,0,1,16.62-7.41c12.768,0,23.155,10.916,23.155,24.335s-10.388,24.334-23.155,24.334a22.4,22.4,0,0,1-16.62-7.41h-1.554v47.083a122.158,122.158,0,0,1,42.1,9.38l.922-1.6a22.41,22.41,0,0,1,1.895-18.1,22.792,22.792,0,0,1,20.056-11.294,25.25,25.25,0,0,1,12.6,3.406,24.845,24.845,0,0,1,11.462,14.31,22.366,22.366,0,0,1-16.693,28.6l-1.089,1.887a123.7,123.7,0,0,1,30.238,35.054l46.864-27.057,4.607,7.985a17.314,17.314,0,0,0,.6,15.865c4.89,8.469,16.176,11.108,25.208,5.892s12.392-16.309,7.5-24.778A17.328,17.328,0,0,0,843.407,3702.6Z" transform="translate(-1939.142 -8622.816)" fill="#ff3c00"/><path d="M883.114,3665.461l-42.125,24.321.6,1.03a22.412,22.412,0,0,1,14.729,10.689c6.383,11.058,2.123,25.512-9.5,32.222a25.24,25.24,0,0,1-12.6,3.408,22.8,22.8,0,0,1-20.056-11.3,22.414,22.414,0,0,1-1.892-18.1l-.595-1.029L769.425,3731.1a123.035,123.035,0,0,1,13.01,41.856h1.314a22.411,22.411,0,0,1,16.621-7.409c12.768,0,23.157,10.916,23.157,24.333s-10.39,24.333-23.157,24.333a22.406,22.406,0,0,1-16.621-7.408h-1.8a122.988,122.988,0,0,1-15.136,43l46.639,26.927-4.679,8.1a17.322,17.322,0,0,0-13.437,8.455c-4.891,8.469-1.531,19.562,7.5,24.777s20.321,2.579,25.208-5.891a17.313,17.313,0,0,0,.6-15.866l4.677-8.1,47.136,27.213C926.4,3835.862,927.257,3745.443,883.114,3665.461Z" transform="translate(-1933.89 -8615.984)" fill="#ff8e00"/><path d="M814.1,3771.887a17.3,17.3,0,0,0-14.038,7.411h-8.819a117.9,117.9,0,0,0-48.06-85.713l4.777-8.274a17.309,17.309,0,0,0,13.435-8.454c4.89-8.469,1.533-19.562-7.5-24.777s-20.318-2.578-25.208,5.893a17.311,17.311,0,0,0-.6,15.864l-4.659,8.073a118.076,118.076,0,0,0-97.362-1.035l-4.24-7.345a17.315,17.315,0,0,0-.6-15.864c-4.89-8.469-16.176-11.107-25.208-5.893s-12.391,16.307-7.5,24.779a17.315,17.315,0,0,0,13.438,8.453l4.114,7.126a117.969,117.969,0,0,0-49.92,84.737H546.89a17.314,17.314,0,0,0-14.039-7.408c-9.779,0-17.708,8.455-17.708,18.884s7.928,18.884,17.708,18.886a17.312,17.312,0,0,0,14.039-7.409h9.161a117.914,117.914,0,0,0,47.841,84.412l-4.655,8.062a17.306,17.306,0,0,0-13.434,8.455c-4.891,8.468-1.533,19.561,7.5,24.775s20.318,2.577,25.209-5.891a17.312,17.312,0,0,0,.6-15.864l4.522-7.835a118.155,118.155,0,0,0,96.706,1.458l4.731,8.2a17.319,17.319,0,0,0,.6,15.863c4.89,8.47,16.176,11.11,25.205,5.893s12.392-16.308,7.505-24.778a17.31,17.31,0,0,0-13.438-8.453l-4.523-7.83a117.986,117.986,0,0,0,50.481-84.033h9.157a17.306,17.306,0,0,0,14.038,7.411c9.781,0,17.707-8.455,17.707-18.885S823.884,3771.887,814.1,3771.887ZM673.6,3872.509a83.557,83.557,0,1,1,83.555-83.558A83.557,83.557,0,0,1,673.6,3872.509Z" transform="translate(-1947.623 -8616.877)" fill="#dfdfdf"/><g transform="translate(-1564.581 -5118.485)"><path d="M680.437,4087.31c-160.216,0-290.56-130.344-290.56-290.561s130.344-290.559,290.56-290.559S971,3636.536,971,3796.749,840.652,4087.31,680.437,4087.31Zm0-576.794c-157.831,0-286.234,128.4-286.234,286.233s128.4,286.233,286.234,286.233,286.232-128.4,286.232-286.233S838.267,3510.516,680.437,3510.516Z" transform="translate(-389.877 -3506.19)" fill="#989998"/></g><g transform="translate(-1387.044 -5039.997)"><path d="M605.673,3617.363l-8.875-8.875.642-.642.226.225a.767.767,0,0,0,1.087,0l2.306-2.306a.768.768,0,0,0,0-1.087l-4.388-4.388V3586a5.388,5.388,0,0,0-5.381-5.383H562.073a3.849,3.849,0,0,0-3.845,3.844v6.151a.769.769,0,0,0,.769.769h5.383v33.061a3.849,3.849,0,0,0,3.844,3.845H595.9a3.85,3.85,0,0,0,3.845-3.845V3622.9a.769.769,0,0,0-.77-.769h-2.306v-7.754l5.992,5.991a.768.768,0,0,0,1.087,0l1.922-1.921A.769.769,0,0,0,605.673,3617.363Zm-13.615-6.311L589.3,3608.3l4.3-4.3,2.757,2.758Zm-.318,1.856-1.219,1.22-4.3-4.3,1.219-1.219Zm6.469-6.469-4.294-4.3,1.219-1.219,4.3,4.294Zm-33.829-16.6h-4.613v-5.383a2.306,2.306,0,1,1,4.613,0Zm33.829,34.6a2.31,2.31,0,0,1-2.306,2.308H571.3a3.824,3.824,0,0,0,.771-2.308v-.769h26.141Zm-3.075-2.306H571.3a.769.769,0,0,0-.769.769v1.537a2.307,2.307,0,1,1-4.614,0v-39.981a3.806,3.806,0,0,0-.789-2.306H591.29a3.848,3.848,0,0,1,3.844,3.845v13.07a.765.765,0,0,0-.543.225l-2.307,2.307a.769.769,0,0,0,0,1.088l.226.224-4.3,4.3-.225-.226a.769.769,0,0,0-1.087,0l-2.306,2.306a.768.768,0,0,0,0,1.087l5.381,5.383a.767.767,0,0,0,1.087,0l2.306-2.306a.768.768,0,0,0,0-1.087l-.225-.226.642-.642,1.346,1.346Zm8.073-3.394-8.331-8.331.835-.835,8.331,8.332Z" transform="translate(-558.228 -3580.617)" fill="#fff"/><path d="M567.706,3593.74h25.373v1.539H567.706Z" transform="translate(-557.711 -3579.901)" fill="#fff"/><path d="M567.706,3599.573H590v1.538h-22.3Z" transform="translate(-557.711 -3579.583)" fill="#fff"/><path d="M567.706,3596.657h25.373v1.538H567.706Z" transform="translate(-557.711 -3579.742)" fill="#fff"/><path d="M567.706,3587.908h25.373v1.537H567.706Z" transform="translate(-557.711 -3580.219)" fill="#fff"/><path d="M567.706,3584.991h25.373v1.539H567.706Z" transform="translate(-557.711 -3580.378)" fill="#fff"/><path d="M567.706,3590.824h25.373v1.538H567.706Z" transform="translate(-557.711 -3580.06)" fill="#fff"/><path d="M567.706,3602.489h20.759v1.538H567.706Z" transform="translate(-557.711 -3579.424)" fill="#fff"/><path d="M573.9,3605.406a6.92,6.92,0,1,0,6.92,6.919A6.928,6.928,0,0,0,573.9,3605.406Zm0,12.3a5.382,5.382,0,1,1,5.383-5.383A5.388,5.388,0,0,1,573.9,3617.708Z" transform="translate(-557.751 -3579.265)" fill="#fff"/><path d="M573.738,3608.322a3.844,3.844,0,1,0,3.844,3.844A3.848,3.848,0,0,0,573.738,3608.322Zm0,6.151a2.307,2.307,0,1,1,2.306-2.307A2.31,2.31,0,0,1,573.738,3614.473Z" transform="translate(-557.591 -3579.105)" fill="#fff"/><path d="M586.172,3615.653a.768.768,0,0,0-1.408-.427l-.258.388a3.534,3.534,0,0,1-2.946,1.577v1.538a5.069,5.069,0,0,0,3.545-1.442,3.079,3.079,0,0,0,2.6,1.442h3.076v-1.538h-3.076A1.539,1.539,0,0,1,586.172,3615.653Z" transform="translate(-556.955 -3578.747)" fill="#fff"/></g><g transform="translate(-1188.736 -5025.772)"><path d="M793.719,3630.852l-8.875-8.875.643-.643.225.226a.767.767,0,0,0,1.087,0l2.306-2.306a.766.766,0,0,0,0-1.087l-4.387-4.388v-14.291a5.388,5.388,0,0,0-5.383-5.381H750.119a3.848,3.848,0,0,0-3.844,3.844v6.151a.769.769,0,0,0,.769.769h5.381v33.061a3.85,3.85,0,0,0,3.845,3.845h27.679a3.849,3.849,0,0,0,3.844-3.845v-1.538a.769.769,0,0,0-.769-.769h-2.306v-7.754l5.991,5.991a.767.767,0,0,0,1.087,0l1.922-1.921A.768.768,0,0,0,793.719,3630.852Zm-13.614-6.311-2.757-2.757,4.294-4.3,2.758,2.757Zm-.318,1.856-1.219,1.219-4.3-4.294,1.22-1.22Zm6.47-6.469-4.3-4.3,1.219-1.219,4.3,4.294Zm-33.831-16.6h-4.613v-5.382a2.306,2.306,0,1,1,4.613,0Zm33.831,34.6a2.309,2.309,0,0,1-2.306,2.306H759.344a3.826,3.826,0,0,0,.77-2.306v-.769h26.142Zm-3.076-2.307H759.345a.769.769,0,0,0-.769.769v1.538a2.306,2.306,0,0,1-4.613,0v-39.981a3.811,3.811,0,0,0-.789-2.307h26.161a3.848,3.848,0,0,1,3.844,3.844v13.072a.767.767,0,0,0-.543.224l-2.306,2.307a.767.767,0,0,0,0,1.086l.225.226-4.294,4.3-.226-.226a.769.769,0,0,0-1.087,0l-2.306,2.307a.768.768,0,0,0,0,1.087l5.382,5.383a.769.769,0,0,0,1.086,0l2.307-2.306a.768.768,0,0,0,0-1.087l-.226-.226.643-.643,1.345,1.345Zm8.074-3.393-8.332-8.331.835-.835,8.332,8.331Z" transform="translate(-746.275 -3594.105)" fill="#fff"/><path d="M755.753,3607.228h25.372v1.538H755.753Z" transform="translate(-745.758 -3593.389)" fill="#fff"/><path d="M755.753,3613.061h22.3v1.537h-22.3Z" transform="translate(-745.758 -3593.071)" fill="#fff"/><path d="M755.753,3610.145h25.372v1.538H755.753Z" transform="translate(-745.758 -3593.23)" fill="#fff"/><path d="M755.753,3601.4h25.372v1.538H755.753Z" transform="translate(-745.758 -3593.707)" fill="#fff"/><path d="M755.753,3598.479h25.372v1.537H755.753Z" transform="translate(-745.758 -3593.867)" fill="#fff"/><path d="M755.753,3604.312h25.372v1.537H755.753Z" transform="translate(-745.758 -3593.548)" fill="#fff"/><path d="M755.753,3615.977h20.759v1.538H755.753Z" transform="translate(-745.758 -3592.912)" fill="#fff"/><path d="M761.943,3618.893a6.92,6.92,0,1,0,6.92,6.92A6.928,6.928,0,0,0,761.943,3618.893Zm0,12.3a5.382,5.382,0,1,1,5.382-5.382A5.389,5.389,0,0,1,761.943,3631.2Z" transform="translate(-745.798 -3592.752)" fill="#fff"/><path d="M761.784,3621.81a3.844,3.844,0,1,0,3.845,3.844A3.848,3.848,0,0,0,761.784,3621.81Zm0,6.15a2.306,2.306,0,1,1,2.307-2.306A2.309,2.309,0,0,1,761.784,3627.96Z" transform="translate(-745.639 -3592.594)" fill="#fff"/><path d="M774.219,3629.141a.769.769,0,0,0-1.409-.427l-.258.387a3.536,3.536,0,0,1-2.946,1.578v1.537a5.074,5.074,0,0,0,3.547-1.442,3.075,3.075,0,0,0,2.6,1.442h3.075v-1.537h-3.075A1.539,1.539,0,0,1,774.219,3629.141Z" transform="translate(-745.002 -3592.235)" fill="#fff"/></g><g transform="translate(-1089.887 -4848.326)"><path d="M887.453,3799.117l-8.875-8.875.643-.642.225.225a.768.768,0,0,0,1.087,0l2.307-2.306a.768.768,0,0,0,0-1.087l-4.388-4.388v-14.289a5.389,5.389,0,0,0-5.383-5.382H843.853a3.849,3.849,0,0,0-3.844,3.845v6.15a.768.768,0,0,0,.769.769h5.383V3806.2A3.848,3.848,0,0,0,850,3810.04h27.679a3.848,3.848,0,0,0,3.844-3.844v-1.539a.769.769,0,0,0-.769-.769h-2.306v-7.754l5.991,5.992a.77.77,0,0,0,1.087,0l1.922-1.922A.768.768,0,0,0,887.453,3799.117Zm-13.615-6.311-2.757-2.757,4.294-4.3,2.758,2.758Zm-.318,1.856-1.219,1.22-4.294-4.3,1.219-1.219Zm6.47-6.469-4.3-4.3,1.22-1.219,4.294,4.3Zm-33.829-16.6h-4.614v-5.381a2.307,2.307,0,1,1,4.614,0Zm33.829,34.6a2.309,2.309,0,0,1-2.306,2.306H853.078a3.828,3.828,0,0,0,.77-2.306v-.769H879.99Zm-3.075-2.308H853.079a.769.769,0,0,0-.769.769v1.539a2.306,2.306,0,0,1-4.613,0v-39.98a3.807,3.807,0,0,0-.789-2.308H873.07a3.85,3.85,0,0,1,3.845,3.845v13.07a.767.767,0,0,0-.544.226l-2.306,2.306a.768.768,0,0,0,0,1.087l.226.225-4.3,4.3-.226-.226a.768.768,0,0,0-1.087,0l-2.306,2.308a.768.768,0,0,0,0,1.087l5.383,5.381a.768.768,0,0,0,1.087,0l2.306-2.306a.768.768,0,0,0,0-1.087l-.226-.226.643-.642,1.346,1.345Zm8.073-3.393-8.331-8.331.834-.835,8.332,8.331Z" transform="translate(-840.009 -3762.371)"/><path d="M849.487,3775.494h25.372v1.537H849.487Z" transform="translate(-839.492 -3761.655)"/><path d="M849.487,3781.326h22.3v1.538h-22.3Z" transform="translate(-839.492 -3761.336)"/><path d="M849.487,3778.41h25.372v1.538H849.487Z" transform="translate(-839.492 -3761.495)"/><path d="M849.487,3769.661h25.372v1.538H849.487Z" transform="translate(-839.492 -3761.972)"/><path d="M849.487,3766.746h25.372v1.537H849.487Z" transform="translate(-839.492 -3762.132)"/><path d="M849.487,3772.577h25.372v1.538H849.487Z" transform="translate(-839.492 -3761.813)"/><path d="M849.487,3784.243h20.759v1.537H849.487Z" transform="translate(-839.492 -3761.177)"/><path d="M855.678,3787.159a6.92,6.92,0,1,0,6.919,6.92A6.928,6.928,0,0,0,855.678,3787.159Zm0,12.3a5.382,5.382,0,1,1,5.381-5.382A5.388,5.388,0,0,1,855.678,3799.461Z" transform="translate(-839.532 -3761.018)"/><path d="M855.519,3790.075a3.844,3.844,0,1,0,3.844,3.845A3.849,3.849,0,0,0,855.519,3790.075Zm0,6.151a2.307,2.307,0,1,1,2.306-2.306A2.31,2.31,0,0,1,855.519,3796.227Z" transform="translate(-839.372 -3760.859)"/><path d="M867.953,3797.406a.769.769,0,0,0-1.409-.427l-.258.388a3.535,3.535,0,0,1-2.946,1.577v1.537a5.069,5.069,0,0,0,3.547-1.441,3.076,3.076,0,0,0,2.6,1.441h3.075v-1.537H869.49A1.539,1.539,0,0,1,867.953,3797.406Z" transform="translate(-838.736 -3760.5)"/></g><g transform="translate(-1199.578 -4670.062)"><path d="M783.438,3968.158l-8.875-8.875.643-.643.225.226a.768.768,0,0,0,1.087,0l2.306-2.306a.768.768,0,0,0,0-1.087l-4.387-4.388v-14.291a5.388,5.388,0,0,0-5.383-5.381H739.838a3.848,3.848,0,0,0-3.844,3.844v6.151a.769.769,0,0,0,.769.769h5.381v33.061a3.85,3.85,0,0,0,3.845,3.845h27.678a3.849,3.849,0,0,0,3.845-3.845V3973.7a.769.769,0,0,0-.769-.769h-2.306v-7.755l5.991,5.992a.767.767,0,0,0,1.087,0l1.922-1.922A.767.767,0,0,0,783.438,3968.158Zm-13.614-6.311-2.757-2.756,4.294-4.3,2.758,2.757Zm-.319,1.856-1.219,1.219-4.3-4.294,1.22-1.22Zm6.47-6.469-4.3-4.3,1.219-1.219,4.3,4.294Zm-33.831-16.6h-4.613v-5.382a2.306,2.306,0,1,1,4.613,0Zm33.831,34.6a2.309,2.309,0,0,1-2.307,2.306h-24.6a3.825,3.825,0,0,0,.77-2.306v-.769h26.142Zm-3.076-2.306H749.064a.769.769,0,0,0-.769.769v1.538a2.307,2.307,0,0,1-4.614,0v-39.981a3.8,3.8,0,0,0-.789-2.306h26.162a3.848,3.848,0,0,1,3.844,3.844v13.072a.767.767,0,0,0-.543.225l-2.306,2.307a.768.768,0,0,0,0,1.087l.225.226-4.294,4.3-.226-.226a.769.769,0,0,0-1.087,0l-2.306,2.307a.768.768,0,0,0,0,1.087l5.381,5.383a.771.771,0,0,0,1.087,0l2.307-2.307a.767.767,0,0,0,0-1.086l-.226-.226.643-.643,1.345,1.345Zm8.074-3.394-8.332-8.331.835-.835,8.331,8.331Z" transform="translate(-735.994 -3931.411)" fill="#fff"/><path d="M745.472,3944.534h25.372v1.538H745.472Z" transform="translate(-735.477 -3930.695)" fill="#fff"/><path d="M745.472,3950.367h22.3v1.537h-22.3Z" transform="translate(-735.477 -3930.377)" fill="#fff"/><path d="M745.472,3947.45h25.372v1.539H745.472Z" transform="translate(-735.477 -3930.536)" fill="#fff"/><path d="M745.472,3938.7h25.372v1.538H745.472Z" transform="translate(-735.477 -3931.013)" fill="#fff"/><path d="M745.472,3935.785h25.372v1.538H745.472Z" transform="translate(-735.477 -3931.172)" fill="#fff"/><path d="M745.472,3941.618h25.372v1.537H745.472Z" transform="translate(-735.477 -3930.854)" fill="#fff"/><path d="M745.472,3953.283h20.759v1.537H745.472Z" transform="translate(-735.477 -3930.218)" fill="#fff"/><path d="M751.662,3956.2a6.92,6.92,0,1,0,6.92,6.92A6.928,6.928,0,0,0,751.662,3956.2Zm0,12.3a5.382,5.382,0,1,1,5.383-5.383A5.389,5.389,0,0,1,751.662,3968.5Z" transform="translate(-735.517 -3930.058)" fill="#fff"/><path d="M751.5,3959.116a3.844,3.844,0,1,0,3.845,3.844A3.848,3.848,0,0,0,751.5,3959.116Zm0,6.15a2.306,2.306,0,1,1,2.307-2.306A2.309,2.309,0,0,1,751.5,3965.266Z" transform="translate(-735.358 -3929.9)" fill="#fff"/><path d="M763.938,3966.446a.769.769,0,0,0-1.409-.426l-.258.387a3.536,3.536,0,0,1-2.946,1.578v1.537a5.075,5.075,0,0,0,3.547-1.441,3.076,3.076,0,0,0,2.6,1.441h3.075v-1.537h-3.075A1.54,1.54,0,0,1,763.938,3966.446Z" transform="translate(-734.721 -3929.541)" fill="#fff"/></g><g transform="translate(-1403.978 -4673.136)"><path d="M589.614,3965.24l-8.875-8.874.643-.643.225.226a.771.771,0,0,0,1.087,0l2.306-2.307a.769.769,0,0,0,0-1.088l-4.388-4.387v-14.29a5.388,5.388,0,0,0-5.381-5.381H546.014a3.848,3.848,0,0,0-3.844,3.844v6.151a.769.769,0,0,0,.769.77h5.381v33.061a3.849,3.849,0,0,0,3.845,3.844h27.678a3.849,3.849,0,0,0,3.845-3.844v-1.537a.768.768,0,0,0-.769-.769h-2.307v-7.756l5.992,5.992a.77.77,0,0,0,1.087,0l1.922-1.922A.768.768,0,0,0,589.614,3965.24ZM576,3958.931l-2.757-2.758,4.294-4.294,2.758,2.756Zm-.318,1.856-1.219,1.219-4.3-4.3,1.22-1.219Zm6.47-6.47-4.3-4.294,1.219-1.22,4.3,4.3Zm-33.83-16.6h-4.613v-5.382a2.306,2.306,0,0,1,4.613,0Zm33.83,34.6a2.31,2.31,0,0,1-2.307,2.306H555.238a3.821,3.821,0,0,0,.771-2.306v-.769h26.142Zm-3.076-2.306H555.24a.768.768,0,0,0-.769.769v1.537a2.307,2.307,0,0,1-4.614,0v-39.981a3.8,3.8,0,0,0-.789-2.306h26.162a3.848,3.848,0,0,1,3.844,3.844v13.071a.766.766,0,0,0-.543.226l-2.306,2.306a.768.768,0,0,0,0,1.087l.225.226-4.294,4.294-.226-.225a.769.769,0,0,0-1.087,0l-2.306,2.306a.769.769,0,0,0,0,1.088l5.381,5.381a.767.767,0,0,0,1.087,0l2.307-2.306a.768.768,0,0,0,0-1.087l-.226-.225.642-.644,1.346,1.346Zm8.074-3.395-8.332-8.331.835-.835,8.331,8.332Z" transform="translate(-542.17 -3928.495)" fill="#fff"/><path d="M551.648,3941.618H577.02v1.537H551.648Z" transform="translate(-541.653 -3927.78)" fill="#fff"/><path d="M551.648,3947.45h22.3v1.539h-22.3Z" transform="translate(-541.653 -3927.461)" fill="#fff"/><path d="M551.648,3944.534H577.02v1.538H551.648Z" transform="translate(-541.653 -3927.62)" fill="#fff"/><path d="M551.648,3935.785H577.02v1.538H551.648Z" transform="translate(-541.653 -3928.098)" fill="#fff"/><path d="M551.648,3932.869H577.02v1.538H551.648Z" transform="translate(-541.653 -3928.257)" fill="#fff"/><path d="M551.648,3938.7H577.02v1.538H551.648Z" transform="translate(-541.653 -3927.938)" fill="#fff"/><path d="M551.648,3950.367h20.759v1.537H551.648Z" transform="translate(-541.653 -3927.302)" fill="#fff"/><path d="M557.838,3953.283a6.92,6.92,0,1,0,6.92,6.92A6.927,6.927,0,0,0,557.838,3953.283Zm0,12.3a5.382,5.382,0,1,1,5.383-5.381A5.388,5.388,0,0,1,557.838,3965.585Z" transform="translate(-541.693 -3927.143)" fill="#fff"/><path d="M557.679,3956.2a3.844,3.844,0,1,0,3.845,3.845A3.849,3.849,0,0,0,557.679,3956.2Zm0,6.152a2.306,2.306,0,1,1,2.306-2.306A2.309,2.309,0,0,1,557.679,3962.351Z" transform="translate(-541.533 -3926.983)" fill="#fff"/><path d="M570.114,3963.53a.769.769,0,0,0-1.409-.426l-.258.387a3.535,3.535,0,0,1-2.946,1.576v1.538a5.07,5.07,0,0,0,3.547-1.442,3.073,3.073,0,0,0,2.6,1.442h3.075v-1.538h-3.075A1.539,1.539,0,0,1,570.114,3963.53Z" transform="translate(-540.897 -3926.626)" fill="#fff"/></g><g transform="translate(-1511.095 -4854.477)"><path d="M488.039,3793.284l-8.875-8.874.643-.644.225.226a.771.771,0,0,0,1.087,0l2.307-2.306a.768.768,0,0,0,0-1.087l-4.388-4.388v-14.29a5.388,5.388,0,0,0-5.383-5.382H444.439a3.848,3.848,0,0,0-3.844,3.844v6.151a.769.769,0,0,0,.769.769h5.381v33.061a3.849,3.849,0,0,0,3.845,3.844h27.679a3.848,3.848,0,0,0,3.844-3.844v-1.538a.768.768,0,0,0-.769-.769h-2.306V3790.3l5.991,5.992a.768.768,0,0,0,1.087,0l1.923-1.923A.768.768,0,0,0,488.039,3793.284Zm-13.614-6.31-2.757-2.758,4.294-4.294,2.758,2.757Zm-.318,1.856-1.219,1.219-4.3-4.294,1.22-1.22Zm6.47-6.47-4.3-4.294,1.22-1.22,4.294,4.3Zm-33.83-16.6h-4.613v-5.382a2.306,2.306,0,0,1,4.613,0Zm33.83,34.6a2.309,2.309,0,0,1-2.306,2.306H453.664a3.825,3.825,0,0,0,.77-2.306v-.769h26.142Zm-3.075-2.306H453.665a.768.768,0,0,0-.769.769v1.538a2.306,2.306,0,0,1-4.613,0v-39.981a3.8,3.8,0,0,0-.789-2.306h26.161a3.849,3.849,0,0,1,3.845,3.844v13.07a.769.769,0,0,0-.544.226l-2.306,2.307a.768.768,0,0,0,0,1.087l.225.226-4.294,4.294-.226-.225a.768.768,0,0,0-1.087,0l-2.306,2.306a.768.768,0,0,0,0,1.087l5.382,5.383a.771.771,0,0,0,1.087,0l2.306-2.308a.768.768,0,0,0,0-1.087l-.226-.225.643-.643,1.346,1.345Zm8.073-3.394-8.331-8.332.834-.834,8.332,8.331Z" transform="translate(-440.595 -3756.538)" fill="#fff"/><path d="M450.073,3769.661h25.372v1.538H450.073Z" transform="translate(-440.078 -3755.822)" fill="#fff"/><path d="M450.073,3775.494h22.3v1.537h-22.3Z" transform="translate(-440.078 -3755.504)" fill="#fff"/><path d="M450.073,3772.577h25.372v1.538H450.073Z" transform="translate(-440.078 -3755.663)" fill="#fff"/><path d="M450.073,3763.828h25.372v1.539H450.073Z" transform="translate(-440.078 -3756.14)" fill="#fff"/><path d="M450.073,3760.912h25.372v1.538H450.073Z" transform="translate(-440.078 -3756.3)" fill="#fff"/><path d="M450.073,3766.746h25.372v1.537H450.073Z" transform="translate(-440.078 -3755.982)" fill="#fff"/><path d="M450.073,3778.41h20.759v1.538H450.073Z" transform="translate(-440.078 -3755.344)" fill="#fff"/><path d="M456.263,3781.326a6.92,6.92,0,1,0,6.92,6.92A6.927,6.927,0,0,0,456.263,3781.326Zm0,12.3a5.382,5.382,0,1,1,5.382-5.381A5.388,5.388,0,0,1,456.263,3793.628Z" transform="translate(-440.118 -3755.186)" fill="#fff"/><path d="M456.1,3784.243a3.844,3.844,0,1,0,3.845,3.844A3.848,3.848,0,0,0,456.1,3784.243Zm0,6.15a2.306,2.306,0,1,1,2.307-2.306A2.309,2.309,0,0,1,456.1,3790.394Z" transform="translate(-439.958 -3755.027)" fill="#fff"/><path d="M468.539,3791.573a.769.769,0,0,0-1.409-.426l-.258.387a3.535,3.535,0,0,1-2.946,1.576v1.539a5.072,5.072,0,0,0,3.546-1.441,3.076,3.076,0,0,0,2.6,1.441h3.075v-1.539h-3.075A1.539,1.539,0,0,1,468.539,3791.573Z" transform="translate(-439.322 -3754.668)" fill="#fff"/></g><g transform="translate(-1340.876 -4870.034)"><g transform="translate(64.281 7.45)"><path d="M702.119,3780.9l-16.635-32.048-22.523,12.405,16.993,31.376Z" transform="translate(-662.962 -3748.85)" fill="#ff5737"/></g><g transform="translate(64.281 7.45)" opacity="0.3"><path d="M702.119,3780.9l-16.635-32.048-22.523,12.405,16.993,31.376Z" transform="translate(-662.962 -3748.85)"/></g><g transform="translate(58.498)"><path d="M663.932,3761.355l21.531-11.248a4.41,4.41,0,0,0,1.868-5.952h0a4.411,4.411,0,0,0-5.952-1.868l-21.532,11.249a4.411,4.411,0,0,0-1.867,5.952h0A4.411,4.411,0,0,0,663.932,3761.355Z" transform="translate(-657.478 -3741.785)" fill="#1d2d38"/></g><g transform="translate(78.74 37.438)"><path d="M683.127,3796.856l21.531-11.248a4.411,4.411,0,0,0,1.868-5.952h0a4.41,4.41,0,0,0-5.952-1.868l-21.532,11.248a4.411,4.411,0,0,0-1.867,5.952h0A4.41,4.41,0,0,0,683.127,3796.856Z" transform="translate(-676.673 -3777.286)" fill="#1d2d38"/></g><g transform="translate(4.306 33.807)"><path d="M609.021,3813.065l34.065-18.52c12.235-5.889,25.324-12.12,30.276-15.093l-2.931-5.608c-6.084,2.6-16.705,9.545-29.62,16.411-10.688,5.682-23.058,10.911-34.722,17.2Z" transform="translate(-606.09 -3773.843)" fill="#ff5737"/></g><g transform="translate(37.152 48.169)"><path d="M642.27,3795.277h0a1.99,1.99,0,0,0,.842-2.685l-2.122-4.062a1.99,1.99,0,0,0-2.685-.843h0a1.989,1.989,0,0,0-.842,2.685l2.122,4.063A1.991,1.991,0,0,0,642.27,3795.277Z" transform="translate(-637.237 -3787.462)" fill="#ff5737"/></g><g transform="translate(0 64.82)"><path d="M602.626,3811.211a5.44,5.44,0,1,0,2.3-7.341A5.441,5.441,0,0,0,602.626,3811.211Z" transform="translate(-602.007 -3803.251)" fill="#ff5737"/></g><g transform="translate(56.938 65.279)"><path d="M0,0H71.5a0,0,0,0,1,0,0V4.1A1.671,1.671,0,0,1,69.83,5.774H1.671A1.671,1.671,0,0,1,0,4.1V0A0,0,0,0,1,0,0Z" transform="translate(71.501 5.774) rotate(180)" fill="#ff5737"/></g><g transform="translate(60.039 57.294)"><path d="M724.513,3805.082v-3.622a5.345,5.345,0,0,0-5.346-5.346H664.285a5.345,5.345,0,0,0-5.346,5.346v3.622Z" transform="translate(-658.939 -3796.114)" fill="#ff5737"/></g><g transform="translate(63.818 54.591)"><rect width="58.232" height="5.16" transform="translate(58.232 5.16) rotate(180)" fill="#ff5737"/></g><g transform="translate(64.828 10.393)"><path d="M668.066,3769.381l22.642-11.828a3.134,3.134,0,0,0,1.326-4.229h0a3.132,3.132,0,0,0-4.228-1.327l-22.642,11.828a3.134,3.134,0,0,0-1.327,4.229h0A3.135,3.135,0,0,0,668.066,3769.381Z" transform="translate(-663.481 -3751.641)" fill="#ff5737"/></g><g transform="translate(74.151 29.391)"><path d="M676.906,3787.4l22.641-11.828a3.133,3.133,0,0,0,1.327-4.228h0a3.134,3.134,0,0,0-4.229-1.327L674,3781.841a3.134,3.134,0,0,0-1.327,4.229h0A3.134,3.134,0,0,0,676.906,3787.4Z" transform="translate(-672.321 -3769.656)" fill="#ff5737"/></g><g transform="translate(67.81 31.324)"><path d="M672.2,3780.752h0a1.762,1.762,0,0,0,.694-2.393l-3.278-5.958a1.76,1.76,0,0,0-2.392-.694h0a1.76,1.76,0,0,0-.695,2.393l3.278,5.957A1.763,1.763,0,0,0,672.2,3780.752Z" transform="translate(-666.309 -3771.489)" fill="#ff5737"/></g><g transform="translate(63.361 57.166)"><path d="M662.089,3796.121c0-.071,13.194-.128,29.464-.128s29.466.057,29.466.128-13.189.128-29.466.128S662.089,3796.19,662.089,3796.121Z" transform="translate(-662.089 -3795.993)" fill="#1d2d38"/></g><g transform="translate(58.117 65.151)"><path d="M657.117,3803.693c0-.071,15.479-.128,34.57-.128s34.572.057,34.572.128-15.476.127-34.572.127S657.117,3803.763,657.117,3803.693Z" transform="translate(-657.117 -3803.565)" fill="#1d2d38"/></g><g transform="translate(67.712 33.37)"><path d="M666.219,3773.429a5.764,5.764,0,0,1,.562,1c.327.625.784,1.485,1.323,2.414s1.061,1.752,1.443,2.345a5.917,5.917,0,0,1,.588.984,4.587,4.587,0,0,1-.737-.882,25.94,25.94,0,0,1-1.514-2.319,26.332,26.332,0,0,1-1.265-2.465A4.623,4.623,0,0,1,666.219,3773.429Z" transform="translate(-666.215 -3773.429)" fill="#1d2d38"/></g><g transform="translate(40.974 49.008)"><path d="M643.322,3793.048a28.514,28.514,0,0,1-2.456-4.79,28.526,28.526,0,0,1,2.456,4.79Z" transform="translate(-640.861 -3788.258)" fill="#1d2d38"/></g><g transform="translate(37.227 50.975)"><path d="M639.515,3794.877a27.1,27.1,0,0,1-2.2-4.754,26.9,26.9,0,0,1,2.2,4.754Z" transform="translate(-637.307 -3790.123)" fill="#1d2d38"/></g></g></g></svg>