<svg xmlns="http://www.w3.org/2000/svg" xmlns:xlink="http://www.w3.org/1999/xlink" width="183.639" height="185.423" viewBox="0 0 183.639 185.423">
  <defs>
    <filter id="Elipse_7684" x="0" y="0" width="183.639" height="185.423" filterUnits="userSpaceOnUse">
      <feOffset dy="3" input="SourceAlpha"/>
      <feGaussianBlur stdDeviation="3" result="blur"/>
      <feFlood flood-opacity="0.161"/>
      <feComposite operator="in" in2="blur"/>
      <feComposite in="SourceGraphic"/>
    </filter>
    <clipPath id="clip-path">
      <rect id="Rectángulo_305744" data-name="Rectángulo 305744" width="119" height="105" transform="translate(275 911)" fill="#fff" stroke="#707070" stroke-width="1"/>
    </clipPath>
  </defs>
  <g id="Grupo_953310" data-name="Grupo 953310" transform="translate(-1171.697 -871.009)">
    <g transform="matrix(1, 0, 0, 1, 1171.7, 871.01)" filter="url(#Elipse_7684)">
      <ellipse id="Elipse_7684-2" data-name="Elipse 7684" cx="82.819" cy="83.712" rx="82.819" ry="83.712" transform="translate(9 6)" fill="#ffeed9"/>
    </g>
    <g id="Enmascarar_grupo_58" data-name="Enmascarar grupo 58" transform="translate(935 -2)" clip-path="url(#clip-path)">
      <g id="Layer_x0020_1" transform="translate(287.765 913.188)">
        <path id="Trazado_626690" data-name="Trazado 626690" d="M31.112,46.7a1.346,1.346,0,0,1-.813-2.419c6.662-5.042,11.054-11.066,13.058-17.9a1.346,1.346,0,1,1,2.582.757c-2.169,7.4-6.885,13.894-14.015,19.292a1.33,1.33,0,0,1-.813.275ZM76.4,70.827a28.522,28.522,0,0,0-10.553-4.6c-5.741-1.317-14.755-1.741-25.967,3.188a17.544,17.544,0,0,0,2.671,2.7,12.614,12.614,0,0,0,5.165,2.923,1.345,1.345,0,0,1,.221,2.615l-.067.021a7.025,7.025,0,0,1-1.881.363c-.215.031-1.107.307-1.823.53-1.53.472-2.709.821-3.635,1.019,1.911,3.889,4.267,8.05,6.1,8.358,1.916.323,3.682,3.3,3.878,3.635a1.345,1.345,0,0,1-.492,1.837l-8.42,4.861A3.2,3.2,0,0,1,40,98.7a3.267,3.267,0,0,1-2.7-1.391L24.253,78.147l-.016.008a16.785,16.785,0,0,1-8.348,2.26A15.688,15.688,0,0,1,2.2,72.5,15.614,15.614,0,0,1,.673,60.22a16.541,16.541,0,0,1,7.711-9.677l.06-.033L21.3,43.087c11.625-7.658,16.287-16.5,18.152-22.569a28.812,28.812,0,0,0,1.3-11.361,6.226,6.226,0,0,1,2.608-7.825A6.232,6.232,0,0,1,51.858,3.61L86.433,63.495A6.217,6.217,0,0,1,76.658,71a1.337,1.337,0,0,1-.262-.177h0ZM37.4,70.569l-.163.081-.459.265-.336.195c.9,1.591,2.162,4.035,3.072,5.935a37.5,37.5,0,0,0,3.8-1.038,24.269,24.269,0,0,1-2.661-1.969A18.569,18.569,0,0,1,37.4,70.569Zm6.062-56.627a34.952,34.952,0,0,1-1.391,7.215C40.156,27.5,35.429,36.648,23.829,44.63L36.814,67.12a1.345,1.345,0,0,1,1.011-.6,1.422,1.422,0,0,1,1.058.387C50.8,61.693,60.44,62.194,66.6,63.635a34.951,34.951,0,0,1,6.945,2.4l-30.078-52.1Zm-.056-5.477L54,26.8l24,41.561a3.528,3.528,0,0,0,6.11-3.528L49.529,4.953a3.5,3.5,0,0,0-2.143-1.637,3.57,3.57,0,0,0-.928-.123,3.53,3.53,0,0,0-3.048,5.272ZM21.764,76.409,8.595,53.6a13.734,13.734,0,0,0-5.337,7.374A13.16,13.16,0,0,0,15.907,77.716a13.936,13.936,0,0,0,5.857-1.307Zm12.349-3.953L26.589,76.8,39.532,95.793a.586.586,0,0,0,.715.156l7.163-4.137a4.621,4.621,0,0,0-1.253-1.22c-3.831-.671-7-7.49-9.8-13.51-.809-1.74-1.583-3.407-2.249-4.625Zm-9.989,2.66L34.77,68.969,21.541,46.055,10.894,52.2,24.123,75.116ZM80.24,40.754a1.346,1.346,0,0,1-.992-2.254A9.795,9.795,0,0,0,69.91,22.327a1.345,1.345,0,0,1-.582-2.627,12.485,12.485,0,0,1,11.9,20.618,1.34,1.34,0,0,1-.991.436Zm6.441,3.1a1.345,1.345,0,0,1-1.09-2.133A16.758,16.758,0,0,0,69.217,15.371a1.345,1.345,0,1,1-.45-2.652,19.449,19.449,0,0,1,19,30.581,1.346,1.346,0,0,1-1.089.553ZM93.6,45.982a1.344,1.344,0,0,1-1.157-2.027A23.719,23.719,0,0,0,72,8.175h-.113a1.345,1.345,0,0,1-.006-2.69H72a26.41,26.41,0,0,1,22.76,39.836,1.354,1.354,0,0,1-1.162.661Z" transform="translate(0 0)" fill-rule="evenodd"/>
        <path id="Trazado_626691" data-name="Trazado 626691" d="M223.767,19.781l34.583,59.9a3.528,3.528,0,0,0,6.11-3.528L229.885,16.269a3.527,3.527,0,0,0-6.118,3.512Z" transform="translate(-180.356 -11.317)" fill="#f3a766" fill-rule="evenodd"/>
        <g id="Grupo_930539" data-name="Grupo 930539" transform="translate(2.743 13.942)">
          <path id="Trazado_626692" data-name="Trazado 626692" d="M173.516,122.54l-30.078-52.1c-.85,10.248-6.578,21.7-19.637,30.688l12.985,22.49a1.345,1.345,0,0,1,1.011-.6,1.422,1.422,0,0,1,1.058.387c11.913-5.214,21.556-4.712,27.716-3.271a34.949,34.949,0,0,1,6.945,2.4ZM131.9,102.924a1.33,1.33,0,0,1-.813.275,1.346,1.346,0,0,1-.813-2.419c6.662-5.042,11.054-11.066,13.058-17.9a1.346,1.346,0,0,1,2.583.757c-2.169,7.4-6.885,13.894-14.015,19.292Z" transform="translate(-102.714 -70.444)" fill="#d9f2f2" fill-rule="evenodd"/>
          <path id="Trazado_626693" data-name="Trazado 626693" d="M80.367,260.47,67.137,237.556,56.491,243.7,69.72,266.616Z" transform="translate(-48.339 -205.443)" fill="#d9f2f2" fill-rule="evenodd"/>
          <path id="Trazado_626694" data-name="Trazado 626694" d="M33.092,299.624,19.923,276.815a13.2,13.2,0,0,0,13.169,22.809Z" transform="translate(-14.071 -237.157)" fill="#d9f2f2" fill-rule="evenodd"/>
        </g>
        <path id="Trazado_626695" data-name="Trazado 626695" d="M145.685,374.941l-7.523,4.344L151.1,398.278a.586.586,0,0,0,.715.156l7.163-4.137a4.621,4.621,0,0,0-1.253-1.22c-3.831-.671-7-7.49-9.8-13.51-.809-1.74-1.583-3.407-2.249-4.625Z" transform="translate(-111.573 -302.485)" fill="#f3a766" fill-rule="evenodd"/>
        <path id="Trazado_626696" data-name="Trazado 626696" d="M189.455,365.661c.9,1.591,2.162,4.035,3.072,5.935a37.492,37.492,0,0,0,3.8-1.038,21.95,21.95,0,0,1-5.915-5.438l-.958.541Z" transform="translate(-153.009 -294.552)" fill="#99a4ac" fill-rule="evenodd"/>
      </g>
    </g>
  </g>
</svg>
