<svg xmlns="http://www.w3.org/2000/svg" width="164" height="164" viewBox="0 0 164 164">
  <g id="Grupo_953250" data-name="Grupo 953250" transform="translate(-377 -1857)">
    <g id="Grupo_81380" data-name="Grupo 81380" transform="translate(197.186 575.265)">
      <g id="Grupo_930456" data-name="Grupo 930456" transform="translate(195.146 1291.326)">
        <circle id="Elipse_7667" data-name="Elipse 7667" cx="65.203" cy="65.203" r="65.203" transform="translate(0 14.578)" fill="#ff3c00"/>
        <g id="grafico-de-barras" transform="translate(8.576 -12.051)">
          <path id="Trazado_654430" data-name="Trazado 654430" d="M444.5,412.5v13.715h6.636a6.636,6.636,0,0,0,6.636-6.636Z" transform="translate(-346.176 -297.89)" fill="#7d8fe5"/>
          <path id="Trazado_654431" data-name="Trazado 654431" d="M24.881,412.5,7.5,419.578a6.636,6.636,0,0,0,6.636,6.636h41.7l6.636-6.636,6.636,6.636h35.061a6.636,6.636,0,0,0,6.636-6.636V412.5Z" transform="translate(-5.841 -297.89)" fill="#95b0ed"/>
          <path id="Trazado_654432" data-name="Trazado 654432" d="M196,419.578l6.636,6.636h13.272l6.636-6.636L209.272,412.5Z" transform="translate(-152.644 -297.89)" fill="#666ddc"/>
          <path id="Trazado_654433" data-name="Trazado 654433" d="M421.136,37.5H414.5v86.269l6.636-6.636a6.656,6.656,0,0,0,6.636-6.636V44.136A6.656,6.656,0,0,0,421.136,37.5Z" transform="translate(-322.812 -5.841)" fill="#666ddc"/>
          <path id="Trazado_654434" data-name="Trazado 654434" d="M127.529,44.136a6.656,6.656,0,0,0-6.636-6.636H44.136A6.656,6.656,0,0,0,37.5,44.136V110.5a6.656,6.656,0,0,0,6.636,6.636l41.7,6.636,35.061-6.636a6.656,6.656,0,0,0,6.636-6.636L85.833,79.86Z" transform="translate(-29.205 -5.841)" fill="#7d8fe5"/>
          <path id="Trazado_654435" data-name="Trazado 654435" d="M445.268,407.9l-4.679-7.331a6.636,6.636,0,0,0-5.594-3.066h-6.551l10.188,10.4Z" transform="translate(-333.671 -286.208)" fill="#95b0ed"/>
          <path id="Trazado_654436" data-name="Trazado 654436" d="M100.528,397.5H17.773a6.636,6.636,0,0,0-5.594,3.066L7.5,407.9H110.8l-4.679-7.331A6.636,6.636,0,0,0,100.528,397.5Z" transform="translate(-5.841 -286.208)" fill="#acd2f6"/>
          <path id="Trazado_654437" data-name="Trazado 654437" d="M291.061,67.5,256,103.224l35.061,30.637H297.7V67.5Z" transform="translate(-199.372 -29.205)" fill="#c4f3ff"/>
          <path id="Trazado_654438" data-name="Trazado 654438" d="M67.5,67.5h76.757v66.361H67.5Z" transform="translate(-52.569 -29.205)" fill="#fff"/>
          <path id="Trazado_654439" data-name="Trazado 654439" d="M142.5,252.5v15.484h13.272l6.636-15.484Z" transform="translate(-110.979 -173.283)" fill="#ffd06a"/>
          <path id="Trazado_654440" data-name="Trazado 654440" d="M202.5,182.5v30.968h13.272l6.636-30.968Z" transform="translate(-157.707 -118.767)" fill="#ff7647"/>
          <path id="Trazado_654441" data-name="Trazado 654441" d="M262.5,112.5h13.272v46.452H262.5Z" transform="translate(-204.434 -64.251)" fill="#ff336d"/>
          <path id="Trazado_654442" data-name="Trazado 654442" d="M176.475,154.77a1.659,1.659,0,0,0,1.659-1.659V106.659A1.659,1.659,0,0,0,176.475,105H163.2a1.659,1.659,0,0,0-1.659,1.659v13.825H149.931a1.659,1.659,0,0,0-1.659,1.659v13.825H136.659A1.659,1.659,0,0,0,135,137.627v15.484a1.659,1.659,0,0,0,1.659,1.659Zm-11.613-46.452h9.954v43.134h-9.954ZM161.544,123.8v27.65H151.59V123.8Zm-23.226,15.484h9.954v12.166h-9.954Z" transform="translate(-105.138 -58.41)"/>
          <path id="Trazado_654443" data-name="Trazado 654443" d="M350.419,108.318a1.659,1.659,0,1,0,0-3.318h-3.76A1.659,1.659,0,0,0,345,106.659v46.452a1.659,1.659,0,0,0,1.659,1.659h3.76a1.659,1.659,0,1,0,0-3.318h-2.1V139.286h2.1a1.659,1.659,0,1,0,0-3.318h-2.1V123.8h2.1a1.659,1.659,0,1,0,0-3.318h-2.1V108.318Z" transform="translate(-268.685 -58.41)"/>
          <path id="Trazado_654444" data-name="Trazado 654444" d="M112.995,120.8l-4.679-7.331a8.266,8.266,0,0,0-3.865-3.223,8.263,8.263,0,0,0,2.169-5.586V38.3a8.3,8.3,0,0,0-8.3-8.3H14.931a8.3,8.3,0,0,0-8.3,8.3v66.361A8.263,8.263,0,0,0,8.8,110.242a8.266,8.266,0,0,0-3.865,3.223L.261,120.8a1.659,1.659,0,0,0-.261.893,8.3,8.3,0,0,0,8.3,8.3H104.96a8.3,8.3,0,0,0,8.3-8.3A1.659,1.659,0,0,0,112.995,120.8ZM9.954,38.3a4.983,4.983,0,0,1,4.977-4.977H98.324A4.983,4.983,0,0,1,103.3,38.3v66.361a4.983,4.983,0,0,1-4.977,4.977H14.931a4.983,4.983,0,0,1-4.977-4.977ZM7.737,115.25a4.955,4.955,0,0,1,4.195-2.3h89.392a4.955,4.955,0,0,1,4.2,2.3l3.051,4.779H4.686Zm58.158,8.1-3.318,3.318h-11.9l-3.318-3.318Zm-62.287,0H42.668l3.318,3.318H8.3a4.982,4.982,0,0,1-4.688-3.318Zm101.353,3.318H67.269l3.318-3.318h39.061A4.982,4.982,0,0,1,104.96,126.665Z" transform="translate(0 0)"/>
          <path id="Trazado_654445" data-name="Trazado 654445" d="M61.659,129.679h83.393a1.659,1.659,0,0,0,1.659-1.659V61.659A1.659,1.659,0,0,0,145.052,60H61.659A1.659,1.659,0,0,0,60,61.659v49.77a1.659,1.659,0,0,0,3.318,0V63.318h80.075v63.043H63.318v-8.3a1.659,1.659,0,0,0-3.318,0v9.954A1.659,1.659,0,0,0,61.659,129.679Z" transform="translate(-46.728 -23.364)"/>
        </g>
      </g>
      <rect id="Rectángulo_305736" data-name="Rectángulo 305736" width="164" height="164" transform="translate(179.814 1281.735)" fill="none"/>
    </g>
  </g>
</svg>
