<svg xmlns="http://www.w3.org/2000/svg" width="191.898" height="189.184" viewBox="0 0 191.898 189.184"><g transform="translate(-429.501 -52.195)"><path d="M606.552,197.3a94.989,94.989,0,0,1-18.183,20.9c-.764.649-1.528,1.288-2.309,1.91-.328.262-.657.525-.987.779q-2.57,2.023-5.249,3.836c-.284.193-.578.386-.871.57q-1.784,1.2-3.624,2.293c-1.332.8-2.673,1.568-4.042,2.295-.373.2-.754.4-1.154.6-.036.018-.08.044-.124.062-2.043,1.059-4.131,2.05-6.254,2.951-.08.035-.169.07-.248.106-1.065.455-2.132.884-3.207,1.3-.32.113-.63.235-.95.349a1.14,1.14,0,0,1-.16.062c-.25.106-.515.193-.774.289-.169.062-.337.122-.514.184-.116.044-.231.087-.356.131q-2.133.749-4.308,1.392c-.1.035-.187.053-.284.089-.862.253-1.715.49-2.586.718-2.088.552-4.2,1.042-6.324,1.461-.017,0-.036.01-.053.01a96.576,96.576,0,0,1-10.385,1.436c-.586.062-1.154.1-1.741.131-.577.053-1.155.079-1.732.1-.924.061-1.839.079-2.763.1-.194.008-.39.018-.577.008a7.459,7.459,0,0,1-.772.01c-.2.008-.408.017-.623.017-.408,0-.825-.008-1.234-.017-2.283-.027-4.566-.141-6.841-.325-.266-.025-.541-.044-.808-.079-2.94-.262-5.862-.665-8.793-1.208-.223-.044-.454-.087-.684-.131l-.614-.106a2.021,2.021,0,0,0-.221-.052c-.347-.07-.684-.141-1.048-.22-.1-.017-.2-.044-.293-.061-.41-.089-.809-.176-1.218-.272a94.223,94.223,0,0,1-10.259-2.969c-.249-.087-.5-.176-.737-.263-.356-.122-.7-.253-1.048-.384-1.058-.394-2.115-.806-3.163-1.244l-.053-.025c-.524-.2-1.04-.421-1.564-.657-.124-.052-.24-.106-.356-.166-.293-.132-.586-.255-.871-.394-.47-.2-.941-.412-1.4-.622-.426-.21-.843-.411-1.261-.612l-1.039-.525c-.061-.027-.133-.062-.2-.1-.4-.193-.8-.411-1.189-.612a.415.415,0,0,1-.116-.062,1.028,1.028,0,0,1-.169-.1c-.418-.211-.827-.429-1.235-.649-.24-.131-.48-.263-.72-.4-.55-.307-1.11-.622-1.661-.946-.231-.139-.471-.272-.7-.42a2.351,2.351,0,0,1-.266-.158c-.338-.2-.675-.4-1-.605l-.427-.262c-.5-.307-1-.622-1.474-.946-.09-.062-.187-.122-.276-.184l-.08-.052a.072.072,0,0,0-.036-.018,8.333,8.333,0,0,1-.738-.5c-.328-.2-.648-.412-.958-.639-.036-.018-.071-.053-.107-.07-.133-.1-.257-.184-.383-.272-.319-.218-.63-.429-.941-.648-.027-.008-.044-.035-.062-.052-.747-.526-1.475-1.06-2.186-1.612-.47-.35-.932-.7-1.394-1.06-.551-.438-1.111-.884-1.653-1.332-.08-.069-.168-.139-.257-.21-.764-.621-1.519-1.27-2.247-1.936-.586-.507-1.164-1.033-1.732-1.567-1.519-1.384-2.959-2.811-4.352-4.282-.009-.018-.036-.027-.044-.052-1.067-1.122-2.088-2.259-3.091-3.425-1.439-1.691-2.834-3.415-4.148-5.193-1.075-1.454-2.123-2.934-3.11-4.44a.52.52,0,0,0-.044-.079c-1.065-1.62-2.088-3.274-3.037-4.956a5.539,5.539,0,0,1-.328-.6c-.675-1.165-1.3-2.356-1.9-3.556-.4-.8-.79-1.577-1.172-2.373q-1.958-4.189-3.508-8.521c-.471-1.34-.924-2.679-1.332-4.046-.036-.1-.071-.21-.1-.324-.08-.28-.169-.552-.257-.84-.223-.762-.435-1.533-.64-2.295a93.16,93.16,0,0,1,11.734-74.392C472.654,52.1,531.91,38.931,576.7,66.832S634.853,153.15,606.552,197.3Z" transform="translate(0 0)" fill="#b9cee6"/><g transform="translate(479.812 90.722)"><g transform="translate(5.782 115.359)"><path d="M494.368,212.1c-.41-.088-.809-.175-1.218-.271a94.464,94.464,0,0,1-10.259-2.959c-.249-.087-.5-.175-.737-.262-.356-.122-.7-.253-1.048-.383-1.058-.393-2.115-.8-3.163-1.24l-.053-.025c-.524-.2-1.039-.419-1.564-.655-.124-.052-.24-.105-.356-.166-.293-.132-.586-.254-.871-.393.809-9.566,1.546-18.872,2.088-26.753h9.949l8.439,15.257C495.993,197.4,495.45,204.032,494.368,212.1Z" transform="translate(-475.1 -178.99)" fill="#ea6ca0"/><path d="M492.28,203.193c-.027,1.816-.044,3.64-.063,5.473a94.461,94.461,0,0,1-10.259-2.959c-.249-.087-.5-.175-.737-.262-.693-3.727-1.422-7.488-2.07-11.32Z" transform="translate(-474.168 -175.83)" fill="#db5290"/></g><g transform="translate(0 86.793)"><path d="M514.752,219.205c-2.283-.027-4.566-.14-6.841-.324-.266-.025-.541-.044-.808-.079-2.94-.261-5.862-.662-8.793-1.2-.223-.044-.454-.087-.684-.131l-.614-.105a2.032,2.032,0,0,0-.221-.052c-.347-.07-.684-.14-1.048-.219-.1-.017-.2-.044-.293-.06-.41-.088-.809-.175-1.218-.271a94.464,94.464,0,0,1-10.259-2.959c-.249-.087-.5-.175-.737-.262-.356-.122-.7-.253-1.048-.383-1.058-.393-2.115-.8-3.163-1.24l-.053-.025c-.524-.2-1.039-.419-1.564-.655-.124-.052-.24-.105-.355-.166-.293-.132-.586-.254-.871-.393-.47-.2-.941-.411-1.4-.62-.426-.209-.843-.41-1.261-.61-1.616-3.064-2.877-5.8-3.117-8-.107-1,13.492-40.291,16.175-40.972a165.913,165.913,0,0,1,19.142-3.325c6.813-.838,14.132-1.449,20.963-1.685,1.128-.035,2.239-.069,3.331-.079,1.466-.025,2.887-.034,4.272-.008,7.275.079,13.387.742,16.825,2.208.009,0,.017.008.036.008,1.758.76,2.806,1.729,2.949,2.934.355,3.046-1.111,11.294-2.967,23.9,0,0-.009,0,0,.008l-.16,1.1c-.169,1.153-.337,2.27-.506,3.344a81.725,81.725,0,0,1-2.142,10.823,4.433,4.433,0,0,1-.213.55c-.116.244-.248.523-.4.829l-.009.008c0,.008,0,.018-.019.035-.079.184-.186.384-.284.594-.053.114-.106.227-.168.349-.124.236-.24.488-.373.751v.017c-.907,1.859-2.079,4.295-3.384,7.227q-.947,2.109-1.972,4.556c-.187.446-.364.9-.542,1.354-2.088.55-4.2,1.038-6.324,1.457-.017,0-.036.01-.053.01a96.866,96.866,0,0,1-10.385,1.431c-.586.062-1.154.1-1.741.131-.577.053-1.155.079-1.732.1-.924.06-1.839.079-2.763.1-.194.008-.39.018-.577.008a7.49,7.49,0,0,1-.772.01c-.2.008-.408.017-.622.017C515.578,219.222,515.161,219.213,514.752,219.205Z" transform="translate(-470.4 -155.357)" fill="#ea6ca0"/><path d="M543.132,180.951c-.166,1.148-.336,2.266-.5,3.34-.875,5.637-1.712,10.024-2.359,11.381-.862,1.81-2.58,5.207-4.635,9.806q-.947,2.118-1.972,4.557a28.062,28.062,0,0,1-13.131,2.841,26.912,26.912,0,0,1-16.1-6.066c5.291,2.4,39.419,1.655,37.468-29.522Z" transform="translate(-462.566 -150.779)" fill="#db5290"/></g><g transform="translate(5.07)"><g transform="translate(23.207 56.153)"><path d="M523.734,155.616l-2.373-.044-22.833,1.888s-2.736,13.235-3.307,17.7c-.839,6.577-1.835,26.452-1.835,26.452S527.992,157.23,523.734,155.616Z" transform="translate(-493.386 -124.673)" fill="#db5290"/><path d="M494.878,201.739s2.557-33.279,5.169-39.041l.239-2.9-.111-6-.284-15.292,24.8-7.815-.825,12.907-2.85,17.17C525.274,162.382,494.878,201.739,494.878,201.739Z" transform="translate(-493.043 -129.868)" fill="#fba479"/><path d="M524.213,142.094s-1.623,10.78-24.949,13.652l-.111-6-.285-15.294,16.279-4.442,4.655,10.328.982,2.178C520.424,142.774,524.6,141.846,524.213,142.094Z" transform="translate(-492.124 -130.01)" fill="#f48656"/></g><g transform="translate(22.423 60.571)"><path d="M492.967,133.754l-.218-.089A1.561,1.561,0,0,0,492.967,133.754Z" transform="translate(-492.749 -133.665)" fill="#ef7950"/></g><g transform="translate(22.817 60.905)"><path d="M493.323,133.954l-.251-.013C493.048,134.02,493.172,134,493.323,133.954Z" transform="translate(-493.069 -133.941)" fill="#ef7950"/></g><g transform="translate(25.226 59.624)"><path d="M495.129,132.925l-.1-.044A.506.506,0,0,0,495.129,132.925Z" transform="translate(-495.027 -132.881)" fill="#ef7950"/></g><path d="M508.205,129.442a127.45,127.45,0,0,1,8.046-27.736L507.879,99.3c.829.127,6.377-4.9,7.775-6.055,1.532-1.266,8.466-5.292,9.97-6.506-2.624-2.852-10.157-3.417-13.891-3.1-6.471.545-13.431,6.288-16.963,11.473-6.826,10.018-10.9,22.389-14.417,33.859-1.786,5.829-3.565,11.683-5.726,17.375-1.094,2.881,6.581,9.132,9.443,10.151.506-1.209,2.058-3.266,2.559-4.5-.352,1.527.624,3.467.643,5.012,3.185.827,15.312,3.146,16.817,2.154,1.766-1.165,1.165-8.765,1.447-10.9C506.364,141.974,507.036,135.681,508.205,129.442Z" transform="translate(-474.521 -83.556)" fill="#82112f"/><path d="M537.79,135.227c-2.286,5.279-13.647,17.231-14.034,17.479-5.59,3.554-14.917,5.273-21.47,5.708-.774.053-1.524.075-2.244.068-5.127-.051-19.245-19.546-12.594-36.154,3.933-9.818,5.116-21.132,12.7-28.6,8.894-8.756,29.631-1.785,32.962,2.685C540.489,106.3,542.439,124.464,537.79,135.227Z" transform="translate(-471.948 -82.309)" fill="#fba479"/><g transform="translate(27.009 45.2)"><path d="M498.049,121.544c-1.073.572-2.1.959-1.268,2.444,1.164,2.073,4.213,2.164,5.467,2.111-.706-.267-3.818-1.638-4.616-2.61C497.085,122.822,501.6,119.65,498.049,121.544Z" transform="translate(-496.476 -120.948)" fill="#f48656"/></g><path d="M492.33,105.048l-.319.346c1.265-1.18,6.793-1.141,7.559.5C501.471,99.581,494.137,102.877,492.33,105.048Z" transform="translate(-470.496 -79.658)" fill="#82112f"/><path d="M522.625,114.118l.135.5c-.653-1.839-6.716-5.7-8.566-4.92C516.013,103.293,521.99,111.1,522.625,114.118Z" transform="translate(-465.39 -78.61)" fill="#82112f"/><path d="M493.518,129.012l-.132-.031c.033.157,3.839,5.649,4.726,8.041.629,1.694,9.765,6.382,14.7-5.425C511.841,133.925,496.581,129.987,493.518,129.012Z" transform="translate(-470.179 -74.072)" fill="#d85039"/><g transform="translate(27.943 59.865)"><path d="M504.614,138.17a5.771,5.771,0,0,1-6.5-2.187s-1.487-2.308-.6-2.807a.882.882,0,0,1,.469-.1c1.616.035,8.862.416,10.7.667C507.821,137.672,506.761,137.468,504.614,138.17Z" transform="translate(-497.236 -133.08)" fill="#fff"/></g><path d="M510.618,132.469c-.611,1.164-1.121,2.316-2.513,2.673a14.782,14.782,0,0,1-6.257.114,11.751,11.751,0,0,1-3.663-1.133,5.023,5.023,0,0,1-1.748-1.643,10.809,10.809,0,0,1-1.559-3.613l14.265,3.265Z" transform="translate(-469.836 -74.096)" fill="#fff"/><path d="M510.372,131.4c-.61,1.163-1.493,2.862-2.886,3.219a14.782,14.782,0,0,1-6.257.114,11.752,11.752,0,0,1-3.663-1.133,7.4,7.4,0,0,0,1.643.319c1.514.105,2.981.257,4.512.225a7.967,7.967,0,0,0,3.387-.661,2.573,2.573,0,0,0,1.416-1.874Z" transform="translate(-469.217 -73.568)" fill="#e8e6e6"/><g transform="translate(39.536 33.865)"><path d="M523.1,123.81c.068-4.342-1.949-11.412-10.673-7.476a24.305,24.305,0,0,0-5.65,2.826.5.5,0,0,0-.089.065l-.033.018c.122.087.242.174.365.257.515.367,1.031.726,1.551,1.073.385.259.771.513,1.164.759.132.086.262.167.394.248l.394.243c.16.1.325.2.486.293l.561.328c.312.178.626.354.945.525.061.035.126.068.192.1q.282.152.568.293a.273.273,0,0,0,.052.028c.176.091.351.176.527.26.112.057.225.109.341.163s.248.115.369.168c.15.069.305.139.46.2s.336.146.507.216c.027.008.058.023.084.034.073.027.14.058.214.082.14.059.282.114.423.164.287.11.575.213.864.312.146.052.293.1.437.143s.29.091.438.135c.129.035.256.075.389.111a.954.954,0,0,0,.093.024c.283.077.568.15.855.22.621.15,1.25.268,1.9.366.257.035.519.071.777.1l.012,0c.257.031.518.054.779.074.02-.068.043-.138.063-.206A6.69,6.69,0,0,0,523.1,123.81Z" transform="translate(-506.66 -110.818)" fill="#fff"/><g transform="translate(7.351 4.411)"><path d="M519.514,120.9c-.6,2.713-2.593,4.59-4.445,4.192s-2.863-2.919-2.259-5.632,2.593-4.589,4.445-4.191S520.117,118.192,519.514,120.9Z" transform="translate(-512.636 -115.221)" fill="#574984"/><path d="M518.124,120.236c-.422,1.891-1.728,3.214-2.922,2.958s-1.818-2-1.4-3.885,1.727-3.213,2.92-2.955S518.543,118.348,518.124,120.236Z" transform="translate(-512.397 -114.991)" fill="#291c51"/><path d="M520.055,118.508l-3.928-.109s2.407,2.241,3.305,1.912C519.888,120.147,520.055,118.508,520.055,118.508Z" transform="translate(-511.832 -114.557)" fill="#fff"/></g><path d="M522.795,126.924a9.042,9.042,0,0,0,.31-2.36c.068-4.342-1.949-11.412-10.673-7.476-2.768,1.25-5.418,2.713-5.739,2.891l-.033.018S515.55,107.8,523,112.754C526.742,115.236,524.953,123.853,522.795,126.924Z" transform="translate(-506.66 -111.572)" fill="#ef7950"/><path d="M521.935,125.348c-7.565.968-12.924-3.819-14.978-6.593.515.367,1.031.726,1.551,1.073.385.259.771.513,1.164.759.132.086.262.167.394.248l.394.243c.16.1.325.2.486.293l.561.328c.312.178.626.354.945.525.061.035.125.068.192.1q.282.152.568.293a.27.27,0,0,0,.052.028c.176.091.351.176.526.26.112.057.225.109.341.163s.248.115.369.168c.15.069.305.139.46.2s.336.146.507.216c.027.008.058.023.084.034.073.027.14.058.214.082.14.059.282.114.423.164.287.11.574.213.864.312.146.052.293.1.437.143s.29.091.438.135c.129.035.256.075.389.111a.959.959,0,0,0,.093.024c.283.077.568.15.855.22.621.15,1.25.268,1.9.366C521.415,125.285,521.677,125.321,521.935,125.348Z" transform="translate(-506.592 -110.072)" fill="#ef7950"/></g><g transform="translate(17.363 26.402)"><path d="M489.82,111.921c2.464-2.705,7.671-5.963,10.309,1.156a18.831,18.831,0,0,1,1.55,4.781.638.638,0,0,1,.012.089l.007.029c-.118-.012-.237-.024-.353-.039-.5-.053-1-.109-1.491-.176-.367-.048-.731-.1-1.094-.161-.122-.018-.242-.039-.363-.059l-.362-.063c-.146-.025-.3-.054-.44-.083l-.5-.1c-.278-.059-.556-.118-.833-.186-.057-.012-.111-.025-.168-.041-.164-.04-.327-.08-.488-.126a.277.277,0,0,1-.046-.011c-.15-.039-.3-.08-.445-.125-.1-.025-.19-.054-.285-.083s-.205-.064-.305-.1c-.123-.039-.251-.079-.376-.122s-.273-.091-.408-.141c-.021-.008-.046-.015-.066-.023-.058-.023-.113-.04-.168-.064-.112-.04-.223-.083-.332-.128-.224-.086-.445-.179-.664-.273-.112-.048-.223-.1-.328-.147l-.323-.154c-.093-.048-.188-.092-.284-.141a.438.438,0,0,1-.066-.036c-.2-.1-.406-.213-.608-.324-.435-.243-.857-.508-1.277-.8-.164-.117-.332-.236-.493-.359l-.007,0c-.164-.12-.323-.245-.481-.375.028-.052.054-.106.084-.161A6.1,6.1,0,0,1,489.82,111.921Z" transform="translate(-488.635 -104.692)" fill="#fff"/><g transform="translate(4.627 2.945)"><path d="M499.274,113.519c-.6,2.711-2.593,4.589-4.445,4.191s-2.861-2.919-2.259-5.632,2.593-4.59,4.445-4.191S499.877,110.805,499.274,113.519Z" transform="translate(-492.396 -107.834)" fill="#574984"/><path d="M497.882,112.85c-.419,1.888-1.727,3.213-2.919,2.957s-1.818-2-1.4-3.885,1.727-3.213,2.919-2.955S498.3,110.961,497.882,112.85Z" transform="translate(-492.157 -107.604)" fill="#291c51"/><path d="M499.815,111.122l-3.928-.11s2.407,2.241,3.305,1.912C499.648,112.76,499.815,111.122,499.815,111.122Z" transform="translate(-491.593 -107.17)" fill="#fff"/></g><path d="M488.635,114.242a8.19,8.19,0,0,1,1.185-1.616c2.464-2.705,7.671-5.963,10.309,1.156.836,2.26,1.484,4.587,1.562,4.87l.007.029s2.026-12.284-5.017-13.256C493.15,104.933,489.19,111.192,488.635,114.242Z" transform="translate(-488.635 -105.397)" fill="#ef7950"/><path d="M489.032,113.028c3.7,4.672,9.467,4.618,12.222,4.02-.5-.053-1-.109-1.491-.176-.367-.048-.731-.1-1.094-.161-.122-.018-.242-.039-.363-.059l-.362-.063c-.146-.025-.3-.054-.44-.083l-.5-.1c-.278-.059-.556-.118-.833-.186-.057-.012-.111-.025-.169-.041-.164-.04-.327-.08-.488-.126a.277.277,0,0,1-.046-.011c-.15-.039-.3-.08-.445-.125-.1-.025-.189-.054-.285-.083s-.205-.064-.305-.1c-.123-.039-.251-.079-.376-.122s-.273-.091-.408-.141c-.021-.008-.046-.015-.066-.023-.058-.023-.113-.04-.169-.064-.112-.04-.223-.083-.332-.128-.224-.086-.445-.179-.664-.273-.112-.048-.223-.1-.328-.147l-.323-.154c-.093-.048-.188-.092-.284-.141a.439.439,0,0,1-.066-.036c-.2-.1-.406-.213-.608-.324-.435-.243-.857-.508-1.277-.8C489.362,113.27,489.193,113.151,489.032,113.028Z" transform="translate(-488.544 -103.804)" fill="#ef7950"/></g><path d="M502.6,129.015a.406.406,0,0,0-.063-.035,7.572,7.572,0,0,1-2.1.612,3.164,3.164,0,0,1-1.821-.882c-.907-.689-.907-.776-1.955-.393a8.271,8.271,0,0,1-2.38.6c-.88-.234-1.458-.392-1.458-.392s4.1,7.1,4.9,8.806a7.181,7.181,0,0,0,2.639,2.994c.009.008.019.018.027.018a6.214,6.214,0,0,0,.844.462,7.016,7.016,0,0,0,4.29.7c2.834-.978,5.082-3.7,6.618-6.171A29.772,29.772,0,0,0,514.37,131c.071-.183.107-.279.107-.279C512.665,130.315,507.654,132.471,502.6,129.015Zm7.781,3.491a.612.612,0,0,1,.124-.008c.284-.017.543-.027.764-.044h.01c.133-.008.257-.017.364-.027h.017c.036,0,.071-.008.107-.008-.044.079-.284.55-.675,1.231-.408.69-.968,1.588-1.661,2.541a.009.009,0,0,0-.01.008c-.053.07-.106.131-.16.2l-.009.008c-.106.149-.213.3-.337.445a8.273,8.273,0,0,1-7.124,1.745h-.01a3.026,3.026,0,0,1-.4-.131,5.521,5.521,0,0,1-1.065-.542,6.48,6.48,0,0,1-1.4-1.274.008.008,0,0,0-.009-.008,33.846,33.846,0,0,1-2.15-3.212c-.764-1.257-1.509-2.541-2.1-3.431.32.1.675.192,1.058.288.08.027.169.053.257.079,1.279.341,2.824.734,4.424,1.1.107.027.2.052.3.07.525.114,1.031.218,1.528.314a39.888,39.888,0,0,0,4.646.585q.88.065,1.625.079h.33c.257.008.488.008.72,0h.009c.266,0,.5,0,.728-.01Z" transform="translate(-470.309 -74.258)" fill="#fc5135"/><path d="M498.646,140.08c.225.595.563,1.233.816,1.849,1.3-1.655,3.168-1.422,5.127-1.611C504.589,140.318,499.845,139.236,498.646,140.08Z" transform="translate(-468.968 -71.822)" fill="#f48656"/><g transform="translate(21.423 2.329)"><path d="M552.954,127.322c-8.968-44.6-25.051-44.908-38.941-39.4-5.853,2.323-9.874,12.389-9.874,12.389s17.3,2.207,19.878,17.466c1.915,11.34,9.325,10.859,6.842,16.2-6.094,13.107-11.419,24.6-23.011,30.366.652.141,14.1,7.386,18.629,5.632,1.965-.762,4.191-7.209,4.191-7.209l-.551,6.634s15.673.962,23.211-9.548C555.205,157.233,554.413,134.573,552.954,127.322Z" transform="translate(-489.127 -85.483)" fill="#82112f"/><path d="M509.387,87.664a25.254,25.254,0,0,0-8.868.722c-1.752.417-5.236,1.993-5.958,3.5l-2.625,5.748c2.218-1.27,5.633-.826,8.067-.3,1.856.4,4.029.879,5.5,2.092.634-2.31,3.043-4.648,4.716-6.312a28.168,28.168,0,0,1,5.147-3.961A49.132,49.132,0,0,0,509.387,87.664Z" transform="translate(-491.936 -85.058)" fill="#82112f"/></g><g transform="translate(59.199 45.76)"><path d="M533.507,121.989c-1.808-1.209-4.688-.294-6.219.718-2.239,1.483-5.908,7.733-4.209,9.774,2.721,3.271,9.882-1.261,11.391-5.025C535.1,125.883,535.142,123.08,533.507,121.989Z" transform="translate(-522.644 -121.412)" fill="#fba479"/><path d="M533.552,125.524c.263-4.771-6.756-3.88-7.72-.117,1.587-.5,2.209,1.739,1.517,2.8a1.753,1.753,0,0,1-3.1-.328c-.353,2.1,2.783,2.309,4.015,1.327a2.828,2.828,0,0,0-.619-4.664c1.816-2.258,6.108-.875,5.533,2.119Z" transform="translate(-522.282 -121.236)" fill="#f48656"/></g></g><path d="M528.938,207.77c-2.088.55-4.2,1.038-6.324,1.457.1-.191.2-.375.3-.558a25.009,25.009,0,0,1,2.025-3.168l9.9-10.884v.017c-.907,1.859-2.079,4.295-3.384,7.227q-.947,2.109-1.972,4.556C529.294,206.862,529.117,207.316,528.938,207.77Z" transform="translate(-458.382 -60.368)" fill="#db5290"/></g><g transform="translate(548.725 178.803)"><path d="M547.7,208.2c-2.043,1.055-4.131,2.043-6.254,2.941-.08.035-.169.07-.249.105-1.065.453-2.132.881-3.207,1.292-.844-4.338-1.705-8.729-2.567-13.067-.017-.114-.044-.219-.062-.331-.178-.891-.356-1.772-.533-2.655-.036-.218-.08-.436-.124-.662-3.234-16.21-6.361-31.2-8.289-39.009a27.842,27.842,0,0,1,11.8.542c.009,0,.017.008.036.008a16.815,16.815,0,0,1,7.185,4.076c5.117,5.029,8.821,22.468,11.21,41.531q-1.784,1.191-3.624,2.286c-1.332.794-2.673,1.563-4.042,2.287-.373.2-.754.4-1.154.594C547.792,208.159,547.747,208.184,547.7,208.2Z" transform="translate(-526.419 -156.424)" fill="#ea6ca0"/><path d="M536.664,180.824c.613,6.573,1.616,16.427,2.967,27.042-1.065.453-2.132.881-3.207,1.292-.32.112-.63.235-.95.348a1.148,1.148,0,0,1-.16.062c-.72-3.518-1.414-6.992-2.079-10.344v-1.745l.008-.008c-.008-1.449,0-2.907.019-4.365.009-.34.009-.681.017-1.012.124-7.079.64-14.1,2.656-19.465,0,0,.249,3.116.728,8.187C536.664,180.815,536.656,180.815,536.664,180.824Z" transform="translate(-524.85 -153.04)" fill="#db5290"/></g></g></svg>