<svg xmlns="http://www.w3.org/2000/svg" xmlns:xlink="http://www.w3.org/1999/xlink" width="183.639" height="185.423" viewBox="0 0 183.639 185.423">
  <defs>
    <filter id="Elipse_7682" x="0" y="0" width="183.639" height="185.423" filterUnits="userSpaceOnUse">
      <feOffset dy="3" input="SourceAlpha"/>
      <feGaussianBlur stdDeviation="3" result="blur"/>
      <feFlood flood-opacity="0.161"/>
      <feComposite operator="in" in2="blur"/>
      <feComposite in="SourceGraphic"/>
    </filter>
    <clipPath id="clip-path">
      <rect id="Rectángulo_305742" data-name="Rectángulo 305742" width="119" height="105" transform="translate(275 911)" fill="#fff" stroke="#707070" stroke-width="1"/>
    </clipPath>
  </defs>
  <g id="Grupo_953308" data-name="Grupo 953308" transform="translate(-565.636 -871.009)">
    <g transform="matrix(1, 0, 0, 1, 565.64, 871.01)" filter="url(#Elipse_7682)">
      <ellipse id="Elipse_7682-2" data-name="Elipse 7682" cx="82.819" cy="83.712" rx="82.819" ry="83.712" transform="translate(9 6)" fill="#ffeed9"/>
    </g>
    <g id="Enmascarar_grupo_56" data-name="Enmascarar grupo 56" transform="translate(321 -2)" clip-path="url(#clip-path)">
      <g id="lista-de-verificacion" transform="translate(264.385 910.684)">
        <g id="Grupo_930535" data-name="Grupo 930535" transform="translate(35.537 1.518)">
          <g id="Grupo_930534" data-name="Grupo 930534" transform="translate(0)">
            <g id="Grupo_930531" data-name="Grupo 930531">
              <g id="Grupo_930528" data-name="Grupo 930528">
                <path id="Trazado_626654" data-name="Trazado 626654" d="M109.3,140.7H45.23a3.715,3.715,0,0,1-3.715-3.715V52.106a3.715,3.715,0,0,1,3.715-3.715H109.3a3.715,3.715,0,0,1,3.715,3.715V136.98A3.715,3.715,0,0,1,109.3,140.7Z" transform="translate(-41.515 -40.116)" fill="#ffc250"/>
                <path id="Trazado_626655" data-name="Trazado 626655" d="M327.461,48.39H315.026a3.715,3.715,0,0,1,3.715,3.715v84.874a3.715,3.715,0,0,1-3.715,3.715h12.435a3.715,3.715,0,0,0,3.715-3.715V52.106a3.715,3.715,0,0,0-3.715-3.716Z" transform="translate(-259.674 -40.115)" fill="#eab14d"/>
                <path id="Trazado_626656" data-name="Trazado 626656" d="M71.522,157.229v-77.5A1.328,1.328,0,0,1,72.85,78.4h56.7a1.328,1.328,0,0,1,1.328,1.328v77.5a1.328,1.328,0,0,1-1.328,1.328H72.85a1.328,1.328,0,0,1-1.328-1.328Z" transform="translate(-65.449 -64.05)" fill="#f5f5f5"/>
                <path id="Trazado_626657" data-name="Trazado 626657" d="M309.251,78.4H296.816a1.328,1.328,0,0,1,1.328,1.328v77.5a1.328,1.328,0,0,1-1.328,1.328h12.435a1.328,1.328,0,0,0,1.328-1.328v-77.5A1.328,1.328,0,0,0,309.251,78.4Z" transform="translate(-245.15 -64.05)" fill="#eaeaea"/>
                <path id="Trazado_626658" data-name="Trazado 626658" d="M163.19,12.124V10.168A2.668,2.668,0,0,0,160.522,7.5h-10.45a2.668,2.668,0,0,0-2.668,2.668v1.956a1.091,1.091,0,0,1-1.091,1.091h-4.349a2.62,2.62,0,0,0-2.62,2.62v6.013H171.25V15.835a2.62,2.62,0,0,0-2.62-2.62h-4.349A1.091,1.091,0,0,1,163.19,12.124Z" transform="translate(-119.546 -7.5)" fill="#c2d0da"/>
              </g>
              <g id="Grupo_930530" data-name="Grupo 930530" transform="translate(13.798 21.866)">
                <g id="Grupo_930529" data-name="Grupo 930529" transform="translate(0)">
                  <path id="Trazado_626659" data-name="Trazado 626659" d="M109.694,129.59v-11.7a2.346,2.346,0,0,1,2.346-2.346h11.7a2.346,2.346,0,0,1,2.346,2.346v11.7a2.346,2.346,0,0,1-2.346,2.346h-11.7A2.346,2.346,0,0,1,109.694,129.59Z" transform="translate(-109.694 -115.548)" fill="#66b49d"/>
                  <path id="Trazado_626660" data-name="Trazado 626660" d="M109.694,250V238.3a2.346,2.346,0,0,1,2.346-2.346h11.7a2.346,2.346,0,0,1,2.346,2.346V250a2.346,2.346,0,0,1-2.346,2.346h-11.7A2.346,2.346,0,0,1,109.694,250Z" transform="translate(-109.694 -211.588)" fill="#66b49d"/>
                  <path id="Trazado_626661" data-name="Trazado 626661" d="M109.694,370.4v-11.7a2.346,2.346,0,0,1,2.346-2.346h11.7a2.346,2.346,0,0,1,2.346,2.346v11.7a2.346,2.346,0,0,1-2.346,2.346h-11.7A2.346,2.346,0,0,1,109.694,370.4Z" transform="translate(-109.694 -307.626)" fill="#66b49d"/>
                </g>
              </g>
            </g>
            <g id="Grupo_930533" data-name="Grupo 930533" transform="translate(39.159 23.582)">
              <g id="Grupo_930532" data-name="Grupo 930532" transform="translate(2.493)">
                <path id="Trazado_626662" data-name="Trazado 626662" d="M286.586,180.322l-1.49-1.963-5.576-3.531-2.143-.338-28.552,45.118a11.753,11.753,0,0,0-1.5,3.533,9.2,9.2,0,0,1,8.151,5.162,11.751,11.751,0,0,0,2.555-2.863Z" transform="translate(-247.328 -164.278)" fill="#fc8086"/>
                <path id="Trazado_626663" data-name="Trazado 626663" d="M421.14,126.178l-2.409-1.526a4.025,4.025,0,0,0-5.554,1.248l-2.21,3.492.7,1.421,6.7,4.246,1.8.166,2.211-3.494A4.024,4.024,0,0,0,421.14,126.178Z" transform="translate(-377.851 -124.027)" fill="#8c9ba6"/>
              </g>
              <path id="Trazado_626664" data-name="Trazado 626664" d="M0,0H5.737V10.9H0Z" transform="matrix(0.535, -0.845, 0.845, 0.535, 32.545, 10.199)" fill="#c9e2e7"/>
              <path id="Trazado_626665" data-name="Trazado 626665" d="M245.655,420.057l-8.13,6.551a1.543,1.543,0,0,1-2.468-1.563L237.5,414.9A9.2,9.2,0,0,1,245.655,420.057Z" transform="translate(-235.011 -356.031)" fill="#7c8b96"/>
            </g>
          </g>
        </g>
        <g id="Grupo_930538" data-name="Grupo 930538" transform="translate(34.02 0)">
          <g id="Grupo_930537" data-name="Grupo 930537">
            <g id="Grupo_930536" data-name="Grupo 930536">
              <path id="Trazado_626666" data-name="Trazado 626666" d="M135.576,135.634a1.518,1.518,0,0,0-2.122.323l-3,4.082-1.027-1.411a1.518,1.518,0,1,0-2.455,1.787l1.772,2.434a2.118,2.118,0,0,0,1.7.868h.005a2.117,2.117,0,0,0,1.7-.859l3.754-5.1A1.519,1.519,0,0,0,135.576,135.634Z" transform="translate(-107.925 -107.95)"/>
              <path id="Trazado_626667" data-name="Trazado 626667" d="M135.575,258.661a1.518,1.518,0,0,0-2.122.323l-3,4.081-1.027-1.411a1.518,1.518,0,1,0-2.455,1.787l1.772,2.434a2.117,2.117,0,0,0,1.7.868h.005a2.118,2.118,0,0,0,1.7-.859l3.754-5.1a1.519,1.519,0,0,0-.323-2.123Z" transform="translate(-107.924 -206.079)"/>
              <path id="Trazado_626668" data-name="Trazado 626668" d="M135.575,376.445a1.518,1.518,0,0,0-2.122.323l-3,4.081-1.027-1.411a1.518,1.518,0,1,0-2.455,1.787l1.772,2.434a2.117,2.117,0,0,0,1.7.868h.005a2.118,2.118,0,0,0,1.7-.859l3.754-5.1a1.519,1.519,0,0,0-.323-2.123Z" transform="translate(-107.924 -300.027)"/>
              <path id="Trazado_626669" data-name="Trazado 626669" d="M222.043,135.9h18.763a1.518,1.518,0,1,0,0-3.036H222.043a1.518,1.518,0,1,0,0,3.036Z" transform="translate(-182.781 -105.978)"/>
              <path id="Trazado_626670" data-name="Trazado 626670" d="M222.043,167.244h9.382a1.518,1.518,0,1,0,0-3.036h-9.382a1.518,1.518,0,1,0,0,3.036Z" transform="translate(-182.781 -130.977)"/>
              <path id="Trazado_626671" data-name="Trazado 626671" d="M222.043,256.308h12.589a1.518,1.518,0,0,0,0-3.036H222.043a1.518,1.518,0,1,0,0,3.036Z" transform="translate(-182.781 -202.016)"/>
              <path id="Trazado_626672" data-name="Trazado 626672" d="M231.425,287.65a1.518,1.518,0,1,0,0-3.036h-9.382a1.518,1.518,0,1,0,0,3.036Z" transform="translate(-182.781 -227.015)"/>
              <path id="Trazado_626673" data-name="Trazado 626673" d="M117.758,108.047h-11.7a3.869,3.869,0,0,0-3.865,3.865v11.7a3.869,3.869,0,0,0,3.865,3.865h11.7a3.869,3.869,0,0,0,3.865-3.865v-11.7A3.869,3.869,0,0,0,117.758,108.047Zm.828,15.561a.829.829,0,0,1-.828.828h-11.7a.829.829,0,0,1-.828-.828v-11.7a.829.829,0,0,1,.828-.828h11.7a.829.829,0,0,1,.828.828Z" transform="translate(-88.4 -86.181)"/>
              <path id="Trazado_626674" data-name="Trazado 626674" d="M117.758,228.453h-11.7a3.869,3.869,0,0,0-3.865,3.865v11.7a3.869,3.869,0,0,0,3.865,3.865h11.7a3.869,3.869,0,0,0,3.865-3.865v-11.7A3.869,3.869,0,0,0,117.758,228.453Zm.828,15.561a.829.829,0,0,1-.828.828h-11.7a.829.829,0,0,1-.828-.828v-11.7a.829.829,0,0,1,.828-.828h11.7a.829.829,0,0,1,.828.828Z" transform="translate(-88.4 -182.22)"/>
              <path id="Trazado_626675" data-name="Trazado 626675" d="M117.758,348.857h-11.7a3.869,3.869,0,0,0-3.865,3.865v11.7a3.869,3.869,0,0,0,3.865,3.865h11.7a3.869,3.869,0,0,0,3.865-3.865v-11.7A3.869,3.869,0,0,0,117.758,348.857Zm.828,15.561a.829.829,0,0,1-.828.828h-11.7a.829.829,0,0,1-.828-.828v-11.7a.829.829,0,0,1,.828-.828h11.7a.829.829,0,0,1,.828.828Z" transform="translate(-88.4 -278.257)"/>
              <path id="Trazado_626676" data-name="Trazado 626676" d="M121.29,25.968l-2.409-1.526a5.542,5.542,0,0,0-7.649,1.719l-2.21,3.491L105.954,34.5l-3.47,5.483V17.194a2.849,2.849,0,0,0-2.846-2.846H88.76V11.311h14.564a2.2,2.2,0,0,1,2.2,2.2V26.657a1.518,1.518,0,0,0,3.036,0V13.509a5.24,5.24,0,0,0-5.234-5.234H88.446a4.143,4.143,0,0,0-3.824-2.56H80.7V4.186A4.191,4.191,0,0,0,76.514,0H66.064a4.191,4.191,0,0,0-4.186,4.186V5.715H57.956a4.143,4.143,0,0,0-3.824,2.56H39.254a5.239,5.239,0,0,0-5.234,5.234V98.382a5.24,5.24,0,0,0,5.234,5.234h64.071a5.24,5.24,0,0,0,5.234-5.234V64.341a1.518,1.518,0,0,0-3.036,0V98.382a2.2,2.2,0,0,1-2.2,2.2H39.254a2.2,2.2,0,0,1-2.2-2.2V13.509a2.2,2.2,0,0,1,2.2-2.2H53.818v3.036H42.939a2.849,2.849,0,0,0-2.846,2.846V94.7a2.849,2.849,0,0,0,2.846,2.846h56.7a2.849,2.849,0,0,0,2.846-2.846V66.046l15.245-24.09h0l3.067-4.846,2.211-3.494a5.549,5.549,0,0,0-1.718-7.647Zm-5.924.711a2.487,2.487,0,0,1,1.89.328l2.409,1.526a2.509,2.509,0,0,1,.777,3.458l-1.4,2.21L112.4,29.994l1.4-2.209a2.489,2.489,0,0,1,1.568-1.105ZM86.612,85.45a10.218,10.218,0,0,1-.961,1.282A10.672,10.672,0,0,0,84.037,85l28.289-44.673,2.026,1.283ZM76.245,94.5a.2.2,0,0,0-.029-.011h0l2.145-8.908a7.643,7.643,0,0,1,5.013,3.174C75.333,95.239,76.36,94.4,76.245,94.5ZM110.776,32.56l6.644,4.208-1.444,2.282-6.644-4.208ZM56.854,9.887c0-.019,0-.037,0-.056s0-.013,0-.019a1.1,1.1,0,0,1,1.1-1.06H62.3a2.612,2.612,0,0,0,2.609-2.609V4.186a1.151,1.151,0,0,1,1.15-1.15h10.45a1.151,1.151,0,0,1,1.15,1.15V6.142a2.612,2.612,0,0,0,2.609,2.609h4.349a1.1,1.1,0,0,1,1.1,1.06c0,.006,0,.013,0,.019s0,.037,0,.056v4.461H56.854Zm-13.725,7.5h56.32v27.4L83.559,69.89a1.518,1.518,0,1,0,2.566,1.624l21.583-34.106,2.053,1.3L81.472,83.38a10.661,10.661,0,0,0-2.252-.72,10.265,10.265,0,0,1,.748-1.418l2.36-3.729a1.518,1.518,0,1,0-2.566-1.624L77.4,79.618a13.245,13.245,0,0,0-1.689,3.99h0L73.267,93.759a3.151,3.151,0,0,0-.088.748H43.129Zm56.32,77.122H81.083l5.211-4.2a13.24,13.24,0,0,0,2.885-3.234l10.271-16.23Z" transform="translate(-34.02 0)"/>
            </g>
          </g>
        </g>
      </g>
    </g>
  </g>
</svg>
