<svg xmlns="http://www.w3.org/2000/svg" width="163" height="163" viewBox="0 0 163 163">
  <g id="Grupo_953229" data-name="Grupo 953229" transform="translate(-207 -1234)">
    <circle id="Elipse_7819" data-name="Elipse 7819" cx="81.5" cy="81.5" r="81.5" transform="translate(207 1234)" fill="#b9cee6"/>
    <circle id="Elipse_7820" data-name="Elipse 7820" cx="66.94" cy="66.94" r="66.94" transform="translate(221.56 1247.825)" fill="#fff"/>
    <g id="servicio-al-cliente_1_" data-name="servicio-al-cliente(1)" transform="translate(243.637 1271.823)">
      <path id="Trazado_634515" data-name="Trazado 634515" d="M151.428,114.771v-9.863A16.908,16.908,0,0,1,168.336,88h0a16.908,16.908,0,0,1,16.908,16.908v9.863Z" transform="translate(-124.859 -72.501)" fill="#d3a06c"/>
      <path id="Trazado_634516" data-name="Trazado 634516" d="M240.837,88c-.476,0-.943.032-1.409.07a16.9,16.9,0,0,1,15.5,16.837v9.863h2.818v-9.863A16.908,16.908,0,0,0,240.837,88Z" transform="translate(-197.36 -72.501)" fill="#b27946"/>
      <path id="Trazado_634517" data-name="Trazado 634517" d="M129.745,351.5h31l-2.645-7.933a8.455,8.455,0,0,0-6.508-5.644L141.016,336H129.745l-10.574,1.922a8.455,8.455,0,0,0-6.508,5.644l-1.234,5.609V351.5Z" transform="translate(-91.904 -276.823)" fill="#92e0c0"/>
      <g id="Grupo_944704" data-name="Grupo 944704" transform="translate(26.569 30.997)">
        <path id="Trazado_634518" data-name="Trazado 634518" d="M215.428,312v4.227l5.636,5.636,5.636-5.636V312Z" transform="translate(-204.156 -288.047)" fill="#f9e0a6"/>
        <path id="Trazado_634519" data-name="Trazado 634519" d="M311.428,216h1.409a4.227,4.227,0,0,1,4.227,4.227h0a4.227,4.227,0,0,1-4.227,4.227h-1.409Z" transform="translate(-283.248 -208.955)" fill="#f9e0a6"/>
        <path id="Trazado_634520" data-name="Trazado 634520" d="M157.064,216h-1.409a4.227,4.227,0,0,0-4.227,4.227h0a4.227,4.227,0,0,0,4.227,4.227h1.409Z" transform="translate(-151.428 -208.955)" fill="#f9e0a6"/>
        <path id="Trazado_634521" data-name="Trazado 634521" d="M175.428,181.636v8.454a12.68,12.68,0,0,0,12.681,12.681h0A12.68,12.68,0,0,0,200.79,190.09v-8.454h0a17.01,17.01,0,0,1-12.027-4.982l-.654-.654-.654.654a17.01,17.01,0,0,1-12.027,4.982Z" transform="translate(-171.201 -176)" fill="#f9e0a6"/>
      </g>
      <path id="Trazado_634522" data-name="Trazado 634522" d="M250.7,215.274a12.679,12.679,0,0,1-11.272,12.6,12.642,12.642,0,0,0,14.09-12.6V206.82a17.064,17.064,0,0,1-2.818-.252Z" transform="translate(-197.36 -170.187)" fill="#eabd8c"/>
      <path id="Trazado_634523" data-name="Trazado 634523" d="M346.246,8h19.726a2.817,2.817,0,0,1,2.818,2.818V22.09a2.817,2.817,0,0,1-2.818,2.818h-4.227l-11.272,7.045,1.207-7.045h-5.434a2.817,2.817,0,0,1-2.818-2.818V10.818A2.817,2.817,0,0,1,346.246,8Z" transform="translate(-283.044 -6.591)" fill="#ececec"/>
      <path id="Trazado_634524" data-name="Trazado 634524" d="M293.049,351.5h6.105l-2.645-7.933A8.455,8.455,0,0,0,290,337.922L279.428,336l10.138,5.632a5.636,5.636,0,0,1,2.864,4.3Z" transform="translate(-230.315 -276.823)" fill="#48c397"/>
      <path id="Trazado_634525" data-name="Trazado 634525" d="M39.366,290.424l-5.053,4.569a2.817,2.817,0,0,1-3.985,0L20.224,284.888a2.817,2.817,0,0,1,0-3.985l4.569-4.569-8.454-8.454-5.294,5.294a8.454,8.454,0,0,0,0,11.955l19.042,19.042a8.454,8.454,0,0,0,11.955,0l5.777-5.293Z" transform="translate(-7.161 -220.7)" fill="#fb5968"/>
      <path id="Trazado_634526" data-name="Trazado 634526" d="M68.109,132.208a9.863,9.863,0,0,0-7.593-6.584L51.1,123.911v-.73a14.18,14.18,0,0,0,4.2-3.73h2.845a4.232,4.232,0,0,0,4.227-4.227V98.317a18.317,18.317,0,0,0-36.633,0v9.863a5.645,5.645,0,0,0,4.493,5.519,14.116,14.116,0,0,0,6.779,9.482v.73l-9.418,1.713A9.861,9.861,0,0,0,20,132.208l-.564,1.692-4.8-4.8a1.412,1.412,0,0,1,0-1.994l5.565-5.564L9.758,111.1l-6.29,6.29a9.863,9.863,0,0,0,0,13.947l19.042,19.042a9.858,9.858,0,0,0,13.9.042l6.863-6.288-2.14-2.136H71.371Zm-24.054-3.477L39.828,124.5v-.066a14.078,14.078,0,0,0,8.454,0v.066Zm14.09-12.1H56.96a13.994,13.994,0,0,0,.919-2.935,5.581,5.581,0,0,0,1.675-.666v2.192A1.41,1.41,0,0,1,58.145,116.633Zm0-10.88a2.793,2.793,0,0,1,0,4.853Zm-29.588,2.426a2.809,2.809,0,0,1,1.409-2.426v4.853A2.809,2.809,0,0,1,28.557,108.179Zm1.409-7.045v1.609a5.589,5.589,0,0,0-1.409.583v-5.01a15.5,15.5,0,0,1,31,0v5.01a5.537,5.537,0,0,0-1.409-.583v-1.609H56.736a15.5,15.5,0,0,1-11.031-4.569l-1.65-1.65-1.65,1.65a15.5,15.5,0,0,1-11.031,4.569ZM32.784,111v-7.1a18.267,18.267,0,0,0,11.272-5.007A18.26,18.26,0,0,0,55.327,103.9V111a11.187,11.187,0,0,1-1.525,5.636H44.055v2.818h7.431A11.254,11.254,0,0,1,32.784,111ZM16.218,121.544l-1.53,1.53-6.462-6.462,1.53-1.53Zm13.264,28.905a7.006,7.006,0,0,1-4.982-2.064L5.458,129.344a7.046,7.046,0,0,1,0-9.963l.775-.775,6.462,6.462-.051.051a4.234,4.234,0,0,0,0,5.978l10.1,10.1a4.2,4.2,0,0,0,2.99,1.238,4.149,4.149,0,0,0,2.938-1.189l.106-.094,6.491,6.491-.809.741A7.009,7.009,0,0,1,29.482,150.449Zm7.869-4.71-6.477-6.477,1.861-1.682,6.466,6.466Zm.968-6.562-5.488-5.488-6.1,5.516a1.439,1.439,0,0,1-1.992,0l-3.077-3.077,1.009-3.029a7.047,7.047,0,0,1,5.423-4.7l9.849-1.789,6.111,6.111,6.109-6.109,9.847,1.789a7.045,7.045,0,0,1,5.423,4.7l2.028,6.077Z" transform="translate(-0.579 -65.91)"/>
      <path id="Trazado_634527" data-name="Trazado 634527" d="M359.381,0H339.655a4.232,4.232,0,0,0-4.227,4.227V15.5a4.232,4.232,0,0,0,4.227,4.227h3.763l-1.457,8.5,13.6-8.5h3.823a4.232,4.232,0,0,0,4.227-4.227V4.227A4.232,4.232,0,0,0,359.381,0Zm1.409,15.5a1.411,1.411,0,0,1-1.409,1.409h-4.631L345.8,22.5l.96-5.592h-7.105a1.411,1.411,0,0,1-1.409-1.409V4.227a1.411,1.411,0,0,1,1.409-1.409h19.726a1.411,1.411,0,0,1,1.409,1.409Z" transform="translate(-276.453)"/>
      <rect id="Rectángulo_338751" data-name="Rectángulo 338751" width="16.908" height="2.818" transform="translate(64.611 5.636)"/>
      <rect id="Rectángulo_338752" data-name="Rectángulo 338752" width="11.272" height="2.818" transform="translate(64.611 11.272)"/>
      <rect id="Rectángulo_338753" data-name="Rectángulo 338753" width="2.818" height="2.818" transform="translate(78.701 11.272)"/>
      <path id="Trazado_634528" data-name="Trazado 634528" d="M13.777,54.8l-1.45-2.416L8.509,54.671A36.643,36.643,0,0,1,54.9,28.452l.834-2.691A39.453,39.453,0,0,0,5.658,54.5l-2.67-4.451L.572,51.5l4.953,8.252Z" transform="translate(-0.572 -19.773)"/>
      <path id="Trazado_634529" data-name="Trazado 634529" d="M410.363,157.27l2.416,1.45,2.466-4.11a36.665,36.665,0,0,1-6.209,34.9l2.188,1.775a39.457,39.457,0,0,0,6.752-37.389l4.141,2.484,1.45-2.416-8.252-4.953Z" transform="translate(-337.096 -122.771)"/>
    </g>
  </g>
</svg>
