<svg xmlns="http://www.w3.org/2000/svg" width="443.655" height="286.142" viewBox="0 0 443.655 286.142"><g transform="translate(-80.621 -2974.963)"><g transform="translate(460.225 2990.54)"><g transform="translate(3.239 0.015)"><rect width="47.613" height="49.633" fill="#e0e0e0"/></g><g transform="translate(0.015 0.015)"><rect width="47.613" height="49.633" fill="#fafafa"/></g><path d="M729.355,3049.292H681.712v-49.663h47.643Zm-47.614-.03h47.584v-49.6H681.741Z" transform="translate(-681.712 -2999.629)" fill="#e0e0e0"/><g transform="translate(6.415 6.687)"><rect width="34.812" height="36.289" fill="#fff"/></g><g transform="translate(0.061 43.215)"><path d="M688.162,3068.061a5.682,5.682,0,0,1-.859,1c-.556.587-1.338,1.381-2.213,2.244s-1.681,1.631-2.274,2.177a5.528,5.528,0,0,1-1.007.838,5.576,5.576,0,0,1,.854-.995c.556-.586,1.339-1.383,2.218-2.248s1.685-1.635,2.279-2.181A5.43,5.43,0,0,1,688.162,3068.061Z" transform="translate(-681.808 -3068.058)" fill="#e0e0e0"/></g><g transform="translate(41.225 43.127)"><path d="M746.993,3067.92a5.657,5.657,0,0,1,1,.859c.587.556,1.381,1.338,2.243,2.213s1.632,1.681,2.177,2.274a5.5,5.5,0,0,1,.838,1.007,5.634,5.634,0,0,1-.995-.855c-.586-.556-1.382-1.339-2.248-2.218s-1.635-1.685-2.181-2.278A5.488,5.488,0,0,1,746.993,3067.92Z" transform="translate(-746.99 -3067.918)" fill="#e0e0e0"/></g><g transform="translate(41.131 0.525)"><path d="M746.843,3006.719a5.656,5.656,0,0,1,.859-1c.556-.586,1.337-1.38,2.213-2.243s1.68-1.631,2.274-2.177a5.57,5.57,0,0,1,1.006-.838,5.509,5.509,0,0,1-.854.995c-.556.587-1.339,1.382-2.218,2.247s-1.684,1.636-2.279,2.181A5.432,5.432,0,0,1,746.843,3006.719Z" transform="translate(-746.841 -3000.459)" fill="#e0e0e0"/></g><g transform="translate(0.061 0.519)"><path d="M688.067,3006.8a5.713,5.713,0,0,1-1-.859c-.587-.557-1.381-1.338-2.244-2.213s-1.631-1.681-2.177-2.275a5.488,5.488,0,0,1-.837-1.006,5.618,5.618,0,0,1,.994.854c.587.556,1.383,1.34,2.248,2.218s1.635,1.685,2.181,2.279A5.408,5.408,0,0,1,688.067,3006.8Z" transform="translate(-681.809 -3000.45)" fill="#e0e0e0"/></g><g transform="translate(6.261 6.533)"><path d="M726.5,3046.417a1.636,1.636,0,0,1-.008-.176c0-.124,0-.291-.008-.507,0-.455-.009-1.109-.016-1.959-.008-1.719-.02-4.22-.035-7.4-.016-6.356-.04-15.411-.068-26.251l.135.134-34.714.021h0l.154-.154c-.008,13.32-.015,25.78-.021,36.289l-.133-.132,25.138.067,7.06.035,1.868.015.482.008c.109,0,.166.005.169.007a.973.973,0,0,1-.154.008l-.469.008-1.843.015-7.031.034-25.222.068h-.132v-.133c-.006-10.509-.014-22.969-.022-36.289v-.154h.158l34.714.02h.134v.134c-.028,10.877-.052,19.961-.068,26.337-.015,3.163-.027,5.653-.035,7.365-.006.838-.012,1.484-.015,1.933,0,.21-.006.372-.008.492A1.21,1.21,0,0,1,726.5,3046.417Z" transform="translate(-691.626 -3009.974)" fill="#e0e0e0"/></g><g transform="translate(18.013 19.023)"><rect width="11.616" height="11.616" fill="#ebebeb"/></g></g><g transform="translate(338.941 3032.712)"><g transform="translate(0 58.822)"><path d="M555.131,3228.884s-.068-.115-.184-.348l-.511-1.038-1.934-4-7.06-14.75-23.18-48.714-.013-.027h.3l-23.191,48.7-7.062,14.74-1.934,4-.511,1.037c-.117.232-.184.348-.184.348s.047-.125.154-.362.273-.6.481-1.051l1.879-4.026,6.967-14.785,23.1-48.739.148-.313.149.313.013.028,23.093,48.755c2.937,6.239,5.316,11.291,6.966,14.794l1.879,4.03.481,1.051C555.084,3228.759,555.131,3228.884,555.131,3228.884Z" transform="translate(-489.663 -3159.549)" fill="#e0e0e0"/></g><g transform="translate(20.949 59.206)"><path d="M522.838,3236.895a.912.912,0,0,1,.015-.2l.076-.583c.078-.533.186-1.283.325-2.239l1.24-8.226c1.045-6.966,2.483-16.553,4.072-27.142s3.059-20.2,4.169-27.134c.564-3.45,1.022-6.249,1.343-8.21.164-.951.294-1.7.386-2.229.045-.24.081-.431.109-.578a.921.921,0,0,1,.048-.2.905.905,0,0,1-.015.2l-.076.583c-.078.533-.187,1.283-.325,2.239-.3,1.964-.719,4.769-1.24,8.225l-4.073,27.147c-1.588,10.6-3.058,20.192-4.168,27.13-.564,3.45-1.022,6.25-1.343,8.21-.165.951-.294,1.7-.386,2.229-.045.239-.081.431-.109.578A.993.993,0,0,1,522.838,3236.895Z" transform="translate(-522.835 -3160.157)" fill="#e0e0e0"/></g><g transform="translate(27.602 19.31)"><path d="M664.242,3116.766c-2.757-1.445-3.94,5.235-1.2,6.671.029.015.043.018.047.015.032.033.069.073.12.125a3.816,3.816,0,0,1,.781.882c.629,1.151.55,2.34-.285,2.857-1.961,1.214-4.764.464-6.723-.455-3.43-1.61-7.918-6.115-11.472-9.074-11.063-9.208-22.471-19.755-35.379-20.716-2.89-.215-6.246-.135-9.073,1.356a15.89,15.89,0,0,0-6.892-1.412c-6.875-.176-13.673,2.762-19.933,6.91-9.825,6.51-18.691,16.038-28.486,22.579a11.1,11.1,0,0,1-2.092.9,8.171,8.171,0,0,1-4.4.245c-1.093-.312-1.963-.924-1.321-2.769a3.127,3.127,0,0,1,.76-1.1,2.2,2.2,0,0,1,.432-.364c2.69-1.471,1.515-8.092-1.235-6.65-5.482,2.873-6.44,14.865-.26,17.4,4.94,2.029,9.623-.931,13.9-4.345,5.757-4.591,11.4-9.511,17.159-14.1,6.457-5.14,13.128-9.855,20.418-11.348,3.211-.657,7.023-1,10.271.476a2.054,2.054,0,0,0,3.369.011,15.709,15.709,0,0,1,7.852-.84c7.295.69,14.151,4.942,20.6,9.938,5.922,4.585,11.7,9.588,17.556,14.366,4.287,3.5,8.327,6.827,13.367,6.362,3.528-.324,6.88-3.018,6.768-9.115C668.811,3121.39,666.731,3118.07,664.242,3116.766Z" transform="translate(-533.37 -3096.983)" fill="#ebebeb"/></g><g transform="translate(53.985 178.405)"><path d="M575.147,3389.206v-4.75s13.071-1.583,17.661-13.673c.293.69,20.381-9.133,21.276-21.878h7.648v40.3Z" transform="translate(-575.147 -3348.905)" fill="#f5f5f5"/></g><g transform="translate(99.151 178.405)"><path d="M693.251,3389.206v-4.75s-13.072-1.583-17.661-13.673c-.293.69-20.381-9.133-21.277-21.878h-7.648v40.3Z" transform="translate(-646.665 -3348.905)" fill="#f5f5f5"/></g><g transform="translate(91.91 180.802)"><path d="M651.248,3352.7l-16.026,1.781a3.913,3.913,0,0,0,1.394,3.278,7.883,7.883,0,0,0,3.238,1.566,11.019,11.019,0,0,0,7.557-.3A6.544,6.544,0,0,0,651.248,3352.7Z" transform="translate(-635.2 -3352.701)" fill="#ebebeb"/></g><g transform="translate(89.32 164.689)"><ellipse cx="10.303" cy="10.664" rx="10.303" ry="10.664" fill="#f5f5f5"/></g><g transform="translate(83.705 16.234)"><path d="M638.126,3247.108l-15.918-21.353,11.738-16.567-3.779-6.014,3.9-111.062h4.061Z" transform="translate(-622.208 -3092.112)" fill="#f5f5f5"/></g><g transform="translate(99.623 16.234)"><path d="M647.413,3247.108l15.918-21.353-11.738-16.567,3.779-6.014-3.9-111.062h-4.061Z" transform="translate(-647.413 -3092.112)" fill="#f5f5f5"/></g><g transform="translate(91.07)"><g transform="translate(0.164 0.132)"><ellipse cx="8.389" cy="8.683" rx="8.389" ry="8.683" fill="#f5f5f5"/></g><path d="M650.812,3075.221a16.731,16.731,0,0,0-.316-2.071,8.693,8.693,0,0,0-3.014-4.7,8.178,8.178,0,0,0-3.511-1.623,8.043,8.043,0,0,0-4.4.394,7.607,7.607,0,0,0-2.092,1.188,8.02,8.02,0,0,0-1.724,1.824,8.6,8.6,0,0,0-1.15,2.333,8.761,8.761,0,0,0,0,5.3,8.621,8.621,0,0,0,1.15,2.334,8.029,8.029,0,0,0,1.725,1.825,7.572,7.572,0,0,0,2.092,1.188,8.05,8.05,0,0,0,4.4.395,8.178,8.178,0,0,0,3.51-1.624,8.692,8.692,0,0,0,3.014-4.7,16.738,16.738,0,0,0,.316-2.071,3.368,3.368,0,0,1,.006.546,4.122,4.122,0,0,1-.047.661,6.426,6.426,0,0,1-.151.894,8.4,8.4,0,0,1-.881,2.322,8.556,8.556,0,0,1-2.111,2.525,8.237,8.237,0,0,1-8.161,1.332,7.879,7.879,0,0,1-2.177-1.225,8.3,8.3,0,0,1-1.8-1.888,8.9,8.9,0,0,1-1.2-2.42,9.062,9.062,0,0,1,0-5.5,8.91,8.91,0,0,1,1.2-2.419,8.324,8.324,0,0,1,1.8-1.888,7.85,7.85,0,0,1,2.177-1.224,8.234,8.234,0,0,1,8.16,1.331,8.54,8.54,0,0,1,2.111,2.524,8.4,8.4,0,0,1,.882,2.323,6.42,6.42,0,0,1,.151.893,4.055,4.055,0,0,1,.047.661A3.369,3.369,0,0,1,650.812,3075.221Z" transform="translate(-633.87 -3066.406)" fill="#e0e0e0"/></g><g transform="translate(0 128.098)"><path d="M489.663,3269.246l15.863,16.419h32.879l16.726-16.36Z" transform="translate(-489.663 -3269.246)" fill="#ebebeb"/></g><g transform="translate(91.664 127.296)"><path d="M634.811,3267.976h15.918l-3.779,6.013H638.59Z" transform="translate(-634.811 -3267.976)" fill="#ebebeb"/></g><g transform="translate(91.878 127.149)"><path d="M650.442,3267.907a1.23,1.23,0,0,1,.411-.049v.1c-1,.066-4.046.115-7.646.115-2.226,0-4.24-.018-5.7-.048-.729-.015-1.319-.033-1.727-.052a.32.32,0,1,1,0-.128c.408-.02,1-.037,1.727-.052,1.458-.03,3.472-.048,5.7-.048,3.6,0,6.649.048,7.646.115v.1A1.22,1.22,0,0,1,650.442,3267.907Z" transform="translate(-635.149 -3267.743)" fill="#e0e0e0"/></g><g transform="translate(95.363 133.016)"><path d="M648.889,3277.2c0-.017.071-.034.221-.05v.1c-.536.066-2.175.114-4.111.114a28.707,28.707,0,0,1-4.332-.164,28.707,28.707,0,0,1,4.332-.164c1.936,0,3.575.048,4.111.114v.1C648.96,3277.232,648.889,3277.215,648.889,3277.2Z" transform="translate(-640.667 -3277.034)" fill="#e0e0e0"/></g><g transform="translate(83.705 149.876)"><path d="M622.208,3303.731l11.741,15.726a12.8,12.8,0,0,1,8.372,0l11.723-15.726Z" transform="translate(-622.208 -3303.731)" fill="#ebebeb"/></g><g transform="translate(83.735 149.76)"><path d="M654.061,3303.712c0,.09-7.121.164-15.9.164s-15.9-.074-15.9-.164,7.119-.165,15.9-.165S654.061,3303.621,654.061,3303.712Z" transform="translate(-622.255 -3303.547)" fill="#e0e0e0"/></g><g transform="translate(95.325 164.745)"><path d="M649.324,3328.145a18.662,18.662,0,0,0-4.347-.538c-2.426.064-4.344.65-4.37.538a4.34,4.34,0,0,1,1.235-.428,14.056,14.056,0,0,1,3.128-.438,10.653,10.653,0,0,1,3.141.374A3.638,3.638,0,0,1,649.324,3328.145Z" transform="translate(-640.607 -3327.274)" fill="#e0e0e0"/></g><g transform="translate(91.363 180.173)"><path d="M651.864,3351.705a3.326,3.326,0,0,1-.34.76,9.793,9.793,0,0,1-1.315,1.855,10.6,10.6,0,0,1-2.618,2.135,9.881,9.881,0,0,1-8.041.934,10.44,10.44,0,0,1-3.029-1.5,9.605,9.605,0,0,1-1.689-1.523,3.282,3.282,0,0,1-.5-.669,16.579,16.579,0,0,0,2.317,2,10.536,10.536,0,0,0,6.98,1.756,10.716,10.716,0,0,0,6.4-3.295A17.215,17.215,0,0,0,651.864,3351.705Z" transform="translate(-634.334 -3351.704)" fill="#e0e0e0"/></g><g transform="translate(71.74 200.028)"><path d="M659.6,3383.309c0,.091-12.612.164-28.167.164s-28.169-.073-28.169-.164,12.61-.165,28.169-.165S659.6,3383.218,659.6,3383.309Z" transform="translate(-603.261 -3383.144)" fill="#e0e0e0"/></g><g transform="translate(53.748 213.805)"><path d="M666.522,3405.125c0,.091-20.541.164-45.873.164s-45.878-.073-45.878-.164,20.536-.164,45.878-.164S666.522,3405.034,666.522,3405.125Z" transform="translate(-574.771 -3404.961)" fill="#e0e0e0"/></g><g transform="translate(5.75 133.885)"><path d="M552.215,3278.573c0,.091-11.965.165-26.722.165s-26.725-.074-26.725-.165,11.963-.164,26.725-.164S552.215,3278.482,552.215,3278.573Z" transform="translate(-498.768 -3278.409)" fill="#e0e0e0"/></g><g transform="translate(31.465 51.312)"><rect width="2.538" height="9.111" rx="1.269" fill="#e0e0e0"/></g><g transform="translate(119.868 58.482)"><path d="M744.937,3228.347s-.067-.116-.184-.348l-.511-1.038c-.447-.926-1.1-2.273-1.934-4l-7.06-14.75-23.18-48.715-.013-.028h.3l-23.191,48.7L682.1,3222.9l-1.934,4-.511,1.036c-.117.233-.184.349-.184.349s.047-.125.153-.363l.481-1.051,1.879-4.027,6.967-14.784,23.1-48.739.148-.313.149.313.013.027,23.093,48.756,6.966,14.795,1.879,4.03c.208.455.367.8.481,1.051S744.937,3228.347,744.937,3228.347Z" transform="translate(-679.47 -3159.011)" fill="#e0e0e0"/></g><g transform="translate(140.816 58.866)"><path d="M712.644,3236.357a.905.905,0,0,1,.015-.2l.076-.583c.078-.534.187-1.283.325-2.239l1.24-8.226,4.073-27.142c1.588-10.6,3.058-20.2,4.169-27.134.564-3.45,1.022-6.25,1.343-8.21.165-.951.294-1.7.386-2.229.045-.24.081-.431.109-.579a.986.986,0,0,1,.048-.2.9.9,0,0,1-.015.2c-.02.149-.045.342-.076.584-.078.534-.186,1.283-.325,2.238-.3,1.965-.719,4.77-1.239,8.226l-4.073,27.147c-1.588,10.6-3.058,20.192-4.168,27.13-.565,3.45-1.022,6.25-1.343,8.21l-.387,2.229-.109.579A.956.956,0,0,1,712.644,3236.357Z" transform="translate(-712.641 -3159.619)" fill="#e0e0e0"/></g><g transform="translate(119.867 127.758)"><path d="M679.47,3268.708l15.863,16.419h32.878l16.726-16.36Z" transform="translate(-679.47 -3268.708)" fill="#ebebeb"/></g><g transform="translate(125.617 133.545)"><path d="M742.021,3278.035c0,.091-11.966.164-26.722.164s-26.725-.073-26.725-.164,11.963-.164,26.725-.164S742.021,3277.944,742.021,3278.035Z" transform="translate(-688.574 -3277.871)" fill="#e0e0e0"/></g><g transform="translate(151.332 50.972)"><rect width="2.538" height="9.111" rx="1.269" fill="#e0e0e0"/></g></g><g transform="translate(114.674 2979.196)"><g transform="translate(3.214 0.001)"><rect width="63.936" height="92.672" fill="#e0e0e0"/></g><g transform="translate(0.011 0.001)"><rect width="63.936" height="92.672" fill="#f5f5f5"/></g><g transform="translate(7.781 9.864)"><g transform="translate(0.174 0.174)"><rect width="48.049" height="72.598" fill="#fff"/></g><path d="M195.087,3070.058s-.006-.123-.009-.355-.005-.582-.009-1.029c0-.912-.011-2.248-.02-3.982-.01-3.48-.025-8.55-.043-14.955-.019-12.8-.046-30.929-.078-52.276l.159.159-48.043.015h-.006l.174-.174c-.013,27.387-.026,52.638-.035,72.6l-.138-.138,34.973.073,9.662.035,2.536.016c.574,0,.877.014.877.014s-.282.01-.848.015l-2.51.016-9.631.035-35.059.073H146.9v-.139c-.009-19.96-.022-45.211-.035-72.6v-.174h.18l48.043.015h.16v.16c-.032,21.39-.059,39.554-.078,52.381-.018,6.39-.033,11.448-.043,14.918-.009,1.72-.015,3.045-.02,3.95,0,.44-.007.776-.009,1.012S195.087,3070.058,195.087,3070.058Z" transform="translate(-146.864 -2997.286)" fill="#e0e0e0"/></g><g transform="translate(53.776 10.523)"><path d="M219.7,2998.329" transform="translate(-219.696 -2998.329)" fill="none" stroke="#fbfbfb" stroke-miterlimit="10" stroke-width="0.25"/></g><g transform="translate(55.418 0)"><path d="M231.005,2981.667a11.061,11.061,0,0,1-1.14,1.656c-.743.993-1.8,2.344-3,3.8s-2.328,2.755-3.16,3.674a11.129,11.129,0,0,1-1.406,1.435,11.9,11.9,0,0,1,1.22-1.6l3.078-3.735,3.076-3.736A11.949,11.949,0,0,1,231.005,2981.667Z" transform="translate(-222.297 -2981.667)" fill="#e0e0e0"/></g><g transform="translate(56.246 82.402)"><g transform="translate(0.003 0.001)"><path d="M223.611,3112.148a59.515,59.515,0,0,0,8.38,10.48" transform="translate(-223.611 -3112.148)" fill="#fff"/></g><path d="M231.99,3122.628a9.53,9.53,0,0,1-1.461-1.329,46.868,46.868,0,0,1-5.945-7.434,9.546,9.546,0,0,1-.975-1.718,13.223,13.223,0,0,1,1.179,1.58c.7.989,1.7,2.343,2.851,3.789s2.259,2.709,3.069,3.614A13.332,13.332,0,0,1,231.99,3122.628Z" transform="translate(-223.607 -3112.147)" fill="#e0e0e0"/></g><g transform="translate(0 82.266)"><g transform="translate(0.002 0.001)"><path d="M134.547,3122.267l8.375-10.333" transform="translate(-134.547 -3111.934)" fill="#fff"/></g><path d="M142.92,3111.933a63.671,63.671,0,0,1-4.053,5.275,63.852,63.852,0,0,1-4.322,5.057,63.648,63.648,0,0,1,4.053-5.276A63.833,63.833,0,0,1,142.92,3111.933Z" transform="translate(-134.543 -3111.932)" fill="#e0e0e0"/></g><g transform="translate(0.009)"><path d="M134.56,2981.667a57.679,57.679,0,0,1,4.065,4.859,57.979,57.979,0,0,1,3.792,5.075,57.822,57.822,0,0,1-4.065-4.859A57.912,57.912,0,0,1,134.56,2981.667Z" transform="translate(-134.557 -2981.666)" fill="#e0e0e0"/></g><g transform="translate(24.945 24.779)"><rect width="16.089" height="45.68" fill="#e0e0e0"/></g></g><g transform="translate(80.621 3116.058)"><g transform="translate(2.422 69.032)"><path d="M98.685,3310.978a21.835,21.835,0,0,0-9.345-3.216,6.223,6.223,0,0,0-4.42.813.908.908,0,0,0-.455.807.987.987,0,0,0,.432.552,13.361,13.361,0,0,0,13.788,1.044" transform="translate(-84.457 -3307.691)" fill="#e0e0e0"/></g><g transform="translate(6.479 57.403)"><path d="M100.813,3303.928a45.6,45.6,0,0,1-6.036-5.311,15.268,15.268,0,0,1-3.784-7,2.823,2.823,0,0,1,.3-2.342c4.811,3.758,8.591,8.617,9.521,14.65" transform="translate(-90.881 -3289.278)" fill="#e0e0e0"/></g><g transform="translate(16.294 57.818)"><path d="M106.729,3304.4a21.836,21.836,0,0,1,.112-7.924,10.716,10.716,0,0,1,4.221-6.539c.832,1.943.474,4.182-.111,6.213a30.212,30.212,0,0,1-4.186,8.812" transform="translate(-106.423 -3289.935)" fill="#e0e0e0"/></g><g transform="translate(9.537 80.732)"><path d="M107.5,3326.219a13.809,13.809,0,0,0-7.494,3.793,14.181,14.181,0,0,0-4.287,7.359c2.808-.174,5.19-2.154,6.918-4.375s2.925-4.657,4.824-6.734" transform="translate(-95.722 -3326.219)" fill="#e0e0e0"/></g><g transform="translate(21.053 64.601)"><path d="M115.246,3318.158a18.484,18.484,0,0,1,2.135-17.484,22.257,22.257,0,0,1-2.135,17.484" transform="translate(-113.958 -3300.675)" fill="#e0e0e0"/></g><g transform="translate(15.6 89.479)"><path d="M118.3,3340.094a13.364,13.364,0,0,0-12.78,7.357c-.159.316-.3.719-.086,1a.952.952,0,0,0,.847.249c2.519-.163,4.75-1.679,6.592-3.4a63.116,63.116,0,0,1,5.482-5.211" transform="translate(-105.323 -3340.069)" fill="#e0e0e0"/></g><g transform="translate(27.305 71.392)"><path d="M124.927,3329.137a23.8,23.8,0,0,1-.237-13.3c.469-1.711,1.255-3.513,2.837-4.316a.556.556,0,0,1,.434-.076.574.574,0,0,1,.275.318,8.011,8.011,0,0,1,.669,3.814,23.921,23.921,0,0,1-.6,3.862c-.5,2.36-.763,4.9-2.057,6.931a14.047,14.047,0,0,0-.823,1.522c-.245.517-.247.7-.472,1.111" transform="translate(-123.857 -3311.429)" fill="#e0e0e0"/></g><g transform="translate(44.412 76.912)"><path d="M151.4,3334.815a17.143,17.143,0,0,1,3-14.095c.216-.281.5-.582.854-.549.539.05.679.769.655,1.31a25.464,25.464,0,0,1-4.513,13.334" transform="translate(-150.946 -3320.169)" fill="#e0e0e0"/></g><g transform="translate(46.357 87.701)"><path d="M154.026,3342.127a20.5,20.5,0,0,0,16.824-3.422,13.623,13.623,0,0,0-9.108-1.118,12.994,12.994,0,0,0-7.717,4.54" transform="translate(-154.026 -3337.254)" fill="#e0e0e0"/></g><g transform="translate(47.611 80.65)"><path d="M156.012,3334.918a19.444,19.444,0,0,1,15.269-8.829,9.408,9.408,0,0,1-4.994,5.521,27.739,27.739,0,0,1-7.329,2.143c-.975.189-2.313.4-2.945,1.164" transform="translate(-156.012 -3326.089)" fill="#e0e0e0"/></g><g transform="translate(42.99 56.672)"><path d="M150.889,3305.908a44.359,44.359,0,0,0,1.953-8.943,14.894,14.894,0,0,0-1.781-8.845,19.471,19.471,0,0,0-.261,18.094" transform="translate(-148.695 -3288.12)" fill="#e0e0e0"/></g><g transform="translate(55.131 57.433)"><path d="M167.92,3301.324c3.456-6.279,10.5-11.3,17.638-12-2.752,6.852-10.256,12.146-17.638,12" transform="translate(-167.92 -3289.325)" fill="#e0e0e0"/></g><g transform="translate(52.958 69.632)"><path d="M164.478,3309.673c5.153.785,9.544,4.076,14.359,6.072a6.432,6.432,0,0,0,3.246.622,2.541,2.541,0,0,0,1.591-4.5,6.942,6.942,0,0,0-2.357-1.43,26.206,26.206,0,0,0-16.4-.914" transform="translate(-164.478 -3308.642)" fill="#e0e0e0"/></g><g transform="translate(49.976 74.028)"><path d="M159.756,3315.852a6.074,6.074,0,0,1,2.489,1.725,26.853,26.853,0,0,0,10.888,5.593c.416.1.962.145,1.168-.231.181-.328-.047-.726-.281-1.018a14.991,14.991,0,0,0-6.575-4.463c-2.513-.936-4.69-2.063-7.689-1.822" transform="translate(-159.756 -3315.602)" fill="#e0e0e0"/></g><g transform="translate(46.611 51.891)"><path d="M154.428,3281.106a20.606,20.606,0,0,0,15.8,5.375,1.078,1.078,0,0,0,.719-.259c.4-.432-.08-1.1-.542-1.461a18.2,18.2,0,0,0-15.975-3.656" transform="translate(-154.428 -3280.549)" fill="#e0e0e0"/></g><g transform="translate(50.6 46.698)"><path d="M160.745,3276.617a22.02,22.02,0,0,1,19.714-3.253,15.647,15.647,0,0,1-9.394,4.124,29.728,29.728,0,0,1-10.32-.871" transform="translate(-160.745 -3272.327)" fill="#e0e0e0"/></g><g transform="translate(46.352 27.014)"><path d="M156.681,3255.1c-.457-4.636-.16-8.3-.482-12.954-.025-.372-.105-.82-.453-.954-.485-.187-.889.409-1.048.9a14.849,14.849,0,0,0,1.977,12.9" transform="translate(-154.018 -3241.159)" fill="#e0e0e0"/></g><g transform="translate(48.681 26.895)"><path d="M157.706,3255.544a27.266,27.266,0,0,0,7.68-7.464c1.517-2.076,2.8-4.562,2.451-7.11a7.351,7.351,0,0,0-5.54,2.751,15.461,15.461,0,0,0-2.824,5.682c-.615,2.04-1.045,4.137-1.767,6.141" transform="translate(-157.706 -3240.969)" fill="#e0e0e0"/></g><g transform="translate(56.128 27.761)"><path d="M169.6,3253.953a61.916,61.916,0,0,0,18.9-11.144c-2.258-.909-4.843-.365-7.1.546a22.386,22.386,0,0,0-11.9,10.548" transform="translate(-169.498 -3242.342)" fill="#e0e0e0"/></g><g transform="translate(50.803 38.539)"><path d="M161.066,3264.874a38.426,38.426,0,0,0,10.494.051,44.518,44.518,0,0,0,9.8-3.256,1.149,1.149,0,0,0,.666-.505.765.765,0,0,0-.239-.838,2.029,2.029,0,0,0-.836-.392,18.146,18.146,0,0,0-10.588.633,49.1,49.1,0,0,0-9.3,4.307" transform="translate(-161.066 -3259.408)" fill="#e0e0e0"/></g><g transform="translate(29.133 37.243)"><path d="M128.5,3272.718a18.564,18.564,0,0,1-.169-15.364c1.447,2.206,1.624,5.014,1.36,7.639s-1.064,5.326-1.116,7.963" transform="translate(-126.752 -3257.354)" fill="#e0e0e0"/></g><g transform="translate(5.449 47.807)"><path d="M105.172,3274.087a21.427,21.427,0,0,0-15.923,6.783,14.884,14.884,0,0,0,8.719-1.617,44.349,44.349,0,0,0,7.472-5" transform="translate(-89.249 -3274.083)" fill="#e0e0e0"/></g><g transform="translate(0 45.393)"><path d="M95.6,3270.539c-2.908-.235-5.705-.6-8.5.261a10.194,10.194,0,0,0-6.479,5.494,15.366,15.366,0,0,0,7.969-1.505,45.856,45.856,0,0,0,7.01-4.25" transform="translate(-80.621 -3270.26)" fill="#e0e0e0"/></g><g transform="translate(7.4 41.307)"><path d="M109.383,3268.254c-2.615-1.714-5.3-3.459-8.346-4.168s-6.575-.186-8.7,2.11c2.465,1.447,5.456,1.617,8.314,1.615s6.363-.035,9.057.919" transform="translate(-92.339 -3263.791)" fill="#e0e0e0"/></g><g transform="translate(19.385 27.627)"><path d="M116.392,3260.41c-4.471-4.391-6.166-12.279-4.368-18.281a27.853,27.853,0,0,1,4.368,18.281" transform="translate(-111.317 -3242.129)" fill="#e0e0e0"/></g><g transform="translate(36.755 19.04)"><path d="M138.822,3242.959c.843-1.96,1.437-4.018,2.193-6.013a17.289,17.289,0,0,1,3.127-5.543,8.234,8.234,0,0,1,5.538-2.87,22.3,22.3,0,0,1-10.748,14.459" transform="translate(-138.822 -3228.532)" fill="#e0e0e0"/></g><g transform="translate(22.964 28.18)"><path d="M128.55,3250.884c-1.4-1.92-3.008-4.528-4.9-5.961a8.2,8.2,0,0,0-6.666-1.751,15.525,15.525,0,0,0,11.566,7.713" transform="translate(-116.984 -3243.005)" fill="#e0e0e0"/></g><g transform="translate(32.609 19.22)"><path d="M134.623,3243.225a33.121,33.121,0,0,1-2.206-7.144,11.143,11.143,0,0,1,1.118-7.264c2.455,4.64,3.245,9.62,1.213,14.46" transform="translate(-132.256 -3228.817)" fill="#e0e0e0"/></g><g transform="translate(36.778 9.387)"><path d="M138.858,3223.08c1.39-4.6,5.6-7.986,10.149-9.54a3.787,3.787,0,0,1,1.779-.266,1.543,1.543,0,0,1,1.312,1.094c.166.782-.481,1.484-1.088,2a34.542,34.542,0,0,1-12.151,6.709" transform="translate(-138.858 -3213.247)" fill="#e0e0e0"/></g><g transform="translate(36.755)"><path d="M138.895,3213.841a32.953,32.953,0,0,1,1.326-8.784,11.106,11.106,0,0,1,5.528-6.675c.46,2.995-.861,5.975-2.455,8.552s-3.514,5.01-4.472,7.885" transform="translate(-138.822 -3198.382)" fill="#e0e0e0"/></g><g transform="translate(28.131 1.377)"><path d="M133.79,3216.686c-1.149-3.352-1.268-7.61-3.275-10.53-1.4-2.042-3.65-3.432-4.859-5.594a8.508,8.508,0,0,0,.283,6.35,18.381,18.381,0,0,0,3.713,5.316c1.485,1.586,2.757,2.78,4.138,4.458" transform="translate(-125.165 -3200.562)" fill="#e0e0e0"/></g><g transform="translate(36.605 16.332)"><path d="M138.757,3324.126c-.09,0-.167-22.361-.173-49.939s.061-49.943.15-49.943.167,22.356.173,49.943S138.846,3324.126,138.757,3324.126Z" transform="translate(-138.583 -3224.244)" fill="#e0e0e0"/></g><g transform="translate(36.749 49.229)"><path d="M158.382,3276.338a4.825,4.825,0,0,1-.841.316l-2.314.781c-1.951.664-4.631,1.627-7.54,2.819-2.88,1.236-5.6,2.238-7.143,3.579a5.244,5.244,0,0,0-1.435,1.9c-.222.525-.261.846-.291.84a.649.649,0,0,1,.009-.234,3.581,3.581,0,0,1,.164-.652,5.053,5.053,0,0,1,1.4-2.024,12.575,12.575,0,0,1,3.1-1.926c1.24-.578,2.614-1.182,4.073-1.781,2.918-1.2,5.619-2.127,7.592-2.737.986-.307,1.79-.534,2.349-.684A4.778,4.778,0,0,1,158.382,3276.338Z" transform="translate(-138.812 -3276.334)" fill="#e0e0e0"/></g><g transform="translate(38.287 33.499)"><path d="M165.685,3251.427a1.442,1.442,0,0,1-.236.251l-.718.675-2.678,2.433-8.916,7.938c-3.48,3.1-6.488,6.058-8.572,8.287-1.044,1.113-1.866,2.035-2.426,2.679l-.648.74a1.389,1.389,0,0,1-.242.246,1.369,1.369,0,0,1,.191-.286c.135-.18.332-.448.6-.78.532-.67,1.33-1.617,2.355-2.753a113.046,113.046,0,0,1,8.525-8.373c3.492-3.091,6.67-5.867,8.98-7.868l2.747-2.357.758-.628A1.382,1.382,0,0,1,165.685,3251.427Z" transform="translate(-141.248 -3251.426)" fill="#e0e0e0"/></g><g transform="translate(46.412 40.205)"><path d="M154.12,3269.787c-.092-.041.635-1.719,1.36-3.842s1.076-3.914,1.168-3.9a13.107,13.107,0,0,1-.862,4,26.049,26.049,0,0,1-1.082,2.687A4.223,4.223,0,0,1,154.12,3269.787Z" transform="translate(-154.113 -3262.046)" fill="#e0e0e0"/></g><g transform="translate(23.837 45.153)"><path d="M131.327,3286.208a4.01,4.01,0,0,1-.536-.623l-1.374-1.762c-1.154-1.492-2.75-3.55-4.538-5.8s-3.433-4.275-4.624-5.737l-1.4-1.738a4.012,4.012,0,0,1-.484-.664,4.042,4.042,0,0,1,.58.582c.358.388.865.959,1.483,1.672,1.237,1.426,2.911,3.427,4.7,5.684s3.359,4.34,4.467,5.868c.554.764,1,1.387,1.292,1.824A4,4,0,0,1,131.327,3286.208Z" transform="translate(-118.366 -3269.88)" fill="#e0e0e0"/></g><g transform="translate(30.29 49.221)"><path d="M130.808,3283.082a7.89,7.89,0,0,1-1.795-3.36,9.578,9.578,0,0,1-.407-3.388l.143.011c-.064.259-.111.4-.136.392s-.027-.148-.006-.414l.143.011a15.473,15.473,0,0,0,.573,3.3A25.251,25.251,0,0,0,130.808,3283.082Z" transform="translate(-128.584 -3276.322)" fill="#e0e0e0"/></g><g transform="translate(17.303 47.649)"><path d="M117.7,3275.206a5.783,5.783,0,0,0-1.254-.728,8.376,8.376,0,0,0-3.48-.277,21.521,21.521,0,0,0-3.5.565,10.616,10.616,0,0,1-1.442.346,5.025,5.025,0,0,1,1.381-.566,15.972,15.972,0,0,1,3.541-.668,7.6,7.6,0,0,1,3.59.387A2.224,2.224,0,0,1,117.7,3275.206Z" transform="translate(-108.021 -3273.832)" fill="#e0e0e0"/></g><g transform="translate(12.071 45.281)"><path d="M113.335,3272.139c-.025.05-.73-.293-1.92-.7a19.331,19.331,0,0,0-9.676-.738c-1.238.222-1.987.454-2,.4a1.826,1.826,0,0,1,.509-.217,12.025,12.025,0,0,1,1.45-.407,17.085,17.085,0,0,1,9.8.747,12.014,12.014,0,0,1,1.372.623A1.816,1.816,0,0,1,113.335,3272.139Z" transform="translate(-99.736 -3270.083)" fill="#e0e0e0"/></g><g transform="translate(34.258 30.398)"><path d="M137.365,3256.323a79.25,79.25,0,0,1-2.487-9.807,79.25,79.25,0,0,1,2.487,9.807Z" transform="translate(-134.868 -3246.516)" fill="#e0e0e0"/></g><g transform="translate(33.007 34.931)"><path d="M136.724,3258.968a23.387,23.387,0,0,0-1.552-2.912,12.827,12.827,0,0,0-2.284-2.358,2.116,2.116,0,0,1,.882.455,7.108,7.108,0,0,1,1.667,1.717A6.451,6.451,0,0,1,136.724,3258.968Z" transform="translate(-132.887 -3253.693)" fill="#e0e0e0"/></g><g transform="translate(16.293 71.656)"><path d="M126.905,3344.486c-.035.005-.1-.537-.353-1.487a21.165,21.165,0,0,0-1.494-3.871,53.593,53.593,0,0,0-7.928-11.17c-1.77-2.022-3.487-3.93-4.945-5.756a40.364,40.364,0,0,1-3.536-5.1,24.408,24.408,0,0,1-1.785-3.784c-.164-.467-.285-.83-.351-1.083a1.8,1.8,0,0,1-.092-.386c.029-.009.191.512.56,1.424a27.763,27.763,0,0,0,1.865,3.715,42.856,42.856,0,0,0,3.571,5.028c1.463,1.807,3.184,3.7,4.957,5.731a50.774,50.774,0,0,1,7.89,11.282,19.337,19.337,0,0,1,1.411,3.941,10.9,10.9,0,0,1,.2,1.122A1.863,1.863,0,0,1,126.905,3344.486Z" transform="translate(-106.42 -3311.848)" fill="#e0e0e0"/></g><g transform="translate(36.776 84.348)"><path d="M156.514,3331.946a7.959,7.959,0,0,1-.925.52,20.225,20.225,0,0,0-2.4,1.586,27.57,27.57,0,0,0-3.153,2.875c-1.106,1.169-2.246,2.527-3.41,3.981-2.325,2.918-4.5,5.5-5.8,7.562-.661,1.022-1.142,1.884-1.458,2.489a8.062,8.062,0,0,1-.509.932.9.9,0,0,1,.085-.263c.069-.166.163-.416.311-.725a23.548,23.548,0,0,1,1.377-2.555,83.34,83.34,0,0,1,5.744-7.642c1.166-1.457,2.32-2.818,3.447-3.985a25.543,25.543,0,0,1,3.23-2.852,16.866,16.866,0,0,1,2.479-1.516c.306-.154.557-.249.722-.32A.89.89,0,0,1,156.514,3331.946Z" transform="translate(-138.855 -3331.944)" fill="#e0e0e0"/></g><g transform="translate(42.578 90.796)"><path d="M160.245,3342.179a13.558,13.558,0,0,1-1.956.284,25.747,25.747,0,0,0-4.639.913,13.943,13.943,0,0,0-4.154,2.18c-.957.74-1.409,1.352-1.453,1.316a1.486,1.486,0,0,1,.29-.45,7.366,7.366,0,0,1,1.019-1.043,12.593,12.593,0,0,1,4.2-2.311,20.952,20.952,0,0,1,4.716-.833A10.789,10.789,0,0,1,160.245,3342.179Z" transform="translate(-148.041 -3342.155)" fill="#e0e0e0"/></g><g transform="translate(43.142 88.176)"><path d="M148.943,3344.633c-.1-.058.779-1.4,1.463-3.216.642-1.828.792-3.43.907-3.411a3.116,3.116,0,0,1-.032,1.05,11.271,11.271,0,0,1-.571,2.472,11.986,11.986,0,0,1-1.134,2.268A3.184,3.184,0,0,1,148.943,3344.633Z" transform="translate(-148.935 -3338.006)" fill="#e0e0e0"/></g><g transform="translate(36.783 66.977)"><path d="M162.238,3304.44a1.458,1.458,0,0,1-.313.167l-.919.417c-.4.173-.892.392-1.442.682s-1.2.579-1.869.981l-1.067.607c-.37.212-.736.465-1.125.709-.787.478-1.575,1.065-2.416,1.665a41.44,41.44,0,0,0-9.3,9.628c-.571.861-1.131,1.669-1.581,2.472-.231.4-.47.772-.671,1.149l-.57,1.087c-.38.685-.652,1.339-.918,1.9s-.474,1.056-.632,1.464l-.386.933a1.491,1.491,0,0,1-.156.318,1.47,1.47,0,0,1,.094-.34c.088-.253.2-.569.33-.957.141-.417.327-.921.584-1.491s.51-1.237.879-1.932l.554-1.1c.2-.382.432-.762.659-1.166.443-.814,1-1.632,1.567-2.505a39.917,39.917,0,0,1,9.372-9.7c.852-.6,1.651-1.182,2.45-1.652.4-.241.767-.49,1.142-.7l1.084-.592c.683-.393,1.338-.674,1.9-.945s1.059-.479,1.47-.635l.945-.363A1.531,1.531,0,0,1,162.238,3304.44Z" transform="translate(-138.866 -3304.438)" fill="#e0e0e0"/></g><g transform="translate(46.176 74.008)"><path d="M153.743,3317.906a2.247,2.247,0,0,1,.769-1.144,4.849,4.849,0,0,1,3.1-1.188,8.462,8.462,0,0,1,3.259.637,4.613,4.613,0,0,1,1.231.6,7.542,7.542,0,0,1-1.307-.383,9.833,9.833,0,0,0-3.173-.53,5.042,5.042,0,0,0-2.957,1.038A9.171,9.171,0,0,0,153.743,3317.906Z" transform="translate(-153.74 -3315.571)" fill="#e0e0e0"/></g><g transform="translate(44.084 72.651)"><path d="M150.433,3319.269a8.264,8.264,0,0,0,.682-5.846,1.893,1.893,0,0,1,.363.833,5.919,5.919,0,0,1-.5,4.286C150.705,3319.036,150.465,3319.292,150.433,3319.269Z" transform="translate(-150.426 -3313.422)" fill="#e0e0e0"/></g><g transform="translate(21.334 107.498)"><path d="M114.4,3368.6c.482,8.546,3.057,17.237,7.018,26.023h17.224c3.778-8.7,6.175-17.377,6.6-26.023Z" transform="translate(-114.403 -3368.602)" fill="#e0e0e0"/></g><g transform="translate(24.054 121.165)"><path d="M144.041,3390.4c0,.089-5.671.161-12.665.161s-12.666-.073-12.666-.161,5.67-.162,12.666-.162S144.041,3390.315,144.041,3390.4Z" transform="translate(-118.709 -3390.243)" fill="#fafafa"/></g><g transform="translate(25.253 124.261)"><path d="M144.356,3395.307c0,.089-5.317.162-11.873.162s-11.875-.073-11.875-.162,5.316-.162,11.875-.162S144.356,3395.217,144.356,3395.307Z" transform="translate(-120.608 -3395.145)" fill="#fafafa"/></g><g transform="translate(28.468 113.109)"><path d="M125.861,3377.487a48.756,48.756,0,0,1,0,7.934,48.752,48.752,0,0,1,0-7.934Z" transform="translate(-125.699 -3377.487)" fill="#fafafa"/></g><g transform="translate(37.697 113.109)"><path d="M140.474,3377.487a52.285,52.285,0,0,1,0,8.217,52.5,52.5,0,0,1,0-8.217Z" transform="translate(-140.313 -3377.487)" fill="#fafafa"/></g><g transform="translate(46.36 113.04)"><path d="M154.193,3377.376a54.39,54.39,0,0,1,0,8.381,54.4,54.4,0,0,1,0-8.381Z" transform="translate(-154.031 -3377.376)" fill="#fafafa"/></g><g transform="translate(21.919 112.947)"><path d="M145.04,3377.393c0,.089-6.652.162-14.855.162s-14.856-.073-14.856-.162,6.65-.162,14.856-.162S145.04,3377.3,145.04,3377.393Z" transform="translate(-115.329 -3377.231)" fill="#fafafa"/></g></g><g transform="translate(84.502 3251.253)"><path d="M524.423,3412.624c0,.091-97.98.165-218.818.165-120.879,0-218.839-.074-218.839-.165s97.96-.164,218.839-.164C426.442,3412.46,524.423,3412.533,524.423,3412.624Z" transform="translate(-86.766 -3412.46)" fill="#263238"/></g><g transform="translate(129.939 3191.121)"><path d="M172.665,3345.142H274.123v-27.9H172.665a13.95,13.95,0,0,0-13.95,13.95h0A13.95,13.95,0,0,0,172.665,3345.142Z" transform="translate(-158.715 -3317.242)" fill="#455a64"/><g transform="translate(3.096 3.399)"><path d="M174.335,3344.059H275.929v-21.435H174.335a10.717,10.717,0,0,0-10.718,10.718h0A10.718,10.718,0,0,0,174.335,3344.059Z" transform="translate(-163.617 -3322.624)" fill="#f5f5f5"/></g><g transform="translate(104.507 3.399)"><path d="M362.367,3322.624a11.212,11.212,0,0,0-4.978,9.471c0,6.562,4.186,11.964,4.186,11.964H328.2s-4.407-2.782-3.97-10.718a10.71,10.71,0,0,1,3.489-7.681,16.248,16.248,0,0,1,7.382-3.037Z" transform="translate(-324.198 -3322.624)" fill="#e0e0e0"/></g><g transform="translate(115.408)"><path d="M341.46,3320.641h30.554a1.7,1.7,0,0,0,1.7-1.7h0a1.7,1.7,0,0,0-1.7-1.7H341.46Z" transform="translate(-341.46 -3317.242)" fill="#455a64"/></g><g transform="translate(115.408 24.834)"><path d="M341.46,3359.631h30.721a1.533,1.533,0,0,0,1.533-1.532h0a1.533,1.533,0,0,0-1.533-1.533H341.46Z" transform="translate(-341.46 -3356.566)" fill="#455a64"/></g><g transform="translate(113.875 21.661)"><path d="M339.033,3351.706c0-.091,5.241-.165,11.7-.165s11.705.074,11.705.165-5.24.164-11.705.164S339.033,3351.8,339.033,3351.706Z" transform="translate(-339.033 -3351.541)" fill="#263238"/></g><g transform="translate(110.459 15.967)"><path d="M333.623,3342.689c0-.091,5.723-.164,12.78-.164s12.781.073,12.781.164-5.721.165-12.781.165S333.623,3342.78,333.623,3342.689Z" transform="translate(-333.623 -3342.525)" fill="#263238"/></g><g transform="translate(108.561 13.436)"><path d="M330.618,3338.682c0-.091,4.731-.165,10.565-.165s10.566.074,10.566.165-4.729.164-10.566.164S330.618,3338.773,330.618,3338.682Z" transform="translate(-330.618 -3338.517)" fill="#263238"/></g><g transform="translate(110.206 9.134)"><path d="M333.223,3331.869c0-.091,5.779-.164,12.906-.164s12.908.073,12.908.164-5.778.165-12.908.165S333.223,3331.96,333.223,3331.869Z" transform="translate(-333.223 -3331.705)" fill="#263238"/></g><g transform="translate(116.912 5.338)"><path d="M343.842,3325.858c0-.091,4.532-.164,10.123-.164s10.123.073,10.123.164-4.531.165-10.123.165S343.842,3325.949,343.842,3325.858Z" transform="translate(-343.842 -3325.694)" fill="#263238"/></g><g transform="translate(16.821 7.994)"><path d="M185.35,3330.066c0-.091,19.263-.165,43.021-.165s43.025.074,43.025.165-19.26.164-43.025.164S185.35,3330.157,185.35,3330.066Z" transform="translate(-185.35 -3329.901)" fill="#263238"/></g><g transform="translate(10.747 10.652)"><path d="M175.732,3334.273c0-.091,19.349-.165,43.211-.165s43.215.074,43.215.165-19.344.164-43.215.164S175.732,3334.364,175.732,3334.273Z" transform="translate(-175.732 -3334.109)" fill="#263238"/></g><g transform="translate(6.065 13.689)"><path d="M168.318,3339.083c0-.091,21.02-.165,46.944-.165s46.948.074,46.948.165-21.016.164-46.948.164S168.318,3339.173,168.318,3339.083Z" transform="translate(-168.318 -3338.918)" fill="#263238"/></g><g transform="translate(12.392 16.6)"><path d="M178.337,3343.691c0-.091,19.6-.164,43.78-.164s43.785.073,43.785.164-19.6.164-43.785.164S178.337,3343.782,178.337,3343.691Z" transform="translate(-178.337 -3343.527)" fill="#263238"/></g><g transform="translate(14.416 20.269)"><path d="M181.543,3349.5c0-.091,18.669-.165,41.692-.165s41.7.074,41.7.165-18.665.164-41.7.164S181.543,3349.593,181.543,3349.5Z" transform="translate(-181.543 -3349.337)" fill="#263238"/></g><g transform="translate(115.408)" opacity="0.3"><path d="M341.46,3320.641h30.554a1.7,1.7,0,0,0,1.7-1.7h0a1.7,1.7,0,0,0-1.7-1.7H341.46Z" transform="translate(-341.46 -3317.242)"/></g><g transform="translate(115.408 24.834)" opacity="0.3"><path d="M341.46,3359.631h30.721a1.533,1.533,0,0,0,1.533-1.532h0a1.533,1.533,0,0,0-1.533-1.533H341.46Z" transform="translate(-341.46 -3356.566)"/></g></g><g transform="translate(107.507 3218.989)"><g transform="translate(37.489)"><path d="M300.488,3393.8H182.557V3361.37H300.488a16.215,16.215,0,0,1,16.215,16.214h0A16.215,16.215,0,0,1,300.488,3393.8Z" transform="translate(-182.557 -3361.37)" fill="#ff472e"/></g><g transform="translate(37.489 3.951)"><path d="M300.648,3392.541H182.557v-24.915H300.648a12.457,12.457,0,0,1,12.457,12.458h0A12.458,12.458,0,0,1,300.648,3392.541Z" transform="translate(-182.557 -3367.626)" fill="#f5f5f5"/></g><g transform="translate(5.796 3.951)"><path d="M132.371,3367.626a13.033,13.033,0,0,1,5.787,11.009c0,7.627-4.866,13.906-4.866,13.906h38.795s5.122-3.233,4.615-12.457a12.444,12.444,0,0,0-4.056-8.927c-3.435-2.886-8.581-3.53-8.581-3.53Z" transform="translate(-132.371 -3367.626)" fill="#e0e0e0"/></g><path d="M160.683,3365.321H125.169a1.975,1.975,0,0,1-1.975-1.976h0a1.975,1.975,0,0,1,1.975-1.976h35.514Z" transform="translate(-123.194 -3361.37)" fill="#ff472e"/><g transform="translate(0 28.866)"><path d="M160.683,3410.641H124.976a1.781,1.781,0,0,1-1.782-1.781h0a1.782,1.782,0,0,1,1.782-1.782h35.708Z" transform="translate(-123.194 -3407.078)" fill="#ff472e"/></g><g transform="translate(12.061 25.205)"><path d="M169.5,3401.445c0,.091-6.092.164-13.6.164s-13.606-.073-13.606-.164,6.09-.164,13.606-.164S169.5,3401.354,169.5,3401.445Z" transform="translate(-142.292 -3401.281)" fill="#263238"/></g><g transform="translate(13.532 18.586)"><path d="M174.332,3390.964c0,.091-6.651.165-14.855.165s-14.856-.074-14.856-.165,6.65-.164,14.856-.164S174.332,3390.873,174.332,3390.964Z" transform="translate(-144.621 -3390.8)" fill="#263238"/></g><g transform="translate(20.886 15.644)"><path d="M180.829,3386.306c0,.091-5.5.165-12.281.165s-12.282-.074-12.282-.165,5.5-.164,12.282-.164S180.829,3386.215,180.829,3386.306Z" transform="translate(-156.266 -3386.142)" fill="#263238"/></g><g transform="translate(13.532 10.643)"><path d="M174.626,3378.388c0,.09-6.718.164-15,.164s-15-.074-15-.164,6.716-.165,15-.165S174.626,3378.3,174.626,3378.388Z" transform="translate(-144.621 -3378.223)" fill="#263238"/></g><g transform="translate(12.208 6.231)"><path d="M166.058,3371.4c0,.091-5.269.165-11.766.165s-11.767-.074-11.767-.165,5.267-.164,11.767-.164S166.058,3371.31,166.058,3371.4Z" transform="translate(-142.525 -3371.236)" fill="#263238"/></g><g transform="translate(52.067 9.319)"><path d="M305.658,3376.291c0,.091-22.391.165-50.006.165s-50.011-.074-50.011-.165,22.387-.164,50.011-.164S305.658,3376.2,305.658,3376.291Z" transform="translate(-205.641 -3376.127)" fill="#263238"/></g><g transform="translate(58.686 12.408)"><path d="M316.58,3381.182c0,.091-22.49.165-50.226.165s-50.231-.074-50.231-.165,22.485-.164,50.231-.164S316.58,3381.092,316.58,3381.182Z" transform="translate(-216.122 -3381.018)" fill="#263238"/></g><g transform="translate(55.45 15.938)"><path d="M320.134,3386.772c0,.091-24.433.164-54.566.164s-54.571-.073-54.571-.164,24.427-.164,54.571-.164S320.134,3386.681,320.134,3386.772Z" transform="translate(-210.998 -3386.608)" fill="#263238"/></g><g transform="translate(55.45 19.321)"><path d="M312.78,3392.128c0,.091-22.786.164-50.888.164s-50.893-.073-50.893-.164,22.782-.165,50.893-.165S312.78,3392.038,312.78,3392.128Z" transform="translate(-210.998 -3391.964)" fill="#263238"/></g><g transform="translate(57.951 23.587)"><path d="M311.885,3398.883c0,.091-21.7.165-48.462.165s-48.466-.073-48.466-.165,21.7-.164,48.466-.164S311.885,3398.792,311.885,3398.883Z" transform="translate(-214.957 -3398.719)" fill="#263238"/></g><g opacity="0.3"><path d="M160.683,3365.321H125.169a1.975,1.975,0,0,1-1.975-1.976h0a1.975,1.975,0,0,1,1.975-1.976h35.514Z" transform="translate(-123.194 -3361.37)"/></g><g transform="translate(0 28.866)" opacity="0.3"><path d="M160.683,3410.641H124.976a1.781,1.781,0,0,1-1.782-1.781h0a1.782,1.782,0,0,1,1.782-1.782h35.708Z" transform="translate(-123.194 -3407.078)"/></g></g><g transform="translate(160.118 3161.16)"><g transform="translate(34.96)"><path d="M0,0H109.974a15.12,15.12,0,0,1,15.12,15.12v0a15.12,15.12,0,0,1-15.12,15.12H0a0,0,0,0,1,0,0V0A0,0,0,0,1,0,0Z" fill="#ff472e"/></g><g transform="translate(34.96 3.684)"><path d="M371.981,3298.867H261.86v-23.234H371.981a11.617,11.617,0,0,1,11.617,11.617h0A11.617,11.617,0,0,1,371.981,3298.867Z" transform="translate(-261.86 -3275.634)" fill="#f5f5f5"/></g><g transform="translate(5.405 3.684)"><path d="M215.06,3275.634a12.154,12.154,0,0,1,5.4,10.266c0,7.112-4.538,12.968-4.538,12.968H252.1s4.776-3.015,4.3-11.617a11.6,11.6,0,0,0-3.783-8.325,17.6,17.6,0,0,0-8-3.292Z" transform="translate(-215.06 -3275.634)" fill="#e0e0e0"/></g><path d="M241.462,3273.484H208.344a1.842,1.842,0,0,1-1.842-1.842h0a1.842,1.842,0,0,1,1.842-1.842h33.118Z" transform="translate(-206.502 -3269.8)" fill="#ff472e"/><g transform="translate(0 26.918)"><path d="M241.462,3315.746h-33.3a1.661,1.661,0,0,1-1.662-1.661h0a1.662,1.662,0,0,1,1.662-1.662h33.3Z" transform="translate(-206.502 -3312.424)" fill="#ff472e"/></g><g transform="translate(11.247 23.493)"><path d="M249.686,3307.164c0,.091-5.681.165-12.687.165s-12.687-.074-12.687-.165S229.991,3307,237,3307,249.686,3307.074,249.686,3307.164Z" transform="translate(-224.312 -3307)" fill="#263238"/></g><g transform="translate(12.619 17.321)"><path d="M254.19,3297.391c0,.091-6.2.164-13.852.164s-13.853-.073-13.853-.164,6.2-.164,13.853-.164S254.19,3297.3,254.19,3297.391Z" transform="translate(-226.484 -3297.227)" fill="#263238"/></g><g transform="translate(19.477 14.577)"><path d="M260.248,3293.047c0,.091-5.128.165-11.452.165s-11.453-.074-11.453-.165,5.127-.164,11.453-.164S260.248,3292.957,260.248,3293.047Z" transform="translate(-237.343 -3292.883)" fill="#263238"/></g><g transform="translate(12.619 9.914)"><path d="M254.464,3285.663c0,.091-6.264.164-13.99.164s-13.991-.073-13.991-.164,6.262-.164,13.991-.164S254.464,3285.572,254.464,3285.663Z" transform="translate(-226.484 -3285.499)" fill="#263238"/></g><g transform="translate(11.384 5.799)"><path d="M246.474,3279.147c0,.091-4.913.165-10.972.165s-10.973-.074-10.973-.165,4.912-.164,10.973-.164S246.474,3279.057,246.474,3279.147Z" transform="translate(-224.529 -3278.983)" fill="#263238"/></g><g transform="translate(48.554 8.68)"><path d="M376.654,3283.708c0,.091-20.881.165-46.632.165s-46.636-.074-46.636-.165,20.876-.164,46.636-.164S376.654,3283.618,376.654,3283.708Z" transform="translate(-283.386 -3283.544)" fill="#263238"/></g><g transform="translate(54.727 11.56)"><path d="M386.839,3288.269c0,.091-20.972.165-46.838.165s-46.841-.074-46.841-.165,20.968-.164,46.841-.164S386.839,3288.178,386.839,3288.269Z" transform="translate(-293.16 -3288.104)" fill="#263238"/></g><g transform="translate(51.709 14.851)"><path d="M390.153,3293.481c0,.091-22.784.164-50.883.164s-50.888-.073-50.888-.164,22.779-.165,50.888-.165S390.153,3293.391,390.153,3293.481Z" transform="translate(-288.382 -3293.316)" fill="#263238"/></g><g transform="translate(51.709 18.007)"><path d="M383.3,3298.477c0,.091-21.249.164-47.454.164s-47.459-.073-47.459-.164,21.244-.164,47.459-.164S383.3,3298.386,383.3,3298.477Z" transform="translate(-288.382 -3298.313)" fill="#263238"/></g><g transform="translate(54.041 21.984)"><path d="M382.461,3304.775c0,.091-20.235.165-45.191.165s-45.2-.074-45.2-.165,20.231-.164,45.2-.164S382.461,3304.685,382.461,3304.775Z" transform="translate(-292.074 -3304.611)" fill="#263238"/></g><g opacity="0.3"><path d="M241.462,3273.484H208.344a1.842,1.842,0,0,1-1.842-1.842h0a1.842,1.842,0,0,1,1.842-1.842h33.118Z" transform="translate(-206.502 -3269.8)"/></g><g transform="translate(0 26.918)" opacity="0.3"><path d="M241.462,3315.746h-33.3a1.661,1.661,0,0,1-1.662-1.661h0a1.662,1.662,0,0,1,1.662-1.662h33.3Z" transform="translate(-206.502 -3312.424)"/></g></g><g transform="translate(210.246 2974.963)"><g transform="translate(169.045 0.325)"><path d="M594.475,2975.483s19.388-1.554,21.555,45.07H553.556l3.092-34.939Z" transform="translate(-553.556 -2975.477)" fill="#e0e0e0"/></g><g transform="translate(0.006 0.158)"><path d="M497.207,3140.955c-3.195-27.891-8.937-55.254-11.175-83.3s-10.338-68.944,9.814-82.265c0,0-150.824-.173-157.745-.173-30.987,0-42.1,41.384-36.7,82.438,3.662,27.832,7.981,55.414,11.176,83.3s3.711,57.211-4.178,83.445c-3.963,13.18-11.905,26.679-22.513,27.109h189.15s13.893-13.48,17.992-27.109C500.918,3198.167,500.4,3168.846,497.207,3140.955Z" transform="translate(-285.888 -2975.213)" fill="#fff"/></g><path d="M497.2,3140.863s.083.679.232,2.01.379,3.313.617,5.925c.493,5.221,1.15,12.958,1.352,23,.071,5.022.036,10.62-.3,16.751a176.1,176.1,0,0,1-2.266,19.885c-.294,1.776-.693,3.565-1.044,5.4-.393,1.823-.858,3.662-1.294,5.539l-.782,2.809-.4,1.421-.2.715-.241.706c-.33.941-.623,1.9-1.046,2.824l-.595,1.4c-.206.466-.448.918-.671,1.38a69.47,69.47,0,0,1-6.716,10.735,96.554,96.554,0,0,1-8.742,10.129l-.03.031h-.045l-189.15.046-.006-.308a13.627,13.627,0,0,0,4.573-1.04,17.333,17.333,0,0,0,4.064-2.439,30.537,30.537,0,0,0,6.358-7.176,55.1,55.1,0,0,0,4.568-8.608,70.6,70.6,0,0,0,3.244-9.312,162.907,162.907,0,0,0,5.806-39.96,290.994,290.994,0,0,0-2.073-41.794c-1.611-14.079-3.542-28.312-5.554-42.689-1.98-14.2-4.022-28.248-5.8-42.151-.448-3.478-.712-6.966-.922-10.443-.174-3.48-.244-6.953-.181-10.413a118.869,118.869,0,0,1,2.091-20.483,76.221,76.221,0,0,1,6.281-19.255c3.016-5.98,7.123-11.5,12.591-15.287a29.053,29.053,0,0,1,8.91-4.177l2.4-.537c.8-.153,1.619-.223,2.426-.339l.607-.077.61-.026,1.221-.051c.814-.048,1.622-.045,2.43-.04l19.195.023,137.125.179h.418l-.348.231a23.635,23.635,0,0,0-6.7,6.851,33.846,33.846,0,0,0-3.891,8.556,56.8,56.8,0,0,0-1.916,9c-.389,3.007-.595,5.995-.7,8.944a171.049,171.049,0,0,0,.444,17.2c.4,5.556.93,10.928,1.467,16.122s1.07,10.209,1.465,15.053.837,9.492,1.366,13.941c1.016,8.905,2.2,17.017,3.288,24.314,1.111,7.295,2.1,13.781,2.955,19.407s1.531,10.4,2.051,14.264c1.038,7.728,1.459,11.814,1.459,11.814s-.135-1.018-.379-3-.624-4.938-1.153-8.8-1.23-8.631-2.085-14.257-1.865-12.11-2.988-19.4c-1.1-7.3-2.293-15.409-3.319-24.315-.534-4.451-.968-9.106-1.382-13.946s-.938-9.854-1.479-15.047-1.081-10.568-1.481-16.127a171.165,171.165,0,0,1-.458-17.222,69.425,69.425,0,0,1,2.612-18,34.049,34.049,0,0,1,3.915-8.62,23.888,23.888,0,0,1,6.766-6.927l.069.232-137.125-.123-19.195-.019c-.808,0-1.617-.007-2.421.041l-1.209.051-.6.025-.6.076c-.8.114-1.607.184-2.4.336l-2.372.531a28.733,28.733,0,0,0-8.812,4.134c-5.41,3.747-9.487,9.222-12.484,15.169a75.928,75.928,0,0,0-6.251,19.174,118.535,118.535,0,0,0-2.083,20.427c-.063,3.451.008,6.917.182,10.388.209,3.47.474,6.95.921,10.421,1.782,13.894,3.824,27.941,5.8,42.146,2.012,14.378,3.943,28.614,5.554,42.7a291.115,291.115,0,0,1,2.071,41.841,163.2,163.2,0,0,1-5.825,40.039,70.9,70.9,0,0,1-3.259,9.349,55.371,55.371,0,0,1-4.6,8.656,30.833,30.833,0,0,1-6.427,7.247,17.629,17.629,0,0,1-4.136,2.481,13.941,13.941,0,0,1-4.68,1.062l-.006-.308,189.15.046-.075.03a96.377,96.377,0,0,0,8.728-10.1,69.246,69.246,0,0,0,6.707-10.7c.223-.46.464-.909.669-1.374s.4-.932.593-1.4c.423-.917.715-1.874,1.045-2.809l.241-.7.2-.714q.2-.713.4-1.419.4-1.412.784-2.8c.438-1.875.9-3.711,1.3-5.531.352-1.828.753-3.615,1.048-5.389a176.413,176.413,0,0,0,2.289-19.864c.349-6.126.393-11.72.332-16.74-.184-10.041-.822-17.778-1.3-23-.228-2.613-.449-4.6-.587-5.927S497.2,3140.863,497.2,3140.863Z" transform="translate(-285.879 -2974.963)" fill="#263238"/><g transform="translate(11.368 3.552)"><path d="M495.234,3135.485s.1.729.267,2.156.423,3.553.754,6.339c.638,5.577,1.668,13.8,2.5,24.465.414,5.33.73,11.273.784,17.789a139,139,0,0,1-1.311,21.159c-.31,1.88-.561,3.805-1.03,5.722q-.315,1.446-.637,2.915-.415,1.446-.837,2.915a98.543,98.543,0,0,1-4.363,11.816l-1.389,2.961c-.491.982-1.036,1.945-1.557,2.93a55.726,55.726,0,0,1-3.65,5.7c-.316.479-.705.9-1.06,1.358-.37.442-.71.912-1.109,1.335l-1.191,1.279c-.4.427-.849.806-1.274,1.214a16.674,16.674,0,0,1-6.058,3.746l-.008,0h-.015l-170.165.041-.006-.309a8.274,8.274,0,0,0,4.076-1.385,14.515,14.515,0,0,0,3.242-2.977,35.66,35.66,0,0,0,4.593-7.674,99.264,99.264,0,0,0,5.717-17.335,210.738,210.738,0,0,0,5.349-37.242,237.518,237.518,0,0,0-1.178-38.88q-1.072-9.82-2.69-19.7c-1.068-6.583-2.273-13.185-3.406-19.836-2.352-13.674-4.371-27.254-6.191-40.68a152.552,152.552,0,0,1-1.038-39.991c.387-3.272.925-6.513,1.587-9.716a86.437,86.437,0,0,1,2.594-9.415,57.226,57.226,0,0,1,3.874-8.875,39.933,39.933,0,0,1,5.511-7.856,27.689,27.689,0,0,1,7.47-5.875,25.241,25.241,0,0,1,8.985-2.774c3.127-.338,6.233-.182,9.318-.214l9.211.011,131.891.175h.328l-.246.218a23.611,23.611,0,0,0-5.345,7.1,36.969,36.969,0,0,0-2.894,8.229,76.8,76.8,0,0,0-1.71,16.73c-.047,10.947,1.106,21.239,2.089,30.851.5,4.809.994,9.452,1.361,13.936s.738,8.79,1.157,12.917c.815,8.253,1.7,15.786,2.527,22.561,1.694,13.544,3.012,24.081,3.907,31.232.421,3.577.743,6.307.96,8.145s.306,2.781.306,2.781c-.03-.247-.465-3.792-1.339-10.917-.91-7.15-2.25-17.683-3.974-31.224-.839-6.774-1.734-14.307-2.558-22.562-.424-4.126-.8-8.436-1.172-12.918s-.866-9.123-1.374-13.931c-.991-9.611-2.155-19.907-2.116-30.872a76.98,76.98,0,0,1,1.7-16.783,37.276,37.276,0,0,1,2.908-8.285,23.858,23.858,0,0,1,5.4-7.18l.083.219-131.891-.116-9.211-.008c-3.083.031-6.2-.122-9.28.214a24.907,24.907,0,0,0-8.875,2.742,27.374,27.374,0,0,0-7.384,5.811,39.63,39.63,0,0,0-5.464,7.795,56.876,56.876,0,0,0-3.85,8.827,85.927,85.927,0,0,0-2.582,9.377c-.66,3.192-1.195,6.423-1.581,9.687a152.252,152.252,0,0,0,1.041,39.909c1.821,13.423,3.839,27,6.191,40.668,1.132,6.65,2.337,13.252,3.406,19.84s1.975,13.163,2.691,19.715a237.733,237.733,0,0,1,1.176,38.934,210.947,210.947,0,0,1-5.364,37.3,99.476,99.476,0,0,1-5.74,17.391,35.954,35.954,0,0,1-4.639,7.742,14.8,14.8,0,0,1-3.312,3.039,8.58,8.58,0,0,1-4.232,1.433l-.006-.309,170.165.041-.023,0a16.524,16.524,0,0,0,5.956-3.688c.421-.4.868-.779,1.265-1.2l1.184-1.27c.4-.42.735-.888,1.1-1.327s.741-.874,1.057-1.35a55.7,55.7,0,0,0,3.639-5.679c.52-.98,1.065-1.941,1.555-2.919l1.387-2.953a98.358,98.358,0,0,0,4.366-11.787l.839-2.906q.322-1.466.638-2.907c.469-1.913.723-3.833,1.034-5.709a139.111,139.111,0,0,0,1.336-21.133c-.045-6.511-.351-12.452-.755-17.78-.815-10.659-1.824-18.888-2.442-24.467l-.722-6.342C495.308,3136.217,495.234,3135.485,495.234,3135.485Z" transform="translate(-303.88 -2980.588)" fill="#263238"/></g><g transform="translate(43.04 14.398)"><path d="M497.555,2997.927c0,.091-32.131.165-71.758.165s-71.766-.073-71.766-.165,32.125-.165,71.766-.165S497.555,2997.837,497.555,2997.927Z" transform="translate(-354.031 -2997.763)" fill="#263238"/></g><g transform="translate(42.143 17.677)"><path d="M496.135,3003.119c0,.091-32.131.164-71.759.164s-71.765-.073-71.765-.164,32.124-.164,71.765-.164S496.135,3003.028,496.135,3003.119Z" transform="translate(-352.611 -3002.955)" fill="#263238"/></g><g transform="translate(46.015 102.948)"><path d="M488.373,3138.143c0,.091-29.021.164-64.812.164s-64.818-.073-64.818-.164,29.015-.164,64.818-.164S488.373,3138.052,488.373,3138.143Z" transform="translate(-358.743 -3137.979)" fill="#263238"/></g><g transform="translate(46.015 110.981)"><path d="M488.373,3150.864c0,.09-29.021.164-64.812.164s-64.818-.074-64.818-.164,29.015-.165,64.818-.165S488.373,3150.773,488.373,3150.864Z" transform="translate(-358.743 -3150.699)" fill="#263238"/></g><g transform="translate(47.695 119.015)"><path d="M491.033,3163.584c0,.091-29.021.165-64.812.165s-64.818-.074-64.818-.165,29.015-.164,64.818-.164S491.033,3163.494,491.033,3163.584Z" transform="translate(-361.402 -3163.42)" fill="#263238"/></g><g transform="translate(49.825 127.758)"><path d="M494.405,3177.428c0,.091-29.021.164-64.812.164s-64.818-.073-64.818-.164,29.015-.164,64.818-.164S494.405,3177.337,494.405,3177.428Z" transform="translate(-364.775 -3177.264)" fill="#263238"/></g><g transform="translate(50.6 136.5)"><path d="M495.633,3191.272c0,.09-29.021.164-64.812.164s-64.818-.074-64.818-.164,29.015-.165,64.818-.165S495.633,3191.181,495.633,3191.272Z" transform="translate(-366.002 -3191.107)" fill="#263238"/></g><g transform="translate(51.956 145.243)"><path d="M497.779,3205.115c0,.091-29.021.165-64.812.165s-64.818-.074-64.818-.165,29.015-.164,64.818-.164S497.779,3205.024,497.779,3205.115Z" transform="translate(-368.149 -3204.951)" fill="#263238"/></g><g transform="translate(51.956 153.985)"><path d="M497.779,3218.959c0,.091-29.021.164-64.812.164s-64.818-.073-64.818-.164,29.015-.165,64.818-.165S497.779,3218.868,497.779,3218.959Z" transform="translate(-368.149 -3218.794)" fill="#263238"/></g><g transform="translate(54.086 162.728)"><path d="M501.153,3232.8c0,.091-29.021.165-64.812.165s-64.818-.074-64.818-.165,29.015-.165,64.818-.165S501.153,3232.712,501.153,3232.8Z" transform="translate(-371.522 -3232.638)" fill="#263238"/></g><g transform="translate(54.086 171.471)"><path d="M501.153,3246.646c0,.091-29.021.164-64.812.164s-64.818-.073-64.818-.164,29.015-.164,64.818-.164S501.153,3246.555,501.153,3246.646Z" transform="translate(-371.522 -3246.482)" fill="#263238"/></g><g transform="translate(50.432 258.002)"><path d="M490.555,3383.666c0,.09-27.944.164-62.407.164s-62.412-.074-62.412-.164,27.937-.165,62.412-.165S490.555,3383.575,490.555,3383.666Z" transform="translate(-365.737 -3383.501)" fill="#263238"/></g></g><g transform="translate(350.032 3159.526)"><g transform="translate(82.989 9.618)"><path d="M689.189,3323.819l-21.476-41.375-29.078,16.016,21.939,40.508Z" transform="translate(-638.635 -3282.443)" fill="#ff5737"/></g><g transform="translate(82.989 9.618)" opacity="0.3"><path d="M689.189,3323.819l-21.476-41.375-29.078,16.016,21.939,40.508Z" transform="translate(-638.635 -3282.443)"/></g><g transform="translate(75.522)"><path d="M635.145,3292.479l27.8-14.522a5.7,5.7,0,0,0,2.411-7.684h0a5.7,5.7,0,0,0-7.684-2.411l-27.8,14.522a5.7,5.7,0,0,0-2.411,7.685h0A5.7,5.7,0,0,0,635.145,3292.479Z" transform="translate(-626.812 -3267.213)" fill="#1d2d38"/></g><g transform="translate(101.655 48.334)"><path d="M676.526,3369.013l27.8-14.522a5.694,5.694,0,0,0,2.411-7.684h0a5.7,5.7,0,0,0-7.684-2.411l-27.8,14.522a5.7,5.7,0,0,0-2.411,7.685h0A5.7,5.7,0,0,0,676.526,3369.013Z" transform="translate(-668.193 -3343.748)" fill="#1d2d38"/></g><g transform="translate(5.559 43.646)"><path d="M519.811,3386.962l43.979-23.909c15.8-7.6,32.695-15.649,39.088-19.486l-3.783-7.24c-7.854,3.363-21.567,12.323-38.239,21.187-13.8,7.337-29.769,14.086-44.827,22.209Z" transform="translate(-516.028 -3336.326)" fill="#ff5737"/></g><g transform="translate(47.965 62.188)"><path d="M589.674,3375.776h0a2.57,2.57,0,0,0,1.087-3.466l-2.74-5.245a2.568,2.568,0,0,0-3.465-1.087h0a2.568,2.568,0,0,0-1.088,3.465l2.74,5.245A2.569,2.569,0,0,0,589.674,3375.776Z" transform="translate(-583.176 -3365.686)" fill="#ff5737"/></g><g transform="translate(0 83.685)"><path d="M508.025,3410a7.023,7.023,0,1,0,2.973-9.477A7.023,7.023,0,0,0,508.025,3410Z" transform="translate(-507.225 -3399.725)" fill="#ff5737"/></g><g transform="translate(73.509 84.277)"><path d="M0,0H92.31a0,0,0,0,1,0,0V5.784a1.671,1.671,0,0,1-1.671,1.671H1.671A1.671,1.671,0,0,1,0,5.784V0A0,0,0,0,1,0,0Z" transform="translate(92.31 7.455) rotate(180)" fill="#ff5737"/></g><g transform="translate(77.511 73.968)"><path d="M714.621,3395.917v-4.677a6.9,6.9,0,0,0-6.9-6.9H636.864a6.9,6.9,0,0,0-6.9,6.9v4.677Z" transform="translate(-629.962 -3384.339)" fill="#ff5737"/></g><g transform="translate(82.391 70.478)"><rect width="75.18" height="6.662" transform="translate(75.18 6.662) rotate(180)" fill="#ff5737"/></g><g transform="translate(83.695 13.418)"><path d="M645.674,3311.364l29.231-15.271a4.046,4.046,0,0,0,1.713-5.459h0a4.047,4.047,0,0,0-5.46-1.713l-29.231,15.271a4.046,4.046,0,0,0-1.713,5.459h0A4.047,4.047,0,0,0,645.674,3311.364Z" transform="translate(-639.754 -3288.46)" fill="#ff5737"/></g><g transform="translate(95.731 37.945)"><path d="M664.733,3350.2l29.23-15.271a4.046,4.046,0,0,0,1.713-5.459h0a4.046,4.046,0,0,0-5.46-1.712l-29.23,15.271a4.046,4.046,0,0,0-1.713,5.459h0A4.046,4.046,0,0,0,664.733,3350.2Z" transform="translate(-658.813 -3327.298)" fill="#ff5737"/></g><g transform="translate(87.546 40.441)"><path d="M653.453,3343.209h0a2.274,2.274,0,0,0,.9-3.089l-4.231-7.691a2.275,2.275,0,0,0-3.089-.9h0a2.274,2.274,0,0,0-.9,3.089l4.231,7.692A2.274,2.274,0,0,0,653.453,3343.209Z" transform="translate(-645.851 -3331.25)" fill="#ff5737"/></g><g transform="translate(81.801 73.803)"><path d="M636.755,3384.243c0-.091,17.032-.165,38.038-.165s38.041.074,38.041.165-17.028.164-38.041.164S636.755,3384.333,636.755,3384.243Z" transform="translate(-636.755 -3384.078)" fill="#1d2d38"/></g><g transform="translate(75.031 84.113)"><path d="M626.035,3400.568c0-.091,19.984-.165,44.63-.165s44.635.074,44.635.165-19.98.164-44.635.164S626.035,3400.658,626.035,3400.568Z" transform="translate(-626.035 -3400.403)" fill="#1d2d38"/></g><g transform="translate(87.418 43.082)"><path d="M645.654,3335.433a7.583,7.583,0,0,1,.726,1.289c.421.808,1.012,1.917,1.708,3.117s1.369,2.263,1.862,3.028a7.557,7.557,0,0,1,.76,1.27,5.946,5.946,0,0,1-.952-1.138,34.337,34.337,0,0,1-3.588-6.176A5.893,5.893,0,0,1,645.654,3335.433Z" transform="translate(-645.649 -3335.432)" fill="#1d2d38"/></g><g transform="translate(52.9 63.271)"><path d="M594.167,3373.586A36.734,36.734,0,0,1,591,3367.4a36.734,36.734,0,0,1,3.17,6.184Z" transform="translate(-590.99 -3367.401)" fill="#1d2d38"/></g><g transform="translate(48.061 65.81)"><path d="M586.179,3377.56a34.816,34.816,0,0,1-2.842-6.137,34.827,34.827,0,0,1,2.842,6.137Z" transform="translate(-583.328 -3371.422)" fill="#1d2d38"/></g></g><g transform="translate(90.534 3012.759)"><g transform="translate(64.764 18.183)"><path d="M198.871,3125.462a1.559,1.559,0,0,1,.737-1.224c6.549-4.335,11.485-13.941,11.983-22.074.013-.463.028-.933.043-1.407v-.006h0c.379-11.629,2.092-25.733,3.629-29.492,2.839-6.944,12.456-7.6,12.456-7.6,12.767-.914,15.047,8.9,16.336,17.831.8,5.556,3.889,25.406,3.889,25.406l-2.347.907a28.882,28.882,0,0,1-17.08,17.864c-2.354.887-4.346,1.242-5.281.48a32.115,32.115,0,0,1-13.434,8.156,16.685,16.685,0,0,1-6.369.845,5.059,5.059,0,0,1-3.693-1.717,3.2,3.2,0,0,1,2.746-5.1C202,3126.768,198.816,3127.23,198.871,3125.462Z" transform="translate(-198.87 -3063.604)" fill="#263238"/><g transform="translate(17.244 2.909)"><path d="M236.08,3068.972l.8-.762,8.631,3.478a2.41,2.41,0,0,1,2.275,2.333l-.076,28.122a7.885,7.885,0,0,1-1.523,5.079l-1.213,1.6a6.366,6.366,0,0,1-10.638-.672,3.061,3.061,0,0,1-.305-.728,5.668,5.668,0,0,1-.128-.629c-.257-2.262-.272-4.224-.272-4.224-.154-2.484-.2-3.5-.205-3.48,0,0-5.286-.607-6.716-7.393-.71-3.375-.577-8.018-.377-12.588C226.611,3072.785,231,3068.965,236.08,3068.972Z" transform="translate(-226.175 -3068.21)" fill="#ffbf9d"/></g><g transform="translate(28.919 16.76)"><path d="M244.662,3090.98a.879.879,0,0,0,.89.843.84.84,0,0,0,.865-.837.879.879,0,0,0-.889-.843A.841.841,0,0,0,244.662,3090.98Z" transform="translate(-244.662 -3090.143)" fill="#263238"/></g><g transform="translate(19.997 17.001)"><path d="M230.534,3091.36a.878.878,0,0,0,.89.843.841.841,0,0,0,.865-.836.878.878,0,0,0-.89-.843A.84.84,0,0,0,230.534,3091.36Z" transform="translate(-230.534 -3090.524)" fill="#263238"/></g><g transform="translate(18.29 14.604)"><path d="M227.848,3087.741c.114.109.755-.416,1.7-.461s1.66.393,1.756.272c.048-.054-.073-.255-.386-.459a2.417,2.417,0,0,0-1.413-.359,2.319,2.319,0,0,0-1.345.51C227.879,3087.48,227.791,3087.692,227.848,3087.741Z" transform="translate(-227.831 -3086.729)" fill="#263238"/></g><g transform="translate(27.865 14.511)"><path d="M243.014,3087.784c.126.1.709-.492,1.643-.633s1.691.221,1.775.09c.042-.059-.1-.246-.431-.417a2.414,2.414,0,0,0-1.442-.212,2.321,2.321,0,0,0-1.285.646C243.02,3087.521,242.954,3087.741,243.014,3087.784Z" transform="translate(-242.993 -3086.581)" fill="#263238"/></g><g transform="translate(22.147 14.698)"><path d="M236.38,3094.765a6.281,6.281,0,0,0-1.547-.2c-.242-.013-.472-.049-.522-.211a1.225,1.225,0,0,1,.125-.723q.3-.892.621-1.872a31.65,31.65,0,0,0,1.361-4.881,31.529,31.529,0,0,0-1.751,4.761q-.309.984-.59,1.881a1.394,1.394,0,0,0-.078.952.607.607,0,0,0,.414.333,1.667,1.667,0,0,0,.412.036A6.136,6.136,0,0,0,236.38,3094.765Z" transform="translate(-233.939 -3086.878)" fill="#263238"/></g><g transform="translate(24.496 30.886)"><path d="M237.658,3115.414a17.421,17.421,0,0,0,9.039-2.9s-2.066,4.852-8.944,4.554Z" transform="translate(-237.658 -3112.511)" fill="#ff9a6c"/></g><g transform="translate(25.016 24.13)"><path d="M238.567,3102.523a1.7,1.7,0,0,1,1.493-.708,1.553,1.553,0,0,1,1.1.522.984.984,0,0,1,.131,1.121,1.142,1.142,0,0,1-1.222.375,3.591,3.591,0,0,1-1.243-.659,1.051,1.051,0,0,1-.283-.266.316.316,0,0,1-.016-.352" transform="translate(-238.482 -3101.812)" fill="#ff9a6c"/></g><g transform="translate(24.516 23.099)"><path d="M240.573,3100.181c-.154,0-.1,1.023-.945,1.795s-1.937.713-1.938.857c-.011.065.253.187.715.176a2.556,2.556,0,0,0,1.62-.657,2.226,2.226,0,0,0,.727-1.5C240.77,3100.42,240.643,3100.171,240.573,3100.181Z" transform="translate(-237.689 -3100.181)" fill="#263238"/></g><g transform="translate(26.971 11.012)"><path d="M241.589,3082.062c.131.24,1.046-.024,2.162-.06,1.116-.058,2.049.127,2.16-.123.048-.119-.143-.334-.538-.525a3.762,3.762,0,0,0-3.292.139C241.7,3081.717,241.53,3081.948,241.589,3082.062Z" transform="translate(-241.577 -3081.04)" fill="#263238"/></g><g transform="translate(18.413 10.496)"><path d="M228.055,3081.288c.177.207.816-.048,1.6-.1.78-.077,1.452.071,1.593-.16.062-.112-.054-.321-.353-.51a2.317,2.317,0,0,0-2.57.209C228.056,3080.962,227.977,3081.188,228.055,3081.288Z" transform="translate(-228.026 -3080.225)" fill="#263238"/></g><g transform="translate(26.393 2.447)"><path d="M252.951,3085.753s-4.835,1.5-7.571-10.428c-.935-4.081-4.718-7.385-4.718-7.385l1.534-.461s9.535,2.686,9.7,2.806,2.405,4.931,2.405,4.931Z" transform="translate(-240.662 -3067.479)" fill="#263238"/></g><g transform="translate(37.49 18.323)"><path d="M258.235,3094.572c-.024-.51.5-1.74,1-1.844,1.333-.276,3.76-.29,3.953,3.121.265,4.663-4.471,3.967-4.486,3.833C258.692,3099.578,258.319,3096.331,258.235,3094.572Z" transform="translate(-258.234 -3092.617)" fill="#ffbf9d"/></g><g transform="translate(39.281 19.801)"><path d="M261.074,3098.7c.02-.016.085.052.225.108a.815.815,0,0,0,.608-.022,2.013,2.013,0,0,0,.827-1.856,2.685,2.685,0,0,0-.293-1.15.939.939,0,0,0-.647-.589.415.415,0,0,0-.467.25c-.055.135-.02.225-.044.235s-.1-.073-.078-.267a.523.523,0,0,1,.167-.3.614.614,0,0,1,.442-.144,1.144,1.144,0,0,1,.89.675,2.758,2.758,0,0,1,.355,1.284,2.111,2.111,0,0,1-1.07,2.08.872.872,0,0,1-.75-.081C261.089,3098.809,261.059,3098.707,261.074,3098.7Z" transform="translate(-261.07 -3094.957)" fill="#ff9a6c"/></g><g transform="translate(26.655 3.358)"><path d="M249.825,3084a6.713,6.713,0,0,1-.7-.141,4.216,4.216,0,0,1-1.66-.963,5.786,5.786,0,0,1-.866-1.014,7.83,7.83,0,0,1-.7-1.363,29.432,29.432,0,0,1-1-3.391c-.328-1.216-.683-2.365-1.072-3.385a19.446,19.446,0,0,0-1.215-2.634,14.047,14.047,0,0,0-1.068-1.638c-.138-.185-.258-.319-.334-.414a1.086,1.086,0,0,0-.124-.138,1.049,1.049,0,0,0,.1.154c.07.1.184.238.315.426a15.842,15.842,0,0,1,1.029,1.652,20.4,20.4,0,0,1,1.185,2.632c.382,1.019.733,2.164,1.059,3.377a28.167,28.167,0,0,0,1.019,3.4,7.79,7.79,0,0,0,.725,1.377,5.773,5.773,0,0,0,.892,1.022,4.13,4.13,0,0,0,1.706.945A2.574,2.574,0,0,0,249.825,3084Z" transform="translate(-241.078 -3068.922)" fill="#263238"/></g><g transform="translate(28.821 1.692)"><path d="M257.462,3102.925a1.333,1.333,0,0,0,.051-.225c.029-.164.068-.384.117-.663.1-.6.24-1.45.419-2.531l-.112-.016c-.024.169-.05.357-.077.55l.005-.017-.1.209.117.043a44.834,44.834,0,0,0,1.495-7.506,45.448,45.448,0,0,0,.285-4.855,22.214,22.214,0,0,0-.461-5.322,8.414,8.414,0,0,0-.848-2.116,11.5,11.5,0,0,0-1.29-1.8c-.948-1.1-1.969-2.037-2.9-2.972l-5.005-4.925-3.388-3.307-.928-.891-.245-.229a.428.428,0,0,0-.089-.072.467.467,0,0,0,.073.088l.23.243.9.92,3.34,3.355,4.973,4.957c.93.94,1.949,1.886,2.882,2.969a9.191,9.191,0,0,1,2.09,3.829,22.218,22.218,0,0,1,.46,5.269,46.293,46.293,0,0,1-.266,4.835,47.044,47.044,0,0,1-1.427,7.492l.117.043.095-.211,0-.009v-.008c.024-.194.047-.382.068-.552l-.112-.016c-.157,1.085-.28,1.939-.366,2.54-.037.281-.067.5-.089.667A1.213,1.213,0,0,0,257.462,3102.925Z" transform="translate(-244.508 -3066.284)" fill="#455a64"/></g></g><g transform="translate(33.416 14.993)"><path d="M198.818,3101.15a33.729,33.729,0,0,0-11.013-5.307c-3.329-.954-19.687-13.307-19.687-13.307l-13.212-23.983-5.675,2.432s3.9,22.623,12.023,30.4c8.04,7.7,25.74,22.7,25.74,22.7Z" transform="translate(-149.232 -3058.553)" fill="#ffbf9d"/></g><g transform="translate(77.321 217.325)"><g transform="translate(0 8.004)"><g transform="translate(11.604)"><path d="M247.654,3397.908l-.233-5.906-10.293-.387.156,7.228,3.743,2.258Z" transform="translate(-237.128 -3391.614)" fill="#ffbf9d"/></g><g transform="translate(0 5.545)"><g transform="translate(0.011)"><path d="M230.3,3400.733l0,.677s-11.428,4.717-11.529,6.9l22.778-.335-.421-7.575A13.031,13.031,0,0,1,230.3,3400.733Z" transform="translate(-218.77 -3400.395)" fill="#455a64"/></g><g transform="translate(18.996 2.421)" opacity="0.6"><path d="M249.934,3404.265a.93.93,0,0,1,.659,1.052.894.894,0,0,1-1.037.662.981.981,0,0,1-.692-1.118.928.928,0,0,1,1.155-.569" transform="translate(-248.833 -3404.229)" fill="#fff"/></g><g transform="translate(0 5.753)" opacity="0.6"><path d="M241.542,3411.327l-.1-1.822-21.8.988s-1.007.456-.882,1.168Z" transform="translate(-218.753 -3409.505)" fill="#fff"/></g><g transform="translate(11.461 0.972)"><path d="M236.9,3402.042c.005.111.562.153,1.115.5s.851.813.952.767c.1-.022-.073-.685-.75-1.1S236.876,3401.94,236.9,3402.042Z" transform="translate(-236.901 -3401.933)" fill="#263238"/></g><g transform="translate(9.086 2.056)"><path d="M233.141,3403.7c-.024.108.461.291.846.755s.5.961.612.954c.1.016.172-.636-.318-1.205S233.142,3403.591,233.141,3403.7Z" transform="translate(-233.14 -3403.651)" fill="#263238"/></g><g transform="translate(6.854 3.075)"><path d="M230.523,3407.171c.1.023.248-.535-.047-1.14s-.818-.839-.864-.747c-.061.093.282.414.515.915S230.413,3407.163,230.523,3407.171Z" transform="translate(-229.606 -3405.265)" fill="#263238"/></g></g></g><g transform="translate(18.009)"><g transform="translate(1.3)"><path d="M249.329,3380.009l1.806,17.583,8.059-1.342.179-17.312Z" transform="translate(-249.329 -3378.939)" fill="#ffbf9d"/></g><g transform="translate(0 13.978)"><path d="M258.4,3401.073s-5.333,4.493-8.424,1.34l-.565,1.725-2.12,12.107a1.579,1.579,0,0,0,1.094,1.807,1.607,1.607,0,0,0,1.632-.468c2.141-2.4,9.972-11.27,9.784-12.354l-.31-2.893a1.48,1.48,0,0,0-1.093-1.264Z" transform="translate(-247.27 -3401.073)" fill="#455a64"/><g transform="translate(1.407 3.149)" opacity="0.6"><path d="M249.5,3419.942l11.037-13.883.057.633a1.748,1.748,0,0,1-.447,1.452c-.866,1.4-3.332,4.57-9.256,11.273a1.6,1.6,0,0,1-1.391.525Z" transform="translate(-249.498 -3406.059)" fill="#fff"/></g><g transform="translate(10.145 1.244)" opacity="0.6"><path d="M263.658,3403.234a.915.915,0,0,0-.15,1.233.933.933,0,0,0,1.252.149.887.887,0,1,0-1.17-1.321" transform="translate(-263.334 -3403.042)" fill="#fff"/></g><g transform="translate(1.069 8.673)"><path d="M252.21,3416.317a4.748,4.748,0,0,0-1.451-1.039,4.934,4.934,0,0,0-1.8-.167c-.016-.035.167-.169.522-.251a2.52,2.52,0,0,1,1.4.111,2.434,2.434,0,0,1,1.115.822C252.2,3416.083,252.247,3416.3,252.21,3416.317Z" transform="translate(-248.962 -3414.806)" fill="#263238"/></g><g transform="translate(0.472 11.393)"><path d="M250.953,3420a13.065,13.065,0,0,0-1.417-.518,13.194,13.194,0,0,0-1.515-.052,1.789,1.789,0,0,1,1.583-.272C250.529,3419.338,251.028,3419.957,250.953,3420Z" transform="translate(-248.018 -3419.113)" fill="#263238"/></g><g transform="translate(1.662 5.987)"><path d="M254.356,3412a15.859,15.859,0,0,0-2.131-.944,16.116,16.116,0,0,0-2.322-.308,3.58,3.58,0,0,1,2.417-.009A3.472,3.472,0,0,1,254.356,3412Z" transform="translate(-249.902 -3410.554)" fill="#263238"/></g><g transform="translate(2.028 3.369)"><path d="M254.5,3406.855c-.033.093-.911-.174-2.018-.112s-1.956.4-2,.311a4.009,4.009,0,0,1,4.015-.2Z" transform="translate(-250.481 -3406.408)" fill="#263238"/></g><g transform="translate(1.143 0.923)"><path d="M251.334,3405.343a1.25,1.25,0,0,1,.032-.567,3.913,3.913,0,0,1,.6-1.441,1.791,1.791,0,0,1,.845-.767.644.644,0,0,1,.7.2.983.983,0,0,1,.178.7,2.226,2.226,0,0,1-2.136,1.837,2.575,2.575,0,0,1-2.405-1.53.855.855,0,0,1,.027-.729.632.632,0,0,1,.678-.264,2.191,2.191,0,0,1,.962.6,4.369,4.369,0,0,1,.936,1.251,1.307,1.307,0,0,1,.186.536,6.969,6.969,0,0,0-1.285-1.615,2.054,2.054,0,0,0-.851-.5.338.338,0,0,0-.371.142.587.587,0,0,0,.011.48,2.3,2.3,0,0,0,2.1,1.3,1.934,1.934,0,0,0,1.836-1.534.712.712,0,0,0-.1-.491.347.347,0,0,0-.384-.114,1.617,1.617,0,0,0-.728.636A5.764,5.764,0,0,0,251.334,3405.343Z" transform="translate(-249.08 -3402.535)" fill="#263238"/></g></g></g></g><g transform="translate(68.047 111.08)"><path d="M209,3210.7s-4.249,6.665-4.9,18.23,8.771,47.067,10.071,54.657c.885,5.167,6.441,30.105,11.678,45.818l6.871.883s-5.237-52.375-5.019-57.83,2.183-34.48,2.183-34.48l2.837-22.041Z" transform="translate(-204.068 -3210.704)" fill="#263238"/><g transform="translate(18.186)"><path d="M264.718,3210.7c-.654.218-23.416,4.146-23.416,4.146s-7.754,59.755-8.409,67.612,10.438,47.83,10.438,47.83h11.129s-.218-26.405-1.964-34.48-1.746-10.038-.654-15.058,11.3-29.1,14.136-42.413S264.718,3210.7,264.718,3210.7Z" transform="translate(-232.866 -3210.704)" fill="#263238"/></g><g transform="translate(18.077 19.929)"><path d="M239.279,3242.261s0,.089-.018.262-.048.439-.083.765c-.081.686-.2,1.673-.349,2.939-.317,2.564-.772,6.251-1.335,10.8l-4.483,35.618a27.205,27.205,0,0,0,.333,5.143c.234,1.688.525,3.342.846,4.962.637,3.241,1.358,6.347,2.083,9.3,1.453,5.9,2.912,11.171,4.163,15.591s2.311,7.985,3.043,10.448l.846,2.836q.137.472.215.738c.047.167.064.255.064.255s-.036-.082-.093-.246l-.243-.73c-.21-.657-.512-1.605-.9-2.82-.765-2.453-1.854-6.01-3.133-10.423s-2.757-9.686-4.226-15.584c-.733-2.95-1.459-6.059-2.1-9.306-.324-1.623-.617-3.283-.854-4.978a27.4,27.4,0,0,1-.337-5.2c1.722-13.931,3.391-26.505,4.57-35.623.6-4.546,1.089-8.229,1.427-10.79l.4-2.932c.047-.325.085-.578.112-.762S239.279,3242.261,239.279,3242.261Z" transform="translate(-232.693 -3242.261)" fill="#455a64"/></g><g transform="translate(25.199 13.377)"><path d="M258.661,3231.906a20.008,20.008,0,0,1-2.193.353c-1.354.2-3.218.526-5.247,1.012s-3.838,1.044-5.136,1.478a19.958,19.958,0,0,1-2.114.681,2.083,2.083,0,0,1,.53-.28c.349-.161.863-.375,1.506-.621a42.76,42.76,0,0,1,10.432-2.5c.684-.073,1.239-.115,1.624-.129A2.1,2.1,0,0,1,258.661,3231.906Z" transform="translate(-243.97 -3231.887)" fill="#455a64"/></g></g><g transform="translate(57.417 48.742)"><path d="M214.317,3119.985s-5.5-2.1-9.921-4.037c-4.965-2.17-8.253-3.954-8.253-3.954-.6.345-8.906,13.386-8.906,13.386l19.716,14.717,7.97-19.48Z" transform="translate(-187.237 -3111.994)" fill="#ff4a2c"/><g transform="translate(54.98 13.2)"><path d="M299.155,3163.15a8.13,8.13,0,0,0,.206-6.748c-1.5-3.875-18.662-23.507-18.662-23.507s-6.746,3.163-6.39,9.317l3.684,5.866,10.121,11.648Z" transform="translate(-274.296 -3132.895)" fill="#ffbf9d"/><g transform="translate(4.4 25.224)"><path d="M281.264,3191.1l10.326-18.267s9.915,4.855,10.133,5.031-10.381,12.963-17.5,18.237l-2.56-1.325Z" transform="translate(-281.264 -3172.837)" fill="#ffbf9d"/></g></g><g transform="translate(13.328 7.306)"><g transform="translate(14.648)"><path d="M253.81,3125.018l-4.32-1.456-14.792.431-2.459.454s-.814,13.636-.692,13.882,5.8,4.925,6.038,5.171,11.965-3.693,11.965-3.693l7.733-13.873Z" transform="translate(-231.535 -3123.562)" fill="#ffbf9d"/></g><path d="M242.114,3123.562c.616,0,10.827,1.728,13.614,4.038,2.952,2.447,10.215,12.551,10.215,12.551l-13.59,8.235-2.176,14.876s5.561,13.326,6.3,18.977c0,0-31.32,24.369-48.136-.76,0,0,5.319-9.365,6.065-16.192.093-.85-3.332-13.067-3.314-16.3a155.5,155.5,0,0,1,1.549-15.512l5.424-8.993,8.877-.508,4.563,8.464Z" transform="translate(-208.341 -3123.562)" fill="#ff4a2c"/><g transform="translate(2.789 8.873)"><path d="M216.307,3137.613c.057.026-.406,1.067-1,2.8a44.753,44.753,0,0,0-1.728,6.946,36.931,36.931,0,0,0-.51,7.131c.069,1.833.335,2.943.273,2.957a3.465,3.465,0,0,1-.226-.772,17.794,17.794,0,0,1-.3-2.171,31.869,31.869,0,0,1,.409-7.2,37.31,37.31,0,0,1,1.843-6.973c.337-.86.623-1.551.857-2.012A3.391,3.391,0,0,1,216.307,3137.613Z" transform="translate(-212.757 -3137.613)" fill="#263238"/></g></g><g transform="translate(45.197 51.418)"><path d="M260.635,3194.373s4.344-1.173,4.782-.926,3.679,1.957,3.679,1.957a16.627,16.627,0,0,0,1.531,1.658,4.269,4.269,0,0,0,1.881,1.092,3.393,3.393,0,0,0,1.221-.132l2.564,5.252s-1.343,1.732-2.285,1.716-6.178-2.218-6.178-2.218l-1.264-.275s-4.748.686-5.137-.742l-.044-.407,4.664-.913,1.776.1-3.146-.812s-4.446.217-4.865.144-.953-.662-.816-1.029l.918-.217s-1.078-.586-1.112-1.23l4.111-1.113S260.264,3195.3,260.635,3194.373Z" transform="translate(-258.805 -3193.413)" fill="#ffbf9d"/><g transform="translate(0.623 3.731)"><path d="M259.792,3200.787a1.726,1.726,0,0,0,.378-.094c.239-.07.587-.165,1.018-.278.863-.224,2.062-.508,3.391-.8a4.306,4.306,0,0,1,.482-.094,1.466,1.466,0,0,1,.457.032c.3.082.6.184.873.277.556.19,1.051.38,1.459.556s.728.34.944.461a2.19,2.19,0,0,0,.34.186,1.146,1.146,0,0,0-.3-.25,7.121,7.121,0,0,0-.927-.521c-.4-.194-.9-.4-1.457-.6-.282-.1-.566-.2-.889-.294a1.681,1.681,0,0,0-.517-.039,4.34,4.34,0,0,0-.508.1c-1.332.3-2.529.6-3.386.86-.428.13-.772.246-1.005.338A1.347,1.347,0,0,0,259.792,3200.787Z" transform="translate(-259.792 -3199.321)" fill="#ff9a6c"/></g><g transform="translate(4.008 2.337)"><path d="M265.152,3197.847c.016.029.329-.152.876-.319a4.926,4.926,0,0,1,4.251.627c.476.319.723.582.746.559a2.35,2.35,0,0,0-.667-.671,4.608,4.608,0,0,0-4.375-.645A2.357,2.357,0,0,0,265.152,3197.847Z" transform="translate(-265.151 -3197.113)" fill="#ff9a6c"/></g></g><g transform="translate(56.451 18.933)"><path d="M278.322,3141.974a3.32,3.32,0,0,1,.028.752c0,.484-.021,1.184-.056,2.048-.068,1.728-.21,4.114-.443,6.744s-.513,5-.75,6.718c-.118.857-.223,1.549-.306,2.025a3.342,3.342,0,0,1-.16.736,3.3,3.3,0,0,1,.033-.753c.054-.549.122-1.23.2-2.037.177-1.719.42-4.093.653-6.719s.41-5,.539-6.728c.063-.808.116-1.49.16-2.041A3.309,3.309,0,0,1,278.322,3141.974Z" transform="translate(-276.626 -3141.974)" fill="#263238"/></g></g><g transform="translate(28.371)"><path d="M152.223,3049.943l.023-2.663a12.159,12.159,0,0,0-.529-4.94c-.842-2.187-4.493-7.528-4.493-7.528-1.382-.037-1.489,1.52-.875,4.095.793,3.328-5.106,8.166-5.106,8.464,0,.4,5.132,5.623,5.132,5.623l5.843-2.506.005-.546" transform="translate(-141.243 -3034.812)" fill="#ffbf9d"/><g transform="translate(6.536 5.982)"><path d="M152.879,3044.285a10.021,10.021,0,0,0-.618,6.9,2.433,2.433,0,0,1-.417-.977,7.3,7.3,0,0,1,.451-5.033A2.436,2.436,0,0,1,152.879,3044.285Z" transform="translate(-151.592 -3044.284)" fill="#ff9a6c"/></g></g><g transform="translate(0 16.548)"><g transform="translate(0 33.285)"><path d="M117.65,3135.8a2.8,2.8,0,0,1-.246-.426l-.649-1.251-2.332-4.627-7.581-15.32,0-.008h.295l-7.585,15.315-2.332,4.624-.649,1.25a2.825,2.825,0,0,1-.246.426,2.7,2.7,0,0,1,.186-.455l.594-1.277,2.239-4.67,7.5-15.358.147-.3.148.3,0,.008,7.495,15.363,2.238,4.673.594,1.278A2.74,2.74,0,0,1,117.65,3135.8Z" transform="translate(-96.318 -3113.721)" fill="#263238"/></g><g transform="translate(6.82 33.66)"><path d="M107.124,3138.471c-.09-.014.7-5.434,1.758-12.1s1.992-12.067,2.081-12.053-.7,5.433-1.757,12.1S107.214,3138.485,107.124,3138.471Z" transform="translate(-107.117 -3114.314)" fill="#263238"/></g><g transform="translate(6.732 21.594)"><path d="M158,3101.436c-1.075-.455-1.536,1.647-.468,2.1.011.005.016.006.018,0l.047.04a1.318,1.318,0,0,1,.3.278c.245.362.214.736-.111.9a3.551,3.551,0,0,1-2.621-.143,28.248,28.248,0,0,1-4.472-2.856c-4.313-2.9-8.76-6.219-13.792-6.521a7.991,7.991,0,0,0-3.537.427,7.465,7.465,0,0,0-2.687-.444,16.039,16.039,0,0,0-7.771,2.175c-3.83,2.049-7.287,5.049-11.1,7.108a4.936,4.936,0,0,1-.815.282,3.915,3.915,0,0,1-1.718.077c-.426-.1-.765-.291-.514-.872a1.026,1.026,0,0,1,.3-.346.871.871,0,0,1,.169-.114c1.049-.463.59-2.547-.481-2.093-2.137.9-2.51,4.68-.1,5.478,1.926.639,3.752-.292,5.42-1.368,2.244-1.445,4.444-2.994,6.689-4.437a21.7,21.7,0,0,1,7.96-3.572,8.094,8.094,0,0,1,4,.149.917.917,0,0,0,1.314,0,7.484,7.484,0,0,1,3.061-.265,18.171,18.171,0,0,1,8.031,3.128c2.308,1.444,4.561,3.019,6.844,4.523,1.672,1.1,3.246,2.148,5.211,2a2.645,2.645,0,0,0,2.639-2.87A3.084,3.084,0,0,0,158,3101.436Z" transform="translate(-106.978 -3095.208)" fill="#ff4a2c"/><g opacity="0.3"><path d="M158,3101.436c-1.075-.455-1.536,1.647-.468,2.1.011.005.016.006.018,0l.047.04a1.318,1.318,0,0,1,.3.278c.245.362.214.736-.111.9a3.551,3.551,0,0,1-2.621-.143,28.248,28.248,0,0,1-4.472-2.856c-4.313-2.9-8.76-6.219-13.792-6.521a7.991,7.991,0,0,0-3.537.427,7.465,7.465,0,0,0-2.687-.444,16.039,16.039,0,0,0-7.771,2.175c-3.83,2.049-7.287,5.049-11.1,7.108a4.936,4.936,0,0,1-.815.282,3.915,3.915,0,0,1-1.718.077c-.426-.1-.765-.291-.514-.872a1.026,1.026,0,0,1,.3-.346.871.871,0,0,1,.169-.114c1.049-.463.59-2.547-.481-2.093-2.137.9-2.51,4.68-.1,5.478,1.926.639,3.752-.292,5.42-1.368,2.244-1.445,4.444-2.994,6.689-4.437a21.7,21.7,0,0,1,7.96-3.572,8.094,8.094,0,0,1,4,.149.917.917,0,0,0,1.314,0,7.484,7.484,0,0,1,3.061-.265,18.171,18.171,0,0,1,8.031,3.128c2.308,1.444,4.561,3.019,6.844,4.523,1.672,1.1,3.246,2.148,5.211,2a2.645,2.645,0,0,0,2.639-2.87A3.084,3.084,0,0,0,158,3101.436Z" transform="translate(-106.978 -3095.208)"/></g></g><g transform="translate(0.001 55.346)"><path d="M96.32,3148.653l5.169,5.168H112.2l5.45-5.15Z" transform="translate(-96.32 -3148.653)" fill="#ff4a2c"/></g><g transform="translate(1.874 57.054)"><path d="M116.7,3151.524c0,.09-3.9.164-8.706.164s-8.707-.074-8.707-.164,3.9-.165,8.707-.165S116.7,3151.433,116.7,3151.524Z" transform="translate(-99.286 -3151.359)" fill="#263238"/></g><g transform="translate(10.253 31.174)"><rect width="0.827" height="2.868" rx="0.413" fill="#ff4a2c"/></g><g transform="translate(44.977 30.499)"><g transform="translate(0 2.172)"><path d="M189.392,3135.361a2.877,2.877,0,0,1-.252-.437l-.664-1.281-2.388-4.742-7.766-15.7,0-.009h.295l-7.77,15.691-2.388,4.738-.664,1.281a2.887,2.887,0,0,1-.252.436,2.9,2.9,0,0,1,.192-.466l.609-1.308,2.295-4.784,7.684-15.734.147-.3.148.3,0,.009,7.68,15.74,2.294,4.787.609,1.309A2.888,2.888,0,0,1,189.392,3135.361Z" transform="translate(-167.537 -3112.749)" fill="#263238"/></g><g transform="translate(6.988 2.547)"><path d="M178.609,3138.092c-.09-.014.718-5.566,1.8-12.4s2.039-12.364,2.129-12.349-.718,5.565-1.8,12.4S178.7,3138.106,178.609,3138.092Z" transform="translate(-178.602 -3113.343)" fill="#263238"/></g><g transform="translate(0.001 24.765)"><path d="M167.539,3148.524l5.3,5.3H183.81l5.583-5.276Z" transform="translate(-167.539 -3148.524)" fill="#ff4a2c"/></g><g transform="translate(1.92 26.52)"><path d="M188.419,3151.467c0,.091-3.994.165-8.92.165s-8.921-.074-8.921-.165,3.993-.165,8.921-.165S188.419,3151.376,188.419,3151.467Z" transform="translate(-170.578 -3151.303)" fill="#263238"/></g><g transform="translate(10.504)"><rect width="0.847" height="2.938" rx="0.424" fill="#ff4a2c"/></g></g><g transform="translate(30.435)"><path d="M150.249,3085.477l-2.72,3.749-3.018-3.749,1.023-6.814.093-17.648,2.77.043.347,17.438Z" transform="translate(-144.511 -3061.015)" fill="#ff4a2c"/></g><g transform="translate(30.122 12.834)"><path d="M149.965,3084.364a2.976,2.976,0,1,1-2.975-3.026A3,3,0,0,1,149.965,3084.364Z" transform="translate(-144.015 -3081.338)" fill="#ff4a2c"/></g></g><g transform="translate(28.823 9.585)"><path d="M145.706,3057.483a3.747,3.747,0,1,1,3.747-3.747A3.751,3.751,0,0,1,145.706,3057.483Zm0-6.863a3.116,3.116,0,1,0,3.116,3.115A3.119,3.119,0,0,0,145.706,3050.62Z" transform="translate(-141.959 -3049.989)" fill="#ff4a2c"/></g><g transform="translate(27.689 0.048)"><g transform="translate(0.08 0.165)"><path d="M141.837,3046.479s1.574,1.718,2.626,1.457a1.34,1.34,0,0,0,.826-2,1.045,1.045,0,0,0,1.652.053,1.946,1.946,0,0,0,.126-2.146s.6.069.832-1.038a3.407,3.407,0,0,0-.746-2.344,2.524,2.524,0,0,0,.532-2.453,5.083,5.083,0,0,0-2.979-2.792c-.114-.012-1.441-.4-1.736.793s-.08,1.6-.08,1.6-1.212.342-.738,2.659c0,0-1.523.57-.831,2.715,0,0-1.191,2.137-1.012,3.168a4.063,4.063,0,0,0,.9,1.82" transform="translate(-140.29 -3035.149)" fill="#ffbf9d"/></g><path d="M141.161,3047.875c-.009.008-.106-.08-.259-.275a3.948,3.948,0,0,1-.542-.942,2.642,2.642,0,0,1-.194-.776,3.161,3.161,0,0,1,.133-.941,10.779,10.779,0,0,1,.872-2.111l-.009.095a3.071,3.071,0,0,1-.151-1.529,1.835,1.835,0,0,1,1.046-1.357l-.09.163a4.46,4.46,0,0,1-.085-1.487,1.612,1.612,0,0,1,.921-1.352l-.1.224a1.879,1.879,0,0,1-.085-.829,5.331,5.331,0,0,1,.125-.784,1.409,1.409,0,0,1,.408-.769,1.333,1.333,0,0,1,.836-.314,3.31,3.31,0,0,1,.858.1,3.273,3.273,0,0,1,.788.378,6.41,6.41,0,0,1,1.317,1.119,3.521,3.521,0,0,1,.972,1.973,2.71,2.71,0,0,1-.7,2.021l.011-.216a3.852,3.852,0,0,1,.806,1.949,2.173,2.173,0,0,1-.193,1.024.958.958,0,0,1-.844.659l.147-.224a2.451,2.451,0,0,1,.289,1.169,1.732,1.732,0,0,1-.4,1.083,1.171,1.171,0,0,1-.987.5,1.414,1.414,0,0,1-.907-.5l.2-.128a1.751,1.751,0,0,1,.085,1.292,1.325,1.325,0,0,1-.832.8,1.388,1.388,0,0,1-1-.056,3.586,3.586,0,0,1-.717-.4,6.375,6.375,0,0,1-.849-.739,1.3,1.3,0,0,1-.251-.3c.021-.024.382.386,1.176.928a3.608,3.608,0,0,0,.7.361,1.213,1.213,0,0,0,.875.029,1.126,1.126,0,0,0,.69-.692,1.534,1.534,0,0,0-.1-1.118l-.325-.7.53.572a1.175,1.175,0,0,0,.738.4.906.906,0,0,0,.755-.41,1.744,1.744,0,0,0,.062-1.929l-.124-.23.272.005c.193,0,.424-.22.527-.486a1.864,1.864,0,0,0,.16-.88,3.565,3.565,0,0,0-.747-1.765l-.082-.111.093-.105a2.392,2.392,0,0,0,.6-1.762,3.208,3.208,0,0,0-.89-1.779,6.142,6.142,0,0,0-1.245-1.06,2.3,2.3,0,0,0-1.45-.43,1.011,1.011,0,0,0-.635.229,1.091,1.091,0,0,0-.309.6,4.958,4.958,0,0,0-.122.734,1.762,1.762,0,0,0,.045.659l.061.164-.157.06a1.343,1.343,0,0,0-.708,1.094,4.212,4.212,0,0,0,.068,1.385l.021.115-.111.049a1.572,1.572,0,0,0-.887,1.14,2.857,2.857,0,0,0,.12,1.4l.015.049-.025.046c-.765,1.445-1.338,2.795-.895,3.665A6.209,6.209,0,0,0,141.161,3047.875Z" transform="translate(-140.163 -3034.888)" fill="#ff9a6c"/><g transform="translate(1.005 7.787)"><path d="M145.869,3050.462c-.047.021-.193-.261-.468-.673a8.238,8.238,0,0,0-1.306-1.43,3.847,3.847,0,0,0-.828-.627,3.349,3.349,0,0,0-.8-.27c-.465-.115-.669.21-.709.16-.016-.012.007-.094.116-.207a.754.754,0,0,1,.625-.189,2.874,2.874,0,0,1,.9.229,3.537,3.537,0,0,1,.923.66,5.835,5.835,0,0,1,1.279,1.554C145.842,3050.133,145.908,3050.446,145.869,3050.462Z" transform="translate(-141.755 -3047.218)" fill="#ff9a6c"/></g><g transform="translate(1.852 5.245)"><path d="M148.1,3046.808c-.042.027-.257-.258-.647-.671s-.967-.948-1.62-1.539a4.53,4.53,0,0,0-1.838-1.129c-.536-.152-.9-.143-.9-.2a1.556,1.556,0,0,1,.954-.032,4.035,4.035,0,0,1,2.011,1.112,12.681,12.681,0,0,1,1.575,1.634C147.991,3046.45,148.138,3046.787,148.1,3046.808Z" transform="translate(-143.095 -3043.193)" fill="#ff9a6c"/></g><g transform="translate(2.653 2.564)"><path d="M148.93,3042.327c-.078.039-.762-1.093-1.97-2.19a3.484,3.484,0,0,0-1.744-.945c-.509-.1-.844-.046-.852-.1-.01-.036.318-.176.884-.136a3.23,3.23,0,0,1,1.943.937,8.477,8.477,0,0,1,1.374,1.627C148.856,3041.985,148.968,3042.307,148.93,3042.327Z" transform="translate(-144.365 -3038.948)" fill="#ff9a6c"/></g></g></g></g></svg>