<svg xmlns="http://www.w3.org/2000/svg" width="188.595" height="188.596" viewBox="0 0 188.595 188.596"><g transform="translate(-624.502 -52.195)"><path d="M798.506,196.853a94.34,94.34,0,0,1-17.87,20.838c-.428.368-.856.734-1.283,1.092-.324.271-.655.542-.987.812s-.647.523-.97.776q-2.528,2.017-5.16,3.824c-.279.192-.567.384-.855.568q-1.755,1.191-3.562,2.286c-1.309.794-2.628,1.563-3.973,2.287-.366.2-.742.4-1.135.594-.034.018-.079.044-.122.062-2.007,1.055-4.059,2.043-6.145,2.941-.079.035-.166.07-.244.105-1.048.453-2.1.881-3.152,1.292-.314.112-.62.235-.934.348a1.012,1.012,0,0,1-.157.062c-.244.105-.505.192-.759.288-.166.062-.331.122-.506.184-.114.044-.226.087-.349.131-.1.035-.2.07-.3.105-1.292.453-2.6.881-3.911,1.274-.008,0-.018.008-.027.008-.1.035-.183.053-.279.088-.227.069-.453.131-.681.2-.62.174-1.231.348-1.859.515-.794.209-1.6.418-2.4.611-1.266.306-2.54.594-3.814.846-.018,0-.035.01-.053.01a93.576,93.576,0,0,1-10.2,1.431c-.576.062-1.135.1-1.711.131-.568.053-1.135.079-1.7.1-.908.06-1.807.079-2.715.1-.192.008-.384.018-.567.008a7.254,7.254,0,0,1-.76.01c-.2.008-.4.017-.611.017-.4,0-.812-.008-1.214-.017-2.244-.027-4.487-.14-6.722-.324-.261-.025-.532-.044-.794-.079-2.889-.261-5.762-.663-8.643-1.2-.218-.044-.445-.087-.672-.131l-.6-.105a2.1,2.1,0,0,0-.218-.052c-.341-.07-.672-.14-1.03-.219-.1-.017-.192-.044-.289-.06-.4-.088-.794-.175-1.2-.271a91.518,91.518,0,0,1-10.083-2.96c-.244-.087-.49-.175-.725-.262-.348-.122-.689-.253-1.03-.383-1.039-.393-2.077-.8-3.107-1.24l-.053-.025c-.515-.2-1.02-.42-1.535-.655-.123-.052-.236-.105-.349-.166-.289-.132-.577-.254-.856-.393-.463-.2-.925-.411-1.379-.62-.418-.209-.829-.41-1.239-.611l-1.022-.523a2.042,2.042,0,0,1-.192-.1c-.393-.192-.786-.41-1.169-.611a.39.39,0,0,1-.114-.062,1.07,1.07,0,0,1-.167-.1c-.41-.21-.811-.428-1.213-.647-.236-.131-.472-.262-.707-.4-.542-.306-1.092-.62-1.632-.943-.227-.139-.463-.271-.69-.418a2.427,2.427,0,0,1-.262-.157c-.331-.2-.662-.4-.987-.6l-.418-.261c-.14-.087-.288-.184-.428-.271-.341-.219-.689-.445-1.022-.672-.087-.062-.183-.122-.271-.184l-.079-.052a.067.067,0,0,0-.034-.018,7.992,7.992,0,0,1-.725-.5c-.306-.184-.594-.384-.881-.594-.018-.018-.044-.027-.062-.044-.035-.018-.069-.053-.1-.07l-.376-.271c-.122-.087-.244-.166-.358-.244-.192-.14-.384-.271-.567-.4-.027-.008-.044-.035-.062-.052-.733-.525-1.448-1.057-2.147-1.607-.463-.349-.916-.7-1.371-1.057-.542-.436-1.091-.881-1.624-1.327-.079-.069-.166-.139-.253-.209-.751-.619-1.493-1.266-2.209-1.93-.577-.505-1.144-1.03-1.7-1.562-1.493-1.379-2.908-2.8-4.279-4.269-.008-.018-.034-.027-.044-.052-1.047-1.118-2.052-2.252-3.038-3.414-1.413-1.685-2.784-3.4-4.077-5.177-.724-.995-1.431-2-2.121-3.02-.122-.175-.236-.349-.358-.523-.192-.289-.384-.585-.577-.883a.662.662,0,0,0-.044-.079c-1.048-1.615-2.052-3.264-2.986-4.941a5.774,5.774,0,0,1-.323-.6c-.664-1.162-1.274-2.349-1.868-3.545-.393-.794-.777-1.572-1.152-2.366q-1.926-4.176-3.449-8.494c-.462-1.336-.907-2.671-1.309-4.033-.035-.1-.069-.209-.1-.323-.079-.279-.166-.55-.254-.838-.218-.759-.427-1.528-.627-2.287a94.285,94.285,0,1,1,170.94,26.565Z" transform="translate(0 0)" fill="#b9cee6"/><g transform="translate(640.25 90.162)"><g transform="translate(91.304 104.282)"><path d="M760.848,194.194c-.324.271-.655.542-.987.812s-.647.523-.97.776q-2.528,2.017-5.16,3.824c-.279.192-.567.384-.855.568q-1.755,1.191-3.562,2.286c-1.309.794-2.628,1.563-3.973,2.287-.366.2-.742.4-1.135.594-.034.018-.079.044-.122.062-2.007,1.055-4.059,2.043-6.145,2.941-.079.035-.166.07-.244.105-1.048.453-2.1.881-3.152,1.292-.314.112-.62.235-.934.348a1.012,1.012,0,0,1-.157.062c-.244.105-.505.192-.759.288-.166.062-.331.122-.506.184-.114.044-.226.087-.349.131-.1.035-.2.07-.3.105-1.292.453-2.6.881-3.911,1.274-.008,0-.018.008-.027.008-.1.035-.183.053-.279.088-.227.069-.453.131-.681.2a96.405,96.405,0,0,1-8.852-12.144c-4.862-8.249-6.958-16.788-1.537-24.985.157-.236.314-.471.48-.7,0,0,8.058-5.089,11.034-4.731a15.126,15.126,0,0,1,3.344.786c7.936,2.828,12.746,11.872,23.318,21.065C754.458,191.741,759.425,193.636,760.848,194.194Z" transform="translate(-713.05 -169.855)" fill="#ffcc7b"/><path d="M717.926,187.012a28.076,28.076,0,0,0,8.887,21.537c-.008,0-.018.008-.027.008-.1.035-.183.053-.279.088-.227.069-.453.131-.681.2-.62.174-1.231.348-1.859.515-.794.209-1.6.418-2.4.611a22.282,22.282,0,0,1-4.592-13.27A41.5,41.5,0,0,1,717.926,187.012Z" transform="translate(-712.233 -166.27)" fill="#e8a749"/><path d="M752.9,190.107c-.018-.01-.045-.018-.08-.035.018-.01.018-.018.027-.027A.4.4,0,0,0,752.9,190.107Z" transform="translate(-704.74 -165.636)" fill="#e8a749"/></g><g transform="translate(0.358 90.909)"><path d="M747.262,213.172c-1.292.453-2.6.881-3.911,1.274-.008,0-.018.008-.027.008-.1.035-.182.053-.279.088-.227.069-.453.131-.681.2-.62.174-1.231.348-1.859.515-.794.209-1.6.418-2.4.611-1.266.306-2.54.594-3.814.846-.018,0-.035.01-.053.01a93.576,93.576,0,0,1-10.2,1.431c-.576.062-1.135.1-1.711.131-.568.053-1.135.079-1.7.1-.908.06-1.807.079-2.715.1-.192.008-.384.018-.567.008a7.253,7.253,0,0,1-.76.01c-.2.008-.4.017-.611.017-.4,0-.812-.008-1.214-.017-2.244-.027-4.486-.14-6.722-.324-.261-.025-.532-.044-.794-.079-2.89-.261-5.762-.663-8.643-1.2-.218-.044-.445-.087-.672-.131l-.6-.105a2.106,2.106,0,0,0-.218-.052c-.341-.07-.672-.14-1.03-.219-.1-.017-.192-.044-.289-.06-.4-.088-.794-.175-1.2-.271a91.513,91.513,0,0,1-10.083-2.96c-.244-.087-.49-.175-.725-.262-.348-.122-.689-.253-1.03-.383-1.039-.393-2.077-.8-3.107-1.24l-.053-.025c-.515-.2-1.02-.42-1.535-.655-.123-.052-.236-.105-.349-.166-.289-.132-.577-.254-.856-.393-.463-.2-.925-.411-1.38-.62-.418-.209-.829-.41-1.239-.611l-1.022-.523a2.049,2.049,0,0,1-.192-.1c-.393-.192-.786-.41-1.169-.611a.389.389,0,0,1-.114-.062,1.07,1.07,0,0,1-.167-.1c-.41-.21-.811-.428-1.213-.647-.236-.131-.472-.262-.707-.4-.542-.306-1.092-.62-1.632-.943-.227-.139-.463-.271-.69-.418a2.426,2.426,0,0,1-.262-.157c-.331-.2-.662-.4-.987-.6l-.418-.261c-.14-.087-.288-.184-.428-.271-.341-.219-.689-.445-1.022-.672-.087-.062-.182-.122-.271-.184l-.079-.052a.067.067,0,0,0-.034-.018,8,8,0,0,1-.725-.5c-.306-.184-.594-.384-.881-.594-.018-.018-.043-.027-.062-.044-.035-.018-.069-.053-.1-.07l-.376-.271c-.122-.087-.244-.166-.358-.244-.192-.14-.384-.271-.567-.4-.027-.008-.044-.035-.062-.052-.733-.525-1.448-1.057-2.147-1.607-.463-.349-.916-.7-1.371-1.057-.542-.436-1.091-.881-1.624-1.327-.079-.069-.166-.139-.253-.209-.751-.619-1.493-1.266-2.209-1.93-.577-.505-1.144-1.03-1.7-1.562-1.493-1.379-2.908-2.8-4.279-4.269-.009-.018-.034-.027-.044-.052-1.047-1.118-2.052-2.252-3.038-3.414-1.413-1.685-2.784-3.4-4.077-5.177-.724-.995-1.431-2-2.121-3.02a19.855,19.855,0,0,1,3.963-3.693c4.374-3.16,10.7-5.326,19.634-5.953,9.446-.672,15.818-5.125,23.605-7.29.4-.114.8-.227,1.214-.314a29.062,29.062,0,0,1,4.313-.733,28.675,28.675,0,0,1,4.767-.088l20.489,4.889.017.008a13.284,13.284,0,0,0,1.162.647c.5.261,1.022.5,1.58.724,7.717,3.108,20.681,3.727,28.267,7.849a13.142,13.142,0,0,1,3.99,3.125C757.424,184.092,749.864,203.935,747.262,213.172Z" transform="translate(-637.824 -158.794)" fill="#ffcc7b"/></g><g transform="translate(43.909)"><g transform="translate(1.524 51.508)"><path d="M708.159,162.612l-17.888-3.442c-5.063-2.3-6.421-3.679-10.664-.837-15.722,10.529,14.2,36.161,22.006,37.758C715.267,198.882,718.556,171.071,708.159,162.612Z" transform="translate(-675.108 -119.822)" fill="#fff"/><path d="M707.729,163.021l-17.888-7.637c-5.063-2.3-11.746,2.31-12.573,7.351-1.614,9.846,16.106,27.975,23.915,29.572C714.837,195.1,711.83,170.084,707.729,163.021Z" transform="translate(-674.678 -120.232)" fill="#fba479"/><g transform="translate(4.499)"><path d="M710.09,140.516l-3.177,33.423-28.083-9.226s3-19.67,7.22-37.122C687.667,120.909,710.09,140.516,710.09,140.516Z" transform="translate(-678.829 -126.203)" fill="#fba479"/><path d="M708.7,145.9l-1.858,19.533c-12.359,3.209-21.277-13.849-23.419-19.448a17.727,17.727,0,0,1,.1-12.578l19.161,8.428Z" transform="translate(-678.1 -124.698)" fill="#ef7950"/></g></g><g transform="translate(53.028 42.646)"><path d="M718.4,120.584c1.568-2.212,6.454-2.273,8.184-.214,1.925,2.289-2.708,13.207-5.21,13.016C715.564,132.938,718.4,120.584,718.4,120.584Z" transform="translate(-717.709 -118.873)" fill="#fba479"/><path d="M718.389,126.279a18.7,18.7,0,0,1,.058-2.64,12.131,12.131,0,0,1,.3-1.365,2.845,2.845,0,0,1,.243-.689c.873-1.481,2.666-1.388,3.93-1.421a3.743,3.743,0,0,1,1.865.272c.347.236.486.81.669,1.158-.942-1.109-3.229-.733-4.379-.093-1.2.666-1.743,2.746-1.421,4.05a1.938,1.938,0,0,1,1.754,2.225c-.2.991-2.211,1.416-2.453.418C720.7,127.979,719.382,126.5,718.389,126.279Z" transform="translate(-717.571 -118.605)" fill="#ef7950"/></g><path d="M717.581,95.634c.823-.358,3.881-2.986,4.442-2,.655,1.161-1.221,21.307-1.572,27.029-1.822-8.193-5.432-16.173-7.057-24.315Z" transform="translate(-665.583 -81.547)" fill="#261411"/><path d="M680.175,141.606c1.966-14.024,6.161-29.331,8.053-42.82,0,0,12.891-7.239,14.887-7.729a11.388,11.388,0,0,1,7.609.207c1.966.6,14.444,8.528,14.444,8.528,1.153,13.574,3.889,28.186,5.089,42.295.488,5.752-.288,12.6-4.832,16.553-6.542,5.686-2.52,13.506-12.624,13.23-14.866-.405-23.476-12.665-27.519-18.03C681.658,149.034,679.373,147.322,680.175,141.606Z" transform="translate(-672.558 -82.156)" fill="#fba479"/><path d="M688.982,121.548v.025l0,.012c.048.1.1.191.16.283,1.924,2.941,9.235,2.57,11.241.528-2.631-2.231-2.083-6-5-6.024A6.417,6.417,0,0,0,688.982,121.548Z" transform="translate(-670.684 -76.75)" fill="#ef7950"/><path d="M688.981,121.243s4.242,8.735,11.493,1.1c-2.882-2.211-3.395-4.344-6.36-4.395-3.131-.052-4.525.127-4.973,1.982l0,.016a6.329,6.329,0,0,0-.15,1.184C688.983,121.166,688.982,121.2,688.981,121.243Z" transform="translate(-670.685 -76.423)" fill="#ef7950"/><path d="M710.335,123.192a6.22,6.22,0,0,0,4.253,1.153,7.738,7.738,0,0,0,4.011-1.162,3.44,3.44,0,0,0,1.381-1.758l.019-.053a7.376,7.376,0,0,0-1.4-2.639,5.321,5.321,0,0,0-3.858-1.992,4.644,4.644,0,0,0-.8.023C711.453,117.052,712.341,120.739,710.335,123.192Z" transform="translate(-666.222 -76.675)" fill="#ef7950"/><path d="M720.008,121.084s-2.667,9.052-9.711,2.1c2.222-2.451,2.426-4.612,4.958-4.924,2.674-.326,3.886-.271,4.472,1.534l0,.016a7.4,7.4,0,0,1,.258,1.163A1.032,1.032,0,0,1,720.008,121.084Z" transform="translate(-666.23 -76.389)" fill="#ef7950"/><g transform="translate(35.872 56.073)"><path d="M713.456,129.991a1.609,1.609,0,0,1,1.932,1.277c.29,1.722-2.552,2.4-3.843,2.908a9.025,9.025,0,0,1-8.026-.752A11.626,11.626,0,0,0,713.456,129.991Z" transform="translate(-703.518 -129.979)" fill="#ef7950"/></g><g transform="translate(21.372 58.101)"><path d="M691.954,132.563c.665,3.9,5.27,13.475,10.916,15.3,4.357,1.407,12.211-3.634,14.823-5.438-1.76-.393-4.831-1.363-6.35-1.851C709.638,140.02,695.883,135.523,691.954,132.563Z" transform="translate(-691.435 -131.468)" fill="#60281f"/><g transform="translate(2.528 1.83)"><path d="M715.513,141.37l-.274.293c-.151.16-.3.317-.462.478a9.058,9.058,0,0,1-3.485,2.409c-.048.012-.093.021-.141.03-1.9.293-8.574-2.2-12.8-4.056a25.56,25.56,0,0,1-3.424-1.706l-.018-.012a.777.777,0,0,1-.121-.106c-.964-1.15-1.085-3.554-1.175-5.529,4.395,2.379,13.27,5.544,19.159,7.377.794.248,1.531.471,2.2.665C715.16,141.268,715.341,141.318,715.513,141.37Z" transform="translate(-693.616 -133.171)" fill="#fff"/><path d="M715.036,140.707c-.151.16-.3.317-.462.478a8.305,8.305,0,0,1-3.485,2.409c-.048.012-.093.021-.141.03-1.9.293-8.574-2.2-12.8-4.056a25.562,25.562,0,0,1-3.424-1.706l-.018-.012a1.437,1.437,0,0,0-.121-.106c1.671.517,14.84,4.875,15.489,4.8.434-.047.4-.057.73-.444a17.337,17.337,0,0,0,1.764-2.506c.794.248,1.531.471,2.2.665Z" transform="translate(-693.413 -132.215)" fill="#e8e6e6"/></g><path d="M715.952,141.687c-.175-.044-.341-.1-.525-.148-.008,0-.008-.008-.017-.008-.184-.053-.366-.105-.55-.167l-.1-.025a1.566,1.566,0,0,1-.192-.053c-.07-.025-.14-.044-.219-.069-.183-.053-.366-.114-.559-.167l-.585-.183-1.144-.358c-.192-.062-.383-.122-.584-.192-.4-.122-.8-.262-1.222-.4h-.018c-.2-.07-.41-.14-.62-.21l-.157-.052c-.157-.052-.314-.105-.47-.166a.853.853,0,0,1-.14-.044c-.166-.053-.331-.114-.507-.166-.218-.08-.428-.149-.646-.227s-.436-.149-.655-.227a1.935,1.935,0,0,0-.209-.07l-.209-.079h-.008l-.01-.008c-.069-.025-.149-.052-.227-.079-.366-.122-.733-.262-1.1-.393-.132-.044-.254-.1-.384-.139-.157-.053-.314-.114-.471-.175-.227-.079-.463-.166-.7-.253-.131-.053-.261-.1-.383-.149-.088-.027-.167-.062-.245-.087-.166-.062-.323-.122-.48-.184h-.008c-.174-.07-.349-.131-.515-.2-.114-.035-.218-.079-.331-.122s-.21-.087-.324-.131c-.751-.289-1.483-.577-2.191-.874-.1-.044-.192-.077-.3-.121s-.2-.088-.3-.123c-.393-.166-.768-.331-1.135-.488-.384-.166-.759-.331-1.109-.5-.182-.077-.349-.157-.515-.235-.149-.07-.288-.14-.418-.2-.027-.017-.053-.025-.079-.044a.266.266,0,0,1-.079-.035c-.455-.218-.883-.436-1.266-.646a7.657,7.657,0,0,1-2.523-1.833,5.759,5.759,0,0,0,.174,1.632A26.119,26.119,0,0,0,694,139.225a28.8,28.8,0,0,0,3.466,5.255,12.5,12.5,0,0,0,5.359,3.99,5.284,5.284,0,0,0,.69.166,6.805,6.805,0,0,0,1.135.1,9.922,9.922,0,0,0,1.911-.2h.008v-.008a17.114,17.114,0,0,0,2.873-.839,45.846,45.846,0,0,0,9.481-5.334A15.543,15.543,0,0,1,715.952,141.687Zm-.332,2.349c-.079.044-.149.087-.227.131-.122.079-.253.157-.383.236-.769.463-1.624.943-2.523,1.415-.244.131-.5.253-.751.376-.209.1-.419.209-.629.3-.244.114-.488.227-.742.332q-.314.143-.629.261c-.035.018-.069.027-.1.044l-.053.027-.629.236c-.226.087-.453.157-.681.236-.044.017-.1.027-.139.044a14.815,14.815,0,0,1-1.52.393H706.6c-.174.035-.341.07-.515.1a6.734,6.734,0,0,1-.724.1,6.252,6.252,0,0,1-.7.035c-.157,0-.306-.008-.453-.018h-.062l-.227-.025c-.017,0-.027-.008-.044-.008a.692.692,0,0,1-.131-.018h-.027a.128.128,0,0,1-.06-.008h-.01c-.1-.018-.191-.035-.288-.062a.15.15,0,0,1-.06-.008c-.114-.035-.227-.062-.341-.1-.192-.07-.384-.14-.577-.219-.017-.008-.025-.008-.044-.017a.633.633,0,0,1-.114-.045.3.3,0,0,0-.1-.052c-.044-.017-.079-.035-.114-.052-.008,0-.008-.008-.018-.008-.079-.045-.166-.079-.244-.122l-.236-.132-.236-.131c-.087-.062-.166-.114-.253-.166-.07-.044-.14-.088-.209-.14-.157-.105-.314-.209-.463-.331a.143.143,0,0,1-.044-.035.344.344,0,0,0-.087-.062c-.035-.025-.07-.052-.1-.069-.07-.062-.139-.123-.209-.175-.018-.017-.035-.025-.053-.044-.218-.174-.418-.358-.619-.55l-.053-.052a3.455,3.455,0,0,1-.253-.244c-.079-.079-.166-.157-.244-.245l-.114-.112c-.062-.07-.122-.14-.192-.21-.139-.147-.279-.3-.41-.453-.07-.079-.14-.157-.21-.244A25.408,25.408,0,0,1,696,141.765c-.1-.148-.192-.3-.279-.445s-.184-.3-.279-.445-.184-.306-.271-.453c-.175-.3-.341-.595-.5-.9a.008.008,0,0,1-.009-.008h-.008c-.341-.62-.647-1.24-.935-1.851-.079-.192-.166-.376-.244-.568-.044-.087-.079-.183-.122-.271,0-.008-.008-.008-.008-.017a2.774,2.774,0,0,1-.114-.279,2.5,2.5,0,0,1-.114-.271c-.062-.14-.114-.271-.157-.4s-.1-.262-.149-.393v-.008c-.111-.289-.2-.574-.289-.852-.04-.127-.094-.266-.129-.388-.018-.079-.044-.157-.062-.226s-.044-.149-.07-.219c-.008-.027-.008-.044-.017-.07-.027-.112-.062-.236-.087-.34s-.043-.219-.07-.323-.035-.192-.052-.28v-.008h.008v.008c.06.045.122.088.192.132s.122.1.191.149h.01c.069.044.139.1.218.139.149.1.306.192.48.3.149.088.3.175.455.262s.314.184.48.271h.008c.062.035.132.07.192.1.184.1.366.191.559.278a2.7,2.7,0,0,0,.358.184c.105.053.2.1.306.149s.2.1.306.14c.114.06.227.112.34.166.227.105.463.209.7.314.122.052.244.1.358.157.244.1.49.209.734.323.611.253,1.239.515,1.876.768.3.122.6.236.9.358.358.14.724.289,1.082.428.219.079.436.166.655.244s.445.166.654.244c.079.035.167.062.245.1l.855.314c.122.044.236.087.358.131s.227.088.341.122a.049.049,0,0,0,.035.01c.174.069.34.122.507.183.044.018.1.035.139.052.244.088.48.167.707.254.008,0,.027.008.349.122.105.035.2.07.306.105.008,0,.017.008.025.008.167.052.314.114.463.166h.008c.07.027.132.044.184.062.209.069.418.139.611.218.1.035.192.062.289.1s.191.062.279.1c.06.017.114.044.174.062a.513.513,0,0,1,.114.035c.087.025.174.06.253.087.132.044.254.087.368.122.838.279,1.44.48,1.719.567.227.07.48.157.769.244.148.044.3.1.453.149.027.008.062.017.1.027.069.025.148.044.226.069h.008c.55.175,1.153.359,1.755.542.218.062.445.132.664.192a1.526,1.526,0,0,0,.2.06h.008a1.985,1.985,0,0,0,.227.062c.069.018.139.044.209.062.219.06.436.122.646.174.245.07.48.131.7.184.14.025.271.06.393.087-.506.349-1.2.812-2.035,1.336A1.165,1.165,0,0,1,715.62,144.036Z" transform="translate(-691.525 -131.657)" fill="#ef7950"/></g><path d="M707.924,106.774c.522-.01,1.508.037,1.508.037l1.2,1.9s.144-1.659.427-1.62c7.439,1,9.133,6.325,9.133,6.325a19.781,19.781,0,0,0-6.187-2.043c-2.837-.389-4.506.047-5.926,1.325A30.476,30.476,0,0,1,707.924,106.774Z" transform="translate(-666.743 -78.756)" fill="#261411"/><path d="M698.976,102.139c-.516.085-1.477.3-1.477.3l-.847,2.081s-.435-1.608-.706-1.52c-7.144,2.3-7.868,7.846-7.868,7.846a19.758,19.758,0,0,1,5.728-3.109c2.723-.887,4.443-.752,6.067.254A30.384,30.384,0,0,0,698.976,102.139Z" transform="translate(-670.873 -79.725)" fill="#261411"/><g transform="translate(18.294 33.922)"><path d="M688.979,121.573l.009.012a3.29,3.29,0,0,0,.182.283c2.211,2.941,10.61,2.57,12.916.528-3.024-2.231-2.394-6-5.744-6.024a7.205,7.205,0,0,0-7.358,5.176A.156.156,0,0,0,688.979,121.573Z" transform="translate(-688.979 -110.673)" fill="#fff"/><g transform="translate(2.306 5.56)"><path d="M690.888,120.566c.065,2.341,1.548,4.207,3.308,4.171s3.136-1.967,3.07-4.309-1.549-4.207-3.309-4.171S690.822,118.223,690.888,120.566Z" transform="translate(-690.886 -116.257)" fill="#6d4a44"/><path d="M691.749,120.481c.042,1.5.993,2.7,2.122,2.678s2.013-1.262,1.971-2.766-.993-2.7-2.123-2.675S691.707,118.979,691.749,120.481Z" transform="translate(-690.706 -115.951)" fill="#44322e"/><path d="M693.784,118.9l3.62-1.5s.972,1.759.531,2.154C697.2,120.214,693.784,118.9,693.784,118.9Z" transform="translate(-690.281 -116.017)" fill="#fff"/></g><path d="M689.169,122.853c.95,1.46,5.623,7.58,13.017.8-.485-5.478-2.824-11.944-6.232-12-3.143-.044-5.961,5.093-6.786,9.584-.006,0-.006.012-.006.016-.07.4-.129.8-.172,1.184a.557.557,0,0,0-.007.092,7.205,7.205,0,0,1,7.358-5.176c3.35.029,2.72,3.794,5.744,6.024C699.779,125.424,691.38,125.795,689.169,122.853Z" transform="translate(-688.978 -111.658)" fill="#ef7950"/></g><g transform="translate(40.641 34.757)"><path d="M711.292,113.21s-1.124,7.039-1.593,9.367a22.16,22.16,0,0,0-.508,8.682C706.852,128.632,706.306,119.51,711.292,113.21Z" transform="translate(-707.463 -112.168)" fill="#ef7950"/><path d="M709.808,123.083a6.222,6.222,0,0,0,4.253,1.153,7.739,7.739,0,0,0,4.011-1.162,3.44,3.44,0,0,0,1.381-1.758c.006-.017.014-.037.019-.054a7.4,7.4,0,0,0-1.4-2.638,5.327,5.327,0,0,0-3.859-1.994,4.775,4.775,0,0,0-.8.024C710.926,116.941,711.814,120.628,709.808,123.083Z" transform="translate(-706.973 -111.454)" fill="#fff"/><g transform="translate(4.101 4.228)"><path d="M710.871,120.485c.166,2.452,1.6,4.352,3.205,4.245s2.773-2.185,2.608-4.635-1.6-4.355-3.205-4.245S710.705,118.033,710.871,120.485Z" transform="translate(-710.855 -115.845)" fill="#6d4a44"/><path d="M711.731,120.01c.106,1.574,1.028,2.794,2.056,2.724s1.781-1.4,1.674-2.975-1.028-2.793-2.058-2.724S711.624,118.437,711.731,120.01Z" transform="translate(-710.674 -115.597)" fill="#44322e"/><path d="M713.565,118.432l3.5-1.078s.608,1.957.15,2.309C716.455,120.25,713.565,118.432,713.565,118.432Z" transform="translate(-710.289 -115.53)" fill="#fff"/></g><path d="M709.786,124.25c6.721,6.636,9.458-1.3,9.69-2.041a3.44,3.44,0,0,1-1.381,1.758,7.739,7.739,0,0,1-4.011,1.162,6.222,6.222,0,0,1-4.253-1.153c2.006-2.454,1.118-6.142,3.61-6.428a4.775,4.775,0,0,1,.8-.024,5.327,5.327,0,0,1,3.859,1.994,7.4,7.4,0,0,1,1.4,2.638,1.143,1.143,0,0,0-.018-.117c-.074-.381-.162-.766-.255-1.162,0,0,0-.012-.009-.016-.44-4.9-4.682-8.783-7.019-8.5C709.664,112.673,709.544,118.768,709.786,124.25Z" transform="translate(-706.996 -112.348)" fill="#ef7950"/></g><path d="M684.954,96.889c.642-1.106,17.184-16,48.311-12.856,3.5.354-3.221,10.449-3.221,10.449-3.108,6.49-9.5,11.1-10.554,10.968-.844-.109-18.079-8.533-18.915-8.815-12.8,4.916-17.859,35.452-18.658,36.239C682.065,129.471,678.372,108.236,684.954,96.889Z" transform="translate(-672.349 -83.599)" fill="#261411"/><g transform="translate(0 39.108)"><path d="M682.923,117.121c-2.1-2.084-7.358-1.236-8.83,1.3-1.639,2.819,5.378,13.682,8.03,13.009C688.281,129.862,682.923,117.121,682.923,117.121Z" transform="translate(-673.847 -115.947)" fill="#fba479"/><path d="M683.629,123.265a20.043,20.043,0,0,0-.556-2.825,13.657,13.657,0,0,0-.582-1.411,3.274,3.274,0,0,0-.388-.694c-1.216-1.429-3.125-.994-4.49-.791a4.077,4.077,0,0,0-1.953.64c-.33.32-.371.964-.5,1.371.8-1.367,3.333-1.39,4.687-.92,1.411.493,2.387,2.623,2.283,4.085a2.112,2.112,0,0,0-1.468,2.718c.4,1.029,2.64,1.106,2.713-.01C681.47,125.522,682.6,123.691,683.629,123.265Z" transform="translate(-673.573 -115.66)" fill="#ef7950"/></g><path d="M696.293,145.446c2.573.834,6.376,2.372,7.551,4.819l.533-2.569C702.137,146.209,698.954,146,696.293,145.446Z" transform="translate(-669.156 -70.674)" fill="#ef7950"/></g><g transform="translate(0 103.165)"><path d="M663.316,192.65a69.191,69.191,0,0,1-1.038,6.862c-.018-.018-.044-.027-.062-.044-.035-.018-.069-.053-.1-.07l-.376-.271c-.122-.087-.244-.166-.358-.244-.192-.14-.384-.271-.567-.4-.027-.008-.044-.035-.062-.052-.733-.525-1.448-1.057-2.147-1.607-.463-.349-.916-.7-1.371-1.057-.542-.436-1.091-.881-1.624-1.327-.079-.069-.166-.139-.253-.209-.751-.619-1.493-1.266-2.209-1.93-.577-.505-1.144-1.03-1.7-1.562-1.493-1.379-2.908-2.8-4.279-4.269-.008-.018-.034-.027-.044-.052-1.047-1.118-2.052-2.252-3.038-3.414-1.413-1.685-2.784-3.4-4.077-5.177-.724-.995-1.431-2-2.121-3.02-.122-.175-.236-.349-.358-.523a33.271,33.271,0,0,1,4.321-3.17,24.354,24.354,0,0,1,4.443-2.182h7.081c.253.14.5.279.733.428C662.495,174.474,664.224,183.109,663.316,192.65Z" transform="translate(-637.528 -168.931)" fill="#ffcc7b"/><path d="M661.691,198.879c-.341-.219-.689-.445-1.022-.672-.087-.062-.182-.122-.271-.184l-.079-.052a.067.067,0,0,0-.034-.018,8,8,0,0,1-.725-.5c-.306-.184-.594-.384-.881-.594-.018-.018-.043-.027-.062-.044-.035-.018-.069-.053-.1-.07l-.376-.271c-.122-.087-.244-.166-.358-.244a28.466,28.466,0,0,0-3.038-14.623A41.594,41.594,0,0,1,659.718,190,23.069,23.069,0,0,1,661.691,198.879Z" transform="translate(-633.931 -166.281)" fill="#e8a749"/></g></g></g></svg>