<svg id="evaluacion" xmlns="http://www.w3.org/2000/svg" width="109.272" height="109.272" viewBox="0 0 109.272 109.272">
  <g id="Grupo_944695" data-name="Grupo 944695" transform="translate(1.762 1.762)">
    <g id="Grupo_944681" data-name="Grupo 944681" transform="translate(81.073 65.211)">
      <path id="Trazado_634469" data-name="Trazado 634469" d="M71.674,46.812V78.536H66.387L47,50.337,61.1,38Z" transform="translate(-47 -38)" fill="#ff826e"/>
    </g>
    <g id="Grupo_944682" data-name="Grupo 944682" transform="translate(5.287 91.648)">
      <path id="Trazado_634470" data-name="Trazado 634470" d="M24.709,63.575l.441,3.525H4L5.762,53H23.387Z" transform="translate(-4 -53)" fill="#ff826e"/>
    </g>
    <g id="Grupo_944683" data-name="Grupo 944683" transform="translate(7.05 7.05)">
      <path id="Trazado_634471" data-name="Trazado 634471" d="M12.05,29.674V58.737a4.451,4.451,0,0,0,.352,1.727l2.485,5.8A31.019,31.019,0,0,1,6.3,50.33l-.687-3.437A3.785,3.785,0,0,0,5,45.448V8.525A3.535,3.535,0,0,1,8.525,5H68.448a3.535,3.535,0,0,1,3.525,3.525V38.557a6.309,6.309,0,0,0-3.631,1.8l-.793.793a4.622,4.622,0,0,0-2.626-.9V20.862A1.768,1.768,0,0,0,63.161,19.1H13.812a1.768,1.768,0,0,0-1.762,1.762Z" transform="translate(-5 -5)" fill="#969faa"/>
    </g>
    <g id="Grupo_944684" data-name="Grupo 944684" transform="translate(24.674 74.252)">
      <path id="Trazado_634472" data-name="Trazado 634472" d="M16.41,60.525H55.536A1.768,1.768,0,0,0,57.3,58.763V43.148l.018-.018a19.284,19.284,0,0,0,7.032,2.415V67.575A3.535,3.535,0,0,1,60.824,71.1h-44.5L15,60.525l.194-.493Z" transform="translate(-15 -43.13)" fill="#969faa"/>
    </g>
    <g id="Grupo_944685" data-name="Grupo 944685" transform="translate(14.1 21.149)">
      <path id="Trazado_634473" data-name="Trazado 634473" d="M60.111,83.5H9V14.762A1.763,1.763,0,0,1,10.762,13H60.111a1.763,1.763,0,0,1,1.762,1.762V81.736A1.763,1.763,0,0,1,60.111,83.5Z" transform="translate(-9 -13)" fill="#69d6f4"/>
    </g>
    <g id="Grupo_944686" data-name="Grupo 944686" transform="translate(45.824 70.498)">
      <path id="Trazado_634474" data-name="Trazado 634474" d="M41.1,42.762V53.337A1.768,1.768,0,0,1,39.337,55.1H28.762A1.768,1.768,0,0,1,27,53.337V42.762A1.768,1.768,0,0,1,28.762,41H39.337A1.768,1.768,0,0,1,41.1,42.762Z" transform="translate(-27 -41)" fill="#e6e9ed"/>
    </g>
    <g id="Grupo_944687" data-name="Grupo 944687" transform="translate(45.824 49.349)">
      <path id="Trazado_634475" data-name="Trazado 634475" d="M36.57,29l4.547,3.983a4.91,4.91,0,0,0-2.08-.458,4.994,4.994,0,0,0-4.988,4.988v.159A4.934,4.934,0,0,0,35.3,40.985L37.187,43.1H28.762A1.768,1.768,0,0,1,27,41.337V30.762A1.768,1.768,0,0,1,28.762,29h7.79Z" transform="translate(-27 -29)" fill="#e6e9ed"/>
    </g>
    <g id="Grupo_944688" data-name="Grupo 944688" transform="translate(45.824 28.199)">
      <path id="Trazado_634476" data-name="Trazado 634476" d="M31.582,28.632A3.81,3.81,0,0,0,30.525,31.1H28.762A1.768,1.768,0,0,1,27,29.337V18.762A1.768,1.768,0,0,1,28.762,17H39.337A1.768,1.768,0,0,1,41.1,18.762V29.337a1.774,1.774,0,0,1-1.357,1.727l-2.89-2.573a3.709,3.709,0,0,0-2.415-.916h-.282a3.668,3.668,0,0,0-2.573,1.057Z" transform="translate(-27 -17)" fill="#e6e9ed"/>
    </g>
    <g id="Grupo_944689" data-name="Grupo 944689" transform="translate(49.349 38.774)">
      <path id="Trazado_634477" data-name="Trazado 634477" d="M49.251,27.424l.793-.793a6.309,6.309,0,0,1,3.631-1.8,4.953,4.953,0,0,1,.881-.07,6.376,6.376,0,0,1,4.512,1.868l2.309,2.309A59.725,59.725,0,0,1,74.084,47.71l.74,1.727-14.1,12.337-6.856-.864c-.07,0-.123-.018-.194-.018a19.284,19.284,0,0,1-7.032-2.415,18.5,18.5,0,0,1-4.864-3.913l-6.116-6.891-1.886-2.115a4.934,4.934,0,0,1-1.251-3.313v-.159A4.994,4.994,0,0,1,37.513,37.1a4.91,4.91,0,0,1,2.08.458l-4.547-3.983h-.018L30.234,29.38A3.713,3.713,0,0,1,29,26.631v-.106a3.81,3.81,0,0,1,1.057-2.467A3.668,3.668,0,0,1,32.631,23h.282a3.709,3.709,0,0,1,2.415.916l2.89,2.573,3.543,3.137,1.851-1.851a4.241,4.241,0,0,1,3.014-1.251,4.622,4.622,0,0,1,2.626.9Z" transform="translate(-29 -23)" fill="#f0d0b4"/>
    </g>
    <g id="Grupo_944690" data-name="Grupo 944690" transform="translate(0 45.824)">
      <path id="Trazado_634478" data-name="Trazado 634478" d="M17.937,49.489l-2.485-5.8a4.451,4.451,0,0,1-.352-1.727v-.035a4.333,4.333,0,0,1,4.353-4.353,4.347,4.347,0,0,1,3.9,2.415l.564,1.11,2.256,4.494A28.639,28.639,0,0,1,29.005,55.2a28.967,28.967,0,0,1,.194,3.278,28.855,28.855,0,0,1-2.062,10.68L25.868,72.33l-.194.493H8.05A116.937,116.937,0,0,1,1,32.816V30.877A3.851,3.851,0,0,1,4.877,27,3.821,3.821,0,0,1,8.05,28.674a3.785,3.785,0,0,1,.617,1.445l.687,3.437A31.019,31.019,0,0,0,17.937,49.489Z" transform="translate(-1 -27)" fill="#f0d0b4"/>
    </g>
    <g id="Grupo_944691" data-name="Grupo 944691" transform="translate(84.598 28.199)">
      <path id="Trazado_634479" data-name="Trazado 634479" d="M59.575,17v5.287a5.287,5.287,0,0,1-10.575,0V17H59.575Z" transform="translate(-49 -17)" fill="#ccd1d9"/>
    </g>
    <g id="Grupo_944692" data-name="Grupo 944692" transform="translate(74.023)">
      <path id="Trazado_634480" data-name="Trazado 634480" d="M60.942,1H56.782a13.785,13.785,0,0,0-7.649,25.238L53.575,29.2H64.149l4.441-2.961A13.777,13.777,0,0,0,60.942,1Z" transform="translate(-43 -1)" fill="#ffeaa7"/>
    </g>
    <g id="Grupo_944693" data-name="Grupo 944693" transform="translate(92 10.575)">
      <path id="Trazado_634481" data-name="Trazado 634481" d="M56.549,14.05h-3l-.335-3.366a2.133,2.133,0,0,1-.018-.335,3.349,3.349,0,0,1,6.7,0V10.7a3.347,3.347,0,0,1-3.349,3.349Z" transform="translate(-53.2 -7)" fill="#fcd770"/>
    </g>
    <g id="Grupo_944694" data-name="Grupo 944694" transform="translate(81.073 10.575)">
      <path id="Trazado_634482" data-name="Trazado 634482" d="M50.349,7a3.354,3.354,0,0,1,3.331,3.684l-.335,3.366h-3A3.347,3.347,0,0,1,47,10.7v-.352A3.347,3.347,0,0,1,50.349,7Z" transform="translate(-47 -7)" fill="#fcd770"/>
    </g>
  </g>
  <g id="Grupo_944696" data-name="Grupo 944696" transform="translate(0)">
    <path id="Trazado_634483" data-name="Trazado 634483" d="M20,8H34.1v3.525H20Z" transform="translate(15.249 6.1)"/>
    <path id="Trazado_634484" data-name="Trazado 634484" d="M12,18h7.05v3.525H12Z" transform="translate(9.149 13.724)"/>
    <path id="Trazado_634485" data-name="Trazado 634485" d="M18,18H28.575v3.525H18Z" transform="translate(13.724 13.724)"/>
    <path id="Trazado_634486" data-name="Trazado 634486" d="M12,22H29.625v3.525H12Z" transform="translate(9.149 16.774)"/>
    <path id="Trazado_634487" data-name="Trazado 634487" d="M12,30h7.05v3.525H12Z" transform="translate(9.149 22.874)"/>
    <path id="Trazado_634488" data-name="Trazado 634488" d="M18,30H28.575v3.525H18Z" transform="translate(13.724 22.874)"/>
    <path id="Trazado_634489" data-name="Trazado 634489" d="M97.813,64.55A61.369,61.369,0,0,0,84.734,45.23l-2.309-2.309a8.058,8.058,0,0,0-4.878-2.3V25.353a15.552,15.552,0,0,0,3.394,3.114L84.6,30.9v4.344a7.05,7.05,0,1,0,14.1,0V30.9l3.655-2.437A15.538,15.538,0,0,0,93.734,0H89.563A15.546,15.546,0,0,0,75.77,8.412,5.247,5.247,0,0,0,72.261,7.05H12.337A5.294,5.294,0,0,0,7.05,12.337V46.027a5.543,5.543,0,0,0-1.413-.2A5.644,5.644,0,0,0,0,51.46v1.933a118.509,118.509,0,0,0,7.013,40.2l-1.96,15.679H30.2l-.441-3.525H72.261a5.294,5.294,0,0,0,5.287-5.287V80.426l4.285.536,19.463,28.31h7.977V74.959l-10.883-9.07ZM82.241,47.722A57.867,57.867,0,0,1,94.573,65.939l.236.552L82.268,77.463l-6.075-.76a17.623,17.623,0,0,1-10.987-5.779l-7.994-8.994A3.347,3.347,0,0,1,56.4,59.62a3.224,3.224,0,0,1,5.5-2.279l5.589,5.591,2.492-2.492-5.59-5.591a6.726,6.726,0,0,0-1.609-1.156l-9.271-8.111A1.875,1.875,0,0,1,54.747,42.3h.268a1.877,1.877,0,0,1,1.246.474L71.09,55.954l2.342-2.633-7-6.223.541-.545a2.55,2.55,0,0,1,3.525,0l4.041,4.041L77.032,48.1l-3.109-3.109a4.735,4.735,0,0,1,6.01.421ZM31.21,84.6H42.3V81.073H31.629c.044-.672.1-1.341.1-2.018,0-.5-.019-1-.044-1.507H42.3V74.023h-11a30.734,30.734,0,0,0-2.8-8.629l-.973-1.946H38.774V59.923H25.764l-.072-.143A6.063,6.063,0,0,0,17.625,57V24.674H66.973V42.634a5.732,5.732,0,0,0-2.492,1.428l-.689.689-.8-.712a3.526,3.526,0,0,0,.456-1.74V31.724A3.528,3.528,0,0,0,59.923,28.2H49.349a3.528,3.528,0,0,0-3.525,3.525V42.3a3.528,3.528,0,0,0,3.525,3.525h.289a5.381,5.381,0,0,0,1.553,2.413l1.272,1.112H49.349a3.528,3.528,0,0,0-3.525,3.525V63.448a3.528,3.528,0,0,0,3.525,3.525h7.63l3.151,3.546c-.069,0-.136-.021-.206-.021H49.349a3.528,3.528,0,0,0-3.525,3.525V84.6a3.528,3.528,0,0,0,3.525,3.525H59.923A3.528,3.528,0,0,0,63.448,84.6V74.168a21.078,21.078,0,0,0,3.525,2.855V91.648H29.04l.5-1.25a30.5,30.5,0,0,0,1.669-5.8ZM49.7,42.3h-.354V31.724H59.923v9.588L58.6,40.14a5.393,5.393,0,0,0-3.588-1.366h-.268A5.4,5.4,0,0,0,49.7,42.3ZM53.97,63.448H49.349V52.874H56.49l.583.509a6.861,6.861,0,0,0-4.2,6.408,6.723,6.723,0,0,0,1.1,3.657ZM59.925,84.6H49.349V74.023H59.923Zm27.66-66.973h-1.4A1.589,1.589,0,0,1,84.6,16.038v-.352A1.589,1.589,0,0,1,86.184,14.1a1.585,1.585,0,0,1,1.577,1.743Zm7.947-1.782A1.585,1.585,0,0,1,97.111,14.1,1.589,1.589,0,0,1,98.7,15.686v.352a1.589,1.589,0,0,1-1.586,1.586h-1.4ZM91.648,38.774a3.528,3.528,0,0,1-3.525-3.525V31.724h7.05v3.525A3.528,3.528,0,0,1,91.648,38.774ZM90.07,28.2l.7-7.05H92.52l.7,7.05ZM89.561,3.525h4.172a12.013,12.013,0,0,1,6.664,22.01L96.745,27.97l-.682-6.821h1.049a5.117,5.117,0,0,0,5.111-5.111v-.352a5.111,5.111,0,1,0-10.2.508l.141,1.431h-1.04l.143-1.431a5.111,5.111,0,1,0-10.2-.508v.352a5.116,5.116,0,0,0,5.111,5.111h1.049l-.682,6.821L82.9,25.534a12.013,12.013,0,0,1,6.662-22.01Zm-77.224,7.05H72.261a1.764,1.764,0,0,1,1.762,1.762V41.009A8.086,8.086,0,0,0,71.055,42.8c-.182-.072-.37-.111-.557-.166V24.674a3.528,3.528,0,0,0-3.525-3.525H17.625A3.528,3.528,0,0,0,14.1,24.674v35.88A29.2,29.2,0,0,1,11.853,53.8l-.689-3.446a5.6,5.6,0,0,0-.589-1.574V12.337a1.764,1.764,0,0,1,1.762-1.762ZM3.525,51.46a2.112,2.112,0,0,1,4.182-.414L8.4,54.492A32.62,32.62,0,0,0,17.21,71.064l.768,1.792a6.728,6.728,0,0,1-.167,5.666L20.964,80.1a10.24,10.24,0,0,0,.254-8.629l-3.382-7.891a2.631,2.631,0,0,1-.211-1.063,2.594,2.594,0,0,1,4.914-1.161l2.808,5.615A27.153,27.153,0,0,1,28.2,79.055a26.883,26.883,0,0,1-1.933,10.034l-1.022,2.559H10.076A114.963,114.963,0,0,1,3.525,53.394Zm5.522,54.287,1.322-10.575H24.881L26.2,105.747Zm63.214-3.525H29.315l-.881-7.05h38.54A3.528,3.528,0,0,0,70.5,91.648V78.831A21.1,21.1,0,0,0,74.023,79.9V100.46A1.764,1.764,0,0,1,72.261,102.222Zm33.487,3.525h-2.6L85.176,79.6,96.963,69.289l8.784,7.323Z" transform="translate(0)"/>
  </g>
</svg>
