<svg xmlns="http://www.w3.org/2000/svg" width="109.093" height="109.092" viewBox="0 0 109.093 109.092"><g transform="translate(0 -0.001)"><path d="M397.378,382.865a10.5,10.5,0,0,1,.352,10.67,10.682,10.682,0,0,1-16.947,2.5q-.31-.31-.588-.639l-9.057-10.406,13.679-13.679,10.4,9.068A11.29,11.29,0,0,1,397.378,382.865Z" transform="translate(-292.058 -292.192)" fill="#91552c"/><path d="M364.1,350.573l-13.679,13.679-5.61-6.447.038-.034,12.805-12.805.006-.006Z" transform="translate(-271.338 -271.457)" fill="#57555c"/><path d="M208.691,29.952a6.392,6.392,0,0,1-9.038,9.04L181.572,20.912a6.392,6.392,0,1,1,9.04-9.038Z" transform="translate(-141.411 -7.869)" fill="#91552c"/><path d="M102.35,75.233l-7.494,7.494c-.015.013-.028.026-.04.038L82.762,94.818c-.013.013-.026.026-.038.04l-7.494,7.494-1.506-1.506L55.643,82.765l-1.506-1.506L81.256,54.14l1.506,1.506,18.081,18.081Z" transform="translate(-42.602 -42.603)" fill="#feb756"/><g transform="translate(2.131 38.291)"><path d="M200.446,191.409l1.506-1.506a4.262,4.262,0,0,0-5.987-6.066l-12.132,12.132a4.262,4.262,0,0,0,6.066,5.987l1.506-1.506,25.775,29.612.038-.034,12.805-12.805.006-.006Z" transform="translate(-145.842 -182.005)" fill="#91552c"/><path d="M65.4,460.507v2.131H10v-2.131a8.523,8.523,0,0,1,8.523-8.523H56.874A8.523,8.523,0,0,1,65.4,460.507Z" transform="translate(-10 -393.969)" fill="#91552c"/><path d="M71.547,401.987a5.327,5.327,0,1,1,0,10.653H35.326a5.327,5.327,0,1,1,0-10.653Z" transform="translate(-25.738 -354.625)" fill="#91552c"/><path d="M38.992,199.656a6.392,6.392,0,0,1-9.04,9.038L11.873,190.616a6.392,6.392,0,0,1,9.038-9.04Z" transform="translate(-10 -179.705)" fill="#91552c"/></g><path d="M101.328,172.043a2.13,2.13,0,1,0,3.013,0A2.128,2.128,0,0,0,101.328,172.043Z" transform="translate(-79.246 -134.894)"/><path d="M53.95,403.862a7.459,7.459,0,0,0-6.01-11.875H11.719a7.452,7.452,0,0,0-6.005,11.872A10.662,10.662,0,0,0,0,413.293v2.131a2.131,2.131,0,0,0,2.131,2.131h55.4a2.131,2.131,0,0,0,2.131-2.131v-2.131A10.662,10.662,0,0,0,53.95,403.862ZM9.458,397.184a3.175,3.175,0,0,1,2.26-.936H47.94a3.2,3.2,0,1,1,0,6.392H11.719a3.2,3.2,0,0,1-2.26-5.456Zm-5.2,16.11a6.4,6.4,0,0,1,6.392-6.392H49a6.4,6.4,0,0,1,6.392,6.392Z" transform="translate(0 -308.465)"/><path d="M107.127,89.518a13.417,13.417,0,0,0-2.566-2.947L94.6,77.887a2.115,2.115,0,0,0-.848-.739L87.736,71.9,59.868,47.587A6.38,6.38,0,0,0,58,37.411l2.578-2.578a8.528,8.528,0,0,0,8.228-2.2,8.521,8.521,0,0,0,0-12.054L50.724,2.5a8.52,8.52,0,0,0-14.256,8.228L10.745,36.449a8.575,8.575,0,0,0-2.206-.289A8.522,8.522,0,0,0,2.513,50.708L20.592,68.787a8.52,8.52,0,0,0,14.256-8.228l2.573-2.573A6.394,6.394,0,0,0,47.6,59.854l29.682,34.1a2.14,2.14,0,0,0,.289.361c.038.038.079.073.119.107l8.845,10.162c.22.26.455.515.7.759a12.673,12.673,0,0,0,9.007,3.746,13.079,13.079,0,0,0,1.793-.124,12.893,12.893,0,0,0,9.512-6.586A12.608,12.608,0,0,0,107.127,89.518ZM76.4,86.451,86.435,76.415l3.219,2.808L79.2,89.673ZM50.623,56.837l6.227-6.227,26.366,23L73.6,83.229ZM41.684,5.511a4.26,4.26,0,0,1,6.027,0L65.789,23.59a4.261,4.261,0,0,1-6.025,6.027L41.685,11.537h0A4.265,4.265,0,0,1,41.684,5.511ZM29.632,65.774a4.267,4.267,0,0,1-6.027,0L5.527,47.7a4.261,4.261,0,0,1,6.024-6.028L29.632,59.749A4.264,4.264,0,0,1,29.632,65.774ZM14.565,38.655,38.67,14.549l18.08,18.08L50.782,38.6l-.059.056L38.677,50.7c-.025.025-.049.05-.074.076l-5.958,5.958Zm28.626,18.7a2.13,2.13,0,0,1-1.533-3.611l12.1-12.1a2.131,2.131,0,0,1,3.615,1.53,2.111,2.111,0,0,1-.625,1.506l-1.492,1.492-.03.03-9.018,9.018-.013.013-1.5,1.5A2.118,2.118,0,0,1,43.191,57.36ZM103.829,100.3a8.667,8.667,0,0,1-6.379,4.446,8.466,8.466,0,0,1-7.2-2.415c-.164-.164-.321-.334-.467-.507l-.021-.024L82.008,92.9,92.873,82.03l8.9,7.759.02.018a9.173,9.173,0,0,1,1.758,2.023A8.413,8.413,0,0,1,103.829,100.3Z" transform="translate(-0.017)"/><path d="M141.663,101.331a2.131,2.131,0,0,0-3.013,0l-9.04,9.04a2.131,2.131,0,0,0,3.013,3.013l9.04-9.04A2.131,2.131,0,0,0,141.663,101.331Z" transform="translate(-101.502 -79.249)"/></g></svg>