<svg xmlns="http://www.w3.org/2000/svg" xmlns:xlink="http://www.w3.org/1999/xlink" width="183.639" height="185.423" viewBox="0 0 183.639 185.423">
  <defs>
    <filter id="Elipse_7683" x="0" y="0" width="183.639" height="185.423" filterUnits="userSpaceOnUse">
      <feOffset dy="3" input="SourceAlpha"/>
      <feGaussianBlur stdDeviation="3" result="blur"/>
      <feFlood flood-opacity="0.161"/>
      <feComposite operator="in" in2="blur"/>
      <feComposite in="SourceGraphic"/>
    </filter>
    <clipPath id="clip-path">
      <rect id="Rectángulo_305743" data-name="Rectángulo 305743" width="119" height="105" transform="translate(275 911)" fill="#fff" stroke="#707070" stroke-width="1"/>
    </clipPath>
  </defs>
  <g id="Grupo_953309" data-name="Grupo 953309" transform="translate(-874.616 -871.009)">
    <g transform="matrix(1, 0, 0, 1, 874.62, 871.01)" filter="url(#Elipse_7683)">
      <ellipse id="Elipse_7683-2" data-name="Elipse 7683" cx="82.819" cy="83.712" rx="82.819" ry="83.712" transform="translate(9 6)" fill="#ffeed9"/>
    </g>
    <g id="Enmascarar_grupo_57" data-name="Enmascarar grupo 57" transform="translate(635 -2)" clip-path="url(#clip-path)">
      <g id="rompecabezas" transform="translate(282.912 916)">
        <path id="Trazado_626677" data-name="Trazado 626677" d="M383.921,352.822V333.856a6.368,6.368,0,0,0-2.715-5.215l-11.966-8.378a4.774,4.774,0,0,0-2.739-.863h-9.635l.159,27.231a6.647,6.647,0,0,0,4.615,6.191h22.281Z" transform="translate(-286.18 -258.924)" fill="#fec9a3"/>
        <path id="Trazado_626678" data-name="Trazado 626678" d="M374.372,441.4h-11.14a6.366,6.366,0,0,1-6.366-6.366V428.67h11.14Z" transform="translate(-286.18 -347.504)" fill="#fabd91"/>
        <path id="Trazado_626679" data-name="Trazado 626679" d="M53.627,19.545a7.938,7.938,0,0,0-3.183.672V8.405H21.8a9.548,9.548,0,0,0-9.549,9.549V46.6H24.06a7.957,7.957,0,1,1,14.572,0H50.444V34.79a7.957,7.957,0,1,0,3.183-15.245Z" transform="translate(-6.814 -6.814)" fill="#88b337"/>
        <path id="Trazado_626680" data-name="Trazado 626680" d="M252.164,17.954a9.548,9.548,0,0,0-9.549-9.549H213.968V20.217a7.957,7.957,0,1,1,0,14.572V46.6h11.812a7.957,7.957,0,1,0,14.572,0h11.812V17.954Z" transform="translate(-170.337 -6.814)" fill="#e8594a"/>
        <path id="Trazado_626681" data-name="Trazado 626681" d="M252.171,63.636c-9.1,12.656-25.52,19.844-38.2,23.713v4.025h11.812a7.957,7.957,0,1,0,14.572,0h11.812V63.636Z" transform="translate(-170.345 -51.587)" fill="#d65245"/>
        <path id="Trazado_626682" data-name="Trazado 626682" d="M47.261,175.092a7.938,7.938,0,0,1,3.183.672v-13.4H38.632a7.957,7.957,0,1,0-14.572,0H12.248v28.647a9.548,9.548,0,0,0,9.549,9.549H50.444V190.337a7.957,7.957,0,1,1-3.183-15.245Z" transform="translate(-6.814 -122.573)" fill="#fdb62f"/>
        <path id="Trazado_626683" data-name="Trazado 626683" d="M12.248,328.572a9.548,9.548,0,0,0,9.549,9.549H50.444V327.9a7.922,7.922,0,0,1-11.112-7,69.608,69.608,0,0,1-27.084,6.024Z" transform="translate(-6.814 -260.138)" fill="#ffa719"/>
        <path id="Trazado_626684" data-name="Trazado 626684" d="M226.072,270.65,216,243.754l-11.059,4.165a7.967,7.967,0,1,1-13.641,5.139l-11.058,4.165,4.711,12.587a7.881,7.881,0,0,0-3.215.49,7.98,7.98,0,0,0,5.594,14.946,7.892,7.892,0,0,0,2.745-1.754l3.59,9.6,26.82-10.1A9.586,9.586,0,0,0,226.072,270.65Z" transform="translate(-140.084 -197.601)" fill="#4398d1"/>
        <path id="Trazado_626685" data-name="Trazado 626685" d="M223.483,312.551c-10.981,16.424-31.567,22.16-43.624,24.135a7.9,7.9,0,0,0,12.826,2.577l3.59,9.6,26.82-10.1a9.588,9.588,0,0,0,5.581-12.334Z" transform="translate(-142.688 -253.371)" fill="#3e8fc9"/>
        <path id="Trazado_626686" data-name="Trazado 626686" d="M53.627,60.231a7.938,7.938,0,0,0-3.183.672V58.593c-11.917,10.97-28.063,17.029-38.2,19.981v8.712H24.06a7.957,7.957,0,1,1,14.572,0H50.444V75.476a7.957,7.957,0,1,0,3.183-15.245Z" transform="translate(-6.814 -47.499)" fill="#80a834"/>
        <path id="Trazado_626687" data-name="Trazado 626687" d="M370.135,381.736a3.939,3.939,0,1,0-5.626,5.515c.019.019.037.038.056.056l5.542,5.542a9.548,9.548,0,0,0,9.549,9.549H389.2v-1.591Z" transform="translate(-291.463 -308.498)" fill="#fec9a3"/>
        <path id="Trazado_626688" data-name="Trazado 626688" d="M40.447,50.8a9.549,9.549,0,0,0-3.82,18.3L37.9,66.182a6.366,6.366,0,0,1,2.546-12.2,6.294,6.294,0,0,1,2.546.538,1.591,1.591,0,0,0,2.228-1.458V41.379h8.093a9.358,9.358,0,0,0-.135,1.591,9.576,9.576,0,0,0,7.639,9.358l.637-3.118a6.387,6.387,0,0,1-5.093-6.24,6.294,6.294,0,0,1,.538-2.546A1.591,1.591,0,0,0,55.442,38.2H45.221V30.1a9.358,9.358,0,0,0,1.591.135,9.549,9.549,0,1,0,0-19.1h0a9.355,9.355,0,0,0-1.591.135V3.183H72.277a7.966,7.966,0,0,1,7.957,7.957V38.2H70.014a1.593,1.593,0,0,0-1.458,2.228,6.294,6.294,0,0,1,.538,2.546h3.183a9.354,9.354,0,0,0-.135-1.591h9.684a1.592,1.592,0,0,0,1.591-1.591V11.14A11.154,11.154,0,0,0,72.277,0H14.983A11.155,11.155,0,0,0,3.843,11.14V68.3a11.155,11.155,0,0,0,11.14,11.14H32.49V76.259H14.983A7.966,7.966,0,0,1,7.026,68.3V41.379H17.247a1.713,1.713,0,0,0,1.583-1.833,1.685,1.685,0,0,0-.126-.528,6.366,6.366,0,1,1,11.656,0,1.649,1.649,0,0,0,1.458,2.362H42.039V50.93A9.166,9.166,0,0,0,40.447,50.8ZM14.983,3.183H42.039V13.4a1.593,1.593,0,0,0,2.228,1.458,6.294,6.294,0,0,1,2.546-.538,6.366,6.366,0,1,1,0,12.732,6.294,6.294,0,0,1-2.546-.538,1.591,1.591,0,0,0-2.228,1.458V38.064H33.957a9.353,9.353,0,0,0,.124-1.459v-.132a9.549,9.549,0,1,0-19.1,0V36.6a9.332,9.332,0,0,0,.124,1.459H7.026V11.14A7.967,7.967,0,0,1,14.983,3.183Z" transform="translate(0)"/>
        <path id="Trazado_626689" data-name="Trazado 626689" d="M228.718,258.611l-13.38-9.213-5.139-13.73a1.59,1.59,0,0,0-2.047-.936c-.03.011-.059.022-.087.035l-10.345,4.575a1.593,1.593,0,0,0-.844,2.024c.172.446.333.783.5,1.133a12.184,12.184,0,0,1,.521,1.2,6.369,6.369,0,1,1-12.308,1.913,1.592,1.592,0,0,0-2.152-1.572L172.383,248.2a1.591,1.591,0,0,0-.929,2.048l3.969,10.6a8.941,8.941,0,0,0-1.544.427,9.57,9.57,0,1,0,8.156,17.238l2.846,7.6a1.593,1.593,0,0,0,2.048.933h0l15.769-5.941a8.547,8.547,0,0,0,5.04,4.5l1.006-3.024a5.37,5.37,0,0,1-3.043-2.6l4.8-1.806a11.106,11.106,0,0,0,10.48,7.386v-3.183a8.008,8.008,0,0,1-7.957-7.957,1.588,1.588,0,0,0-.466-1.125l-5.542-5.542a2.36,2.36,0,0,1-.218-3.07,2.318,2.318,0,0,1,1.711-.933,2.278,2.278,0,0,1,1.827.683l11.112,11.112,2.25-2.25-3.288-3.288a11.1,11.1,0,0,0-.142-7.44l-2.983-7.966,9.617,6.622a4.783,4.783,0,0,1,2.035,3.912V285.7h3.183V265.138A7.974,7.974,0,0,0,228.718,258.611Zm-10.965,8.739-5.166-5.164a5.53,5.53,0,1,0-7.919,7.722c.032.034.065.067.1.1l5.034,5.034-22.491,8.471-3.033-8.105a1.592,1.592,0,0,0-2.6-.579,6.366,6.366,0,1,1-6.665-10.568,6.14,6.14,0,0,1,1.574-.357,5.824,5.824,0,0,1,1-.034,1.591,1.591,0,0,0,1.574-2.147L175,250.624l7.579-2.854a9.552,9.552,0,1,0,18.313-5.185c-.146-.392-.279-.7-.406-.979l7.321-3.242,9.485,25.319A7.948,7.948,0,0,1,217.753,267.35Z" transform="translate(-132.79 -190.205)"/>
      </g>
    </g>
  </g>
</svg>
