<svg xmlns="http://www.w3.org/2000/svg" width="188.594" height="188.596" viewBox="0 0 188.594 188.596"><g transform="translate(-624.502 -716.179)"><path d="M798.5,860.836a94.339,94.339,0,0,1-17.87,20.838c-.428.368-.856.734-1.283,1.092-.324.271-.655.54-.987.811l-.943.76c-.01,0-.018.008-.027.017q-2.528,2.017-5.16,3.824c-.279.192-.567.383-.855.567-.577.393-1.162.777-1.746,1.152-.6.384-1.205.759-1.816,1.135-.8.488-1.615.97-2.436,1.431-.017.01-.027.018-.044.027-.488.279-.995.558-1.493.829-.366.2-.742.4-1.135.594-.034.017-.079.044-.122.06-1.8.943-3.632,1.834-5.5,2.655-.209.1-.428.191-.646.288-.079.035-.166.07-.244.105-.1.043-.192.087-.289.122-.218.1-.436.192-.654.279-.637.261-1.266.523-1.913.768-.1.043-.2.087-.3.122-.271.1-.533.2-.8.3l-.132.052a1.142,1.142,0,0,1-.157.062c-.244.1-.505.192-.759.288-.166.062-.331.122-.506.182-.114.045-.226.088-.349.132-.1.035-.2.07-.3.105-.542.191-1.082.375-1.632.559-.76.244-1.52.488-2.279.716-.008,0-.017.009-.027.009-.1.035-.183.052-.279.087-.166.053-.331.1-.5.149l-.184.052c-.358.105-.716.2-1.074.306-.079.017-.166.044-.244.062-.175.052-.358.1-.542.148s-.358.1-.542.14c-.4.1-.811.209-1.213.314-.123.027-.245.06-.367.087-.1.026-.183.043-.279.07-.55.13-1.109.261-1.659.393-.218.052-.436.1-.664.139q-.745.17-1.492.314c-.018,0-.035.008-.053.008l-.271.053c-.759.149-1.527.288-2.286.41-1.379.236-2.759.436-4.147.6-.306.043-.612.078-.918.114-.532.062-1.055.114-1.589.157-.331.035-.664.07-.995.1-.576.061-1.135.1-1.711.131-.568.052-1.135.079-1.7.1-.908.062-1.807.079-2.715.1-.192.008-.384.017-.567.008-.043,0-.088.008-.132.008-.209.01-.418.01-.629,0-.2.01-.4.018-.611.018-.4,0-.812-.008-1.214-.018-.811-.008-1.632-.025-2.445-.069-1.431-.053-2.854-.14-4.277-.254-.261-.027-.532-.044-.794-.079-.358-.035-.724-.07-1.082-.114-1.826-.174-3.64-.418-5.456-.716-.7-.122-1.406-.244-2.1-.375l-.672-.132-.6-.1a2.087,2.087,0,0,0-.218-.053c-.341-.069-.672-.139-1.03-.218-.1-.018-.192-.043-.289-.062-.4-.087-.786-.174-1.187-.271h-.008q-2.187-.51-4.366-1.125c-.147-.043-.288-.087-.427-.122-.105-.027-.21-.062-.314-.1-1.668-.488-3.326-1.02-4.976-1.614-.244-.088-.488-.175-.725-.262-.348-.122-.689-.254-1.03-.384-.437-.166-.873-.331-1.309-.507-.288-.112-.567-.226-.846-.34-.2-.079-.4-.157-.594-.244-.122-.053-.236-.1-.358-.149l-.053-.026c-.069-.027-.139-.052-.209-.087s-.131-.052-.192-.078c-.079-.035-.157-.062-.236-.1-.3-.123-.594-.254-.9-.393-.123-.053-.236-.105-.349-.167-.289-.131-.577-.253-.856-.393-.261-.112-.523-.226-.777-.348-.2-.087-.4-.184-.6-.271-.418-.21-.829-.411-1.239-.612l-1.022-.524c-.062-.026-.131-.062-.192-.1-.393-.192-.786-.411-1.169-.612a.371.371,0,0,1-.114-.06,1.059,1.059,0,0,1-.167-.1c-.41-.209-.811-.428-1.213-.646-.192-.105-.376-.209-.568-.323-.044-.027-.1-.053-.139-.079-.542-.306-1.092-.62-1.632-.943-.227-.14-.463-.271-.69-.42-.008-.008-.027-.008-.035-.025a1.477,1.477,0,0,1-.227-.132l-.34-.209c-.219-.131-.436-.262-.646-.393-.14-.087-.28-.174-.419-.262s-.288-.183-.428-.27c-.288-.184-.577-.376-.856-.56-.052-.034-.114-.078-.166-.112s-.087-.062-.131-.088-.1-.061-.14-.1L666.64,889a.058.058,0,0,0-.035-.018,8.2,8.2,0,0,1-.724-.5c-.306-.183-.594-.383-.881-.592-.018-.018-.044-.027-.062-.045-.035-.017-.069-.052-.1-.069-.132-.1-.254-.184-.376-.271s-.244-.166-.358-.244c-.192-.14-.384-.271-.567-.4-.027-.008-.044-.034-.062-.052-.733-.524-1.448-1.057-2.147-1.607-.463-.348-.916-.7-1.371-1.055-.542-.436-1.091-.883-1.624-1.328-.079-.07-.166-.139-.253-.209-.751-.62-1.493-1.266-2.209-1.929-.577-.507-1.144-1.03-1.7-1.563-.864-.8-1.712-1.614-2.532-2.453-.594-.594-1.17-1.2-1.746-1.815-.01-.018-.035-.027-.045-.053-.873-.925-1.711-1.868-2.523-2.828-.183-.192-.348-.393-.515-.585-1.413-1.685-2.784-3.4-4.077-5.177q-1.086-1.492-2.121-3.021c-.122-.174-.236-.348-.358-.523-.192-.288-.384-.585-.577-.881a.581.581,0,0,0-.044-.079c-1.048-1.615-2.052-3.265-2.986-4.941a5.686,5.686,0,0,1-.323-.6c-.664-1.161-1.274-2.348-1.868-3.543-.393-.794-.777-1.572-1.152-2.366q-1.926-4.178-3.449-8.494c-.462-1.336-.907-2.672-1.309-4.033-.035-.105-.069-.209-.1-.323-.079-.279-.166-.55-.254-.838-.218-.76-.427-1.528-.627-2.287A94.285,94.285,0,1,1,798.5,860.836Z" fill="#b9cee6"/><g transform="translate(673.148 755.099)"><g transform="translate(9.634 97.462)"><path d="M688.421,828.987c0,1.03-.025,2.077-.069,3.125a137.782,137.782,0,0,1-1.667,15.591c-1.476,9.655-3.51,19.739-4.5,29.69-1.668-.488-3.326-1.02-4.976-1.614-.244-.088-.488-.175-.725-.262-.348-.122-.689-.254-1.03-.384-.437-.166-.873-.331-1.309-.507-.288-.112-.567-.226-.846-.34-.2-.079-.4-.157-.594-.244.017-9.1.192-17.443.742-24.287v-.027a72.1,72.1,0,0,1,1.606-11.13.17.17,0,0,1,.018-.088,18.207,18.207,0,0,1,1.659-4.478c.916-1.605,3.326-2.776,5.727-3.588h.008a40.136,40.136,0,0,1,4.985-1.291C688.055,829.039,688.421,828.987,688.421,828.987Z" transform="translate(-672.708 -828.987)" fill="#ff5050"/></g><path d="M708.731,840.842c-.285,2.54.066,5.634-2.139,6.687-4.218,2.015-11.708,1.358-15.769.36a85.9,85.9,0,0,1-13.978-4.587,62.056,62.056,0,0,0,2.32-7.426,17.6,17.6,0,0,1-4.213,4.866c.022-1.891,1.355-4.333,1.955-6.13a49.4,49.4,0,0,0,1.737-7.891c-1.062,2.636-2.021,5.382-3.307,7.961a25.083,25.083,0,0,1-4.137,5.734,34.459,34.459,0,0,1-6.462-4.89c3.981-6.286,9.542-16.26,10.334-23.756.684-6.478.359-13.138,1.654-19.512.821-4.026,2.153-7.956,2.992-11.841,1.93-8.926,5.159-23.14,15.6-25.975l4.792,23.282c.453,14.344,8.853,27.559,9.389,41.823.145,3.851,1.187,8.017.935,11.833C710.228,834.528,709.085,837.671,708.731,840.842Z" transform="translate(-664.739 -747.102)" fill="#781a0e"/><g transform="translate(10.228 90.975)"><path d="M763.081,848.249c-.3.637-.594,1.283-.873,1.938a140.044,140.044,0,0,0-7,19.825c-.017.01-.027.018-.044.027-.488.279-.995.558-1.493.829-.366.2-.742.4-1.135.594-.034.017-.079.044-.122.06-1.8.943-3.632,1.834-5.5,2.655-.209.1-.428.191-.646.288-.079.035-.166.07-.244.105-.1.043-.192.087-.289.122-.218.1-.436.192-.654.279-.637.261-1.266.523-1.913.768-.1.043-.2.087-.3.122-.271.1-.533.2-.8.3l-.132.052a1.142,1.142,0,0,1-.157.062c-.244.1-.505.192-.759.288-.166.062-.331.122-.506.182-.114.045-.226.088-.349.132-.1.035-.2.07-.3.105-.542.191-1.082.375-1.632.559-.76.244-1.52.488-2.279.716-.008,0-.017.009-.027.009-.1.035-.183.052-.279.087-.166.053-.331.1-.5.149l-.184.052c-.358.105-.716.2-1.074.306-.079.017-.166.044-.244.062-.175.052-.358.1-.542.148s-.358.1-.542.14c-.4.1-.811.209-1.213.314-.123.027-.245.06-.367.087-.1.026-.183.043-.279.07-.55.13-1.109.261-1.659.393-.218.052-.436.1-.664.139q-.745.17-1.492.314c-.018,0-.035.008-.053.008l-.271.053c-.759.149-1.527.288-2.286.41-1.379.236-2.759.436-4.147.6-.306.043-.612.078-.918.114-.532.062-1.055.114-1.589.157-.331.035-.664.07-.995.1-.576.061-1.135.1-1.711.131-.568.052-1.135.079-1.7.1-.908.062-1.807.079-2.715.1-.192.008-.384.017-.567.008-.043,0-.088.008-.132.008-.209.01-.418.01-.629,0-.2.01-.4.018-.611.018-.4,0-.812-.008-1.214-.018-.811-.008-1.632-.025-2.445-.069-1.431-.053-2.854-.14-4.277-.254-.261-.027-.532-.044-.794-.079-.358-.035-.724-.07-1.082-.114-1.826-.174-3.64-.418-5.456-.716-.7-.122-1.406-.244-2.1-.375l-.672-.132-.6-.1a2.087,2.087,0,0,0-.218-.053c-.341-.069-.672-.139-1.03-.218-.1-.018-.192-.043-.289-.062-.4-.087-.786-.174-1.187-.271h-.008q-2.187-.51-4.366-1.125c-.147-.043-.288-.087-.427-.122-.105-.027-.21-.062-.314-.1-1.668-.488-3.326-1.02-4.976-1.614-.244-.088-.488-.175-.725-.262-.348-.122-.689-.254-1.03-.384-.437-.166-.873-.331-1.309-.507-.288-.112-.567-.226-.846-.34a81.948,81.948,0,0,0,2.654-10.1c2.584-17.9,2.741-30.773,3.868-31.533a24.463,24.463,0,0,1,3.466-1.955h.008a33.653,33.653,0,0,1,4.155-1.545,55.147,55.147,0,0,0,8.153-2.759.074.074,0,0,1,.027-.008,25.178,25.178,0,0,0,3.282-1.859c.331-.219.664-.455,1.013-.717.122-.087.244-.174.366-.27l.323-.018,1.205-.06h.008l5.57-.279,1.44-.07,2.523-.131,2.637-.132,4.068-.2h.008l2.749-.139.149-.01a55.389,55.389,0,0,1,14.5,5.073,1.555,1.555,0,0,1,.271.131c.488.236.987.488,1.475.751,1,.507,2.008,1.048,3,1.615,1.493.829,2.968,1.711,4.418,2.619,1.135.707,2.252,1.44,3.352,2.174,2.043,1.379,4.025,2.8,5.893,4.234v.01a96.462,96.462,0,0,1,8.555,7.3C762.593,847.759,762.837,848,763.081,848.249Z" transform="translate(-673.199 -823.621)" fill="#560904"/></g><path d="M719.237,825.789c-.341-.035-.7-.062-1.057-.1s-.733-.07-1.109-.1h-.008a1.63,1.63,0,0,0-.2-.017h-.008c-.184-.027-.368-.035-.56-.053a1.717,1.717,0,0,0-.209-.017c.122.724.253,1.58.384,2.5v.008c.279,1.938.54,4.13.611,5.893v.01a9.223,9.223,0,0,1-.166,2.776c-3.064,9.419-14.256,19.1-22.3,21.641-1.59-2.793-2.052-7.97-1.319-14.412.132-1.162.3-2.375.515-3.615.384-2.278.856-4.347,1.336-6.18.166-.594.323-1.161.49-1.7.131-.411.7-1.72,1.378-3.23v-.008a.009.009,0,0,0,.01-.008c.681-1.528,1.467-3.257,2.017-4.471-.594-.008-1.2-.008-1.8-.008-.114,0-.227,0-.349.008h-.008a.008.008,0,0,1-.008-.008.035.035,0,0,0-.018.008c-.218-.008-.445,0-.662,0s-.42,0-.629.01a6.381,6.381,0,0,0-.384.707,26.052,26.052,0,0,0-1.44,3.99c-.438,1.527-.831,3.186-1.17,4.731-.567,2.62-.96,4.924-1.1,5.762a61.954,61.954,0,0,0-.829,7.717c-.192,4.61.227,9.76,2.505,12.808l.481.637.776-.2c8.844-2.321,21.319-12.832,24.776-23.44a19.17,19.17,0,0,0,.647-2.993C720.205,831.822,720.293,828.382,719.237,825.789Z" transform="translate(-659.336 -732.421)" fill="#fff"/><path d="M695.814,826.835a37.647,37.647,0,0,1-2.393,6.635c-1.649,3.919-4,9.122-6.555,14.683-4.374,9.516-9.368,20.062-12.537,26.923-.288-.112-.567-.226-.846-.34-.2-.079-.4-.157-.594-.244-.122-.053-.236-.1-.358-.149l-.053-.026c-.069-.027-.139-.052-.209-.087s-.131-.052-.192-.078c-.079-.035-.157-.062-.236-.1.411-8,1-16.587,1.791-23.851v-.027c.462-4.321.995-8.162,1.606-11.13a.17.17,0,0,1,.018-.088c.629-3.134,1.344-5.272,2.13-5.91a22.634,22.634,0,0,1,5.124-2.2c5.343-1.841,12.825-3.884,13.278-4.007A.074.074,0,0,1,695.814,826.835Z" transform="translate(-663.255 -731.974)" fill="#ff0b40"/><g transform="translate(65.697 94.861)"><path d="M720.844,835.172q-.773-4.231-1.764-8.337s2.724.629,6.539,1.589c.122.027.236.052.358.087.507.122,1.022.254,1.554.393,1.057.262,2.165.55,3.309.838,1.45.393,2.951.786,4.435,1.2,2.339.647,4.645,1.311,6.7,1.956,3.483,1.082,6.259,2.112,7.3,2.881a1.85,1.85,0,0,1,.253.209c2.532,2.068,3.317,6.085,3.221,10.869-.017.864-.06,1.755-.131,2.663a171.046,171.046,0,0,1-2.749,17.258c-.6.384-1.205.759-1.816,1.135-.8.488-1.615.97-2.436,1.431-.017.01-.027.018-.044.027-.488.279-.995.558-1.493.829-.366.2-.742.4-1.135.594-.034.017-.079.044-.122.06-1.8.943-3.632,1.834-5.5,2.655-.209.1-.428.191-.646.288-.079.035-.166.07-.244.105-.1.043-.192.087-.289.122-.218.1-.436.192-.654.279-.637.261-1.266.523-1.913.768-.1.043-.2.087-.3.122-.271.1-.533.2-.8.3l-.132.052a1.142,1.142,0,0,1-.157.062c-.244.1-.505.192-.759.288-.166.062-.331.122-.506.182-.114.045-.226.088-.349.132-.1.035-.2.07-.3.105-.542.191-1.082.375-1.632.559-.76.244-1.52.488-2.279.716-.008,0-.017.009-.027.009-.1.035-.183.052-.279.087-.166.053-.331.1-.5.149l-.184.052c-.358.105-.716.2-1.074.306a267.248,267.248,0,0,0-1.292-27.648C722.486,845.307,721.778,840.174,720.844,835.172Z" transform="translate(-719.08 -826.835)" fill="#ff0b40"/><path d="M724.887,873.747l-.184.052c-.358.105-.716.2-1.074.306-.079.017-.166.044-.244.062-.349-9.009-1-26.1-1.048-27.71v-.1A230.842,230.842,0,0,1,724.887,873.747Z" transform="translate(-718.399 -822.756)" fill="#ff5050"/><g transform="translate(14.5 8.901)"><path d="M755.152,859.675c-.01,0-.018.008-.027.017q-2.528,2.017-5.16,3.824c-.279.192-.567.383-.855.567-.577.393-1.162.777-1.746,1.152-.6.384-1.205.759-1.816,1.135-.8.488-1.615.97-2.436,1.431-.017.01-.027.018-.044.027-.488.279-.995.558-1.493.829-.366.2-.742.4-1.135.594-.034.017-.079.044-.122.06-1.8.943-3.632,1.834-5.5,2.655-.209.1-.428.191-.646.288-.079.035-.166.07-.244.105-.1.043-.192.087-.289.122-.218.1-.436.192-.654.279-.637.261-1.266.523-1.913.768,1.991-8.11,4.025-15.914,5.937-22.348a93.356,93.356,0,0,1,4.679-13.165v-.01c1.624-3.291,3.5-4.347,5.334-3.562C750.83,836.078,754.445,845.646,755.152,859.675Z" transform="translate(-731.074 -834.197)" fill="#ff5050"/><path d="M737.011,848.245s-2.393,16.3-3.371,21.3c-.218.1-.436.192-.654.279-.637.261-1.266.523-1.913.768C733.065,862.483,735.1,854.679,737.011,848.245Z" transform="translate(-731.074 -831.261)" fill="#bc0000"/></g></g><g transform="translate(11.337)"><g transform="translate(21.866 52.196)"><path d="M716.178,832.773l-1.46,5.291c-.341-.725-5.241-2.571-5.773-3.218-1.319-1.619,1.919-5.489-.291-5.434a3.026,3.026,0,0,0-.459.046l-9.466,3.514a9.745,9.745,0,0,0-1.843,3.337l-.751.023-.106-3.672-.123-4.142-.034-1.159-.008-.412-.051-1.608-.017-.623-.656-22.5-.3-10.07,20.774-.6.016.721.21,7.068.017.617.193,6.445.279,9.72.008.279Z" transform="translate(-691.652 -791.545)" fill="#feac74"/><g transform="translate(4.16 8.405)"><path d="M715.9,810.489c-3.489,8.592-13.32,17.316-20.158,16.576l-.034-1.159-.008-.412-.051-1.608.047-.023,4.187-21.641,15.811-3.725.193,6.445Z" transform="translate(-695.644 -798.497)" fill="#e3784c"/></g><path d="M716.355,825.882c-1.62-1.979-6.774-4.15-9.131-3.611l-10.7,2.955c-1.134,3.065-7.542,26.576-2.247,33.63C705.927,855.806,725.116,836.587,716.355,825.882Z" transform="translate(-692.203 -785.142)" fill="#feac74"/></g><g transform="translate(0 53.92)"><path d="M681.737,808.476c-3.6.486-6.983-2.488-7.542-6.63s1.914-7.909,5.512-8.4l.109.814c-3.149.426-5.307,3.777-4.807,7.471s3.467,6.352,6.618,5.928,5.307-3.777,4.807-7.471a8.411,8.411,0,0,0-3.795-5.584l.665-.578a8.681,8.681,0,0,1,3.945,6.052C687.809,804.225,685.335,807.99,681.737,808.476Z" transform="translate(-674.117 -792.87)" fill="#ffd731"/><path d="M680.032,793.793a.95.95,0,1,1-1.068-.814A.952.952,0,0,1,680.032,793.793Z" transform="translate(-673.276 -792.971)" fill="#ffd731"/></g><g transform="translate(4.363)"><path d="M724.129,761.805c-4-4.45-26.653-9.735-35.1.625-7.2,8.834-7.23,21.116-10.319,32.09-5.225,18.557,11.8,38,17.212,37.514,9.431-.849,21.727-9,25.8-16.114,3.036-5.3,1.8-11.235,3.644-17.152C729.118,786.706,732.987,771.65,724.129,761.805Z" transform="translate(-677.726 -746.686)" fill="#feac74"/><g transform="translate(13.918 51.868)"><path d="M690.743,792.055c-1.071.729-2.117,1.253-1.075,2.76,1.453,2.1,4.682,1.878,6,1.688-.774-.214-4.208-1.357-5.154-2.314C689.863,793.53,694.293,789.641,690.743,792.055Z" transform="translate(-689.238 -791.273)" fill="#e3784c"/></g><g transform="translate(7.168 58.497)"><path d="M684.6,800.2l-.16,0c.079.2,5.816,6.389,7.433,9.3,1.144,2.06,2.939,4.534,5.7,4.3,6.954-.6,8.2-12.832,9.848-15.537C705.717,801.059,688.368,800.64,684.6,800.2Z" transform="translate(-683.49 -796.443)" fill="#60281f"/><path d="M698.116,807.232a3.973,3.973,0,0,0-2.288-.022,8.422,8.422,0,0,0-3.28,1.577c-.358.3-1.25,1.373-1.177,1.9s1.012,1.048,1.369,1.353a4.322,4.322,0,0,0,3.022.878,4.675,4.675,0,0,0,4.107-2.318,29.97,29.97,0,0,1,1.82-2.685l3.2-5.85C702.293,802.02,698.113,804.41,698.116,807.232Z" transform="translate(-682.044 -795.648)" fill="#ea6453"/><path d="M686.161,799.28a10.23,10.23,0,0,0,2.305,2.927,5.845,5.845,0,0,0,3.448,1.412,20.457,20.457,0,0,0,2.442.073,15.972,15.972,0,0,0,6.094-1.238c1.284-.571,1.532-1.691,1.878-2.834Z" transform="translate(-683.131 -796.229)" fill="#fff"/><path d="M709.085,796.768c-.314.48-2.348,1.493-5.438,2.331h-.01q-.89.236-1.885.445c-.664.14-1.371.271-2.1.384-.314.044-.629.1-.951.131-.411.052-.829.1-1.257.14a35.035,35.035,0,0,1-4.331.157c-.174,0-.358,0-.54-.01-1.816-.044-4-.174-5.753-.288h-.008l-.525-.025c-.3-.018-.594-.035-.863-.062h-.01c-.035,0-.069-.008-.1-.008-.306-.018-.594-.035-.829-.062-.525-.027-.829-.052-.829-.052s.314.393.838,1.039l.017.018c.21.261.455.558.725.9l.008.008c.418.525.9,1.135,1.406,1.764a79.646,79.646,0,0,1,4.836,6.548c.62,1.125,2.532,4.575,5.787,4.635.167.009.349-.008.525-.017h.079a6.579,6.579,0,0,0,1.771-.349,4.654,4.654,0,0,0,.481-.192h.008a6.694,6.694,0,0,0,1.344-.734,13.292,13.292,0,0,0,3.938-4.774v-.01a33.594,33.594,0,0,0,2.766-7.463c.123-.455.219-.883.314-1.284.428-1.886.594-3.177.594-3.177A.008.008,0,0,1,709.085,796.768Zm-2.854,4.19c-.035.227-.07.48-.122.751-.079.453-.175.951-.314,1.5v.008a18.948,18.948,0,0,1-.742,2.436v.008c-.07.174-.131.349-.209.523v.008a14.789,14.789,0,0,1-2.374,3.973c-.01.008-.018.008-.018.017l-.008.01a11.123,11.123,0,0,1-1.868,1.728.373.373,0,0,1-.1.07,7.394,7.394,0,0,1-.829.55,10.4,10.4,0,0,1-1.806.873h-.01c-.052.017-.1.035-.139.052-1.528.55-2.951-.584-4.3-2.662a.008.008,0,0,0-.008-.008c-.262-.393-.523-.829-.777-1.292a63.488,63.488,0,0,0-6.12-7.814c-.131-.148-.244-.279-.358-.4l.314.027c.4.035.829.06,1.284.087h.008c1.554.114,3.423.2,5.361.244h.358c1.457.018,2.793-.035,4.033-.13.759-.06,1.483-.14,2.164-.227.393-.052.769-.1,1.127-.166.689-.105,1.318-.227,1.886-.349q.72-.156,1.335-.314c1.065-.279,1.869-.54,2.4-.724C706.361,799.859,706.317,800.3,706.23,800.959Z" transform="translate(-683.655 -796.756)" fill="#fc5135"/><g transform="translate(0.983)"><path d="M684.654,799.457l-.186-.058A1.048,1.048,0,0,0,684.654,799.457Z" transform="translate(-684.468 -796.205)" fill="#e3784c"/><path d="M694.733,797.756a8.628,8.628,0,0,1-2.267,1.4,3.374,3.374,0,0,1-2.312-.67c-1.215-.65-1.234-.768-2.345.022-.693.49-2.249,1.673-3.187,1.5l3.236.976c.152.259,1.953.039,2.464.051q1.65.036,3.3.068c1.274.029,2.51-.058,3.774-.081.91-.014,9.652-.785,11.495-4.265C706.7,796.714,701.435,800.979,694.733,797.756Z" transform="translate(-684.436 -796.757)" fill="#fc5135"/></g></g><path d="M682.237,775.142l-.3.4c1.208-1.4,7.052-1.948,8.04-.261C691.3,768.293,683.91,772.614,682.237,775.142Z" transform="translate(-676.846 -743.541)" fill="#602618"/><g transform="translate(24.886 36.806)"><path d="M714.979,789.979c-.837-4.236-4.228-10.7-11.749-5.095a23.711,23.711,0,0,0-4.814,3.9.83.83,0,0,0-.071.083l-.028.023c.134.061.27.12.4.177q.854.379,1.7.729c.424.172.848.341,1.273.5.143.056.284.108.426.16l.427.157c.174.065.352.125.525.185l.6.2c.336.11.671.218,1.011.317.068.022.134.041.206.062.2.06.4.117.6.169a.347.347,0,0,0,.056.016c.185.052.371.1.556.146.119.031.238.059.36.088s.26.061.387.089c.158.036.32.073.482.1s.352.075.53.106c.028,0,.059.012.087.016.075.012.145.028.222.036.144.03.291.053.438.074.295.05.592.091.889.128.151.021.3.037.446.049s.3.029.447.041c.131.008.261.022.4.03a.618.618,0,0,0,.1,0q.426.025.862.039c.625.021,1.249.007,1.887-.029.253-.018.51-.037.763-.063h.011c.255-.022.508-.052.76-.087.006-.071.012-.143.017-.214A6.736,6.736,0,0,0,714.979,789.979Z" transform="translate(-698.309 -778.003)" fill="#fff"/><g transform="translate(4.542 4.394)"><path d="M708.771,787.466c-.015,2.76-1.527,4.991-3.378,4.982s-3.342-2.256-3.326-5.017,1.527-4.991,3.378-4.981S708.785,784.7,708.771,787.466Z" transform="translate(-702.067 -782.45)" fill="#574984"/><path d="M707.374,787.044c-.011,1.923-.984,3.477-2.18,3.471s-2.151-1.57-2.14-3.493.984-3.477,2.177-3.471S707.382,785.121,707.374,787.044Z" transform="translate(-701.861 -782.22)" fill="#291c51"/><path d="M709.032,784.978l-3.778.7s2.766,1.688,3.556,1.185C709.211,786.605,709.032,784.978,709.032,784.978Z" transform="translate(-701.401 -781.922)" fill="#fff"/></g><path d="M715.174,793.08a6.317,6.317,0,0,0-.193-1.937c-.837-4.239-4.228-10.7-11.749-5.1-2.386,1.778-4.644,3.344-4.913,3.583h0s5.968-13.249,14.115-9.952C716.522,781.328,716.6,789.653,715.174,793.08Z" transform="translate(-698.31 -778.745)" fill="#781a0e"/><path d="M715.172,793.15a9.072,9.072,0,0,0-.193-2.359c-.837-4.236-4.228-10.7-11.749-5.095-2.386,1.778-4.616,3.742-4.885,3.981l-.028.023s5.967-13.67,14.115-10.372C716.521,780.978,716.6,789.724,715.172,793.15Z" transform="translate(-698.309 -778.815)" fill="#e3784c"/><path d="M714.332,791.325c-7.029,2.484-13.141-1.081-15.682-3.36q.854.379,1.7.729c.424.172.848.341,1.273.5.143.056.284.108.426.16l.427.157c.174.065.352.125.525.185l.6.2c.336.11.671.218,1.011.317.068.022.134.041.206.062q.3.091.6.169a.348.348,0,0,0,.056.016c.185.052.371.1.556.146.119.031.238.059.36.088s.26.06.387.089c.158.036.32.073.482.1s.352.075.53.106c.028,0,.059.012.087.016.075.012.145.028.223.036.144.03.291.053.438.074.3.05.592.091.889.128.151.021.3.037.446.05s.3.029.447.041c.13.009.261.022.4.03a.619.619,0,0,0,.1,0q.426.025.862.039c.625.021,1.249.007,1.887-.029C713.821,791.37,714.079,791.35,714.332,791.325Z" transform="translate(-698.239 -776.903)" fill="#e3784c"/></g><g transform="translate(2.242 35.13)"><path d="M680.381,785.447c1.793-3.132,5.341-9.828,9.338-3.442,1.382,1.734,3.022,6.3,3.223,6.8a.488.488,0,0,1,.03.085l.013.027c-.115.012-.231.025-.346.035-.49.051-.976.1-1.46.132q-.54.042-1.077.067c-.121.007-.241.012-.36.016l-.358.013c-.148.006-.3.007-.44.01l-.5,0c-.277,0-.555,0-.834-.011-.056,0-.11,0-.167-.006-.167,0-.331-.012-.5-.023a.129.129,0,0,1-.044,0c-.152-.007-.3-.017-.452-.03-.1,0-.192-.013-.29-.022s-.209-.021-.311-.031c-.127-.013-.256-.025-.386-.042s-.279-.033-.419-.053c-.022,0-.046-.006-.068-.01-.059-.01-.116-.017-.177-.028-.114-.016-.228-.036-.342-.057-.232-.039-.463-.083-.692-.13-.116-.022-.233-.048-.345-.076s-.227-.056-.341-.083l-.3-.08a.5.5,0,0,1-.073-.021c-.215-.06-.432-.126-.647-.192-.467-.148-.925-.32-1.385-.514-.181-.08-.366-.162-.546-.249l-.008,0c-.181-.083-.359-.173-.537-.267.017-.056.029-.114.046-.172A6.072,6.072,0,0,1,680.381,785.447Z" transform="translate(-679.58 -777.03)" fill="#fff"/><g transform="translate(1.876 2.436)"><path d="M687.836,784.459c-.015,2.761-1.526,4.992-3.377,4.982s-3.343-2.255-3.327-5.016,1.526-4.991,3.378-4.981S687.85,781.7,687.836,784.459Z" transform="translate(-681.132 -779.444)" fill="#574984"/><path d="M686.437,784.036c-.008,1.925-.984,3.478-2.177,3.472s-2.152-1.57-2.14-3.494.983-3.475,2.176-3.469S686.448,782.115,686.437,784.036Z" transform="translate(-680.925 -779.214)" fill="#291c51"/><path d="M688.1,781.971l-3.777.7s2.766,1.689,3.556,1.186C688.275,783.6,688.1,781.971,688.1,781.971Z" transform="translate(-680.466 -778.916)" fill="#fff"/></g><path d="M679.583,787.584a6.846,6.846,0,0,1,.8-1.382c1.793-3.132,5.294-9.122,10.089-.977,1.214,2.061,2.339,3.643,2.472,3.9.01.017-.007-.1-.007-.1s-.561-11.721-7.491-11.23C681.966,778.043,679.482,784.506,679.583,787.584Z" transform="translate(-679.581 -777.355)" fill="#781a0e"/><path d="M679.583,787.658a8.143,8.143,0,0,1,.8-1.812c1.793-3.132,5.294-9.122,10.089-.977,1.214,2.061,2.37,4.159,2.5,4.418l.013.027s-.612-12.359-7.542-11.87C681.966,777.685,679.482,784.58,679.583,787.658Z" transform="translate(-679.581 -777.429)" fill="#e3784c"/><path d="M680.034,786.114c4.5,3.789,10,2.562,12.512,1.419-.49.051-.976.1-1.46.132q-.54.042-1.077.067c-.121.007-.241.012-.36.016l-.358.013c-.148.006-.3.007-.44.01l-.5,0c-.277,0-.555,0-.834-.011-.056,0-.11,0-.167-.006-.167,0-.331-.012-.5-.023a.129.129,0,0,1-.044,0c-.152-.007-.3-.017-.452-.03-.1,0-.192-.013-.29-.022s-.209-.021-.311-.031c-.127-.013-.256-.025-.386-.042s-.279-.033-.419-.053c-.022,0-.046-.006-.068-.01-.059-.01-.116-.017-.177-.028-.114-.016-.228-.036-.342-.057-.232-.039-.463-.083-.692-.13-.116-.022-.233-.048-.345-.076s-.227-.056-.341-.083l-.3-.08a.5.5,0,0,1-.073-.021c-.215-.06-.432-.126-.647-.192-.467-.148-.925-.32-1.385-.514C680.4,786.283,680.214,786.2,680.034,786.114Z" transform="translate(-679.486 -775.614)" fill="#e3784c"/></g><g transform="translate(7.701)"><path d="M741.77,852.763c.557-3.569,1.128-7.406,1.535-10.9.734-6.33,1.733-16.61.7-19.815-.965,5.844-2.087,11.56-3.616,17.323a72.579,72.579,0,0,1-4.967,12.994c-.058.118-.114.238-.169.361-1.055-.121-2.094-.283-3.1-.453a42.649,42.649,0,0,1,2.265-11.027c-1.468,3.286-2.763,7.392-5.025,10.531-.135-.025-.271-.046-.4-.071-4.1-.715-19.571-2.931-22.7-5.74,2.3-3.047,24.6-62.11,4.83-70.093,2.36,4.615,7.135,9.347,5.523,21.925-4.317-22.26-31.507-28.558-32.533-35.242-.439-2.867,10.318-16.521,27.542-13.84,42.794,6.661,42.335,49.738,43.461,59.433C759.143,842.861,751,851.454,741.77,852.763Z" transform="translate(-684.095 -748.371)" fill="#781a0e"/><g transform="translate(27.709 11.235)"><path d="M741.439,785.538c.623-2.87-.941-6.4-1.954-9a37.88,37.88,0,0,0-4.654-8.2,32.376,32.376,0,0,0-6.68-6.869,16.061,16.061,0,0,0-3.882-2.373c-1.242-.515-2.874-.911-4.083-1.436,2.382,1.216,5.166,3.9,5.769,6.473a13.02,13.02,0,0,0-5.687-2.9c1.5.447,2.75,3.123,3.352,4.419a14.213,14.213,0,0,1,.887,3.3c-.862-1.971-3.7-3.774-5.449-4.983a16.166,16.166,0,0,0-3.1-1.629c-.8-.325-1.774-.389-2.568-.7,2.12,1.117,4.008,4.26,4.923,6.223-2.295-2.361-8.036-4.259-11.3-3.835,2.275.586,5.426,3.366,6.059,5.631a2.222,2.222,0,0,0-.323-1.711c1.167.85,3,2.157,3.279,3.472-.018-1.77-1.32-3.212-2.043-4.443l-.168-.524c3.128,1.769,4.865,5.894,6.273,9.2a29.781,29.781,0,0,1,2.012,10,14.008,14.008,0,0,0,.885-7.9,19.2,19.2,0,0,1,2.1,6.466,62.63,62.63,0,0,1,.665,9.462c1.452-1.953,1.78-5.732,1.985-8.139a24.1,24.1,0,0,0-.178-4.982,8.3,8.3,0,0,0-.376-2.644,14.678,14.678,0,0,1,2.591,5.808c.285,1.95.447,4.09.54,6.039a14.161,14.161,0,0,0,1.6-7.878c2.482,2.522,1.615,7.147,2.391,10.219,1.248-2.553,1.155-5.983.907-8.78-.243-2.741-1.336-5.458-1.476-8.156,2.214,1.6,3.082,5.39,3.988,7.821a19.488,19.488,0,0,1,1.2,6.634,18.529,18.529,0,0,0,.228-6.271c-.342-1.888-1.647-4.464-1.529-6.306A17.437,17.437,0,0,1,741.439,785.538Z" transform="translate(-707.015 -757.664)" fill="#a14f2a"/></g></g></g></g></g></g></svg>