<svg xmlns="http://www.w3.org/2000/svg" width="114" height="114" viewBox="0 0 114 114"><g transform="translate(-285 -965)"><g transform="translate(285 965)" fill="#fff" stroke="#ff3c00" stroke-width="5"><circle cx="57" cy="57" r="57" stroke="none"/><circle cx="57" cy="57" r="54.5" fill="none"/></g><g transform="translate(311 986.997)"><g transform="translate(12.664 21.558)"><path d="M102.851,171.788a1.257,1.257,0,1,0,0,1.778A1.258,1.258,0,0,0,102.851,171.788Z" transform="translate(-100.704 -171.42)" fill="#992400"/></g><g transform="translate(0 49.296)"><path d="M31.842,399a4.4,4.4,0,0,0-3.547-7.009H6.916a4.4,4.4,0,0,0-3.544,7.007A6.293,6.293,0,0,0,0,404.562v1.258a1.258,1.258,0,0,0,1.258,1.258h32.7a1.258,1.258,0,0,0,1.258-1.258v-1.258A6.293,6.293,0,0,0,31.842,399ZM5.582,395.054a1.874,1.874,0,0,1,1.334-.552H28.294a1.886,1.886,0,1,1,0,3.773H6.916a1.887,1.887,0,0,1-1.334-3.22Zm-3.067,9.508a3.777,3.777,0,0,1,3.773-3.773H28.923a3.777,3.777,0,0,1,3.773,3.773Z" transform="translate(0 -391.987)" fill="#992400"/></g><g transform="translate(0.003 0.001)"><g transform="translate(0 0)"><path d="M63.236,52.835a7.919,7.919,0,0,0-1.515-1.74L55.845,45.97a1.248,1.248,0,0,0-.5-.436l-3.554-3.1L35.343,28.087a3.766,3.766,0,0,0-1.1-6.006l1.522-1.522a5.033,5.033,0,0,0,4.856-1.3,5.029,5.029,0,0,0,0-7.114L29.946,1.475a5.028,5.028,0,0,0-8.414,4.856L6.35,21.513a5.061,5.061,0,0,0-1.3-.17,5.03,5.03,0,0,0-3.556,8.587L12.162,40.6a5.028,5.028,0,0,0,8.414-4.856l1.519-1.519a3.774,3.774,0,0,0,6.008,1.1L45.622,55.455a1.263,1.263,0,0,0,.171.213c.023.023.046.043.07.063l5.22,6c.13.153.268.3.412.448a7.48,7.48,0,0,0,5.316,2.211,7.719,7.719,0,0,0,1.058-.073,7.61,7.61,0,0,0,5.614-3.887A7.441,7.441,0,0,0,63.236,52.835ZM24.611,3.253a2.514,2.514,0,0,1,3.557,0l10.67,10.67a2.515,2.515,0,0,1-3.556,3.557L24.611,6.81h0A2.517,2.517,0,0,1,24.611,3.253ZM17.5,38.821a2.518,2.518,0,0,1-3.557,0L3.27,28.151a2.515,2.515,0,0,1,3.555-3.558L17.5,35.265A2.517,2.517,0,0,1,17.5,38.821Zm5.295-8.851-3.516,3.516L8.6,22.815,22.832,8.588,33.5,19.259l-3.523,3.523-.035.033-7.11,7.11Zm4.49,2.623-.007.007-.886.886A1.258,1.258,0,0,1,24.6,31.723l7.143-7.143a1.258,1.258,0,0,1,2.133.9,1.246,1.246,0,0,1-.369.889l-.88.88-.018.018Zm2.6.953,3.675-3.675L49.124,43.444l-5.678,5.679ZM45.1,51.025,51.024,45.1l1.9,1.657-6.168,6.168ZM61.289,59.2a5.115,5.115,0,0,1-3.765,2.624A5,5,0,0,1,53.273,60.4c-.1-.1-.189-.2-.276-.3l-.012-.014-4.575-5.257,6.412-6.413L60.073,53l.012.01A5.414,5.414,0,0,1,61.123,54.2,4.965,4.965,0,0,1,61.289,59.2Z" transform="translate(-0.021 -0.001)" fill="#992400"/></g></g><g transform="translate(16.221 12.666)"><path d="M136.468,101.076a1.258,1.258,0,0,0-1.778,0l-5.336,5.336a1.258,1.258,0,0,0,1.778,1.778l5.336-5.336A1.257,1.257,0,0,0,136.468,101.076Z" transform="translate(-128.985 -100.707)" fill="#992400"/></g></g></g></svg>