<svg xmlns="http://www.w3.org/2000/svg" width="114" height="114" viewBox="0 0 114 114"><g transform="translate(-180 -2033.922)"><g transform="translate(180 2033.922)" fill="#fff" stroke="#ff3c00" stroke-width="5"><circle cx="57" cy="57" r="57" stroke="none"/><circle cx="57" cy="57" r="54.5" fill="none"/></g><g transform="translate(111.421 -1699.988)"><path d="M129.51,3771.961a18.81,18.81,0,1,0,13.176,13.176,2.085,2.085,0,1,1,4.022-1.1,22.981,22.981,0,1,1-16.095-16.095,2.085,2.085,0,0,1-1.1,4.022Zm24.416,7.273a2.086,2.086,0,0,0-1.408,2.592,29.162,29.162,0,1,1-19.7-19.7,2.085,2.085,0,1,0,1.184-4,33.332,33.332,0,1,0,22.514,22.514,2.087,2.087,0,0,0-2.592-1.408Zm-29.405,2.55a8.458,8.458,0,0,1,.921.05,2.085,2.085,0,0,0,.455-4.146,12.751,12.751,0,0,0-1.376-.075,12.512,12.512,0,1,0,12.512,12.512,2.085,2.085,0,1,0-4.17,0,8.342,8.342,0,1,1-8.342-8.342Zm10.648-5.255,1.039-10.42a2.076,2.076,0,0,1,.6-1.267l7.47-7.471a2.086,2.086,0,0,1,3.554,1.312l.592,7.539,7.539.593a2.085,2.085,0,0,1,1.311,3.553l-7.47,7.471a2.09,2.09,0,0,1-1.268.6l-10.419,1.039L126,3791.6a2.085,2.085,0,0,1-2.95-2.949Zm4.329-1.38,7.885-.787,3.745-3.745-4.805-.377a2.086,2.086,0,0,1-1.916-1.916l-.378-4.806-3.745,3.745Z" fill="#992400"/></g></g></svg>