<svg xmlns="http://www.w3.org/2000/svg" xmlns:xlink="http://www.w3.org/1999/xlink" width="169" height="134" viewBox="0 0 169 134">
  <defs>
    <clipPath id="clip-path">
      <rect id="Rectángulo_339721" data-name="Rectángulo 339721" width="169" height="134" transform="translate(1146 4090)" fill="#fff" stroke="#707070" stroke-width="1"/>
    </clipPath>
  </defs>
  <g id="Grupo_88" data-name="Grupo 88" transform="translate(-1146 -4090)" clip-path="url(#clip-path)">
    <g id="cuestionario_1_" data-name="cuestionario(1)" transform="translate(1172.159 4100.143)">
      <g id="Grupo_952692" data-name="Grupo 952692" transform="translate(2.801 2.801)">
        <g id="Grupo_952680" data-name="Grupo 952680" transform="translate(61.22 36.012)">
          <path id="Trazado_636591" data-name="Trazado 636591" d="M37.8,22H81.015a1.8,1.8,0,0,1,1.8,1.8V92.223a1.8,1.8,0,0,1-1.8,1.8H36V23.8A1.8,1.8,0,0,1,37.8,22Z" transform="translate(-36 -22)" fill="#e6e9ed"/>
        </g>
        <g id="Grupo_952681" data-name="Grupo 952681" transform="translate(86.429 86.429)">
          <path id="Trazado_636592" data-name="Trazado 636592" d="M64.4,51.8V64.4H50V50H64.4Z" transform="translate(-50 -50)" fill="#b4dd7f"/>
        </g>
        <g id="Grupo_952682" data-name="Grupo 952682" transform="translate(86.429 64.822)">
          <path id="Trazado_636593" data-name="Trazado 636593" d="M64.4,39.8V52.4H50V38H64.4Z" transform="translate(-50 -38)" fill="#b4dd7f"/>
        </g>
        <g id="Grupo_952683" data-name="Grupo 952683" transform="translate(68.423 43.214)">
          <path id="Trazado_636594" data-name="Trazado 636594" d="M40,26H72.411v7.2H40Z" transform="translate(-40 -26)" fill="#ff826e"/>
        </g>
        <g id="Grupo_952684" data-name="Grupo 952684" transform="translate(7.202 63.021)">
          <path id="Trazado_636595" data-name="Trazado 636595" d="M45.613,62.208v5.4h7.2v14.4l-22.994.072A23.726,23.726,0,0,1,6,58.355v-.486A22.216,22.216,0,0,1,20.4,37a25.369,25.369,0,0,1,5.528.612L27.607,46l5.4,1.8-1.8,5.4Z" transform="translate(-6 -37)" fill="#fcd770"/>
        </g>
        <g id="Grupo_952685" data-name="Grupo 952685" transform="translate(27.135 63.633)">
          <path id="Trazado_636596" data-name="Trazado 636596" d="M25.947,41.247a25.182,25.182,0,0,1,10.8,20.689l-14.4-9,1.8-5.4-5.4-1.8L17.07,37.34a24.957,24.957,0,0,1,8.877,3.907Z" transform="translate(-17.07 -37.34)" fill="#ffc729"/>
        </g>
        <g id="Grupo_952686" data-name="Grupo 952686" transform="translate(46.816 17.988)">
          <path id="Trazado_636597" data-name="Trazado 636597" d="M31.6,19.21a12.3,12.3,0,0,0,3.511-7.22l.09.018H67.613V22.722a4.351,4.351,0,0,1-.846.09H28V21.7a12.047,12.047,0,0,0,3.6-2.485Z" transform="translate(-28 -11.99)" fill="#b4dd7f"/>
        </g>
        <g id="Grupo_952687" data-name="Grupo 952687" transform="translate(53.928 7.202)">
          <path id="Trazado_636598" data-name="Trazado 636598" d="M64.451,6.126V16.8H32.04l-.09-.018a13.266,13.266,0,0,0,.09-1.476V6H63.6a4.351,4.351,0,0,1,.846.09Z" transform="translate(-31.95 -6)" fill="#ff826e"/>
        </g>
        <g id="Grupo_952688" data-name="Grupo 952688">
          <path id="Trazado_636599" data-name="Trazado 636599" d="M18.223,58.719A29.337,29.337,0,0,1,2,32.484v-.216A23.083,23.083,0,0,1,25.066,9.2h9.741a20.649,20.649,0,0,0,7.959-1.585,21.052,21.052,0,0,0,6.734-4.5,3.82,3.82,0,0,1,6.518,2.7V18.511a13.268,13.268,0,0,1-.09,1.476,12.3,12.3,0,0,1-3.511,7.22,12.431,12.431,0,0,1-8.7,3.6H30.81a7.193,7.193,0,0,0-7.2,7.2h-1.8a5.4,5.4,0,0,0-5.4,5.42v.144a5.233,5.233,0,0,0,5.24,5.24h1.963v12.6S21.32,60.267,18.223,58.719Z" transform="translate(-2 -2)" fill="#b27946"/>
        </g>
        <g id="Grupo_952689" data-name="Grupo 952689" transform="translate(86.429 7.292)">
          <path id="Trazado_636600" data-name="Trazado 636600" d="M50.774,6.32l17.394,7.9a2.786,2.786,0,0,1,0,5.078l-17.394,7.9a5.621,5.621,0,0,1-.774.27V6.05a5.62,5.62,0,0,1,.774.27Z" transform="translate(-50 -6.05)" fill="#aab2bd"/>
        </g>
        <g id="Grupo_952690" data-name="Grupo 952690" transform="translate(54.018 86.429)">
          <path id="Trazado_636601" data-name="Trazado 636601" d="M42.8,57.2a7.2,7.2,0,1,1,0,14.4H32V57.2l1.224-4.9a3.033,3.033,0,0,1,5.978.72V57.2Z" transform="translate(-32 -50)" fill="#f0d0b4"/>
        </g>
        <g id="Grupo_952691" data-name="Grupo 952691" transform="translate(14.405 27.693)">
          <path id="Trazado_636602" data-name="Trazado 636602" d="M42.411,18.5v5.4a7.2,7.2,0,0,0,2.881,5.762l3.367,2.521a2.431,2.431,0,0,1,.954,1.927A2.4,2.4,0,0,1,47.218,36.5H42.411V43c0,.234-.018.468-.036.7a7.9,7.9,0,0,1-7.869,7.2,12.9,12.9,0,0,1-2.9-.342v6.662A24.957,24.957,0,0,0,22.73,53.32a25.369,25.369,0,0,0-5.528-.612V36.5H15.24A5.233,5.233,0,0,1,10,31.263v-.144a5.4,5.4,0,0,1,5.4-5.42h1.8a7.193,7.193,0,0,1,7.2-7.2h12.91a12.023,12.023,0,0,0,5.1-1.116V18.5Z" transform="translate(-10 -17.38)" fill="#f0d0b4"/>
        </g>
      </g>
      <g id="Grupo_952693" data-name="Grupo 952693" transform="translate(1 1)">
        <path id="Trazado_636603" data-name="Trazado 636603" d="M26.2,22.8a1.8,1.8,0,0,1-3.6,0V21H19v1.8a5.4,5.4,0,0,0,10.8,0V21H26.2Z" transform="translate(13.411 15.012)"/>
        <path id="Trazado_636604" data-name="Trazado 636604" d="M109.036,37.012H65.822a3.6,3.6,0,0,0-3.6,3.6V87.607A4.759,4.759,0,0,0,56.3,91.091l-.884,3.54h-4v-3.6a26.959,26.959,0,0,0-10.8-21.557v-3.72c.362.029.722.068,1.089.068a9.725,9.725,0,0,0,9.714-9.714V51.417h3a4.2,4.2,0,0,0,2.519-7.563l-3.36-2.521a5.424,5.424,0,0,1-2.161-4.321v-3.6H88.378a5.731,5.731,0,0,0,2.371-.513l17.39-7.906a4.6,4.6,0,0,0,0-8.369l-17.4-7.908a5.737,5.737,0,0,0-2.37-.511H58.619V6.62a5.62,5.62,0,0,0-9.594-3.974A18.844,18.844,0,0,1,35.611,8.2H25.875A24.873,24.873,0,0,0,1,33.078v.214A30.963,30.963,0,0,0,18.214,61.136l4.393,2.2V64.61A24.189,24.189,0,0,0,8.2,86.694v.479a25.543,25.543,0,0,0,25.54,25.541h.088l22.988-.077h52.217a3.6,3.6,0,0,0,3.6-3.6V40.613a3.6,3.6,0,0,0-3.6-3.6Zm-61.5,50.6-10.17-6.354,1.921-5.766-6.117-2.04-.888-4.431A23.435,23.435,0,0,1,47.536,87.607Zm7.242-40.87a.6.6,0,0,1-.36,1.079h-6.6v7.2H44.639a4.691,4.691,0,0,1-4.217-2.605L37.2,54.024a8.278,8.278,0,0,0,7.438,4.6h2.622a6.111,6.111,0,0,1-5.558,3.6,10.3,10.3,0,0,1-8.594-4.6l-3,2a13.89,13.89,0,0,0,6.9,5.375v2.168a26.789,26.789,0,0,0-10.8-3.048v-16.3H22.443a3.42,3.42,0,0,1-2.431-1.007,3.506,3.506,0,0,1-1.007-2.568,3.621,3.621,0,0,1,3.6-3.628h3.6v-1.8a5.408,5.408,0,0,1,5.4-5.4H44.524a14.091,14.091,0,0,0,3.291-.4v4a9.043,9.043,0,0,0,3.6,7.2Zm32.65-24.13v7.2H53.909c.194-.175.394-.34.582-.528a13.994,13.994,0,0,0,3.727-6.675Zm3.6-9.808,7.2,3.273V25.54l-7.2,3.273Zm16.205,8.007a1,1,0,0,1-.583.906L101.834,23.9V17.71l4.82,2.191a1,1,0,0,1,.582.906Zm-19.807-9v7.2H58.619V11.8ZM19.823,57.915A27.381,27.381,0,0,1,4.6,33.292v-.214A21.274,21.274,0,0,1,25.873,11.8h9.736A22.418,22.418,0,0,0,51.57,5.192,2.047,2.047,0,0,1,53,4.6,2.021,2.021,0,0,1,55.018,6.62V19.314a10.494,10.494,0,0,1-10.494,10.5H31.61a9.017,9.017,0,0,0-8.821,7.2h-.178A7.256,7.256,0,0,0,15.4,44.376a7.042,7.042,0,0,0,7.039,7.04h.164v7.89Zm35.194,51.126-21.2.072h-.076A21.938,21.938,0,0,1,11.8,87.173v-.479A20.283,20.283,0,0,1,24.728,67.638a23.579,23.579,0,0,1,3.679.351L30.049,76.2l4.687,1.561L33.056,82.8l14.76,9.228v2.6l-14.837,0h0a4.919,4.919,0,0,1-3.511-1.46,5.074,5.074,0,0,1-1.457-3.68,8,8,0,0,0-4.456-7.2l-.14-.07-.8,1.61-.663,1.682a4.482,4.482,0,0,1,2.463,4.12,8.579,8.579,0,0,0,8.569,8.605h0l22.039,0Zm3.6-.005V96.65l1.17-4.685a1.234,1.234,0,0,1,2.431.3v5.969h5.4a5.4,5.4,0,1,1,0,10.8Zm50.417,0H74.778a8.91,8.91,0,0,0,1.847-5.4,9.013,9.013,0,0,0-9-9h-1.8V40.613h43.214Z" transform="translate(-1 -1)"/>
        <path id="Trazado_636605" data-name="Trazado 636605" d="M67.534,48.293l-1.273,1.273H49V67.572H67.006V53.913l3.074-3.074ZM63.4,63.971H52.6v-10.8H62.659L58,57.824,55.675,55.5l-2.546,2.546L58,62.916l5.4-5.4Z" transform="translate(37.429 36.863)"/>
        <path id="Trazado_636606" data-name="Trazado 636606" d="M44,53h5.4v3.6H44Z" transform="translate(33.426 40.631)"/>
        <path id="Trazado_636607" data-name="Trazado 636607" d="M39,49H53.4v3.6H39Z" transform="translate(29.423 37.429)"/>
        <path id="Trazado_636608" data-name="Trazado 636608" d="M49,37.566V55.572H67.006V41.913l3.074-3.074-2.546-2.546-1.273,1.273Zm14.4,14.4H52.6v-10.8H62.659L58,45.824,55.675,43.5l-2.546,2.546L58,50.916l5.4-5.4Z" transform="translate(37.429 27.256)"/>
        <path id="Trazado_636609" data-name="Trazado 636609" d="M41,43H51.8v3.6H41Z" transform="translate(31.024 32.625)"/>
        <path id="Trazado_636610" data-name="Trazado 636610" d="M39,39H53.4v3.6H39Z" transform="translate(29.423 29.423)"/>
        <path id="Trazado_636611" data-name="Trazado 636611" d="M75.012,25H39V35.8H75.012Zm-3.6,7.2H42.6V28.6h28.81Z" transform="translate(29.423 18.214)"/>
        <path id="Trazado_636612" data-name="Trazado 636612" d="M39,33H49.8v3.6H39Z" transform="translate(29.423 24.619)"/>
        <path id="Trazado_636613" data-name="Trazado 636613" d="M47,33H68.607v3.6H47Z" transform="translate(35.828 24.619)"/>
      </g>
    </g>
  </g>
</svg>
