<svg xmlns="http://www.w3.org/2000/svg" width="164" height="164" viewBox="0 0 164 164"><g transform="translate(-377 -1857)"><g transform="translate(197.186 575.265)"><g transform="translate(195.146 1291.326)"><circle cx="65.203" cy="65.203" r="65.203" transform="translate(0 14.578)" fill="#ff3c00"/><g transform="translate(-13.366 9.178)"><g transform="translate(25.257 1.765)"><g transform="translate(12.348 11.037)"><path d="M124.007,54.053,83.061,93.882v58.509h81.892V93.882Z" transform="translate(-83.061 -54.053)" fill="#dfebfa"/></g><path d="M92.772,99.856a5.173,5.173,0,0,1,1.566-3.708L130.81,60.671l-6.8-6.618L83.061,93.882v58.509h9.711V99.856Z" transform="translate(-70.713 -43.016)" fill="#b1dbfc"/><g transform="translate(78.388 8.333)"><g transform="translate(0 0)"><path d="M361.9,42.635v14.85l13.112,12.754v-27.6Z" transform="translate(-361.903 -42.635)" fill="#695d67"/></g></g><path d="M369.5,58.494a3.426,3.426,0,0,1-1.038-2.456v-13.4H361.9v14.85l13.112,12.754V63.862Z" transform="translate(-283.515 -34.302)" fill="#544e55"/><path d="M136.026,55.911,87.637,8.841a4.9,4.9,0,0,0-6.84,0L32.408,55.911a4.9,4.9,0,1,0,6.84,7.031l44.3-43.088a.965.965,0,0,1,1.346,0l44.3,43.088a4.9,4.9,0,1,0,6.84-7.031Z" transform="translate(-30.923 -7.452)" fill="#ff656f"/><g transform="translate(0)"><path d="M83.544,19.853a.958.958,0,0,1,.6-.266l4.312-4.194a4.9,4.9,0,0,1,4.657-1.226L87.637,8.84a4.9,4.9,0,0,0-6.84,0L32.408,55.91a4.9,4.9,0,1,0,6.84,7.031Z" transform="translate(-30.923 -7.451)" fill="#ff4756"/></g><path d="M366.562,14.782V9.165a1.713,1.713,0,0,0-1.713-1.713H347.556a1.713,1.713,0,0,0-1.713,1.713v5.618a1.712,1.712,0,0,0,1.713,1.713h17.293A1.712,1.712,0,0,0,366.562,14.782Z" transform="translate(-271.259 -7.452)" fill="#7b6c79"/><path d="M352.4,14.782V9.165a1.712,1.712,0,0,1,1.713-1.713h-6.556a1.713,1.713,0,0,0-1.713,1.713v5.618a1.713,1.713,0,0,0,1.713,1.713h6.556A1.713,1.713,0,0,1,352.4,14.782Z" transform="translate(-271.259 -7.452)" fill="#695d67"/><path d="M123.063,282.028h27.466v44.346H123.063Z" transform="translate(-101.241 -216.999)" fill="#ab6b51"/><path d="M123.063,282.028h8.9v44.346h-8.9Z" transform="translate(-101.241 -216.999)" fill="#965a44"/><path d="M272.862,283.028v33.164a1.324,1.324,0,0,0,1.324,1.324H299a1.325,1.325,0,0,0,1.324-1.324V283.028Z" transform="translate(-215.562 -217.762)" fill="#60b8fe"/><path d="M281.757,316.192V283.028h-8.9v33.164a1.324,1.324,0,0,0,1.324,1.324h8.9A1.324,1.324,0,0,1,281.757,316.192Z" transform="translate(-215.562 -217.762)" fill="#23a8fe"/><path d="M299,247.616H274.186a1.324,1.324,0,0,0-1.324,1.324v7.3h27.466v-7.3A1.324,1.324,0,0,0,299,247.616Z" transform="translate(-215.562 -190.737)" fill="#23a8fe"/><path d="M283.082,247.616h-8.9a1.324,1.324,0,0,0-1.324,1.324v7.3h8.9v-7.3A1.324,1.324,0,0,1,283.082,247.616Z" transform="translate(-215.562 -190.737)" fill="#0193fa"/><path d="M149.205,247.616H124.387a1.324,1.324,0,0,0-1.324,1.324v7.3h27.466v-7.3A1.324,1.324,0,0,0,149.205,247.616Z" transform="translate(-101.241 -190.737)" fill="#bc7c63"/><path d="M133.283,247.616h-8.9a1.324,1.324,0,0,0-1.324,1.324v7.3h8.9v-7.3A1.324,1.324,0,0,1,133.283,247.616Z" transform="translate(-101.241 -190.737)" fill="#ab6b51"/><circle cx="3.556" cy="3.556" r="3.556" transform="translate(36.16 81.035)" fill="#dfebfa"/><path d="M155.592,466.271H70.242a1.713,1.713,0,0,0-1.713,1.713V473.6a1.712,1.712,0,0,0,1.713,1.713h85.35A1.713,1.713,0,0,0,157.3,473.6v-5.618A1.713,1.713,0,0,0,155.592,466.271Z" transform="translate(-59.623 -357.607)" fill="#43cb8e"/><path d="M79.364,473.6v-5.618a1.713,1.713,0,0,1,1.713-1.712H70.242a1.713,1.713,0,0,0-1.713,1.712V473.6a1.713,1.713,0,0,0,1.713,1.713H81.077A1.713,1.713,0,0,1,79.364,473.6Z" transform="translate(-59.623 -357.607)" fill="#00ba66"/></g><g transform="translate(23.498 0)"><path d="M25.392,58.423a6.679,6.679,0,0,0,9.447.13l1.008-.981v51.108a3.491,3.491,0,0,0-3.441,3.486v5.618a3.493,3.493,0,0,0,3.489,3.489h85.35a3.493,3.493,0,0,0,3.489-3.489v-5.618a3.492,3.492,0,0,0-3.442-3.486V57.573l1.008.981a6.681,6.681,0,0,0,9.317-9.578l-13.066-12.71V25.1a1.776,1.776,0,0,0-3.553,0V32.81l-9.559-9.3v-10.9H115v4.2a1.776,1.776,0,0,0,3.553,0v-4.2a3.513,3.513,0,0,0,3.8-3.489V3.5A3.493,3.493,0,0,0,118.866.014H101.573A3.493,3.493,0,0,0,98.084,3.5V9.121a3.51,3.51,0,0,0,3.8,3.489v7.447L83.229,1.906a6.646,6.646,0,0,0-9.317,0L25.523,48.976a6.677,6.677,0,0,0-.13,9.447Zm95.789,59.3H35.959v-5.491h85.223ZM73.24,56.893H64.976a1.776,1.776,0,1,0,0,3.553h7.812v5.071H48.874V60.446h7.812a1.776,1.776,0,0,0,0-3.553H48.422a3.1,3.1,0,0,0-3.1,3.1v48.684H39.4V54.117l39.17-38.1,39.17,38.1v54.561h-41.4V59.993A3.1,3.1,0,0,0,73.24,56.893Zm-.452,12.176v39.609H48.874V69.069ZM101.636,9.057V3.566H118.8V9.057ZM28,51.522,76.388,4.453a3.112,3.112,0,0,1,4.363,0l48.389,47.07a3.128,3.128,0,0,1-4.363,4.485L79.809,12.264a1.776,1.776,0,0,0-2.477,0L32.362,56.007A3.128,3.128,0,0,1,28,51.522Z" transform="translate(-23.498 0)"/><path d="M268.544,286.649h24.818a3.1,3.1,0,0,0,3.1-3.1V243.322a3.1,3.1,0,0,0-3.1-3.1H268.544a3.1,3.1,0,0,0-3.1,3.1v40.226A3.1,3.1,0,0,0,268.544,286.649Zm24.366-3.553H282.729V269.523h10.181Zm0-17.126H282.729V252.4h10.181ZM269,243.774h23.914v5.071H269Zm0,8.624h10.181v13.573H269Zm0,17.126h10.181V283.1H269Z" transform="translate(-208.142 -183.328)"/><path d="M181.517,352.877a5.332,5.332,0,1,0-5.332-5.332A5.338,5.338,0,0,0,181.517,352.877Zm0-7.112a1.78,1.78,0,1,1-1.78,1.78A1.782,1.782,0,0,1,181.517,345.766Z" transform="translate(-140.023 -261.165)"/></g></g></g><rect width="164" height="164" transform="translate(179.814 1281.735)" fill="none"/></g></g></svg>