<svg xmlns="http://www.w3.org/2000/svg" width="114" height="114" viewBox="0 0 114 114"><g transform="translate(-180 -2167.922)"><g transform="translate(180 2167.922)" fill="#fff" stroke="#ff3c00" stroke-width="5"><circle cx="57" cy="57" r="57" stroke="none"/><circle cx="57" cy="57" r="54.5" fill="none"/></g><g transform="translate(204.482 2190.492)"><g transform="translate(0 2.429)"><g transform="translate(0 0)"><path d="M42.278,28.347l-3.79-1.528a17.243,17.243,0,0,0-.055-6.051l3.758-1.6a1.229,1.229,0,0,0,.65-1.612l-1.924-4.524a1.229,1.229,0,0,0-1.612-.65l-3.758,1.6a17.241,17.241,0,0,0-4.32-4.237l1.528-3.79a1.229,1.229,0,0,0-.68-1.6L27.517,2.519a1.229,1.229,0,0,0-1.6.68L24.39,6.988a17.161,17.161,0,0,0-6.051.055l-1.6-3.758a1.229,1.229,0,0,0-1.612-.65L10.605,4.558a1.229,1.229,0,0,0-.65,1.612l1.6,3.758a17.241,17.241,0,0,0-4.237,4.32L3.527,12.72a1.229,1.229,0,0,0-1.6.68L.089,17.959a1.229,1.229,0,0,0,.68,1.6l3.79,1.528a17.244,17.244,0,0,0,.055,6.051l-3.758,1.6a1.229,1.229,0,0,0-.65,1.612l1.924,4.524a1.229,1.229,0,0,0,1.612.65l3.758-1.6a17.243,17.243,0,0,0,4.32,4.237l-1.528,3.79a1.229,1.229,0,0,0,.68,1.6l4.559,1.838a1.228,1.228,0,0,0,1.6-.68l1.528-3.789a17.16,17.16,0,0,0,6.051-.055l1.6,3.758a1.229,1.229,0,0,0,1.612.65l4.524-1.924a1.229,1.229,0,0,0,.65-1.612l-1.6-3.758a17.244,17.244,0,0,0,4.237-4.32l3.79,1.528a1.229,1.229,0,0,0,1.6-.68l1.838-4.559A1.229,1.229,0,0,0,42.278,28.347Zm-2.978,4.1L35.7,31a1.229,1.229,0,0,0-1.516.511,14.743,14.743,0,0,1-4.873,4.968A1.229,1.229,0,0,0,28.833,38l1.516,3.566-2.262.962-1.516-3.566a1.229,1.229,0,0,0-1.434-.71,14.728,14.728,0,0,1-6.958.063,1.229,1.229,0,0,0-1.42.737l-1.45,3.6-2.28-.919,1.45-3.6a1.229,1.229,0,0,0-.511-1.516A14.743,14.743,0,0,1,9,31.745a1.229,1.229,0,0,0-1.525-.483L3.91,32.779l-.962-2.262L6.514,29a1.229,1.229,0,0,0,.71-1.434,14.744,14.744,0,0,1-.063-6.958,1.229,1.229,0,0,0-.737-1.42l-3.6-1.45.919-2.28,3.6,1.45A1.229,1.229,0,0,0,8.859,16.4a14.742,14.742,0,0,1,4.873-4.968,1.229,1.229,0,0,0,.483-1.525L12.7,6.339l2.262-.962,1.516,3.566a1.229,1.229,0,0,0,1.434.71,14.729,14.729,0,0,1,6.958-.063,1.229,1.229,0,0,0,1.42-.737l1.45-3.6,2.28.919-1.45,3.6a1.229,1.229,0,0,0,.511,1.516,14.742,14.742,0,0,1,4.968,4.873,1.229,1.229,0,0,0,1.525.483l3.566-1.516.962,2.262-3.566,1.516a1.229,1.229,0,0,0-.71,1.434,14.743,14.743,0,0,1,.063,6.958,1.229,1.229,0,0,0,.737,1.42l3.6,1.45Z" transform="translate(0 -2.429)" fill="#992400"/></g></g><g transform="translate(12.917 15.349)"><g transform="translate(0 0)"><path d="M121.63,112.795a8.606,8.606,0,1,0-4.55,11.283A8.593,8.593,0,0,0,121.63,112.795Zm-5.512,9.021a6.146,6.146,0,1,1,3.25-8.059A6.1,6.1,0,0,1,116.118,121.816Z" transform="translate(-105.106 -107.557)" fill="#992400"/></g></g><g transform="translate(24.227 11.079)"><path d="M207.691,83.021a13.471,13.471,0,0,0-3.945-7.138,13.458,13.458,0,0,0-4.981-3.007,1.229,1.229,0,0,0-1.494,1.711,1.22,1.22,0,0,0,.709.618,11.073,11.073,0,0,1,6.892,14.156,1.229,1.229,0,0,0,.752,1.567,1.247,1.247,0,0,0,.408.069,1.231,1.231,0,0,0,1.159-.821,13.57,13.57,0,0,0,.5-7.155Z" transform="translate(-197.142 -72.811)" fill="#992400"/></g><g transform="translate(29.382 30.996)"><path d="M241.144,235.2a1.228,1.228,0,1,0,.081,1.736A1.229,1.229,0,0,0,241.144,235.2Z" transform="translate(-239.088 -234.881)" fill="#992400"/></g><g transform="translate(33.426 35.259)"><path d="M300.264,280.63h-3.088a11.023,11.023,0,0,0-.449-1.08l2.185-2.185a1.229,1.229,0,0,0,0-1.738l-3.476-3.476a1.229,1.229,0,0,0-1.738,0l-2.185,2.185a10.992,10.992,0,0,0-1.08-.449V270.8a1.229,1.229,0,0,0-1.229-1.229h-4.916a1.229,1.229,0,0,0-1.229,1.229v3.088a11.009,11.009,0,0,0-1.08.449l-2.185-2.185a1.229,1.229,0,0,0-1.738,0l-3.476,3.476a1.229,1.229,0,0,0,0,1.738l2.185,2.185a10.993,10.993,0,0,0-.449,1.08h-3.088A1.229,1.229,0,0,0,272,281.859v4.916A1.229,1.229,0,0,0,273.228,288h3.088a11.031,11.031,0,0,0,.449,1.08l-2.185,2.185a1.229,1.229,0,0,0,0,1.738l3.476,3.476a1.229,1.229,0,0,0,1.738,0l2.185-2.185a10.972,10.972,0,0,0,1.08.449v3.088a1.229,1.229,0,0,0,1.229,1.229H289.2a1.229,1.229,0,0,0,1.229-1.229v-3.088a11.007,11.007,0,0,0,1.08-.449l2.185,2.185a1.229,1.229,0,0,0,1.738,0l3.476-3.476a1.229,1.229,0,0,0,0-1.738l-2.185-2.185a10.972,10.972,0,0,0,.449-1.08h3.088a1.229,1.229,0,0,0,1.229-1.229v-4.916A1.229,1.229,0,0,0,300.264,280.63Zm-1.229,4.916h-2.768a1.229,1.229,0,0,0-1.19.923,8.543,8.543,0,0,1-.921,2.216,1.229,1.229,0,0,0,.189,1.494l1.959,1.959-1.738,1.738-1.959-1.959a1.229,1.229,0,0,0-1.494-.189,8.549,8.549,0,0,1-2.216.921,1.229,1.229,0,0,0-.923,1.19v2.768h-2.458v-2.768a1.229,1.229,0,0,0-.923-1.19,8.542,8.542,0,0,1-2.216-.921,1.229,1.229,0,0,0-1.494.189l-1.959,1.959-1.738-1.738,1.959-1.959a1.229,1.229,0,0,0,.189-1.494,8.544,8.544,0,0,1-.921-2.216,1.229,1.229,0,0,0-1.19-.923h-2.768v-2.458h2.768a1.229,1.229,0,0,0,1.19-.923,8.543,8.543,0,0,1,.921-2.216,1.229,1.229,0,0,0-.189-1.494l-1.959-1.959,1.738-1.738,1.959,1.959a1.229,1.229,0,0,0,1.494.189,8.548,8.548,0,0,1,2.216-.921,1.229,1.229,0,0,0,.923-1.19v-2.768h2.458V274.8a1.229,1.229,0,0,0,.923,1.19,8.55,8.55,0,0,1,2.216.921,1.229,1.229,0,0,0,1.494-.189l1.959-1.959L296.3,276.5l-1.959,1.959a1.229,1.229,0,0,0-.189,1.494,8.549,8.549,0,0,1,.921,2.216,1.229,1.229,0,0,0,1.19.923h2.768Z" transform="translate(-271.999 -269.57)" fill="#992400"/></g><g transform="translate(42.029 43.861)"><path d="M348.145,339.57a6.145,6.145,0,1,0,6.145,6.145A6.152,6.152,0,0,0,348.145,339.57Zm0,9.831a3.687,3.687,0,1,1,3.687-3.687A3.691,3.691,0,0,1,348.145,349.4Z" transform="translate(-342 -339.57)" fill="#992400"/></g><g transform="translate(20.294 22.724)"><path d="M167.238,167.931a1.228,1.228,0,1,0,.36.869A1.238,1.238,0,0,0,167.238,167.931Z" transform="translate(-165.14 -167.571)" fill="#992400"/></g><g transform="translate(46.945 48.777)"><path d="M384.1,379.93a1.228,1.228,0,1,0,.36.869A1.238,1.238,0,0,0,384.1,379.93Z" transform="translate(-382 -379.57)" fill="#992400"/></g></g></g></svg>