<svg xmlns="http://www.w3.org/2000/svg" xmlns:xlink="http://www.w3.org/1999/xlink" width="190" height="167" viewBox="0 0 190 167"><defs><clipPath id="a"><rect width="190" height="167" transform="translate(495 5697)" fill="#fff" stroke="#707070" stroke-width="1"/></clipPath></defs><g transform="translate(-495 -5697)" clip-path="url(#a)"><g transform="translate(-363.747 1404.598)"><g transform="translate(880.435 4293.711)"><path d="M973.005,4456.307v5.427a8.129,8.129,0,0,1-8.118,8.141H891.6a8.155,8.155,0,0,1-8.14-8.141v-5.427a8.129,8.129,0,0,1,8.119-8.14h73.283a8.128,8.128,0,0,1,8.139,8.118Z" transform="translate(-880.751 -4309.833)" fill="#fedb8e"/><path d="M973.005,4432.07v5.427a8.129,8.129,0,0,1-8.118,8.14H891.6a8.155,8.155,0,0,1-8.14-8.14v-5.427a8.13,8.13,0,0,1,8.119-8.14h73.283a8.129,8.129,0,0,1,8.139,8.119Z" transform="translate(-880.751 -4307.303)" fill="#fedb8e"/><path d="M973.005,4407.833v5.426a8.128,8.128,0,0,1-8.118,8.14H891.6a8.155,8.155,0,0,1-8.14-8.14v-5.426a8.131,8.131,0,0,1,8.119-8.141h73.283a8.129,8.129,0,0,1,8.139,8.119Z" transform="translate(-880.751 -4304.773)" fill="#fedb8e"/><path d="M964.856,4450.879v5.427a8.13,8.13,0,0,1-8.119,8.14H883.943a30.372,30.372,0,0,1-.489-8.14,8.129,8.129,0,0,1,8.119-8.14h72.794A7.527,7.527,0,0,1,964.856,4450.879Z" transform="translate(-880.741 -4309.833)" fill="#fff" opacity="0.2" style="isolation:isolate"/><path d="M964.856,4426.644v5.426a8.131,8.131,0,0,1-8.119,8.141H883.943a30.377,30.377,0,0,1-.489-8.141,8.13,8.13,0,0,1,8.119-8.14h72.794A7.533,7.533,0,0,1,964.856,4426.644Z" transform="translate(-880.741 -4307.303)" fill="#fff" opacity="0.2" style="isolation:isolate"/><path d="M964.856,4402.407v5.426a8.131,8.131,0,0,1-8.119,8.14H883.943a30.376,30.376,0,0,1-.489-8.14,8.131,8.131,0,0,1,8.119-8.141h72.794A7.535,7.535,0,0,1,964.856,4402.407Z" transform="translate(-880.741 -4304.773)" fill="#fff" opacity="0.2" style="isolation:isolate"/><path d="M937.534,4332.009h-6.484v-29.848a5.444,5.444,0,0,0-5.427-5.427H914.769a5.444,5.444,0,0,0-5.427,5.427v29.848h-6.485a5.435,5.435,0,0,0-4.612,8.3l17.338,27.757a5.5,5.5,0,0,0,3.039,2.308,5.435,5.435,0,0,0,6.187-2.308l17.338-27.757a5.436,5.436,0,0,0-4.613-8.3Z" transform="translate(-882.208 -4294.026)" fill="#992400"/><path d="M929.394,4338.068h-6.485v-29.847a5.443,5.443,0,0,0-5.427-5.427h-8.14v29.848h-6.485a5.435,5.435,0,0,0-4.612,8.3l17.338,27.757a5.494,5.494,0,0,0,3.039,2.307l15.385-24.638a5.435,5.435,0,0,0-4.612-8.3Z" transform="translate(-882.208 -4294.659)" fill="#ff3c00" style="isolation:isolate"/><path d="M1047.809,4412.179c.378,40.971-48.866,63.833-79.854,37.715-35-28.618-14.773-86.561,31.014-86.556A48.894,48.894,0,0,1,1047.809,4412.179Z" transform="translate(-887.72 -4300.979)" fill="#d6d6d6"/><path d="M1039.644,4406.74c.517,36.378-40.154,60.578-71.769,43.116-44.254-38.462,1.206-107.024,54-80.805A48.753,48.753,0,0,1,1039.644,4406.74Z" transform="translate(-887.695 -4300.967)" fill="#fff" opacity="0.2" style="isolation:isolate"/><path d="M1020.236,4424.622a16.3,16.3,0,0,1-12.21,15.738v3.255a5.428,5.428,0,0,1-10.854,0V4440.9h-6.783a5.428,5.428,0,0,1,0-10.854h13.566a5.427,5.427,0,0,0,0-10.853c-20.73,1.985-26.556-26.049-6.783-32.018v-3.256a5.428,5.428,0,0,1,10.854,0v2.713h6.783a5.427,5.427,0,0,1,0,10.853h-13.566a5.428,5.428,0,0,0,0,10.854,16.7,16.7,0,0,1,18.993,16.279Z" transform="translate(-891.351 -4302.568)" fill="#4ecc71"/><path d="M1008.487,4408.994a16.362,16.362,0,0,1-8.6,25.939v3.256a5.123,5.123,0,0,1-2.714,4.532V4440.9h-6.783a5.428,5.428,0,0,1,0-10.854h13.566a5.427,5.427,0,0,0,0-10.853c-20.73,1.985-26.556-26.049-6.783-32.018v-3.256a5.428,5.428,0,0,1,10.854,0v2.713h4.07a5.442,5.442,0,0,1-5.427,5.426H993.1a5.427,5.427,0,0,0,0,10.854h2.714A16.231,16.231,0,0,1,1008.487,4408.994Z" transform="translate(-891.351 -4302.568)" fill="#fff" opacity="0.2" style="isolation:isolate"/><path d="M991.684,4360.314a51.6,51.6,0,0,0-47.883,32.56H891.288a10.865,10.865,0,0,0-10.853,10.854v5.428a10.709,10.709,0,0,1,0,16.279v5.427a10.71,10.71,0,0,1,0,16.28v5.426a10.865,10.865,0,0,0,10.853,10.854H964.55a10.793,10.793,0,0,0,8.118-3.68c32.7,13.826,71.318-12.217,70.569-47.875A51.611,51.611,0,0,0,991.684,4360.314Zm-105.822,48.841v-5.428a5.432,5.432,0,0,1,5.426-5.426H942a48.064,48.064,0,0,0-1.734,16.28H891.288a5.433,5.433,0,0,1-5.426-5.427Zm0,21.706v-5.427a5.433,5.433,0,0,1,5.426-5.427h49.548a51.2,51.2,0,0,0,5.461,16.281H891.288a5.433,5.433,0,0,1-5.426-5.427Zm78.688,27.133H891.288a5.432,5.432,0,0,1-5.426-5.427v-5.426a5.432,5.432,0,0,1,5.426-5.426h58.438a51.9,51.9,0,0,0,17.542,15.543,5.408,5.408,0,0,1-2.719.736Zm27.134,0a46.178,46.178,0,0,1-46.128-46.127c2.534-61.194,89.731-61.176,92.255,0a46.178,46.178,0,0,1-46.127,46.126Z" transform="translate(-880.435 -4300.663)"/><path d="M1000.92,4399.891h13.567a8.141,8.141,0,0,0,0-16.281h-4.07a8.181,8.181,0,1,0-16.28,1.271c-19.448,7.55-14.149,36.567,6.783,36.716h2.713a2.715,2.715,0,0,1,0,5.427H990.066a8.141,8.141,0,1,0,0,16.281h4.07a8.181,8.181,0,1,0,16.28-1.271c19.446-7.546,14.151-36.569-6.783-36.717h-2.713a2.714,2.714,0,0,1,0-5.426Zm0,10.853c17.481-1.936,22.914,21.429,6.1,26.685-2.649.613-1.958,3.9-2.032,5.876a2.714,2.714,0,0,1-5.427,0v-2.714a2.713,2.713,0,0,0-2.712-2.713h-6.785a2.714,2.714,0,0,1,0-5.427h13.567a8.14,8.14,0,0,0,0-16.28c-17.328,2.155-22.893-21.626-6.1-26.685,2.633-.589,1.966-3.921,2.032-5.876a2.714,2.714,0,0,1,5.427,0v2.713a2.713,2.713,0,0,0,2.712,2.713h6.785a2.714,2.714,0,0,1,0,5.427H1000.92a8.14,8.14,0,0,0,0,16.28Z" transform="translate(-891.029 -4302.253)"/><path d="M914.457,4293.711h10.854a8.147,8.147,0,0,1,8.139,8.139v27.134h3.776a8.184,8.184,0,0,1,6.9,12.454l-17.342,27.749a8.191,8.191,0,0,1-13.806,0l-17.343-27.749a8.184,8.184,0,0,1,6.9-12.454h3.776v-27.134A8.149,8.149,0,0,1,914.457,4293.711Zm-11.916,40.7a2.717,2.717,0,0,0-2.3,4.152l17.343,27.748a2.717,2.717,0,0,0,3.746.859,2.682,2.682,0,0,0,.86-.859l17.343-27.748a2.716,2.716,0,0,0-2.3-4.152h-6.489a2.714,2.714,0,0,1-2.714-2.711v-29.85a2.716,2.716,0,0,0-2.713-2.713H914.457a2.717,2.717,0,0,0-2.714,2.713V4331.7a2.712,2.712,0,0,1-2.712,2.713H902.54Z" transform="translate(-881.896 -4293.711)"/></g></g></g></svg>