<svg xmlns="http://www.w3.org/2000/svg" width="164" height="164" viewBox="0 0 164 164"><g transform="translate(-728 -1857)"><g transform="translate(548.186 575.265)"><g transform="translate(195.146 1291.326)"><circle cx="65.203" cy="65.203" r="65.203" transform="translate(0 14.578)" fill="#ff3c00"/><g transform="translate(5.168 11.41)"><g transform="translate(1.95 31.2)"><path d="M344,128v48.318a5.787,5.787,0,0,1,0,8.664v2.341a9.744,9.744,0,0,1,5.85,8.927v1.95h.823a9.736,9.736,0,0,1,17.854,0H375.2V128Z" transform="translate(-262.1 -128)" fill="#dfdeed"/><path d="M37.25,180.65a5.814,5.814,0,0,1,1.95-4.332V128H8v70.2h6.673a9.736,9.736,0,0,1,17.854,0h.823v-1.95a9.744,9.744,0,0,1,5.85-8.927v-2.341A5.814,5.814,0,0,1,37.25,180.65Z" transform="translate(-8 -128)" fill="#dfdeed"/></g><path d="M136,8V85.568a5.842,5.842,0,1,1,3.9,10.182,9.75,9.75,0,0,1,9.75,9.75,11.7,11.7,0,1,1,23.4,0,9.75,9.75,0,0,1,9.75-9.75,5.848,5.848,0,1,1,3.9-10.182V8Z" transform="translate(-102.85 -6.05)" fill="#92b1f9"/><circle cx="7.5" cy="7.5" r="7.5" transform="translate(51 72)" fill="#f73445"/><g transform="translate(12.168 84.24)"><circle cx="5.5" cy="5.5" r="5.5" transform="translate(-0.168 -0.24)" fill="#fed966"/><circle cx="5.5" cy="5.5" r="5.5" transform="translate(81.832 -0.24)" fill="#fed966"/></g><path d="M203.7,360a11.7,11.7,0,0,1,11.7,11.7v15.6H192V371.7A11.7,11.7,0,0,1,203.7,360Z" transform="translate(-145.2 -272.25)" fill="#f73445"/><g transform="translate(7.8 9.75)"><path d="M41.75,392a9.75,9.75,0,0,1,9.75,9.75v9.75H32v-9.75A9.75,9.75,0,0,1,41.75,392Z" transform="translate(-32 -306.2)" fill="#fed966"/><path d="M121.75,368a9.75,9.75,0,0,1,9.75,9.75v15.6H112v-15.6A9.75,9.75,0,0,1,121.75,368Z" transform="translate(-92.5 -288.05)" fill="#fed966"/><ellipse cx="6" cy="5.5" rx="6" ry="5.5" transform="translate(23.2 69.25)" fill="#fed966"/><path d="M377.75,392a9.75,9.75,0,0,1,9.75,9.75v9.75H368v-9.75A9.75,9.75,0,0,1,377.75,392Z" transform="translate(-286.1 -306.2)" fill="#fed966"/><path d="M297.75,368a9.75,9.75,0,0,1,9.75,9.75v15.6H288v-15.6A9.75,9.75,0,0,1,297.75,368Z" transform="translate(-225.6 -288.05)" fill="#fed966"/><ellipse cx="6" cy="5.5" rx="6" ry="5.5" transform="translate(66.2 69.25)" fill="#fed966"/><path d="M192,40h23.4V55.6H192Z" transform="translate(-153 -40)" fill="#fed966"/></g><path d="M168,160h3.9v3.9H168Z" transform="translate(-127.05 -121)"/><path d="M168,192h3.9v3.9H168Z" transform="translate(-127.05 -145.2)"/><path d="M168,224h3.9v3.9H168Z" transform="translate(-127.05 -169.4)"/><path d="M168,256h3.9v3.9H168Z" transform="translate(-127.05 -193.6)"/><path d="M200,160h3.9v3.9H200Z" transform="translate(-151.25 -121)"/><path d="M200,192h3.9v3.9H200Z" transform="translate(-151.25 -145.2)"/><path d="M200,224h3.9v3.9H200Z" transform="translate(-151.25 -169.4)"/><path d="M200,256h3.9v3.9H200Z" transform="translate(-151.25 -193.6)"/><path d="M232,160h3.9v3.9H232Z" transform="translate(-175.45 -121)"/><path d="M232,192h3.9v3.9H232Z" transform="translate(-175.45 -145.2)"/><path d="M232,224h3.9v3.9H232Z" transform="translate(-175.45 -169.4)"/><path d="M232,256h3.9v3.9H232Z" transform="translate(-175.45 -193.6)"/><path d="M264,160h3.9v3.9H264Z" transform="translate(-199.65 -121)"/><path d="M200,128h3.9v3.9H200Z" transform="translate(-151.25 -96.8)"/><path d="M232,128h3.9v3.9H232Z" transform="translate(-175.45 -96.8)"/><path d="M264,128h3.9v3.9H264Z" transform="translate(-199.65 -96.8)"/><path d="M264,192h3.9v3.9H264Z" transform="translate(-199.65 -145.2)"/><path d="M264,224h3.9v3.9H264Z" transform="translate(-199.65 -169.4)"/><path d="M264,256h3.9v3.9H264Z" transform="translate(-199.65 -193.6)"/><path d="M296,160h3.9v3.9H296Z" transform="translate(-223.85 -121)"/><path d="M296,192h3.9v3.9H296Z" transform="translate(-223.85 -145.2)"/><path d="M296,224h3.9v3.9H296Z" transform="translate(-223.85 -169.4)"/><path d="M296,256h3.9v3.9H296Z" transform="translate(-223.85 -193.6)"/><path d="M115.05,29.25H85.8V1.95A1.949,1.949,0,0,0,83.852,0H33.15A1.949,1.949,0,0,0,31.2,1.948v27.3H1.95A1.949,1.949,0,0,0,0,31.2v70.2a1.949,1.949,0,0,0,1.948,1.95H6.026a11.7,11.7,0,0,0-.176,1.95v9.75A1.949,1.949,0,0,0,7.8,117H109.2a1.949,1.949,0,0,0,1.95-1.948V105.3a11.676,11.676,0,0,0-.176-1.95h4.076A1.949,1.949,0,0,0,117,101.4V31.2a1.949,1.949,0,0,0-1.948-1.95Zm-31.2,54.6a3.9,3.9,0,1,1-3.9-3.9A3.9,3.9,0,0,1,83.85,83.85Zm-46.8-3.9a3.9,3.9,0,1,1-3.9,3.9A3.9,3.9,0,0,1,37.05,79.95ZM25.35,113.1H9.75v-7.8a7.8,7.8,0,0,1,15.6,0ZM13.65,89.7a3.9,3.9,0,1,1,3.9,3.9A3.9,3.9,0,0,1,13.65,89.7Zm12,7.172a11.755,11.755,0,0,0-2.453-1.816,7.8,7.8,0,1,0-11.285,0A11.776,11.776,0,0,0,7.433,99.45H3.9V33.15H31.2V78.745a7.694,7.694,0,0,0,.208,10.462A11.733,11.733,0,0,0,25.645,96.872ZM44.85,113.1H29.25V99.45a7.8,7.8,0,1,1,15.6,0Zm23.4,0H48.75V99.45a9.75,9.75,0,1,1,19.5,0ZM52.65,79.95A5.85,5.85,0,1,1,58.5,85.8,5.85,5.85,0,0,1,52.65,79.95Zm17.726,12.8a13.735,13.735,0,0,0-5.595-5.4,9.75,9.75,0,1,0-12.562,0,13.734,13.734,0,0,0-5.595,5.4,11.778,11.778,0,0,0-3.932-3.539A7.744,7.744,0,0,0,35.1,76.327V3.9H81.9V76.327a7.766,7.766,0,0,0-7.592,12.88,11.778,11.778,0,0,0-3.932,3.539ZM87.75,105.3v7.8H72.15V99.45a7.8,7.8,0,1,1,15.6,0Zm19.5,7.8H91.65v-7.8a7.8,7.8,0,0,1,15.6,0ZM95.55,89.7a3.9,3.9,0,1,1,3.9,3.9A3.9,3.9,0,0,1,95.55,89.7Zm17.55,9.75h-3.533a11.774,11.774,0,0,0-4.475-4.393,7.8,7.8,0,1,0-11.285,0,11.749,11.749,0,0,0-2.453,1.816,11.732,11.732,0,0,0-5.762-7.666A7.694,7.694,0,0,0,85.8,78.745V33.15h27.3Z"/><path d="M376,184h3.9v31.2H376Z" transform="translate(-284.35 -139.15)"/><path d="M424,184h3.9v31.2H424Z" transform="translate(-320.65 -139.15)"/><path d="M40,184h3.9v31.2H40Z" transform="translate(-30.25 -139.15)"/><path d="M88,184h3.9v31.2H88Z" transform="translate(-66.55 -139.15)"/><path d="M185.95,51.5h23.4a1.949,1.949,0,0,0,1.95-1.948V33.95A1.949,1.949,0,0,0,209.352,32h-23.4A1.949,1.949,0,0,0,184,33.948v15.6a1.949,1.949,0,0,0,1.948,1.95Zm1.95-15.6h19.5V47.6H187.9Z" transform="translate(-139.15 -24.2)"/></g></g><rect width="164" height="164" transform="translate(179.814 1281.735)" fill="none"/></g></g></svg>