<svg xmlns="http://www.w3.org/2000/svg" width="114" height="114" viewBox="0 0 114 114"><g transform="translate(-180 -2435.922)"><g transform="translate(180 2435.922)" fill="#fff" stroke="#ff3c00" stroke-width="5"><circle cx="57" cy="57" r="57" stroke="none"/><circle cx="57" cy="57" r="54.5" fill="none"/></g><g transform="translate(210.384 2469.351)"><path d="M51.057,3.816A3.973,3.973,0,0,0,47.3.06,39.458,39.458,0,0,0,27.52,4.019a38.834,38.834,0,0,0-11.34,9.4l-.121.147-7.486.578a3.952,3.952,0,0,0-3.011,1.772L.455,23.644A2.737,2.737,0,0,0,2.32,27.858l6.307.977c-.022.123-.045.245-.065.368a3.971,3.971,0,0,0,1.113,3.454l8.785,8.785a3.981,3.981,0,0,0,2.81,1.167,3.914,3.914,0,0,0,.645-.054c.123-.02.245-.043.368-.065l.977,6.307a2.735,2.735,0,0,0,4.215,1.864L35.2,45.555a3.951,3.951,0,0,0,1.772-3.011l.578-7.486.147-.121A38.831,38.831,0,0,0,47.1,23.6,39.461,39.461,0,0,0,51.057,3.816ZM33.546,43.056l-7.389,4.885L25.2,41.795a33.549,33.549,0,0,0,9.155-4.359l-.377,4.877a.976.976,0,0,1-.437.743ZM20.577,39.324l-8.785-8.785a.971.971,0,0,1-.277-.843,25.763,25.763,0,0,1,1.169-4.449L25.866,38.429A25.871,25.871,0,0,1,21.42,39.6a.971.971,0,0,1-.843-.277ZM8.8,17.134l4.876-.377a33.546,33.546,0,0,0-4.359,9.155L3.175,24.96l4.885-7.389A.976.976,0,0,1,8.8,17.134Zm26.972,15.5a34.336,34.336,0,0,1-6.933,4.534l-14.9-14.9a34.93,34.93,0,0,1,4.534-6.932A35.74,35.74,0,0,1,28.9,6.68,36.428,36.428,0,0,1,47.138,3.051a.982.982,0,0,1,.929.929,36.425,36.425,0,0,1-3.629,18.242A35.74,35.74,0,0,1,35.776,32.637Z" transform="translate(0 0)" fill="#992400"/><path d="M283.211,101.287a7.482,7.482,0,1,0-5.294-2.19A7.466,7.466,0,0,0,283.211,101.287Zm-3.177-10.661a4.492,4.492,0,1,1-1.316,3.177A4.478,4.478,0,0,1,280.034,90.626Z" transform="translate(-248.196 -77.701)" fill="#992400"/><path d="M1.8,350.849a1.492,1.492,0,0,0,1.059-.439l4.889-4.889A1.5,1.5,0,0,0,5.629,343.4L.74,348.292A1.5,1.5,0,0,0,1.8,350.849Z" transform="translate(-0.272 -308.724)" fill="#992400"/><path d="M11.957,388.284a1.5,1.5,0,0,0-2.118,0l-9.4,9.4A1.5,1.5,0,1,0,2.557,399.8l9.4-9.4A1.5,1.5,0,0,0,11.957,388.284Z" transform="translate(-0.001 -349.124)" fill="#992400"/><path d="M95.391,433.165,90.5,438.055a1.5,1.5,0,1,0,2.118,2.118l4.889-4.889a1.5,1.5,0,0,0-2.118-2.118Z" transform="translate(-81.071 -389.524)" fill="#992400"/></g></g></svg>