<svg xmlns="http://www.w3.org/2000/svg" xmlns:xlink="http://www.w3.org/1999/xlink" width="190" height="167" viewBox="0 0 190 167"><defs><clipPath id="a"><rect width="190" height="167" transform="translate(495 5697)" fill="#fff" stroke="#707070" stroke-width="1"/></clipPath></defs><g transform="translate(-495 -5697)" clip-path="url(#a)"><g transform="translate(504 5697.436)"><path d="M239.9,81.561V190.423a3.4,3.4,0,0,1-3.4,3.4H145.588a3.4,3.4,0,0,1-3.4-3.4V81.561a3.4,3.4,0,0,1,3.4-3.4H236.5A3.4,3.4,0,0,1,239.9,81.561Zm0,0" transform="translate(-96.085 -52.816)" fill="#f44545"/><path d="M388.377,81.561V190.423a3.4,3.4,0,0,1-3.4,3.4H361.891V78.156h23.085a3.4,3.4,0,0,1,3.4,3.4Zm0,0" transform="translate(-244.559 -52.817)" fill="#c42d2d"/><path d="M245.031,331.439a7.241,7.241,0,0,0-3.171,9.746l2.23,4.386a2.127,2.127,0,0,1-1.9,3.091h-8.607l-20.354-.008a4.822,4.822,0,1,0-.133,9.642c-9.511,0-8.969,0-9.01,0a5.048,5.048,0,0,0-3.4,1.522,4.9,4.9,0,0,0-1.311,4.739,4.544,4.544,0,0,0,4.606,3.371h4.285c-.034,0-.067,0-.1,0a4.819,4.819,0,0,0,.1,9.637l15.027.009a4.812,4.812,0,0,0-4.823,4.818,4.821,4.821,0,0,0,4.818,4.82l33.7.011h.089a11.376,11.376,0,0,0,11.379-11.338l-.044-25.474a11.576,11.576,0,0,0-.133-1.752h-6.427a7.7,7.7,0,0,1-6.867-4.211l-5.963-11.71a2.973,2.973,0,0,0-4-1.3Zm0,0" transform="translate(-134.633 -223.761)" fill="#f2bb88"/><path d="M308.587,455.758a11.379,11.379,0,0,1-11.374,10.977h-.087l-38.52-.008a4.817,4.817,0,0,0,4.815,4.719l33.7.011h.087a11.378,11.378,0,0,0,11.381-11.338Zm0,0" transform="translate(-174.761 -307.992)" fill="#e3a76f"/><path d="M417.318,411.184h17.289c3.559,0,6.488-2.194,6.488-4.88v-36c0-2.686-2.909-4.9-6.468-4.9h-17.29c-3.559,0-6.472,2.2-6.473,4.88l-.013,36c0,2.684,2.909,4.9,6.467,4.9Zm0,0" transform="translate(-277.646 -246.931)" fill="#d2d2d7"/><path d="M447.328,411.184h11.929c3.559,0,6.488-2.194,6.488-4.88v-36c0-2.686-2.909-4.9-6.468-4.9H447.328Zm0,0" transform="translate(-302.296 -246.931)" fill="#5596fb"/><path d="M122.467,125.9a7.245,7.245,0,0,1,3.171,9.746l-2.232,4.386a2.128,2.128,0,0,0,1.9,3.091h8.607l20.355-.008a4.822,4.822,0,1,1,.133,9.642c7.61,0,8.96,0,9.01,0a5.045,5.045,0,0,1,3.4,1.522,4.92,4.92,0,0,1,1.312,4.739,4.545,4.545,0,0,1-4.606,3.371h-4.285c.033,0,.067,0,.1,0a4.819,4.819,0,0,1-.1,9.638l-15.026.008a4.807,4.807,0,0,1,4.821,4.818,4.82,4.82,0,0,1-4.818,4.82l-33.7.011h-.087a11.378,11.378,0,0,1-11.381-11.338l.046-25.474a11.416,11.416,0,0,1,.133-1.752h6.427a7.7,7.7,0,0,0,6.867-4.211l5.961-11.71a2.975,2.975,0,0,1,4-1.3Zm0,0" transform="translate(-66.923 -84.864)" fill="#f2bb88"/><path d="M99.042,250.227A11.373,11.373,0,0,0,110.415,261.2h.089l38.52-.006a4.817,4.817,0,0,1-4.815,4.718l-33.7.011h-.089a11.373,11.373,0,0,1-11.379-11.338Zm0,0" transform="translate(-66.926 -169.098)" fill="#e3a76f"/><path d="M37.927,197.662c0,2.684-2.91,4.9-6.464,4.9H14.173c-3.561,0-6.489-2.2-6.489-4.882v-36c0-2.687,2.909-4.9,6.467-4.9H31.443c3.559,0,6.47,2.195,6.474,4.881Zm0,0" transform="translate(-5.193 -105.947)" fill="#ebebf0"/><path d="M24.468,198.023l3.888,4.538H14.174c-3.561,0-6.491-2.195-6.491-4.882v-36c0-2.686,2.909-4.9,6.467-4.9H28.356l-3.888,4.534a4.729,4.729,0,0,0,0,6.154l1.278,1.487a4.73,4.73,0,0,1,0,6.153l-1.278,1.488a4.722,4.722,0,0,0,0,6.149l1.278,1.488a4.73,4.73,0,0,1,0,6.153l-1.278,1.491a4.724,4.724,0,0,0,0,6.15Zm0,0" transform="translate(-5.193 -105.947)" fill="#ffa90b"/><path d="M157.011,114.992H146.19V29a5.866,5.866,0,0,0-5.863-5.861H119.592V19.657A19.652,19.652,0,0,0,91.335,1.985,19.651,19.651,0,0,0,63.078,19.657v3.485H49.417A5.868,5.868,0,0,0,43.555,29V52.935a5.327,5.327,0,0,1-4.833,3.155H35.184v-.144C35.178,51.9,31.17,48.6,26.25,48.6H8.931C4.007,48.606,0,51.912,0,55.968V92.015a6.828,6.828,0,0,0,2.893,5.415,10.092,10.092,0,0,0,6.055,1.93H26.263a10.037,10.037,0,0,0,6.058-1.947,7.706,7.706,0,0,0,1.616-1.648,13.776,13.776,0,0,0,9.57,3.849h.049v38.251a5.866,5.866,0,0,0,5.861,5.857H63.331a6.876,6.876,0,0,0,3.5,2.566,7.285,7.285,0,0,0,6.736,10.042l8.155,0a.2.2,0,0,0-.01.029,7.287,7.287,0,0,0,6.9,9.625l33.835.01a13.776,13.776,0,0,0,9.57-3.846,9.434,9.434,0,0,0,7.67,3.59H157a10.644,10.644,0,0,0,3.873-.723,9.068,9.068,0,0,0,2.182-1.2,6.9,6.9,0,0,0,2.893-5.415V122.353c0-4.057-4.007-7.36-8.935-7.362ZM18.6,83.1l-1.278,1.488a7.146,7.146,0,0,0,0,9.352l.437.509H8.947a5.247,5.247,0,0,1-3.1-.944,2.051,2.051,0,0,1-.93-1.487V55.968c0-1.156,1.716-2.447,4.016-2.451h8.83l-.434.508a7.14,7.14,0,0,0,0,9.352L18.6,64.864a2.256,2.256,0,0,1,0,2.953L17.327,69.3a7.142,7.142,0,0,0,0,9.352L18.6,80.144a2.256,2.256,0,0,1,0,2.952ZM30.28,92a2.068,2.068,0,0,1-.927,1.5c-1.744,1.318-3.907.85-5.118.947l-3.18-3.708a2.258,2.258,0,0,1,0-2.953L22.332,86.3a7.143,7.143,0,0,0,0-9.352l-1.277-1.487a2.256,2.256,0,0,1,0-2.953l1.274-1.487a7.142,7.142,0,0,0,0-9.353l-1.275-1.487a2.256,2.256,0,0,1,0-2.952l3.18-3.707H26.25c2.3,0,4.016,1.284,4.02,2.43,0,.034.011,38.478.01,36.05ZM99.936,4.914a14.759,14.759,0,0,1,14.742,14.743v3.485H102.393V19.657a19.6,19.6,0,0,0-6.16-14.271,14.7,14.7,0,0,1,3.7-.472Zm-8.6,2.78a14.73,14.73,0,0,1,6.144,11.963v3.485H85.192V19.657A14.732,14.732,0,0,1,91.335,7.694ZM67.992,19.657A14.744,14.744,0,0,1,86.439,5.386a19.6,19.6,0,0,0-6.16,14.271v3.485H67.992ZM43.555,94.7h-.049a8.859,8.859,0,0,1-3.836-.865,8.981,8.981,0,0,1-4.476-4.8L35.184,61h3.539a10.119,10.119,0,0,0,9.065-5.56c4.3-8.439,5.557-10.916,5.875-11.541,0,0,0,0,0-.006a0,0,0,0,1,0,0,.139.139,0,0,0,.01-.019,0,0,0,0,0,0,0s0,0,0,0c.013-.023.022-.042.03-.06l0,.009a.116.116,0,0,1,.009-.018c.013-.025.024-.046.03-.061q-.008.017-.019.038c.01-.02.022-.042.034-.068a.529.529,0,0,1,.705-.229,4.805,4.805,0,0,1,2.1,6.455l-2.238,4.39A4.591,4.591,0,0,0,58.416,61l28.995-.01a2.487,2.487,0,0,1,2.5,2.4,2.379,2.379,0,0,1-2.366,2.335H71.027a2.457,2.457,0,1,0,0,4.914H96.481a2.6,2.6,0,0,1,1.75.805c1.432,1.434.836,3.925-1.563,3.925H70.851a2.457,2.457,0,0,0,0,4.914H92.385a2.368,2.368,0,0,1-.006,4.737l-23.533.009a2.457,2.457,0,0,0,0,4.914c9.078,0,9.226-.246,10.166.693a2.371,2.371,0,0,1-1.674,4.044h-.051L43.556,94.7ZM62.1,138.81H49.417a.946.946,0,0,1-.946-.944V99.613l28.871-.01a7.289,7.289,0,0,0,6.9-9.625l-.01-.027,8.155-.006A7.282,7.282,0,0,0,99.119,79.9,7.154,7.154,0,0,0,101.7,67.976c-2.961-2.969-6.225-2.1-7.273-2.244a7.328,7.328,0,0,0-7.018-9.652l-28.464.01,1.991-3.916A9.707,9.707,0,0,0,56.69,39.112a5.432,5.432,0,0,0-7.313,2.378l-.907,1.783V29a.947.947,0,0,1,.946-.946H63.078v9.1a2.458,2.458,0,0,0,4.915,0v-9.1H97.478v9.1a2.458,2.458,0,0,0,4.915,0v-9.1h12.4v77.8a5.427,5.427,0,0,0-5.533-.363A9.726,9.726,0,0,0,105,118.559L107,122.474l-28.462-.006a7.425,7.425,0,0,0-7,4.905,7.115,7.115,0,0,0-.02,4.744H69.465a7.572,7.572,0,0,0-7.362,6.693Zm68.646,16.607a8.931,8.931,0,0,1-8.309,5.669l-33.832-.01a2.373,2.373,0,0,1-1.677-4.043c1.2-1.2,2.324-.5,10.166-.7a2.457,2.457,0,1,0,0-4.914H88.608c-16.325-.025-15.763.258-16.715-.7a2.372,2.372,0,0,1,1.619-4.046h.006a.217.217,0,0,0,.049,0H95.092a2.458,2.458,0,0,0,0-4.915l-21.525,0c-3.44-.163-5.146.448-6.144-.767-1.278-1.555.219-3.964,2.05-3.964H94.919a2.457,2.457,0,1,0,0-4.914H78.343a2.356,2.356,0,0,1-2.185-3.09,2.538,2.538,0,0,1,2.372-1.644l29,.006a4.587,4.587,0,0,0,4.088-6.668l-2.234-4.39a4.8,4.8,0,0,1,2.1-6.454.522.522,0,0,1,.7.229c4.3,8.449,5.557,10.922,5.874,11.544,0,0,0,0,0,0a.056.056,0,0,1,.006.013.026.026,0,0,1,.005.008.021.021,0,0,0,0,.006s0,0,0-.006.009.018.013.027a.189.189,0,0,1,.011.023.038.038,0,0,0-.005-.01c0,.008.008.014.01.02a.138.138,0,0,1,.01.019s0,0,0,0l.01.018-.008-.014c0,.006.006.011.009.016l0,.009s0,0,0,0a.085.085,0,0,1,.008.015s0,0,0-.005a.038.038,0,0,1,.005.01l0,.008s0,0,0-.006a.15.15,0,0,0,.01.02l-.008-.014.01.019a.166.166,0,0,0,.008.015c0,.006,0,.005,0,0,3.175,6.225,9.873,5.517,10.025,5.557h2.579c0,5.153-.009,29.586-.009,28.029Zm-.113-100.029a2.458,2.458,0,0,0-2.457,2.457v64.629c-.26-.06-3.91.542-5.645-2.872l-2.831-5.56V28.058h8.475V48.016a2.457,2.457,0,1,0,4.914,0V28.058h7.234a.946.946,0,0,1,.947.946v85.988H139.7a9.875,9.875,0,0,0-6.6,2.4V57.846a2.457,2.457,0,0,0-2.457-2.457ZM161.031,158.4a2.153,2.153,0,0,1-.789,1.375,5.146,5.146,0,0,1-3.25,1.052h-9.5V146.675a2.458,2.458,0,0,0-4.915,0v14.156h-2.9a5.2,5.2,0,0,1-3.086-.944,2.088,2.088,0,0,1-.93-1.5V156.24c0-.034.013-33.853.013-33.9,0-1.15,1.72-2.432,4.024-2.432h2.875v16.94a2.458,2.458,0,0,0,4.915,0v-16.94h9.521c2.3,0,4.02,1.294,4.02,2.448Zm0,0"/><path d="M467.726,465.375a3.36,3.36,0,1,0,3.361,3.361A3.37,3.37,0,0,0,467.726,465.375Zm0,0" transform="translate(-313.811 -314.491)"/></g></g></svg>