<svg xmlns="http://www.w3.org/2000/svg" width="254.117" height="247.949" viewBox="0 0 254.117 247.949"><g transform="translate(-147.557 -5178.419)"><path d="M158.537,5231.789l-8.772,42.344c3.9,3.96,8.039,7.7,14.719,9.115l32.134,5.648,7.545-49.775Z" transform="translate(-0.376 -9.096)" fill="#fafafa"/><path d="M156.329,5228.64l-8.772,42.345,14.719,9.115,32.134,5.647,9.486-47.78Z" transform="translate(0 -8.559)" fill="#ffeed9"/><path d="M153.546,5276.96l-5.989,2.26a18.62,18.62,0,0,0,5.315,5.436,26.867,26.867,0,0,0,9.4,3.68S155.26,5284.845,153.546,5276.96Z" transform="translate(0 -16.794)" fill="#ffd7a6"/><path d="M151.882,5237.249l21.961-6.812-1.4-4.624-22.322,6.489Z" transform="translate(-0.437 -8.077)" fill="#ffd7a6"/><path d="M216.345,5249.945l-14.235-18.057-3.813,2.967,14.063,18.51Z" transform="translate(-8.647 -9.113)" fill="#ffd7a6"/><g transform="translate(159.466 5236.398)"><path d="M198.08,5255.385c-.017.085-8.126-1.429-18.113-3.382s-18.071-3.605-18.054-3.69,8.125,1.43,18.115,3.383S198.1,5255.3,198.08,5255.385Z" transform="translate(-161.913 -5248.309)" fill="#ffd7a6"/></g><g transform="translate(158.031 5242.889)"><path d="M196.35,5263.211c-.017.085-8.127-1.43-18.113-3.383s-18.071-3.606-18.054-3.69,8.125,1.429,18.115,3.383S196.366,5263.126,196.35,5263.211Z" transform="translate(-160.183 -5256.134)" fill="#ffd7a6"/></g><g transform="translate(157.103 5248.711)"><path d="M195.231,5270.229c-.017.085-8.127-1.43-18.113-3.383s-18.071-3.605-18.054-3.69,8.125,1.429,18.114,3.383S195.247,5270.144,195.231,5270.229Z" transform="translate(-159.064 -5263.152)" fill="#ffd7a6"/></g><g transform="translate(155.975 5254.271)"><path d="M193.872,5276.93c-.017.085-8.126-1.43-18.113-3.382s-18.071-3.605-18.054-3.69,8.125,1.43,18.115,3.383S193.888,5276.846,193.872,5276.93Z" transform="translate(-157.705 -5269.854)" fill="#ffd7a6"/></g><path d="M399.156,5205.556,387.8,5233.24c-3.77.762-7.592,1.308-11.971-.467l-20.618-9.195,14.933-31.472Z" transform="translate(-35.391 -2.333)" fill="#fafafa"/><path d="M401.642,5204.685l-11.354,27.685-11.971-.467-20.618-9.2,13.049-31.079Z" transform="translate(-35.814 -2.251)" fill="#ffeed9"/><path d="M391.962,5236.383l2.562,3.613a12.887,12.887,0,0,1-5.152,1.063,18.615,18.615,0,0,1-6.819-1.529A12.362,12.362,0,0,0,391.962,5236.383Z" transform="translate(-40.05 -9.879)" fill="#ffd7a6"/><path d="M407.759,5212.949l-9.961-12.406,2.594-2.11,10.293,12.36Z" transform="translate(-42.648 -3.411)" fill="#ffd7a6"/><path d="M365.47,5196.758l15.153-4.849,1.039,3.178-15.23,5.175Z" transform="translate(-37.139 -2.299)" fill="#ffd7a6"/><g transform="translate(334.229 5200.641)"><path d="M372.579,5205.208c.034-.08,5.318,2.082,11.8,4.825s11.715,5.034,11.681,5.114-5.317-2.081-11.8-4.826S372.546,5205.289,372.579,5205.208Z" transform="translate(-372.579 -5205.207)" fill="#ffd7a6"/></g><g transform="translate(332.54 5204.92)"><path d="M370.544,5210.367c.033-.08,5.318,2.081,11.8,4.825s11.714,5.034,11.681,5.113-5.318-2.081-11.8-4.825S370.51,5210.446,370.544,5210.367Z" transform="translate(-370.544 -5210.365)" fill="#ffd7a6"/></g><g transform="translate(330.82 5208.619)"><path d="M368.47,5214.826c.033-.08,5.318,2.08,11.8,4.824s11.715,5.034,11.681,5.113-5.318-2.08-11.8-4.825S368.436,5214.905,368.47,5214.826Z" transform="translate(-368.47 -5214.824)" fill="#ffd7a6"/></g><g transform="translate(329.315 5212.244)"><path d="M366.656,5219.2c.033-.079,5.318,2.082,11.8,4.825s11.714,5.034,11.681,5.113-5.318-2.081-11.8-4.826S366.622,5219.275,366.656,5219.2Z" transform="translate(-366.656 -5219.193)" fill="#ffd7a6"/></g><g transform="translate(341.783 5256.816)"><path d="M391.321,5337.3c-9.2-7.5-10.467-20.24-9.244-31.519.2-1.883.143-3.888,1.165-5.479s3.2-2.566,4.831-1.645c1.353.764,1.843,2.44,2.528,3.847a11.077,11.077,0,0,0,4.113,4.556,4.22,4.22,0,0,0,3.85.639c1.695-.778,2.053-3.013,2.181-4.892q.356-5.251.713-10.5a17.56,17.56,0,0,1,.981-5.534,5.836,5.836,0,0,1,3.951-3.666,3.541,3.541,0,0,1,4.2,2.69,17.366,17.366,0,0,1-.12,2.342,1.98,1.98,0,0,0,1.018,1.944,2.276,2.276,0,0,0,2.125-.709,25.02,25.02,0,0,0,4.983-6.433,34.719,34.719,0,0,1,4.7-6.672,10.181,10.181,0,0,1,7.165-3.348c2.7.047,5.441,1.919,5.925,4.609s-1.258,5.268-3.1,7.286a42,42,0,0,1-9.342,7.67,3.459,3.459,0,0,0-1.576,1.461c-.5,1.222.593,2.553,1.8,3.056a21.81,21.81,0,0,0,4.345.818c1.451.281,2.989,1.044,3.44,2.469.626,1.976-1.127,3.868-2.8,5.068a36.018,36.018,0,0,1-11.079,5.345,12.152,12.152,0,0,0-4.091,1.626,3.486,3.486,0,0,0-1.408,3.9,3.548,3.548,0,0,0,3.737,1.764,25.069,25.069,0,0,0,4.237-1.268c2.652-.783,5.97-.358,7.458,1.994a5.96,5.96,0,0,1,.243,5.3,13.745,13.745,0,0,1-3.191,4.429,36.2,36.2,0,0,1-16.217,9.689c-6.138,1.631-11.725,1.782-17.512-.835" transform="translate(-381.685 -5272.922)" fill="#ffeed9"/></g><g transform="translate(350.648 5258.649)"><path d="M392.372,5346.054a82.575,82.575,0,0,1,4.215-15.245,168.429,168.429,0,0,1,8.02-17.617l2.339-4.51c.772-1.479,1.536-2.945,2.373-4.333a84.255,84.255,0,0,1,5.265-7.7c1.793-2.368,3.58-4.55,5.267-6.577s3.3-3.883,4.845-5.513a66.739,66.739,0,0,1,7.84-7.145c.988-.769,1.774-1.34,2.312-1.719l.615-.428a1.477,1.477,0,0,1,.216-.136,1.267,1.267,0,0,1-.195.166l-.595.455c-.524.4-1.3.986-2.271,1.77a70.72,70.72,0,0,0-7.745,7.208c-1.526,1.636-3.123,3.5-4.8,5.529s-3.453,4.219-5.235,6.587a84.959,84.959,0,0,0-5.227,7.68c-.83,1.381-1.586,2.835-2.358,4.318l-2.337,4.508a172.72,172.72,0,0,0-8.03,17.57,84.12,84.12,0,0,0-4.271,15.173" transform="translate(-392.372 -5275.132)" fill="#ffd7a6"/></g><g transform="translate(366.475 5267.003)"><path d="M412.671,5306.06a3.8,3.8,0,0,1-.124-.815c-.06-.526-.122-1.29-.184-2.235-.127-1.889-.213-4.5-.3-7.386s-.207-5.491-.363-7.373c-.076-.94-.144-1.7-.2-2.228a3.785,3.785,0,0,1-.045-.822,3.68,3.68,0,0,1,.178.8c.095.521.2,1.281.307,2.223.218,1.882.381,4.5.465,7.384.076,2.845.144,5.419.2,7.385.029.889.055,1.637.075,2.238A3.8,3.8,0,0,1,412.671,5306.06Z" transform="translate(-411.451 -5285.202)" fill="#ffd7a6"/></g><g transform="translate(367.696 5284.996)"><path d="M437.393,5307.036a5.338,5.338,0,0,1-.971.043c-.623.01-1.526.019-2.64.064-2.228.074-5.3.286-8.685.667s-6.428.869-8.622,1.28c-1.1.2-1.983.382-2.595.506a5.354,5.354,0,0,1-.959.161,5.063,5.063,0,0,1,.928-.294c.6-.165,1.483-.386,2.579-.616,2.187-.476,5.238-1,8.63-1.386a85.406,85.406,0,0,1,8.718-.565c1.118-.014,2.023.014,2.648.048A4.994,4.994,0,0,1,437.393,5307.036Z" transform="translate(-412.922 -5306.892)" fill="#ffd7a6"/></g><g transform="translate(345.323 5282.174)"><path d="M395.822,5335.219a1.178,1.178,0,0,1-.144-.307c-.095-.244-.209-.542-.348-.9-.3-.786-.7-1.936-1.18-3.361-.96-2.851-2.161-6.832-3.428-11.243s-2.43-8.4-3.328-11.265c-.441-1.395-.8-2.541-1.074-3.394-.115-.369-.21-.674-.287-.925a1.224,1.224,0,0,1-.078-.331,1.247,1.247,0,0,1,.143.308c.095.244.209.542.348.9.3.785.7,1.935,1.18,3.36.96,2.852,2.161,6.832,3.428,11.244s2.43,8.4,3.328,11.264c.442,1.394.8,2.541,1.074,3.394.115.37.21.675.287.925A1.241,1.241,0,0,1,395.822,5335.219Z" transform="translate(-385.953 -5303.49)" fill="#ffd7a6"/></g><g transform="translate(355.193 5305.94)"><path d="M430.691,5332.142a1.213,1.213,0,0,1-.328.108l-.955.243-3.517.858c-2.97.726-7.06,1.775-11.578,2.94s-8.623,2.178-11.609,2.842c-1.493.333-2.7.59-3.543.75l-.969.179a1.246,1.246,0,0,1-.343.039,1.361,1.361,0,0,1,.329-.108l.954-.242,3.517-.859c2.97-.725,7.061-1.774,11.58-2.94s8.622-2.178,11.607-2.842c1.492-.333,2.7-.59,3.544-.75l.968-.179A1.287,1.287,0,0,1,430.691,5332.142Z" transform="translate(-397.85 -5332.138)" fill="#ffd7a6"/></g><g transform="translate(147.856 5425.94)"><path d="M401.736,5476.948c0,.086-56.824.157-126.9.157-70.1,0-126.915-.071-126.915-.157s56.812-.157,126.915-.157C344.912,5476.791,401.736,5476.861,401.736,5476.948Z" transform="translate(-147.917 -5476.791)" fill="#263238"/></g><path d="M240.329,5197.492l14.488,44.174c5.757,1.6,11.619,2.88,18.6.62l32.982-11.936-19.609-50.445Z" transform="translate(-15.811 -0.253)" fill="#e0e0e0"/><path d="M236.585,5195.906l14.488,44.175,18.6.62,32.983-11.935-16.732-49.625Z" transform="translate(-15.173 -0.123)" fill="#ff3c00"/><path d="M258.424,5246.2l-4.375,5.313a20,20,0,0,0,7.865,2.223,28.877,28.877,0,0,0,10.738-1.6S264.242,5252.631,258.424,5246.2Z" transform="translate(-18.149 -11.551)" fill="#ff4f5b"/><path d="M258.424,5246.2c-1.33,2.688-2.672,5.837-4.375,5.313a20,20,0,0,0,7.865,2.223,28.877,28.877,0,0,0,10.738-1.6S264.242,5252.631,258.424,5246.2Z" transform="translate(-18.149 -11.551)" opacity="0.3"/><path d="M236.081,5208.268l16.828-18.107-3.782-3.56-17.338,18Z" transform="translate(-14.356 -1.394)" fill="#ffd7a6"/><path d="M302.59,5187.634l-22.937-9.215-1.967,4.808,23.019,9.729Z" transform="translate(-22.178)" fill="#ffd7a6"/><g transform="translate(233.072 5196.553)"><path d="M288.148,5200.28c.027.083-8.346,3.006-18.7,6.531s-18.777,6.316-18.8,6.235,8.345-3.005,18.7-6.531S288.119,5200.2,288.148,5200.28Z" transform="translate(-250.641 -5200.279)" fill="#263238"/></g><g transform="translate(235.209 5203.374)"><path d="M290.723,5208.5c.028.082-8.346,3.006-18.7,6.53s-18.777,6.316-18.8,6.234,8.345-3,18.7-6.531S290.7,5208.421,290.723,5208.5Z" transform="translate(-253.217 -5208.501)" fill="#263238"/></g><g transform="translate(237.46 5209.299)"><path d="M293.437,5215.645c.027.082-8.346,3.007-18.7,6.53s-18.776,6.316-18.8,6.234,8.345-3,18.7-6.53S293.408,5215.563,293.437,5215.645Z" transform="translate(-255.93 -5215.643)" fill="#263238"/></g><g transform="translate(239.385 5215.086)"><path d="M295.757,5222.621c.028.082-8.346,3-18.7,6.53s-18.777,6.316-18.8,6.233,8.345-3,18.7-6.529S295.729,5222.538,295.757,5222.621Z" transform="translate(-258.251 -5222.619)" fill="#263238"/></g><path d="M325.654,5370.95,322.748,5398s-5.662-8.56-9.494-4.745c-3.652,3.635-10.1,30.178-10.1,30.178s-.09,8.656,4.516,10.942c14.742,7.318,31.164-6.481,31.164-6.481l-2.328-77.36h0A31.033,31.033,0,0,0,325.654,5370.95Z" transform="translate(-26.518 -29.334)" fill="#ff3c00"/><g transform="translate(309.198 5243.307)"><g transform="translate(3.474 12.689)"><path d="M382.832,5338.771l-25.533-2.039c-.158-2.98.055-14.514.055-14.514s-10.623-1.651-10.755-12.272,1.711-35.011,1.711-35.011h0A36.915,36.915,0,0,1,385.4,5279.6l1.575,1.211Z" transform="translate(-346.593 -5271.934)" fill="#b78876"/><g transform="translate(10.719 46.196)"><path d="M359.539,5331.555a24.7,24.7,0,0,0,13.847-3.935s-3.273,7.645-13.872,6.687Z" transform="translate(-359.514 -5327.62)" fill="#aa6550"/></g><g transform="translate(38.66 19.541)"><path d="M393.61,5295.824c.181-.078,7.3-2.159,7.066,5.1s-7.474,5.531-7.481,5.322S393.61,5295.824,393.61,5295.824Z" transform="translate(-393.195 -5295.49)" fill="#b78876"/><g transform="translate(2.299 2.378)"><path d="M395.973,5304.058c.033-.021.124.093.334.2a1.267,1.267,0,0,0,.945.049,3.129,3.129,0,0,0,1.538-2.762,4.178,4.178,0,0,0-.3-1.822,1.462,1.462,0,0,0-.92-1,.645.645,0,0,0-.758.322c-.1.2-.062.347-.1.357-.021.018-.152-.126-.084-.425a.809.809,0,0,1,.3-.445.956.956,0,0,1,.706-.162,1.777,1.777,0,0,1,1.285,1.167,4.311,4.311,0,0,1,.374,2.039c-.094,1.461-.886,2.807-1.945,3.076a1.355,1.355,0,0,1-1.151-.229C395.981,5304.234,395.948,5304.07,395.973,5304.058Z" transform="translate(-395.966 -5298.356)" fill="#aa6550"/></g></g><g transform="translate(3.703 10.626)"><g transform="translate(0 5.722)"><g transform="translate(0.354 1.742)"><path d="M351.485,5295.111a1.515,1.515,0,0,0,1.463,1.529,1.45,1.45,0,0,0,1.563-1.367,1.517,1.517,0,0,0-1.461-1.531A1.452,1.452,0,0,0,351.485,5295.111Z" transform="translate(-351.484 -5293.74)" fill="#263238"/></g><path d="M351.081,5293.234c.188.2,1.336-.653,2.969-.649,1.631-.019,2.829.82,3.006.621.087-.088-.1-.445-.626-.825a4.161,4.161,0,0,0-2.406-.741,4,4,0,0,0-2.363.763C351.158,5292.787,350.988,5293.146,351.081,5293.234Z" transform="translate(-351.057 -5291.64)" fill="#263238"/><g transform="translate(16.044 0.304)"><g transform="translate(0.295 2.008)"><path d="M370.754,5295.8a1.516,1.516,0,0,0,1.463,1.53,1.45,1.45,0,0,0,1.563-1.367,1.517,1.517,0,0,0-1.461-1.531A1.45,1.45,0,0,0,370.754,5295.8Z" transform="translate(-370.753 -5294.427)" fill="#263238"/></g><path d="M370.421,5293.6c.188.2,1.339-.653,2.97-.649,1.63-.019,2.829.821,3.006.62.086-.088-.1-.444-.626-.825a4.165,4.165,0,0,0-2.406-.742,4.01,4.01,0,0,0-2.364.763C370.5,5293.155,370.329,5293.512,370.421,5293.6Z" transform="translate(-370.397 -5292.006)" fill="#263238"/></g><g transform="translate(5.986 0.403)"><path d="M362.431,5305.726a10.8,10.8,0,0,0-2.651-.478c-.416-.043-.81-.126-.881-.411a2.12,2.12,0,0,1,.278-1.235q.589-1.512,1.233-3.174c1.712-4.519,2.951-8.234,2.768-8.3s-1.718,3.541-3.429,8.059c-.412,1.115-.806,2.177-1.181,3.193a2.412,2.412,0,0,0-.216,1.636,1.044,1.044,0,0,0,.685.609,2.818,2.818,0,0,0,.708.1A10.617,10.617,0,0,0,362.431,5305.726Z" transform="translate(-358.272 -5292.126)" fill="#263238"/></g></g><g transform="translate(15.638)"><path d="M369.916,5285.966c.161.444,1.791.233,3.706.465,1.92.191,3.464.752,3.718.355.113-.191-.156-.608-.781-1.038a6.492,6.492,0,0,0-5.655-.625C370.2,5285.407,369.847,5285.756,369.916,5285.966Z" transform="translate(-369.908 -5284.743)" fill="#263238"/></g><g transform="translate(0.582 0.9)"><path d="M351.8,5287.52c.287.371,1.411-.014,2.764-.031,1.351-.066,2.5.249,2.76-.14.115-.188-.065-.559-.565-.91a4,4,0,0,0-4.451.138C351.83,5286.957,351.673,5287.339,351.8,5287.52Z" transform="translate(-351.758 -5285.829)" fill="#263238"/></g></g></g><path d="M342.422,5265.621a3.919,3.919,0,0,1,1.448-3.5,2.782,2.782,0,0,1,3.6.269,3.245,3.245,0,0,1,2.79-3.935c1.732-.11,3.21,1.2,4.884,1.658a7.894,7.894,0,0,0,4.959-.573c1.571-.633,3.04-1.506,4.632-2.088a13.582,13.582,0,0,1,17.371,7.976,6.031,6.031,0,0,1,6.4,2.42,9.888,9.888,0,0,1,1.515,6.969,22.1,22.1,0,0,1-1.214,4.766c0,.137.014.271.012.407-.11,5.841-.771,12.7-3.263,12.738-4.343.066-3.307-8.117-3.307-8.117-5.33-2.059-3.345-10.044-4.677-11.256s-4.12-4.026-15.28,1.677c-4.333,2.215-10.094,2.145-13.239,1.432-.092-.02-.186-.034-.278-.057-.019,0-.045-.008-.065-.013s-.058-.028-.092-.038a10.016,10.016,0,0,1-2.862-1.214,5.658,5.658,0,0,1-2.358-2.622,3.1,3.1,0,0,1,.609-3.325A6.807,6.807,0,0,1,342.422,5265.621Z" transform="translate(-342.406 -5256.638)" fill="#263238"/></g><g transform="translate(301.306 5316.675)"><path d="M401.384,5417.889l.8,15.072,1.794,21.651H335.741l2.963-31.989-5.812-50.539c.505-17.858,7.363-25.286,21.394-26.99l-1.106.138c1.932-.229,0,0,1.106-.138a45.188,45.188,0,0,0,27.224-.017h0c4.208.178,7.693,1.474,11.271,2.159,11.271,2.159,20.553,10.87,22.806,18.45,1.856,6.242,15.278,60.37,15.278,60.37h-26.7Z" transform="translate(-332.892 -5345.078)" fill="#ff3c00"/></g><path d="M361.569,5314.2a7.287,7.287,0,0,0,.946,1.854,2.468,2.468,0,0,0,1.752,1.018,2.215,2.215,0,0,0,1.871-1.02,3.537,3.537,0,0,0,.522-2.128c-.031-.671-.338-1.471-1-1.55a1.691,1.691,0,0,0-.81.179l-3.5,1.421" transform="translate(-36.435 -22.829)" fill="#aa6550"/><g transform="translate(324.242 5289.176)"><path d="M362.831,5317a5.038,5.038,0,0,0,1.869-.231,2.66,2.66,0,0,0,1.412-1.283,2.813,2.813,0,0,0,.046-2.292,2.532,2.532,0,0,0-.305-.523c-.139-.146-.114-.139-.265-.117-.143.039-.373.148-.562.221l-.575.234c-.75.3-1.429.569-2,.783a6.441,6.441,0,0,1-1.908.575,6.363,6.363,0,0,1,1.734-.981c.552-.267,1.213-.574,1.95-.906l.567-.254a6.191,6.191,0,0,1,.64-.264.814.814,0,0,1,.519.015.97.97,0,0,1,.387.306,3.017,3.017,0,0,1,.394.664,3.288,3.288,0,0,1-.107,2.8,3,3,0,0,1-1.779,1.438,2.828,2.828,0,0,1-1.517.059C362.982,5317.158,362.818,5317.039,362.831,5317Z" transform="translate(-360.541 -5311.93)" fill="#263238"/></g><g transform="translate(260.42 5306.144)"><g transform="translate(0.424)"><path d="M324.466,5412.709l-16.071-49.345-1.455-8.285s-4.373-18.469-4.568-20.3c-.224-2.112-1.3-2.511-2.069-2.376-1.2.212-1.9,1.8-1.767,3.617.047.628,1.192,10.514,1.192,10.514a23.492,23.492,0,0,0-2.2-2.464c-1.664-1.694-5.213-2.383-8.727-1.889s-4.455.941-4.327,2.315a1.759,1.759,0,0,0,.835,1.257,3.476,3.476,0,0,0,2.412.551c5.639-.712,7.484,2.143,7.484,2.143l.191,1.084s-3.7-2.083-6.32-.752a3.33,3.33,0,0,0-1.019.791,4.445,4.445,0,0,0-3.12,7,1.847,1.847,0,0,0,1.895.917,2.366,2.366,0,0,0,.934-.714,3.544,3.544,0,0,1,.463-.426l.958,2.962s2.509,6.539,3.278,9.507l7.825,49.688a12.471,12.471,0,0,0,14.477,10.344h0A12.471,12.471,0,0,0,324.466,5412.709Z" transform="translate(-284.118 -5332.383)" fill="#b78876"/></g><g transform="translate(10.904 18.393)"><g transform="translate(0.302 0.292)"><path d="M308.911,5366.7a2.591,2.591,0,0,1-2.81-1.107c-.659-.858-1.007-1.913-1.6-2.815-1.779-2.7-5.486-3.681-7.134-6.462-.23-.389-.392-.938-.061-1.245.306-.285.8-.139,1.181.024l9.872,4.154" transform="translate(-297.115 -5354.907)" fill="#b78876"/></g><path d="M308.294,5359.187a4.279,4.279,0,0,0-1.021-.56c-.674-.322-1.656-.771-2.874-1.314l-4.292-1.877-1.244-.534a2.12,2.12,0,0,0-1.582-.271.9.9,0,0,0-.528.865,1.84,1.84,0,0,0,.247.84,7,7,0,0,0,.948,1.263c1.471,1.537,3.249,2.411,4.583,3.5a8.047,8.047,0,0,1,1.68,1.734c.425.621.721,1.291,1.058,1.88a3.773,3.773,0,0,0,2.412,2.09,1.355,1.355,0,0,0,1.167-.169,3.16,3.16,0,0,1-1.109-.062,3.653,3.653,0,0,1-2.091-2.065c-.3-.58-.575-1.265-1.015-1.955a8.31,8.31,0,0,0-1.747-1.891c-1.375-1.157-3.138-2.058-4.492-3.484a6.651,6.651,0,0,1-.862-1.137c-.221-.387-.241-.8-.011-.866.24-.111.694.079,1.115.261l1.252.516,4.343,1.756c1.239.491,2.247.879,2.948,1.135A4.29,4.29,0,0,0,308.294,5359.187Z" transform="translate(-296.751 -5354.555)" fill="#aa6550"/></g><g transform="translate(0.69 11.473)"><path d="M295.586,5351.929a4.425,4.425,0,0,0-.854-1.834,3.41,3.41,0,0,0-1.854-1.062,8.7,8.7,0,0,0-2.714-.1,13.948,13.948,0,0,1-2.819.057,4.5,4.5,0,0,1-2.189-.813,1.753,1.753,0,0,1-.715-1.4,1.028,1.028,0,0,1,.129-.563c.037.006-.007.208.025.556a1.654,1.654,0,0,0,.73,1.187,4.438,4.438,0,0,0,2.061.674,15.384,15.384,0,0,0,2.748-.088,8.487,8.487,0,0,1,2.832.138,3.573,3.573,0,0,1,1.983,1.238,3.18,3.18,0,0,1,.638,1.437A1.1,1.1,0,0,1,295.586,5351.929Z" transform="translate(-284.438 -5346.212)" fill="#aa6550"/></g><g transform="translate(14.743 2.938)"><path d="M301.436,5335.925a11.154,11.154,0,0,1,.241,1.965c.13,1.351.286,2.96.459,4.739.2,1.776.378,3.385.529,4.733a11.125,11.125,0,0,1,.17,1.971,8.9,8.9,0,0,1-.445-1.932c-.214-1.2-.452-2.876-.646-4.731s-.305-3.541-.344-4.763A8.879,8.879,0,0,1,301.436,5335.925Z" transform="translate(-301.378 -5335.925)" fill="#aa6550"/></g><g transform="translate(3.293 17.709)"><path d="M294.128,5355.679a2.376,2.376,0,0,1-.6-.161,1.834,1.834,0,0,0-1.527.091.983.983,0,0,0-.424.877,5.271,5.271,0,0,0,.231,1.268,2.216,2.216,0,0,1-.068,1.574,1.89,1.89,0,0,1-1.423.945,2.144,2.144,0,0,1-1.62-.5,2.682,2.682,0,0,1-.879-1.3,8.693,8.693,0,0,1-.233-2.535,5.1,5.1,0,0,1,.327-1.683c.165-.377.338-.538.351-.524.029.021-.094.2-.207.576a6.081,6.081,0,0,0-.192,1.639,9.3,9.3,0,0,0,.3,2.423,2.122,2.122,0,0,0,2.1,1.515,1.52,1.52,0,0,0,1.132-.735,1.9,1.9,0,0,0,.055-1.312,5.247,5.247,0,0,1-.2-1.361,1.279,1.279,0,0,1,.6-1.1,1.919,1.919,0,0,1,1.727,0A1.62,1.62,0,0,1,294.128,5355.679Z" transform="translate(-287.577 -5353.729)" fill="#aa6550"/></g><g transform="translate(0 17.325)"><path d="M288.151,5359.374c.018,0,.1.2,0,.565a1.721,1.721,0,0,1-1.039,1.139,2.3,2.3,0,0,1-2.237-.437,3.75,3.75,0,0,1-1.247-2.5,4.541,4.541,0,0,1,.561-2.732,4.337,4.337,0,0,1,1.613-1.6,4.084,4.084,0,0,1,1.438-.508,1.192,1.192,0,0,1,.558-.005,7.2,7.2,0,0,0-1.852.751,4.281,4.281,0,0,0-1.44,1.544,4.328,4.328,0,0,0-.487,2.512,3.491,3.491,0,0,0,1.088,2.263,2.037,2.037,0,0,0,1.912.453,1.637,1.637,0,0,0,.986-.924C288.136,5359.577,288.117,5359.375,288.151,5359.374Z" transform="translate(-283.607 -5353.268)" fill="#aa6550"/></g><g transform="translate(12.068 24.687)"><path d="M298.154,5366.765a1.606,1.606,0,0,1,.946-.088,3.725,3.725,0,0,1,2.193,1.024l-.322.133a11.081,11.081,0,0,1,.077-1.342,8.49,8.49,0,0,1,1.594-4.348,21.483,21.483,0,0,0-1.2,4.394c-.053.452-.081.892-.09,1.3l-.01.45-.312-.317a3.909,3.909,0,0,0-1.964-1.058C298.507,5366.793,298.158,5366.817,298.154,5366.765Z" transform="translate(-298.154 -5362.142)" fill="#aa6550"/></g><g transform="translate(7.426 12.49)"><path d="M295.2,5347.443c.1.036-.207.787-1.037,1.253s-1.626.35-1.606.247c0-.115.7-.175,1.412-.591C294.694,5347.952,295.1,5347.385,295.2,5347.443Z" transform="translate(-292.559 -5347.439)" fill="#aa6550"/></g></g><g transform="translate(297.917 5318.632)"><path d="M344.812,5347.439c.016.017-.219.24-.622.7a7.182,7.182,0,0,0-1.394,2.236,2.967,2.967,0,0,0-.158.866,1.993,1.993,0,0,0,.229.909,3.2,3.2,0,0,0,1.732,1.286,17.1,17.1,0,0,0,5.493.776c1.036.02,2.15.059,3.293.126l1.749.205c.595.064,1.188.224,1.8.336a18.2,18.2,0,0,1,7.22,3.207,13.269,13.269,0,0,1,2.981,3.127,10.587,10.587,0,0,1,.567.974c.174.351.3.7.442,1.042a12.714,12.714,0,0,1,.625,2.2,13.931,13.931,0,0,1-1.414,9.23,13.456,13.456,0,0,1-7.1,6.061,14,14,0,0,1-4.422.877,17.026,17.026,0,0,1-4.274-.521,27.424,27.424,0,0,0-3.931-.7,6.82,6.82,0,0,0-3.568.629,9.2,9.2,0,0,0-2.671,2.168c-.749.841-1.385,1.724-2.016,2.563a12.75,12.75,0,0,1-4.106,3.924,5.036,5.036,0,0,1-2.289.6,5.138,5.138,0,0,1-1.951-.364,4.225,4.225,0,0,1-1.339-.846,3.17,3.17,0,0,1-.671-.946,2.088,2.088,0,0,1-.212-.922,8.806,8.806,0,0,0,.324.867,3.237,3.237,0,0,0,.684.866,4.149,4.149,0,0,0,1.3.755,4.766,4.766,0,0,0,3.991-.316,12.56,12.56,0,0,0,3.912-3.878c.615-.839,1.249-1.745,2.008-2.618a9.649,9.649,0,0,1,2.8-2.311,7.333,7.333,0,0,1,3.837-.716,27.585,27.585,0,0,1,4.018.687,16.566,16.566,0,0,0,4.133.487,13.389,13.389,0,0,0,4.223-.854,12.881,12.881,0,0,0,6.764-5.787,13.358,13.358,0,0,0,1.361-8.814,12.155,12.155,0,0,0-.59-2.1c-.14-.336-.264-.685-.415-.988a10.129,10.129,0,0,0-.526-.913,12.73,12.73,0,0,0-2.834-3,17.793,17.793,0,0,0-6.983-3.159c-.6-.114-1.175-.276-1.759-.345l-1.716-.22c-1.132-.078-2.207-.13-3.26-.165a17.131,17.131,0,0,1-5.611-.893,3.488,3.488,0,0,1-1.867-1.471,2.263,2.263,0,0,1-.237-1.054,3.2,3.2,0,0,1,.2-.942,6.792,6.792,0,0,1,1.531-2.242A3.378,3.378,0,0,1,344.812,5347.439Z" transform="translate(-328.807 -5347.438)" fill="#fafafa"/></g><g transform="translate(359.256 5340.821)"><path d="M403.1,5392.042a4.48,4.48,0,0,1-.287-1.351,11.118,11.118,0,0,1,.25-3.766,14.5,14.5,0,0,1,2.331-5.1,16.757,16.757,0,0,1,5.045-4.651,21.309,21.309,0,0,1,6.412-2.421,27.787,27.787,0,0,1,5.552-.571,31.262,31.262,0,0,1,3.748.189,5.39,5.39,0,0,1,1.356.237c-.008.11-1.957-.1-5.093.016a30.412,30.412,0,0,0-5.442.692,21.682,21.682,0,0,0-6.216,2.4,16.766,16.766,0,0,0-4.894,4.45,14.766,14.766,0,0,0-2.37,4.865,12.43,12.43,0,0,0-.436,3.643A8.282,8.282,0,0,1,403.1,5392.042Z" transform="translate(-402.747 -5374.186)" fill="#fafafa"/></g><g transform="translate(363.854 5369.115)"><path d="M436.862,5408.295a4.333,4.333,0,0,1-.706,1.055,17.35,17.35,0,0,1-2.419,2.482,19.667,19.667,0,0,1-4.33,2.788,19.385,19.385,0,0,1-12.371,1.493,19.69,19.69,0,0,1-4.87-1.678,17.352,17.352,0,0,1-2.939-1.835,4.315,4.315,0,0,1-.937-.858,46.437,46.437,0,0,0,4.066,2.293,20.165,20.165,0,0,0,21.1-2.546C435.719,5409.7,436.768,5408.215,436.862,5408.295Z" transform="translate(-408.29 -5408.292)" fill="#fafafa"/></g><g transform="translate(326.765 5367.192)"><path d="M399.079,5405.979a2.92,2.92,0,0,1-.548.223,4.122,4.122,0,0,0-1.374.916,6.664,6.664,0,0,0-1.384,2.217,20.621,20.621,0,0,0-.965,3.389,39.71,39.71,0,0,1-.977,4.233,9.875,9.875,0,0,1-1.039,2.238,8.7,8.7,0,0,1-1.751,1.957,13.728,13.728,0,0,1-4.962,2.509c-1.849.547-3.809.849-5.775,1.234a24.246,24.246,0,0,0-10.268,4.277,16.818,16.818,0,0,0-3.422,3.45,15.183,15.183,0,0,0-1.953,3.756,13.019,13.019,0,0,0-.634,6.079c.217,1.447.543,2.208.482,2.229a2.139,2.139,0,0,1-.256-.541,5.589,5.589,0,0,1-.232-.686,7.853,7.853,0,0,1-.235-.962,12.672,12.672,0,0,1,.455-6.259,15.359,15.359,0,0,1,1.95-3.917,17.079,17.079,0,0,1,3.494-3.605,24.39,24.39,0,0,1,10.5-4.433c1.985-.389,3.925-.684,5.725-1.209a13.3,13.3,0,0,0,4.766-2.364,8.209,8.209,0,0,0,1.658-1.813,9.5,9.5,0,0,0,1.009-2.1,42.039,42.039,0,0,0,1.036-4.162,19.8,19.8,0,0,1,1.075-3.431,6.661,6.661,0,0,1,1.538-2.258,3.853,3.853,0,0,1,1.5-.857A1.675,1.675,0,0,1,399.079,5405.979Z" transform="translate(-363.582 -5405.974)" fill="#fafafa"/></g><g transform="translate(336.055 5360.932)"><path d="M384.893,5402.188a2.519,2.519,0,0,1,.312,1.229,5.276,5.276,0,0,1-.958,3.323,5.14,5.14,0,0,1-1.809,1.642,4.8,4.8,0,0,1-1.3.474,5.279,5.279,0,0,1-1.467.061,5.75,5.75,0,0,1-2.884-1.167,5.159,5.159,0,0,1-1.86-2.785,4.513,4.513,0,0,1,.929-4.1,9.969,9.969,0,0,1,1.318-1.44,5.024,5.024,0,0,1,.763-.571,2.032,2.032,0,0,1,.942-.329l.08.536-.3.075-.148-.518a5.115,5.115,0,0,1,3.31.18,5.417,5.417,0,0,1,2.089,1.445,4.519,4.519,0,0,1,.854,1.383c.121.354.153.552.129.559a8.1,8.1,0,0,0-1.211-1.726,5.348,5.348,0,0,0-2.014-1.248,4.741,4.741,0,0,0-3-.08l-.148-.517.3-.081.08.537a2.729,2.729,0,0,0-1.341.785,9.772,9.772,0,0,0-1.221,1.371,3.951,3.951,0,0,0-.806,3.583,4.589,4.589,0,0,0,1.631,2.452,5.219,5.219,0,0,0,2.569,1.077,4.768,4.768,0,0,0,1.3-.028,4.366,4.366,0,0,0,1.163-.393,4.786,4.786,0,0,0,1.69-1.44,5.331,5.331,0,0,0,1.075-3.06C384.974,5402.635,384.836,5402.2,384.893,5402.188Z" transform="translate(-374.78 -5398.427)" fill="#fafafa"/></g><g transform="translate(305.756 5345.075)"><path d="M339.917,5379.313a.624.624,0,0,1,.005.162c0,.125-.008.28-.015.473-.022.438-.051,1.043-.089,1.811-.094,1.572-.188,3.848-.314,6.661-.236,5.626-.465,13.4-.647,21.992s-.3,16.372-.377,22c-.042,2.8-.077,5.069-.1,6.669-.017.768-.029,1.374-.039,1.813l-.017.471a.613.613,0,0,1-.017.161.623.623,0,0,1-.015-.161c0-.125-.008-.279-.014-.471,0-.438-.012-1.045-.02-1.813,0-1.6,0-3.873,0-6.67.023-5.633.1-13.413.285-22.008s.447-16.368.739-21.995c.153-2.812.281-5.088.412-6.658.063-.767.112-1.371.148-1.809l.046-.47A.621.621,0,0,1,339.917,5379.313Z" transform="translate(-338.257 -5379.313)" fill="#263238"/></g><g transform="translate(295.937 5364.625)" opacity="0.2"><path d="M326.42,5439.172c3.35,1.6,7.732-1.476,9.444-4.771a98.549,98.549,0,0,0,.77-10.976c-.231-6.871.271-13.674.04-20.545a21.614,21.614,0,0,1-4.9,11.161,7.494,7.494,0,0,0-1.842,2.837c-.491,1.98,1.022,5.547,1.994,7.339,2.977,5.49-3.543,14.993-5.285,14.815" transform="translate(-326.42 -5402.88)"/></g><g transform="translate(358.654 5356.085)" opacity="0.2"><path d="M402.022,5392.585q1.645,20.542,3.292,41.083a12.073,12.073,0,0,0,.722,3.806A4.094,4.094,0,0,0,408.8,5440c1.946.4,3.833-1.278,4.383-3.187a11.471,11.471,0,0,0-.367-5.877c-.815-3.285-1.738-6.542-2.662-9.8q-4.021-14.17-8.04-28.337" transform="translate(-402.022 -5392.585)"/></g><g transform="translate(306.349 5374.253)"><path d="M353.636,5466.46a7.907,7.907,0,0,0,.914-2.18,10.3,10.3,0,0,0-1.022-6.262c-.567-1.24-1.366-2.529-2.17-3.95a17.189,17.189,0,0,1-2.033-4.852,11.549,11.549,0,0,1,.426-5.812c.588-1.936,1.466-3.816,2.174-5.785a17.3,17.3,0,0,0,.3-11.487,16.892,16.892,0,0,0-2.277-4.556,17.613,17.613,0,0,0-3.036-3.258,17.983,17.983,0,0,0-5.639-3.146c-1.459-.489-2.31-.62-2.3-.678a2.32,2.32,0,0,1,.624.055,12.894,12.894,0,0,1,1.75.391,17.135,17.135,0,0,1,5.844,3.033,17.766,17.766,0,0,1,3.178,3.3,17.138,17.138,0,0,1,2.4,4.682,17.661,17.661,0,0,1-.259,11.877c-.723,2.006-1.6,3.874-2.177,5.753a11.049,11.049,0,0,0-.446,5.517,16.939,16.939,0,0,0,1.922,4.716c.779,1.422,1.561,2.731,2.12,4.023a10.231,10.231,0,0,1,.854,6.5,5.7,5.7,0,0,1-.74,1.647A2.24,2.24,0,0,1,353.636,5466.46Z" transform="translate(-338.972 -5414.485)" fill="#fafafa"/></g><g transform="translate(354.49 5319.206)"><path d="M419.9,5356.35a3.368,3.368,0,0,1-.582,1.2,8.731,8.731,0,0,1-2.608,2.53,11.092,11.092,0,0,1-5.119,1.693,16.954,16.954,0,0,1-6.542-.834,13.642,13.642,0,0,1-5.709-3.314,8.508,8.508,0,0,1-1.665-2.4,7.9,7.9,0,0,1-.646-2.463,6.253,6.253,0,0,1,.667-3.573,3.476,3.476,0,0,1,.3-.488,2.124,2.124,0,0,1,.261-.328c.154-.167.241-.246.258-.231.046.036-.266.4-.6,1.154a6.42,6.42,0,0,0-.446,3.419,7.7,7.7,0,0,0,.678,2.292,8.153,8.153,0,0,0,1.6,2.219,13.481,13.481,0,0,0,5.488,3.123,17.047,17.047,0,0,0,6.306.855,11.061,11.061,0,0,0,4.933-1.5,9.478,9.478,0,0,0,2.643-2.3C419.639,5356.743,419.858,5356.325,419.9,5356.35Z" transform="translate(-397.002 -5348.13)" fill="#fafafa"/></g><g transform="translate(354.614 5326.678)"><path d="M411.709,5422.49a.773.773,0,0,1-.064-.168l-.156-.5-.571-1.943c-.489-1.713-1.186-4.155-2.045-7.163l-6.631-23.663c-1.283-4.625-2.5-9.029-3.614-13.04a44.8,44.8,0,0,1-1.279-5.777,17.719,17.719,0,0,1-.017-5.16,11.116,11.116,0,0,1,3.4-6.536,8.264,8.264,0,0,1,1.686-1.134l.487-.206a.713.713,0,0,1,.169-.06,9.417,9.417,0,0,0-2.261,1.49,11.118,11.118,0,0,0-3.259,6.479,17.669,17.669,0,0,0,.054,5.09,45.47,45.47,0,0,0,1.3,5.736c1.118,4.008,2.347,8.41,3.638,13.033l6.543,23.687c.819,3.02,1.482,5.47,1.949,7.19l.514,1.958.127.512A.787.787,0,0,1,411.709,5422.49Z" transform="translate(-397.152 -5357.137)" fill="#263238"/></g><g transform="translate(316.141 5252.896)"><path d="M379.347,5274.333a6.4,6.4,0,0,0,.006-1.286,5.018,5.018,0,0,0-1.661-2.983,6.756,6.756,0,0,0-4.782-1.579,20.787,20.787,0,0,0-6.214,1.39c-1.085.357-2.154.7-3.215.933a16.741,16.741,0,0,1-8.339-.311,16.247,16.247,0,0,1-3.275-1.389c-.368-.2-.64-.382-.822-.507a1.326,1.326,0,0,1-.27-.2c.017-.027.406.228,1.151.6a18.031,18.031,0,0,0,3.279,1.284,17.232,17.232,0,0,0,5.162.613,16.777,16.777,0,0,0,3.048-.39c1.043-.234,2.1-.574,3.186-.931a20.541,20.541,0,0,1,6.307-1.38,6.914,6.914,0,0,1,4.935,1.7,5.018,5.018,0,0,1,1.631,3.132A2.928,2.928,0,0,1,379.347,5274.333Z" transform="translate(-350.775 -5268.197)" fill="#455a64"/></g><g transform="translate(346.359 5256.264)"><path d="M393.814,5292.976a.882.882,0,0,1-.139-.224c-.085-.15-.2-.378-.33-.677a13.694,13.694,0,0,1-.846-2.64,14.553,14.553,0,0,1-.274-4.106,36.413,36.413,0,0,1,.948-4.935,9.67,9.67,0,0,0,.009-4.881,4.939,4.939,0,0,0-1.017-1.85,3.726,3.726,0,0,0-1.526-1,3.484,3.484,0,0,0-2.621.067,4.937,4.937,0,0,0-.815.572,2.034,2.034,0,0,1,.76-.68,3.525,3.525,0,0,1,2.748-.168,3.889,3.889,0,0,1,1.647,1.035,5.157,5.157,0,0,1,1.1,1.938,9.786,9.786,0,0,1,.022,5.032,39.227,39.227,0,0,0-.967,4.895,15.036,15.036,0,0,0,.2,4.039,15.826,15.826,0,0,0,.742,2.638A9.729,9.729,0,0,1,393.814,5292.976Z" transform="translate(-387.201 -5272.256)" fill="#455a64"/></g><g transform="translate(315.011 5246.229)"><path d="M380.134,5272.106a2.225,2.225,0,0,1,0-.426c.012-.311.027-.714.046-1.219a14.152,14.152,0,0,0-.491-4.411,7.8,7.8,0,0,0-1.419-2.679,5.492,5.492,0,0,0-2.848-1.881,7.186,7.186,0,0,0-3.8.156,17.573,17.573,0,0,0-3.8,1.723,31.461,31.461,0,0,1-3.769,1.938,11.554,11.554,0,0,1-3.885.78,12.259,12.259,0,0,1-3.557-.437,13.754,13.754,0,0,1-2.886-1.189,11.791,11.791,0,0,1-3.417-2.917,7.438,7.438,0,0,1-.693-1.01,2.116,2.116,0,0,1-.2-.373,2.175,2.175,0,0,1,.258.339,9.193,9.193,0,0,0,.734.967,12.211,12.211,0,0,0,3.43,2.8,13.783,13.783,0,0,0,2.846,1.133,12.16,12.16,0,0,0,3.482.4,11.343,11.343,0,0,0,3.779-.776,31.745,31.745,0,0,0,3.729-1.927,17.639,17.639,0,0,1,3.871-1.745,7.439,7.439,0,0,1,3.96-.139,5.725,5.725,0,0,1,2.974,2,7.956,7.956,0,0,1,1.43,2.781,13.489,13.489,0,0,1,.4,4.479c-.031.531-.072.94-.1,1.218A2.061,2.061,0,0,1,380.134,5272.106Z" transform="translate(-349.413 -5260.161)" fill="#455a64"/></g><g transform="translate(300.684 5397.654)"><path d="M367.041,5453.387l44.914-6.7-.726-3.994H435.4l.708,6.145a18.583,18.583,0,0,1-18.061,22.092l-52.384-.582Z" transform="translate(-337.856 -5442.694)" fill="#b78876"/><g transform="translate(0 7.127)"><path d="M364.569,5455.624a47.71,47.71,0,0,1-5.976-2.531,19.542,19.542,0,0,0-9.2-1.783l-12.487.635a6.115,6.115,0,0,0,2.1,2.793c1.324.732,9.087.89,9.087.89l-.4.409a8.978,8.978,0,0,1-6.215,2.72l-1.194.03a11.613,11.613,0,0,1-2.606-.51l-3.08-1.245c-.932-.42-1.916-.352-2.322.587-.367.849-.1,2.019,2.445,3.3,1.422.716,6.691,2.538,6.691,2.538a12.766,12.766,0,0,0,.307,2.225c.231.767,2.3,1.533,2.3,1.533a27.229,27.229,0,0,0,1.841,3.3,18.974,18.974,0,0,0,4.111,1.419,17.688,17.688,0,0,0,9.84-.075l4.759-1.42v-14.5" transform="translate(-332.142 -5451.284)" fill="#b78876"/></g><g transform="translate(9.043 19.269)"><path d="M349.345,5467.589a14.222,14.222,0,0,1-6.3-1.657c.036-.086,1.4.439,3.134.891S349.356,5467.5,349.345,5467.589Z" transform="translate(-343.043 -5465.922)" fill="#aa6550"/></g><g transform="translate(11.569 22.941)"><path d="M349.425,5471.267a4.6,4.6,0,0,1-3.336-.907,11.872,11.872,0,0,1,1.662.478A11.668,11.668,0,0,1,349.425,5471.267Z" transform="translate(-346.088 -5470.347)" fill="#aa6550"/></g><g transform="translate(74.06 3.778)"><path d="M433.321,5457.939c-.057.021-.355-.869-1.076-2.185a17.439,17.439,0,0,0-1.438-2.2,17.4,17.4,0,0,0-4.762-4.275,17.589,17.589,0,0,0-2.342-1.193c-1.385-.575-2.3-.774-2.286-.834a2.713,2.713,0,0,1,.65.108,6.313,6.313,0,0,1,.747.2c.287.091.621.179.971.326a15.557,15.557,0,0,1,2.408,1.152,16.381,16.381,0,0,1,4.843,4.348,15.515,15.515,0,0,1,1.4,2.27c.184.333.308.654.429.931a6.289,6.289,0,0,1,.275.723A2.663,2.663,0,0,1,433.321,5457.939Z" transform="translate(-421.418 -5447.247)" fill="#aa6550"/></g><g transform="translate(8.907 10.34)"><path d="M351.159,5455.161a5.474,5.474,0,0,1-.965,1.03,15.567,15.567,0,0,1-2.72,2.06,10.813,10.813,0,0,1-3.189,1.23,4.56,4.56,0,0,1-1.405.152,18.225,18.225,0,0,0,4.437-1.653,21.251,21.251,0,0,0,2.732-1.956A7.434,7.434,0,0,1,351.159,5455.161Z" transform="translate(-342.88 -5455.159)" fill="#aa6550"/></g></g><path d="M194.848,5422.541c1.071,0-8.18,24.85-10.561,31.2-.263.7-.448,1.321-.448,1.321l64.757.112-.764-60.253a1.136,1.136,0,0,0-.008-.119l-5.415-43.1a1.061,1.061,0,0,0-.774-.893c-2.564-.695-11.8-3.08-18.873-3.341-8.287-.307-20.271,1.336-20.271,1.336s-10.753,1.109-16.671,3.244a1.064,1.064,0,0,0-.694,1.149Z" transform="translate(-6.184 -28.804)" fill="#ff3c00"/><g transform="translate(201.497 5367.029)"><path d="M229.652,5405.778a4.306,4.306,0,0,1-.324.783,7.691,7.691,0,0,1-.455.884,12.414,12.414,0,0,1-.687,1.125,14.034,14.034,0,0,1-.946,1.288,18.347,18.347,0,0,1-1.214,1.379,19.4,19.4,0,0,1-6.994,4.58c-.611.213-1.187.43-1.749.563a14.092,14.092,0,0,1-1.56.352,12.485,12.485,0,0,1-1.306.181,7.78,7.78,0,0,1-.991.064,4.271,4.271,0,0,1-.847-.016c0-.069,1.207-.061,3.1-.445a15.111,15.111,0,0,0,1.531-.385c.551-.141,1.116-.364,1.716-.581a20.223,20.223,0,0,0,6.894-4.516c.438-.463.868-.892,1.218-1.34a15.083,15.083,0,0,0,.964-1.249C229.113,5406.86,229.591,5405.748,229.652,5405.778Z" transform="translate(-212.579 -5405.777)" fill="#263238"/></g><g transform="translate(179.855 5401.731)" opacity="0.2"><path d="M186.49,5466.115a19.057,19.057,0,0,0,18.578-2.323c2.335-1.7,4.295-3.912,6.814-5.318,3.494-1.95,7.66-2.135,11.651-2.42a56.784,56.784,0,0,0,15.749-2.9,6.288,6.288,0,0,0,2.753-1.665,2.453,2.453,0,0,0,.25-3c-.694-.865-1.97-.914-3.079-.882-16.747.5-32.048,1.838-48.349,5.71" transform="translate(-186.49 -5447.608)"/></g><path d="M208.246,5271.4c5.176-5.27,13.344-8.38,20.11-5.42,4.55,1.991,7.636,6.26,11.629,9.213,2.908,2.15,6.5,3.812,8.026,7.091,1.343,2.892.7,6.257.371,9.429s-.1,6.831,2.36,8.863c1.29,1.068,2.986,1.489,4.439,2.322,2.924,1.674,4.661,4.936,5.288,8.248a35.187,35.187,0,0,1-.051,10.073l-13.938,2.656-2.29-3.851-.8,6.054-17.788,1.6Z" transform="translate(-10.343 -14.728)" fill="#263238"/><g transform="translate(194.476 5260.835)"><path d="M205.242,5279.359l-.03,3.878-1.1,58.139c-.1,6.739,6.352,12.478,13.568,12.524h0c7.289.048,10.262-5.428,10.47-12.234.219-7.143.581-14.66.581-14.66s9.246-1.274,11.484-13.23c1.112-5.945,1.083-15.745.8-23.762a12.684,12.684,0,0,0-13.66-12.207Z" transform="translate(-204.115 -5277.768)" fill="#ffbf9d"/><g transform="translate(28.554 15.578)"><g transform="translate(2.104 2.957)"><path d="M244.149,5301.545a1.541,1.541,0,0,1-1.528,1.513,1.473,1.473,0,0,1-1.549-1.432,1.541,1.541,0,0,1,1.526-1.514A1.474,1.474,0,0,1,244.149,5301.545Z" transform="translate(-241.072 -5300.111)" fill="#263238"/></g><path d="M244.62,5298.25c-.2.2-1.34-.7-3-.741-1.654-.065-2.894.753-3.069.546-.085-.092.119-.45.659-.82a4.231,4.231,0,0,1,2.464-.686,4.064,4.064,0,0,1,2.378.841C244.554,5297.793,244.716,5298.162,244.62,5298.25Z" transform="translate(-238.535 -5296.546)" fill="#263238"/></g><g transform="translate(12.256 15.438)"><g transform="translate(2.078 3.098)"><path d="M224.471,5301.545a1.54,1.54,0,0,1-1.527,1.513,1.474,1.474,0,0,1-1.55-1.432,1.541,1.541,0,0,1,1.526-1.514A1.473,1.473,0,0,1,224.471,5301.545Z" transform="translate(-221.394 -5300.111)" fill="#263238"/></g><path d="M224.974,5298.081c-.2.195-1.341-.7-3-.742-1.655-.065-2.894.754-3.069.546-.085-.092.118-.449.659-.82a4.226,4.226,0,0,1,2.463-.686,4.072,4.072,0,0,1,2.379.84C224.906,5297.625,225.069,5297.993,224.974,5298.081Z" transform="translate(-218.889 -5296.377)" fill="#263238"/></g><g transform="translate(23.619 15.768)"><path d="M232.983,5310.6a10.954,10.954,0,0,1,2.7-.411c.425-.032.827-.106.907-.392a2.158,2.158,0,0,0-.248-1.263l-1.162-3.256c-1.612-4.636-2.765-8.443-2.578-8.506s1.646,3.643,3.257,8.278c.387,1.143.757,2.232,1.109,3.275a2.451,2.451,0,0,1,.174,1.667,1.066,1.066,0,0,1-.713.6,2.877,2.877,0,0,1-.721.08A10.778,10.778,0,0,1,232.983,5310.6Z" transform="translate(-232.586 -5296.775)" fill="#263238"/></g><g transform="translate(8.657 44.505)"><path d="M230.513,5336.15a30.565,30.565,0,0,1-15.963-4.734s3.674,8.356,15.723,7.564Z" transform="translate(-214.55 -5331.416)" fill="#ff9a6c"/></g><g transform="translate(18.232 32.379)"><path d="M231.065,5317.991a2.986,2.986,0,0,0-2.646-1.183,2.726,2.726,0,0,0-1.911.958,1.729,1.729,0,0,0-.186,1.972,2.008,2.008,0,0,0,2.158.609,6.287,6.287,0,0,0,2.153-1.206,1.836,1.836,0,0,0,.487-.478.552.552,0,0,0,.014-.616" transform="translate(-226.093 -5316.798)" fill="#ff9a6c"/></g><g transform="translate(18.813 30.609)"><path d="M227.087,5314.665c.27-.009.223,1.791,1.728,3.109s3.424,1.174,3.432,1.426c.022.113-.437.337-1.247.337a4.485,4.485,0,0,1-2.867-1.088,3.9,3.9,0,0,1-1.334-2.6C226.751,5315.091,226.965,5314.651,227.087,5314.665Z" transform="translate(-226.793 -5314.665)" fill="#263238"/></g><g transform="translate(11.284 10.988)"><path d="M225.3,5292.346c-.176.447-1.824.187-3.775.368-1.954.142-3.537.668-3.785.256-.109-.2.175-.613.821-1.032a6.6,6.6,0,0,1,5.76-.475C225.027,5291.771,225.376,5292.135,225.3,5292.346Z" transform="translate(-217.717 -5291.014)" fill="#263238"/></g><g transform="translate(27.84 12.118)"><path d="M244.535,5294.191c-.366.367-1.745-.062-3.415-.127-1.668-.113-3.093.167-3.408-.235-.137-.195.1-.566.724-.9a5.5,5.5,0,0,1,2.793-.54,5.4,5.4,0,0,1,2.7.831C244.512,5293.619,244.7,5294.012,244.535,5294.191Z" transform="translate(-237.674 -5292.375)" fill="#263238"/></g></g><path d="M185.494,5351.671s-19.314,4.532-23.06,22.848c-1.721,8.416-4.133,56.739,7.124,64.247,14.53,9.688,33,.871,33,.871l-2.372-23.374H188.194l-1.618-25.606C187.027,5392.62,185.494,5351.671,185.494,5351.671Z" transform="translate(-2.284 -29.527)" fill="#ff3c00"/><path d="M270.117,5432.126a14.936,14.936,0,0,0,13.4-15.5l-7.888-33.525s-5.116-28.771-21.293-31.365l5.512,43.862-.526,9.243s.251,6.116.873,17.572Z" transform="translate(-18.198 -29.538)" fill="#ff3c00"/><g transform="translate(241.457 5381.53)"><path d="M273.3,5423.337a20.628,20.628,0,0,0-2.913.319,11.831,11.831,0,0,0-9.28,9.475,20.53,20.53,0,0,0-.26,2.917,3.22,3.22,0,0,1-.092-.79,10.57,10.57,0,0,1,.134-2.167,11.633,11.633,0,0,1,9.455-9.652,10.453,10.453,0,0,1,2.164-.178A3.258,3.258,0,0,1,273.3,5423.337Z" transform="translate(-260.748 -5423.258)" fill="#263238"/></g><path d="M208.524,5270.964c2.175,2.92,3.209,5.163,4.512,10.355.639,2.544-1.429,4.34-3.483,5.893a1.657,1.657,0,0,1-2.618-.958h0s.713,7.957-2.164,11.525a6.881,6.881,0,0,0-1.086,5.625,9.53,9.53,0,0,0,2.57,4.866,12.012,12.012,0,0,1,1.961,13.53,35.769,35.769,0,0,0-1.829,3.267,4.944,4.944,0,0,0-.383,2.112,1.673,1.673,0,0,1-1.419,1.776,131.349,131.349,0,0,1-29.85.9,1.637,1.637,0,0,1-1.462-1.237c-.779-3.3.52-6.893,2.187-9.93,1.861-3.39,4.231-6.644,4.871-10.458.6-3.59-.377-7.461,1.065-10.8,1.769-4.1,6.581-6.042,8.99-9.8,2.272-3.55,2.09-8.205,4.125-11.9a11.379,11.379,0,0,1,14.011-4.763" transform="translate(-4.343 -15.63)" fill="#263238"/><path d="M216.386,5275.482c3.777,1.941,5.522,6.561,9.191,8.7,3.342,1.948,7.512,1.434,11.337.859q-.214-1.273-.426-2.545a6.854,6.854,0,0,0,1.418,2.06,2.329,2.329,0,0,0,2.324.551c1.283-.517,1.453-2.282,1.124-3.626a12.447,12.447,0,0,0-3.339-5.655,16.933,16.933,0,0,0-22.091-1.766" transform="translate(-11.652 -15.74)" fill="#263238"/><g transform="translate(240.103 5345.234)"><path d="M259.164,5379.5a2.75,2.75,0,0,1,.036.473c.01.339.024.789.041,1.353.023,1.175.082,2.875.172,4.974.173,4.2.564,9.99,1.038,16.386s.83,12.2.947,16.4c.061,2.1.086,3.8.072,4.979l-.017,1.354a2.746,2.746,0,0,1-.027.472,2.581,2.581,0,0,1-.036-.472q-.015-.508-.041-1.353c-.023-1.174-.083-2.874-.173-4.973-.172-4.2-.564-9.991-1.038-16.388s-.83-12.2-.947-16.4c-.061-2.1-.086-3.8-.072-4.979.007-.565.013-1.016.017-1.354A2.685,2.685,0,0,1,259.164,5379.5Z" transform="translate(-259.115 -5379.505)" fill="#263238"/></g><g transform="translate(183.761 5353.653)"><path d="M193.348,5422.736a1.347,1.347,0,0,1-.043-.335c-.017-.256-.037-.574-.062-.964-.05-.882-.116-2.082-.2-3.546-.17-2.995-.433-7.129-.745-11.695-.316-4.547-.6-8.662-.813-11.693-.1-1.464-.175-2.665-.233-3.546-.02-.39-.036-.709-.05-.965a1.38,1.38,0,0,1,0-.338,1.361,1.361,0,0,1,.06.333c.028.254.064.572.108.96.082.879.195,2.077.332,3.538.263,2.988.593,7.12.905,11.689s.54,8.707.654,11.706c.054,1.5.093,2.712.1,3.552,0,.392,0,.711,0,.967A1.363,1.363,0,0,1,193.348,5422.736Z" transform="translate(-191.198 -5389.654)" fill="#263238"/></g><g transform="translate(179.347 5386.712)"><path d="M192.441,5429.528c.006.057-.627.083-1.572.4a6.988,6.988,0,0,0-4.739,5.623c-.154.986-.075,1.613-.131,1.617a1.122,1.122,0,0,1-.093-.435,5.794,5.794,0,0,1,0-1.211,6.735,6.735,0,0,1,4.893-5.805,5.687,5.687,0,0,1,1.193-.209A1.121,1.121,0,0,1,192.441,5429.528Z" transform="translate(-185.878 -5429.504)" fill="#263238"/></g><g transform="translate(184.505 5386.585)"><path d="M207.865,5452.876a1.654,1.654,0,0,1-.07-.369l-.138-1.067-.448-3.928c-.353-3.355-.833-7.923-1.363-12.971-.176-1.753-.346-3.45-.5-5.024l.149.135-9.6-.056-2.789-.043-.745-.025a.916.916,0,0,1-.258-.026,1.038,1.038,0,0,1,.258-.026l.745-.024,2.789-.044,9.6-.055h.136l.014.136c.162,1.574.336,3.269.516,5.022.494,5.051.942,9.623,1.271,12.98.144,1.633.263,2.967.349,3.938.032.438.059.794.08,1.072A1.751,1.751,0,0,1,207.865,5452.876Z" transform="translate(-192.096 -5429.351)" fill="#263238"/></g><g transform="translate(161.276 5397.654)"><path d="M203.093,5455.15a2.773,2.773,0,0,1-.454.167l-1.318.421c-1.147.355-2.811.863-4.888,1.417a61.488,61.488,0,0,1-7.4,1.536,25.567,25.567,0,0,1-9.228-.437,39.184,39.184,0,0,1-4.62-1.3c-.731-.261-1.444-.528-2.133-.815-.343-.145-.686-.279-1.014-.456l-.493-.249-.457-.294a11.251,11.251,0,0,1-2.9-2.84,19.792,19.792,0,0,1-1.784-3.045,35.815,35.815,0,0,1-1.816-4.76c-.175-.575-.307-1.022-.387-1.328a2.734,2.734,0,0,1-.111-.471,2.837,2.837,0,0,1,.171.452c.111.326.258.763.444,1.309a40.265,40.265,0,0,0,1.9,4.7,20.07,20.07,0,0,0,1.794,2.988,11.112,11.112,0,0,0,2.845,2.752l.445.284.477.237c.314.168.658.3,1,.443.685.282,1.394.546,2.12.8a39.72,39.72,0,0,0,4.585,1.286,25.662,25.662,0,0,0,9.124.457,65.006,65.006,0,0,0,7.38-1.465c2.08-.525,3.751-1,4.909-1.32l1.334-.364A2.875,2.875,0,0,1,203.093,5455.15Z" transform="translate(-164.094 -5442.694)" fill="#263238"/></g><path d="M195.831,5286.1a7.677,7.677,0,0,0-1.755-8.4,8.638,8.638,0,0,0-8.5-1.842,6.55,6.55,0,0,0-3.319,2.27,6.062,6.062,0,0,0,.337,7.021,8.853,8.853,0,0,0,6.566,3.191,16.828,16.828,0,0,0,7.313-1.514" transform="translate(-5.748 -16.536)" fill="#263238"/><g transform="translate(198.093 5359.199)"><g transform="translate(8.99)"><path d="M222.728,5402.3c4.2,3.466,14.086,11.669,14.086,11.669l5.535-.984-16.768-14.106a2.229,2.229,0,0,0-3.047.168h0A2.227,2.227,0,0,0,222.728,5402.3Z" transform="translate(-219.756 -5396.684)" fill="#455a64"/><path d="M221.84,5400.157l-2.177-1.965a1.064,1.064,0,0,1-.1-1.476h0a1.065,1.065,0,0,1,1.531-.1l2.094,1.919Z" transform="translate(-219.312 -5396.339)" fill="#455a64"/><g transform="translate(6.077 4.87)"><path d="M229.567,5402.214a14.561,14.561,0,0,1-2.925,3.089,14.5,14.5,0,0,1,2.925-3.089Z" transform="translate(-226.638 -5402.21)" fill="#263238"/></g><g transform="translate(1.717 1.988)"><path d="M228.84,5408.529a10.689,10.689,0,0,1-1.673-1.093c-1-.722-2.352-1.767-3.772-3a6.241,6.241,0,0,1-1.766-2.033,2.912,2.912,0,0,1-.056-2.207,2.77,2.77,0,0,1,.888-1.194,1.109,1.109,0,0,1,.477-.26,4.993,4.993,0,0,1-.4.353,2.9,2.9,0,0,0-.759,1.177,2.747,2.747,0,0,0,.111,2.012,6.27,6.27,0,0,0,1.708,1.916c1.414,1.232,2.736,2.3,3.7,3.064A15.42,15.42,0,0,1,228.84,5408.529Z" transform="translate(-221.382 -5398.736)" fill="#263238"/></g></g><g transform="translate(0 16.1)"><path d="M208.475,5429.056c3.982-1.338,8.214-.437,12.2-1.775a10.56,10.56,0,0,0,3.764-1.855c1.264-1.124,1.908-2.775,2.917-4.134,3.015-4.059,8.647-4.9,13.676-5.417a10.183,10.183,0,0,1,3.522.051,3.451,3.451,0,0,1,2.56,2.208,2.12,2.12,0,0,1-1.587,2.671,2.547,2.547,0,0,1,2.076,2.252c.2,1.084.023,2.208.168,3.3.2,1.537,1.045,2.974,1,4.524-.066,2.119-1.823,3.866-3.782,4.682a25.04,25.04,0,0,1-6.225,1.217c-10.312,1.451-18.157,7.307-28.1,11.73" transform="translate(-208.475 -5415.746)" fill="#ffbf9d"/><path d="M254.877,5424.842a1.424,1.424,0,0,0,2.032.418,2.176,2.176,0,0,0,.779-2.1,4.879,4.879,0,0,0-.995-2.112,27.313,27.313,0,0,0-2.885-3.187l-3.2,2.675Z" transform="translate(-215.656 -5416.107)" fill="#ffbf9d"/><g transform="translate(29.506 5.056)"><path d="M252.58,5422.029c-.006.1-1.957-.062-4.32.3-2.367.348-4.184,1.077-4.218.985a4.168,4.168,0,0,1,1.166-.538,16.016,16.016,0,0,1,6.1-.922A4.2,4.2,0,0,1,252.58,5422.029Z" transform="translate(-244.043 -5421.841)" fill="#ff9a6c"/></g><g transform="translate(32.131 11.002)"><path d="M254.526,5429.506c-.019.095-1.643-.238-3.666-.181s-3.63.456-3.653.363a11.758,11.758,0,0,1,7.319-.182Z" transform="translate(-247.207 -5429.008)" fill="#ff9a6c"/></g><g transform="translate(37.556 1.941)"><path d="M255.3,5425.795c-.051-.005,0-.469-.088-1.2a6.179,6.179,0,0,0-1.377-3.224l-.09-.112.1-.1a2.889,2.889,0,0,0,.83-2.113c-.015-.6-.179-.94-.134-.958a1.581,1.581,0,0,1,.336.945,2.917,2.917,0,0,1-.817,2.346l.01-.21a6.027,6.027,0,0,1,.437.585,5.749,5.749,0,0,1,.926,2.82A2.677,2.677,0,0,1,255.3,5425.795Z" transform="translate(-253.746 -5418.087)" fill="#ff9a6c"/></g></g></g><path d="M255.752,5425.864l5.24,4.917.669,2.919-4.846-1.092A20.99,20.99,0,0,1,255.752,5425.864Z" transform="translate(-18.436 -42.172)" fill="#455a64"/><path d="M241.4,5433.136c-.107.192-28.27,14.077-28.27,14.077v2.987l28.74-14.95,35.661-1.346v-2.114Z" transform="translate(-11.175 -43.182)" fill="#f5f5f5"/><path d="M213.129,5451.064c.2-.134,31.095-2.92,31.095-2.92l33.306-13.805-35.661,1.346-28.74,14.95Z" transform="translate(-11.175 -43.616)" fill="#263238"/><g transform="translate(231.497 5392.871)"><path d="M248.786,5444.11c-.25-1.619,1.3-3,2.879-3.437s3.268-.261,4.865-.625a22.136,22.136,0,0,0,2.968-1.058c4.925-1.891,10.329-1.988,15.6-2.062a3.351,3.351,0,0,1-1.2,4.094,5.515,5.515,0,0,1-.163,3.956,12.343,12.343,0,0,1-2.2,3.38,7.672,7.672,0,0,1-2.6,2.182,8.661,8.661,0,0,1-3.341.514c-3.538.075-7.334.077-10.261-1.912-2.275-1.546-3.853-4.2-6.489-4.983l.625.024" transform="translate(-248.745 -5436.928)" fill="#ffbf9d"/><g transform="translate(8.807 2.336)"><path d="M274.2,5442.627a2.83,2.83,0,0,1-.678.064l-1.847.06c-1.56.035-3.716.063-6.1.075h-3.36a4.621,4.621,0,0,1-1.485-.227,2.286,2.286,0,0,1-1.073-.782,1.426,1.426,0,0,1-.28-1.064,1.343,1.343,0,0,1,.372-.739.75.75,0,0,1,.634-.263,1.359,1.359,0,0,0-.545.347,1.231,1.231,0,0,0,0,1.587,2.089,2.089,0,0,0,.981.67,4.491,4.491,0,0,0,1.4.184l3.354-.025c2.381-.013,4.537-.006,6.1.016l1.848.04A2.874,2.874,0,0,1,274.2,5442.627Z" transform="translate(-259.358 -5439.744)" fill="#ff9a6c"/></g><g transform="translate(0 6.844)"><path d="M270.572,5446.519a4.52,4.52,0,0,1-.85.167c-.551.084-1.35.2-2.344.294a22.8,22.8,0,0,1-3.511.083,25.837,25.837,0,0,1-4.24-.713,33.018,33.018,0,0,0-7.671-.941c-.991,0-1.794.035-2.349.065a5.074,5.074,0,0,1-.865.025,4.159,4.159,0,0,1,.854-.146c.554-.068,1.359-.141,2.358-.165a29.906,29.906,0,0,1,7.742.857,27.659,27.659,0,0,0,4.19.731,25.111,25.111,0,0,0,3.474-.017c.991-.067,1.792-.148,2.346-.195A4.656,4.656,0,0,1,270.572,5446.519Z" transform="translate(-248.742 -5445.178)" fill="#ff9a6c"/></g><g transform="translate(2.349 8.519)"><path d="M268.114,5450.034a2.832,2.832,0,0,1-.663.124c-.429.057-1.05.133-1.823.2a21.987,21.987,0,0,1-6.054-.2c-2.371-.453-4.215-1.661-5.629-2.223a14.392,14.392,0,0,0-2.372-.729,2.1,2.1,0,0,1,.675.036,8.635,8.635,0,0,1,1.779.488c1.468.526,3.3,1.685,5.608,2.121a24.79,24.79,0,0,0,5.978.282l1.827-.1A2.778,2.778,0,0,1,268.114,5450.034Z" transform="translate(-251.574 -5447.197)" fill="#ff9a6c"/></g></g><g transform="translate(242.399 5376.487)" opacity="0.2"><path d="M261.883,5428.8a20.237,20.237,0,0,1,1.755-6.348,9.8,9.8,0,0,1,4.535-4.64,6.517,6.517,0,0,1,6.312.387,3.276,3.276,0,0,1,1.258,1.5,1.842,1.842,0,0,1-.3,1.867c-.664.7-1.784.592-2.752.55a11.582,11.582,0,0,0-10.708,6.452" transform="translate(-261.883 -5417.179)"/></g><g transform="translate(183.958 5358.518)" opacity="0.2"><path d="M197.723,5423.276c2.386-4.3,1.541-9.7-.291-14.271s-4.567-8.769-5.965-13.487a83.281,83.281,0,0,0,4.113,28.206" transform="translate(-191.436 -5395.518)"/></g><path d="M202.75,5349.136s2.913,6.866,13.421,6.43,10.848-8.591,10.848-8.591l7.03,7.475-6.678,13.766-8.971,6.7-12.222-5.022-10.069-7.812Z" transform="translate(-8.274 -28.726)" fill="#ff3c00"/><g transform="translate(163.327 5349.743)" opacity="0.5"><path d="M173.1,5384.952c.109.135-1.266,1.417-3.069,2.864s-3.354,2.511-3.463,2.376,1.267-1.417,3.071-2.864S173,5384.816,173.1,5384.952Z" transform="translate(-166.567 -5384.94)" fill="#fafafa"/></g><g transform="translate(168.417 5338.43)"><path d="M179.073,5375.221c-.054.156-1.713-.312-3.508-1.419s-2.969-2.369-2.855-2.487c.12-.134,1.438.891,3.181,1.954S179.139,5375.053,179.073,5375.221Z" transform="translate(-172.703 -5371.303)" fill="#fafafa"/></g><g transform="translate(178.288 5343.147)"><path d="M190.128,5376.994c.142.109-1.185,2.039-2.7,4.489s-2.654,4.5-2.815,4.417.744-2.267,2.282-4.746S190,5376.891,190.128,5376.994Z" transform="translate(-184.601 -5376.99)" fill="#fafafa"/></g><g transform="translate(171.748 5356.563)"><path d="M181.072,5400.62c-.123.109-1.51-1.3-2.723-3.4s-1.762-4-1.606-4.052.955,1.7,2.147,3.738S181.212,5400.5,181.072,5400.62Z" transform="translate(-176.717 -5393.162)" fill="#fafafa"/></g><g transform="translate(167.009 5367.209)"><path d="M172.04,5412.907c-.171.022-.521-1.506-.781-3.414s-.332-3.476-.16-3.5.52,1.5.78,3.413S172.21,5412.884,172.04,5412.907Z" transform="translate(-171.006 -5405.995)" fill="#fafafa"/></g><g transform="translate(175.615 5369.993)" opacity="0.5"><path d="M181.4,5416.23c-.149-.087.622-1.7,1.724-3.595s2.115-3.368,2.265-3.281-.622,1.7-1.724,3.595S181.547,5416.316,181.4,5416.23Z" transform="translate(-181.379 -5409.35)" fill="#fafafa"/></g><g transform="translate(162.134 5380.53)"><path d="M169.81,5428.851c-.124.112-1.464-1.2-2.764-3.1s-2.047-3.619-1.9-3.695,1.132,1.479,2.414,3.341S169.945,5428.734,169.81,5428.851Z" transform="translate(-165.129 -5422.052)" fill="#fafafa"/></g><g transform="translate(172.186 5385.596)"><path d="M183.856,5428.167c.123.122-1.256,1.712-3.079,3.552s-3.4,3.233-3.524,3.112,1.256-1.712,3.079-3.552S183.734,5428.045,183.856,5428.167Z" transform="translate(-177.246 -5428.159)" fill="#fafafa"/></g><g transform="translate(167.65 5401.027)" opacity="0.5"><path d="M176.114,5452.918c-.114.12-1.443-.99-2.655-2.729s-1.809-3.362-1.657-3.427.986,1.387,2.17,3.068S176.242,5452.791,176.114,5452.918Z" transform="translate(-171.778 -5446.76)" fill="#fafafa"/></g><g transform="translate(180.538 5402.797)"><path d="M194.222,5448.913c.085.15-1.391,1.153-3.3,2.241s-3.522,1.848-3.607,1.7,1.39-1.153,3.3-2.241S194.136,5448.763,194.222,5448.913Z" transform="translate(-187.314 -5448.894)" fill="#fafafa"/></g><g transform="translate(188.953 5391.682)"><path d="M201.977,5441.655c-.106.125-1.511-.943-2.78-2.689s-1.867-3.4-1.716-3.468.987,1.418,2.222,3.1S202.1,5441.522,201.977,5441.655Z" transform="translate(-197.457 -5435.495)" fill="#fafafa"/></g><g transform="translate(196.616 5363.246)"><path d="M214.177,5401.229c.1.138-1.487,1.5-3.551,3.05s-3.823,2.688-3.926,2.549,1.487-1.5,3.551-3.05S214.073,5401.09,214.177,5401.229Z" transform="translate(-206.694 -5401.217)" fill="#fafafa"/></g><g transform="translate(192.786 5355.248)"><path d="M202.191,5398.863c-.172-.018-.144-1.663.062-3.675s.513-3.629.684-3.612.144,1.663-.062,3.675S202.363,5398.88,202.191,5398.863Z" transform="translate(-202.078 -5391.576)" fill="#fafafa"/></g><g transform="translate(195.867 5342.186)" opacity="0.5"><path d="M213.151,5382.109c-.1.138-1.958-1.009-4-2.755s-3.473-3.4-3.352-3.517,1.735,1.319,3.758,3.041S213.254,5381.965,213.151,5382.109Z" transform="translate(-205.791 -5375.83)" fill="#fafafa"/></g><g transform="translate(189.118 5330.911)"><path d="M204.011,5362.245c.131.112-1.182,1.877-2.934,3.942s-3.279,3.649-3.411,3.538,1.182-1.876,2.934-3.943S203.879,5362.133,204.011,5362.245Z" transform="translate(-197.656 -5362.239)" fill="#fafafa"/></g><g transform="translate(180.2 5326.777)" opacity="0.5"><path d="M193.294,5359.516c-.095.155-1.437-.536-3.181-1.12s-3.225-.865-3.207-1.045c.009-.165,1.587-.17,3.408.453S193.387,5359.38,193.294,5359.516Z" transform="translate(-186.906 -5357.256)" fill="#fafafa"/></g><g transform="translate(209.119 5330.773)"><path d="M221.813,5368.427c-.166-.049.118-1.51.633-3.265s1.068-3.136,1.234-3.087-.118,1.51-.634,3.264S221.978,5368.476,221.813,5368.427Z" transform="translate(-221.766 -5362.074)" fill="#fafafa"/></g><g transform="translate(214.382 5344.598)"><path d="M228.29,5385.091c-.173-.01-.231-1.44-.129-3.195s.323-3.168.494-3.158.231,1.44.13,3.195S228.463,5385.1,228.29,5385.091Z" transform="translate(-228.111 -5378.738)" fill="#fafafa"/></g><g transform="translate(217.947 5356.903)"><path d="M237.9,5397.992c-.108.134-1.423-.743-2.936-1.959s-2.653-2.312-2.545-2.447,1.423.742,2.937,1.959S238,5397.856,237.9,5397.992Z" transform="translate(-232.407 -5393.571)" fill="#fafafa"/></g><g transform="translate(227.226 5346.828)"><path d="M249.256,5381.438c.114.129-1.059,1.351-2.621,2.729s-2.92,2.389-3.035,2.26,1.059-1.351,2.621-2.729S249.141,5381.308,249.256,5381.438Z" transform="translate(-243.593 -5381.426)" fill="#fafafa"/></g><g transform="translate(222.801 5335.238)" opacity="0.5"><path d="M244,5372.22c-.092.141-1.578-.674-3.176-2s-2.678-2.635-2.556-2.752,1.381.969,2.955,2.27S244.1,5372.072,244,5372.22Z" transform="translate(-238.26 -5367.455)" fill="#fafafa"/></g><g transform="translate(234.93 5327.804)"><path d="M257.415,5358.5c.136.1-.591,1.338-1.876,2.541s-2.566,1.857-2.652,1.715.992-1.008,2.224-2.171S257.271,5358.4,257.415,5358.5Z" transform="translate(-252.881 -5358.494)" fill="#fafafa"/></g><g transform="translate(223.739 5324.561)" opacity="0.5"><path d="M247.606,5356.694c-.023.166-1.941.029-4.23-.552s-4.043-1.368-3.984-1.525,1.881.351,4.138.918S247.632,5356.518,247.606,5356.694Z" transform="translate(-239.39 -5354.585)" fill="#fafafa"/></g><g transform="translate(245.866 5336.012)" opacity="0.5"><path d="M266.1,5378.455c-.165-.035.21-2.382,1.067-5.176s1.852-4.952,2.008-4.89-.567,2.3-1.409,5.073S266.274,5378.494,266.1,5378.455Z" transform="translate(-266.063 -5368.387)" fill="#fafafa"/></g><g transform="translate(242.816 5352.782)"><path d="M268.564,5395.147c-.126.118-1.609-1.249-3.312-3.054s-2.982-3.364-2.857-3.482,1.609,1.249,3.313,3.054S268.689,5395.029,268.564,5395.147Z" transform="translate(-262.386 -5388.604)" fill="#fafafa"/></g><g transform="translate(253.533 5358.05)" opacity="0.5"><path d="M275.551,5403.736c-.173,0-.279-1.971-.237-4.4s.215-4.39.387-4.386.28,1.971.238,4.4S275.725,5403.739,275.551,5403.736Z" transform="translate(-275.305 -5394.954)" fill="#fafafa"/></g><g transform="translate(244.634 5371.316)"><path d="M268.865,5418.818c-.135.1-1.424-1.478-2.611-3.677s-1.808-4.135-1.652-4.2,1.029,1.739,2.2,3.9S269.011,5418.715,268.865,5418.818Z" transform="translate(-264.578 -5410.944)" fill="#fafafa"/></g><g transform="translate(257.158 5381.433)"><path d="M283.844,5423.153c.12.124-.713,1.133-1.861,2.254s-2.178,1.931-2.3,1.807.713-1.133,1.861-2.254S283.723,5423.029,283.844,5423.153Z" transform="translate(-279.674 -5423.14)" fill="#fafafa"/></g><g transform="translate(231.101 5360.139)" opacity="0.5"><path d="M248.29,5404.693c-.153-.046.4-2.017,1.822-4.066s3.058-3.273,3.156-3.146c.124.137-1.283,1.518-2.641,3.5S248.462,5404.76,248.29,5404.693Z" transform="translate(-248.265 -5397.472)" fill="#fafafa"/></g><g transform="translate(196.058 5376.006)"><path d="M206.069,5424.433c-.168-.042.128-1.829.66-3.991s1.1-3.882,1.268-3.841-.128,1.828-.66,3.992S206.237,5424.474,206.069,5424.433Z" transform="translate(-206.022 -5416.6)" fill="#fafafa"/></g><g transform="translate(204.515 5381.159)"><path d="M222.559,5426.959c-.095.145-1.589-.664-3.34-1.8s-3.093-2.184-3-2.328,1.589.663,3.34,1.8S222.654,5426.814,222.559,5426.959Z" transform="translate(-216.216 -5422.811)" fill="#fafafa"/></g><g transform="translate(207.472 5370.737)"><path d="M222.426,5414.176c-.144.1-.847-.7-1.57-1.786s-1.194-2.039-1.049-2.135.846.7,1.57,1.787S222.57,5414.08,222.426,5414.176Z" transform="translate(-219.781 -5410.248)" fill="#fafafa"/></g><g transform="translate(213.431 5377.061)"><path d="M230.156,5417.9c.1.142-.533.757-1.411,1.373s-1.672,1-1.77.861.532-.756,1.411-1.373S230.057,5417.759,230.156,5417.9Z" transform="translate(-226.965 -5417.871)" fill="#fafafa"/></g><g transform="translate(199.585 5414.102)" opacity="0.5"><path d="M210.326,5468.688c-.17-.053.107-1.416.354-3.1s.387-3.068.565-3.068a6.156,6.156,0,0,1,.054,3.16C211.044,5467.418,210.486,5468.739,210.326,5468.688Z" transform="translate(-210.274 -5462.521)" fill="#fafafa"/></g><g transform="translate(210.038 5407.396)" opacity="0.5"><path d="M227.441,5462.438c-.15.085-1.29-1.636-2.547-3.843s-2.154-4.068-2-4.153,1.29,1.635,2.547,3.844S227.591,5462.352,227.441,5462.438Z" transform="translate(-222.874 -5454.438)" fill="#fafafa"/></g><g transform="translate(223.253 5408.694)" opacity="0.5"><path d="M246.032,5456.007c.138.105-1.367,2.3-3.361,4.909s-3.721,4.634-3.858,4.528,1.368-2.3,3.361-4.909S245.9,5455.9,246.032,5456.007Z" transform="translate(-238.805 -5456.003)" fill="#fafafa"/></g><g transform="translate(225.984 5421.38)" opacity="0.5"><path d="M251.066,5471.365c.025.171-1.963.6-4.44.958s-4.5.51-4.529.339,1.963-.6,4.44-.958S251.042,5471.194,251.066,5471.365Z" transform="translate(-242.097 -5471.294)" fill="#fafafa"/></g><g transform="translate(235.562 5409.242)"><path d="M253.722,5462.447c-.174-.04-.017-1.321.047-2.9s.027-2.865.2-2.889a7.94,7.94,0,0,1-.252,5.784Z" transform="translate(-253.642 -5456.663)" fill="#fafafa"/></g><g transform="translate(208.217 5418.203)"><path d="M226.669,5471.771c-.06.153-1.683-.386-3.376-1.61s-2.728-2.581-2.6-2.687c.134-.123,1.33,1.009,2.967,2.179S226.742,5471.605,226.669,5471.771Z" transform="translate(-220.68 -5467.465)" fill="#fafafa"/></g><g transform="translate(188.677 5415.583)"><path d="M197.184,5470.283c-.168-.042.034-1.414.449-3.063s.888-2.955,1.055-2.913-.033,1.415-.449,3.064S197.351,5470.325,197.184,5470.283Z" transform="translate(-197.125 -5464.306)" fill="#fafafa"/></g><g transform="translate(185.968 5269.647)"><path d="M193.86,5288.393c.039-.049.721.538,1.979,1.229a14.53,14.53,0,0,0,2.3,1,14.677,14.677,0,0,0,6.066.7,14.558,14.558,0,0,0,2.47-.455c1.381-.386,2.178-.8,2.2-.747a2.482,2.482,0,0,1-.545.317,5.39,5.39,0,0,1-.674.306,8.668,8.668,0,0,1-.923.335,13.072,13.072,0,0,1-2.5.53,13.93,13.93,0,0,1-6.189-.712,13.1,13.1,0,0,1-2.317-1.084,8.849,8.849,0,0,1-.823-.537,5.356,5.356,0,0,1-.587-.451A2.441,2.441,0,0,1,193.86,5288.393Z" transform="translate(-193.859 -5288.39)" fill="#455a64"/></g><g transform="translate(186.309 5271.917)"><path d="M209.446,5295.768a2.783,2.783,0,0,1-.655.2c-.426.109-1.049.249-1.825.385a16.657,16.657,0,0,1-6.152.037,9.577,9.577,0,0,1-5.315-3.031,6.526,6.526,0,0,1-1.007-1.584,2.3,2.3,0,0,1-.22-.65,10.725,10.725,0,0,0,1.393,2.089,9.809,9.809,0,0,0,5.213,2.87,18.018,18.018,0,0,0,6.054.051c.776-.106,1.4-.213,1.834-.285A2.928,2.928,0,0,1,209.446,5295.768Z" transform="translate(-194.27 -5291.125)" fill="#455a64"/></g><g transform="translate(179.257 5277.611)"><path d="M186.611,5333.693s-.031-.024-.079-.082a3.264,3.264,0,0,1-.2-.269,3.435,3.435,0,0,1-.479-1.2,5.508,5.508,0,0,1,1.32-4.462,11.332,11.332,0,0,1,2.512-2.119c.985-.65,2.092-1.247,3.177-1.979a9.694,9.694,0,0,0,2.894-2.825,5.139,5.139,0,0,0,.719-1.985,6.175,6.175,0,0,0-.116-2.184,27.064,27.064,0,0,0-1.521-4.143,11.491,11.491,0,0,1-1.015-4.043,10.789,10.789,0,0,1,2.06-6.657,10.086,10.086,0,0,1,3.542-3.122l.673-.322.516-.181a2.305,2.305,0,0,1,.43-.128,2.5,2.5,0,0,1-.408.187l-.5.207-.653.344a10.326,10.326,0,0,0-3.42,3.144,10.66,10.66,0,0,0-1.953,6.517,11.278,11.278,0,0,0,1.011,3.939,26.84,26.84,0,0,1,1.543,4.192,6.476,6.476,0,0,1,.118,2.293,5.414,5.414,0,0,1-.765,2.1,9.891,9.891,0,0,1-2.995,2.9c-1.108.737-2.217,1.324-3.2,1.958a11.23,11.23,0,0,0-2.485,2.046,5.447,5.447,0,0,0-1.368,4.295A4.146,4.146,0,0,0,186.611,5333.693Z" transform="translate(-185.769 -5297.99)" fill="#455a64"/></g><g transform="translate(191.847 5279.099)"><path d="M205.194,5334.217a1.815,1.815,0,0,1-.348-.2,2.816,2.816,0,0,1-.775-.844,4.02,4.02,0,0,1-.541-1.73,6.562,6.562,0,0,1,.262-2.387c.488-1.764,1.961-3.367,3.067-5.382a6.739,6.739,0,0,0,.9-3.422,9.182,9.182,0,0,0-.965-3.707c-1.141-2.415-2.9-4.334-4.106-6.344a13.051,13.051,0,0,1-1.417-3.02,7.283,7.283,0,0,1-.294-2.9,5.729,5.729,0,0,1,1.749-3.755,4.017,4.017,0,0,1,.963-.618,1.777,1.777,0,0,1,.375-.133,6.077,6.077,0,0,0-1.256.841,5.716,5.716,0,0,0-1.611,3.686,7.147,7.147,0,0,0,.323,2.8,13.009,13.009,0,0,0,1.414,2.944c.613.982,1.341,1.961,2.081,2.995a21.327,21.327,0,0,1,2.062,3.368,9.411,9.411,0,0,1,.988,3.835,7,7,0,0,1-.956,3.564c-1.149,2.05-2.62,3.623-3.109,5.308a6.5,6.5,0,0,0-.3,2.31,4.005,4.005,0,0,0,.471,1.683A3.543,3.543,0,0,0,205.194,5334.217Z" transform="translate(-200.946 -5299.782)" fill="#455a64"/></g><g transform="translate(202.929 5253.564)"><path d="M231.172,5283.886c0,.01-.082-.023-.226-.1a4.634,4.634,0,0,1-.595-.378,7.264,7.264,0,0,1-1.727-1.927,21.374,21.374,0,0,1-1.662-3.448c-.277-.661-.572-1.351-.935-2.033a12.606,12.606,0,0,0-1.326-1.98,13.584,13.584,0,0,0-6.942-4.474,18.769,18.769,0,0,0-3.454-.5,5.092,5.092,0,0,1,.946-.053,12.526,12.526,0,0,1,2.563.334,13.32,13.32,0,0,1,7.129,4.491,12.577,12.577,0,0,1,1.355,2.034c.367.7.66,1.4.93,2.065a23.04,23.04,0,0,0,1.584,3.442,7.812,7.812,0,0,0,1.615,1.948C230.887,5283.7,231.187,5283.861,231.172,5283.886Z" transform="translate(-214.305 -5269.002)" fill="#455a64"/></g><g transform="translate(203.147 5252.903)"><path d="M239.593,5283.7a1.191,1.191,0,0,1-.323-.034,4.877,4.877,0,0,1-.9-.234,7.8,7.8,0,0,1-2.863-1.861,17.244,17.244,0,0,1-2.972-4.1,31.522,31.522,0,0,0-3.266-5.2,10.253,10.253,0,0,0-5.1-3.179,19.88,19.88,0,0,0-4.958-.662c-1.433-.031-2.595.028-3.4.06l-.926.035a1.311,1.311,0,0,1-.324-.007,1.243,1.243,0,0,1,.319-.055c.21-.025.521-.061.922-.094.8-.069,1.964-.162,3.408-.159a19.27,19.27,0,0,1,5.035.605,10.423,10.423,0,0,1,5.255,3.252,30.46,30.46,0,0,1,3.28,5.266,17.719,17.719,0,0,0,2.875,4.088,8.1,8.1,0,0,0,2.751,1.9C239.153,5283.612,239.6,5283.667,239.593,5283.7Z" transform="translate(-214.567 -5268.205)" fill="#455a64"/></g><g transform="translate(232.442 5278.593)"><path d="M259.794,5327.96c-.035-.013.153-.426.353-1.213a11.377,11.377,0,0,0-2.633-10.676c-.7-.772-1.491-1.506-2.3-2.275a20.854,20.854,0,0,1-2.226-2.389,14.762,14.762,0,0,1-1.6-2.593,15.2,15.2,0,0,1-1.419-4.936,13.994,13.994,0,0,1,.034-3.462,8.526,8.526,0,0,1,.165-.926,1.249,1.249,0,0,1,.087-.317c.032.006-.061.449-.131,1.257a15.348,15.348,0,0,0,.064,3.422,14.608,14.608,0,0,0,.482,2.312,14.426,14.426,0,0,0,.977,2.524,14.846,14.846,0,0,0,1.584,2.531,21.077,21.077,0,0,0,2.2,2.351c.8.767,1.6,1.507,2.308,2.3a11.635,11.635,0,0,1,1.745,2.5,11.421,11.421,0,0,1,1.241,4.979,10.831,10.831,0,0,1-.465,3.432,7.2,7.2,0,0,1-.325.884A1.276,1.276,0,0,1,259.794,5327.96Z" transform="translate(-249.881 -5299.173)" fill="#455a64"/></g><g transform="translate(176.555 5262.449)"><path d="M182.52,5285.187a1.788,1.788,0,0,1,.076-.589,5.768,5.768,0,0,1,.59-1.511,6.418,6.418,0,0,1,9.33-2.231,5.778,5.778,0,0,1,1.21,1.08,1.816,1.816,0,0,1,.334.49,10.762,10.762,0,0,0-1.664-1.385,6.387,6.387,0,0,0-9.019,2.157A10.694,10.694,0,0,0,182.52,5285.187Z" transform="translate(-182.513 -5279.712)" fill="#455a64"/></g><g transform="translate(182.368 5265.128)"><path d="M189.533,5288.266a4.893,4.893,0,0,1,.168-1.363,6.013,6.013,0,0,1,1.419-3.011,3.181,3.181,0,0,1,3.184-.805,1.862,1.862,0,0,1,.85.582c.151.192.2.321.183.329a2.813,2.813,0,0,0-1.1-.7,3.087,3.087,0,0,0-2.893.814,6.484,6.484,0,0,0-1.429,2.843A7.636,7.636,0,0,1,189.533,5288.266Z" transform="translate(-189.52 -5282.943)" fill="#455a64"/></g><g transform="translate(187.565 5261.654)"><path d="M198.229,5278.756a16.334,16.334,0,0,0-2.392,6.811,9.446,9.446,0,0,1,2.392-6.811Z" transform="translate(-195.784 -5278.754)" fill="#ff4f5b"/></g><g transform="translate(258.333 5254.456)"><g transform="translate(12.567 19.971)"><g transform="translate(15.192 0)"><path d="M314.553,5296.02a1.869,1.869,0,1,0,1.869-1.869A1.868,1.868,0,0,0,314.553,5296.02Z" transform="translate(-314.553 -5294.151)" fill="#455a64"/></g><g transform="translate(7.712 0)"><circle cx="1.869" cy="1.869" r="1.869" fill="#455a64"/></g><path d="M296.49,5295.085a1.869,1.869,0,1,0,2.553-.683A1.869,1.869,0,0,0,296.49,5295.085Z" transform="translate(-296.239 -5294.151)" fill="#455a64"/></g><path d="M303.123,5270.085a2.127,2.127,0,0,0-.377-.006l-1.111.032c-.244.011-.518.01-.819.036l-.98.138-1.144.164-1.277.316a20.673,20.673,0,0,0-6.192,2.7,21.851,21.851,0,0,0-10.036,16.423,22.7,22.7,0,0,0-.061,2.993c.036.507.026,1.021.1,1.532s.154,1.024.232,1.542a21.971,21.971,0,0,0,2.081,6.093,23.45,23.45,0,0,0,3.979,5.475,23,23,0,0,0,5.733,4.119,20.837,20.837,0,0,0,6.988,2.145,13.783,13.783,0,0,0,1.864.158,16.607,16.607,0,0,0,1.885.034,22.322,22.322,0,0,0,3.774-.477,22.04,22.04,0,0,0,7.513-3.162l-.227.023,7.653,3.072.454.181-.129-.47q-1.159-4.212-2.25-8.182l-.039.2a21.957,21.957,0,0,0,4.084-9.35,19.9,19.9,0,0,0,.3-4.79,15.339,15.339,0,0,0-.217-2.3l-.173-1.12c-.069-.367-.181-.724-.268-1.083a21.888,21.888,0,0,0-8.539-12.448,20.9,20.9,0,0,0-5.082-2.68l-1.144-.41-1.087-.276-.995-.247c-.319-.061-.626-.093-.915-.139-.578-.073-1.087-.173-1.532-.195l-1.125-.038-.687-.015a1.015,1.015,0,0,0-.232.008,1.034,1.034,0,0,0,.232.032l.684.054,1.117.076c.442.034.946.146,1.518.231a21.767,21.767,0,0,1,17.4,16.144c.084.353.193.7.258,1.065s.11.73.165,1.1a15.14,15.14,0,0,1,.2,2.259,19.512,19.512,0,0,1-.31,4.7,21.568,21.568,0,0,1-4.028,9.146l-.07.091.031.112q1.081,3.965,2.233,8.186l.324-.289-7.649-3.08-.12-.048-.109.072a21.593,21.593,0,0,1-7.346,3.087,21.9,21.9,0,0,1-3.689.467,16.192,16.192,0,0,1-1.842-.033,13.394,13.394,0,0,1-1.823-.153,20.394,20.394,0,0,1-6.835-2.09,22.558,22.558,0,0,1-5.616-4.019,23.053,23.053,0,0,1-3.908-5.351,21.578,21.578,0,0,1-2.058-5.961q-.117-.761-.233-1.511c-.075-.5-.066-1-.1-1.5a21.274,21.274,0,0,1,3.561-12.967,22.077,22.077,0,0,1,6.262-6.2,20.831,20.831,0,0,1,6.091-2.747l1.262-.336,1.131-.185.971-.16c.3-.033.571-.04.813-.061l1.1-.08A2.139,2.139,0,0,0,303.123,5270.085Z" transform="translate(-281.091 -5270.077)" fill="#455a64"/></g></g></svg>