<svg xmlns="http://www.w3.org/2000/svg" width="48.635" height="48.635" viewBox="0 0 48.635 48.635">
  <g id="customer_survey_questionnaire_1_" transform="translate(-1 -1)">
    <g id="customer_survey_questionnaire" transform="translate(15.591 1)">
      <g id="XMLID_4416_">
        <g id="XMLID_4417_">
          <path id="Trazado_636908" data-name="Trazado 636908" d="M43.234,49.635h-30.8a.811.811,0,1,1,0-1.621H42.423V11.873L33.171,2.621H10.811a.811.811,0,0,1,0-1.621h22.7a.816.816,0,0,1,.574.237l9.727,9.727a.816.816,0,0,1,.237.574V48.824A.811.811,0,0,1,43.234,49.635Z" transform="translate(-10 -1)" fill="#ff3c00"/>
        </g>
      </g>
      <g id="XMLID_4039_" transform="translate(4.864 7.972)">
        <g id="XMLID_4368_" transform="translate(0 9.727)">
          <g id="XMLID_4369_">
            <path id="XMLID_4372_" d="M15.68,16.941h-.018a.805.805,0,0,1-.6-.282L13.2,14.476a.81.81,0,1,1,1.23-1.054l1.282,1.495,2.578-2.745a.811.811,0,0,1,1.182,1.112l-3.2,3.4a.822.822,0,0,1-.592.253Z" transform="translate(-13 -11.918)" fill="#ff3c00"/>
          </g>
        </g>
        <g id="XMLID_4365_" transform="translate(0)">
          <g id="XMLID_4366_">
            <path id="XMLID_4367_" d="M15.68,10.941h-.018a.805.805,0,0,1-.6-.282L13.2,8.476a.81.81,0,1,1,1.23-1.054l1.282,1.495,2.578-2.745a.811.811,0,0,1,1.182,1.112l-3.2,3.4a.822.822,0,0,1-.592.253Z" transform="translate(-13 -5.918)" fill="#ff3c00"/>
          </g>
        </g>
        <g id="XMLID_4362_" transform="translate(8.106 32.557)">
          <g id="XMLID_4363_">
            <path id="XMLID_4364_" d="M20.432,27.621H18.811a.811.811,0,1,1,0-1.621h1.621a.811.811,0,1,1,0,1.621Z" transform="translate(-18 -26)" fill="#ff3c00"/>
          </g>
        </g>
        <g id="XMLID_4359_" transform="translate(8.106 29.315)">
          <g id="XMLID_4360_">
            <path id="XMLID_4361_" d="M23.674,25.621H18.811a.811.811,0,0,1,0-1.621h4.864a.811.811,0,0,1,0,1.621Z" transform="translate(-18 -24)" fill="#ff3c00"/>
          </g>
        </g>
        <g id="XMLID_4356_" transform="translate(21.075 29.315)">
          <g id="XMLID_4357_">
            <path id="XMLID_4358_" d="M28.432,25.621H26.811a.811.811,0,0,1,0-1.621h1.621a.811.811,0,0,1,0,1.621Z" transform="translate(-26 -24)" fill="#ff3c00"/>
          </g>
        </g>
        <g id="XMLID_4353_" transform="translate(14.591 19.588)">
          <g id="XMLID_4354_" transform="translate(0 0)">
            <path id="XMLID_4355_" d="M30.916,19.621H22.811a.811.811,0,1,1,0-1.621h8.106a.811.811,0,0,1,0,1.621Z" transform="translate(-22 -18)" fill="#ff3c00"/>
          </g>
        </g>
        <g id="XMLID_4350_" transform="translate(8.106 22.83)">
          <g id="XMLID_4351_">
            <path id="XMLID_4352_" d="M26.916,21.621H18.811a.811.811,0,1,1,0-1.621h8.106a.811.811,0,0,1,0,1.621Z" transform="translate(-18 -20)" fill="#ff3c00"/>
          </g>
        </g>
        <g id="XMLID_4347_" transform="translate(8.106 19.588)">
          <g id="XMLID_4348_" transform="translate(0 0)">
            <path id="XMLID_4349_" d="M22.053,19.621H18.811a.811.811,0,0,1,0-1.621h3.242a.811.811,0,1,1,0,1.621Z" transform="translate(-18 -18)" fill="#ff3c00"/>
          </g>
        </g>
        <g id="XMLID_4344_" transform="translate(12.969 9.861)">
          <g id="XMLID_4345_">
            <path id="XMLID_4346_" d="M29.916,13.621H21.811a.811.811,0,1,1,0-1.621h8.106a.811.811,0,1,1,0,1.621Z" transform="translate(-21 -12)" fill="#ff3c00"/>
          </g>
        </g>
        <g id="XMLID_4217_" transform="translate(8.106 13.103)">
          <g id="XMLID_4221_">
            <path id="XMLID_4343_" d="M25.3,15.621H18.811a.811.811,0,0,1,0-1.621H25.3a.811.811,0,0,1,0,1.621Z" transform="translate(-18 -14)" fill="#ff3c00"/>
          </g>
        </g>
        <g id="XMLID_4214_" transform="translate(17.833 13.103)">
          <g id="XMLID_4215_">
            <path id="XMLID_4216_" d="M28.053,15.621H24.811a.811.811,0,1,1,0-1.621h3.242a.811.811,0,1,1,0,1.621Z" transform="translate(-24 -14)" fill="#ff3c00"/>
          </g>
        </g>
        <g id="XMLID_4174_" transform="translate(12.969 32.557)">
          <g id="XMLID_4212_">
            <path id="XMLID_4213_" d="M25.053,27.621H21.811a.811.811,0,1,1,0-1.621h3.242a.811.811,0,0,1,0,1.621Z" transform="translate(-21 -26)" fill="#ff3c00"/>
          </g>
        </g>
        <g id="XMLID_4166_" transform="translate(16.212 29.315)">
          <g id="XMLID_4167_">
            <path id="XMLID_4173_" d="M25.432,25.621H23.811a.811.811,0,0,1,0-1.621h1.621a.811.811,0,0,1,0,1.621Z" transform="translate(-23 -24)" fill="#ff3c00"/>
          </g>
        </g>
        <g id="XMLID_4101_" transform="translate(8.106 9.861)">
          <g id="XMLID_4102_">
            <path id="XMLID_4103_" d="M20.432,13.621H18.811a.811.811,0,0,1,0-1.621h1.621a.811.811,0,1,1,0,1.621Z" transform="translate(-18 -12)" fill="#ff3c00"/>
          </g>
        </g>
        <g id="XMLID_4098_" transform="translate(8.106 0.134)">
          <g id="XMLID_4099_">
            <path id="XMLID_4100_" d="M25.3,7.621H18.811a.811.811,0,0,1,0-1.621H25.3a.811.811,0,0,1,0,1.621Z" transform="translate(-18 -6)" fill="#ff3c00"/>
          </g>
        </g>
        <g id="XMLID_4083_" transform="translate(8.106 3.376)">
          <g id="XMLID_4084_">
            <path id="XMLID_4097_" d="M22.053,9.621H18.811a.811.811,0,0,1,0-1.621h3.242a.811.811,0,1,1,0,1.621Z" transform="translate(-18 -8)" fill="#ff3c00"/>
          </g>
        </g>
        <g id="XMLID_4064_" transform="translate(0 29.315)">
          <g id="XMLID_4065_">
            <path id="XMLID_4066_" d="M17.053,28.863H13.811A.811.811,0,0,1,13,28.053V24.811A.811.811,0,0,1,13.811,24h3.242a.811.811,0,0,1,.811.811v3.242A.811.811,0,0,1,17.053,28.863Zm-2.432-1.621h1.621V25.621H14.621Z" transform="translate(-13 -24)" fill="#ff3c00"/>
          </g>
        </g>
        <g id="XMLID_4043_" transform="translate(0 19.588)">
          <g id="XMLID_4046_" transform="translate(0 0)">
            <path id="XMLID_4047_" d="M17.053,22.864H13.811A.811.811,0,0,1,13,22.053V18.811A.811.811,0,0,1,13.811,18h3.242a.811.811,0,0,1,.811.811v3.242A.811.811,0,0,1,17.053,22.864Zm-2.432-1.621h1.621V19.621H14.621Z" transform="translate(-13 -18)" fill="#ff3c00"/>
          </g>
        </g>
      </g>
      <g id="XMLID_4038_" transform="translate(22.696 0.001)">
        <g id="XMLID_4055_">
          <g id="XMLID_4085_">
            <g id="XMLID_4096_">
              <path id="XMLID_4106_" d="M34.5,12.348H24.811A.811.811,0,0,1,24,11.537V5.863a.811.811,0,0,1,1.621,0v4.864H32.55L24.235,2.384a.812.812,0,0,1,1.149-1.146l9.693,9.727a.811.811,0,0,1-.574,1.383Z" transform="translate(-24 -1.001)" fill="#ff3c00"/>
            </g>
          </g>
        </g>
      </g>
    </g>
    <g id="XMLID_4398_" transform="translate(1 1)">
      <g id="XMLID_4430_" transform="translate(0 17.833)">
        <g id="XMLID_4431_">
          <path id="XMLID_4432_" d="M3.432,24.969A2.435,2.435,0,0,1,1,22.538V12.811a.811.811,0,1,1,1.621,0v9.727a.811.811,0,0,0,1.621,0V12.811a.811.811,0,1,1,1.621,0v9.727A2.435,2.435,0,0,1,3.432,24.969Z" transform="translate(-1 -12)" fill="#ff3c00"/>
        </g>
      </g>
      <g id="XMLID_4427_" transform="translate(12.969 17.833)">
        <g id="XMLID_4428_">
          <path id="XMLID_4429_" d="M11.432,24.969A2.435,2.435,0,0,1,9,22.538V12.811a.811.811,0,1,1,1.621,0v9.727a.811.811,0,0,0,1.621,0V12.811a.811.811,0,1,1,1.621,0v9.727A2.435,2.435,0,0,1,11.432,24.969Z" transform="translate(-9 -12)" fill="#ff3c00"/>
        </g>
      </g>
      <g id="XMLID_4422_" transform="translate(4.053)">
        <path id="XMLID_4423_" d="M8.364,10.727a4.864,4.864,0,1,1,4.864-4.864A4.869,4.869,0,0,1,8.364,10.727Zm0-8.106a3.242,3.242,0,1,0,3.242,3.242A3.246,3.246,0,0,0,8.364,2.621Z" transform="translate(-3.5 -1)" fill="#ff3c00"/>
      </g>
      <g id="XMLID_4420_" transform="translate(0 11.348)">
        <path id="XMLID_4421_" d="M1.811,25.022A.811.811,0,0,1,1,24.212V13.674C1,11.049,3.125,8,5.864,8h6.485a.811.811,0,0,1,0,1.621H5.864c-1.746,0-3.242,2.229-3.242,4.053V24.212A.811.811,0,0,1,1.811,25.022Z" transform="translate(-1 -8)" fill="#ff3c00"/>
      </g>
      <g id="XMLID_4418_" transform="translate(3.242 24.318)">
        <path id="XMLID_4419_" d="M3.811,40.318A.811.811,0,0,1,3,39.507v-22.7a.811.811,0,0,1,1.621,0v22.7A.811.811,0,0,1,3.811,40.318Z" transform="translate(-3 -16)" fill="#ff3c00"/>
      </g>
      <g id="XMLID_4414_" transform="translate(5.674 11.348)">
        <path id="XMLID_4415_" d="M15.848,25.022a.811.811,0,0,1-.811-.811V13.674c0-1.824-1.5-4.053-3.242-4.053H5.311A.811.811,0,1,1,5.311,8H11.8c2.738,0,4.863,3.049,4.863,5.674V24.212A.811.811,0,0,1,15.848,25.022Z" transform="translate(-4.5 -8)" fill="#ff3c00"/>
      </g>
      <g id="XMLID_4412_" transform="translate(12.969 24.318)">
        <path id="XMLID_4413_" d="M9.811,40.318A.811.811,0,0,1,9,39.507v-22.7a.811.811,0,0,1,1.621,0v22.7A.811.811,0,0,1,9.811,40.318Z" transform="translate(-9 -16)" fill="#ff3c00"/>
      </g>
      <g id="XMLID_4399_" transform="translate(8.106 30.802)">
        <path id="XMLID_4400_" d="M6.811,37.833A.811.811,0,0,1,6,37.022V20.811a.811.811,0,0,1,1.621,0V37.022A.811.811,0,0,1,6.811,37.833Z" transform="translate(-6 -20)" fill="#ff3c00"/>
      </g>
    </g>
  </g>
</svg>
