<svg xmlns="http://www.w3.org/2000/svg" xmlns:xlink="http://www.w3.org/1999/xlink" width="169" height="134" viewBox="0 0 169 134">
  <defs>
    <clipPath id="clip-path">
      <rect id="Rectángulo_339740" data-name="Rectángulo 339740" width="169" height="134" transform="translate(1146 4090)" fill="#fff" stroke="#707070" stroke-width="1"/>
    </clipPath>
  </defs>
  <g id="Grupo_952739" data-name="Grupo 952739" transform="translate(-1146 -4090)" clip-path="url(#clip-path)">
    <g id="Layer_74" data-name="Layer 74" transform="translate(1180.5 4101.146)">
      <path id="Trazado_636684" data-name="Trazado 636684" d="M111.489,227.359v.016H21.351v-.016c0-3,2.738-5.43,6.116-5.43h77.9c3.377,0,6.117,2.432,6.117,5.43Z" transform="translate(-16.785 -174.473)" fill="#a7a9ac"/>
      <path id="Trazado_636685" data-name="Trazado 636685" d="M106.773,223.945H16.635a1.283,1.283,0,0,1-1.283-1.283c0-3.717,3.318-6.729,7.4-6.729h77.906c4.08,0,7.4,3.012,7.4,6.713v.016a1.283,1.283,0,0,1-1.284,1.283Zm-88.624-2.566h87.109a4.826,4.826,0,0,0-4.6-2.88H22.75a4.821,4.821,0,0,0-4.6,2.88Z" transform="translate(-12.069 -169.759)"/>
      <path id="Trazado_636686" data-name="Trazado 636686" d="M103.434,472.438V476.7c0,3.136-2.961,5.677-6.611,5.677H12.611C8.959,482.377,6,479.835,6,476.7v-4.261H40.078v1.518A2.448,2.448,0,0,0,42.6,476.32H62.632a2.449,2.449,0,0,0,2.523-2.364v-1.518Z" transform="translate(-4.717 -371.415)" fill="#a7a9ac"/>
      <path id="Trazado_636687" data-name="Trazado 636687" d="M92.106,478.943H7.894c-4.353,0-7.894-3.122-7.894-6.96v-4.261a1.283,1.283,0,0,1,1.283-1.283H35.36a1.283,1.283,0,0,1,1.283,1.283v1.518a1.17,1.17,0,0,0,1.239,1.081H57.915a1.17,1.17,0,0,0,1.239-1.081v-1.518a1.283,1.283,0,0,1,1.283-1.283H98.717A1.283,1.283,0,0,1,100,467.721v4.261C100,475.82,96.46,478.943,92.106,478.943ZM2.566,469v2.978c0,2.423,2.39,4.394,5.328,4.394H92.106c2.938,0,5.328-1.971,5.328-4.394V469H61.72v.235a3.734,3.734,0,0,1-3.8,3.647H37.882a3.733,3.733,0,0,1-3.805-3.647V469Z" transform="translate(0 -366.698)"/>
      <path id="Trazado_636688" data-name="Trazado 636688" d="M111.486,247.4v48.121H77.22v1.518A2.449,2.449,0,0,1,74.7,299.4H54.666a2.448,2.448,0,0,1-2.522-2.364v-1.518h-30.8V247.4Z" transform="translate(-16.783 -194.498)" fill="#a7ddee"/>
      <path id="Trazado_636689" data-name="Trazado 636689" d="M69.981,295.97H49.949a3.733,3.733,0,0,1-3.805-3.647v-.235H16.631a1.283,1.283,0,0,1-1.283-1.283V242.683a1.283,1.283,0,0,1,1.283-1.283h90.138a1.283,1.283,0,0,1,1.283,1.283V290.8a1.283,1.283,0,0,1-1.283,1.283H73.786v.235A3.733,3.733,0,0,1,69.981,295.97Zm-52.067-6.45H47.426a1.283,1.283,0,0,1,1.283,1.283v1.518a1.17,1.17,0,0,0,1.239,1.081H69.981a1.17,1.17,0,0,0,1.239-1.081V290.8a1.283,1.283,0,0,1,1.283-1.283h32.983V243.966H17.914Z" transform="translate(-12.066 -189.781)"/>
      <path id="Trazado_636690" data-name="Trazado 636690" d="M67.132,48.821h61.323v80.13H67.132Z" transform="translate(-52.777 -38.381)" fill="#379db5"/>
      <path id="Trazado_636691" data-name="Trazado 636691" d="M123.739,125.517H62.416a1.283,1.283,0,0,1-1.283-1.283V44.1a1.283,1.283,0,0,1,1.283-1.283h61.323a1.283,1.283,0,0,1,1.283,1.283v80.13A1.283,1.283,0,0,1,123.739,125.517ZM63.7,122.951h58.757V45.387H63.7Z" transform="translate(-48.061 -33.664)"/>
      <path id="Trazado_636692" data-name="Trazado 636692" d="M150.032,80.159v68.963h-57.3V69.462h46.607Z" transform="translate(-72.9 -54.609)" fill="#5abde0"/>
      <path id="Trazado_636693" data-name="Trazado 636693" d="M145.316,145.687h-57.3a1.283,1.283,0,0,1-1.283-1.283V64.745a1.283,1.283,0,0,1,1.283-1.283h46.607a1.283,1.283,0,0,1,.907.376l10.7,10.7a1.283,1.283,0,0,1,.376.907V144.4A1.283,1.283,0,0,1,145.316,145.687ZM89.3,143.121h54.738V75.973l-9.946-9.945H89.3Z" transform="translate(-68.183 -49.892)"/>
      <path id="Trazado_636694" data-name="Trazado 636694" d="M321.385,80.159h-10.7v-10.7Z" transform="translate(-244.253 -54.609)" fill="#4cb1cc"/>
      <path id="Trazado_636695" data-name="Trazado 636695" d="M316.668,76.725h-10.7a1.283,1.283,0,0,1-1.283-1.283v-10.7a1.283,1.283,0,0,1,2.19-.907l10.7,10.7a1.283,1.283,0,0,1-.907,2.19Zm-9.414-2.566h6.316l-6.316-6.316Z" transform="translate(-239.536 -49.892)"/>
      <path id="Trazado_636696" data-name="Trazado 636696" d="M350.4,381.157l0,.375-2.332,3.967-1.883,3.2a1.753,1.753,0,0,1-2.744-.01l-1.8-3.216-2.228-3.984,0-.375Z" transform="translate(-266.83 -299.621)" fill="#58595b"/>
      <path id="Trazado_636697" data-name="Trazado 636697" d="M340.088,385.924h-.037A2.764,2.764,0,0,1,337.6,384.6l-4.028-7.2a1.283,1.283,0,0,1-.163-.643l.005-.375a1.283,1.283,0,0,1,1.283-1.266h0l10.987.042a1.283,1.283,0,0,1,1.278,1.3l-.005.375a1.283,1.283,0,0,1-.177.633l-4.216,7.169a2.831,2.831,0,0,1-2.478,1.289Zm-.275-2.618a.752.752,0,0,0,.561-.005l3.284-5.585-6.987-.026Z" transform="translate(-262.113 -294.904)"/>
      <path id="Trazado_636698" data-name="Trazado 636698" d="M339.3,184.467h11.016v42.088H339.3Z" transform="translate(-266.743 -145.022)" fill="#a7a9ac"/>
      <path id="Trazado_636699" data-name="Trazado 636699" d="M345.6,223.122H334.583a1.283,1.283,0,0,1-1.283-1.283V179.75a1.283,1.283,0,0,1,1.283-1.283H345.6a1.283,1.283,0,0,1,1.283,1.283v42.089a1.283,1.283,0,0,1-1.284,1.283Zm-9.733-2.566h8.45V181.033h-8.449Z" transform="translate(-262.029 -140.305)"/>
      <path id="Trazado_636700" data-name="Trazado 636700" d="M350.315,154.933l-.028,4.219H339.3l.047-4.282c.021-1.951,1.947-3.52,4.307-3.507l2.406.011C348.424,151.385,350.328,152.979,350.315,154.933Z" transform="translate(-266.746 -118.996)" fill="#58595b"/>
      <path id="Trazado_636701" data-name="Trazado 636701" d="M345.57,155.715H334.583a1.283,1.283,0,0,1-1.283-1.3l.047-4.282c.028-2.64,2.52-4.777,5.562-4.777h.035l2.405.011a5.952,5.952,0,0,1,4.2,1.683,4.463,4.463,0,0,1,1.335,3.169l-.028,4.219A1.283,1.283,0,0,1,345.57,155.715Zm-9.691-2.566H344.3l.02-2.944a1.912,1.912,0,0,0-.594-1.347,3.375,3.375,0,0,0-2.386-.921l-2.406-.011h-.02c-1.615,0-2.985,1.021-3,2.238Z" transform="translate(-262.029 -114.276)"/>
      <path id="Trazado_636702" data-name="Trazado 636702" d="M359.108,187.789h2.566v40.6h-2.566Z" transform="translate(-282.319 -147.633)"/>
      <path id="Trazado_636703" data-name="Trazado 636703" d="M132.494,218.911a4.9,4.9,0,1,1,4.9-4.9A4.9,4.9,0,0,1,132.494,218.911Zm0-7.232a2.333,2.333,0,1,0,2.333,2.333A2.333,2.333,0,0,0,132.494,211.679Z" transform="translate(-100.311 -164.398)"/>
      <path id="Trazado_636704" data-name="Trazado 636704" d="M132.494,292.967a4.9,4.9,0,1,1,4.9-4.9A4.9,4.9,0,0,1,132.494,292.967Zm0-7.232a2.333,2.333,0,1,0,2.333,2.333A2.333,2.333,0,0,0,132.494,285.735Z" transform="translate(-100.311 -222.618)"/>
      <path id="Trazado_636705" data-name="Trazado 636705" d="M213.988,124.453h16.253v2.566H213.988Z" transform="translate(-168.23 -97.841)"/>
      <path id="Trazado_636706" data-name="Trazado 636706" d="M213.988,154.471h16.253v2.566H213.988Z" transform="translate(-168.23 -121.44)"/>
      <path id="Trazado_636707" data-name="Trazado 636707" d="M189.395,209.113h25.937v2.566H189.395Z" transform="translate(-148.896 -164.398)"/>
      <path id="Trazado_636708" data-name="Trazado 636708" d="M189.4,236.691h20.914v2.566H189.4Z" transform="translate(-148.896 -186.079)"/>
      <path id="Trazado_636709" data-name="Trazado 636709" d="M189.395,283.17h25.937v2.566H189.395Z" transform="translate(-148.896 -222.619)"/>
      <path id="Trazado_636710" data-name="Trazado 636710" d="M189.4,310.748h20.914v2.566H189.4Z" transform="translate(-148.896 -244.3)"/>
      <path id="Trazado_636711" data-name="Trazado 636711" d="M189.395,365.375h25.937v2.566H189.395Z" transform="translate(-148.896 -287.246)"/>
      <path id="Trazado_636712" data-name="Trazado 636712" d="M189.4,392.954h20.914v2.566H189.4Z" transform="translate(-148.896 -308.927)"/>
      <path id="Trazado_636713" data-name="Trazado 636713" d="M132.494,375.172a4.9,4.9,0,1,1,4.9-4.9,4.9,4.9,0,0,1-4.9,4.9Zm0-7.232a2.333,2.333,0,1,0,2.333,2.333A2.333,2.333,0,0,0,132.494,367.94Z" transform="translate(-100.311 -287.245)"/>
      <path id="Trazado_636714" data-name="Trazado 636714" d="M22.423,45.518h5.79l9.118,11.095V45.518h12.98a6.308,6.308,0,0,0,6.308-6.308l-.124-26.9A6.308,6.308,0,0,0,50.186,6H22.3a6.308,6.308,0,0,0-6.308,6.308l.124,26.9a6.308,6.308,0,0,0,6.308,6.31Z" transform="translate(-12.572 -4.717)" fill="#ff3c00"/>
      <path id="Trazado_636715" data-name="Trazado 636715" d="M32.611,53.178a1.283,1.283,0,0,1-.992-.468L22.887,42.084H17.7a7.6,7.6,0,0,1-7.591-7.591L9.987,7.6A7.6,7.6,0,0,1,17.579,0H45.466a7.6,7.6,0,0,1,7.591,7.591l.124,26.894a7.6,7.6,0,0,1-7.591,7.6h-11.7v9.811a1.283,1.283,0,0,1-1.283,1.283ZM17.579,2.566a5.032,5.032,0,0,0-5.025,5.025l.124,26.894A5.033,5.033,0,0,0,17.7,39.517h5.791a1.283,1.283,0,0,1,.991.469l6.843,8.327V40.8a1.283,1.283,0,0,1,1.283-1.283h12.98a5.032,5.032,0,0,0,5.025-5.025L50.491,7.6a5.033,5.033,0,0,0-5.025-5.033Z" transform="translate(-7.851)"/>
      <path id="Trazado_636716" data-name="Trazado 636716" d="M78.475,51.369H73.837q-.018-1.112-.018-1.354a9.874,9.874,0,0,1,.746-4.122,12.216,12.216,0,0,1,2.983-3.636,23.359,23.359,0,0,0,2.673-2.647,3.8,3.8,0,0,0,.673-2.182A3.858,3.858,0,0,0,79.7,34.587a4.356,4.356,0,0,0-3.21-1.182,4.566,4.566,0,0,0-3.255,1.233,6.8,6.8,0,0,0-1.8,3.759l-4.692-.648a9.021,9.021,0,0,1,2.773-6.143,9.23,9.23,0,0,1,6.756-2.526,9.554,9.554,0,0,1,7,2.556,8.093,8.093,0,0,1,2.6,5.951,7.078,7.078,0,0,1-.955,3.557,22.344,22.344,0,0,1-4.083,4.567,8.443,8.443,0,0,0-2.01,2.4,8.872,8.872,0,0,0-.354,3.253Zm-4.638,7.638V54.85H78.45v4.158Z" transform="translate(-52.473 -22.862)" fill="#fff"/>
      <path id="Trazado_636717" data-name="Trazado 636717" d="M73.732,55.573H69.119a1.283,1.283,0,0,1-1.283-1.283V50.133a1.283,1.283,0,0,1,1.283-1.283h4.613a1.283,1.283,0,0,1,1.283,1.283V54.29a1.283,1.283,0,0,1-1.283,1.283ZM70.4,53.007h2.047V51.416H70.4Zm3.355-5.073H69.119a1.283,1.283,0,0,1-1.283-1.262q-.019-1.128-.018-1.375a11.167,11.167,0,0,1,.864-4.66,13.3,13.3,0,0,1,3.287-4.052,21.279,21.279,0,0,0,2.48-2.429,2.509,2.509,0,0,0,.443-1.449,2.567,2.567,0,0,0-.813-1.929,3.1,3.1,0,0,0-2.306-.809,3.3,3.3,0,0,0-2.376.884,5.617,5.617,0,0,0-1.42,3.069,1.28,1.28,0,0,1-1.435,1.026L61.852,34.3a1.283,1.283,0,0,1-1.106-1.342A10.31,10.31,0,0,1,63.9,25.973a10.509,10.509,0,0,1,7.655-2.893A10.829,10.829,0,0,1,79.457,26a9.367,9.367,0,0,1,2.984,6.866,8.38,8.38,0,0,1-1.123,4.192,23.232,23.232,0,0,1-4.326,4.874,7.054,7.054,0,0,0-1.7,1.969,7.531,7.531,0,0,0-.251,2.727,1.283,1.283,0,0,1-1.283,1.3Zm-3.372-2.566h2.1a7.218,7.218,0,0,1,.444-2.477,9.265,9.265,0,0,1,2.317-2.84,20.53,20.53,0,0,0,3.838-4.259,5.762,5.762,0,0,0,.787-2.922,6.8,6.8,0,0,0-2.217-5.036,8.259,8.259,0,0,0-6.1-2.188A7.929,7.929,0,0,0,65.7,27.8a7.653,7.653,0,0,0-2.249,4.128l2.3.317a7.261,7.261,0,0,1,1.888-3.264A5.832,5.832,0,0,1,71.774,27.4a5.611,5.611,0,0,1,4.113,1.554,5.218,5.218,0,0,1,.676,6.654,20.265,20.265,0,0,1-2.874,2.878,11.108,11.108,0,0,0-2.677,3.222,8.673,8.673,0,0,0-.628,3.585c0,.02,0,.044,0,.072Z" transform="translate(-47.755 -18.145)"/>
    </g>
  </g>
</svg>
