<svg xmlns="http://www.w3.org/2000/svg" width="346.017" height="196.468" viewBox="0 0 346.017 196.468"><g transform="translate(-615.594 -75.057)"><g transform="translate(703.861 75.651)"><path d="M768.149,83.862a4.059,4.059,0,0,0,2.419-3.756,3.815,3.815,0,1,0-7.615-.036,4.052,4.052,0,0,0,2.426,3.791c-5.859.883-5.593,7.251-5.593,7.251l13.855.064S773.957,84.739,768.149,83.862Z" transform="translate(-759.784 -76.028)" fill="#ffeed9"/></g><g transform="translate(930.742 103.736)"><path d="M1136.839,135.155l-6.43-6.917,2.082-1.936,4.439,4.775,9.322-9.171,1.994,2.026Z" transform="translate(-1130.409 -121.906)" fill="#ffd7a6"/></g><path d="M980.168,201.38c0-4.726-4.966-7.721-10.03-5.352a5.751,5.751,0,0,0-2.665,2.553c-1.274,2.468-.711,5.286.444,7.626l3.941,9.988a1.7,1.7,0,0,0,3.164-.013l3.864-10.039A12.357,12.357,0,0,0,980.168,201.38Zm-4.757,4.114c-3.4,1.979-6.854-1.679-4.988-5.29a2.835,2.835,0,0,1,1.081-1.147c3.4-1.98,6.854,1.679,4.988,5.29A2.834,2.834,0,0,1,975.411,205.494Z" transform="translate(-136.192 -46.596)" fill="#ffeed9"/><g transform="translate(892.522 149.273)"><path d="M1077.984,270.421c-10.611-9.69-11.218-25.053-8.911-38.469.386-2.24.46-4.647,1.814-6.472s4.069-2.827,5.981-1.6c1.586,1.019,2.058,3.064,2.785,4.8a13.4,13.4,0,0,0,4.657,5.776c1.35.943,3.084,1.644,4.624,1.061,2.114-.8,2.712-3.45,3-5.691q.816-6.261,1.632-12.524a20.783,20.783,0,0,1,1.594-6.553,7.037,7.037,0,0,1,5.063-4.086c2.239-.3,4.738,1.295,4.894,3.547a20.656,20.656,0,0,1-.318,2.8,2.379,2.379,0,0,0,1.094,2.408,2.788,2.788,0,0,0,2.63-.685,29.993,29.993,0,0,0,6.516-7.323,41.589,41.589,0,0,1,6.187-7.629c2.461-2.173,5.666-3.723,8.938-3.457s6.461,2.719,6.851,5.978-1.912,6.213-4.291,8.488a50.736,50.736,0,0,1-11.894,8.467,4.173,4.173,0,0,0-2.019,1.628c-.7,1.424.534,3.1,1.958,3.8,1.615.787,3.472.866,5.212,1.314s3.551,1.481,3.994,3.222c.615,2.416-1.651,4.547-3.773,5.855a43.891,43.891,0,0,1-13.832,5.547,14.838,14.838,0,0,0-5.081,1.633c-1.5.972-2.59,2.872-1.994,4.559s2.615,2.481,4.4,2.4a30.664,30.664,0,0,0,5.233-1.192c3.275-.733,7.27.033,8.9,2.965a7.069,7.069,0,0,1-.093,6.368,16.443,16.443,0,0,1-4.193,5.058,43.977,43.977,0,0,1-20.383,10.355c-7.567,1.481-14.356,1.23-21.186-2.35" transform="translate(-1067.974 -196.294)" fill="#ffd7a6"/></g><g transform="translate(903.376 151.76)"><g transform="translate(0)"><path d="M1085.7,277.457c1.229-5.269.917-6.9,3.871-13.412a201.076,201.076,0,0,1,11.019-20.478q1.605-2.643,3.169-5.221c1.043-1.712,2.077-3.407,3.194-5a100.723,100.723,0,0,1,6.944-8.814c2.347-2.7,4.674-5.173,6.868-7.473s4.288-4.4,6.277-6.232a80.96,80.96,0,0,1,10.022-7.961c1.254-.846,2.248-1.47,2.927-1.887l.775-.468c.176-.1.27-.149.27-.149s-.081.066-.251.179l-.757.5c-.666.435-1.648,1.076-2.888,1.938a84.733,84.733,0,0,0-9.933,8.028c-1.973,1.842-4.049,3.95-6.236,6.251s-4.5,4.786-6.835,7.485a101.536,101.536,0,0,0-6.907,8.8c-1.109,1.592-2.134,3.276-3.178,4.992s-2.1,3.457-3.166,5.219a204.96,204.96,0,0,0-11.026,20.433c-2.962,6.494-2.668,8.091-3.923,13.338" transform="translate(-1085.704 -200.357)" fill="#ffeed9"/></g></g><g transform="translate(924.593 159.646)"><g transform="translate(0 0)"><path d="M1120.487,238.316a5.547,5.547,0,0,1-.075-.986c-.029-.635-.045-1.554-.048-2.69-.009-2.272.082-5.41.191-8.87s.146-6.594.088-8.86c-.026-1.133-.058-2.051-.089-2.684a5.354,5.354,0,0,1-.008-.988,5.574,5.574,0,0,1,.141.978c.072.632.141,1.55.2,2.685.121,2.271.122,5.415.013,8.879-.113,3.429-.216,6.533-.292,8.862-.025,1.086-.044,1.99-.06,2.687A5.354,5.354,0,0,1,1120.487,238.316Z" transform="translate(-1120.364 -213.238)" fill="#ffeed9"/></g></g><g transform="translate(924.717 182.812)"><g transform="translate(0 0)"><path d="M1150.453,251.622a1.044,1.044,0,0,1-.307.007l-.873-.045c-.757-.042-1.852-.106-3.208-.14-2.709-.091-6.457-.079-10.588.116s-7.865.548-10.556.879c-1.346.156-2.433.313-3.184.418l-.866.117a1.035,1.035,0,0,1-.307.018,1.07,1.07,0,0,1,.295-.086l.856-.18c.745-.145,1.829-.339,3.174-.526,2.689-.392,6.428-.777,10.571-.981s7.9-.169,10.615-.017c1.356.065,2.453.165,3.208.249l.869.108A1.036,1.036,0,0,1,1150.453,251.622Z" transform="translate(-1120.566 -251.081)" fill="#ffeed9"/></g></g><g transform="translate(897.991 176.186)"><g transform="translate(0 0)"><path d="M1086.561,279.025a1.821,1.821,0,0,1-.143-.38l-.35-1.112c-.3-.966-.7-2.374-1.173-4.12-.949-3.491-2.111-8.352-3.325-13.733s-2.338-10.247-3.226-13.749c-.443-1.718-.8-3.124-1.068-4.145-.118-.461-.213-.835-.288-1.128a1.859,1.859,0,0,1-.078-.4,1.805,1.805,0,0,1,.144.381l.349,1.111c.3.966.7,2.374,1.173,4.12.949,3.491,2.111,8.352,3.325,13.735s2.339,10.245,3.226,13.748c.443,1.717.805,3.123,1.068,4.144.118.462.213.835.288,1.128A1.844,1.844,0,0,1,1086.561,279.025Z" transform="translate(-1076.908 -240.258)" fill="#ffeed9"/></g></g><g transform="translate(907.644 207.949)"><g transform="translate(0 0)"><path d="M1133.1,292.149a1.973,1.973,0,0,1-.407.1l-1.177.21-4.332.744c-3.656.633-8.7,1.569-14.263,2.617s-10.62,1.947-14.289,2.52c-1.835.288-3.321.506-4.351.637l-1.187.148a1.925,1.925,0,0,1-.417.028,1.962,1.962,0,0,1,.408-.1l1.177-.209,4.332-.744c3.657-.633,8.7-1.57,14.266-2.618s10.617-1.947,14.286-2.52c1.835-.287,3.322-.506,4.352-.637l1.187-.147A1.911,1.911,0,0,1,1133.1,292.149Z" transform="translate(-1092.677 -292.144)" fill="#ffeed9"/></g></g><path d="M616.721,206.469s3.28-3.732,10.757,4.508A128.8,128.8,0,0,1,638.3,224.231s1.834,1.653,2.854-.031,1.895-5.914,4.417-5.882c2.616.034,4.152,2.525,4.772,6.631s2.308,13.052,2.465,13.861.91,1.818,1.789.782,5.213-9.653,9.179-7.351,3.813,14.024,3.821,15.306.381,1.729,1.029,1.87,1.832-2.892,3.166-5.293,3.3-4.949,5.476-3.43,4.922,9.537.761,24.906l-2.394,7-7.263,1.549c-15.744,2.368-23.394-1.279-24.653-3.616s1.5-4,4.036-5.047,5.686-1.876,5.621-2.537-.468-1.082-1.74-1.237-12.935-1.349-14.766-5.553,7.226-7.52,8.357-8.274.2-1.624-.571-1.866-9.479-2.952-13.486-4.04-6.306-2.9-6.039-5.5c.257-2.509,4.559-2.892,6.35-3.713s.358-2.832.358-2.832a128.828,128.828,0,0,1-11.923-12.276c-7.327-8.374-3.126-11.255-3.126-11.255" transform="translate(0 -50.64)" fill="#ffeed9"/><g transform="translate(623.43 163.197)"><path d="M628.395,219.039a1.083,1.083,0,0,1,.145.143l.4.439,1.528,1.706,5.6,6.3,18.539,20.7c7.258,8.071,13.794,15.409,18.481,20.759l5.527,6.356,1.487,1.741.381.458a1.045,1.045,0,0,1,.122.162,1.072,1.072,0,0,1-.144-.143l-.4-.439-1.528-1.706-5.594-6.3c-4.725-5.315-11.284-12.63-18.542-20.7s-13.791-15.406-18.477-20.756l-5.527-6.356-1.488-1.742-.381-.458A1.105,1.105,0,0,1,628.395,219.039Z" transform="translate(-628.395 -219.039)" fill="#e0e0e0"/></g><g transform="translate(644.479 173.644)"><path d="M662.891,236.1a15.226,15.226,0,0,1,.1,1.986c.041,1.3.093,2.959.15,4.791.063,1.872.106,3.568.1,4.8,0,.615-.018,1.112-.038,1.456a1.906,1.906,0,0,1-.064.533,18.494,18.494,0,0,1-.1-1.985c-.05-1.3-.115-2.96-.185-4.792-.062-1.873-.084-3.57-.066-4.8.01-.614.024-1.111.045-1.454A1.932,1.932,0,0,1,662.891,236.1Z" transform="translate(-662.78 -236.105)" fill="#e0e0e0"/></g><g transform="translate(628.575 187.218)"><path d="M652.441,258.573c0,.08-3.5.094-7.823.032s-7.82-.176-7.819-.256,3.5-.093,7.823-.031S652.442,258.494,652.441,258.573Z" transform="translate(-636.799 -258.279)" fill="#e0e0e0"/></g><g transform="translate(644.21 201.142)"><path d="M675.819,281.03a1.992,1.992,0,0,1-.5.216c-.329.122-.811.283-1.409.474-1.2.376-2.865.856-4.731,1.287s-3.575.742-4.816.928c-.62.094-1.124.159-1.474.2a2.013,2.013,0,0,1-.546.028,16.4,16.4,0,0,1,1.985-.423c1.229-.237,2.926-.574,4.785-1.008s3.531-.877,4.739-1.2A16.245,16.245,0,0,1,675.819,281.03Z" transform="translate(-662.341 -281.025)" fill="#e0e0e0"/></g><g transform="translate(657.537 188.678)"><path d="M687.36,260.664a12.06,12.06,0,0,1-.377,1.839c-.268,1.127-.659,2.678-1.106,4.387s-.869,3.253-1.188,4.367a12.2,12.2,0,0,1-.573,1.787,12.066,12.066,0,0,1,.377-1.839c.268-1.126.659-2.678,1.107-4.388s.869-3.252,1.188-4.366A12.215,12.215,0,0,1,687.36,260.664Z" transform="translate(-684.11 -260.664)" fill="#e0e0e0"/></g><g transform="translate(669.895 199.205)"><path d="M708.613,277.86a2.841,2.841,0,0,1-.116.637c-.113.462-.253,1.033-.418,1.708-.365,1.439-.888,3.421-1.483,5.606s-1.15,4.16-1.565,5.585c-.2.665-.369,1.228-.506,1.684a2.743,2.743,0,0,1-.223.607,2.833,2.833,0,0,1,.116-.636l.418-1.708c.365-1.439.888-3.422,1.483-5.607s1.149-4.159,1.564-5.584c.2-.665.369-1.229.506-1.684A2.823,2.823,0,0,1,708.613,277.86Z" transform="translate(-704.299 -277.86)" fill="#e0e0e0"/></g><g transform="translate(652.689 214.62)"><path d="M693.4,303.046a3.228,3.228,0,0,1-.653.231c-.425.132-1.045.307-1.813.514-1.537.411-3.673.937-6.053,1.419s-4.551.841-6.127,1.06c-.788.111-1.427.19-1.87.236a3.2,3.2,0,0,1-.691.042,3.17,3.17,0,0,1,.675-.153l1.854-.325c1.565-.271,3.726-.656,6.1-1.141s4.513-.974,6.061-1.335l1.833-.426A3.19,3.19,0,0,1,693.4,303.046Z" transform="translate(-676.192 -303.042)" fill="#e0e0e0"/></g><g transform="translate(619.207 150.561)"><g transform="translate(0 0)"><path d="M645.227,216.427a1.625,1.625,0,0,0,.779-.276,1.471,1.471,0,0,0,.553-.811,2.377,2.377,0,0,0,.051-.64q0-.352,0-.747c.019-2.125.047-5.173.081-8.933q.016-1.415.033-2.96.009-.772.018-1.574a4.514,4.514,0,0,0-.023-.784,1.336,1.336,0,0,0-.347-.661,1.254,1.254,0,0,0-.663-.357,6.6,6.6,0,0,0-.828-.021l-1.745,0-3.644.006-16.224.012a1.318,1.318,0,0,0-1.281,1.21q-.017,1.06-.036,2.106-.031,2.1-.061,4.139c-.042,2.713-.082,5.331-.12,7.825q-.007.467-.015.929a1.379,1.379,0,0,0,.2.806,1.258,1.258,0,0,0,.619.517,2.186,2.186,0,0,0,.836.084l3.437.007,6.169.017,8.933.045,2.429.027.631.014a1.147,1.147,0,0,1,.216.015,1.211,1.211,0,0,1-.216.015l-.631.014-2.429.027-8.933.047-6.169.018-3.437.007a2.425,2.425,0,0,1-.927-.1,1.52,1.52,0,0,1-.747-.62,1.643,1.643,0,0,1-.238-.947q.005-.461.012-.929c.033-2.495.067-5.112.1-7.825q.028-2.036.057-4.139.018-1.056.036-2.127a1.6,1.6,0,0,1,1.566-1.471l16.224.01,3.644.006,1.745,0a6.53,6.53,0,0,1,.873.029,1.5,1.5,0,0,1,.789.429,1.569,1.569,0,0,1,.406.781,4.515,4.515,0,0,1,.023.833q-.014.8-.026,1.574l-.051,2.96c-.073,3.759-.132,6.807-.173,8.932q-.009.395-.017.746a2.451,2.451,0,0,1-.067.661,1.522,1.522,0,0,1-.6.837,1.392,1.392,0,0,1-.6.224A.79.79,0,0,1,645.227,216.427Z" transform="translate(-621.497 -198.398)" fill="#455a64"/></g><path d="M641.877,209.6l3.007,1.825-3.072,1.8-3.072,1.8.065-3.628.065-3.628Z" transform="translate(-628.184 -202.035)" fill="#455a64"/></g><g transform="translate(899.969 94.778)"><path d="M1091.585,117.992a5.556,5.556,0,0,0,3.31-5.14,5.221,5.221,0,1,0-10.42-.048,5.548,5.548,0,0,0,3.32,5.187c-8.017,1.208-7.654,9.922-7.654,9.922L1099.1,128S1099.533,119.193,1091.585,117.992Z" transform="translate(-1080.139 -107.272)" fill="#ff3c00"/></g><g transform="translate(768.143 85.748)"><g transform="translate(0)"><rect width="30.883" height="20.816" transform="translate(0.171 3.041) rotate(-5.419)" fill="#fff"/><path d="M897.676,113.37s-.021-.134-.049-.384-.067-.627-.117-1.1c-.1-.972-.243-2.379-.426-4.174-.356-3.605-.867-8.768-1.489-15.055l.125.1-30.74,2.945c-.031.034.242-.3.127-.153v.017l0,.021,0,.043.009.086.016.173.033.346.065.689q.065.688.13,1.372l.257,2.714q.255,2.694.5,5.3c.326,3.468.639,6.8.936,9.961l-.143-.118,22.133-2.035,6.339-.566,1.692-.145.44-.034a1.257,1.257,0,0,1,.155-.007.86.86,0,0,1-.138.021l-.424.048-1.663.174-6.3.633-22.205,2.172-.13.012-.013-.131c-.3-3.157-.621-6.491-.954-9.959q-.248-2.6-.505-5.3-.128-1.347-.258-2.714-.064-.683-.13-1.372l-.066-.689-.033-.345-.017-.173-.008-.086,0-.043,0-.021V95.58c-.116.138.157-.193.132-.159L895.7,92.532l.114-.01.01.114c.575,6.322,1.046,11.513,1.376,15.139.157,1.786.28,3.186.365,4.154.038.465.068.824.089,1.08S897.676,113.37,897.676,113.37Z" transform="translate(-864.793 -92.522)" fill="#455a64"/></g><g transform="translate(0.171 0.125)"><path d="M895.818,92.726a2.027,2.027,0,0,1-.238.307l-.724.844-2.711,3.079-9.1,10.172-.081.091-.1-.066-.818-.522-12.035-7.72-3.629-2.367-.979-.656a2.213,2.213,0,0,1-.331-.245,2.292,2.292,0,0,1,.362.2l1.008.61,3.678,2.291,12.08,7.649.819.522-.184.025L892,96.823l2.777-3.019.763-.809A2.069,2.069,0,0,1,895.818,92.726Z" transform="translate(-865.073 -92.725)" fill="#455a64"/></g></g><g transform="translate(714.147 102.281)"><g transform="translate(0 0)"><path d="M793.145,127.851a14.033,14.033,0,0,0-.311-1.991,7.857,7.857,0,0,0-.918-2.16,8.1,8.1,0,0,0-9.73-3.434,8.092,8.092,0,0,0-3.746,2.816,8.034,8.034,0,0,0,0,9.536,8.09,8.09,0,0,0,3.746,2.817,8.128,8.128,0,0,0,9.73-3.435,7.857,7.857,0,0,0,.918-2.16,14.019,14.019,0,0,0,.311-1.99.466.466,0,0,1,.008.133l-.006.392a3.8,3.8,0,0,1-.051.635,5.792,5.792,0,0,1-.154.858,7.759,7.759,0,0,1-.889,2.214,8.283,8.283,0,0,1-5.58,3.947,8.334,8.334,0,0,1-4.378-.346,8.335,8.335,0,0,1-3.882-2.9,8.293,8.293,0,0,1,0-9.869,8.335,8.335,0,0,1,3.882-2.9,8.341,8.341,0,0,1,4.378-.346,8.287,8.287,0,0,1,5.58,3.947,7.755,7.755,0,0,1,.889,2.215,5.778,5.778,0,0,1,.154.858,3.793,3.793,0,0,1,.051.635l.006.392A.469.469,0,0,1,793.145,127.851Z" transform="translate(-776.586 -119.529)" fill="#263238"/></g><g transform="translate(14.774 13.423)"><path d="M813.533,150.058c-.044.066-2.948-1.806-6.486-4.18s-6.371-4.353-6.327-4.419,2.948,1.806,6.486,4.181S813.577,149.992,813.533,150.058Z" transform="translate(-800.72 -141.456)" fill="#263238"/></g></g><g transform="translate(759.643 126.195)"><path d="M857.338,171.843l-6.43-6.917,2.082-1.935,4.439,4.775,9.322-9.171,1.994,2.026Z" transform="translate(-850.908 -158.594)" fill="#ff3c00"/></g><g transform="translate(906.987 132.699)"><g transform="translate(0)"><path d="M1131.106,169.34s.1,0,.311,0l.385.013c.152.014.328.043.528.07a7.016,7.016,0,0,1,3.219,1.412,7.216,7.216,0,0,1,2.706,4.817,16.713,16.713,0,0,1,.053,1.713q0,.881.006,1.82,0,1.876.01,3.967t.009,4.379q0,1.144,0,2.336a8.447,8.447,0,0,1-.242,2.436,7.2,7.2,0,0,1-5.436,5.231,12.618,12.618,0,0,1-2.781.174l-24.577.017.1-.042-5.546,5.549-.244.244v-.346c0-.793,0-1.649,0-2.507,0-1.041,0-2.078,0-3.04l.143.143a13.618,13.618,0,0,1-1.823-.067,7.21,7.21,0,0,1-1.768-.458,7.253,7.253,0,0,1-4.417-5.3,9.218,9.218,0,0,1-.143-1.747q0-.859,0-1.712,0-3.409,0-6.686,0-1.637,0-3.238a25.028,25.028,0,0,1,.1-3.177,7.172,7.172,0,0,1,3.307-5.006,7.2,7.2,0,0,1,2.755-1.02,21.6,21.6,0,0,1,2.831-.088l10.265.018,14.821.045,4.018.026,1.044.014c.235,0,.356.014.356.014s-.121.01-.356.014l-1.044.014-4.018.026-14.821.045-10.265.018a21.452,21.452,0,0,0-2.8.092,6.958,6.958,0,0,0-5.841,5.828,24.985,24.985,0,0,0-.09,3.137q0,1.6,0,3.238,0,3.274,0,6.686a20.353,20.353,0,0,0,.14,3.4,6.974,6.974,0,0,0,4.247,5.094,6.922,6.922,0,0,0,1.7.44,13.45,13.45,0,0,0,1.786.064h.144v5.691l-.245-.1,5.548-5.547.042-.042h.059l24.577.017a12.406,12.406,0,0,0,2.729-.162,6.974,6.974,0,0,0,5.272-5.048,8.2,8.2,0,0,0,.243-2.379q0-1.192,0-2.336,0-2.288.009-4.379t.01-3.967q0-.937.005-1.82a16.749,16.749,0,0,0-.042-1.7,7.1,7.1,0,0,0-5.787-6.193c-.2-.031-.372-.064-.523-.083l-.382-.026C1131.211,169.354,1131.106,169.34,1131.106,169.34Z" transform="translate(-1091.603 -169.22)" fill="#263238"/></g><g transform="translate(14.359 13.412)"><g transform="translate(0 0.071)"><path d="M1118.366,192.95c-.025,0-.031-.14-.1-.372a1.575,1.575,0,0,0-.583-.8,1.486,1.486,0,0,0-1.39-.185,1.454,1.454,0,0,0,0,2.723,1.488,1.488,0,0,0,1.39-.185,1.578,1.578,0,0,0,.583-.8c.073-.232.079-.373.1-.373a.69.69,0,0,1,0,.4,1.573,1.573,0,0,1-.568.938,1.674,1.674,0,0,1-1.6.272,1.706,1.706,0,0,1,0-3.22,1.677,1.677,0,0,1,1.6.272,1.576,1.576,0,0,1,.568.938A.688.688,0,0,1,1118.366,192.95Z" transform="translate(-1115.059 -191.245)" fill="#263238"/></g><g transform="translate(7.299)"><path d="M1130.29,192.834c-.025,0-.03-.141-.1-.373a1.583,1.583,0,0,0-.583-.8,1.488,1.488,0,0,0-1.39-.185,1.454,1.454,0,0,0,0,2.723,1.487,1.487,0,0,0,1.39-.185,1.581,1.581,0,0,0,.583-.8c.073-.232.079-.373.1-.372a.685.685,0,0,1,0,.4,1.574,1.574,0,0,1-.568.938,1.675,1.675,0,0,1-1.6.272,1.706,1.706,0,0,1,0-3.22,1.673,1.673,0,0,1,1.6.272,1.577,1.577,0,0,1,.568.938A.688.688,0,0,1,1130.29,192.834Z" transform="translate(-1126.983 -191.128)" fill="#263238"/></g><g transform="translate(14.599)"><path d="M1142.215,192.834c-.024,0-.031-.141-.1-.373a1.588,1.588,0,0,0-.583-.8,1.489,1.489,0,0,0-1.39-.185,1.454,1.454,0,0,0,0,2.723,1.487,1.487,0,0,0,1.39-.185,1.585,1.585,0,0,0,.583-.8c.073-.232.079-.373.1-.372s.048.141,0,.4a1.575,1.575,0,0,1-.567.938,1.675,1.675,0,0,1-1.6.272,1.706,1.706,0,0,1,0-3.22,1.674,1.674,0,0,1,1.6.272,1.574,1.574,0,0,1,.567.938A.682.682,0,0,1,1142.215,192.834Z" transform="translate(-1138.908 -191.128)" fill="#263238"/></g></g></g><path d="M696.337,128.245c0-4.727-4.967-7.721-10.03-5.352a5.749,5.749,0,0,0-2.664,2.554c-1.274,2.468-.711,5.286.444,7.626l3.941,9.987a1.7,1.7,0,0,0,3.164-.013l3.864-10.04A12.348,12.348,0,0,0,696.337,128.245Zm-4.757,4.113c-3.4,1.979-6.854-1.679-4.988-5.29a2.837,2.837,0,0,1,1.081-1.147c3.4-1.979,6.854,1.679,4.988,5.29A2.839,2.839,0,0,1,691.58,132.358Z" transform="translate(-26.11 -18.231)" fill="#ff3c00"/><g transform="translate(635.722 85.122)"><path d="M700.479,132.708h0s.026.062.068.182l.18.533c.158.478.387,1.174.687,2.081l2.6,7.983.035.108-.113-.02-11.1-2.032-.076-.014v-.078h0l.149.075a27.629,27.629,0,0,1-12.836,5.3,27.936,27.936,0,0,1-3.936.262,30.231,30.231,0,0,1-4.087-.342,29.426,29.426,0,0,1-4.15-.928l-2.051-.749a7.817,7.817,0,0,1-1.013-.439l-1-.482a28.525,28.525,0,0,1-7.41-5.37,27.36,27.36,0,0,1-5.446-7.929A27.746,27.746,0,0,1,677.307,91.53a27.678,27.678,0,0,1,26.632,25.986,26.355,26.355,0,0,1-.754,8.469,26.994,26.994,0,0,1-1.827,5.064c-.27.554-.485.974-.64,1.238l-.239.421.211-.42c.149-.288.357-.707.617-1.264a27.865,27.865,0,0,0,1.771-5.067,26.42,26.42,0,0,0,.7-8.432A27.589,27.589,0,0,0,660.959,96.4a27.507,27.507,0,0,0-9.721,34.326,27.089,27.089,0,0,0,5.385,7.855,28.277,28.277,0,0,0,7.332,5.328l.993.479a7.563,7.563,0,0,0,1,.437l2.031.745a29.255,29.255,0,0,0,4.111.927,30.113,30.113,0,0,0,4.052.348,27.779,27.779,0,0,0,3.9-.251,27.492,27.492,0,0,0,12.755-5.22l.149-.112v.187h0l-.076-.091,11.086,2.081-.077.088-2.534-8-.653-2.092-.163-.538c-.036-.122-.05-.188-.05-.188h0Z" transform="translate(-648.474 -91.499)" fill="#263238"/></g><g transform="translate(823.194 75.057)"><g transform="translate(11.846 12.052)"><path d="M1005.268,110.859a4.422,4.422,0,0,1-.111-.978,8.025,8.025,0,0,0-.131-1.175,11.521,11.521,0,0,0-.308-1.579,14.786,14.786,0,0,0-1.639-4.061,15.217,15.217,0,0,0-3.776-4.35,15.047,15.047,0,0,0-14.184-2.438,14.1,14.1,0,0,0-3.837,1.958,13.717,13.717,0,0,0-3.238,3.109,14.93,14.93,0,0,0-.431,17.7A13.717,13.717,0,0,0,980.7,122.3a14.1,14.1,0,0,0,3.738,2.142,15.161,15.161,0,0,0,18.27-5.909,14.793,14.793,0,0,0,1.834-3.977,11.547,11.547,0,0,0,.385-1.562,8.142,8.142,0,0,0,.188-1.167,4.421,4.421,0,0,1,.158-.972,4.24,4.24,0,0,1,.012.987,6.87,6.87,0,0,1-.11,1.193,10.66,10.66,0,0,1-.315,1.609,14.477,14.477,0,0,1-1.751,4.141,15.6,15.6,0,0,1-10.691,7.225,15.743,15.743,0,0,1-8.263-.842,14.817,14.817,0,0,1-3.951-2.23,14.436,14.436,0,0,1-3.267-3.427,15.686,15.686,0,0,1,.455-18.677,14.462,14.462,0,0,1,3.429-3.263,14.791,14.791,0,0,1,4.054-2.035,15.738,15.738,0,0,1,8.293-.44,15.6,15.6,0,0,1,10.328,7.735,14.484,14.484,0,0,1,1.549,4.221,10.664,10.664,0,0,1,.237,1.622,6.916,6.916,0,0,1,.052,1.2A4.271,4.271,0,0,1,1005.268,110.859Z" transform="translate(-974.073 -94.745)" fill="#455a64"/><g transform="translate(3.962 5.908)"><path d="M1004.7,104.988c.034.048-.244.289-.78.687l-.99.711c-.2.134-.4.286-.63.43l-.758.4a17.371,17.371,0,0,1-9.047,2.278l-1.369-.061-1.314-.206c-.215-.036-.429-.065-.639-.107l-.613-.163c-.4-.112-.8-.207-1.183-.329a19.831,19.831,0,0,1-3.838-1.769c-2.062-1.247-3.066-2.381-2.988-2.454.083-.1,1.2.854,3.281,1.933a23.164,23.164,0,0,0,3.778,1.546c.369.107.754.188,1.142.288l.59.146.612.092,1.255.184,1.306.053a18.733,18.733,0,0,0,8.76-1.967l.767-.333c.233-.122.445-.253.649-.365l1.05-.578C1004.325,105.091,1004.666,104.94,1004.7,104.988Z" transform="translate(-980.546 -104.395)" fill="#455a64"/></g><g transform="translate(3.495 20.7)"><path d="M979.785,133.07c-.034-.048.244-.289.779-.687l.99-.711c.2-.134.4-.286.63-.43l.758-.4a17.37,17.37,0,0,1,9.047-2.278l1.37.061,1.314.206c.215.036.43.065.639.107l.613.163c.4.112.8.207,1.183.329a19.843,19.843,0,0,1,3.838,1.769c2.063,1.247,3.066,2.381,2.988,2.454-.083.1-1.2-.854-3.281-1.933a23.136,23.136,0,0,0-3.779-1.546c-.368-.107-.753-.188-1.141-.288l-.589-.146-.612-.093-1.256-.184-1.305-.053a18.736,18.736,0,0,0-8.761,1.967l-.766.333c-.233.122-.445.253-.65.365l-1.05.578C980.161,132.967,979.819,133.118,979.785,133.07Z" transform="translate(-979.782 -128.559)" fill="#455a64"/></g><g transform="translate(0.416 15.534)"><path d="M1005.523,121.059c-.005.234-6.9.256-15.395.05s-15.381-.563-15.375-.8,6.9-.256,15.4-.05S1005.529,120.826,1005.523,121.059Z" transform="translate(-974.753 -120.121)" fill="#455a64"/></g><g transform="translate(14.901 0.352)"><path d="M998.606,126.08c-.234-.005-.256-6.9-.05-15.389s.563-15.376.8-15.371.256,6.9.05,15.391S998.839,126.086,998.606,126.08Z" transform="translate(-998.415 -95.32)" fill="#455a64"/></g><g transform="translate(7.438 0.343)"><path d="M993.878,126.051c-.058.089-1.753-1.06-3.71-3.663a20.7,20.7,0,0,1-2.75-4.994,18.55,18.55,0,0,1-1.191-6.895,17.647,17.647,0,0,1,1.553-6.825,21.381,21.381,0,0,1,3.006-4.84c2.072-2.5,3.781-3.614,3.838-3.525.083.1-1.465,1.356-3.367,3.894a23.033,23.033,0,0,0-2.761,4.78,17.724,17.724,0,0,0-1.423,6.532,18.723,18.723,0,0,0,1.077,6.611,22.2,22.2,0,0,0,2.506,4.916C992.437,124.665,993.964,125.958,993.878,126.051Z" transform="translate(-986.224 -95.305)" fill="#455a64"/></g><g transform="translate(15.434 0.352)"><path d="M1000.035,95.324c.058-.089,1.753,1.06,3.71,3.663a20.707,20.707,0,0,1,2.75,4.993,18.547,18.547,0,0,1,1.191,6.895,17.65,17.65,0,0,1-1.553,6.826,21.4,21.4,0,0,1-3.006,4.84c-2.072,2.5-3.781,3.614-3.838,3.525-.083-.1,1.465-1.355,3.367-3.893a23.045,23.045,0,0,0,2.761-4.781,17.719,17.719,0,0,0,1.422-6.532,18.717,18.717,0,0,0-1.077-6.611,22.183,22.183,0,0,0-2.506-4.916C1001.476,96.709,999.949,95.417,1000.035,95.324Z" transform="translate(-999.286 -95.319)" fill="#455a64"/></g></g><g transform="translate(0)"><path d="M967,125.768v0h0s-.064.021-.187.052l-.546.132-2.135.5-8.181,1.876-.111.025.031-.11c.831-3,1.848-6.675,3.009-10.871l.021-.075.078.007h0l-.088.142a27.633,27.633,0,0,1-4.135-13.256,27.958,27.958,0,0,1,.089-3.942,30.277,30.277,0,0,1,.7-4.041,29.454,29.454,0,0,1,1.293-4.051l.928-1.976a7.737,7.737,0,0,1,.528-.97l.569-.956a28.53,28.53,0,0,1,6.008-6.9,27.335,27.335,0,0,1,8.381-4.72,27.745,27.745,0,0,1,36.818,29.714,27.677,27.677,0,0,1-28.249,24.216,26.353,26.353,0,0,1-8.369-1.5,26.967,26.967,0,0,1-4.882-2.27c-.528-.318-.927-.569-1.177-.747l-.4-.277.4.247c.274.174.672.418,1.2.727a27.9,27.9,0,0,0,4.889,2.214,26.416,26.416,0,0,0,8.337,1.449,27.589,27.589,0,0,0,24.847-40.773A27.5,27.5,0,0,0,973.348,76.9a27.088,27.088,0,0,0-8.3,4.665,28.285,28.285,0,0,0-5.959,6.83l-.566.946A7.586,7.586,0,0,0,958,90.3l-.923,1.956a29.285,29.285,0,0,0-1.289,4.012,30.168,30.168,0,0,0-.706,4.005,27.526,27.526,0,0,0,3.968,17.078l.1.159-.187-.017h0l.1-.068L956,128.284l-.081-.085,8.2-1.813,2.142-.465.55-.114c.124-.025.191-.034.191-.034h0Z" transform="translate(-954.722 -75.057)" fill="#263238"/></g></g><path d="M1006.657,179.112c-2.692.627-4.417,3.355-4.992,6.058s-.294,5.511-.552,8.262-1.222,5.677-3.538,7.185l2.305.667a6.294,6.294,0,0,1-2.708,3.47,5.131,5.131,0,0,0,3.15,1.073c-1.357.36-1.733,2.3-.983,3.481a5.623,5.623,0,0,0,3.534,2.091,9.27,9.27,0,0,0,4.9.149,7.843,7.843,0,0,0,4.753-4.794,20.172,20.172,0,0,0,1.076-6.868,61.254,61.254,0,0,0-1.663-17.366,6.061,6.061,0,0,0-2.018-3.617c-1.16-.8-3.146-.479-3.494.889" transform="translate(-147.992 -40.108)" fill="#ff3c00"/><path d="M1056.1,290.708c-.639-2.436-4.363-16.142-7.69-25.1-3.693-9.939-11.312-11.989-11.312-11.989-17.151-5.852-32.563-5.886-49.021-.181-.526.164-1.038.339-1.529.53l-.054.018h0c-12.207,4.791-13.466,17.684-13.466,17.684L967.9,302.963a6.733,6.733,0,0,0-.123.75l-.049.3.022,0a7.327,7.327,0,0,0,4.194,7.066c7.168,3.3,14.009,2.517,19.887.089l-4.271,6.223h50.867l-3.4-8.224,1.131-4.945,7.879,9.482a7.336,7.336,0,0,0,3.627,2.365c9.083,1.056,10.553-12.473,8.844-20.344h0" transform="translate(-136.571 -67.539)" fill="#455a64"/><path d="M1041.979,249.884s-8.2,41.283-11.1,40.977-16.452-40.2-16.452-40.2S1031.763,246.04,1041.979,249.884Z" transform="translate(-154.685 -67.213)" fill="#ffbf9d"/><g transform="translate(855.807 140.084)"><g transform="translate(0)"><path d="M1016.207,226.918c-.043-4.753-.176-9.755-.176-9.755s-6.129-.979-7.446-8.96c-1.256-7.611-.108-25.212-.108-25.212h0a22.959,22.959,0,0,1,25.571,5.7h0l-.283,38.607c-.032,4.482-3.912,8.023-8.711,7.951h0C1020.208,235.173,1016.248,231.446,1016.207,226.918Z" transform="translate(-1007.997 -181.283)" fill="#ffbf9d"/></g><g transform="translate(1.145 13.21)"><g transform="translate(1.366 0.885)"><path d="M1012.1,205.239a1.025,1.025,0,0,0,.994,1.028.981.981,0,0,0,1.051-.93,1.025,1.025,0,0,0-.993-1.028A.981.981,0,0,0,1012.1,205.239Z" transform="translate(-1012.099 -204.307)" fill="#263238"/></g><path d="M1009.885,203.951c.127.133.9-.446,2-.45,1.1-.02,1.914.542,2.032.407.058-.061-.072-.3-.427-.555a2.814,2.814,0,0,0-1.628-.491,2.7,2.7,0,0,0-1.593.525C1009.935,203.649,1009.821,203.892,1009.885,203.951Z" transform="translate(-1009.868 -202.862)" fill="#263238"/></g><g transform="translate(12.651 13.54)"><g transform="translate(1.01 1.09)"><path d="M1030.314,206.114a1.025,1.025,0,0,0,.994,1.028.98.98,0,0,0,1.051-.93,1.025,1.025,0,0,0-.994-1.028A.981.981,0,0,0,1030.314,206.114Z" transform="translate(-1030.313 -205.182)" fill="#263238"/></g><path d="M1028.68,204.491c.128.133.9-.446,2-.45,1.1-.02,1.914.542,2.032.406.058-.06-.071-.3-.426-.555a2.814,2.814,0,0,0-1.628-.491,2.7,2.7,0,0,0-1.593.525C1028.731,204.189,1028.617,204.432,1028.68,204.491Z" transform="translate(-1028.663 -203.402)" fill="#263238"/></g><g transform="translate(5.902 13.641)"><path d="M1020.452,212.755a7.3,7.3,0,0,0-1.792-.312c-.282-.028-.549-.082-.6-.274a1.438,1.438,0,0,1,.183-.836q.391-1.025.82-2.149a36.919,36.919,0,0,0,1.836-5.618,36.881,36.881,0,0,0-2.284,5.457q-.411,1.131-.784,2.162a1.627,1.627,0,0,0-.14,1.106.707.707,0,0,0,.466.409,1.9,1.9,0,0,0,.478.063A7.157,7.157,0,0,0,1020.452,212.755Z" transform="translate(-1017.638 -203.566)" fill="#263238"/></g><g transform="translate(8.034 32.961)"><path d="M1021.121,238.046a20.322,20.322,0,0,0,10.681-2.919s-2.562,5.5-10.562,4.8Z" transform="translate(-1021.121 -235.127)" fill="#ff9a6c"/></g><g transform="translate(9.09 24.725)"><path d="M1022.954,222.431a1.988,1.988,0,0,1,1.777-.749,1.812,1.812,0,0,1,1.256.664,1.149,1.149,0,0,1,.1,1.314,1.333,1.333,0,0,1-1.443.374,4.168,4.168,0,0,1-1.414-.833,1.208,1.208,0,0,1-.317-.324.369.369,0,0,1,0-.41" transform="translate(-1022.846 -221.672)" fill="#ff9a6c"/></g><g transform="translate(8.469 23.572)"><path d="M1025.328,219.79c-.179-.009-.174,1.188-1.194,2.043s-2.294.732-2.3.9c-.016.075.285.231.824.242a2.976,2.976,0,0,0,1.922-.683,2.6,2.6,0,0,0,.924-1.713C1025.545,220.078,1025.41,219.783,1025.328,219.79Z" transform="translate(-1021.832 -219.79)" fill="#263238"/></g></g><g transform="translate(854.889 135.466)"><path d="M1029.162,179.327c-2.848,4.22-10.51,8.641-16.032,9.734.632-.863,4-3.021,4.63-3.884-2.479,1.92-6.028,4.492-9.357,4.72a2.029,2.029,0,0,1-1.148-.158,1.546,1.546,0,0,1-.6-1.245,33.307,33.307,0,0,1,.1-7.242,8.013,8.013,0,0,1,2.791-5.215c2.106-1.686,5.154-2.147,8.031-2.267a18.26,18.26,0,0,1,7.126.83c2.222.833,4.14,2.521,4.5,4.585" transform="translate(-1006.497 -173.738)" fill="#ff3c00"/></g><g transform="translate(874.909 137.376)"><path d="M1051.289,199.857a45.2,45.2,0,0,0,.7-5.353c.163-4.126,1.4-19.017-12.792-17.542l.8,4s-2.645,9.271,3.447,15.524c0,0-1.736,13.062,2.5,17.283,0,0,4.549-9.463,5.335-13.916" transform="translate(-1039.201 -176.86)" fill="#ff3c00"/></g><g transform="translate(878.713 156.21)"><path d="M1045.68,207.734a4.77,4.77,0,0,1,2.572.149,3.325,3.325,0,0,1,1.893,1.7,3.473,3.473,0,0,1,.037,2.553,5.881,5.881,0,0,1-1.442,2.157,3.989,3.989,0,0,1-1.545,1.038,1.9,1.9,0,0,1-1.781-.265" transform="translate(-1045.415 -207.626)" fill="#ffbf9d"/></g><g transform="translate(879.442 157.399)"><path d="M1046.646,213.663c-.1.032.277.547,1.057.332a1.68,1.68,0,0,0,.96-.848,3.8,3.8,0,0,0,.417-1.42,2.231,2.231,0,0,0-.37-1.5,1.487,1.487,0,0,0-1.126-.656c-.8-.013-1.049.545-.958.561.065.065.375-.224.9-.1a1.441,1.441,0,0,1,.9,1.645c-.091.88-.424,1.686-.89,1.889C1047.052,213.813,1046.7,213.592,1046.646,213.663Z" transform="translate(-1046.607 -209.568)" fill="#ff9a6c"/></g><g transform="translate(850.842 209.688)"><path d="M1000.031,309.473c-.08,0-.144-3.243-.144-7.243s.064-7.244.144-7.244.143,3.243.143,7.244S1000.11,309.473,1000.031,309.473Z" transform="translate(-999.887 -294.986)" fill="#263238"/></g><g transform="translate(863.841 192.478)"><g transform="translate(0 16.817)"><path d="M1028.939,294.438s-7.14.078-7.591,1.66c-.749,2.624.588,17.008.588,17.008l6.578,2.185s3.173-.732,1.708-6.834a44.594,44.594,0,0,0-4.349-10.983s8.742.244,8.5-1.709S1028.939,294.438,1028.939,294.438Z" transform="translate(-1021.121 -294.342)" fill="#ffbf9d"/><path d="M1029.252,301.27c.393-.075,9.132-.8,8.583.6s-8.583,1.746-8.583,1.746Z" transform="translate(-1024.274 -296.931)" fill="#ffbf9d"/></g><path d="M1055.76,266.871l-1.079,27.291-3.987,10.474-24.491.507-.989-33.8Z" transform="translate(-1022.708 -266.871)" fill="#263238"/></g><g transform="translate(834.152 219.006)"><path d="M1001.971,310.208a1.461,1.461,0,0,1-.3.155l-.881.394-3.262,1.4-10.8,4.507-5.962,2.45A34.44,34.44,0,0,0,976,321.3a9.244,9.244,0,0,0-2.663,2.266c-.5.662-.686,1.095-.716,1.079a1.44,1.44,0,0,1,.13-.312,5.2,5.2,0,0,1,.5-.834,8.913,8.913,0,0,1,2.648-2.372,32.582,32.582,0,0,1,4.765-2.26l5.953-2.471,10.836-4.43,3.3-1.312.9-.343A1.514,1.514,0,0,1,1001.971,310.208Z" transform="translate(-972.622 -310.207)" fill="#263238"/></g><g transform="translate(855.256 229.701)"><path d="M1023.439,327.678a4.775,4.775,0,0,1-.535.656c-.36.409-.9.989-1.584,1.679-1.368,1.388-3.35,3.212-5.63,5.119s-4.419,3.543-5.993,4.689c-.785.575-1.431,1.027-1.882,1.332a4.73,4.73,0,0,1-.718.449,4.8,4.8,0,0,1,.652-.539l1.826-1.4c1.541-1.186,3.654-2.845,5.931-4.746s4.272-3.7,5.672-5.045c.705-.669,1.26-1.225,1.644-1.61A4.807,4.807,0,0,1,1023.439,327.678Z" transform="translate(-1007.097 -327.677)" fill="#263238"/></g><g transform="translate(892.653 228.588)"><path d="M1084.02,344.437c-.061.051-3.654-4.065-8.025-9.195s-7.868-9.331-7.808-9.382,3.653,4.065,8.025,9.2S1084.08,344.386,1084.02,344.437Z" transform="translate(-1068.187 -325.86)" fill="#263238"/></g><g transform="translate(896.881 216.626)"><path d="M1093.62,317.03a4.748,4.748,0,0,1-.8-.283c-.507-.2-1.23-.505-2.117-.9-1.773-.8-4.184-1.985-6.754-3.469s-4.8-2.983-6.378-4.123c-.787-.57-1.415-1.044-1.839-1.384a4.757,4.757,0,0,1-.642-.548,4.786,4.786,0,0,1,.709.459l1.889,1.308c1.6,1.1,3.844,2.559,6.4,4.04s4.949,2.693,6.7,3.534l2.076.984A4.793,4.793,0,0,1,1093.62,317.03Z" transform="translate(-1075.094 -306.318)" fill="#263238"/></g><g transform="translate(901.084 208.301)"><path d="M1083.608,305.768c-.078.01-.508-2.9-.96-6.506s-.754-6.533-.675-6.543.508,2.9.96,6.507S1083.687,305.757,1083.608,305.768Z" transform="translate(-1081.96 -292.719)" fill="#263238"/></g><g transform="translate(878.279 161.441)"><path d="M1048.442,216.171a1.643,1.643,0,0,1-.226.349l-.7.938-2.536,3.29-.021-.176,4.135,3.248.374.3-.2.023,3.578-4.483.02.166-2.694-2.2-.738-.625c-.167-.147-.253-.23-.245-.239a1.282,1.282,0,0,1,.289.184l.778.574,2.756,2.116.094.072-.074.095-3.538,4.513-.089.113-.113-.089-.375-.3-4.113-3.276-.1-.08.079-.1,2.618-3.225.752-.894A1.7,1.7,0,0,1,1048.442,216.171Z" transform="translate(-1044.706 -216.17)" fill="#263238"/></g><g transform="translate(873.685 207.546)"><g transform="translate(0 0)"><path d="M1056.037,312.121a97.092,97.092,0,0,1-11.824-1.267c-4.633-.74-4.583-1.161-4.418-1.69.443-1.423,8.193.992,6.8-.5s-9.793-1.844-9.269-3.311c.682-1.91,8.753.767,9.452.943.678.171.95-.834.312-.959-.917-.179-10.511-2.3-9.859-4.187.361-1.044,2.169-.17,2.169-.17s8.848,2.653,9.126,1.753-4.864-2.648-6.638-3.109c-1.753-.456-2.27-1.48-1.443-2.094.563-.418,6.025.866,7.77,1.363s6.506,1.947,4.689-.688c-.029-.042-.05-.083-.078-.125-1.86-2.546-2.449-5.124-2.112-5.986a1.09,1.09,0,0,1,1.96.006,1.134,1.134,0,0,1,.179.422c.012.067.046.155.066.229a15.747,15.747,0,0,0,1.606,2.8,8.5,8.5,0,0,0,2.006,2.073c.9.658,3.186,3.07,3.875,3.5" transform="translate(-1037.202 -291.486)" fill="#ffbf9d"/></g></g><g transform="translate(662.796 135.901)"><g transform="translate(40.516)"><g transform="translate(6.803 4.787)"><path d="M788.551,237.3h0a9.663,9.663,0,0,1-9.484-9.368c-.129-4.292-.227-8.424-.227-8.424s-7.879-.732-8.456-8.529-.331-25.8-.331-25.8h0a27.171,27.171,0,0,1,27.46,1.744l1.211.818-.335,39.975A9.663,9.663,0,0,1,788.551,237.3Z" transform="translate(-769.999 -182.269)" fill="#b78876"/><g transform="translate(5.801 14.526)"><path d="M782.317,215.38a5.231,5.231,0,0,0-1.76-.261c-.283-.013-.507-.063-.538-.213a1.535,1.535,0,0,1,.152-.817l.715-2.236c.982-3.183,1.647-5.8,1.486-5.853s-1.089,2.49-2.071,5.673l-.669,2.25a1.8,1.8,0,0,0-.081,1.178.737.737,0,0,0,.512.419,1.829,1.829,0,0,0,.484.033A5.233,5.233,0,0,0,782.317,215.38Z" transform="translate(-779.476 -205.998)" fill="#263238"/></g><g transform="translate(7.032 24.879)"><path d="M786.662,222.911a26.343,26.343,0,0,1-5.176,1.857,2.975,2.975,0,0,0,3.578.965C787.346,224.735,786.662,222.911,786.662,222.911Z" transform="translate(-781.486 -222.911)" fill="#fff"/></g><g transform="translate(8.82 33.61)"><path d="M784.407,240.692a18.176,18.176,0,0,0,9.994-3.518s-2.058,5.763-9.887,5.541Z" transform="translate(-784.407 -237.174)" fill="#b66955"/></g><g transform="translate(28.253 13.937)"><path d="M816.189,206.219a1.178,1.178,0,0,1,1.126-1.181c1.456-.04,3.838.537,4.061,4.555.32,5.74-5.2,4.308-5.22,4.144C816.141,213.609,816.174,208.449,816.189,206.219Z" transform="translate(-816.152 -205.036)" fill="#b78876"/><g transform="translate(1.264 1.843)"><path d="M818.221,212.648c.025-.02.1.065.277.133a1,1,0,0,0,.748-.026,2.476,2.476,0,0,0,1.021-2.283,3.3,3.3,0,0,0-.359-1.416,1.158,1.158,0,0,0-.795-.726.511.511,0,0,0-.575.307c-.068.165-.026.277-.055.288s-.129-.089-.1-.329a.64.64,0,0,1,.206-.372.757.757,0,0,1,.545-.177,1.407,1.407,0,0,1,1.094.832,3.405,3.405,0,0,1,.436,1.581,2.6,2.6,0,0,1-1.32,2.559,1.071,1.071,0,0,1-.923-.1C818.24,212.787,818.2,212.66,818.221,212.648Z" transform="translate(-818.217 -208.046)" fill="#b66955"/></g></g></g><g transform="translate(7.479 18.593)"><g transform="translate(1.817 1.295)"><path d="M774.074,207.97a1.06,1.06,0,0,0,1.1.994,1.014,1.014,0,0,0,1.022-1.03,1.06,1.06,0,0,0-1.094-.995A1.014,1.014,0,0,0,774.074,207.97Z" transform="translate(-774.073 -206.939)" fill="#263238"/></g><path d="M771.125,206.088c.141.129.9-.521,2.037-.6,1.135-.094,2.011.432,2.125.283.056-.066-.095-.3-.477-.544a2.908,2.908,0,0,0-1.713-.4,2.794,2.794,0,0,0-1.609.649C771.157,205.773,771.056,206.031,771.125,206.088Z" transform="translate(-771.104 -204.823)" fill="#263238"/></g><g transform="translate(19.024 18.593)"><g transform="translate(1.578 1.099)"><path d="M792.542,207.649a1.06,1.06,0,0,0,1.095.994,1.013,1.013,0,0,0,1.022-1.03,1.06,1.06,0,0,0-1.094-.995A1.013,1.013,0,0,0,792.542,207.649Z" transform="translate(-792.541 -206.618)" fill="#263238"/></g><path d="M789.983,206.088c.141.129.9-.521,2.037-.6,1.135-.094,2.011.432,2.125.283.056-.066-.094-.3-.477-.544a2.907,2.907,0,0,0-1.713-.4,2.8,2.8,0,0,0-1.609.649C790.016,205.773,789.915,206.031,789.983,206.088Z" transform="translate(-789.963 -204.823)" fill="#263238"/></g><g transform="translate(2.506)"><path d="M762.98,174.449" transform="translate(-762.98 -174.449)" fill="none" stroke="#4e585d" stroke-miterlimit="10" stroke-width="0.05"/></g><path d="M801.944,181.315a6.83,6.83,0,0,0,1.3,7.323,27.121,27.121,0,0,1,2.4,2.286c1.379,1.833,1.155,4.353,1.37,6.638a4.415,4.415,0,0,0,1.126,2.9,1.871,1.871,0,0,0,2.774-.142,2.772,2.772,0,0,0,.286-.916l1.434-7.629a16.38,16.38,0,0,0,.388-5.777,8.157,8.157,0,0,0-10.19-6.478" transform="translate(-775.375 -176.307)" fill="#263238"/><path d="M786.652,177.934a23.4,23.4,0,0,1-6.007-2.2,8.808,8.808,0,0,0-5.966-.678c-1.333.377-2.595,1.178-3.969,1.164s-2.584-.824-3.888-1.235a6.934,6.934,0,0,0-5.389.551,4.606,4.606,0,0,0-2.541,3.5c-.108,1.54,1.267,3.135,2.645,2.7-1.44.5-2.026,2.621-1.306,4.039a3.7,3.7,0,0,0,3.881,1.825A7.02,7.02,0,0,0,768,185.237a3.2,3.2,0,0,0,3.35,2.872,8.11,8.11,0,0,0,4.357-1.992,11.739,11.739,0,0,1,4.214-2.406,33,33,0,0,1,3.323-.245,3.493,3.493,0,0,0,2.818-1.668c.535-1.055,2.653-2.264,1.543-2.294" transform="translate(-758.886 -174.538)" fill="#263238"/><g transform="translate(12.089 6.186)"><path d="M778.635,190.216a6.406,6.406,0,0,0,.588.314,2.817,2.817,0,0,0,1.767-.006,4.7,4.7,0,0,0,1.137-.5c.386-.232.776-.526,1.194-.829a9.984,9.984,0,0,1,1.382-.883,3.982,3.982,0,0,1,1.73-.433c1.225-.022,2.335.309,3.339.218a3.023,3.023,0,0,0,2.247-1.22,3.325,3.325,0,0,0,.669-1.65c.043-.427,0-.668.029-.672.01,0,.026.057.048.171a2.163,2.163,0,0,1,.034.508A3.243,3.243,0,0,1,792.18,187a3.3,3.3,0,0,1-.952.9,3.215,3.215,0,0,1-1.436.462c-1.068.107-2.194-.22-3.353-.195a5.2,5.2,0,0,0-2.967,1.245c-.421.3-.82.587-1.227.82a4.743,4.743,0,0,1-1.205.491,2.8,2.8,0,0,1-1.862-.087,1.691,1.691,0,0,1-.428-.283C778.668,190.268,778.628,190.223,778.635,190.216Z" transform="translate(-778.634 -184.554)" fill="#263238"/></g><g transform="translate(26.738 0.674)"><path d="M802.79,175.551a5.847,5.847,0,0,0,.877,3.517,3.144,3.144,0,0,1-.877-3.517Z" transform="translate(-802.564 -175.55)" fill="#263238"/></g><g transform="translate(27.923 0.551)"><path d="M806.475,175.353c.06.063-.65.735-1.181,1.788s-.675,2.015-.762,2a4.6,4.6,0,0,1,1.943-3.791Z" transform="translate(-804.501 -175.349)" fill="#263238"/></g></g><path d="M858.419,308.72,870.4,339.56H852.059l-8.55-21.954Z" transform="translate(-751.19 -226.525)" fill="#b78876"/><path d="M734.962,241.355s-15.794,16.271-22.635,16.271c-2.235,0-3.988-27.1-4.015-34.911h0a10.09,10.09,0,0,1,1.538-2.806,13.056,13.056,0,0,1,1.985-2.193,13.655,13.655,0,0,1,3.1-2c1.068-.376,1.156-1.838.185-2.128s-3.939.673-6.594,3.191-1.86-3.116-1.608-5.174.736-8.454.163-9.016c-.839-.825-1.9-.059-2.109,2-.207,2.085-1.254,8.2-2.336,8.047-1.066-.155.364-10.617.364-10.617s.668-2.2-.575-2.42c-2.243-.4-2.943,10.809-2.983,11.877-.027.743-1.211.614-1.138-.182.075-.82,1.669-10.409-.609-10.842-1.75-.332-.662,9.22-2.1,11.054s-.083-7.346-1.768-7.594c-.628-.092-1.11-.074-1.126,5.29-.009,2.883,1.1,7.238.672,12.79h0c.73,16.384-.075,62.4,18.159,56.946a91.918,91.918,0,0,0,33.749-19.132Z" transform="translate(-692.701 -184.2)" fill="#b78876"/><g transform="translate(86.509 71.738)"><path d="M834.024,291.637a3.033,3.033,0,0,1,.179.648c.1.421.223,1.033.366,1.791.285,1.517.618,3.625.878,5.967s.394,4.472.446,6.015c.027.771.038,1.4.034,1.827a3,3,0,0,1-.034.672,3.035,3.035,0,0,1-.078-.667c-.034-.49-.076-1.1-.125-1.821-.105-1.537-.272-3.658-.529-5.994s-.559-4.441-.793-5.964c-.11-.716-.2-1.319-.275-1.8A3.081,3.081,0,0,1,834.024,291.637Z" transform="translate(-834.018 -291.637)" fill="#263238"/></g><g transform="translate(22.212 45.711)"><g transform="translate(0 3.305)"><path d="M746.357,318.539l50.5.257-1.7-10.661a82.223,82.223,0,0,0-.075-15.2l2.557,6.935,20.873-10.437s-7.588-20.234-13.94-27.086c-8.026-8.66-22.464-7.8-22.464-7.8l-9.757,6.628-8.98-6.325a43.653,43.653,0,0,0-13.877,4.036l-.462.135,0,.1c-5.3,2.769-12.852,9.511-20.051,16.057l8.308,8.089,9.2,8.571a7.641,7.641,0,0,1,1.573-.067C748.226,292.669,746.357,318.539,746.357,318.539Z" transform="translate(-728.986 -254.519)" fill="#455a64"/><path d="M834.3,286.36l6.862,24.475-2.756,1.378-2.557-6.935S833.36,290.769,834.3,286.36Z" transform="translate(-769.748 -266.868)" opacity="0.2"/></g><path d="M784.246,252.636v-2.643s7.886-.612,9.484,8.7c0,0,2.57-8.7,10.221-9.577l1.091,4.069s-3.625,11.335-4.151,11.433-7.161,2.034-7.161,2.034l-3.843-.872-4.27-4.86Z" transform="translate(-750.418 -249.121)" fill="#455a64"/><g transform="translate(45.065 3.757)"><path d="M812.342,255.259a2.8,2.8,0,0,1-.436.46c-.288.288-.708.7-1.2,1.229a28.1,28.1,0,0,0-3.419,4.5c-.242.394-.465.788-.675,1.167l-.126.229-.122-.228-2.243-4.2a1.856,1.856,0,0,0-.5-.575,1.127,1.127,0,0,0-.53-.193,1.2,1.2,0,0,0-.481.086c-.011,0,.127-.177.485-.186a1.178,1.178,0,0,1,.605.171,1.94,1.94,0,0,1,.582.6c.622,1.038,1.415,2.5,2.335,4.166h-.249c.21-.385.434-.784.678-1.182a24.3,24.3,0,0,1,3.518-4.489c.517-.516.961-.907,1.273-1.17A2.634,2.634,0,0,1,812.342,255.259Z" transform="translate(-802.603 -255.258)" fill="#263238"/></g><g transform="translate(33.316 4.227)"><path d="M783.412,256.027c.016-.012.149.13.376.4s.548.66.941,1.148c.785.977,1.854,2.339,3.021,3.854l.187.242-.239.018a9.9,9.9,0,0,0,.65-2.455,2.909,2.909,0,0,1,1.09-1.837,1.609,1.609,0,0,1,1.42-.182,1.022,1.022,0,0,1,.333.214c.06.069.086.107.079.113a2.408,2.408,0,0,0-.448-.224,1.546,1.546,0,0,0-1.275.244,2.772,2.772,0,0,0-.946,1.731,9.353,9.353,0,0,1-.653,2.534l-.1.2-.136-.177-.187-.242c-1.167-1.515-2.21-2.9-2.954-3.906-.372-.5-.669-.916-.869-1.2A2.018,2.018,0,0,1,783.412,256.027Z" transform="translate(-783.41 -256.026)" fill="#263238"/></g><g transform="translate(38.918 9.632)"><path d="M792.567,322.547a.607.607,0,0,1,0-.15c.005-.115.01-.26.017-.438.022-.406.053-.969.092-1.683.094-1.483.227-3.59.392-6.185.36-5.24.855-12.443,1.4-20.4l1.484-20.4c.2-2.592.367-4.7.483-6.179.062-.712.11-1.273.146-1.679.018-.178.033-.321.045-.436a.576.576,0,0,1,.025-.147.587.587,0,0,1,0,.15l-.017.438c-.022.406-.053.969-.092,1.682-.094,1.483-.228,3.59-.392,6.185-.36,5.24-.854,12.443-1.4,20.4-.578,7.954-1.1,15.154-1.484,20.393-.2,2.592-.367,4.7-.483,6.179-.062.713-.111,1.274-.146,1.68-.018.178-.033.321-.045.436A.6.6,0,0,1,792.567,322.547Z" transform="translate(-792.562 -264.855)" fill="#263238"/></g><g transform="translate(19.076 18.343)"><path d="M761.87,279.085a5.183,5.183,0,0,1-.048.875c-.049.612-.113,1.413-.19,2.378-.151,2.008-.3,4.787-.476,7.858s-.356,5.852-.559,7.86c-.1,1-.2,1.815-.28,2.373a5.153,5.153,0,0,1-.16.863,5.156,5.156,0,0,1,.048-.875c.049-.612.113-1.412.19-2.378.151-2.009.3-4.787.476-7.859s.356-5.85.559-7.858c.1-1,.2-1.814.28-2.373A5.132,5.132,0,0,1,761.87,279.085Z" transform="translate(-760.148 -279.085)" fill="#263238"/></g><g transform="translate(38.129 6.153)"><path d="M797.334,262.6s-2.707,3.537-2.311,4.068,2.311,3.085,2.311,3.085h1.645s1.543-4.327,1.146-4.876A24.259,24.259,0,0,0,797.334,262.6Z" transform="translate(-792.712 -260.5)" fill="#ff4f5b"/><path d="M803.721,261.034l-2.988,2.339,1.146,2.194,3.075-2.267Z" transform="translate(-794.941 -259.894)" fill="#ff4f5b"/><path d="M791.272,261.788,794,264.064l1.511-2.276-3.442-2.615Z" transform="translate(-791.272 -259.173)" fill="#ff4f5b"/><path d="M796.188,274l-4.16,37.248,4.092,12.954,5.457-12.836-3.591-37.81Z" transform="translate(-791.565 -264.751)" fill="#ff4f5b"/></g><g transform="translate(63.649 7.719)"><path d="M841.148,262.488a3.772,3.772,0,0,0-.539-.369,2.325,2.325,0,0,0-1.71-.1,5.319,5.319,0,0,0-2.132,1.5,12.585,12.585,0,0,0-1.948,2.6,13.183,13.183,0,0,0-1.651,5.647c-.091,1.522.105,2.463.044,2.469a2.972,2.972,0,0,1-.144-.654,10.89,10.89,0,0,1-.1-1.824,12.564,12.564,0,0,1,1.6-5.778,12.2,12.2,0,0,1,2.011-2.649,5.338,5.338,0,0,1,2.262-1.513,2.364,2.364,0,0,1,1.821.193,1.555,1.555,0,0,1,.39.32C841.125,262.429,841.154,262.482,841.148,262.488Z" transform="translate(-832.96 -261.731)" fill="#263238"/></g></g></g><path d="M903.554,187.678a18.943,18.943,0,0,0-7.432,9.654,48.683,48.683,0,0,0-2.435,12.133,236.178,236.178,0,0,0-1.141,32.721c13.344,1.689,26.79,3.381,40.21,2.468-2.327-15.324-3.8-30.629-1.937-46.016" transform="translate(-107.359 -43.679)" fill="#263238"/><g transform="translate(753.316 188.425)"><g transform="translate(0)"><path d="M913.422,343.18l-9.714-19.648,3.708-14.369c.436,3.045.823,5.688.823,5.688l20.841-1.1a1.323,1.323,0,0,0,1.24-1.507L926.248,283.5s-1.3-13.333-13.926-18.288h0l-.056-.019c-.507-.2-1.036-.379-1.581-.548-17.021-5.9-32.959-5.865-50.7.187,0,0-7.88,2.12-11.7,12.4s-7.719,25.391-7.719,25.391l17.7,6.248.117-2.987,3.91,14.953-8.577,21.781,29.924.739Z" transform="translate(-840.572 -260.251)" fill="#ff3c00"/></g></g><path d="M839.191,329.165l-1.985,9.385a14.678,14.678,0,0,0,12.459,17.276l43.555,4.471a17.307,17.307,0,0,0,19.187-15.688h0l-54.916-5.236.345-5.27Z" transform="translate(-85.837 -98.554)" fill="#ff3c00"/><path d="M929.44,338.742l3.383-.626s8.019-8.77,9.522-8.9c1.237-.1,8.059-.037,10.435-.01a.825.825,0,0,1,.816.826h0a.827.827,0,0,1-.795.826l-8.06.312-.038.649,8.071.107c.822.063,1.349,1.364-1.282,1.6l-6.75.24v.419l6.845.957c.346.048,1.255.225,1.264.574,0,0,.414.858-1.536,1.1-.67.083-6.611-.114-6.611-.114l.229.534,6.151,1.327a.875.875,0,0,1,.681.976h0a.875.875,0,0,1-.947.749l-6.573-.61-6.45,5.152h-8.625Z" transform="translate(-121.618 -98.553)" fill="#ffbf9d"/><path d="M894.641,259.916s8.484,43.386,11.477,43.068,17.014-41.57,17.014-41.57S905.207,255.942,894.641,259.916Z" transform="translate(-108.226 -71.135)" fill="#fafafa"/><g transform="translate(823.821 217.413)"><path d="M955.889,320.97c-.079,0-.143-2.992-.143-6.682s.064-6.683.143-6.683.143,2.992.143,6.683S955.969,320.97,955.889,320.97Z" transform="translate(-955.746 -307.605)" fill="#263238"/></g><g transform="translate(771.865 218.013)"><path d="M870.883,321.63a12.888,12.888,0,0,1,.178-1.924c.146-1.184.368-2.817.63-4.619s.516-3.431.714-4.608a12.892,12.892,0,0,1,.378-1.9,12.905,12.905,0,0,1-.178,1.925c-.146,1.184-.367,2.817-.63,4.618s-.516,3.429-.713,4.605A12.994,12.994,0,0,1,870.883,321.63Z" transform="translate(-870.873 -308.584)" fill="#263238"/></g><g transform="translate(796.338 232.008)"><path d="M910.9,370.964a2.018,2.018,0,0,1-.026-.4c0-.292-.011-.675-.019-1.153-.008-1,0-2.449.036-4.238.066-3.579.26-8.519.505-13.971s.471-10.392.589-13.966c.053-1.764.1-3.2.127-4.234.014-.478.026-.86.035-1.151a2.159,2.159,0,0,1,.031-.4,2.094,2.094,0,0,1,.026.4c0,.292.011.675.019,1.153.008,1,0,2.449-.036,4.238-.066,3.578-.26,8.519-.506,13.974s-.471,10.389-.589,13.964c-.053,1.764-.1,3.2-.127,4.234-.015.477-.026.86-.035,1.151A2.158,2.158,0,0,1,910.9,370.964Z" transform="translate(-910.851 -331.447)" fill="#263238"/></g><g transform="translate(797.516 190.193)"><path d="M930.094,263.139c.014,0,.029.187.093.539a7.9,7.9,0,0,0,.434,1.5,16.74,16.74,0,0,0,1.1,2.216,30.284,30.284,0,0,1,1.561,2.907,7.009,7.009,0,0,1,.661,3.941,5.086,5.086,0,0,1-.885,2.075,13.9,13.9,0,0,1-1.554,1.8,27.621,27.621,0,0,0-3.3,3.79,9.005,9.005,0,0,0-1.7,4.984,6.176,6.176,0,0,0,.583,2.611,23.461,23.461,0,0,1,1.069,2.47,3.7,3.7,0,0,1,.173,1.337,2.766,2.766,0,0,1-.417,1.265,6.884,6.884,0,0,1-1.832,1.719l-6.9,5.083-4.665,3.407-1.278.915-.336.232a.506.506,0,0,1-.121.071s.032-.036.1-.094l.319-.255,1.245-.957,4.611-3.48,6.862-5.132a6.7,6.7,0,0,0,1.757-1.652,2.489,2.489,0,0,0,.371-1.14,3.409,3.409,0,0,0-.165-1.235,23.566,23.566,0,0,0-1.061-2.437,6.445,6.445,0,0,1-.609-2.726,9.251,9.251,0,0,1,1.758-5.142,27.509,27.509,0,0,1,3.347-3.818,7.317,7.317,0,0,0,2.393-3.727,6.84,6.84,0,0,0-.613-3.819,31.639,31.639,0,0,0-1.515-2.909,16.031,16.031,0,0,1-1.063-2.255,7.115,7.115,0,0,1-.386-1.529,3.7,3.7,0,0,1-.037-.408A.484.484,0,0,1,930.094,263.139Z" transform="translate(-912.776 -263.139)" fill="#263238"/></g><g transform="translate(780.98 188.796)"><path d="M902.642,303.469a.485.485,0,0,1-.135-.015l-.389-.072a13.308,13.308,0,0,1-1.469-.4,14.732,14.732,0,0,1-4.842-2.778,14.3,14.3,0,0,1-4.442-6.933,14.8,14.8,0,0,1-.575-4.88,16.717,16.717,0,0,1,.346-2.58,5.92,5.92,0,0,0,.072-2.575,2.094,2.094,0,0,0-.668-1.04,3.512,3.512,0,0,0-1.13-.566c-.409-.138-.834-.251-1.245-.421a3.6,3.6,0,0,1-1.115-.723,4.379,4.379,0,0,1-1.133-2.275,9.317,9.317,0,0,1-.134-2.42A33.607,33.607,0,0,1,889.9,262.6c.327-.574.59-1.014.782-1.3l.217-.331a.479.479,0,0,1,.082-.107.487.487,0,0,1-.057.123l-.192.345c-.175.3-.422.747-.733,1.328a36.514,36.514,0,0,0-2.22,5.1,33.879,33.879,0,0,0-1.733,8.046,9.083,9.083,0,0,0,.138,2.348,4.125,4.125,0,0,0,1.061,2.13,3.3,3.3,0,0,0,1.027.662c.387.16.806.271,1.227.413a3.769,3.769,0,0,1,1.222.616,2.384,2.384,0,0,1,.761,1.181,6.149,6.149,0,0,1-.067,2.706,16.59,16.59,0,0,0-.346,2.543,14.611,14.611,0,0,0,.548,4.793,14.26,14.26,0,0,0,4.321,6.853,15.119,15.119,0,0,0,4.745,2.826c.618.222,1.11.364,1.445.452l.382.1A.5.5,0,0,1,902.642,303.469Z" transform="translate(-885.762 -260.857)" fill="#263238"/></g><path d="M927.652,344.162l-36.485-1.178.056,12.105,24.156,5.312,17,2.713a17.694,17.694,0,0,0,17.377-20.131l-.045.012Z" transform="translate(-106.879 -103.913)" fill="#ff3c00"/><g transform="translate(784.288 239.065)"><path d="M937.7,343.927a2.789,2.789,0,0,1-.473.033l-1.357.039-4.988.09c-4.212.062-10.033.133-16.462.072s-12.252-.3-16.457-.58c-2.1-.141-3.8-.276-4.974-.394l-1.35-.138a2.986,2.986,0,0,1-.469-.067,2.947,2.947,0,0,1,.474.01l1.354.085c1.174.084,2.875.189,4.978.3,4.2.233,10.02.433,16.447.5s12.244.022,16.457.012h4.989l1.356.015A2.994,2.994,0,0,1,937.7,343.927Z" transform="translate(-891.167 -342.975)" fill="#263238"/></g><path d="M875.358,338.742l-3.383-.626s-8.019-8.77-9.522-8.9c-1.237-.1-8.059-.037-10.435-.01a.825.825,0,0,0-.816.826h0a.827.827,0,0,0,.795.826l8.059.312.039.649-8.071.107c-.822.063-1.349,1.364,1.282,1.6l6.75.24v.419l-6.844.957c-.346.048-1.256.225-1.264.574,0,0-.414.858,1.536,1.1.67.083,6.611-.114,6.611-.114l-.229.534-6.152,1.327a.875.875,0,0,0-.681.976h0a.874.874,0,0,0,.946.749l6.573-.61,6.45,5.152h8.625Z" transform="translate(-91.378 -98.553)" fill="#ffbf9d"/><g transform="translate(784.899 251.175)"><path d="M932.115,370.592a2.226,2.226,0,0,1-.414-.025l-1.181-.127c-1.025-.114-2.506-.3-4.332-.555-3.653-.505-8.687-1.305-14.209-2.386s-10.488-2.245-14.061-3.158c-1.787-.455-3.229-.84-4.221-1.121l-1.141-.329a2.2,2.2,0,0,1-.392-.133,2.336,2.336,0,0,1,.408.078l1.154.277,4.241,1.033c3.583.861,8.549,1.989,14.067,3.072s10.541,1.911,14.184,2.467l4.317.645,1.174.18A2.224,2.224,0,0,1,932.115,370.592Z" transform="translate(-892.164 -362.756)" fill="#263238"/></g><g transform="translate(783.896 239.318)"><path d="M891.3,355.3a9.35,9.35,0,0,1-.316-1.725c-.147-1.073-.3-2.561-.387-4.212s-.085-3.148-.048-4.23a9.332,9.332,0,0,1,.137-1.748,12.2,12.2,0,0,1,.066,1.75c.016,1.079.048,2.569.132,4.213s.207,3.129.3,4.2A12.286,12.286,0,0,1,891.3,355.3Z" transform="translate(-890.526 -343.387)" fill="#263238"/></g><g transform="translate(787.569 239.483)"><path d="M897.617,355.88a1.626,1.626,0,0,1-.16-.46c-.086-.3-.192-.739-.306-1.286a31.277,31.277,0,0,1-.529-8.688c.047-.556.1-1.005.147-1.314a1.607,1.607,0,0,1,.1-.476,15.328,15.328,0,0,1-.048,1.8c-.042,1.11-.057,2.644.045,4.333s.3,3.21.481,4.306A15.42,15.42,0,0,1,897.617,355.88Z" transform="translate(-896.526 -343.657)" fill="#263238"/></g><g transform="translate(784.91 241.072)"><path d="M892.562,346.437c.031.034-.18.184-.172.531a.652.652,0,0,0,.222.491.591.591,0,0,0,.9-.52.656.656,0,0,0-.313-.439c-.3-.18-.533-.074-.546-.117-.033-.018.222-.238.638-.063a.823.823,0,0,1,.481.572.836.836,0,0,1-1.334.769.826.826,0,0,1-.254-.7C892.246,346.511,892.563,346.4,892.562,346.437Z" transform="translate(-892.183 -346.254)" fill="#263238"/></g><g transform="translate(756.507 253.399)"><path d="M881.2,366.488a1.829,1.829,0,0,1-.375.012c-.245-.006-.606,0-1.071,0a29.163,29.163,0,0,0-3.915.367,57.734,57.734,0,0,0-5.7,1.266c-2.128.561-4.455,1.243-6.948,1.786a29.712,29.712,0,0,1-7.143.774,17.835,17.835,0,0,1-5.762-1.1,12.876,12.876,0,0,1-3.447-1.941,9.192,9.192,0,0,1-.8-.72,1.844,1.844,0,0,1-.254-.277c.024-.025.381.351,1.123.908a13.6,13.6,0,0,0,3.45,1.84,18.1,18.1,0,0,0,5.7,1.027,30.257,30.257,0,0,0,7.075-.79c2.478-.54,4.805-1.213,6.941-1.762a53.41,53.41,0,0,1,5.737-1.21,25.57,25.57,0,0,1,3.945-.279c.467.01.829.026,1.074.05A1.845,1.845,0,0,1,881.2,366.488Z" transform="translate(-845.784 -366.39)" fill="#263238"/></g><g transform="translate(782.655 141.741)"><g transform="translate(6.275)"><g transform="translate(0.972 5.125)"><path d="M918.406,239.386c.867-4.839,1.87-9.916,1.87-9.916s6.418.063,9.144-7.846c2.6-7.542,4.476-25.686,4.476-25.686h0a23.743,23.743,0,0,0-27.058,1.38h0l-6.4,39.411c-.743,4.575,2.6,8.858,7.505,9.616h0C912.9,247.11,917.58,244,918.406,239.386Z" transform="translate(-900.336 -192.36)" fill="#ffbf9d"/><g transform="translate(26.569 14.797)"><g transform="translate(0.107 1.232)"><path d="M946.023,219.682a1.061,1.061,0,0,1-1.192.876,1.014,1.014,0,0,1-.91-1.131,1.06,1.06,0,0,1,1.191-.876A1.014,1.014,0,0,1,946.023,219.682Z" transform="translate(-943.912 -218.544)" fill="#263238"/></g><path d="M947.853,218.032c-.154.114-.841-.61-1.964-.806-1.12-.211-2.045.222-2.143.063-.049-.072.126-.294.531-.492a2.9,2.9,0,0,1,1.745-.219,2.791,2.791,0,0,1,1.533.812C947.854,217.716,947.928,217.982,947.853,218.032Z" transform="translate(-943.738 -216.531)" fill="#263238"/></g><g transform="translate(14.781 13.141)"><g transform="translate(0.365 1.061)"><path d="M927.189,216.7a1.059,1.059,0,0,1-1.191.875,1.014,1.014,0,0,1-.91-1.13,1.061,1.061,0,0,1,1.191-.877A1.014,1.014,0,0,1,927.189,216.7Z" transform="translate(-925.078 -215.56)" fill="#263238"/></g><path d="M928.6,215.327c-.153.113-.842-.611-1.964-.806-1.119-.211-2.045.222-2.143.062-.049-.071.125-.294.531-.492a2.908,2.908,0,0,1,1.745-.219,2.8,2.8,0,0,1,1.534.812C928.6,215.011,928.671,215.278,928.6,215.327Z" transform="translate(-924.482 -213.827)" fill="#263238"/></g><g transform="translate(21.504 14.24)"><path d="M935.465,225.068a7.527,7.527,0,0,1,1.882-.007c.292.021.574.012.656-.176a1.481,1.481,0,0,0-.042-.883l-.464-2.333a38.144,38.144,0,0,1-.9-6.046,38.158,38.158,0,0,1,1.383,5.96c.148.817.291,1.595.425,2.339a1.685,1.685,0,0,1-.05,1.151.73.73,0,0,1-.545.337,1.99,1.99,0,0,1-.5-.018A7.386,7.386,0,0,1,935.465,225.068Z" transform="translate(-935.465 -215.623)" fill="#263238"/></g><g transform="translate(9.555 32.285)"><path d="M926.33,249.925a21.016,21.016,0,0,1-10.385-4.826s1.659,6.054,9.937,6.728Z" transform="translate(-915.945 -245.099)" fill="#ff9a6c"/></g><g transform="translate(17.062 25.233)"><path d="M931.7,234.656a2.054,2.054,0,0,0-1.682-1.071,1.875,1.875,0,0,0-1.4.459,1.189,1.189,0,0,0-.324,1.323A1.38,1.38,0,0,0,929.7,236a4.308,4.308,0,0,0,1.585-.6,1.261,1.261,0,0,0,.38-.276.381.381,0,0,0,.072-.418" transform="translate(-928.209 -233.58)" fill="#ff9a6c"/></g><g transform="translate(17.741 23.88)"><path d="M929.64,231.37c.184.022-.028,1.241.863,2.289s2.212,1.143,2.192,1.316c0,.08-.331.186-.882.1a3.08,3.08,0,0,1-1.841-1.029,2.685,2.685,0,0,1-.645-1.906C929.368,231.627,929.557,231.349,929.64,231.37Z" transform="translate(-929.317 -231.369)" fill="#263238"/></g></g><g transform="translate(12.963)"><path d="M919.938,188.256c2.173,4.8,9.219,10.631,14.661,12.7-.495-.989-3.553-3.773-4.048-4.762,2.195,2.387,5.368,5.624,8.722,6.433a2.1,2.1,0,0,0,1.2.037,1.6,1.6,0,0,0,.832-1.164,34.464,34.464,0,0,0,1.15-7.4,8.286,8.286,0,0,0-1.943-5.8c-1.854-2.084-4.882-3.082-7.795-3.7a18.9,18.9,0,0,0-7.41-.387c-2.409.464-4.657,1.853-5.381,3.9" transform="translate(-919.925 -183.989)" fill="#263238"/></g><g transform="translate(0 0.434)"><path d="M898.751,206.593a46.77,46.77,0,0,1,.209-5.58c.549-4.235,1.869-19.631,16.081-15.669l-1.513,3.943s1.091,9.91-6.2,15.231c0,0,.031,9.89-5.021,13.459,0,0-3.524-6.707-3.553-11.384" transform="translate(-898.749 -184.698)" fill="#263238"/></g><g transform="translate(3.468 19.219)"><path d="M909.827,215.747a4.929,4.929,0,0,0-2.648-.293,3.437,3.437,0,0,0-2.224,1.4,3.589,3.589,0,0,0-.48,2.6,6.082,6.082,0,0,0,1.1,2.449,4.12,4.12,0,0,0,1.4,1.326,1.967,1.967,0,0,0,1.861.039" transform="translate(-904.414 -215.384)" fill="#ffbf9d"/></g><g transform="translate(5.314 20.424)"><path d="M909.587,221.7c.094.05-.377.51-1.135.155a1.738,1.738,0,0,1-.832-1.031,3.933,3.933,0,0,1-.179-1.52,2.307,2.307,0,0,1,.638-1.467,1.535,1.535,0,0,1,1.262-.473c.822.126.975.737.88.737-.077.055-.343-.293-.9-.259a1.49,1.49,0,0,0-1.2,1.521,2.455,2.455,0,0,0,.58,2.08C909.147,221.784,909.545,221.619,909.587,221.7Z" transform="translate(-907.43 -217.352)" fill="#ff9a6c"/></g></g><path d="M902.229,228.231c-2.208,13.166-.408,26.623-.015,39.968a7.715,7.715,0,0,1-.532,3.759,5.713,5.713,0,0,1-4.856,2.68,40.751,40.751,0,0,1-5.778-.49q-.311-1.92-.624-3.84l-1.928,4.425q1.274-14.046,2.788-28.069" transform="translate(-888.498 -201.148)" fill="#263238"/></g></g></svg>