<svg xmlns="http://www.w3.org/2000/svg" width="369.164" height="275.107" viewBox="0 0 369.164 275.107"><g transform="translate(-788.38 -4561.739)"><g transform="translate(788.38 4561.739)"><rect width="369.164" height="0.185" transform="translate(0 241.762)" fill="#ebebeb"/><rect width="24.455" height="0.185" transform="translate(307.72 253.647)" fill="#ebebeb"/><rect width="6.419" height="0.185" transform="translate(238.131 255.65)" fill="#ebebeb"/><rect width="14.17" height="0.185" transform="translate(292.81 246.791)" fill="#ebebeb"/><rect width="31.891" height="0.185" transform="translate(38.732 248.031)" fill="#ebebeb"/><rect width="4.676" height="0.185" transform="translate(77.196 248.031)" fill="#ebebeb"/><rect width="69.163" height="0.185" transform="translate(97.069 251.148)" fill="#ebebeb"/><path d="M973.372,4770.573H830.8a4.219,4.219,0,0,1-4.214-4.214V4565.953a4.219,4.219,0,0,1,4.214-4.214h142.57a4.218,4.218,0,0,1,4.214,4.214v200.406A4.218,4.218,0,0,1,973.372,4770.573ZM830.8,4561.923a4.034,4.034,0,0,0-4.03,4.029v200.406a4.034,4.034,0,0,0,4.03,4.03h142.57a4.034,4.034,0,0,0,4.029-4.03V4565.953a4.034,4.034,0,0,0-4.029-4.029Z" transform="translate(-798.378 -4561.739)" fill="#ebebeb"/><path d="M1189.669,4770.573H1047.1a4.219,4.219,0,0,1-4.214-4.214V4565.953a4.219,4.219,0,0,1,4.214-4.214h142.57a4.219,4.219,0,0,1,4.214,4.214v200.406A4.219,4.219,0,0,1,1189.669,4770.573ZM1047.1,4561.923a4.034,4.034,0,0,0-4.029,4.029v200.406a4.034,4.034,0,0,0,4.029,4.03h142.57a4.034,4.034,0,0,0,4.03-4.03V4565.953a4.034,4.034,0,0,0-4.03-4.029Z" transform="translate(-854.977 -4561.739)" fill="#ebebeb"/></g><g transform="translate(839.093 4577.39)"><g transform="translate(146.998 129.588)"><g transform="translate(0 0)"><rect width="25.916" height="96.523" transform="translate(25.916 96.523) rotate(180)" fill="#e7e7e7"/><path d="M1060.475,4886.106h-4.313v-8.686H1065Z" transform="translate(-1056.162 -4789.583)" fill="#f0f0f0"/><rect width="25.916" height="96.523" transform="translate(131.394 96.523) rotate(180)" fill="#ffd7a6"/><rect width="109.241" height="93.188" transform="translate(109.241 93.188) rotate(180)" fill="#ffeed9"/><rect width="102.55" height="25.556" transform="translate(105.896 29.686) rotate(180)" fill="#ffd7a6"/><path d="M1119.637,4771.713h9.688c4.208,0,8.231-3.152,11.125-8.719h-31.938C1111.406,4768.561,1115.429,4771.713,1119.637,4771.713Z" transform="translate(-1069.86 -4759.641)" fill="#f0f0f0"/><path d="M1196.675,4886.106h4.313v-8.686h-8.835Z" transform="translate(-1091.747 -4789.583)" fill="#ffeed9"/><rect width="102.55" height="25.556" transform="translate(105.896 59.372) rotate(180)" fill="#ffd7a6"/><path d="M1119.637,4811.919h9.688c4.208,0,8.231-3.152,11.125-8.718h-31.938C1111.406,4808.767,1115.429,4811.919,1119.637,4811.919Z" transform="translate(-1069.86 -4770.162)" fill="#f0f0f0"/><rect width="102.55" height="25.556" transform="translate(105.896 89.058) rotate(180)" fill="#ffd7a6"/><path d="M1119.637,4852.127h9.688c4.208,0,8.231-3.153,11.125-8.719h-31.938C1111.406,4848.974,1115.429,4852.127,1119.637,4852.127Z" transform="translate(-1069.86 -4780.683)" fill="#ffeed9"/></g></g><g transform="translate(0 7.556)"><rect width="98.966" height="100.143" transform="translate(105.841 100.143) rotate(180)" fill="#e7e7e7"/><rect width="104.014" height="100.143" transform="translate(104.014 100.143) rotate(180)" fill="#ffeed9"/><rect width="82.715" height="86.586" transform="translate(95.3 8.714) rotate(90)" fill="#fff"/><path d="M918.946,4619.738l-15.893,15.893a20.529,20.529,0,0,0,0,29l15.892,15.893a.838.838,0,0,0,1.183,0l15.893-15.893a20.529,20.529,0,0,0,0-29l-15.892-15.893A.837.837,0,0,0,918.946,4619.738Zm-14.71,43.709a18.855,18.855,0,0,1,0-26.634Zm30.6,0v-26.634A18.855,18.855,0,0,1,934.838,4663.447Z" transform="translate(-867.53 -4600.059)" fill="#f0f0f0"/></g><g transform="translate(169.301 95.132)"><path d="M1174.52,4711.785h-55.294l-3.156,32.652h55.294Z" transform="translate(-1094.141 -4711.785)" fill="#ffd7a6"/><path d="M1171.284,4756.008l-.224,1.805h-55.3l.224-1.805Z" transform="translate(-1094.061 -4723.357)" fill="#ffd7a6"/><path d="M1172.214,4711.785h-55.294l-3.156,32.652h55.294Z" transform="translate(-1093.538 -4711.785)" fill="#ffeed9"/><path d="M1168.636,4742.838l2.31-28.285a.692.692,0,0,0-.689-.748h-50.834a.692.692,0,0,0-.689.636l-2.312,28.284a.691.691,0,0,0,.69.748h50.834A.691.691,0,0,0,1168.636,4742.838Z" transform="translate(-1094.233 -4712.313)" fill="#fff"/><path d="M1147.483,4756.008l-.224,1.805h-60.89l.224-1.805Z" transform="translate(-1086.369 -4723.357)" fill="#f0f0f0"/></g><g transform="translate(147.031 0)"><g transform="translate(6.747 8.657)"><rect width="103.832" height="69.023" transform="translate(106.139 69.023) rotate(180)" fill="#ffd7a6"/><rect width="103.832" height="69.023" transform="translate(103.832 69.023) rotate(180)" fill="#ffeed9"/><rect width="59.719" height="95.549" transform="translate(99.69 4.652) rotate(90)" fill="#fff"/><rect width="59.719" height="1.744" transform="translate(5.886 4.652) rotate(90)" fill="#e7e7e7"/><rect width="100.406" height="6.246" transform="translate(102.119 56.447) rotate(180)" fill="#f5f5f5"/></g><path d="M1059,4584.233h115.17a.639.639,0,0,1,.638.637h0a.64.64,0,0,1-.638.638H1059a.64.64,0,0,1-.638-.638h0A.639.639,0,0,1,1059,4584.233Z" transform="translate(-1056.771 -4583.276)" fill="#e7e7e7"/><path d="M1056.206,4584.531a1.594,1.594,0,1,0,1.594-1.594A1.594,1.594,0,0,0,1056.206,4584.531Z" transform="translate(-1056.206 -4582.937)" fill="#e7e7e7"/><path d="M1207.63,4588.667h0a.864.864,0,0,0,.861-.861v-1.849a.864.864,0,0,0-.861-.861h0a.864.864,0,0,0-.861.861v1.849A.864.864,0,0,0,1207.63,4588.667Z" transform="translate(-1095.604 -4583.502)" fill="#e7e7e7"/><path d="M1071.948,4588.667h0a.864.864,0,0,0,.861-.861v-1.849a.864.864,0,0,0-.861-.861h0a.864.864,0,0,0-.861.861v1.849A.864.864,0,0,0,1071.948,4588.667Z" transform="translate(-1060.1 -4583.502)" fill="#e7e7e7"/><rect width="106.431" height="67.066" transform="translate(108.866 68.66) rotate(180)" fill="#ffeed9" opacity="0.4"/><path d="M1191.888,4584.531a1.594,1.594,0,1,0,1.594-1.594A1.594,1.594,0,0,0,1191.888,4584.531Z" transform="translate(-1091.71 -4582.937)" fill="#e7e7e7"/></g><g transform="translate(0.722 147.298)"><rect width="8.535" height="74.03" transform="translate(104.398 74.03) rotate(180)" fill="#ffd7a6"/><rect width="97.843" height="4.691" transform="translate(101.12 78.721) rotate(180)" fill="#ffd7a6"/><rect width="95.863" height="74.03" transform="translate(0 0)" fill="#ffeed9"/><path d="M7.122,0h68.2a7.122,7.122,0,0,1,7.122,7.122V17.157a7.123,7.123,0,0,1-7.123,7.123H7.122A7.122,7.122,0,0,1,0,17.157V7.122A7.122,7.122,0,0,1,7.122,0Z" transform="translate(6.711 9.112)" fill="#ffd7a6"/><path d="M7.122,0h68.2a7.122,7.122,0,0,1,7.122,7.122V17.157a7.123,7.123,0,0,1-7.123,7.123H7.122A7.122,7.122,0,0,1,0,17.157V7.122A7.122,7.122,0,0,1,7.122,0Z" transform="translate(6.711 40.639)" fill="#ffd7a6"/><path d="M898.18,4812.3H933.9a1.669,1.669,0,0,0,1.665-1.665h0a1.67,1.67,0,0,0-1.665-1.665H898.18a1.67,1.67,0,0,0-1.665,1.665h0A1.669,1.669,0,0,0,898.18,4812.3Z" transform="translate(-868.11 -4789.381)" fill="#ffeed9"/><path d="M898.18,4855H933.9a1.67,1.67,0,0,0,1.665-1.665h0a1.67,1.67,0,0,0-1.665-1.664H898.18a1.67,1.67,0,0,0-1.665,1.664h0A1.67,1.67,0,0,0,898.18,4855Z" transform="translate(-868.11 -4800.554)" fill="#ffeed9"/></g></g><ellipse cx="143.154" cy="8.36" rx="143.154" ry="8.36" transform="translate(829.809 4820.125)" fill="#ffeed9"/><g transform="translate(868.157 4587.305)"><g transform="translate(0 8.763)"><path d="M1032.871,4608.234H896.431l10.6,185.818h136.44Z" transform="translate(-896.431 -4608.234)" fill="#263238"/><path d="M1036.465,4608.234H900.025l10.6,185.818h136.44Z" transform="translate(-897.371 -4608.234)" fill="#ff3c00"/><path d="M1029.273,4616.7h-120.8l8.66,168.2h123.94Z" transform="translate(-899.581 -4610.449)" opacity="0.5"/></g><g transform="translate(8.89 15.012)"><path d="M908.471,4616.7c8.979,56.066,2.82,112.132,11.8,168.2H1044.21c-8.979-56.066-2.82-112.132-11.8-168.2Z" transform="translate(-908.471 -4616.698)" fill="#fff"/><g transform="translate(13.498 48.261)" opacity="0.3"><path d="M938.6,4684.2a10.679,10.679,0,0,1,10.585,10.168,9.716,9.716,0,0,1-9.79,10.113,10.594,10.594,0,0,1-10.492-10.169,9.747,9.747,0,0,1,2.679-7.152,9.619,9.619,0,0,1,7.019-2.96m-.075-2.139a11.7,11.7,0,0,0-11.761,12.28,12.771,12.771,0,0,0,12.662,12.279,11.811,11.811,0,0,0,11.9-12.279,12.894,12.894,0,0,0-12.8-12.28Z" transform="translate(-926.752 -4682.064)" fill="#ffbba6"/></g><g transform="translate(51.813 132.866)"><path d="M1020.99,4809.706H981.84a2.052,2.052,0,0,0-2.078,2.292h0a2.585,2.585,0,0,0,2.516,2.292h39.149a2.045,2.045,0,0,0,2.067-2.292h0A2.573,2.573,0,0,0,1020.99,4809.706Z" transform="translate(-978.936 -4800.069)" fill="#e0e0e0"/><path d="M1041.632,4796.654H980.779a2.1,2.1,0,0,0-2.126,2.292h0a2.517,2.517,0,0,0,2.469,2.292h60.853a2.092,2.092,0,0,0,2.115-2.292h0A2.509,2.509,0,0,0,1041.632,4796.654Z" transform="translate(-978.647 -4796.654)" fill="#e0e0e0"/></g><g transform="translate(14.608 87.978)" opacity="0.3"><path d="M940.234,4738a10.534,10.534,0,0,1,10.45,10.168,9.785,9.785,0,0,1-2.727,7.154,9.669,9.669,0,0,1-7.043,2.958,10.591,10.591,0,0,1-10.513-10.168A9.77,9.77,0,0,1,940.234,4738m-.027-2.14h0a11.879,11.879,0,0,0-11.945,12.281,12.786,12.786,0,0,0,12.709,12.279,11.8,11.8,0,0,0,11.851-12.279,12.7,12.7,0,0,0-12.615-12.281Z" transform="translate(-928.257 -4735.857)" fill="#ffbba6"/></g><g transform="translate(48.828 53.432)"><path d="M997.915,4693.65H976.988a2.4,2.4,0,0,1-2.382-2.292h0a2.179,2.179,0,0,1,2.2-2.291h20.926a2.409,2.409,0,0,1,2.388,2.291h0A2.185,2.185,0,0,1,997.915,4693.65Z" transform="translate(-974.604 -4689.067)" fill="#e0e0e0"/><path d="M1033.032,4693.65h-14.181a2.406,2.406,0,0,1-2.382-2.292h0a2.18,2.18,0,0,1,2.2-2.291h14.181a2.411,2.411,0,0,1,2.388,2.291h0A2.186,2.186,0,0,1,1033.032,4693.65Z" transform="translate(-985.559 -4689.067)" fill="#e0e0e0"/><path d="M1033.619,4706.7H977.438a2.382,2.382,0,0,1-2.363-2.292h0a2.2,2.2,0,0,1,2.217-2.291h56.181a2.384,2.384,0,0,1,2.366,2.291h0A2.207,2.207,0,0,1,1033.619,4706.7Z" transform="translate(-974.727 -4692.482)" fill="#e0e0e0"/></g><g transform="translate(16.652 127.697)" opacity="0.3"><path d="M942.564,4791.791a11.2,11.2,0,0,1,10.927,10.169,9.375,9.375,0,0,1-2.3,7.152,9.039,9.039,0,0,1-6.843,2.961,11.407,11.407,0,0,1-11.146-10.169,9.212,9.212,0,0,1,2.407-7.152,9.369,9.369,0,0,1,6.951-2.961m-.107-2.139a11.223,11.223,0,0,0-11.389,12.281,13.792,13.792,0,0,0,13.493,12.279,10.981,10.981,0,0,0,11.067-12.279,13.477,13.477,0,0,0-13.171-12.281Z" transform="translate(-931.025 -4789.652)" fill="#ffbba6"/></g><g transform="translate(49.982 93.149)"><path d="M1043.636,4755.912H978.781a2.2,2.2,0,0,0-2.217,2.292h0a2.391,2.391,0,0,0,2.371,2.291h64.856A2.2,2.2,0,0,0,1046,4758.2h0A2.386,2.386,0,0,0,1043.636,4755.912Z" transform="translate(-976.271 -4746.275)" fill="#e0e0e0"/><path d="M1028.151,4742.86H978.4a2.22,2.22,0,0,0-2.23,2.292h0a2.372,2.372,0,0,0,2.356,2.292h49.754a2.216,2.216,0,0,0,2.227-2.292h0A2.367,2.367,0,0,0,1028.151,4742.86Z" transform="translate(-976.168 -4742.86)" fill="#e0e0e0"/></g><path d="M941.424,4702.466l-.875-1.432c-1.909-3.126-5.9-5.916-7.278-6.73l1.037-1.832a28.33,28.33,0,0,1,7.14,6.172c3.142-4.212,7.723-8.551,13.933-13.23l1.337,1.729c-6.644,5-11.355,9.569-14.372,13.978Z" transform="translate(-914.961 -4634.679)" fill="#ff3c00"/><path d="M942.927,4756.261l-.882-1.433c-1.92-3.124-5.894-5.917-7.265-6.73l1.052-1.832a28.349,28.349,0,0,1,7.109,6.172c3.144-4.209,7.767-8.551,14.071-13.23l1.3,1.73c-6.734,5-11.472,9.571-14.474,13.977Z" transform="translate(-915.355 -4648.755)" fill="#ff3c00"/><path d="M946.177,4810.185q-.487-.716-.974-1.433c-2.12-3.125-6.244-5.917-7.659-6.73q.476-.916.957-1.832a31.045,31.045,0,0,1,7.451,6.171c2.892-4.208,7.292-8.55,13.409-13.229q.687.866,1.376,1.729c-6.521,5-11.009,9.573-13.731,13.978Q946.59,4809.511,946.177,4810.185Z" transform="translate(-916.079 -4662.866)" fill="#ff3c00"/><g transform="translate(39.353 10.798)"><path d="M1011.064,4635.806q-1.949,4.25-3.991,8.5a18.294,18.294,0,0,1,10.071,14.823h9.814C1026.3,4649.086,1019.822,4640.344,1011.064,4635.806Z" transform="translate(-973.625 -4632.496)" fill="#ff3c00"/><path d="M961.832,4659.312h9.813a15.636,15.636,0,0,1,6.81-14.3q-2.863-4.251-5.814-8.5C965.484,4641.176,961.2,4649.641,961.832,4659.312Z" transform="translate(-961.771 -4632.68)" fill="#992400"/><g transform="translate(10.871)"><path d="M989.791,4631.323a24.151,24.151,0,0,0-13.3,3.829q2.953,4.252,5.814,8.5a15.483,15.483,0,0,1,8.608-2.521,17.923,17.923,0,0,1,8.156,2q2.039-4.248,3.991-8.5A28.91,28.91,0,0,0,989.791,4631.323Z" transform="translate(-976.494 -4631.323)" fill="#cc3000"/><path d="M989.791,4631.323a24.151,24.151,0,0,0-13.3,3.829q2.953,4.252,5.814,8.5a15.483,15.483,0,0,1,8.608-2.521,17.923,17.923,0,0,1,8.156,2q2.039-4.248,3.991-8.5A28.91,28.91,0,0,0,989.791,4631.323Z" transform="translate(-976.494 -4631.323)" fill="#cc3000" opacity="0.5"/></g><path d="M1006.528,4658.3c.005,0-9.9,4.012-10.955,4.756a2.348,2.348,0,0,0-.418,3.338,2.471,2.471,0,0,0,3.379.643C999.6,4666.292,1006.546,4658.3,1006.528,4658.3Zm-10.407,7.409a1.157,1.157,0,0,1,.206-1.643,1.224,1.224,0,0,1,1.665.316,1.155,1.155,0,0,1-.207,1.644A1.222,1.222,0,0,1,996.122,4665.709Z" transform="translate(-970.374 -4638.382)" fill="#263238"/><g transform="translate(40.92 11.747)"><path d="M1024.174,4650.717a3.144,3.144,0,0,1-3.185,3.483,3.872,3.872,0,0,1-3.782-3.483,3.123,3.123,0,0,1,3.158-3.484A3.9,3.9,0,0,1,1024.174,4650.717Z" transform="translate(-1017.193 -4647.233)" fill="#fff"/><path d="M1020.406,4650.667a.5.5,0,0,1-.5.555.622.622,0,0,1-.605-.555.5.5,0,0,1,.5-.555A.622.622,0,0,1,1020.406,4650.667Z" transform="translate(-1017.742 -4647.987)" fill="#263238"/><path d="M1023.972,4650.667a.5.5,0,0,1-.5.555.623.623,0,0,1-.605-.555.5.5,0,0,1,.5-.555A.619.619,0,0,1,1023.972,4650.667Z" transform="translate(-1018.675 -4647.987)" fill="#263238"/><path d="M1021.418,4654.364h-.006a2.93,2.93,0,0,1-1.971-.776.275.275,0,0,1,.37-.407,2.383,2.383,0,0,0,1.6.633h.005a1.962,1.962,0,0,0,1.461-.617.275.275,0,0,1,.4.375A2.507,2.507,0,0,1,1021.418,4654.364Z" transform="translate(-1017.757 -4648.771)" fill="#263238"/></g><g transform="translate(21.233 1.365)"><path d="M997.519,4636.656a3.056,3.056,0,0,1-3.1,3.484,4,4,0,0,1-3.867-3.484,3.035,3.035,0,0,1,3.069-3.484A4.028,4.028,0,0,1,997.519,4636.656Z" transform="translate(-990.529 -4633.172)" fill="#fff"/><path d="M993.726,4636.607a.484.484,0,0,1-.49.554.641.641,0,0,1-.619-.554.484.484,0,0,1,.49-.556A.646.646,0,0,1,993.726,4636.607Z" transform="translate(-991.074 -4633.926)" fill="#263238"/><path d="M997.292,4636.607a.483.483,0,0,1-.49.554.642.642,0,0,1-.619-.554.485.485,0,0,1,.49-.556A.645.645,0,0,1,997.292,4636.607Z" transform="translate(-992.007 -4633.926)" fill="#263238"/><path d="M996.466,4639.6h-3.454a.275.275,0,1,1,0-.55h3.454a.275.275,0,1,1,0,.55Z" transform="translate(-991.107 -4634.709)" fill="#263238"/></g><g transform="translate(3.708 11.747)"><path d="M973.773,4650.717a3.143,3.143,0,0,1-3.184,3.483,3.873,3.873,0,0,1-3.782-3.483,3.124,3.124,0,0,1,3.158-3.484A3.9,3.9,0,0,1,973.773,4650.717Z" transform="translate(-966.792 -4647.233)" fill="#fff"/><path d="M970,4650.667a.5.5,0,0,1-.5.555.622.622,0,0,1-.605-.555.5.5,0,0,1,.5-.555A.62.62,0,0,1,970,4650.667Z" transform="translate(-967.342 -4647.987)" fill="#263238"/><path d="M973.571,4650.667a.5.5,0,0,1-.5.555.621.621,0,0,1-.605-.555.5.5,0,0,1,.5-.555A.62.62,0,0,1,973.571,4650.667Z" transform="translate(-968.275 -4647.987)" fill="#263238"/><path d="M969.307,4654.364a.275.275,0,0,1-.2-.462,2.528,2.528,0,0,1,1.869-.792,2.925,2.925,0,0,1,1.972.776.275.275,0,1,1-.371.406,2.38,2.38,0,0,0-1.61-.632,1.965,1.965,0,0,0-1.458.616A.274.274,0,0,1,969.307,4654.364Z" transform="translate(-967.378 -4648.771)" fill="#263238"/></g></g></g><path d="M1017.788,4611.853a14.923,14.923,0,0,0-13.48-8.056H992.5a4.62,4.62,0,0,1-4.1-2.142c-1.647-3.086-5.573-5.29-10.03-5.29s-8.125,2.2-9.42,5.29a4.053,4.053,0,0,1-3.853,2.142H953.294c-5.8,0-10.809,3.21-12.561,8.056a1.321,1.321,0,0,0-.076.539,1.5,1.5,0,0,0,1.476,1.4h74.476A1.325,1.325,0,0,0,1017.788,4611.853Zm-38.914-6.724a3.527,3.527,0,0,1-3.474-3.286,3.073,3.073,0,0,1,3.1-3.286,3.524,3.524,0,0,1,3.475,3.286A3.07,3.07,0,0,1,978.874,4605.129Z" transform="translate(-908.003 -4596.365)" fill="#263238"/></g><g transform="translate(993.554 4604.504)"><g transform="translate(44.863 37.21)"><path d="M1148.181,4915.437a2.354,2.354,0,0,1-1.638-.408.5.5,0,0,1-.052-.562.551.551,0,0,1,.374-.3c.875-.245,2.891.835,2.977.88a.147.147,0,0,1,.078.132.111.111,0,0,1-.09.106A9.28,9.28,0,0,1,1148.181,4915.437Zm-.977-1.052a.92.92,0,0,0-.245.029.336.336,0,0,0-.232.18c-.073.159-.031.238.007.284.292.35,1.664.358,2.656.215A6.416,6.416,0,0,0,1147.2,4914.385Z" transform="translate(-1132.108 -4733.925)" fill="#007cff"/><path d="M1150.242,4914.827a.152.152,0,0,1-.054-.011c-.687-.294-2.115-1.467-2.085-2.08.007-.144.089-.324.439-.36a1.032,1.032,0,0,1,.737.221,4.131,4.131,0,0,1,1.076,2.09.117.117,0,0,1-.041.117A.118.118,0,0,1,1150.242,4914.827Zm-1.57-2.2c-.025,0-.05,0-.076,0-.229.023-.233.115-.235.144-.018.368.966,1.29,1.679,1.691a3.428,3.428,0,0,0-.9-1.672A.757.757,0,0,0,1148.672,4912.628Z" transform="translate(-1132.546 -4733.464)" fill="#007cff"/><path d="M1156.447,4911.072h-5.424l-1.944-12.561h5.424Z" transform="translate(-1132.801 -4729.837)" fill="#ffc3bd"/><path d="M1148.246,4914.673h5.924a.543.543,0,0,1,.5.37l1.61,4.821a.7.7,0,0,1-.672.965c-2.141-.037-5.243-.162-7.928-.162-3.14,0-2.859.171-6.542.171-2.227,0-3.1-2.25-2.188-2.454,4.14-.929,4.619-1.029,8.034-3.289A2.274,2.274,0,0,1,1148.246,4914.673Z" transform="translate(-1130.058 -4734.067)" fill="#263238"/><g transform="translate(16.279 168.676)"><path d="M1149.081,4898.515l1,6.475h5.426l-1-6.475Z" transform="translate(-1149.081 -4898.515)" opacity="0.2"/></g><path d="M1156.918,4732.238l-3.681,3.731,5.656,2s2.192-3.042.662-5.124Z" transform="translate(-1133.889 -4686.329)" fill="#ffc3bd"/><path d="M1151.543,4742.5l5.644.825,1.264-4.039-5.656-2Z" transform="translate(-1133.446 -4687.651)" fill="#ffc3bd"/><path d="M1158.258,4670.058c.48,1.029.862,1.911,1.249,2.868.385.939.752,1.882,1.108,2.83.7,1.9,1.331,3.83,1.91,5.789a61.782,61.782,0,0,1,1.466,6.019l.28,1.55.226,1.581c.082.522.13,1.066.179,1.607.044.56.114,1.026.12,1.71l.02.957-.034.847-.043.839-.077.79c-.094,1.063-.238,2.061-.374,3.071-.295,2-.631,3.941-1.006,5.875-.783,3.86-1.638,7.637-2.673,11.435l-6.727-1.324c.425-3.756.871-7.564,1.223-11.313.174-1.874.352-3.741.458-5.573.043-.9.095-1.821.095-2.679l.008-.65-.016-.6-.012-.6-.048-.484c-.007-.279-.106-.764-.165-1.159-.065-.414-.126-.826-.225-1.249l-.267-1.261-.32-1.271c-.46-1.7-.977-3.4-1.568-5.111s-1.245-3.4-1.937-5.089c-.345-.844-.7-1.685-1.066-2.516-.359-.815-.758-1.692-1.1-2.4Z" transform="translate(-1132.766 -4670.058)" fill="#263238"/><path d="M1127.032,4728.656s.9,41.521,3.339,58.062c2.536,17.2,11.781,72.57,11.781,72.57h9.188s-3.3-52.7-4.346-69.624c-1.141-18.456-.891-61.008-.891-61.008Z" transform="translate(-1127.032 -4685.392)" fill="#ff3c00"/><path d="M1144.561,4900.629c-.043,0,.944,3.815.944,3.815h11.177l-.078-3.4Z" transform="translate(-1131.618 -4730.392)" fill="#263238"/></g><ellipse cx="0.833" cy="0.543" rx="0.833" ry="0.543" transform="matrix(0.061, -0.998, 0.998, 0.061, 41.657, 13.923)" fill="#263238"/><path d="M1123.09,4638.563a17.153,17.153,0,0,1-2.333,3.929,2.606,2.606,0,0,0,2.18.412Z" transform="translate(-1080.527 -4624.607)" fill="#ff847f"/><path d="M1125.7,4633.625a.257.257,0,0,1-.156-.052,2.13,2.13,0,0,0-1.9-.352.26.26,0,0,1-.343-.154.278.278,0,0,1,.166-.348,2.644,2.644,0,0,1,2.412.417.267.267,0,0,1,.048.377A.282.282,0,0,1,1125.7,4633.625Z" transform="translate(-1081.188 -4623.045)" fill="#263238"/><path d="M1139.153,4644.311c-.918,3.968-1.951,11.239.732,13.887,0,0-1.227,4.025-8.6,4.025-8.108,0-3.732-4.024-3.732-4.024,4.463-1.058,4.464-4.34,3.8-7.423Z" transform="translate(-1081.997 -4626.111)" fill="#ffc3bd"/><path d="M1142.089,4663.932c.8-1.623,1.677-3.478.013-4.06-1.83-.639-11.952-1.292-15.492-.09a3.726,3.726,0,0,0-2.665,4.49Z" transform="translate(-1081.336 -4629.984)" fill="#ff3c00"/><path d="M1156.655,4665c4.674,2.154,7.052,18.5,7.052,18.5l-9.414,2.953a95.9,95.9,0,0,1-4.083-13.3C1148.76,4666.336,1151.876,4662.8,1156.655,4665Z" transform="translate(-1088.14 -4631.354)" fill="#263238"/><path d="M1077.784,4698.35l-4.339-3.732-3.906,5.685s3.509,2.813,7.352,1.659Z" transform="translate(-1067.125 -4639.275)" fill="#ffc3bd"/><path d="M1066.872,4692.17l-.6,5.617,2.413,1.875,3.906-5.685Z" transform="translate(-1066.269 -4638.635)" fill="#ffc3bd"/><path d="M1139.236,4633.183c-.546,5.642-.579,8.961-3.531,11.856a7.365,7.365,0,0,1-12.459-3.858c-1.032-5.069.033-13.443,5.635-15.688A7.45,7.45,0,0,1,1139.236,4633.183Z" transform="translate(-1081.087 -4621.031)" fill="#ffc3bd"/><path d="M1127.991,4633.618c-.5-3.9-.415-5.373,1.669-6.234-2.161-.431-4.038-.493-4.93-1.753s-1.108-4.492,3.23-5.969c-.4.769.862,2.277,4.86.893s9.812-1.539,10.32,2.522c2.109-.739,5.646,5.784,1.5,10.542-3.474,3.99-5.794,6.739-6.477,8.854a.729.729,0,0,1-1.012.445c-1.445-.675-4.018-.1-5.157.212a.72.72,0,0,1-.842-.38C1130.418,4641.225,1128.4,4636.836,1127.991,4633.618Z" transform="translate(-1081.43 -4619.661)" fill="#263238"/><path d="M1148.861,4624.5s1.71-2.415,4.995-.619A14.877,14.877,0,0,0,1148.861,4624.5Z" transform="translate(-1087.881 -4620.591)" fill="#263238"/><path d="M1149.244,4624.151s2.382-1.462.523-4.263A10.84,10.84,0,0,1,1149.244,4624.151Z" transform="translate(-1087.981 -4619.721)" fill="#263238"/><path d="M1131.5,4637.921a6.762,6.762,0,0,1-1.974,3.657c-1.367,1.289-2.551.375-2.591-1.288-.035-1.5.633-3.972,2.206-4.638C1130.692,4635,1131.78,4636.251,1131.5,4637.921Z" transform="translate(-1082.144 -4623.799)" fill="#ffc3bd"/><path d="M1128.062,4759.906c.532,12.39,1.366,26.772,2.577,34.989.465,3.131,1.144,7.517,1.957,12.6C1135.859,4789.69,1137.808,4766.743,1128.062,4759.906Z" transform="translate(-1082.439 -4656.359)" opacity="0.3"/><g transform="translate(30.548 80.474)"><path d="M1121.965,4915.437c-.7,0-1.365-.1-1.579-.408a.488.488,0,0,1,.03-.562.675.675,0,0,1,.418-.3c.911-.245,2.769.835,2.848.88a.125.125,0,0,1,.058.132.134.134,0,0,1-.1.106A9.687,9.687,0,0,1,1121.965,4915.437Zm-.823-1.052a.975.975,0,0,0-.249.029.409.409,0,0,0-.258.18c-.1.159-.066.238-.035.284.24.35,1.612.358,2.625.215A5.627,5.627,0,0,0,1121.143,4914.385Z" transform="translate(-1110.959 -4777.189)" fill="#007cff"/><path d="M1124.127,4914.827a.135.135,0,0,1-.052-.011c-.645-.294-1.9-1.467-1.779-2.08.028-.144.137-.324.491-.36a.918.918,0,0,1,.7.221,3.545,3.545,0,0,1,.768,2.09.133.133,0,0,1-.057.117A.138.138,0,0,1,1124.127,4914.827Zm-1.246-2.2c-.025,0-.051,0-.077,0-.233.023-.25.115-.256.144-.072.368.777,1.29,1.43,1.691a2.911,2.911,0,0,0-.656-1.672A.661.661,0,0,0,1122.881,4912.628Z" transform="translate(-1111.476 -4776.729)" fill="#007cff"/><path d="M1130.906,4911.072h-5.424l-.1-12.561h5.424Z" transform="translate(-1112.287 -4773.102)" fill="#ffc3bd"/><path d="M1120.9,4914.673h5.923a.452.452,0,0,1,.449.37l.9,4.821a.821.821,0,0,1-.814.965c-2.135-.037-5.219-.162-7.9-.162-3.14,0-5.858.171-9.541.171-2.227,0-2.765-2.25-1.826-2.454,4.276-.929,7.744-1.029,11.491-3.289A2.583,2.583,0,0,1,1120.9,4914.673Z" transform="translate(-1107.644 -4777.332)" fill="#263238"/><g transform="translate(13.1 125.412)"><path d="M1125.387,4898.515l.049,6.475h5.426l-.049-6.475Z" transform="translate(-1125.387 -4898.515)" opacity="0.2"/></g><path d="M1113.151,4728.656s-2.179,40.554-2.173,57.1c.007,17.2,8.71,73.537,8.71,73.537h9.188s-2.392-55.328-1.387-72.225c1.1-18.421,6.428-58.408,6.428-58.408Z" transform="translate(-1108.517 -4728.656)" fill="#ff3c00"/><path d="M1120.555,4900.629c-.043,0,.383,3.815.383,3.815h11.177l.422-3.4Z" transform="translate(-1111.022 -4773.656)" fill="#263238"/></g><path d="M1114.389,4664.562s-9.245,23.352-5.219,63.713h33.757c.357-4.454-3.178-43.01,1.858-63.993a74.513,74.513,0,0,0-9.668-1.227,106.5,106.5,0,0,0-12.332,0A55.481,55.481,0,0,0,1114.389,4664.562Z" transform="translate(-1077.229 -4630.969)" fill="#263238"/><path d="M1109.711,4690.731c-.5,3.722-.916,7.908-1.181,12.53,6.556-6.025,8.8-21.035,8.8-21.035Z" transform="translate(-1077.328 -4636.033)" opacity="0.2"/><path d="M1109.51,4678.976c-1.325,3.456-2.671,6.781-4.146,10.127-1.454,3.342-3.008,6.651-4.723,9.95l-.655,1.238-.334.619c-.14.248-.126.268-.513.907a7.226,7.226,0,0,1-2.668,2.481,7.936,7.936,0,0,1-2.886.873,12.171,12.171,0,0,1-4.136-.334,22.609,22.609,0,0,1-3.131-1.018,41.039,41.039,0,0,1-5.293-2.66c-.829-.48-1.629-.991-2.421-1.513s-1.543-1.04-2.377-1.646l3.991-6.11a51.953,51.953,0,0,0,8.967,3.889,13.619,13.619,0,0,0,2.014.459,2.849,2.849,0,0,0,1.187,0c.041-.02-.1-.043-.345.08a2.023,2.023,0,0,0-.752.652c-.153.258.048-.128.111-.278l.269-.577.532-1.163c1.4-3.128,2.7-6.373,3.962-9.636,1.244-3.26,2.489-6.593,3.621-9.845Z" transform="translate(-1068.875 -4634.265)" fill="#263238"/><path d="M1119.993,4667.482c1.723,4.827-10.5,24.268-10.5,24.268l-7.253-7.178s1.857-6.112,4.3-13.461C1108.946,4663.88,1118.345,4662.867,1119.993,4667.482Z" transform="translate(-1075.681 -4631.442)" fill="#263238"/></g></g></svg>