<svg xmlns="http://www.w3.org/2000/svg" width="275.148" height="241.647" viewBox="0 0 275.148 241.647"><g transform="translate(-503.902 -4790.182)"><g transform="translate(689.696 4790.183)"><rect width="61.883" height="58.692" rx="6.79" transform="translate(0 13.381) rotate(-12.488)" fill="#ffeed9"/><g transform="translate(15.676 16.818)"><g transform="translate(0 10.15)"><path d="M751.271,4833.645a2.557,2.557,0,0,1-.4.117l-1.163.286-4.32,1.012-14.521,3.3-.118.026-.043-.114-.876-2.332c-2.543-6.833-4.814-12.931-6.3-16.916l.1.056-3.879.827-1.035.208a1.926,1.926,0,0,1-.36.056,2.058,2.058,0,0,1,.349-.1l1.024-.253,3.861-.907.075-.018.028.073c1.506,3.977,3.81,10.062,6.393,16.879l.876,2.333-.162-.087,14.541-3.211,4.338-.928,1.174-.238A2.482,2.482,0,0,1,751.271,4833.645Z" transform="translate(-718.361 -4818.889)" fill="#fafafa"/></g><g transform="translate(6.429 7.621)"><path d="M729.711,4833.959a.341.341,0,0,1,.1-.035l.3-.079,1.164-.283,4.365-1.019,15.07-3.427-.105.138c-.122-2.639-.254-5.492-.39-8.445l-.2-4.434.169.128-17.784,3.937-5.272,1.138-1.423.294-.369.069a.484.484,0,0,1-.128.015.5.5,0,0,1,.122-.041l.364-.095,1.413-.341,5.253-1.221,17.764-4.028.162-.037.008.167c.066,1.423.133,2.915.2,4.434.131,2.953.26,5.807.379,8.444l0,.114-.111.024-15.09,3.33-4.383.941-1.173.241-.3.056A.359.359,0,0,1,729.711,4833.959Z" transform="translate(-725.205 -4816.197)" fill="#fafafa"/></g><g transform="translate(14.547 32.136)"><path d="M738.125,4844.042c-.024.007-.067-.176-.225-.459a2.086,2.086,0,0,0-.987-.894,1.974,1.974,0,1,0,.693,3.095,2.09,2.09,0,0,0,.512-1.229c.022-.324-.019-.507.007-.512a1.05,1.05,0,0,1,.1.515,2.093,2.093,0,0,1-.47,1.354,2.183,2.183,0,0,1-1.96.792,2.215,2.215,0,0,1-.913-4.076,2.184,2.184,0,0,1,2.11-.119,2.081,2.081,0,0,1,1,1.024A1.051,1.051,0,0,1,738.125,4844.042Z" transform="translate(-733.846 -4842.292)" fill="#fafafa"/></g><g transform="translate(27.699 29.189)"><path d="M752.125,4840.906c-.025.006-.067-.177-.225-.46a2.094,2.094,0,0,0-.988-.894,1.974,1.974,0,1,0,.693,3.095,2.088,2.088,0,0,0,.512-1.229c.022-.324-.018-.507.008-.512a1.063,1.063,0,0,1,.1.514,2.086,2.086,0,0,1-.47,1.354,2.183,2.183,0,0,1-1.959.793,2.215,2.215,0,0,1-.914-4.076,2.184,2.184,0,0,1,2.11-.12,2.084,2.084,0,0,1,1,1.025A1.06,1.06,0,0,1,752.125,4840.906Z" transform="translate(-747.846 -4839.156)" fill="#fafafa"/></g><g transform="translate(23.817)"><path d="M755.523,4812.755a5.976,5.976,0,1,1-7.138-4.524A5.976,5.976,0,0,1,755.523,4812.755Z" transform="translate(-743.714 -4808.085)" fill="#fafafa"/></g><g transform="translate(27.073 3.09)"><path d="M752.58,4811.375a5.443,5.443,0,0,1-.546,1.109c-.367.667-.893,1.579-1.486,2.578l-.64,1.062-.067.111-.113-.062a19.406,19.406,0,0,1-2.549-1.528,19.453,19.453,0,0,1,2.677,1.292l-.179.05.629-1.068c.594-1,1.145-1.9,1.557-2.535A5.329,5.329,0,0,1,752.58,4811.375Z" transform="translate(-747.179 -4811.374)" fill="#e0e0e0"/></g></g></g><g transform="translate(505.596 4793.118)"><g transform="translate(25.339 82.409)"><path d="M538.75,4884.5c-1.083-3.837-6.072-3.465-6.072-3.465l.137,2.669c2.884-.5,4.676,2.882,4.676,2.882Z" transform="translate(-532.678 -4881.03)" fill="#ffeed9"/></g><g transform="translate(103.021 34.649)"><path d="M617,4837.116c5.786,1.753,9.386-4.919,9.386-4.919l-3.52-2.007c-1.721,4.088-7.5,3.615-7.5,3.615Z" transform="translate(-615.368 -4830.19)" fill="#ffeed9"/></g><g transform="translate(147.365 74.743)"><path d="M667.891,4875.523c-1.12-3.191-5.321-2.612-5.321-2.612l.256,2.251c2.414-.573,4.109,2.192,4.109,2.192Z" transform="translate(-662.57 -4872.87)" fill="#e0e0e0"/></g><g transform="translate(81)"><path d="M597.248,4795.96c-1.12-3.191-5.321-2.612-5.321-2.612l.257,2.251c2.414-.572,4.109,2.193,4.109,2.193Z" transform="translate(-591.927 -4793.307)" fill="#ffeed9"/></g><g transform="translate(30.87 40.83)"><path d="M543.886,4839.423c-1.12-3.191-5.321-2.613-5.321-2.613l.256,2.252c2.414-.573,4.109,2.192,4.109,2.192Z" transform="translate(-538.565 -4836.769)" fill="#ffeed9"/></g><g transform="translate(22.159 13.653)"><path d="M532.792,4807.841c-3.337.547-3.5,4.786-3.5,4.786l2.262.138c-.145-2.477,2.874-3.665,2.874-3.665Z" transform="translate(-529.293 -4807.841)" fill="#ffeed9"/></g><g transform="translate(0 105.989)"><path d="M507.339,4913.056c5.786,1.753,9.386-4.92,9.386-4.92l-3.52-2.006c-1.721,4.087-7.5,3.615-7.5,3.615Z" transform="translate(-505.705 -4906.13)" fill="#ffeed9"/></g><g transform="translate(163.007 38.114)"><path d="M682.679,4837.709c.392-2.68-2.8-3.831-2.8-3.831l-.654,1.693c1.925.49,2.1,3.081,2.1,3.081Z" transform="translate(-679.221 -4833.879)" fill="#ffeed9"/></g><g transform="translate(145.89 12.516)"><path d="M662.34,4806.631c-2.256,1.5-.979,4.645-.979,4.645l1.7-.643c-.921-1.762.891-3.622.891-3.622Z" transform="translate(-661.001 -4806.631)" fill="#ffeed9"/></g></g><g transform="translate(742.894 4865.604)"><path d="M766.113,4870.466l-7.811,23.006,23.1,4.591,1.329-24.294Z" transform="translate(-758.301 -4870.466)" fill="#ffeed9"/><g transform="translate(9.196 3.851)"><path d="M780.767,4877.072c.027.011-.043.257-.259.66a6.737,6.737,0,0,1-1.163,1.546,6.31,6.31,0,0,1-2.448,1.525,6.881,6.881,0,0,1-3.528.179,7.022,7.022,0,0,1-3.222-1.449,5.649,5.649,0,0,1-1.653-2.367,6.3,6.3,0,0,1-.4-1.9,1.572,1.572,0,0,1,.054-.707,10.986,10.986,0,0,0,.629,2.487,5.582,5.582,0,0,0,1.624,2.174,6.88,6.88,0,0,0,3.047,1.33,6.745,6.745,0,0,0,3.326-.134,6.332,6.332,0,0,0,2.358-1.366A12.164,12.164,0,0,0,780.767,4877.072Z" transform="translate(-768.091 -4874.565)" fill="#fff"/></g></g><g transform="translate(503.902 5031.452)"><path d="M773.02,5047.159c0,.084-60.249.153-134.552.153-74.329,0-134.566-.069-134.566-.153s60.237-.152,134.566-.152C712.771,5047.007,773.02,5047.075,773.02,5047.159Z" transform="translate(-503.902 -5047.007)" fill="#263238"/></g><g transform="translate(513.635 4850.337)"><g transform="translate(0)"><g transform="translate(0.153 0.153)"><rect width="143.241" height="112.134" fill="#fafafa"/></g><path d="M657.657,4966.5c0-1.053-.051-44.487-.127-112.134l.127.127-143.229.026h-.012l.153-.153c-.006,40.436-.011,78.674-.016,112.134l-.137-.138,143.241.138-143.241.137h-.137v-.137c0-33.46-.01-71.7-.016-112.134v-.153h.165l143.229.026h.127v.127C657.707,4922.015,657.658,4965.449,657.657,4966.5Z" transform="translate(-514.263 -4854.215)" fill="#263238"/></g><g transform="translate(41.646 79.352)"><path d="M610.013,4956.353H567.429a8.835,8.835,0,0,1-8.835-8.835h0a8.836,8.836,0,0,1,8.835-8.835h42.584a8.836,8.836,0,0,1,8.835,8.835h0A8.835,8.835,0,0,1,610.013,4956.353Z" transform="translate(-558.594 -4938.683)" fill="#ff3c00"/><text transform="translate(10.775 11.066)" fill="#fff" font-size="10" font-family="Roboto-Bold, Roboto" font-weight="700"><tspan x="0" y="0">Vendido</tspan></text></g><g transform="translate(0.512 10.955)"><path d="M657.69,4866.028c0,.084-31.988.153-71.437.153s-71.445-.069-71.445-.153,31.981-.152,71.445-.152S657.69,4865.945,657.69,4866.028Z" transform="translate(-514.808 -4865.876)" fill="#263238"/></g><g transform="translate(4.391 4.644)"><circle cx="0.831" cy="0.831" r="0.831" fill="#263238"/><g transform="translate(3.102)"><circle cx="0.831" cy="0.831" r="0.831" fill="#263238"/></g><g transform="translate(6.156 0)"><path d="M527.153,4859.99a.831.831,0,1,1-.831-.831A.831.831,0,0,1,527.153,4859.99Z" transform="translate(-525.49 -4859.159)" fill="#263238"/></g></g><g transform="translate(54.84 33.855)"><g transform="translate(0 4.866)"><path d="M601.946,4915.7a2.273,2.273,0,0,1-.416.03l-1.2.033-4.435.073-14.89.149-.122,0-.018-.121c-.116-.787-.238-1.621-.363-2.464-1.038-7.217-1.964-13.658-2.569-17.866l.088.076-3.966-.014-1.055-.016a2.07,2.07,0,0,1-.364-.022,1.983,1.983,0,0,1,.364-.027l1.055-.031,3.965-.067.077,0,.011.078c.629,4.205,1.593,10.64,2.673,17.85l.361,2.465-.139-.119,14.89-.058,4.437.012,1.2.016A2.694,2.694,0,0,1,601.946,4915.7Z" transform="translate(-572.638 -4895.433)" fill="#ff3c00"/></g><g transform="translate(5.87 7.946)"><path d="M580.748,4911.711a.327.327,0,0,1,.1-.013l.309-.013,1.2-.031,4.481-.07,15.454-.157-.132.113c.44-2.6.916-5.42,1.408-8.335l.743-4.376.138.163-18.214.079-5.393,0-1.453-.014-.377-.011a.441.441,0,0,1-.128-.012.467.467,0,0,1,.128-.014l.377-.015,1.452-.035,5.392-.079,18.214-.173.166,0-.028.165c-.238,1.4-.487,2.877-.74,4.375-.5,2.915-.976,5.73-1.419,8.334l-.019.112h-.114l-15.454.057-4.482-.009-1.2-.013-.309-.01A.326.326,0,0,1,580.748,4911.711Z" transform="translate(-578.886 -4898.711)" fill="#ff3c00"/></g><g transform="translate(9.312 28.728)"><path d="M586.88,4923.032c-.025,0-.028-.186-.122-.5a2.087,2.087,0,0,0-.776-1.082,1.974,1.974,0,1,0,.022,3.171,2.1,2.1,0,0,0,.762-1.093c.089-.312.089-.5.115-.5a1.072,1.072,0,0,1-.008.525,2.083,2.083,0,0,1-.746,1.225,2.191,2.191,0,0,1-2.083.359,2.215,2.215,0,0,1-.029-4.177,2.187,2.187,0,0,1,2.087.331,2.081,2.081,0,0,1,.763,1.214A1.054,1.054,0,0,1,586.88,4923.032Z" transform="translate(-582.551 -4920.833)" fill="#ff3c00"/></g><g transform="translate(22.789 28.635)"><path d="M601.226,4922.934c-.025,0-.028-.187-.122-.5a2.091,2.091,0,0,0-.776-1.082,2,2,0,0,0-1.878-.246,1.968,1.968,0,0,0,.025,3.69,2,2,0,0,0,1.874-.273,2.089,2.089,0,0,0,.761-1.093c.09-.312.089-.5.116-.5a1.069,1.069,0,0,1-.008.525,2.089,2.089,0,0,1-.746,1.224,2.186,2.186,0,0,1-2.083.358,2.214,2.214,0,0,1-.029-4.176,2.185,2.185,0,0,1,2.087.331,2.083,2.083,0,0,1,.763,1.214A1.055,1.055,0,0,1,601.226,4922.934Z" transform="translate(-596.897 -4920.734)" fill="#ff3c00"/></g><g transform="translate(24.298)"><path d="M610.454,4896.187a5.976,5.976,0,1,1-6.017-5.934A5.976,5.976,0,0,1,610.454,4896.187Z" transform="translate(-598.503 -4890.253)" fill="#ff3c00"/></g><g transform="translate(27.532 3.722)"><path d="M607.916,4894.215a5.391,5.391,0,0,1-.769.97c-.5.574-1.206,1.354-2,2.2l-.85.9-.089.095-.1-.084a19.365,19.365,0,0,1-2.167-2.033,19.425,19.425,0,0,1,2.342,1.83l-.185.01.841-.91c.792-.851,1.521-1.608,2.059-2.149A5.453,5.453,0,0,1,607.916,4894.215Z" transform="translate(-601.945 -4894.214)" fill="#e0e0e0"/></g></g></g><g transform="translate(555.083 4832.022)"><g transform="translate(192.061 81.851)"><path d="M766.876,4933.8s7.129-4.337,8.736-3.062a10.212,10.212,0,0,1,3.092,4.944s3.765-14.361,7.359-13.817c2.061.313,1.049,1.918.126,3.936-.858,1.871-2.321,8.742-2.321,8.742s6.814-8.083,8.816-7.937c1.549.112,1.772,1.476-.456,3.661s-5.93,9.067-5.93,9.067,4.772-4.449,6.744-4.474c1.573-.019,2.588,1.073.553,2.84s-5.115,3.093-6.757,6.289c-2.025,3.939-6.342,13.759-6.342,13.759l-15.112-5.349s-2.458-10.025-2.557-12.46c0,0,.207-5.146.178-6.063s2.4-1.151,3.14.608.4,3.605.7,4.775a4.477,4.477,0,0,0,1.687,2.778c.856.523,3.032.559,3.589-.088a9.243,9.243,0,0,0,1.377-3.687,16.756,16.756,0,0,0-.042-2.987S767.182,4937.821,766.876,4933.8Z" transform="translate(-762.826 -4921.848)" fill="#ffbf9d"/></g><g transform="translate(0 127.647)"><path d="M584.709,4983.523l-10.5-3.934s-10.69-6.259-12.669-4.036a2.2,2.2,0,0,0-3.054,1.248c-.545,1.307,1.252,3.2,1.252,3.2s-.56.567.326,2.486,11.033,7.97,11.033,7.97,13.192,7.194,18.528,10.635l9.2-12.519-1.28-.478s-.76-6.239-3.314-7.9c-2.779-1.81-6.131-6.708-6.869-8.627s-4.28-1.033-3.689,2.952,3.689,5.018,3.394,7.674S584.709,4983.523,584.709,4983.523Z" transform="translate(-558.383 -4970.596)" fill="#ffbf9d"/><g transform="translate(1.242 9.343)"><path d="M568.693,4985.581a86.419,86.419,0,0,1-8.988-5.036,87.143,87.143,0,0,1,8.988,5.036Z" transform="translate(-559.704 -4980.541)" fill="#ff9a6c"/></g><g transform="translate(3.156 4.955)"><path d="M573.94,4982.347a13.7,13.7,0,0,1-1.884-.751c-1.148-.5-2.723-1.216-4.427-2.086a48.43,48.43,0,0,1-4.254-2.43c-.522-.347-.941-.635-1.218-.851s-.427-.338-.415-.356a19.468,19.468,0,0,1,1.747,1.023c1.073.637,2.582,1.472,4.278,2.341s3.254,1.614,4.378,2.162A12.853,12.853,0,0,1,573.94,4982.347Z" transform="translate(-561.742 -4975.871)" fill="#ff9a6c"/></g><g transform="translate(8.298 9.259)"><path d="M576.481,4988.408a6.689,6.689,0,0,1-.93-.505l-2.474-1.477-.028-.017-.015-.034a35.037,35.037,0,0,0-1.783-3.412,8.307,8.307,0,0,0-1.336-1.765,1.684,1.684,0,0,0-2.069-.156,1.047,1.047,0,0,0-.33.3.174.174,0,0,1,.024.07l.042.13c.026.086.06.175.092.262.128.351.266.695.4,1.035.277.676.545,1.332.8,1.961l1.42,3.387-.02-.03,2.112,2.475.564.687a1.105,1.105,0,0,1,.179.255c-.008.008-.088-.064-.23-.21l-.612-.646-2.188-2.407-.011-.012-.008-.019c-.437-.979-.936-2.117-1.47-3.369l-.818-1.96c-.138-.34-.277-.685-.409-1.043-.033-.089-.067-.177-.1-.272l-.046-.141a.968.968,0,0,1-.03-.209.664.664,0,0,1,.214-.313,1.9,1.9,0,0,1,.251-.189,2.045,2.045,0,0,1,1.265-.325,2.024,2.024,0,0,1,1.163.51,8.337,8.337,0,0,1,1.384,1.847,31.585,31.585,0,0,1,1.744,3.47l-.043-.05,2.422,1.562A6.693,6.693,0,0,1,576.481,4988.408Z" transform="translate(-567.216 -4980.453)" fill="#ff9a6c"/></g><g transform="translate(19.667 16.144)"><path d="M587.742,4988.953a6.372,6.372,0,0,1-1.291-.316,12.8,12.8,0,0,0-3.1-.548,5.68,5.68,0,0,0-2.993.733,12.135,12.135,0,0,0-1.035.795,2.366,2.366,0,0,1,.919-.977,5.354,5.354,0,0,1,3.116-.856,10.376,10.376,0,0,1,3.162.648A5.206,5.206,0,0,1,587.742,4988.953Z" transform="translate(-579.317 -4987.782)" fill="#ff9a6c"/></g><g transform="translate(26.316 14.538)"><path d="M587.38,4986.076c.07.052-.191.507-.444,1.09s-.415,1.082-.5,1.066-.053-.568.222-1.188S587.318,4986.025,587.38,4986.076Z" transform="translate(-586.395 -4986.071)" fill="#ff9a6c"/></g></g><g transform="translate(87.668 18.225)"><path d="M651.856,4928.166c.724-4.949,6.487-12.045,11.586-12.053a13.169,13.169,0,0,1-.109-14.478c1.967-2.944,5.141-5.11,6.487-8.373,1.523-3.694.354-7.866.5-11.847.212-5.827,3.244-11.149,6.2-16.211,2.7-4.634,6-9.714,11.321-10.853,3.367-.721,6.858.343,10.018,1.688a54.232,54.232,0,0,1,30.92,35.69c.967,3.753,1.614,7.812,4.228,10.712,2.769,3.071,7.619,4.736,8.45,8.753.6,2.88-1.253,5.776-.976,8.7.233,2.451,4.824,9.6,5.883,11.83,1.824,3.847,1.165,8-.692,11.834a18.118,18.118,0,0,1-10.776,8.607l-46.877-15.622c-4.411,2.511-8.8,12.223-13.866,12.82s-11.241,2.8-16.112-2.53C652.931,4941.251,651.131,4933.114,651.856,4928.166Z" transform="translate(-651.702 -4854.12)" fill="#263238"/><g transform="translate(65.743 27.422)"><path d="M733.821,4883.309c-.524,3.922.55,10.408,2.7,13.76,1.439,2.25,3.84,3.713,6.209,5s4.85,2.521,6.646,4.508,2.759,4.967,1.559,7.348c4.223,1.574,6.118,6.954,4.568,11.115s-5.8,6.958-10.234,7.791l-19.335-5.816-4.246-24.673,11.161-19.032" transform="translate(-721.683 -4883.309)" fill="#263238"/></g><g transform="translate(80.254 52.574)"><path d="M737.13,4910.084a2.228,2.228,0,0,1,.378.164,11.18,11.18,0,0,1,1.057.549,14.045,14.045,0,0,1,3.389,2.825,15.565,15.565,0,0,1,1.806,2.507,15.856,15.856,0,0,1,1.407,3.289,14.227,14.227,0,0,1,.053,8.234l-.07-.177a14.316,14.316,0,0,1,3.145,2.39,14.649,14.649,0,0,1,4.216,8.608,14.119,14.119,0,0,1-1.384,7.737,14.571,14.571,0,0,1-3.175,4.271,11.753,11.753,0,0,1-1.125.916,3.114,3.114,0,0,1-.421.281,2.98,2.98,0,0,1,.383-.33c.262-.2.627-.524,1.08-.953a15.051,15.051,0,0,0,3.063-4.279,14.047,14.047,0,0,0,1.3-7.611,14.465,14.465,0,0,0-4.152-8.424A14.124,14.124,0,0,0,745,4927.74l-.106-.06.036-.118a14.052,14.052,0,0,0-.02-8.067,15.217,15.217,0,0,0-3.109-5.742,14.646,14.646,0,0,0-3.294-2.863c-.426-.291-.795-.448-1.025-.591A2.432,2.432,0,0,1,737.13,4910.084Z" transform="translate(-737.13 -4910.083)" fill="#455a64"/></g></g><g transform="translate(29.783 87.858)"><g transform="translate(0 8.491)"><path d="M671.03,4937.281s-8.639,2.627-11.667,7.032c-2.143,3.116-24.077,50.617-24.077,50.617l-33.3-10.012-11.9,15.724,37.047,20.534a22.566,22.566,0,0,0,22.056-.1h0a22.574,22.574,0,0,0,8.894-9.2l9.42-18.047Z" transform="translate(-590.086 -4937.281)" fill="#ff3c00"/></g><g transform="translate(70.129)"><path d="M666.711,5040.191l5.2-22.408-3.939-16.271c-2.534-8.379-4.708-22.026-1.952-33.019l9.208-31.609,10.124-4.656,23.168-3.985c.892.3,24.226,6.887,24.226,6.887a36.1,36.1,0,0,1,4.527,1.265l2.675,17.3-8.045,28.521-3.5,28.417,7.7,29.556Z" transform="translate(-664.736 -4928.242)" fill="#ff3c00"/><g transform="translate(0.253 42.233)"><path d="M665.006,4973.2" transform="translate(-665.006 -4973.198)" fill="none" stroke="#fff" stroke-miterlimit="10" stroke-width="0.02"/></g><g transform="translate(54.538 44.322)"><path d="M722.79,4975.422" transform="translate(-722.79 -4975.422)" fill="none" stroke="#fff" stroke-miterlimit="10" stroke-width="0.02"/></g></g><g transform="translate(85.279 3.392)"><path d="M681.077,4934.86l6.718-3.007,30.281.421,7.161,4.157s-25.015,27.611-31.294,28.524C678.152,4967.252,681.077,4934.86,681.077,4934.86Z" transform="translate(-680.863 -4931.853)" fill="#ffbf9d"/></g><g transform="translate(130.828 7.913)"><path d="M740.528,4936.665s4.536,1.021,8.423,9.315,10.173,31.378,10.173,31.378l2.688-24.463L783.7,4955.3l-4.237,58.465s-7.747,11.235-20.707,10.2-29.413-42-29.413-42Z" transform="translate(-729.348 -4936.665)" fill="#ff3c00"/></g><g transform="translate(157.183 24.143)"><path d="M757.408,5008.277a.532.532,0,0,1,0-.142c0-.112.01-.248.018-.414l.1-1.591c.083-1.382.248-3.378.476-5.843.457-4.929,1.292-11.718,2.315-19.2s1.892-14.26,2.4-19.181c.256-2.46.454-4.452.573-5.83q.1-1,.153-1.586l.048-.411a.072.072,0,1,1,.031,0l-.018.415-.1,1.59c-.083,1.382-.248,3.378-.476,5.842-.457,4.93-1.292,11.718-2.315,19.2s-1.892,14.258-2.4,19.178c-.256,2.46-.454,4.452-.574,5.83-.065.669-.116,1.2-.153,1.586l-.047.413A.5.5,0,0,1,757.408,5008.277Z" transform="translate(-757.402 -4953.942)" fill="#263238"/></g><g transform="translate(43.782 66.385)"><path d="M638.487,5011.278a1.633,1.633,0,0,1-.242-.437,12.866,12.866,0,0,1-.508-1.26,18.883,18.883,0,0,1-.859-8.863,12.833,12.833,0,0,1,.257-1.335,1.566,1.566,0,0,1,.154-.475c.049.01-.084.706-.2,1.835a22.424,22.424,0,0,0,.849,8.771C638.27,5010.6,638.534,5011.258,638.487,5011.278Z" transform="translate(-636.691 -4998.907)" fill="#263238"/></g><g transform="translate(44.457 65.584)"><path d="M642.213,5011.768a2.116,2.116,0,0,1-.386-.436,15.823,15.823,0,0,1-.913-1.3,22.549,22.549,0,0,1-3.416-9.815,15.511,15.511,0,0,1-.088-1.583,2.166,2.166,0,0,1,.031-.582c.052,0,.089.824.272,2.14a26.117,26.117,0,0,0,3.385,9.728C641.772,5011.067,642.255,5011.738,642.213,5011.768Z" transform="translate(-637.409 -4998.054)" fill="#263238"/></g><g transform="translate(69.187 27.062)"><path d="M669.726,4957.049a2.872,2.872,0,0,1-.11.475q-.14.5-.374,1.342c-.338,1.193-.813,2.87-1.4,4.929a108.8,108.8,0,0,0-3.48,16.5,38.451,38.451,0,0,0,1.413,16.659c.62,2.069,1.206,3.718,1.607,4.859l.462,1.314a2.944,2.944,0,0,1,.143.465,2.787,2.787,0,0,1-.2-.443l-.516-1.294c-.436-1.128-1.054-2.769-1.7-4.837a39.6,39.6,0,0,1-1.615-7.437,40.276,40.276,0,0,1,.1-9.319,101.285,101.285,0,0,1,3.576-16.524c.607-2.077,1.125-3.75,1.491-4.9q.268-.832.428-1.326A3.079,3.079,0,0,1,669.726,4957.049Z" transform="translate(-663.734 -4957.049)" fill="#263238"/></g><g transform="translate(127.472 9.444)"><path d="M734.7,4994.435a.639.639,0,0,1-.08-.144l-.2-.434-.763-1.682c-.323-.734-.737-1.625-1.179-2.676-.425-1.062-.906-2.266-1.436-3.595s-1.015-2.831-1.584-4.419q-.375-1.208-.774-2.5-.2-.645-.4-1.308c-.126-.445-.236-.9-.357-1.36a59.909,59.909,0,0,1-2.07-12.164,35.072,35.072,0,0,1,1.265-12.257,21.745,21.745,0,0,1,4.849-8.788,16.983,16.983,0,0,1,5.465-4.008,12.88,12.88,0,0,1,1.735-.643l.463-.129a.083.083,0,1,1,.008.03l-.453.158a15.078,15.078,0,0,0-1.7.692,17.3,17.3,0,0,0-5.356,4.046,21.72,21.72,0,0,0-4.739,8.721,35.147,35.147,0,0,0-1.231,12.159,60.862,60.862,0,0,0,2.038,12.11q.178.687.35,1.357l.394,1.306q.389,1.286.756,2.5c.558,1.587,1.043,3.08,1.545,4.422s.982,2.541,1.392,3.606c.427,1.056.824,1.952,1.13,2.692l.71,1.7.178.447A.657.657,0,0,1,734.7,4994.435Z" transform="translate(-725.776 -4938.295)" fill="#263238"/></g><g transform="translate(126.101 39.102)" opacity="0.3"><path d="M726.272,4969.865c-2.862,13.539-2.9,27.468,2.027,40.4.287.75,1.417,3.417,2.219,3.457,1.016.05,1.5-1.216,1.675-2.218.362-2.061.583-5.453.945-7.513.453-2.582,1.066-8.556,1.066-8.556s-2.367-5.417-3.408-8.322a82.7,82.7,0,0,1-4.465-16.819" transform="translate(-724.317 -4969.865)"/></g><g transform="translate(89.313 91.554)"><path d="M721.563,5025.7a2.147,2.147,0,0,1-.227.354l-.7.98-.514.705c-.2.251-.432.506-.674.789a23.48,23.48,0,0,1-1.713,1.863l-1.053,1.031c-.369.355-.794.679-1.211,1.04a34.566,34.566,0,0,1-2.807,2.13,36.069,36.069,0,0,1-14.933,5.819,34.372,34.372,0,0,1-3.508.332c-.551.017-1.083.065-1.6.054l-1.473-.046a23.366,23.366,0,0,1-2.521-.213c-.369-.045-.715-.075-1.03-.125l-.856-.17c-.488-.1-.881-.185-1.181-.247a2.09,2.09,0,0,1-.407-.106,2.152,2.152,0,0,1,.419.046l1.189.189.856.144c.315.042.66.063,1.029.1a25.04,25.04,0,0,0,2.51.165l1.463.028c.508,0,1.037-.049,1.584-.072,1.1-.024,2.257-.2,3.479-.357a36.788,36.788,0,0,0,14.819-5.774c1-.715,1.977-1.367,2.8-2.091.418-.354.843-.672,1.214-1.02l1.06-1.01a24.892,24.892,0,0,0,1.735-1.821c.247-.277.487-.525.69-.769l.534-.686.747-.943A2.2,2.2,0,0,1,721.563,5025.7Z" transform="translate(-685.157 -5025.699)" fill="#263238"/></g><g transform="translate(112.253 82.595)"><path d="M718.264,5016.162a2.6,2.6,0,0,1-.078.642,14.8,14.8,0,0,1-.41,1.712,20.4,20.4,0,0,1-6.25,9.646,14.723,14.723,0,0,1-1.4,1.074,2.509,2.509,0,0,1-.553.333c-.032-.045.719-.574,1.806-1.569a22.574,22.574,0,0,0,6.187-9.549C718.034,5017.052,718.21,5016.15,718.264,5016.162Z" transform="translate(-709.576 -5016.162)" fill="#263238"/></g></g><g transform="translate(102.737)"><g transform="translate(37.192)"><g transform="translate(0 14.713)"><path d="M707.464,4850.381a23.8,23.8,0,0,1,20.692,35.263c-1.346,2.448-3.283,4.767-5.944,5.621a49.056,49.056,0,0,0-14.881-38.1" transform="translate(-707.332 -4850.381)" fill="#ff3c00"/></g><g transform="translate(9.258 3.151)"><path d="M717.655,4851.758c-1.218-2.531.085-5.7,2.256-7.479s5-2.5,7.73-3.155,5.56-1.329,7.779-3.05c-.32,4.4-1.413,8.926-4.261,12.3s-7.78,5.247-11.846,3.534" transform="translate(-717.187 -4838.074)" fill="#ff3c00"/></g><g transform="translate(0.336 0)"><path d="M719.9,4854.454a6.209,6.209,0,0,1-5.771-.853,13.156,13.156,0,0,1-3.851-4.637,19.926,19.926,0,0,1-2.475-7.005,11.732,11.732,0,0,1,1.239-7.239c3.216,3.425,6.757,6.3,8.6,10.628a12.806,12.806,0,0,1-.21,9.117" transform="translate(-707.689 -4834.72)" fill="#ff3c00"/></g><g transform="translate(16.878 33.978)"><path d="M730.074,4870.888a4.225,4.225,0,0,1,.161.817c.044.264.091.589.12.969s.086.811.095,1.291a26.182,26.182,0,0,1-.059,3.369,27.149,27.149,0,0,1-1.905,8.009,26.375,26.375,0,0,1-1.465,3.036c-.225.424-.466.785-.666,1.108s-.385.595-.544.811a4.232,4.232,0,0,1-.511.658,4.4,4.4,0,0,1,.411-.723c.143-.225.315-.5.5-.833s.411-.7.622-1.125a29.876,29.876,0,0,0,1.392-3.035,29.166,29.166,0,0,0,1.887-7.931,29.829,29.829,0,0,0,.123-3.337c.006-.476-.033-.906-.049-1.283s-.042-.7-.069-.97A4.369,4.369,0,0,1,730.074,4870.888Z" transform="translate(-725.299 -4870.888)" fill="#263238"/></g><g transform="translate(9.021 8.692)"><path d="M727.734,4853.5a4.288,4.288,0,0,1-.651.518,7.082,7.082,0,0,1-2.121.82,16.528,16.528,0,0,1-7.5-.427l-.086-.022-.02-.088-.123-.556a13.132,13.132,0,0,1-.194-4.369,7.433,7.433,0,0,1,1.234-3.351,6.19,6.19,0,0,1,1.743-1.664,4.811,4.811,0,0,1,.791-.393,4.664,4.664,0,0,1-.725.491,6.624,6.624,0,0,0-1.63,1.687,7.436,7.436,0,0,0-1.133,3.267,13.3,13.3,0,0,0,.214,4.271l.12.543-.105-.11a17.223,17.223,0,0,0,7.372.515,7.8,7.8,0,0,0,2.106-.714A4.348,4.348,0,0,1,727.734,4853.5Z" transform="translate(-716.935 -4843.972)" fill="#263238"/></g><g transform="translate(9.578 10.604)"><path d="M730.176,4846.016c.009.056-.859.178-2.206.577a18.98,18.98,0,0,0-2.307.855,18.765,18.765,0,0,0-5.019,3.289,19.077,19.077,0,0,0-1.705,1.775c-.9,1.075-1.36,1.823-1.408,1.792a2.356,2.356,0,0,1,.286-.547,12.42,12.42,0,0,1,.955-1.383,16.671,16.671,0,0,1,1.681-1.845,17.373,17.373,0,0,1,5.1-3.34,16.529,16.529,0,0,1,2.364-.805,12.53,12.53,0,0,1,1.649-.325A2.417,2.417,0,0,1,730.176,4846.016Z" transform="translate(-717.528 -4846.007)" fill="#263238"/></g><g transform="translate(4.812 14.896)"><path d="M720.063,4855.344c.01,0,0,.063-.023.177a2.568,2.568,0,0,1-.157.485,3.819,3.819,0,0,1-1.162,1.469,4.041,4.041,0,0,1-2.641.852,3.98,3.98,0,0,1-3.454-5.042,4.033,4.033,0,0,1,1.748-2.154,3.8,3.8,0,0,1,1.789-.553,2.584,2.584,0,0,1,.509.028c.116.018.175.033.173.043,0,.032-.245,0-.673.047a4,4,0,0,0-1.684.618,3.9,3.9,0,0,0-1.594,2.056,3.742,3.742,0,0,0,3.2,4.676,3.9,3.9,0,0,0,2.493-.744,3.985,3.985,0,0,0,1.184-1.348C719.977,4855.573,720.032,4855.334,720.063,4855.344Z" transform="translate(-712.454 -4850.576)" fill="#263238"/></g><g transform="translate(5.219 18.368)"><path d="M712.968,4855.714c-.028.03-.2-.319.075-.778a1.329,1.329,0,0,1,.7-.544,2.556,2.556,0,0,1,1.049-.109,4.8,4.8,0,0,1,2.492.743c-.033.084-1.114-.341-2.513-.438a1.691,1.691,0,0,0-1.548.473A1.546,1.546,0,0,0,712.968,4855.714Z" transform="translate(-712.888 -4854.272)" fill="#263238"/></g><g transform="translate(0.372)"><path d="M709.045,4834.72a7.251,7.251,0,0,0-.9,2.512,17.369,17.369,0,0,0-.139,2.916,19,19,0,0,0,.313,3.557,17.629,17.629,0,0,0,2.508,5.946c.477.684.9,1.214,1.2,1.573a7.11,7.11,0,0,1,.469.555,8.4,8.4,0,0,1-1.84-2,16.508,16.508,0,0,1-2.632-6.011,17.974,17.974,0,0,1-.295-3.616,15.841,15.841,0,0,1,.208-2.955,5.91,5.91,0,0,1,.672-1.886A2.078,2.078,0,0,1,709.045,4834.72Z" transform="translate(-707.728 -4834.72)" fill="#263238"/></g><g transform="translate(4.729 6.967)"><path d="M712.37,4842.137a4.582,4.582,0,0,1,.826,1,17.363,17.363,0,0,1,1.561,2.722,16.555,16.555,0,0,1,1.031,2.965,4.46,4.46,0,0,1,.2,1.285c-.095.021-.494-1.921-1.512-4.123S712.287,4842.2,712.37,4842.137Z" transform="translate(-712.366 -4842.136)" fill="#263238"/></g><g transform="translate(3.736 10.626)"><path d="M711.313,4846.033c.061-.053,1.05.948,2.347,2.11a17.927,17.927,0,0,1,2.266,2.205,15.165,15.165,0,0,1-2.472-1.979A10.738,10.738,0,0,1,711.313,4846.033Z" transform="translate(-711.309 -4846.031)" fill="#263238"/></g><g transform="translate(8.315 24.409)"><path d="M726.981,4860.7a.5.5,0,0,1-.086.083l-.258.22a11.456,11.456,0,0,1-1,.745,15.059,15.059,0,0,1-7.747,2.544,11.907,11.907,0,0,1-1.248,0l-.339-.024a.4.4,0,0,1-.117-.017.514.514,0,0,1,.119-.007h.338c.294.007.72,0,1.243-.034a15.973,15.973,0,0,0,7.7-2.53c.441-.285.789-.53,1.021-.71l.272-.2A.428.428,0,0,1,726.981,4860.7Z" transform="translate(-716.183 -4860.703)" fill="#fafafa"/></g><g transform="translate(11.815 31.518)"><path d="M730.666,4868.27s-.026.032-.086.083l-.261.217c-.226.19-.57.445-1.007.741a16.875,16.875,0,0,1-7.7,2.775c-.526.051-.954.073-1.249.072h-.34a.421.421,0,0,1-.118-.009.479.479,0,0,1,.118-.016l.338-.021c.294-.013.719-.049,1.241-.111a18.018,18.018,0,0,0,7.658-2.761c.442-.286.791-.529,1.026-.707l.274-.2A.464.464,0,0,1,730.666,4868.27Z" transform="translate(-719.909 -4868.27)" fill="#fafafa"/></g><g transform="translate(14.154 41.887)"><path d="M729.856,4879.307a1.461,1.461,0,0,1-.249.184c-.163.113-.41.263-.722.433a11.62,11.62,0,0,1-5.337,1.4c-.356,0-.644-.006-.842-.025a1.416,1.416,0,0,1-.307-.038,1.611,1.611,0,0,1,.309-.01c.2,0,.485,0,.837-.014a12.892,12.892,0,0,0,5.3-1.387c.316-.16.567-.3.738-.4A1.56,1.56,0,0,1,729.856,4879.307Z" transform="translate(-722.399 -4879.307)" fill="#fafafa"/></g><g transform="translate(21.995 40.29)"><path d="M732.355,4877.618a2.8,2.8,0,0,1-.794.216,2.86,2.86,0,0,1-.816.095,5.49,5.49,0,0,1,1.61-.311Z" transform="translate(-730.745 -4877.607)" fill="#fafafa"/></g><g transform="translate(15.119 52.292)"><path d="M726.083,4890.584a5.49,5.49,0,0,1-2.657-.194c.008-.036.594.087,1.326.14S726.08,4890.547,726.083,4890.584Z" transform="translate(-723.426 -4890.383)" fill="#fafafa"/></g><g transform="translate(5.003 21.772)"><path d="M714.283,4857.9a3.557,3.557,0,0,1-.783.5,3.622,3.622,0,0,1-.842.395,3.507,3.507,0,0,1,.783-.5A3.7,3.7,0,0,1,714.283,4857.9Z" transform="translate(-712.657 -4857.896)" fill="#fafafa"/></g><g transform="translate(0.53 15.608)"><path d="M711.077,4851.336a7.913,7.913,0,0,0-3.18,2.261,1.958,1.958,0,0,1,.337-.478,5.756,5.756,0,0,1,2.282-1.622A1.97,1.97,0,0,1,711.077,4851.336Z" transform="translate(-707.896 -4851.333)" fill="#fafafa"/></g><g transform="translate(8.548 18.944)"><path d="M716.886,4858.379a6.123,6.123,0,0,0-.452-3.495,1.635,1.635,0,0,1,.262.462,4.5,4.5,0,0,1,.342,1.236,4.567,4.567,0,0,1-.016,1.283A1.607,1.607,0,0,1,716.886,4858.379Z" transform="translate(-716.432 -4854.885)" fill="#fafafa"/></g><g transform="translate(9.924 3.281)"><path d="M735.15,4838.212a7.208,7.208,0,0,1-.644.686,13.036,13.036,0,0,1-2.032,1.563,25.776,25.776,0,0,1-3.378,1.746c-1.309.581-2.773,1.153-4.258,1.865a16.664,16.664,0,0,0-3.9,2.485,9.808,9.808,0,0,0-2.288,2.979,7.111,7.111,0,0,0-.7,2.437c-.053.6-.009.936-.029.937,0,0-.011-.083-.021-.242a5.191,5.191,0,0,1,0-.7,6.973,6.973,0,0,1,.667-2.471,9.791,9.791,0,0,1,2.291-3.025,16.5,16.5,0,0,1,3.917-2.511c1.491-.715,2.958-1.286,4.267-1.858a26.667,26.667,0,0,0,3.377-1.716,13.919,13.919,0,0,0,2.045-1.525c.222-.2.391-.367.5-.482S735.15,4838.212,735.15,4838.212Z" transform="translate(-717.896 -4838.212)" fill="#fafafa"/></g><g transform="translate(13.81 10.252)"><path d="M733.812,4845.633a.714.714,0,0,1-.078.134l-.245.368c-.21.321-.541.77-.97,1.306a23.216,23.216,0,0,1-8.415,6.531c-.626.284-1.141.493-1.505.618l-.418.146a.678.678,0,0,1-.148.042.693.693,0,0,1,.14-.065l.409-.166c.357-.139.867-.359,1.485-.651a24.5,24.5,0,0,0,8.384-6.51c.437-.526.777-.965,1-1.277l.263-.355A.751.751,0,0,1,733.812,4845.633Z" transform="translate(-722.032 -4845.633)" fill="#fafafa"/></g><g transform="translate(1.07 1.999)"><path d="M708.471,4836.847a11.254,11.254,0,0,1,1.78.942,14.743,14.743,0,0,1,5.948,7.507,11.211,11.211,0,0,1,.511,1.948.56.56,0,0,1-.045-.133l-.1-.386a13.737,13.737,0,0,0-.444-1.4,15.293,15.293,0,0,0-5.914-7.463,13.888,13.888,0,0,0-1.261-.752l-.353-.19A.608.608,0,0,1,708.471,4836.847Z" transform="translate(-708.471 -4836.847)" fill="#fafafa"/></g></g><g transform="translate(0 9.306)"><g transform="translate(0 14.781)"><path d="M676.545,4860.36c.23,3.113-1.826,5.895-3.9,8.23s-4.377,4.77-4.825,7.859c-.793,5.476,4.568,10.56,3.462,15.981-.593,2.9-2.971,5.24-3.4,8.174-.411,2.838,1.111,5.617,3,7.777s4.07,1.845,5.737,4.179a23.457,23.457,0,0,0,7.236,6.431c6.009,3.29,13.219-1.47,16.117-2.325" transform="translate(-667.742 -4860.36)" fill="#263238"/></g><g transform="translate(8.704)"><path d="M722.542,4872.167c2.769-1.205,2.986-11.129-3.962-12.275a18.855,18.855,0,0,1-7.452-3.4c-2.075-1.4-2.691-4.941-4.446-6.721a17.387,17.387,0,0,0-29.243,7.978c-1.01,4.021-.32,8.775,2.849,11.448,3.679,3.1,9.133,2.413,13.847,1.448s10.049-1.917,13.984.852c2.374,1.669,3.734,4.385,5.185,6.9s3.272,5.078,6.016,6.023c0,0,2.088,4.91.383,8.328s2.006-2.412,2.006-2.412,6.765-12.029.831-18.169" transform="translate(-677.008 -4844.626)" fill="#263238"/></g><g transform="translate(5.981 13.676)"><path d="M687.171,4942.7c-.038-6.479,0-24.674,0-24.64,0,0-10.292-1.732-12.4-15.171-1.046-6.683-.686-17.636-.1-26.589.526-8.058,5.888-17.934,13.916-17.066l25.06,6.393a4.727,4.727,0,0,1,4.217,4.8h0l-1.526,62.236Z" transform="translate(-674.109 -4859.184)" fill="#ffbf9d"/><g transform="translate(2.9 21.02)"><g transform="translate(1.928 2.224)"><path d="M679.25,4885.479a1.723,1.723,0,0,0,1.657,1.743,1.648,1.648,0,0,0,1.779-1.55,1.723,1.723,0,0,0-1.655-1.743A1.648,1.648,0,0,0,679.25,4885.479Z" transform="translate(-679.249 -4883.926)" fill="#263238"/></g><path d="M677.223,4883.362c.213.226,1.521-.737,3.374-.728,1.853-.018,3.211.938,3.412.712.1-.1-.117-.506-.709-.938a4.72,4.72,0,0,0-2.731-.848,4.53,4.53,0,0,0-2.686.861C677.313,4882.855,677.119,4883.262,677.223,4883.362Z" transform="translate(-677.196 -4881.559)" fill="#263238"/></g><g transform="translate(21.122 23.974)"><path d="M696.62,4886.507c.214.225,1.523-.737,3.375-.728,1.852-.018,3.21.938,3.412.712.1-.1-.116-.506-.709-.938a4.732,4.732,0,0,0-2.731-.849,4.549,4.549,0,0,0-2.687.861C696.711,4886,696.516,4886.406,696.62,4886.507Z" transform="translate(-696.593 -4884.703)" fill="#263238"/></g><g transform="translate(9.671 21.498)"><path d="M689.124,4897.513a12.293,12.293,0,0,0-3.01-.55c-.474-.05-.921-.145-1-.468a2.421,2.421,0,0,1,.319-1.4q.672-1.717,1.408-3.6c1.955-5.127,3.373-9.345,3.165-9.422s-1.961,4.018-3.916,9.146q-.706,1.9-1.35,3.623a2.742,2.742,0,0,0-.249,1.857,1.185,1.185,0,0,0,.777.693,3.146,3.146,0,0,0,.8.114A12.053,12.053,0,0,0,689.124,4897.513Z" transform="translate(-684.403 -4882.068)" fill="#263238"/></g><g transform="translate(13.062 54.119)"><path d="M688.013,4921.552a34.177,34.177,0,0,0,18-4.76c-.151.033-4.954,9.339-17.827,7.932Z" transform="translate(-688.013 -4916.792)" fill="#ff9a6c"/></g><g transform="translate(14.901 39.175)"><path d="M690,4904c-.221-1.141,1.121-1.511,2.108-2.124s1.554-1.429,2.478-.726a3.6,3.6,0,0,1,1.142,1.6,2.529,2.529,0,0,1,.185,1.313,2.555,2.555,0,0,1-.826,1.372,3.9,3.9,0,0,1-2.012,1.053,2.806,2.806,0,0,1-2.179-.512,2.2,2.2,0,0,1-.83-2.034" transform="translate(-689.971 -4900.884)" fill="#ff9a6c"/></g><g transform="translate(13.924 38.238)"><path d="M694.851,4899.887c-.3-.018-.31,1.994-2.036,3.418s-3.867,1.2-3.884,1.479c-.028.126.477.392,1.383.418a5.009,5.009,0,0,0,3.241-1.121,4.362,4.362,0,0,0,1.577-2.867C695.212,4900.375,694.989,4899.875,694.851,4899.887Z" transform="translate(-688.931 -4899.887)" fill="#263238"/></g><g transform="translate(20.864 20.254)"><path d="M696.328,4882.126c.182.5,2.034.27,4.208.536,2.18.223,3.933.863,4.223.413.129-.217-.176-.692-.884-1.182a7.372,7.372,0,0,0-6.422-.723C696.653,4881.491,696.25,4881.886,696.328,4882.126Z" transform="translate(-696.319 -4880.743)" fill="#263238"/></g><g transform="translate(3.138 14.498)"><path d="M677.5,4876.529c.325.421,1.6-.013,3.139-.029,1.535-.071,2.836.289,3.137-.15.132-.215-.072-.636-.64-1.037a4.549,4.549,0,0,0-5.056.146C677.533,4875.89,677.353,4876.324,677.5,4876.529Z" transform="translate(-677.449 -4874.616)" fill="#263238"/></g></g><g transform="translate(17.355 10.811)"><path d="M720.069,4910.386c-3.695.745-4.025-1.135-6.785-3.7a12.132,12.132,0,0,1-3.713-10.234c.418-3.3,2.2-6.657,1.053-9.779-1.512-4.129-7.3-5.4-8.836-9.519-.893-2.395-.091-5.2-1.1-7.542-.952-2.207-3.273-3.478-5.532-4.294s-4.683-1.381-6.581-2.856-3.08-4.259-1.856-6.327a127.278,127.278,0,0,1,29.355,7.132c2.193.819,4.5,1.8,5.792,3.751,1.372,2.062,1.306,4.726,1.19,7.2q-.844,18.094-1.688,36.187" transform="translate(-686.217 -4856.134)" fill="#263238"/></g><g transform="translate(17.557 6.277)"><path d="M728.642,4905.585c.008.006.057-.051.147-.167a4.685,4.685,0,0,0,.371-.538,7.13,7.13,0,0,0,.885-2.349,8.261,8.261,0,0,0-.216-3.967,7.584,7.584,0,0,0-3.126-4.2c-1.594-1.124-3.669-1.906-4.987-3.695a4.033,4.033,0,0,1-.73-3.154,18.005,18.005,0,0,1,1.17-3.486,10.025,10.025,0,0,0-.174-8.021,8.776,8.776,0,0,0-2.725-3.386,10.649,10.649,0,0,0-4.12-1.709c-1.455-.332-2.907-.523-4.254-.93a8.3,8.3,0,0,1-3.561-1.949,5.917,5.917,0,0,1-1.545-3.524,30.275,30.275,0,0,0-.632-3.906,13.465,13.465,0,0,0-3.625-6.355,10.618,10.618,0,0,0-5.707-2.831,8.489,8.489,0,0,0-5.193.786,8.226,8.226,0,0,0-3,2.6,6.976,6.976,0,0,0-1.05,2.28,3.527,3.527,0,0,0-.131.864,8.521,8.521,0,0,1,1.368-3.009,8.108,8.108,0,0,1,2.965-2.439,8.191,8.191,0,0,1,4.98-.67,10.243,10.243,0,0,1,5.433,2.772,13.018,13.018,0,0,1,3.438,6.139,30.068,30.068,0,0,1,.6,3.853,6.478,6.478,0,0,0,1.69,3.847,8.831,8.831,0,0,0,3.806,2.1c1.411.426,2.867.618,4.291.944a10.1,10.1,0,0,1,3.9,1.606,8.22,8.22,0,0,1,2.549,3.157,9.487,9.487,0,0,1,.189,7.584,18.147,18.147,0,0,0-1.173,3.6,4.54,4.54,0,0,0,.846,3.521c1.466,1.927,3.6,2.677,5.149,3.751a7.27,7.27,0,0,1,3.047,3.959,8.19,8.19,0,0,1,.3,3.828A9.031,9.031,0,0,1,728.642,4905.585Z" transform="translate(-686.431 -4851.306)" fill="#455a64"/></g></g><g transform="translate(34.628 56.513)"><g transform="translate(0.034)"><path d="M712.265,4894.876a33.986,33.986,0,0,0-1.57,22.4c.609,2.2,1.448,4.475.929,6.7-.563,2.4-2.572,4.142-4.039,6.129a15.127,15.127,0,0,0,4.636,22.1c.388-2.209,2.443-3.715,4.47-4.677s4.267-1.672,5.813-3.3,1.983-4.6.186-5.947c5.171-1.352,8.1-7.494,7.014-12.727s-5.344-9.368-10.185-11.635" transform="translate(-704.639 -4894.876)" fill="#263238"/></g><g transform="translate(0 39.79)"><path d="M717.778,4949.606c-.925.506-1.823.96-1.936,2.009-.134,1.23,1.046,3.39,1.469,4.553a6.325,6.325,0,0,1-8.267,8.048c1.655.126,3.06-1.488,3.206-3.141a6.945,6.945,0,0,0-1.64-4.584,46.043,46.043,0,0,1-3.018-3.955c-1.7-2.917-4.231-10.857-2.286-15.3" transform="translate(-704.603 -4937.231)" fill="#263238"/></g><g transform="translate(15.143 9.034)"><path d="M723.455,4939.074a2.17,2.17,0,0,1,.318-.268c.216-.166.528-.416.923-.747a20.611,20.611,0,0,0,3.019-3.123,15.684,15.684,0,0,0,2.862-5.708,12.861,12.861,0,0,0-.379-7.714,11.417,11.417,0,0,0-2.126-3.433c-.864-.994-1.806-1.86-2.69-2.7a27.711,27.711,0,0,1-2.411-2.508,10.794,10.794,0,0,1-1.58-2.6,6.867,6.867,0,0,1-.518-4.318,4.543,4.543,0,0,1,.439-1.112,2.023,2.023,0,0,1,.227-.349,7.733,7.733,0,0,0-.551,1.489,6.9,6.9,0,0,0,.6,4.2,10.712,10.712,0,0,0,1.578,2.523,28.121,28.121,0,0,0,2.408,2.465c.888.835,1.839,1.7,2.722,2.711a11.613,11.613,0,0,1,2.184,3.519,13.02,13.02,0,0,1,.367,7.895,15.637,15.637,0,0,1-2.965,5.771,19,19,0,0,1-3.114,3.081c-.408.319-.734.555-.961.7A2.135,2.135,0,0,1,723.455,4939.074Z" transform="translate(-720.722 -4904.492)" fill="#455a64"/></g></g></g></g><g transform="translate(521.368 4981.782)"><g transform="translate(18.46)"><path d="M543.822,5014.66c1.485,1.86,4.093,1.049,5.246-.216a9.914,9.914,0,0,0,1.933-4.691c.844-3.819,1.684-7.822.641-11.593a6.414,6.414,0,0,0-1.667-3.036,3.345,3.345,0,0,0-3.231-.854c-1.313.437-2.061,1.8-2.583,3.08a27.486,27.486,0,0,0-1.97,11.942,9.53,9.53,0,0,0,1.63,5.369" transform="translate(-542.144 -4994.135)" fill="#ff4f5b"/></g><g transform="translate(18.46)" opacity="0.2"><path d="M543.822,5014.66c1.485,1.86,4.093,1.049,5.246-.216a9.914,9.914,0,0,0,1.933-4.691c.844-3.819,1.684-7.822.641-11.593a6.414,6.414,0,0,0-1.667-3.036,3.345,3.345,0,0,0-3.231-.854c-1.313.437-2.061,1.8-2.583,3.08a27.486,27.486,0,0,0-1.97,11.942,9.53,9.53,0,0,0,1.63,5.369" transform="translate(-542.144 -4994.135)"/></g><g transform="translate(23.478 28.627)"><path d="M549.871,5026.04a11.838,11.838,0,0,1,7.27-1.352,6.1,6.1,0,0,1,3.721,1.389,2.611,2.611,0,0,1,.265,3.611,3.482,3.482,0,0,1-2.246.723c-1.938.1-4.108-.107-5.582,1.155-.841.72-1.359,1.863-2.394,2.256a2.5,2.5,0,0,1-2.823-1.048,4.277,4.277,0,0,1-.508-3.128A4.815,4.815,0,0,1,549.871,5026.04Z" transform="translate(-547.486 -5024.607)" fill="#ff4f5b"/></g><g transform="translate(0 7.576)"><path d="M539.066,5018.176a7.1,7.1,0,0,0,.691-6.586,12.578,12.578,0,0,0-4.212-5.355,20.8,20.8,0,0,0-7.168-3.644,7.375,7.375,0,0,0-3.141-.332,3.266,3.266,0,0,0-2.509,1.742c-.641,1.433.162,3.072,1,4.4a52.7,52.7,0,0,0,4.975,6.628,12.32,12.32,0,0,0,5.262,3.963c2.124.662,4.273.434,5.281-1.073" transform="translate(-522.494 -5002.199)" fill="#ff4f5b"/></g><g transform="translate(21.781 31.363)"><path d="M545.791,5046.046a4.14,4.14,0,0,0,.068-.893c.023-.647.05-1.461.084-2.428a34.782,34.782,0,0,1,.319-3.575,27.461,27.461,0,0,1,1.024-4.259,15.446,15.446,0,0,1,1.9-3.915,7.984,7.984,0,0,1,2.556-2.413,7.562,7.562,0,0,1,2.227-.85,4.192,4.192,0,0,0,.872-.183,4.113,4.113,0,0,0-.9.043,6.885,6.885,0,0,0-2.33.765,7.979,7.979,0,0,0-2.7,2.441,15.05,15.05,0,0,0-1.968,4,25.589,25.589,0,0,0-1.011,4.327,30.125,30.125,0,0,0-.245,3.614c-.012,1.031.011,1.862.034,2.437A4.26,4.26,0,0,0,545.791,5046.046Z" transform="translate(-545.679 -5027.52)" fill="#263238"/></g><g transform="translate(21.216 7.843)"><path d="M545.8,5042.662a1.8,1.8,0,0,0,0-.412c-.021-.308-.046-.7-.077-1.172-.067-1.019-.16-2.492-.219-4.316-.139-3.645-.142-8.688.116-14.249s.757-10.583,1.27-14.194c.117-.9.242-1.72.363-2.434s.209-1.333.308-1.833c.083-.471.149-.854.2-1.158a.206.206,0,1,0-.072-.015c-.071.3-.161.68-.271,1.146-.12.5-.237,1.112-.369,1.826s-.283,1.526-.418,2.431a133.643,133.643,0,0,0-1.379,14.215c-.258,5.571-.214,10.628-.008,14.277.093,1.826.224,3.3.335,4.317.059.474.107.861.146,1.167A1.732,1.732,0,0,0,545.8,5042.662Z" transform="translate(-545.078 -5002.484)" fill="#263238"/></g><g transform="translate(6.643 11.915)"><path d="M544.278,5033.2a7.837,7.837,0,0,0-.086-1.225c-.095-.785-.275-1.917-.584-3.3a43.932,43.932,0,0,0-1.385-4.77,42.912,42.912,0,0,0-2.384-5.6,30.544,30.544,0,0,0-6.524-8.879,15.182,15.182,0,0,0-1.48-1.212c-.225-.167-.427-.336-.628-.468l-.567-.339a7.662,7.662,0,0,0-1.073-.6,36.665,36.665,0,0,1,3.573,2.8,32.2,32.2,0,0,1,6.373,8.855,45.635,45.635,0,0,1,2.392,5.544c.643,1.745,1.1,3.358,1.451,4.718s.557,2.483.7,3.258A7.72,7.72,0,0,0,544.278,5033.2Z" transform="translate(-529.566 -5006.818)" fill="#263238"/></g></g><g transform="translate(626.273 4882.214)"><path d="M640.234,4891.623c-1.083-3.838-6.072-3.466-6.072-3.466l.137,2.669c2.883-.5,4.676,2.881,4.676,2.881Z" transform="translate(-634.162 -4888.147)" fill="#ff4f5b"/></g><g transform="translate(580.252 4841.038)"><path d="M588.189,4844.317c-2.693.286-3.015,3.667-3.015,3.667l1.8.212c0-1.986,2.464-2.8,2.464-2.8Z" transform="translate(-585.174 -4844.317)" fill="#ff4f5b"/></g><g transform="translate(608.339 4802.739)"><path d="M615.072,4806.029c1.643,4.185,7.2,3.212,7.2,3.212l-.451-2.979c-3.179.879-5.566-2.713-5.566-2.713Z" transform="translate(-615.072 -4803.549)" fill="#ff4f5b"/></g><g transform="translate(542.687 4875.922)"><path d="M548.2,4881.449c-2.693.286-3.015,3.667-3.015,3.667l1.8.214c0-1.987,2.464-2.8,2.464-2.8Z" transform="translate(-545.187 -4881.449)" fill="#ff4f5b"/></g><g transform="translate(553.337 4814.764)"><path d="M559.982,4820.178c.392-2.679-2.8-3.83-2.8-3.83l-.655,1.692c1.926.491,2.1,3.082,2.1,3.082Z" transform="translate(-556.524 -4816.348)" fill="#ff4f5b"/></g><g transform="translate(510.731 4857.952)"><path d="M511.2,4864.087c-.484,4.2,5.081,5.218,5.081,5.218l1-2.75c-3.34-.3-3.822-4.235-3.822-4.235Z" transform="translate(-511.171 -4862.321)" fill="#ff4f5b"/></g><g transform="translate(641.971 4835.811)"><path d="M651.932,4842.386c2.7.154,3.569-3.129,3.569-3.129l-1.744-.5c-.319,1.96-2.885,2.364-2.885,2.364Z" transform="translate(-650.872 -4838.753)" fill="#ff4f5b"/></g></g></svg>