<svg xmlns="http://www.w3.org/2000/svg" width="114" height="114" viewBox="0 0 114 114">
  <g id="Grupo_953324" data-name="Grupo 953324" transform="translate(-180 -9844.595)">
    <g id="Elipse_7730" data-name="Elipse 7730" transform="translate(180 9844.595)" fill="#fff" stroke="#ff3c00" stroke-width="5">
      <circle cx="57" cy="57" r="57" stroke="none"/>
      <circle cx="57" cy="57" r="54.5" fill="none"/>
    </g>
    <g id="tarjeta-de-identificacion" transform="translate(202.577 9807.143)">
      <g id="Grupo_953144" data-name="Grupo 953144" transform="translate(0 71.5)">
        <g id="Grupo_953143" data-name="Grupo 953143" transform="translate(0 0)">
          <path id="Trazado_636909" data-name="Trazado 636909" d="M60.247,71.5H6.468A6.47,6.47,0,0,0,0,77.968v31.4a6.47,6.47,0,0,0,6.468,6.468H60.262a6.47,6.47,0,0,0,6.468-6.468v-31.4A6.493,6.493,0,0,0,60.247,71.5ZM63.6,109.352h-.016a3.338,3.338,0,0,1-3.336,3.336H6.468a3.338,3.338,0,0,1-3.336-3.336V77.968a3.338,3.338,0,0,1,3.336-3.336H60.262A3.338,3.338,0,0,1,63.6,77.968v31.384Z" transform="translate(0 -71.5)" fill="#992400"/>
        </g>
      </g>
      <g id="Grupo_953146" data-name="Grupo 953146" transform="translate(38.729 96.244)">
        <g id="Grupo_953145" data-name="Grupo 953145">
          <path id="Trazado_636910" data-name="Trazado 636910" d="M267.236,229.5h-18.37a1.566,1.566,0,1,0,0,3.132h18.37a1.566,1.566,0,1,0,0-3.132Z" transform="translate(-247.3 -229.5)" fill="#992400"/>
        </g>
      </g>
      <g id="Grupo_953148" data-name="Grupo 953148" transform="translate(38.729 88.1)">
        <g id="Grupo_953147" data-name="Grupo 953147" transform="translate(0 0)">
          <path id="Trazado_636911" data-name="Trazado 636911" d="M259.077,177.5H248.866a1.566,1.566,0,1,0,0,3.132h10.211a1.566,1.566,0,0,0,0-3.132Z" transform="translate(-247.3 -177.5)" fill="#992400"/>
        </g>
      </g>
      <g id="Grupo_953150" data-name="Grupo 953150" transform="translate(6.421 79.33)">
        <g id="Grupo_953149" data-name="Grupo 953149" transform="translate(0 0)">
          <path id="Trazado_636912" data-name="Trazado 636912" d="M65.916,121.5H45.839A4.849,4.849,0,0,0,41,126.323v19.31a4.849,4.849,0,0,0,4.823,4.839H65.916a4.849,4.849,0,0,0,4.839-4.823v-19.31A4.832,4.832,0,0,0,65.916,121.5ZM49.284,147.184a5.63,5.63,0,0,1,5.56-4.855h2.427a5.63,5.63,0,0,1,5.56,4.855Zm18.339-20.907v19.263a1.611,1.611,0,0,1-1.582,1.644h-.078a8.757,8.757,0,0,0-8.692-7.987H54.844a8.745,8.745,0,0,0-8.692,7.987H45.9a1.714,1.714,0,0,1-1.77-1.644V126.277a1.714,1.714,0,0,1,1.77-1.644H65.979a1.608,1.608,0,0,1,1.644,1.566Z" transform="translate(-41 -121.5)" fill="#992400"/>
        </g>
      </g>
      <g id="Grupo_953152" data-name="Grupo 953152" transform="translate(15.629 84.138)">
        <g id="Grupo_953151" data-name="Grupo 953151" transform="translate(0 0)">
          <path id="Trazado_636913" data-name="Trazado 636913" d="M109.823,153.923a5.869,5.869,0,1,0,1.723,4.15A5.894,5.894,0,0,0,109.823,153.923Zm-2.224,6.092a2.722,2.722,0,1,1,.814-1.926A2.727,2.727,0,0,1,107.6,160.015Z" transform="translate(-99.8 -152.2)" fill="#992400"/>
        </g>
      </g>
    </g>
  </g>
</svg>
