<svg xmlns="http://www.w3.org/2000/svg" width="114" height="114" viewBox="0 0 114 114">
  <g id="Grupo_953325" data-name="Grupo 953325" transform="translate(-180 -9978.595)">
    <g id="Elipse_7730" data-name="Elipse 7730" transform="translate(180 9978.595)" fill="#fff" stroke="#ff3c00" stroke-width="5">
      <circle cx="57" cy="57" r="57" stroke="none"/>
      <circle cx="57" cy="57" r="54.5" fill="none"/>
    </g>
    <path id="ropa-protectora" d="M61.978,33.385,54.151,11.893A4.681,4.681,0,0,0,51.048,9l-4.73-1.351L44.4,4.911a.836.836,0,0,0-.676-.357h-7.6a.836.836,0,0,0-.676.357L33.526,7.649,28.8,9a4.681,4.681,0,0,0-3.1,2.891L17.866,33.383a.838.838,0,0,0,.511,1.077l5.1,1.782a.838.838,0,0,0,1.05-.47L29.37,24.108l.46,6.7L27.28,60.552a.838.838,0,0,0,.835.909h7.763a.838.838,0,0,0,.827-.7L39.922,40.8l3.217,19.96a.838.838,0,0,0,.827.7h7.763a.838.838,0,0,0,.835-.909L50.015,30.806l.46-6.7,4.842,11.664a.839.839,0,0,0,1.05.47l5.1-1.782a.838.838,0,0,0,.511-1.077Zm-9.4-20.917L58.816,29.6l-3.711,1.3L50.654,20.18a.838.838,0,0,0-.773-.516H40.76V13.287l.972,1.45a.838.838,0,0,0,.7.371h.032a.839.839,0,0,0,.7-.421L46.2,9.363l4.384,1.253a3,3,0,0,1,1.989,1.85ZM30.859,21.335h8.226v3H31.067Zm9.9,0h8.226l-.206,3H40.76ZM39.922,9.123,37.79,6.232h4.265Zm4.889-.7L42.37,12.684l-1.425-2.126,2.75-3.728ZM36.148,6.83l2.75,3.728-1.425,2.126L35.031,8.422Zm-8.88,5.636a3,3,0,0,1,1.989-1.853l4.384-1.25,3.049,5.326a.839.839,0,0,0,.7.421h.03a.838.838,0,0,0,.7-.371l.972-1.451v6.372H29.961a.838.838,0,0,0-.773.516L24.739,30.9l-3.711-1.3ZM23.283,34.4,19.731,33.16l.724-1.987L24.1,32.445ZM35.165,59.785H29.027l2.477-28.9a.9.9,0,0,0,0-.129l-.326-4.746h7.906v9.459Zm15.652,0H44.679L40.76,35.466V26.007h7.9l-.326,4.746a.9.9,0,0,0,0,.129ZM56.56,34.4l-.814-1.956,3.641-1.272.724,1.987Z" transform="translate(197.078 10002.725)" fill="#992400"/>
  </g>
</svg>
