<svg xmlns="http://www.w3.org/2000/svg" width="114" height="114" viewBox="0 0 114 114">
  <g id="Grupo_953327" data-name="Grupo 953327" transform="translate(-180 -10246.595)">
    <g id="Elipse_7730" data-name="Elipse 7730" transform="translate(180 10246.595)" fill="#fff" stroke="#ff3c00" stroke-width="5">
      <circle cx="57" cy="57" r="57" stroke="none"/>
      <circle cx="57" cy="57" r="54.5" fill="none"/>
    </g>
    <g id="votacion_1_" data-name="votacion(1)" transform="translate(213.658 10278.934)">
      <path id="Trazado_636922" data-name="Trazado 636922" d="M112.592,0H81.158a.8.8,0,0,0,0,1.6h31.433a2.436,2.436,0,0,1,2.434,2.434V42.168a.8.8,0,1,0,1.6,0V4.032A4.037,4.037,0,0,0,112.592,0Zm0,0" transform="translate(-71.679 0)" fill="#992400"/>
      <path id="Trazado_636923" data-name="Trazado 636923" d="M44.146,44.725a.8.8,0,0,0-.8.8v2.889a2.436,2.436,0,0,1-2.434,2.434H4.532A2.437,2.437,0,0,1,2.1,48.413V4.032A2.436,2.436,0,0,1,4.532,1.6h1.51a.8.8,0,1,0,0-1.6H4.532A4.037,4.037,0,0,0,.5,4.032V48.413a4.037,4.037,0,0,0,4.032,4.032H40.913a4.037,4.037,0,0,0,4.032-4.032V45.525a.8.8,0,0,0-.8-.8Zm0,0" fill="#992400"/>
      <path id="Trazado_636924" data-name="Trazado 636924" d="M55.953,50.363A6.067,6.067,0,1,0,62.02,56.43,6.074,6.074,0,0,0,55.953,50.363Zm0,10.535a4.468,4.468,0,1,1,4.468-4.468A4.473,4.473,0,0,1,55.953,60.9Zm0,0" transform="translate(-44.327 -45.205)" fill="#992400"/>
      <path id="Trazado_636925" data-name="Trazado 636925" d="M197.725,66.517H215.15a.8.8,0,0,0,0-1.6H197.725a.8.8,0,0,0,0,1.6Zm0,0" transform="translate(-176.305 -58.268)" fill="#992400"/>
      <path id="Trazado_636926" data-name="Trazado 636926" d="M197.725,103.385h12.613a.8.8,0,1,0,0-1.6H197.725a.8.8,0,0,0,0,1.6Zm0,0" transform="translate(-176.306 -91.36)" fill="#992400"/>
      <path id="Trazado_636927" data-name="Trazado 636927" d="M197.725,140.256h15.21a.8.8,0,0,0,0-1.6h-15.21a.8.8,0,0,0,0,1.6Zm0,0" transform="translate(-176.306 -124.454)" fill="#992400"/>
      <path id="Trazado_636928" data-name="Trazado 636928" d="M197.725,213.045H215.15a.8.8,0,0,0,0-1.6H197.725a.8.8,0,0,0,0,1.6Zm0,0" transform="translate(-176.305 -189.787)" fill="#992400"/>
      <path id="Trazado_636929" data-name="Trazado 636929" d="M197.725,249.912h12.613a.8.8,0,1,0,0-1.6H197.725a.8.8,0,0,0,0,1.6Zm0,0" transform="translate(-176.306 -222.877)" fill="#992400"/>
      <path id="Trazado_636930" data-name="Trazado 636930" d="M197.725,286.783h15.21a.8.8,0,0,0,0-1.6h-15.21a.8.8,0,0,0,0,1.6Zm0,0" transform="translate(-176.306 -255.972)" fill="#992400"/>
      <path id="Trazado_636931" data-name="Trazado 636931" d="M55.953,343.418a6.067,6.067,0,1,0,6.067,6.067A6.074,6.074,0,0,0,55.953,343.418Zm0,10.535a4.468,4.468,0,1,1,4.468-4.468A4.473,4.473,0,0,1,55.953,353.953Zm0,0" transform="translate(-44.327 -308.241)" fill="#992400"/>
      <path id="Trazado_636932" data-name="Trazado 636932" d="M197.725,359.572H215.15a.8.8,0,1,0,0-1.6H197.725a.8.8,0,0,0,0,1.6Zm0,0" transform="translate(-176.305 -321.305)" fill="#992400"/>
      <path id="Trazado_636933" data-name="Trazado 636933" d="M197.725,396.442h12.613a.8.8,0,1,0,0-1.6H197.725a.8.8,0,0,0,0,1.6Zm0,0" transform="translate(-176.306 -354.399)" fill="#992400"/>
      <path id="Trazado_636934" data-name="Trazado 636934" d="M197.725,433.31h15.21a.8.8,0,0,0,0-1.6h-15.21a.8.8,0,0,0,0,1.6Zm0,0" transform="translate(-176.306 -387.489)" fill="#992400"/>
      <path id="Trazado_636935" data-name="Trazado 636935" d="M54.852,199.07a.8.8,0,1,0-1.131,1.13l1.972,1.972a.8.8,0,0,0,1.131,0l4.125-4.125.012-.012L63.7,195.3a.8.8,0,0,0-1.131-1.13l-2.091,2.091A6.068,6.068,0,1,0,62.02,200.3a.8.8,0,1,0-1.6,0,4.47,4.47,0,1,1-1.079-2.911l-3.084,3.084Zm0,0" transform="translate(-44.328 -174.069)" fill="#992400"/>
    </g>
  </g>
</svg>
