<svg xmlns="http://www.w3.org/2000/svg" xmlns:xlink="http://www.w3.org/1999/xlink" width="400" height="308" viewBox="0 0 400 308"><defs><clipPath id="a"><rect width="400" height="308" transform="translate(1020 4490)" fill="#fff" stroke="#707070" stroke-width="1"/></clipPath></defs><g transform="translate(-1020 -4490)" clip-path="url(#a)"><g transform="translate(395.034 2358.29)"><g transform="translate(664.219 2193.438)"><path d="M668.252,2230.063l7.332,7.213h41.161v-14.433H675.585Z" transform="translate(-668.252 -2216.623)" fill="#ffeed9"/><path d="M668.339,2257.044l7.685,6.839,41.109-2.044-.723-14.415-41.109,2.045Z" transform="translate(-668.274 -2222.888)" fill="#ffeed9"/><path d="M784.4,2243.586l-7.888,6.606-41.029-3.278,1.16-14.386,41.029,3.278Z" transform="translate(-685.389 -2219.091)" fill="#ffeed9"/><g transform="translate(43.861 0)"><path d="M727.117,2400.262h11.118L735.646,2214.5h-5.94Z" transform="translate(-727.117 -2214.495)" fill="#ffd7a6"/></g></g><path d="M1060.433,2370.908a26.558,26.558,0,0,1-1.3,10.144,28.144,28.144,0,0,1-1.907,4.381c-.954,1.8-1.941,3.555-1.894,5.609.186.147-.487.073-.493-.127-5.209-3.521-12.151-4.629-15.953-10.024a17.418,17.418,0,0,1-2.808-8.757,25.888,25.888,0,0,1,.986-10.237,10.466,10.466,0,0,1,5.456-6.4,12.394,12.394,0,0,1,9.043.293C1057.505,2358.151,1060.026,2364.953,1060.433,2370.908Z" transform="translate(-97.76 -56.812)" fill="#ffeed9"/><g transform="translate(941.391 2303.839)"><path d="M1061.566,2413.465c-.553-2.535-1.1-5.071-1.677-7.6-1.121-4.957-2.3-9.9-3.656-14.8q-1.216-4.4-2.607-8.735a51.7,51.7,0,0,1,1.057-5.216c.618-2.077,1.437-4.066,2.213-6.085.048-.124-.153-.207-.214-.09-1.443,2.753-3.32,6.274-3.62,9.643q-1.629-4.906-3.559-9.7a40.2,40.2,0,0,1,.842-7.787.094.094,0,0,0-.181-.05,27.712,27.712,0,0,0-1.065,6.849c-.992-2.4-2.05-4.782-3.189-7.132-.1-.212-.4-.026-.311.181,1.744,4.1,3.332,8.271,4.8,12.487a26.277,26.277,0,0,0-8.16-5.605c-.132-.059-.25.13-.116.2a31.17,31.17,0,0,1,8.767,6.829q1.576,4.627,2.966,9.313a28.5,28.5,0,0,0-12.067-7.69c-.151-.051-.21.181-.065.236,5.1,1.976,8.929,5.249,12.626,9.111q.55,1.893,1.074,3.791,1.984,7.2,3.72,14.461.838,3.48,1.639,6.968c.574,2.5.97,5.127,1.78,7.563.078.232.486.213.455-.062A71.079,71.079,0,0,0,1061.566,2413.465Z" transform="translate(-1040.598 -2362.664)" fill="#ffd7a6"/><path d="M1060.121,2369.365a13.6,13.6,0,0,0-2.34,4.739c-.012.044.056.076.077.032a42.231,42.231,0,0,1,2.5-4.634C1060.45,2369.349,1060.224,2369.231,1060.121,2369.365Z" transform="translate(-1044.712 -2364.357)" fill="#ffd7a6"/><path d="M1045.057,2382.92a14.41,14.41,0,0,0-4.762-2.023c-.044-.009-.077.054-.032.076.761.387,1.568.679,2.34,1.045s1.526.8,2.311,1.145A.141.141,0,0,0,1045.057,2382.92Z" transform="translate(-1040.241 -2367.311)" fill="#ffd7a6"/><path d="M1043.888,2364.627a9.606,9.606,0,0,0-1.5-1.092.083.083,0,0,0-.1.13,9.542,9.542,0,0,0,1.472,1.125C1043.856,2364.858,1043.981,2364.7,1043.888,2364.627Z" transform="translate(-1040.757 -2362.883)" fill="#ffd7a6"/></g><g transform="translate(962.905 2292.797)"><path d="M1086.815,2377.89c-3.855,1.409-7.736,2.731-11.592,4.127-.335.124-7.763-12.188-5.769-18.892a21.437,21.437,0,0,1,12.566-13.495c2.746-1.126,6.144-2.14,9.147-1.67a7.667,7.667,0,0,1,5.674,4.885c1.375,3.295,1.235,7.336.814,10.813a18.945,18.945,0,0,1-3.318,9.071A15.318,15.318,0,0,1,1086.815,2377.89Z" transform="translate(-1069.114 -2347.843)" fill="#ffeed9"/><g transform="translate(2.014 3.906)"><path d="M1092.45,2368.1a52.567,52.567,0,0,1-7.514,3.509,32.427,32.427,0,0,0-5.026,2.179c1.43-3.8,3.026-7.534,4.736-11.242a17.672,17.672,0,0,0,6.891-4.116.109.109,0,0,0-.153-.156,35.846,35.846,0,0,1-6.508,3.783c.463-1,.93-2,1.408-2.99.133-.277-.252-.52-.416-.249a83.163,83.163,0,0,0-5,9.719,42.948,42.948,0,0,1-.936-8.563.057.057,0,0,0-.115,0,28.675,28.675,0,0,0,.681,9.431c-1.207,2.834-2.287,5.729-3.238,8.651-.554-1.686-1.241-3.336-1.736-5.04a23.615,23.615,0,0,1-1.033-7.526c0-.075-.107-.074-.115,0a26.715,26.715,0,0,0,2.507,13.778c-.55,1.757-1.07,3.519-1.536,5.281a103.166,103.166,0,0,0-3.526,27.574.167.167,0,0,0,.334,0,135.441,135.441,0,0,1,4.185-27.294c.927-3.495,2.033-6.9,3.269-10.253,2.277-.829,4.531-1.9,6.76-2.833a21.713,21.713,0,0,0,6.175-3.516A.081.081,0,0,0,1092.45,2368.1Z" transform="translate(-1071.817 -2354.4)" fill="#ffd7a6"/><path d="M1101.738,2366.2c-2.349,1-4.552,2.34-6.9,3.355-.109.048-.034.221.078.191a16.177,16.177,0,0,0,6.92-3.415C1101.912,2366.263,1101.819,2366.165,1101.738,2366.2Z" transform="translate(-1077.672 -2356.427)" fill="#ffd7a6"/><path d="M1077.114,2360.832c.021-.129-.17-.191-.2-.057a12.278,12.278,0,0,0-.05,6.856c.031.087.171.081.169-.021A38.582,38.582,0,0,1,1077.114,2360.832Z" transform="translate(-1072.983 -2355.027)" fill="#ffd7a6"/><path d="M1089.967,2353.161a5.873,5.873,0,0,0-.809,3.83c.008.084.147.125.163.024.214-1.284.632-2.47.945-3.724A.165.165,0,0,0,1089.967,2353.161Z" transform="translate(-1076.227 -2353.086)" fill="#ffd7a6"/></g></g><path d="M1099.769,2395.317c-.491,3.808-2.3,9.273-6.564,10.077-2.766.522-5.614.693-8.4,1.15-2.983.487-5.962,1.027-8.9,1.735-.241.056-1.237-8.969,5.133-14.591,1.785-1.575,4.164-2.4,6.348-3.3a31.645,31.645,0,0,1,7.8-2.249c1.653-.228,3.081-.124,3.966,1.452C1100.076,2391.244,1100.006,2393.506,1099.769,2395.317Z" transform="translate(-107.89 -65.295)" fill="#ffeed9"/><g transform="translate(963.606 2324.617)"><path d="M1094.445,2391.993c-1.656.757-3.317,1.584-4.961,2.449a18.645,18.645,0,0,1,1.188-1.663c.638-.756,1.373-1.4,2.077-2.09.06-.058,0-.179-.084-.13a9.956,9.956,0,0,0-3.615,4.106c-2.047,1.091-4.059,2.25-5.979,3.471a24.431,24.431,0,0,0-3.708,2.889,16.773,16.773,0,0,1,1.02-2.843,14.637,14.637,0,0,1,2.974-3.409.112.112,0,0,0-.145-.171,10.327,10.327,0,0,0-4.492,7.042,24.159,24.159,0,0,0-3.4,4.406c-3.767,6.217-6.213,14.031-4.921,21.325.031.174.319.174.32-.013a41.062,41.062,0,0,1,5.552-20.985c.267-.455.548-.893.837-1.321a33.244,33.244,0,0,1,3.854-.989c1.526-.25,3.072-.319,4.609-.467,2.531-.244,5.3-.708,7.322-2.366.089-.073-.008-.234-.113-.174-4.69,2.723-10.367,1.35-15.2,3.338a23.854,23.854,0,0,1,6.561-6.11c.142-.092.286-.178.428-.268,3.29-.189,6.839.041,9.788-1.566a.078.078,0,0,0-.068-.141c-2.895,1.3-5.971.867-8.988,1.25,3.029-1.85,6.167-3.452,9.209-5.3C1094.767,2392.116,1094.729,2391.863,1094.445,2391.993Z" transform="translate(-1070.056 -2390.549)" fill="#ffd7a6"/><path d="M1103.866,2396.4a43.607,43.607,0,0,1-4.623,1.193c-.035.009-.036.066,0,.067a9.866,9.866,0,0,0,4.675-1.147A.063.063,0,0,0,1103.866,2396.4Z" transform="translate(-1077.488 -2392.039)" fill="#ffd7a6"/><path d="M1089.807,2394.789a7.81,7.81,0,0,0-2.031,2.027c-.068.087.067.214.146.133.341-.357.7-.7,1.059-1.037a11.56,11.56,0,0,0,1-.916C1090.073,2394.888,1089.927,2394.722,1089.807,2394.789Z" transform="translate(-1074.567 -2391.625)" fill="#ffd7a6"/></g><path d="M1050.209,2408.535c.054.12-.12.233-.186.107-.007,0-.007,0-.007-.007a.173.173,0,0,1-.114.074,73.014,73.014,0,0,1-8.87,1.547c-2.4.214-5.168.347-7.269-1.047-2.848-1.887-4.722-6.936-3.181-10.144,1.82-3.808,7.309-1.74,10.063-.387A20.2,20.2,0,0,1,1050.209,2408.535Z" transform="translate(-96.247 -67.548)" fill="#ffeed9"/><g transform="translate(935.588 2331.568)"><path d="M1053.465,2411.058a28.35,28.35,0,0,0-5.3-4.032,18.135,18.135,0,0,0-5.371-5.473c-.1-.072-.193.093-.1.166a24.276,24.276,0,0,1,4.526,4.761,49.925,49.925,0,0,0-6.645-3.023,8.853,8.853,0,0,0-3.569-3.576c-.03-.015-.068.026-.038.049a14.676,14.676,0,0,1,3.224,3.383c-1.35-.5-2.714-.972-4.077-1.425-.123-.041-.169.146-.053.191,2.426.948,4.906,1.948,7.31,3.1a28.132,28.132,0,0,1-8.853-.026.065.065,0,0,0-.034.126,17.446,17.446,0,0,0,9.393.14,43.986,43.986,0,0,1,4.455,2.5,11.16,11.16,0,0,0-3.6.294,27.378,27.378,0,0,1-6.328.717c-.08,0-.1.129-.019.143,3.671.632,7.142-1.036,10.78-.6a28.115,28.115,0,0,1,3.789,3.1,28.472,28.472,0,0,1,5.527,7.8c1.531,3.117,2.362,6.422,3.6,9.642a.118.118,0,0,0,.226-.063C1061.253,2422.589,1058.092,2415.585,1053.465,2411.058Z" transform="translate(-1032.961 -2399.878)" fill="#ffd7a6"/><path d="M1044.4,2402.526a4.177,4.177,0,0,0-.94-1.141,3.711,3.711,0,0,0-1.083-.812c-.037-.013-.057.036-.036.061.3.342.72.592,1.045.919s.6.716.929,1.039A.055.055,0,0,0,1044.4,2402.526Z" transform="translate(-1034.972 -2400.055)" fill="#ffd7a6"/><path d="M1035.831,2405.591c-.544-.136-1.12-.127-1.673-.239a16.014,16.014,0,0,1-1.623-.487.065.065,0,0,0-.05.119,5.387,5.387,0,0,0,3.346.778A.09.09,0,0,0,1035.831,2405.591Z" transform="translate(-1032.453 -2401.148)" fill="#ffd7a6"/></g><path d="M1075.227,2423.908l-.6,6.8-2.032,22.956h-17.978l-2.538-22.956-.75-6.8Z" transform="translate(-101.677 -74.435)" fill="#ffd7a6"/><path d="M1075.227,2423.908l-.6,6.8h-22.548l-.75-6.8Z" transform="translate(-101.677 -74.435)" fill="#e5b47f"/><rect width="27.456" height="5.516" transform="translate(947.874 2347.619)" fill="#ffd7a6"/><g transform="translate(707.142 2131.882)"><path d="M1053.7,2183.784H969.371s8.362-22.838,21.23-22.838,16.9,15.764,16.9,15.764,8.683-8.565,15.815-8.565,13.333,11.318,13.333,11.318S1046.727,2173.377,1053.7,2183.784Z" transform="translate(-787.928 -2139.29)" fill="#ffeed9"/><path d="M870.478,2144.64h-39.41s8.806-12.758,15.744-12.758,8.988,8.506,8.988,8.506,4.9-3.969,9.432-3.261S870.478,2144.64,870.478,2144.64Z" transform="translate(-752.676 -2131.882)" fill="#ffeed9"/><path d="M802.624,2160.409H725.859s10.512-23.469,21.758-24.937,16.624,17.439,16.624,17.439,7.253-6.682,12.958-6.682,10.1,8.8,10.1,8.8S798.712,2149,802.624,2160.409Z" transform="translate(-725.859 -2132.777)" fill="#ffeed9"/></g><line x2="335.066" transform="translate(654.165 2379.204)" fill="none" stroke="#263238" stroke-linecap="round" stroke-linejoin="round" stroke-width="1"/><g transform="translate(652.428 2420.33)"><ellipse cx="64.722" cy="9.605" rx="64.722" ry="9.605" transform="translate(0 0)" fill="#ffeed9"/><ellipse cx="64.722" cy="9.605" rx="64.722" ry="9.605" transform="translate(215.631 0)" fill="#ffeed9"/></g><ellipse cx="85.444" cy="6.289" rx="85.444" ry="6.289" transform="translate(741.753 2408.028)" fill="#ffeed9"/><g transform="translate(730.638 2190.828)"><path d="M952.968,2217.34l48.575-6.348v196.4l-48.575,6.348Z" transform="translate(-807.243 -2210.992)" fill="#2b454e"/><path d="M822.584,2217.34l48.575-6.348v196.4l-48.575,6.348Z" transform="translate(-774.009 -2210.992)" fill="#263238"/><path d="M936.351,2217.34l-48.575-6.348v196.4l48.575,6.348Z" transform="translate(-790.626 -2210.992)" fill="#263238"/><path d="M805.968,2217.34l-48.575-6.348v196.4l48.575,6.348Z" transform="translate(-757.393 -2210.992)" fill="#2b454e"/><g transform="translate(4.636 4.837)"><path d="M952.968,2223.178l43.94-5.694v187.03l-43.94,5.694Z" transform="translate(-811.879 -2217.484)" fill="#dcdcdc"/><path d="M822.585,2223.529l48.575-6.045v187.03l-48.575,6.046Z" transform="translate(-778.645 -2217.484)" fill="#dcdcdc"/><path d="M936.351,2223.414l-48.575-5.694v187.03l48.575,5.694Z" transform="translate(-795.262 -2217.544)" fill="#ececec"/><path d="M807.554,2223.529l-43.94-6.045v187.03l43.94,6.046Z" transform="translate(-763.614 -2217.484)" fill="#ececec"/><g transform="translate(0.001)"><path d="M802.423,2224.511,798.5,2237.93l-.925,3.166-9.688,33.078-.569,1.313-2.834-1.073-20.865-7.873v-3.52l21.991,8.306,13.815-47.23Z" transform="translate(-763.615 -2219.17)" fill="#fff"/><path d="M858.974,2218.873l-1.785,1.08-3.1,1.866-19.383,11.7-2.632,1.593-13.21,7.973-.172-.054-9.979-3.266-1.376-.447.83-3.2,1.47.48,8.888,2.906.166-.1,32.373-19.545.006-.007h.006l3.255-.4,1.708-.213h.012Z" transform="translate(-774.761 -2217.838)" fill="#fff"/><path d="M914.758,2223.78l-2.526,10.54-.854,3.56-13.986,58.156-.771,3.227-.012.04-10.377-4.033-3.593-1.486-7.21-2.973-.9-.373-1.458-2.307-32.794-51.856-.759-1.2,2.419-1.933.972,1.54,14.485,22.905,1.951,3.086,17.07,26.992,18.168,7.252,9.379-38.944.836-3.48,6.973-29.064Z" transform="translate(-782.963 -2218.999)" fill="#fff"/><path d="M913.755,2252.67l-1.8,2.646-.439-.38-28.49-24.525-.824-.707-1.779-1.12-2.591-1.627-7.987-5.013-.712-.447.955-1.92,1.708-.213h.012l1.132.713,10.086,6.346.889.56,28.436,24.472Z" transform="translate(-790.51 -2217.963)" fill="#fff"/><path d="M991.905,2270.076v3.606l-7.72-3.62-2.769-1.3L947.182,2252.7l-11.888-11.386-1.945-1.86,1.921-2.54.878.84,12.605,12.072Z" transform="translate(-806.879 -2222.438)" fill="#fff"/><path d="M972.681,2372.625l-2.873-.82,21.216-94.018,2.873.819Z" transform="translate(-816.172 -2232.854)" fill="#fff"/><path d="M980.488,2388.493v3.486l-36.18,12.679-2.876,1.007h-.006l-4.156,1.46-44.593,41.7-4.121-.486,15.38-14.379,3.1-2.9,13.56-12.679,2.443-2.28,12.8-11.966,13.4-4.693,3.32-1.167Z" transform="translate(-795.462 -2261.072)" fill="#fff"/><path d="M942.889,2334.558l-28.772-11.149.95-3.157,28.174,10.922,25.607-2.695.277,3.319Z" transform="translate(-801.977 -2243.678)" fill="#fff"/><path d="M864.707,2262.645l-2.663-1.465,14.594-33.526,2.663,1.465Z" transform="translate(-788.704 -2220.076)" fill="#fff"/><path d="M875.832,2438.967l-.391,3.3-3.35-.5-16.554-2.487L807.4,2422.488l-43.787,4.86v-3.353l29.628-3.287,3.9-.427,10.566-1.173.291.1,27.494,9.593,3.107,1.08,17.58,6.133,19.009,2.853Z" transform="translate(-763.615 -2268.876)" fill="#fff"/><path d="M774.152,2322.408l-10.536,24.251v-7.606l20.865-48.01.741-1.707,2.662,1.467-.569,1.313-11.74,27.025Z" transform="translate(-763.615 -2235.798)" fill="#fff"/><path d="M797.632,2408.952l-2.04,2.42-2.348-2.513-29.628-31.638v-4.6l23.047,24.619,2.366,2.52,8.111,8.673Z" transform="translate(-763.615 -2257.027)" fill="#fff"/><path d="M811.013,2329.245l-34.562-1.789.136-3.33,34.052,1.763,48.33-16.534.863,3.188Z" transform="translate(-766.887 -2240.901)" fill="#fff"/><path d="M811.78,2341.723" transform="translate(-775.892 -2249.151)" fill="none" stroke="#fff" stroke-miterlimit="10" stroke-width="5"/><path d="M796.349,2390.554l-2.806-1.077,17.289-56.957,2.806,1.077Z" transform="translate(-771.243 -2246.805)" fill="#fff"/><path d="M952.968,2411.491" transform="translate(-811.88 -2266.935)" fill="none" stroke="#fff" stroke-miterlimit="10" stroke-width="5"/><path d="M1004.552,2354.2v3.36l-20.3-2.533-1.287-.16.326-3.313,1.7.213Z" transform="translate(-819.525 -2251.656)" fill="#fff"/><path d="M923.1,2400.837l-26.026-84.361,2.8-1.093,26.026,84.362Z" transform="translate(-797.633 -2242.437)" fill="#fff"/><path d="M861.44,2421.666l-2.212-2.219,20.335-25.64,23.525-14.522,1.427,2.922-23.078,14.246Z" transform="translate(-787.986 -2258.725)" fill="#fff"/><g transform="translate(0 4.428)"><path d="M914.758,2223.78l-2.526,10.54-.854,3.56-13.986,58.156-.771,3.227-.012.04-10.377-4.033-3.593-1.486-7.21-2.973-.9-.373-1.458-2.307-32.794-51.856-.759-1.2,2.419-1.933.972,1.54,14.485,22.905,1.951,3.086,17.07,26.992,18.168,7.252,9.379-38.944.836-3.48,6.973-29.064Z" transform="translate(-782.963 -2223.427)" fill="#fff"/><path d="M942.889,2334.558l-28.772-11.149.95-3.157,28.174,10.922,25.607-2.695.277,3.319Z" transform="translate(-801.977 -2248.107)" fill="#fff"/><path d="M875.831,2438.967l-.389,3.3-3.355-.5-16.552-2.482-19.048-6.649h-.013l-19.411-6.777-9.662-3.368-43.786,4.858v-3.355l29.629-3.281,3.9-.429,10.561-1.174.3.1,9.064,3.167,18.424,6.427,3.107,1.08h.007l.047.02,17.532,6.112,19.008,2.852Z" transform="translate(-763.615 -2273.304)" fill="#fff"/><path d="M925.9,2399.747l-2.8,1.087-10.48-33.963v-.007l-.986-3.187-14.331-46.45v-.007l-.228-.745.349-.134,2.456-.959,1.027,3.328,14.352,46.53Z" transform="translate(-797.633 -2246.866)" fill="#fff"/><path d="M904.516,2382.2v.007l-1.543.953-21.537,13.291-18.464,23.282-1.53,1.932-2.214-2.214.631-.8,19.706-24.845,22.423-13.842,1.1-.677Z" transform="translate(-787.986 -2263.155)" fill="#fff"/></g><path d="M983.023,2455.021l-3.154.406-20.545-44.837h-.006l-.569-1.246,2.638-1.527.812,1.767Z" transform="translate(-813.353 -2265.998)" fill="#fff"/><path d="M837.526,2306.715l25.247-8.635-16.5-26.089-13.871,4.662Z" transform="translate(-781.148 -2231.377)" fill="#ececec"/><path d="M962.425,2311.345l14.418-1.517,6.584-28.692-15.537-7.288Z" transform="translate(-814.29 -2231.85)" fill="#ececec"/><path d="M1000.839,2256.807l-32.442-14.45v-20.668l32.444-4.2Z" transform="translate(-815.812 -2217.484)" fill="#ececec"/><path d="M827.7,2253.42l8.076-4.874,7.231,11.47-12.888,4.407Z" transform="translate(-779.95 -2225.401)" fill="#ececec"/><path d="M898.476,2403.016l13.164-8.125,7.05,22.859-9.427,8.815-10.786-1.619Z" transform="translate(-797.99 -2262.703)" fill="#dcdcdc"/><path d="M897.359,2224.934v-6.125l26.151,3.088-5.079,21.171Z" transform="translate(-797.705 -2217.821)" fill="#dcdcdc"/><path d="M770.208,2361.262,787,2379.2l10.85-35.9-19.464-1Z" transform="translate(-765.295 -2249.296)" fill="#dcdcdc"/><path d="M769.822,2261.026v-29.2l23.723,3.407-9.153,31.292Z" transform="translate(-765.197 -2221.14)" fill="#dcdcdc"/><path d="M769.822,2224.813l23.723,3.407,1.888-6.36-25.611-3.523Z" transform="translate(-765.197 -2217.701)" fill="#dcdcdc"/><path d="M829.231,2460.611v-27.36l17.4,6.1v19.092Z" transform="translate(-780.34 -2272.481)" fill="#ececec"/><path d="M768.584,2435.6l13.526-1.5v23.983l-13.527-1.861Z" transform="translate(-764.881 -2272.696)" fill="#dcdcdc"/><path d="M991.842,2448.613l-15.089-32.924,26.216-9.187v40.667Z" transform="translate(-817.942 -2265.663)" fill="#ececec"/><path d="M941.3,2316.554v-16.615l-15.048-5.267-3.552,14.81Z" transform="translate(-804.165 -2237.158)" fill="#dcdcdc"/></g></g></g><path d="M813.79,2241.244c-.564-5.662-4.465-11.3-11.324-11.3s-10.752,5.636-11.315,11.3c-.867,8.74,5.029,16.656,11.315,23.879C808.761,2257.9,814.657,2249.984,813.79,2241.244Zm-11.324,6.287a6.2,6.2,0,1,1,6.208-6.2A6.2,6.2,0,0,1,802.466,2247.531Z" transform="translate(-35.337 -24.996)" fill="#ff3c00"/><path d="M969.3,2284.5c-.563-5.662-4.465-11.3-11.323-11.3s-10.752,5.636-11.316,11.3c-.867,8.74,5.03,16.656,11.316,23.879C964.276,2301.151,970.172,2293.235,969.3,2284.5Zm-11.323,6.287a6.2,6.2,0,1,1,6.208-6.2A6.2,6.2,0,0,1,957.981,2290.782Z" transform="translate(-74.977 -36.02)" fill="#ff3c00"/><g transform="translate(946.686 2209.157)"><g transform="translate(0 0)"><path d="M1049.641,2252.468a9.046,9.046,0,0,1-1.547-5c0-6.33,6.952-11.464,15.523-11.464s15.516,5.134,15.516,11.464-6.946,11.464-15.516,11.464a18.641,18.641,0,0,1-10.707-3.172l-5.347,1.36Z" transform="translate(-1047.403 -2235.698)" fill="#fff"/><path d="M1047.59,2257.053l-.1-.124,5.327-1.438.073-.02.068.046a18.219,18.219,0,0,0,9.355,3,20.671,20.671,0,0,0,4.94-.351,17.769,17.769,0,0,0,4.69-1.526,14.359,14.359,0,0,0,3.978-2.848,10,10,0,0,0,2.47-4.131,8.187,8.187,0,0,0-.066-4.753,10.073,10.073,0,0,0-2.53-4.088,16.207,16.207,0,0,0-8.708-4.284,20.693,20.693,0,0,0-9.8.625,14.044,14.044,0,0,0-7.831,5.745,8.871,8.871,0,0,0-1.315,4.722,9.2,9.2,0,0,0,1.454,4.729Zm.366-9.414a9.121,9.121,0,0,1,1.212-4.892,12.233,12.233,0,0,1,3.422-3.751,16.345,16.345,0,0,1,4.524-2.327,21.037,21.037,0,0,1,4.99-1.021,21.4,21.4,0,0,1,5.092.249,16.874,16.874,0,0,1,9.1,4.425,10.788,10.788,0,0,1,2.735,4.372,8.857,8.857,0,0,1,.046,5.171,10.7,10.7,0,0,1-2.667,4.411,15.031,15.031,0,0,1-4.183,2.96,19.968,19.968,0,0,1-9.95,1.82,18.479,18.479,0,0,1-9.52-3.258l.141.026-5.367,1.281-.182.043.078-.168,2.16-4.617A9.054,9.054,0,0,1,1047.956,2247.639Z" transform="translate(-1047.348 -2235.593)" fill="#263238"/></g><g transform="translate(7.41 10.162)"><path d="M1076.6,2250.841a1.609,1.609,0,1,0,1.609-1.61A1.61,1.61,0,0,0,1076.6,2250.841Z" transform="translate(-1062.214 -2249.231)" fill="#263238"/><path d="M1066.946,2250.841a1.609,1.609,0,1,0,1.609-1.61A1.609,1.609,0,0,0,1066.946,2250.841Z" transform="translate(-1059.753 -2249.231)" fill="#263238"/><path d="M1057.293,2250.841a1.609,1.609,0,1,0,1.609-1.61A1.609,1.609,0,0,0,1057.293,2250.841Z" transform="translate(-1057.293 -2249.231)" fill="#263238"/></g></g><g transform="translate(680.725 2222.928)"><path d="M721.727,2375.435l7.189,14.452-8.832-.1,1.643-14.351" transform="translate(-697.97 -2285.008)" fill="#ebebeb"/><g transform="translate(17.311)"><g transform="translate(10.947 9.383)"><path d="M733.689,2304.529h0a6.36,6.36,0,0,0,6.842-6.1c.133-3.463.25-6.963.25-6.963s5.247-.492,5.628-5.685.206-17.18.206-17.18h0a18.093,18.093,0,0,0-18.286,1.176l.323,18.275v9.832C728.687,2301.183,730.4,2304.277,733.689,2304.529Z" transform="translate(-728.329 -2266.667)" fill="#ffbf9d"/></g><g transform="translate(8.249 5.029)"><path d="M740.311,2277.954a2.662,2.662,0,0,0-3.549-.774,3.018,3.018,0,0,0-1.005,3.773,3.972,3.972,0,0,0,2.548,1.926,1.993,1.993,0,0,1,1.561,2.147,6.648,6.648,0,0,1-1.823,3.617,9.584,9.584,0,0,1-6.011,2.847c-2.211.262-4.745-.2-6.032-2.017a8.242,8.242,0,0,1-1.038-4.672q-.118-5.743-.238-11.486a16.425,16.425,0,0,1,.262-4.121,5.532,5.532,0,0,1,2.174-3.408c1.263-.831,2.863-.9,4.3-1.367a35.387,35.387,0,0,0,5.009-2.635c1.682-.861,3.746-1.375,5.435-.527,1.212.608,2.025,1.818,3.2,2.49,1.679.955,3.964.738,4.779,3.206a4.19,4.19,0,0,1-.028,2.641c-1.139,3.36-5.3,4.713-8.3,3.261a8.221,8.221,0,0,1-.1,3.633c-.192.575-.26,1.45-1.157,1.466" transform="translate(-724.709 -2260.823)" fill="#263238"/></g><g transform="translate(0.702)"><path d="M723.4,2265.544a17.662,17.662,0,0,0,1.668-5.216,5.98,5.98,0,0,0-1.636-5.042,4.92,4.92,0,0,0-3.423-1.211,5.787,5.787,0,0,0-5.218,4.135,6.233,6.233,0,0,0,2.1,6.387,6.76,6.76,0,0,0,6.728.878" transform="translate(-714.58 -2254.074)" fill="#263238"/></g><g transform="translate(8.08 9.576)"><path d="M726.943,2266.927a2.557,2.557,0,0,1-2.461,2.4c-.025-.106.761-.314,1.438-.99C726.612,2267.68,726.839,2266.9,726.943,2266.927Z" transform="translate(-724.481 -2266.926)" fill="#ff4f5b"/></g><g transform="translate(2.921 6.124)"><path d="M723.47,2267.014a4.912,4.912,0,0,1-1.41,1.031,4.066,4.066,0,0,1-1.858.526,2.587,2.587,0,0,1-2.168-.972,2.887,2.887,0,0,1-.384-2.348,4.558,4.558,0,0,1,.873-1.719,5.421,5.421,0,0,1,1.229-1.239,16.41,16.41,0,0,1-1.019,1.392,4.676,4.676,0,0,0-.753,1.64,2.623,2.623,0,0,0,.35,2.057,2.3,2.3,0,0,0,1.869.851,4.086,4.086,0,0,0,1.744-.42C722.89,2267.355,723.435,2266.959,723.47,2267.014Z" transform="translate(-717.558 -2262.292)" fill="#263238"/></g><g transform="translate(0 11.455)"><path d="M713.645,2274.7a2.25,2.25,0,0,1,.253.575,5.945,5.945,0,0,0,.765,1.48,2.147,2.147,0,0,0,2.033.935,2.79,2.79,0,0,0,1.957-1.971,20.213,20.213,0,0,0,.531-3.016,4.66,4.66,0,0,1,.992-2.379,2.553,2.553,0,0,1,1.512-.862,1,1,0,0,1,.636.053c0,.036-.229-.01-.609.087a2.578,2.578,0,0,0-1.341.891,4.594,4.594,0,0,0-.854,2.264,18.077,18.077,0,0,1-.518,3.081,3.092,3.092,0,0,1-2.246,2.185,2.069,2.069,0,0,1-1.408-.273,2.932,2.932,0,0,1-.895-.842,5.07,5.07,0,0,1-.691-1.589A1.922,1.922,0,0,1,713.645,2274.7Z" transform="translate(-713.638 -2269.448)" fill="#263238"/></g></g><g transform="translate(13.59 60.335)"><path d="M709.821,2335.048s-2.647,19.389,0,21.846a5.533,5.533,0,0,0,5.194,1.642l5.04-4.214.992-19.274Z" transform="translate(-708.644 -2335.048)" fill="#ffbf9d"/></g><g transform="translate(56.666 6.889)"><path d="M795.134,2263.32l-4.878,3.131c-.221-1.928-1.693-3.84-1.618-2.871s.01,5.995.01,5.995l-8.7,18.308a8.67,8.67,0,0,1-5.368,5.155l-8.122,2.415,3.175,10.737,11.288-3.743a9.735,9.735,0,0,0,6.187-6.2l7.781-23.7a36.67,36.67,0,0,0,1.257-4.671C796.477,2265.89,795.134,2263.32,795.134,2263.32Z" transform="translate(-766.456 -2263.32)" fill="#ffbf9d"/></g><g transform="translate(35.023 201.695)"><g transform="translate(0.054)"><path d="M747.773,2530.195l-.121-5.429-10.171.162.093,7.945.632.031c2.809.111,14.29.366,16.157-.233C756.445,2532,747.773,2530.195,747.773,2530.195Z" transform="translate(-737.481 -2524.766)" fill="#ff4f5b"/><g transform="translate(0.058 5.104)" opacity="0.5"><path d="M741.281,2534.48a3.531,3.531,0,0,0-1.332-2.148,3.428,3.428,0,0,0-2.39-.7l.043,2.842Z" transform="translate(-737.559 -2531.616)" fill="#fff"/></g></g><g transform="translate(0.147 6.462)" opacity="0.4"><path d="M752.045,2533.439s3.043.826,2.673,1.331-11.982.683-17.111.314l.013-.227,13.546-.093S751.453,2533.473,752.045,2533.439Z" transform="translate(-737.606 -2533.439)" fill="#fff"/></g><g transform="translate(0 7.619)"><path d="M737.409,2535.247a.857.857,0,0,0,.175.016l.5.023,1.849.051c1.563.032,3.721.048,6.105.013s4.542-.114,6.1-.191l1.848-.106.5-.037a.981.981,0,0,0,.174-.021.949.949,0,0,0-.176,0l-.5.014-1.849.066c-1.56.055-3.717.12-6.1.156s-4.54.032-6.1.022l-1.85-.012h-.5A1.03,1.03,0,0,0,737.409,2535.247Z" transform="translate(-737.409 -2534.991)" fill="#263238"/></g><g transform="translate(13.687 6.336)"><path d="M755.8,2534.878a2.689,2.689,0,0,1,.951-1.605,1.644,1.644,0,0,0-.951,1.605Z" transform="translate(-755.778 -2533.27)" fill="#263238"/></g><g transform="translate(10.677 5.612)"><path d="M751.743,2533.154c.029.018.17-.16.314-.4s.239-.442.21-.459-.17.158-.315.395S751.714,2533.136,751.743,2533.154Z" transform="translate(-751.738 -2532.298)" fill="#263238"/></g><g transform="translate(9.849 5.462)"><path d="M750.63,2532.679c.023.025.182-.084.355-.244s.294-.31.271-.335-.182.084-.355.244S750.607,2532.655,750.63,2532.679Z" transform="translate(-750.627 -2532.096)" fill="#263238"/></g><g transform="translate(9.316 5.029)"><path d="M749.912,2531.58a1.216,1.216,0,0,0,.532.059,1.2,1.2,0,0,0,.531-.063,2.314,2.314,0,0,0-1.063,0Z" transform="translate(-749.912 -2531.516)" fill="#263238"/></g><g transform="translate(9.127 4.408)"><path d="M749.658,2530.693a1.5,1.5,0,0,0,1.206.072,3.277,3.277,0,0,0-.6-.032A3.2,3.2,0,0,0,749.658,2530.693Z" transform="translate(-749.658 -2530.682)" fill="#263238"/></g><g transform="translate(11.013 4.641)"><path d="M752.19,2531.929a1.913,1.913,0,0,0,.653-.014,3.915,3.915,0,0,0,.694-.164,1.922,1.922,0,0,0,.4-.17.353.353,0,0,0,.159-.206.258.258,0,0,0-.1-.259,1.2,1.2,0,0,0-1.477.373,1.167,1.167,0,0,0-.206.439.356.356,0,0,0-.014.177,1.849,1.849,0,0,1,.289-.563,1.182,1.182,0,0,1,.553-.371,1.011,1.011,0,0,1,.779.041c.105.075.066.2-.048.268a1.971,1.971,0,0,1-.365.163,4.524,4.524,0,0,1-.67.186C752.439,2531.9,752.189,2531.909,752.19,2531.929Z" transform="translate(-752.19 -2530.995)" fill="#263238"/></g><g transform="translate(10.314 4.35)"><path d="M752.121,2531.859a.651.651,0,0,0,.068-.455,1.073,1.073,0,0,0-.185-.475.657.657,0,0,0-.549-.325.26.26,0,0,0-.2.3.7.7,0,0,0,.115.291,1.99,1.99,0,0,0,.314.39.947.947,0,0,0,.379.259c.011-.016-.132-.115-.316-.32a2.307,2.307,0,0,1-.279-.388c-.092-.136-.157-.384.007-.416s.332.141.434.271a1.069,1.069,0,0,1,.191.422A2.434,2.434,0,0,1,752.121,2531.859Z" transform="translate(-751.252 -2530.604)" fill="#263238"/></g><g transform="translate(0.165 5.012)"><path d="M737.63,2531.57c0,.023.291-.032.752.015a3.189,3.189,0,0,1,2.7,2.083c.162.434.181.727.2.724a.6.6,0,0,0,0-.206,2.706,2.706,0,0,0-.119-.547,3.091,3.091,0,0,0-2.772-2.14,2.7,2.7,0,0,0-.559.022A.591.591,0,0,0,737.63,2531.57Z" transform="translate(-737.63 -2531.493)" fill="#263238"/></g><g transform="translate(1.097 0.84)"><path d="M738.938,2525.894a35.128,35.128,0,0,0,.011,4.181,35.545,35.545,0,0,0-.011-4.181Z" transform="translate(-738.882 -2525.894)" fill="#263238"/></g><g transform="translate(5.098 6.926)"><path d="M744.251,2534.092a8.37,8.37,0,0,0,2.973-.017c0-.036-.668.015-1.487.019S744.255,2534.057,744.251,2534.092Z" transform="translate(-744.251 -2534.062)" fill="#263238"/></g><g transform="translate(3.1 6.98)"><path d="M741.574,2534.138c-.025.025.057.14.127.292s.11.286.145.283.05-.161-.033-.335S741.6,2534.113,741.574,2534.138Z" transform="translate(-741.57 -2534.134)" fill="#263238"/></g><g transform="translate(2.334 6.056)"><path d="M740.546,2532.9c-.024.025.044.13.151.235s.213.17.237.146-.044-.129-.151-.234S740.57,2532.874,740.546,2532.9Z" transform="translate(-740.542 -2532.893)" fill="#263238"/></g><g transform="translate(1.257 5.589)"><path d="M739.1,2532.328c.007.034.142.031.293.082s.259.128.285.1-.061-.163-.247-.222S739.086,2532.3,739.1,2532.328Z" transform="translate(-739.096 -2532.268)" fill="#263238"/></g><g transform="translate(0.488 5.436)"><path d="M738.065,2532.086c-.012.032.047.083.132.115s.163.031.175,0-.047-.083-.132-.115S738.077,2532.054,738.065,2532.086Z" transform="translate(-738.064 -2532.062)" fill="#263238"/></g></g><g transform="translate(0 194.683)"><path d="M699.883,2526.059l3.448-4.194-7.815-6.51-5.111,6.083.459.435c2.057,1.916,10.594,9.6,12.4,10.361C705.278,2533.085,699.883,2526.059,699.883,2526.059Z" transform="translate(-690.405 -2515.355)" fill="#ff4f5b"/><g transform="translate(0.101 3.795)" opacity="0.5"><path d="M693.325,2525.035a3.529,3.529,0,0,0,.391-2.5,3.435,3.435,0,0,0-1.354-2.09l-1.821,2.183Z" transform="translate(-690.541 -2520.448)" fill="#fff"/></g><g transform="translate(0 5.919)" opacity="0.4"><path d="M702.423,2531.633s1.768,2.61,1.159,2.752-9.529-7.3-13.177-10.922l.158-.164,10.33,8.765S701.952,2531.273,702.423,2531.633Z" transform="translate(-690.405 -2523.299)" fill="#fff"/></g><g transform="translate(0.039 5.812)"><path d="M690.458,2523.155a.924.924,0,0,0,.122.127l.367.345,1.369,1.245c1.163,1.043,2.79,2.463,4.619,3.991s3.518,2.876,4.752,3.835l1.469,1.125.4.3a.994.994,0,0,0,.146.1.892.892,0,0,0-.131-.118l-.39-.316-1.444-1.156c-1.22-.976-2.9-2.334-4.727-3.861s-3.463-2.937-4.641-3.963l-1.394-1.215-.382-.328A.966.966,0,0,0,690.458,2523.155Z" transform="translate(-690.458 -2523.155)" fill="#263238"/></g><g transform="translate(10.383 14.134)"><path d="M704.341,2534.993a2.683,2.683,0,0,1,1.768-.6,1.644,1.644,0,0,0-1.768.6Z" transform="translate(-704.339 -2534.324)" fill="#263238"/></g><g transform="translate(9.055 11.395)"><path d="M702.558,2530.964a1.074,1.074,0,0,0,.5-.094c.264-.084.469-.179.458-.212a1.076,1.076,0,0,0-.5.095C702.752,2530.837,702.547,2530.932,702.558,2530.964Z" transform="translate(-702.557 -2530.647)" fill="#263238"/></g><g transform="translate(8.701 10.77)"><path d="M702.083,2529.889c0,.034.193.054.428.046s.425-.044.424-.077-.193-.054-.428-.046S702.081,2529.855,702.083,2529.889Z" transform="translate(-702.083 -2529.81)" fill="#263238"/></g><g transform="translate(8.915 9.776)"><path d="M702.371,2528.478c-.022.026.141.2.364.392s.422.323.445.3-.141-.2-.364-.392S702.393,2528.452,702.371,2528.478Z" transform="translate(-702.369 -2528.475)" fill="#263238"/></g><g transform="translate(9.209 9.143)"><path d="M702.768,2527.627a1.5,1.5,0,0,0,.867.841c.018-.031-.2-.188-.436-.418S702.8,2527.608,702.768,2527.627Z" transform="translate(-702.764 -2527.626)" fill="#263238"/></g><g transform="translate(9.85 11.097)"><path d="M703.663,2530.4a1.88,1.88,0,0,0,.5.415,3.772,3.772,0,0,0,.633.328,1.9,1.9,0,0,0,.411.129.351.351,0,0,0,.254-.052.257.257,0,0,0,.092-.264,1.2,1.2,0,0,0-1.363-.68,1.163,1.163,0,0,0-.443.2c-.092.069-.131.119-.126.124a1.865,1.865,0,0,1,.586-.238,1.178,1.178,0,0,1,.661.079,1.015,1.015,0,0,1,.565.539c.03.126-.079.194-.212.173a1.964,1.964,0,0,1-.383-.115,4.45,4.45,0,0,1-.629-.3C703.868,2530.546,703.675,2530.386,703.663,2530.4Z" transform="translate(-703.624 -2530.248)" fill="#263238"/></g><g transform="translate(9.835 9.966)"><path d="M703.767,2530.148c0,.011.183-.055.348-.3a1.07,1.07,0,0,0,.169-.481.654.654,0,0,0-.2-.6.26.26,0,0,0-.348.1.718.718,0,0,0-.1.295,1.981,1.981,0,0,0-.016.5.946.946,0,0,0,.118.443c.019-.005-.025-.174-.031-.448a2.264,2.264,0,0,1,.041-.477c.019-.163.131-.393.276-.311a.586.586,0,0,1,.153.489,1.076,1.076,0,0,1-.13.445A2.4,2.4,0,0,1,703.767,2530.148Z" transform="translate(-703.605 -2528.73)" fill="#263238"/></g><g transform="translate(1.981 3.807)"><path d="M693.064,2520.465c-.013.019.242.165.56.5a3.188,3.188,0,0,1,.686,3.337c-.16.434-.337.668-.317.681s.055-.049.131-.157a2.665,2.665,0,0,0,.266-.492,3.089,3.089,0,0,0-.7-3.43,2.679,2.679,0,0,0-.439-.348A.567.567,0,0,0,693.064,2520.465Z" transform="translate(-693.063 -2520.464)" fill="#263238"/></g><g transform="translate(2.784 1.231)"><path d="M696.859,2517.008a17.89,17.89,0,0,0-1.405,1.549,17.615,17.615,0,0,0-1.312,1.628,35.31,35.31,0,0,0,2.717-3.177Z" transform="translate(-694.141 -2517.007)" fill="#263238"/></g><g transform="translate(4.502 8.44)"><path d="M696.449,2526.683a8.35,8.35,0,0,0,2.265,1.925c.02-.029-.516-.424-1.139-.955S696.475,2526.657,696.449,2526.683Z" transform="translate(-696.448 -2526.682)" fill="#263238"/></g><g transform="translate(2.798 7.161)"><path d="M694.337,2524.966c-.035,0-.048.143-.094.3s-.1.289-.075.309.143-.09.194-.276S694.369,2524.961,694.337,2524.966Z" transform="translate(-694.16 -2524.966)" fill="#263238"/></g><g transform="translate(2.953 5.962)"><path d="M694.411,2523.356c-.034,0-.051.126-.039.276s.05.268.084.265.051-.126.039-.276S694.446,2523.354,694.411,2523.356Z" transform="translate(-694.368 -2523.356)" fill="#263238"/></g><g transform="translate(2.442 4.937)"><path d="M693.684,2521.989c-.016.031.088.117.169.252s.112.267.148.266.06-.163-.043-.33S693.7,2521.958,693.684,2521.989Z" transform="translate(-693.683 -2521.981)" fill="#263238"/></g><g transform="translate(1.969 4.297)"><path d="M693.064,2521.125c-.03.017-.019.094.025.174s.1.13.133.113.018-.094-.025-.173S693.094,2521.108,693.064,2521.125Z" transform="translate(-693.048 -2521.122)" fill="#263238"/></g></g><g transform="translate(0.856 85.926)"><g transform="translate(0 5.207)"><path d="M721.342,2377.017s-3.386,14.328-2.428,17.163,7.162,4.473,7.162,4.473l-.209,39.235L691.554,2480.3l12.671,10.366s37.145-42.492,40.419-50.186-2.087-64.1-2.087-64.1Z" transform="translate(-691.554 -2376.382)" fill="#263238"/></g><g transform="translate(18.646)"><path d="M745.245,2369.394l1.68,119.166-17.456.089-8.76-97.054h0c-1.852-1.767-4.456-4.795-4.1-11.545l.425-7.843Z" transform="translate(-716.578 -2369.394)" fill="#263238"/></g><g transform="translate(28.907 24.118)"><path d="M730.351,2450.99a.7.7,0,0,1,.1-.177l.331-.489,1.3-1.835,4.736-6.556-.029.09c-.38-4.136-.841-9.152-1.338-14.56-.633-7.087-1.147-13.51-1.448-18.163-.154-2.326-.256-4.211-.311-5.514-.022-.623-.039-1.121-.051-1.5a2.73,2.73,0,0,1,.007-.525,2.83,2.83,0,0,1,.066.521c.031.378.071.875.121,1.5.1,1.34.25,3.21.428,5.5.369,4.646.923,11.063,1.556,18.149.476,5.427.961,10.435,1.274,14.592l0,.046-.033.044-4.84,6.479q-.856,1.122-1.364,1.787l-.367.462C730.4,2450.944,730.357,2450.995,730.351,2450.99Z" transform="translate(-730.35 -2401.762)" fill="#455a64"/></g><g transform="translate(25.136 22.186)"><path d="M734.419,2401.1a39.478,39.478,0,0,1-9.13-1.917,118.512,118.512,0,0,1,9.13,1.917Z" transform="translate(-725.289 -2399.169)" fill="#455a64"/></g><g transform="translate(36.659 63.175)"><path d="M750.317,2455.808a13.93,13.93,0,0,0-9.563-.758,3.966,3.966,0,0,1,1.36-.533,10.717,10.717,0,0,1,6.943.551A3.983,3.983,0,0,1,750.317,2455.808Z" transform="translate(-740.754 -2454.181)" fill="#455a64"/></g><g transform="translate(30.152 70.325)"><path d="M754.247,2463.777c.081.061-4.829,6.652-10.965,14.718s-11.179,14.558-11.26,14.5,4.828-6.651,10.966-14.72S754.166,2463.715,754.247,2463.777Z" transform="translate(-732.021 -2463.776)" fill="#455a64"/></g><g transform="translate(41.221 7.924)"><path d="M755.669,2380.957a2.922,2.922,0,0,1-.982,1.3,4.864,4.864,0,0,1-7.115-.75,2.924,2.924,0,0,1-.69-1.473,15.049,15.049,0,0,0,.893,1.309,4.848,4.848,0,0,0,6.748.711A15.132,15.132,0,0,0,755.669,2380.957Z" transform="translate(-746.877 -2380.029)" fill="#455a64"/></g></g><g transform="translate(22.28 12.235)"><path d="M725.047,2291.724a15.224,15.224,0,0,1-.826-21.23" transform="translate(-720.307 -2270.494)" fill="#263238"/></g><g transform="translate(12.639 44.581)"><path d="M711.946,2313.905s-3.793,4.283-4.578,20.668c0,0,10.8,2.049,11,1.46S711.946,2313.905,711.946,2313.905Z" transform="translate(-707.368 -2313.905)" fill="#ff3c00"/></g><g transform="translate(12.639 44.581)" opacity="0.3"><path d="M711.946,2313.905s-3.793,4.283-4.578,20.668c0,0,10.8,2.049,11,1.46S711.946,2313.905,711.946,2313.905Z" transform="translate(-707.368 -2313.905)"/></g><g transform="translate(20.27 65.249)"><path d="M717.609,2341.644" transform="translate(-717.609 -2341.644)" fill="#455a64"/></g><g transform="translate(16.03 36.527)"><path d="M714.855,2358.868H748.01l-.536-5.178s-3.788-19.7-3.761-19.965l.6-1.255a12.5,12.5,0,0,0,.145-10.427h0l16.235-5.552-3.975-13.4c-7.367,1.244-18.5,2.631-18.5,2.631l-1.658.139s-11.495.6-11.74.629c-4.809.582-10.4.951-12.449,6.1-1.094,2.751-.054,6.883,1.73,11.141l4.25,13.08c1.7,7.189-1.011,6.848-2.5,14.083C715.624,2351.991,714.832,2357.865,714.855,2358.868Z" transform="translate(-711.919 -2303.097)" fill="#ff3c00"/></g><g transform="translate(16.03 36.527)" opacity="0.3"><path d="M714.855,2358.868H748.01l-.536-5.178s-3.788-19.7-3.761-19.965l.6-1.255a12.5,12.5,0,0,0,.145-10.427h0l16.235-5.552-3.975-13.4c-7.367,1.244-18.5,2.631-18.5,2.631l-1.658.139s-11.495.6-11.74.629c-4.809.582-10.4.951-12.449,6.1-1.094,2.751-.054,6.883,1.73,11.141l4.25,13.08c1.7,7.189-1.011,6.848-2.5,14.083C715.624,2351.991,714.832,2357.865,714.855,2358.868Z" transform="translate(-711.919 -2303.097)"/></g><g transform="translate(46.011 50.135)"><path d="M770.795,2321.365a3.254,3.254,0,0,1-.721.3c-.471.172-1.156.41-2.006.7-1.7.574-4.055,1.334-6.657,2.165s-4.929,1.66-6.581,2.342c-.829.334-1.488.633-1.948.829a.392.392,0,1,1-.063-.128c.443-.237,1.089-.573,1.909-.94a62.742,62.742,0,0,1,6.57-2.453c2.606-.833,4.973-1.553,6.692-2.063.859-.254,1.557-.454,2.041-.583A3.144,3.144,0,0,1,770.795,2321.365Z" transform="translate(-752.155 -2321.36)" fill="#263238"/></g><g transform="translate(18.937 42.824)"><path d="M759.606,2311.732c0,.1-9.8.184-21.892.184s-21.893-.083-21.893-.184,9.8-.184,21.893-.184S759.606,2311.63,759.606,2311.732Z" transform="translate(-715.82 -2311.548)" fill="#fafafa"/></g><g transform="translate(15.007 49.336)"><path d="M759.272,2320.471c0,.1-10.908.184-24.361.184s-24.364-.082-24.364-.184,10.906-.184,24.364-.184S759.272,2320.37,759.272,2320.471Z" transform="translate(-710.546 -2320.287)" fill="#fafafa"/></g><g transform="translate(13.66 56.746)"><path d="M712.8,2330.416a11.29,11.29,0,1,1-2.03-.184A5.772,5.772,0,0,1,712.8,2330.416Z" transform="translate(-708.738 -2330.232)" fill="#fafafa"/></g><g transform="translate(17.721 56.97)"><path d="M746.054,2330.717c0,.1-7.134.184-15.933.184s-15.933-.082-15.933-.184,7.132-.184,15.933-.184S746.054,2330.616,746.054,2330.717Z" transform="translate(-714.188 -2330.533)" fill="#fafafa"/></g><g transform="translate(20.284 64.605)"><path d="M746.228,2340.963c0,.1-6.4.184-14.3.184s-14.3-.082-14.3-.184,6.4-.184,14.3-.184S746.228,2340.862,746.228,2340.963Z" transform="translate(-717.628 -2340.779)" fill="#fafafa"/></g><g transform="translate(22.754 71.678)"><path d="M746.866,2350.456c0,.1-5.8.184-12.961.184s-12.962-.083-12.962-.184,5.8-.184,12.962-.184S746.866,2350.354,746.866,2350.456Z" transform="translate(-720.943 -2350.272)" fill="#fafafa"/></g><g transform="translate(22.081 77.403)"><path d="M747.77,2358.14c0,.1-6.208.185-13.865.185s-13.866-.083-13.866-.185,6.207-.184,13.866-.184S747.77,2358.039,747.77,2358.14Z" transform="translate(-720.039 -2357.956)" fill="#fafafa"/></g><g transform="translate(20.06 84.702)"><path d="M748.875,2367.935c0,.1-7.063.184-15.773.184s-15.775-.083-15.775-.184,7.061-.184,15.775-.184S748.875,2367.833,748.875,2367.935Z" transform="translate(-717.327 -2367.751)" fill="#fafafa"/></g><g transform="translate(16.397 52.51)"><path d="M718.274,2341.67a2.693,2.693,0,0,1-.294-.652l-.7-1.809c-.583-1.529-1.4-3.638-2.259-5.988s-1.562-4.506-2.008-6.086c-.222-.79-.388-1.433-.484-1.882a2.686,2.686,0,0,1-.115-.705,25.782,25.782,0,0,1,.848,2.511c.508,1.555,1.248,3.69,2.106,6.036s1.636,4.471,2.158,6.026c.262.776.461,1.41.588,1.851A2.73,2.73,0,0,1,718.274,2341.67Z" transform="translate(-712.411 -2324.547)" fill="#263238"/></g></g><g transform="translate(875.588 2207.562)"><g transform="translate(45.275 37.551)"><path d="M1033.856,2529.239a2.373,2.373,0,0,1-1.654-.412.5.5,0,0,1-.052-.567.553.553,0,0,1,.377-.3c.882-.248,2.918.842,3,.888a.149.149,0,0,1,.078.133.112.112,0,0,1-.091.106A9.33,9.33,0,0,1,1033.856,2529.239Zm-.987-1.061a.944.944,0,0,0-.247.029.339.339,0,0,0-.233.182c-.074.161-.031.241.007.287.294.353,1.679.361,2.68.218A6.473,6.473,0,0,0,1032.87,2528.178Z" transform="translate(-1017.635 -2346.06)" fill="#ff3c00"/><path d="M1035.92,2528.639a.148.148,0,0,1-.055-.011c-.693-.3-2.135-1.48-2.1-2.1.007-.146.09-.326.442-.362a1.037,1.037,0,0,1,.744.222,4.16,4.16,0,0,1,1.085,2.109.117.117,0,0,1-.04.117A.119.119,0,0,1,1035.92,2528.639Zm-1.583-2.219a.7.7,0,0,0-.078,0c-.23.024-.235.115-.237.145-.018.372.975,1.3,1.7,1.707a3.461,3.461,0,0,0-.911-1.688A.765.765,0,0,0,1034.336,2526.42Z" transform="translate(-1018.062 -2345.612)" fill="#ff3c00"/><path d="M1042.173,2524.977H1036.7l-1.962-12.676h5.474Z" transform="translate(-1018.31 -2342.078)" fill="#ffc3bd"/><path d="M1033.993,2528.463h5.978a.548.548,0,0,1,.507.373l1.625,4.865a.709.709,0,0,1-.679.974c-2.16-.036-5.29-.163-8-.163-3.17,0-2.886.173-6.6.173-2.247,0-3.125-2.272-2.207-2.478,4.178-.937,4.661-1.037,8.107-3.319A2.3,2.3,0,0,1,1033.993,2528.463Z" transform="translate(-1015.639 -2346.198)" fill="#263238"/><g transform="translate(16.429 170.226)"><path d="M1034.74,2512.305l1.01,6.534h5.476l-1.01-6.534Z" transform="translate(-1034.74 -2512.305)" opacity="0.2"/></g><path d="M1042.611,2346.028l-3.716,3.765,5.709,2.017s2.211-3.071.668-5.171Z" transform="translate(-1019.37 -2299.697)" fill="#ffc3bd"/><path d="M1037.2,2356.34l5.7.833,1.275-4.076-5.708-2.017Z" transform="translate(-1018.938 -2300.985)" fill="#ffc3bd"/><path d="M1044,2283.848c.484,1.039.87,1.929,1.261,2.894.389.948.758,1.9,1.118,2.856.709,1.916,1.342,3.865,1.928,5.842a62.315,62.315,0,0,1,1.48,6.074l.282,1.564.228,1.6c.083.527.13,1.075.18,1.621.044.566.116,1.035.121,1.726l.019.965-.034.855-.043.847-.078.8c-.1,1.073-.24,2.08-.377,3.1-.3,2.013-.636,3.977-1.016,5.929-.79,3.9-1.653,7.707-2.7,11.54l-6.788-1.337c.428-3.79.878-7.634,1.234-11.417.176-1.892.355-3.775.462-5.623.043-.914.1-1.839.1-2.705l.008-.656-.017-.609-.013-.6-.048-.489c-.006-.282-.107-.771-.166-1.17-.066-.418-.128-.833-.227-1.261l-.27-1.272-.323-1.283c-.465-1.713-.987-3.435-1.582-5.158s-1.258-3.435-1.956-5.136c-.347-.852-.7-1.7-1.075-2.539-.363-.823-.765-1.708-1.106-2.426Z" transform="translate(-1018.276 -2283.848)" fill="#263238"/><path d="M1012.691,2342.446s.908,41.9,3.369,58.6c2.559,17.363,11.888,73.237,11.888,73.237h9.273s-3.329-53.179-4.386-70.264c-1.151-18.625-.9-61.568-.9-61.568Z" transform="translate(-1012.691 -2298.784)" fill="#ff3c00"/><path d="M1030.219,2514.419c-.042,0,.954,3.85.954,3.85h11.279l-.079-3.436Z" transform="translate(-1017.158 -2342.618)" fill="#263238"/></g><ellipse cx="0.84" cy="0.548" rx="0.84" ry="0.548" transform="matrix(0.061, -0.998, 0.998, 0.061, 42.039, 14.051)" fill="#263238"/><path d="M1008.771,2252.354a17.355,17.355,0,0,1-2.355,3.965,2.633,2.633,0,0,0,2.2.416Z" transform="translate(-965.816 -2238.269)" fill="#ff847f"/><path d="M1011.379,2247.425a.26.26,0,0,1-.156-.052,2.142,2.142,0,0,0-1.922-.355.264.264,0,0,1-.346-.156.282.282,0,0,1,.168-.352,2.672,2.672,0,0,1,2.434.422.269.269,0,0,1,.048.38A.282.282,0,0,1,1011.379,2247.425Z" transform="translate(-966.459 -2236.747)" fill="#263238"/><path d="M1024.929,2258.1c-.926,4-1.969,11.342.739,14.014,0,0-1.239,4.063-8.679,4.063-8.182,0-3.767-4.062-3.767-4.062,4.5-1.067,4.5-4.38,3.837-7.491Z" transform="translate(-967.248 -2239.734)" fill="#ffc3bd"/><path d="M1027.916,2277.767c.8-1.637,1.692-3.51.013-4.1-1.847-.646-12.062-1.3-15.635-.092a3.76,3.76,0,0,0-2.689,4.531Z" transform="translate(-966.605 -2243.506)" fill="#ff3c00"/><path d="M1042.376,2278.794c4.717,2.174,7.116,18.67,7.116,18.67l-9.5,2.98a96.9,96.9,0,0,1-4.121-13.421C1034.409,2280.145,1037.554,2276.571,1042.376,2278.794Z" transform="translate(-973.232 -2244.841)" fill="#263238"/><path d="M963.517,2312.174l-4.379-3.766-3.942,5.737s3.542,2.838,7.421,1.674Z" transform="translate(-952.761 -2252.557)" fill="#ffc3bd"/><path d="M952.536,2305.96l-.608,5.669,2.435,1.892,3.942-5.737Z" transform="translate(-951.928 -2251.933)" fill="#ffc3bd"/><path d="M1025.044,2247.048c-.551,5.694-.584,9.043-3.562,11.966a7.433,7.433,0,0,1-12.574-3.895c-1.042-5.115.034-13.566,5.686-15.832A7.518,7.518,0,0,1,1025.044,2247.048Z" transform="translate(-966.361 -2234.785)" fill="#ffc3bd"/><path d="M1013.684,2247.536c-.5-3.932-.418-5.423,1.685-6.292-2.181-.435-4.075-.5-4.975-1.77s-1.118-4.533,3.26-6.024c-.4.777.869,2.3,4.905.9s9.9-1.553,10.415,2.545c2.127-.745,5.7,5.837,1.517,10.639-3.506,4.027-5.848,6.8-6.537,8.936a.735.735,0,0,1-1.021.449c-1.459-.681-4.055-.1-5.2.216a.726.726,0,0,1-.849-.385C1016.134,2255.212,1014.1,2250.784,1013.684,2247.536Z" transform="translate(-966.696 -2233.451)" fill="#263238"/><path d="M1034.52,2238.3s1.726-2.438,5.041-.625A15,15,0,0,0,1034.52,2238.3Z" transform="translate(-972.98 -2234.357)" fill="#263238"/><path d="M1034.9,2237.979s2.4-1.475.528-4.3A10.952,10.952,0,0,1,1034.9,2237.979Z" transform="translate(-973.078 -2233.509)" fill="#263238"/><path d="M1017.2,2251.733a6.817,6.817,0,0,1-1.993,3.691c-1.379,1.3-2.574.379-2.614-1.3-.036-1.511.639-4.008,2.226-4.68C1016.385,2248.782,1017.483,2250.048,1017.2,2251.733Z" transform="translate(-967.391 -2237.482)" fill="#ffc3bd"/><path d="M1013.72,2373.7c.536,12.5,1.378,27.018,2.6,35.311.469,3.159,1.155,7.585,1.974,12.719C1021.588,2403.753,1023.555,2380.6,1013.72,2373.7Z" transform="translate(-967.678 -2269.198)" opacity="0.3"/><g transform="translate(30.829 81.213)"><path d="M1007.639,2529.239c-.7,0-1.377-.1-1.593-.412a.49.49,0,0,1,.031-.567.679.679,0,0,1,.422-.3c.919-.248,2.794.842,2.873.888a.126.126,0,0,1,.059.133.135.135,0,0,1-.107.106A9.727,9.727,0,0,1,1007.639,2529.239Zm-.83-1.061a1,1,0,0,0-.252.029.413.413,0,0,0-.26.182c-.1.161-.067.241-.036.287.242.353,1.626.361,2.649.218A5.681,5.681,0,0,0,1006.809,2528.178Z" transform="translate(-996.532 -2389.722)" fill="#ff3c00"/><path d="M1009.8,2528.639a.128.128,0,0,1-.052-.011c-.65-.3-1.917-1.48-1.8-2.1.029-.146.138-.326.5-.362a.923.923,0,0,1,.712.222,3.583,3.583,0,0,1,.775,2.109.134.134,0,0,1-.134.141Zm-1.257-2.219a.719.719,0,0,0-.078,0c-.234.024-.252.115-.258.145-.073.372.783,1.3,1.443,1.707a2.934,2.934,0,0,0-.663-1.688A.665.665,0,0,0,1008.545,2526.42Z" transform="translate(-997.035 -2389.273)" fill="#ff3c00"/><path d="M1016.615,2524.977h-5.474l-.1-12.676h5.474Z" transform="translate(-997.825 -2385.74)" fill="#ffc3bd"/><path d="M1006.678,2528.463h5.977a.457.457,0,0,1,.453.373l.91,4.865a.829.829,0,0,1-.822.974c-2.156-.036-5.267-.163-7.977-.163-3.169,0-5.912.173-9.628.173-2.247,0-2.791-2.272-1.843-2.478,4.315-.937,7.815-1.037,11.6-3.319A2.6,2.6,0,0,1,1006.678,2528.463Z" transform="translate(-993.303 -2389.86)" fill="#263238"/><g transform="translate(13.22 126.564)"><path d="M1011.046,2512.305l.049,6.534h5.476l-.049-6.534Z" transform="translate(-1011.046 -2512.305)" opacity="0.2"/></g><path d="M998.83,2342.446s-2.2,40.927-2.193,57.619c.007,17.362,8.79,74.213,8.79,74.213h9.273s-2.415-55.836-1.4-72.888c1.106-18.589,6.487-58.944,6.487-58.944Z" transform="translate(-994.153 -2342.446)" fill="#ff3c00"/><path d="M1006.213,2514.419c-.042,0,.388,3.85.388,3.85h11.28l.426-3.436Z" transform="translate(-996.593 -2386.281)" fill="#263238"/></g><path d="M1000.1,2278.367s-9.33,23.566-5.266,64.3h34.067c.361-4.494-3.207-43.4,1.875-64.581a75.29,75.29,0,0,0-9.757-1.238,107.415,107.415,0,0,0-12.446,0A55.975,55.975,0,0,0,1000.1,2278.367Z" transform="translate(-962.604 -2244.465)" fill="#263238"/><path d="M995.381,2304.6c-.507,3.755-.924,7.98-1.192,12.646,6.616-6.081,8.882-21.229,8.882-21.229Z" transform="translate(-962.7 -2249.398)" opacity="0.2"/><path d="M995.474,2292.8c-1.336,3.488-2.694,6.844-4.183,10.22-1.467,3.372-3.036,6.712-4.766,10.042l-.662,1.25-.336.624c-.142.25-.128.271-.518.915a7.3,7.3,0,0,1-2.692,2.5,8,8,0,0,1-2.913.881,12.267,12.267,0,0,1-4.174-.338,22.729,22.729,0,0,1-3.159-1.028,41.2,41.2,0,0,1-5.342-2.684c-.837-.484-1.645-1-2.443-1.526s-1.557-1.051-2.4-1.663l4.028-6.166a52.418,52.418,0,0,0,9.049,3.924,13.675,13.675,0,0,0,2.033.463,2.872,2.872,0,0,0,1.2,0c.042-.02-.1-.044-.347.08a2.041,2.041,0,0,0-.759.659c-.154.259.048-.13.112-.281l.272-.583.537-1.173c1.413-3.157,2.721-6.431,4-9.725,1.255-3.29,2.511-6.653,3.654-9.935Z" transform="translate(-954.466 -2247.676)" fill="#263238"/><path d="M1005.815,2281.3c1.739,4.872-10.6,24.49-10.6,24.49l-7.32-7.244s1.874-6.168,4.342-13.585C994.666,2277.663,1004.151,2276.64,1005.815,2281.3Z" transform="translate(-961.096 -2244.926)" fill="#263238"/></g></g></g></svg>