<svg xmlns="http://www.w3.org/2000/svg" xmlns:xlink="http://www.w3.org/1999/xlink" width="169" height="134" viewBox="0 0 169 134">
  <defs>
    <clipPath id="clip-path">
      <rect id="Rectángulo_339779" data-name="Rectángulo 339779" width="169" height="134" transform="translate(1146 4090)" fill="#fff" stroke="#707070" stroke-width="1"/>
    </clipPath>
  </defs>
  <g id="Grupo_953175" data-name="Grupo 953175" transform="translate(-1146 -4090)" clip-path="url(#clip-path)">
    <g id="voto-positivo" transform="translate(1177.958 4104.141)">
      <path id="Trazado_636971" data-name="Trazado 636971" d="M100.812,102.954A46.175,46.175,0,1,1,54.635,56.777a46.176,46.176,0,0,1,46.177,46.177Zm0,0" transform="translate(-6.317 -45.053)" fill="#ff3c00"/>
      <path id="Trazado_636972" data-name="Trazado 636972" d="M204.505,56.777a46.573,46.573,0,0,0-7.177.556,46.181,46.181,0,0,1,0,91.238,46.177,46.177,0,1,0,7.173-91.794Zm0,0" transform="translate(-156.187 -45.053)" fill="#cc3000"/>
      <path id="Trazado_636973" data-name="Trazado 636973" d="M243.716,61.627l-26.368,17.46a8.979,8.979,0,0,1-6.378,1.382,9.009,9.009,0,0,0-6.394,1.379l-3.529,2.338L181.286,55.059l4.848-20.946a21.853,21.853,0,0,0-3.071-17,5.227,5.227,0,0,1,8-6.639l3.141,3.042a33.579,33.579,0,0,1,8.1,12.421l1.7,4.585,17.539-11.588a5.981,5.981,0,0,1,8.379,1.825,6.06,6.06,0,0,1-1.878,8.216.066.066,0,0,0-.024.083.067.067,0,0,0,.085.033,5.925,5.925,0,0,1,2.137-.4,5.978,5.978,0,0,1,5.872,7.141,6.113,6.113,0,0,1-2.508,3.788.128.128,0,0,0-.033.177,0,0,0,0,0,0,0,.126.126,0,0,0,.169.033,6.131,6.131,0,0,1,1.451-.171,6.3,6.3,0,0,1,3.373.978,5.876,5.876,0,0,1,1.745,1.712,5.979,5.979,0,0,1-1.686,8.287c-.068.046-.136.092-.2.135a.094.094,0,0,0-.031.117.056.056,0,0,0,.022.022.1.1,0,0,0,.119,0,5.856,5.856,0,0,1,5.074.653,6.072,6.072,0,0,1,1.786,1.771,5.982,5.982,0,0,1-1.682,8.29Zm0,0" transform="translate(-143.456 -7.141)" fill="#fdd7bd"/>
      <path id="Trazado_636974" data-name="Trazado 636974" d="M65.828,251.358,54.7,258.724,38.645,269.359a46.225,46.225,0,0,1-28.082-36.33L29.2,220.687l11.345-7.513a2.837,2.837,0,0,1,3.934.8l22.151,33.445a2.841,2.841,0,0,1-.8,3.937Zm0,0" transform="translate(-7.984 -168.783)" fill="#87dbff"/>
      <path id="Trazado_636975" data-name="Trazado 636975" d="M137.452,251.357l-11.123,7.366-25.5-38.037,11.345-7.513a2.837,2.837,0,0,1,3.934.8l22.151,33.445a2.841,2.841,0,0,1-.8,3.937Zm0,0" transform="translate(-79.608 -168.783)" fill="#6fc7ff"/>
      <g id="Grupo_953176" data-name="Grupo 953176" transform="translate(77.648 21.554)">
        <path id="Trazado_636976" data-name="Trazado 636976" d="M386.533,105.346l-8.774,4.7a2.842,2.842,0,0,1-3.625-.815l6.917-4.476a.066.066,0,0,0,.085.033,5.925,5.925,0,0,1,2.137-.4A6.023,6.023,0,0,1,386.533,105.346Zm0,0" transform="translate(-374.133 -104.387)" fill="#fac5aa"/>
        <path id="Trazado_636977" data-name="Trazado 636977" d="M411.817,158.505l-8.583,4.589a2.84,2.84,0,0,1-3.626-.813l6.917-4.476.3-.14a.126.126,0,0,0,.169.033,6.14,6.14,0,0,1,1.451-.171A6.293,6.293,0,0,1,411.817,158.505Zm0,0" transform="translate(-394.349 -146.555)" fill="#fac5aa"/>
        <path id="Trazado_636978" data-name="Trazado 636978" d="M440.158,211.467l-7.56,4.044a2.844,2.844,0,0,1-3.625-.815l5.992-3.877a.1.1,0,0,0,.119,0,5.856,5.856,0,0,1,5.074.653Zm0,0" transform="translate(-417.65 -188.595)" fill="#fac5aa"/>
      </g>
      <path id="Trazado_636979" data-name="Trazado 636979" d="M103.313,45.29a7.572,7.572,0,0,0-4.689-3.228,7.615,7.615,0,0,0-5.079-10.978,7.634,7.634,0,0,0-.394-7.758A7.566,7.566,0,0,0,88.461,20.1,7.623,7.623,0,0,0,77.5,10.2l-7.59,5.027A47.428,47.428,0,0,0,57.1,10.887a35.238,35.238,0,0,0-4.89-5.916l-3.14-3.043a6.87,6.87,0,0,0-10.51,8.726q.123.188.243.377A47.821,47.821,0,1,0,93.308,74.142a1.643,1.643,0,1,0-3.092-1.116,44.591,44.591,0,0,1-55.958,27.139l13.374-8.857,0,0,0,0,11.115-7.361h0a4.484,4.484,0,0,0,1.263-6.213l-.147-.223,2.159-1.43a7.322,7.322,0,0,1,5.218-1.128A10.6,10.6,0,0,0,74.8,73.318l17.909-11.86a44.626,44.626,0,0,1-.606,4.617,1.643,1.643,0,0,0,1.316,1.916,1.6,1.6,0,0,0,.3.028,1.644,1.644,0,0,0,1.614-1.345A48.076,48.076,0,0,0,96.12,59.2l5.047-3.342a7.625,7.625,0,0,0,2.147-10.567ZM66.721,17.337,61.7,20.663,60.71,18A35.177,35.177,0,0,0,59.3,14.732a44.125,44.125,0,0,1,7.422,2.605Zm-52.053,11.4A44.536,44.536,0,0,1,40.373,14.077a20.308,20.308,0,0,1,1.024,12.3L37.389,43.69a4.475,4.475,0,0,0-5.737-.669L20.3,50.539h0L3.924,61.383c-.09-1.155-.136-2.319-.136-3.482a44.519,44.519,0,0,1,10.88-29.169ZM57.449,80.444a1.191,1.191,0,0,1-.513.76h0l-9.763,6.465L29.054,60.646a1.644,1.644,0,0,0-2.73,1.831L44.432,89.484,30.5,98.713A44.669,44.669,0,0,1,4.354,64.979l16.393-10.82,1.887,2.815a1.644,1.644,0,1,0,2.731-1.831l-1.874-2.795,9.977-6.586a1.2,1.2,0,0,1,1.657.338l22.15,33.446a1.185,1.185,0,0,1,.174.9Zm43.758-30.081a4.307,4.307,0,0,1-1.856,2.753l-5.769,3.821-.006,0L72.983,70.577A7.318,7.318,0,0,1,67.765,71.7a10.6,10.6,0,0,0-7.553,1.633l-2.159,1.43L39.912,47.375,44.6,27.118a23.618,23.618,0,0,0-1.729-15.5,1.611,1.611,0,0,0-.069-.146,23.252,23.252,0,0,0-1.5-2.63,3.583,3.583,0,0,1,5.481-4.551l3.14,3.044a32.117,32.117,0,0,1,7.708,11.812l1.71,4.606.01.024.013.032c.012.028.023.054.035.076a1.622,1.622,0,0,0,.113.2,1.643,1.643,0,0,0,2.278.463l17.532-11.61a4.337,4.337,0,1,1,4.789,7.232l-1.522,1.008h0l-3.395,2.249-.013.009c-.019.014-.038.027-.053.04A1.643,1.643,0,0,0,81,26.168l3.4-2.25a4.337,4.337,0,0,1,4.787,7.234L84.27,34.41a1.644,1.644,0,1,0,1.815,2.741l.761-.5L89.481,34.9a4.337,4.337,0,0,1,4.789,7.232l-2.457,1.627-.039.026-2.423,1.6a1.644,1.644,0,1,0,1.815,2.742l.761-.5h0l2.634-1.744a4.336,4.336,0,0,1,6.644,4.479Zm0,0" transform="translate(0 0)"/>
    </g>
  </g>
</svg>
